%TF.GenerationSoftware,KiCad,Pcbnew,9.0.4*%
%TF.CreationDate,2025-11-02T19:47:45-03:00*%
%TF.ProjectId,PowerPCB,506f7765-7250-4434-922e-6b696361645f,rev?*%
%TF.SameCoordinates,Original*%
%TF.FileFunction,Copper,L3,Inr*%
%TF.FilePolarity,Positive*%
%FSLAX46Y46*%
G04 Gerber Fmt 4.6, Leading zero omitted, Abs format (unit mm)*
G04 Created by KiCad (PCBNEW 9.0.4) date 2025-11-02 19:47:45*
%MOMM*%
%LPD*%
G01*
G04 APERTURE LIST*
G04 Aperture macros list*
%AMRoundRect*
0 Rectangle with rounded corners*
0 $1 Rounding radius*
0 $2 $3 $4 $5 $6 $7 $8 $9 X,Y pos of 4 corners*
0 Add a 4 corners polygon primitive as box body*
4,1,4,$2,$3,$4,$5,$6,$7,$8,$9,$2,$3,0*
0 Add four circle primitives for the rounded corners*
1,1,$1+$1,$2,$3*
1,1,$1+$1,$4,$5*
1,1,$1+$1,$6,$7*
1,1,$1+$1,$8,$9*
0 Add four rect primitives between the rounded corners*
20,1,$1+$1,$2,$3,$4,$5,0*
20,1,$1+$1,$4,$5,$6,$7,0*
20,1,$1+$1,$6,$7,$8,$9,0*
20,1,$1+$1,$8,$9,$2,$3,0*%
G04 Aperture macros list end*
%TA.AperFunction,ComponentPad*%
%ADD10RoundRect,0.250000X-1.050000X1.050000X-1.050000X-1.050000X1.050000X-1.050000X1.050000X1.050000X0*%
%TD*%
%TA.AperFunction,ComponentPad*%
%ADD11C,2.600000*%
%TD*%
%TA.AperFunction,ComponentPad*%
%ADD12R,1.700000X1.700000*%
%TD*%
%TA.AperFunction,ComponentPad*%
%ADD13C,1.700000*%
%TD*%
%TA.AperFunction,ViaPad*%
%ADD14C,0.600000*%
%TD*%
%TA.AperFunction,Conductor*%
%ADD15C,0.200000*%
%TD*%
G04 APERTURE END LIST*
D10*
%TO.N,V_OUT_5+*%
%TO.C,J5*%
X184377500Y-92500000D03*
D11*
%TO.N,GND*%
X184377500Y-97500000D03*
%TD*%
D12*
%TO.N,\u002ACC_12*%
%TO.C,J8*%
X145700000Y-113600000D03*
D13*
%TO.N,GND*%
X143160000Y-113600000D03*
%TD*%
D10*
%TO.N,V_BAT+*%
%TO.C,J1*%
X112300000Y-97800000D03*
D11*
%TO.N,GND*%
X112300000Y-102800000D03*
%TD*%
D12*
%TO.N,PG_12*%
%TO.C,J2*%
X135300000Y-113600000D03*
D13*
%TO.N,GND*%
X132760000Y-113600000D03*
%TD*%
D10*
%TO.N,V_OUT_12+*%
%TO.C,J4*%
X184377500Y-113400000D03*
D11*
%TO.N,GND*%
X184377500Y-118400000D03*
%TD*%
D12*
%TO.N,VBUS*%
%TO.C,J7*%
X146965000Y-121300000D03*
D13*
%TO.N,SCL*%
X144425000Y-121300000D03*
%TO.N,SDA*%
X141885000Y-121300000D03*
%TD*%
D12*
%TO.N,Net-(J9-Pin_1)*%
%TO.C,J9*%
X122040000Y-121300000D03*
D13*
%TO.N,EN_5*%
X119500000Y-121300000D03*
%TO.N,GND*%
X116960000Y-121300000D03*
%TD*%
D12*
%TO.N,PG_5*%
%TO.C,J10*%
X135300000Y-121300000D03*
D13*
%TO.N,GND*%
X132760000Y-121300000D03*
%TD*%
D12*
%TO.N,Net-(J3-Pin_1)*%
%TO.C,J3*%
X122040000Y-113400000D03*
D13*
%TO.N,EN_12*%
X119500000Y-113400000D03*
%TO.N,GND*%
X116960000Y-113400000D03*
%TD*%
D14*
%TO.N,PG_12*%
X140900000Y-90000000D03*
%TO.N,VCC_12*%
X149200000Y-88500000D03*
%TO.N,GND*%
X127300000Y-89100000D03*
%TO.N,V_BAT+*%
X144100000Y-90400000D03*
X144100000Y-91000000D03*
X144100000Y-89800000D03*
%TO.N,V_OUT_12+*%
X147000000Y-90443543D03*
X147000000Y-91100000D03*
X147000000Y-89800000D03*
%TO.N,V_BAT+*%
X128660000Y-96540000D03*
X126120000Y-96540000D03*
X118500000Y-96540000D03*
X131200000Y-94000000D03*
X128660000Y-94000000D03*
X126120000Y-94000000D03*
X123580000Y-94000000D03*
X121040000Y-94000000D03*
X118500000Y-94000000D03*
%TO.N,GND*%
X137500000Y-79460000D03*
X137500000Y-82000000D03*
X134960000Y-82000000D03*
X137500000Y-87060000D03*
X134960000Y-87060000D03*
X132420000Y-84520000D03*
X137500000Y-89600000D03*
X134960000Y-84520000D03*
X134960000Y-89600000D03*
X137500000Y-84520000D03*
X132420000Y-89600000D03*
X132420000Y-87060000D03*
%TO.N,V_BAT+*%
X110260000Y-89600000D03*
X112800000Y-81980000D03*
X112800000Y-84520000D03*
X112800000Y-87060000D03*
X110260000Y-87060000D03*
X112800000Y-89600000D03*
X110260000Y-84520000D03*
X110260000Y-81980000D03*
X112800000Y-79440000D03*
%TO.N,GND*%
X120360000Y-72460000D03*
X122900000Y-72460000D03*
X120360000Y-75000000D03*
X122900000Y-75000000D03*
X115360000Y-72460000D03*
X117900000Y-72460000D03*
X112820000Y-72460000D03*
X110280000Y-72460000D03*
X115360000Y-75000000D03*
X110280000Y-75000000D03*
X117900000Y-75000000D03*
X112820000Y-75000000D03*
%TO.N,V_OUT_5+*%
X168620000Y-80220000D03*
X171160000Y-85300000D03*
X173700000Y-80220000D03*
X168620000Y-82760000D03*
X168620000Y-85300000D03*
X171160000Y-82760000D03*
X173700000Y-85300000D03*
X171160000Y-80220000D03*
X173700000Y-82760000D03*
X173520000Y-72820000D03*
X176060000Y-77900000D03*
X178600000Y-72820000D03*
X173520000Y-75360000D03*
X173520000Y-77900000D03*
X176060000Y-75360000D03*
X178600000Y-77900000D03*
X176060000Y-72820000D03*
X178600000Y-75360000D03*
%TO.N,GND*%
X161300000Y-80540000D03*
X158760000Y-80540000D03*
X156220000Y-78000000D03*
X158760000Y-78000000D03*
X156220000Y-80540000D03*
X166340000Y-100540000D03*
X168880000Y-100540000D03*
X166340000Y-98000000D03*
X163800000Y-98000000D03*
X168880000Y-103080000D03*
X168880000Y-98000000D03*
X166240000Y-93240000D03*
X168780000Y-93240000D03*
X166240000Y-90700000D03*
X163700000Y-93240000D03*
X161160000Y-93240000D03*
X161160000Y-90700000D03*
X166240000Y-95780000D03*
X161160000Y-95780000D03*
X163700000Y-90700000D03*
X168780000Y-95780000D03*
X163700000Y-95780000D03*
X161340000Y-85440000D03*
X163880000Y-85440000D03*
X161340000Y-82900000D03*
X158800000Y-85440000D03*
X156260000Y-85440000D03*
X156260000Y-82900000D03*
X161340000Y-87980000D03*
X156260000Y-87980000D03*
X158800000Y-82900000D03*
X163880000Y-87980000D03*
X163880000Y-82900000D03*
X158800000Y-87980000D03*
X176400000Y-103040000D03*
X171320000Y-103040000D03*
X173860000Y-103040000D03*
X176400000Y-100500000D03*
X176400000Y-105580000D03*
X171320000Y-100500000D03*
X178940000Y-103040000D03*
X171320000Y-105580000D03*
X173860000Y-100500000D03*
X178940000Y-105580000D03*
X178940000Y-100500000D03*
X173860000Y-105580000D03*
%TO.N,V_OUT_5+*%
X171120000Y-72760000D03*
X166040000Y-77840000D03*
X168580000Y-75300000D03*
X171120000Y-77840000D03*
X168580000Y-72760000D03*
X171120000Y-75300000D03*
X166040000Y-72760000D03*
X166040000Y-75300000D03*
X168580000Y-77840000D03*
X163500000Y-75300000D03*
X163500000Y-72760000D03*
X134180000Y-74600000D03*
X129100000Y-74600000D03*
X131640000Y-74600000D03*
X134180000Y-72060000D03*
X134180000Y-77140000D03*
X129100000Y-72060000D03*
X136720000Y-74600000D03*
X129100000Y-77140000D03*
X131640000Y-72060000D03*
X136720000Y-72060000D03*
X131640000Y-77140000D03*
%TO.N,V_OUT_12+*%
X181720000Y-113880000D03*
X179180000Y-113880000D03*
X176640000Y-113880000D03*
X174100000Y-113880000D03*
X186800000Y-111340000D03*
X184260000Y-111340000D03*
X181720000Y-111340000D03*
X179180000Y-111340000D03*
X176640000Y-111340000D03*
X174100000Y-111340000D03*
X186800000Y-108800000D03*
X184260000Y-108800000D03*
X181720000Y-108800000D03*
X179180000Y-108800000D03*
X176640000Y-108800000D03*
X174100000Y-108800000D03*
X186800000Y-113880000D03*
X167200000Y-112460000D03*
X167200000Y-115000000D03*
X167200000Y-109920000D03*
X159420000Y-114980000D03*
X161960000Y-112440000D03*
X161960000Y-114980000D03*
X164500000Y-112440000D03*
X164500000Y-114980000D03*
X159420000Y-109900000D03*
X164500000Y-107360000D03*
X159420000Y-112440000D03*
X159420000Y-107360000D03*
X164500000Y-109900000D03*
X161960000Y-109900000D03*
X164500000Y-104820000D03*
X159420000Y-104820000D03*
X161960000Y-107360000D03*
X161960000Y-104820000D03*
X152020000Y-109920000D03*
X157100000Y-107380000D03*
X154560000Y-107380000D03*
X152020000Y-107380000D03*
X157100000Y-104840000D03*
X154560000Y-104840000D03*
X152020000Y-104840000D03*
X157100000Y-102300000D03*
X154560000Y-102300000D03*
X152020000Y-102300000D03*
X157100000Y-99760000D03*
X154560000Y-99760000D03*
X152020000Y-99760000D03*
X157100000Y-97220000D03*
X154560000Y-97220000D03*
X152020000Y-97220000D03*
X157100000Y-109920000D03*
%TO.N,GND*%
X119120000Y-109900000D03*
X116580000Y-107360000D03*
X119120000Y-107360000D03*
X116580000Y-109900000D03*
X124200000Y-107360000D03*
X139000000Y-117000000D03*
X126300000Y-114460000D03*
X126300000Y-117000000D03*
X136460000Y-117000000D03*
X128840000Y-117000000D03*
X139000000Y-114460000D03*
X139000000Y-112280000D03*
X128840000Y-109740000D03*
X131380000Y-109740000D03*
X133920000Y-109740000D03*
X136460000Y-109740000D03*
X139000000Y-109740000D03*
X126300000Y-107200000D03*
X126300000Y-112280000D03*
X128840000Y-112280000D03*
X133920000Y-107200000D03*
X126300000Y-109740000D03*
X131380000Y-107200000D03*
X128840000Y-107200000D03*
X139000000Y-107200000D03*
X136460000Y-107200000D03*
%TO.N,V_BAT+*%
X120500000Y-81960000D03*
X120500000Y-84500000D03*
X120500000Y-87040000D03*
X120500000Y-89580000D03*
X120500000Y-92120000D03*
X117960000Y-79420000D03*
X117960000Y-81960000D03*
X117960000Y-84500000D03*
X117960000Y-87040000D03*
X117960000Y-89580000D03*
X117960000Y-92120000D03*
X115420000Y-79420000D03*
X115420000Y-81960000D03*
X115420000Y-84500000D03*
X115420000Y-87040000D03*
X115420000Y-89580000D03*
X115420000Y-92120000D03*
X120500000Y-79420000D03*
%TO.N,V_OUT_5+*%
X130800000Y-82000000D03*
X129600000Y-82000000D03*
X127200000Y-82000000D03*
X128400000Y-82000000D03*
X130800000Y-83400000D03*
X129600000Y-83400000D03*
X127200000Y-83400000D03*
X128400000Y-83400000D03*
%TO.N,GND*%
X125700000Y-80900000D03*
X125700000Y-81900000D03*
X185700000Y-123600000D03*
X183540000Y-123600000D03*
X181380000Y-123600000D03*
X182460000Y-123600000D03*
X184620000Y-123600000D03*
X180300000Y-123600000D03*
X186700000Y-123600000D03*
X181300000Y-124900000D03*
X183460000Y-124900000D03*
X185620000Y-124900000D03*
X184540000Y-124900000D03*
X182380000Y-124900000D03*
X186700000Y-124900000D03*
X180300000Y-124900000D03*
%TO.N,V_BAT+*%
X124900000Y-100300000D03*
X122740000Y-100300000D03*
X120580000Y-100300000D03*
X121660000Y-100300000D03*
X123820000Y-100300000D03*
X119500000Y-100300000D03*
X125900000Y-100300000D03*
%TO.N,GND*%
X124900000Y-101817500D03*
X122740000Y-101817500D03*
X120580000Y-101817500D03*
X121660000Y-101817500D03*
X123820000Y-101817500D03*
X119500000Y-101817500D03*
X125900000Y-101817500D03*
X129200000Y-101900000D03*
X130280000Y-101900000D03*
X134600000Y-101900000D03*
X133520000Y-101900000D03*
X132440000Y-101900000D03*
X131360000Y-101900000D03*
X125000000Y-87700000D03*
X125000000Y-88600000D03*
X124200000Y-87700000D03*
X124300000Y-80900000D03*
X124300000Y-81900000D03*
X124300000Y-82900000D03*
X124300000Y-83900000D03*
X124300000Y-84900000D03*
%TO.N,V_BAT+*%
X123600000Y-116700000D03*
%TO.N,PG_5*%
X130549676Y-90568291D03*
%TO.N,EN_5*%
X131024265Y-89924265D03*
%TO.N,VCC_12*%
X147600000Y-111900000D03*
X141799998Y-89900000D03*
X141500000Y-88700000D03*
%TO.N,\u002ACC_12*%
X140875737Y-90824266D03*
%TO.N,EN_12*%
X140500000Y-89300000D03*
%TO.N,V_OUT_5+*%
X128400000Y-86300000D03*
X128400000Y-87500000D03*
X127800000Y-87500000D03*
X129600000Y-86300000D03*
X127200000Y-88200000D03*
X127200000Y-86300000D03*
X128400000Y-88200000D03*
X130800000Y-84800000D03*
X127200000Y-84800000D03*
X127800000Y-88200000D03*
X129600000Y-84800000D03*
X128400000Y-84800000D03*
X130200000Y-88900000D03*
X127200000Y-87500000D03*
%TO.N,SDA*%
X130162239Y-91268217D03*
%TO.N,SCL*%
X130967329Y-89126291D03*
%TO.N,Net-(U1A-FB)*%
X169800000Y-121800000D03*
X152874859Y-92425141D03*
%TO.N,/VCC_5*%
X131000000Y-118600000D03*
X123376000Y-87400000D03*
%TO.N,Net-(R1-Pad2)*%
X170900000Y-121800000D03*
X172000000Y-108700000D03*
X151000000Y-92300000D03*
%TO.N,Net-(U2-VIN)*%
X153300000Y-121600000D03*
X123400000Y-89700000D03*
%TO.N,GND*%
X145600000Y-95400000D03*
X143500000Y-103400000D03*
X127851719Y-89083792D03*
X145600000Y-101800000D03*
X143500000Y-97000000D03*
X145600000Y-98600000D03*
X149645412Y-89541868D03*
X143500000Y-101000000D03*
X155700000Y-91500000D03*
X145550781Y-87466565D03*
X145600000Y-99400000D03*
X145600000Y-92800000D03*
X145550781Y-88100000D03*
X128400000Y-89700000D03*
X143500000Y-100200000D03*
X145600000Y-102600000D03*
X145544903Y-86787860D03*
X147650000Y-101800000D03*
X143500000Y-96200000D03*
X150345412Y-89541868D03*
X153800000Y-88500000D03*
X147650000Y-100200000D03*
X145600000Y-103400000D03*
X147650000Y-99400000D03*
X147650000Y-97800000D03*
X153000000Y-88500000D03*
X143500000Y-98600000D03*
X128351719Y-89083792D03*
X145600000Y-104200000D03*
X128400000Y-90300000D03*
X127900000Y-90300000D03*
X147650000Y-96200000D03*
X155700000Y-92400000D03*
X145600000Y-97800000D03*
X143500000Y-102600000D03*
X143500000Y-101800000D03*
X145600000Y-101000000D03*
X147650000Y-103400000D03*
X155700000Y-90700000D03*
X153900000Y-89500000D03*
X127900000Y-89700000D03*
X153000000Y-87500000D03*
X145600000Y-96200000D03*
X145600000Y-100200000D03*
X147650000Y-102600000D03*
X145600000Y-97000000D03*
X147650000Y-97000000D03*
X145600000Y-94600000D03*
X143500000Y-97800000D03*
X143500000Y-99400000D03*
X153800000Y-87500000D03*
X147650000Y-101000000D03*
X147650000Y-98600000D03*
X135600000Y-101900000D03*
%TD*%
D15*
%TO.N,VCC_12*%
X141501000Y-88701000D02*
X141500000Y-88700000D01*
X148999000Y-88701000D02*
X141501000Y-88701000D01*
X149200000Y-88500000D02*
X148999000Y-88701000D01*
%TO.N,PG_12*%
X137600000Y-93250060D02*
X140850060Y-90000000D01*
X137600000Y-111300000D02*
X137600000Y-93250060D01*
X140850060Y-90000000D02*
X140900000Y-90000000D01*
X135300000Y-113600000D02*
X137600000Y-111300000D01*
%TO.N,EN_12*%
X120100000Y-109700000D02*
X140500000Y-89300000D01*
X120100000Y-112800000D02*
X120100000Y-109700000D01*
X119500000Y-113400000D02*
X120100000Y-112800000D01*
%TO.N,EN_5*%
X131900000Y-95149943D02*
X131900000Y-90800000D01*
X131900000Y-90800000D02*
X131024265Y-89924265D01*
X126148943Y-100901000D02*
X131900000Y-95149943D01*
X118349000Y-101699338D02*
X119147338Y-100901000D01*
X118349000Y-120149000D02*
X118349000Y-101699338D01*
X119147338Y-100901000D02*
X126148943Y-100901000D01*
X119500000Y-121300000D02*
X118349000Y-120149000D01*
%TO.N,/VCC_5*%
X116884240Y-122852000D02*
X126748000Y-122852000D01*
X110699000Y-116666760D02*
X116884240Y-122852000D01*
X110699000Y-95501000D02*
X110699000Y-116666760D01*
X117237472Y-88962528D02*
X110699000Y-95501000D01*
X121813472Y-88962528D02*
X117237472Y-88962528D01*
X123376000Y-87400000D02*
X121813472Y-88962528D01*
X126748000Y-122852000D02*
X131000000Y-118600000D01*
%TO.N,V_BAT+*%
X118349000Y-121776760D02*
X118349000Y-120823240D01*
X119976760Y-122451000D02*
X119023240Y-122451000D01*
X113901000Y-116375240D02*
X113901000Y-99401000D01*
X123600000Y-116700000D02*
X120651000Y-119649000D01*
X113901000Y-99401000D02*
X112300000Y-97800000D01*
X120651000Y-121776760D02*
X119976760Y-122451000D01*
X120651000Y-119649000D02*
X120651000Y-121776760D01*
X119023240Y-122451000D02*
X118349000Y-121776760D01*
X118349000Y-120823240D02*
X113901000Y-116375240D01*
%TO.N,VCC_12*%
X141799998Y-106099998D02*
X141799998Y-89900000D01*
X147600000Y-111900000D02*
X141799998Y-106099998D01*
%TO.N,\u002ACC_12*%
X140875737Y-108775737D02*
X140875737Y-90824266D01*
X145700000Y-113600000D02*
X140875737Y-108775737D01*
%TO.N,V_OUT_5+*%
X130200000Y-88900000D02*
X129500000Y-88200000D01*
X129500000Y-88200000D02*
X128400000Y-88200000D01*
%TO.N,Net-(U1A-FB)*%
X153450718Y-93001000D02*
X152874859Y-92425141D01*
X172601000Y-118999000D02*
X172601000Y-108451057D01*
X169800000Y-121800000D02*
X172601000Y-118999000D01*
X157150943Y-93001000D02*
X153450718Y-93001000D01*
X172601000Y-108451057D02*
X157150943Y-93001000D01*
%TO.N,Net-(R1-Pad2)*%
X172000000Y-108700000D02*
X171200000Y-107900000D01*
X169199000Y-122048943D02*
X169199000Y-112901000D01*
X170299000Y-122401000D02*
X169551057Y-122401000D01*
X172000000Y-110100000D02*
X172000000Y-108700000D01*
X170900000Y-121800000D02*
X170299000Y-122401000D01*
X171200000Y-107900000D02*
X166600000Y-107900000D01*
X169199000Y-112901000D02*
X172000000Y-110100000D01*
X169551057Y-122401000D02*
X169199000Y-122048943D01*
X166600000Y-107900000D02*
X151000000Y-92300000D01*
%TO.N,EN_5*%
X130124073Y-89924265D02*
X131024265Y-89924265D01*
%TD*%
%TA.AperFunction,Conductor*%
%TO.N,GND*%
G36*
X158106293Y-74719685D02*
G01*
X158126935Y-74736319D01*
X163663681Y-80273065D01*
X163697166Y-80334388D01*
X163700000Y-80360746D01*
X163700000Y-87950984D01*
X163680315Y-88018023D01*
X163663681Y-88038665D01*
X158226311Y-93476035D01*
X158164988Y-93509520D01*
X158095296Y-93504536D01*
X158050949Y-93476035D01*
X157335455Y-92760541D01*
X157335454Y-92760540D01*
X157309613Y-92745621D01*
X157309613Y-92745619D01*
X157309610Y-92745619D01*
X157266937Y-92720981D01*
X157266934Y-92720979D01*
X157228718Y-92710739D01*
X157190505Y-92700500D01*
X157190503Y-92700500D01*
X153626551Y-92700500D01*
X153597110Y-92691855D01*
X153567124Y-92685332D01*
X153562108Y-92681577D01*
X153559512Y-92680815D01*
X153538870Y-92664181D01*
X153411678Y-92536989D01*
X153378193Y-92475666D01*
X153375359Y-92449308D01*
X153375359Y-92359251D01*
X153375359Y-92359249D01*
X153341251Y-92231955D01*
X153275359Y-92117827D01*
X153182173Y-92024641D01*
X153125109Y-91991695D01*
X153068046Y-91958749D01*
X153004398Y-91941695D01*
X152940751Y-91924641D01*
X152808967Y-91924641D01*
X152681671Y-91958749D01*
X152567545Y-92024641D01*
X152567542Y-92024643D01*
X152474361Y-92117824D01*
X152474359Y-92117827D01*
X152408467Y-92231953D01*
X152383759Y-92324167D01*
X152374359Y-92359249D01*
X152374359Y-92491033D01*
X152386673Y-92536989D01*
X152408467Y-92618328D01*
X152434941Y-92664181D01*
X152474359Y-92732455D01*
X152567545Y-92825641D01*
X152681673Y-92891533D01*
X152808967Y-92925641D01*
X152808969Y-92925641D01*
X152899026Y-92925641D01*
X152966065Y-92945326D01*
X152986707Y-92961960D01*
X153266207Y-93241460D01*
X153334730Y-93281022D01*
X153411156Y-93301500D01*
X156975110Y-93301500D01*
X157042149Y-93321185D01*
X157062791Y-93337819D01*
X157625978Y-93901006D01*
X157659463Y-93962329D01*
X157654479Y-94032021D01*
X157625978Y-94076368D01*
X156138665Y-95563681D01*
X156077342Y-95597166D01*
X156050984Y-95600000D01*
X154776333Y-95600000D01*
X154709294Y-95580315D01*
X154688652Y-95563681D01*
X151536819Y-92411848D01*
X151503334Y-92350525D01*
X151500500Y-92324167D01*
X151500500Y-92234110D01*
X151500500Y-92234108D01*
X151466392Y-92106814D01*
X151400500Y-91992686D01*
X151307314Y-91899500D01*
X151250250Y-91866554D01*
X151193187Y-91833608D01*
X151129539Y-91816554D01*
X151065892Y-91799500D01*
X150934108Y-91799500D01*
X150806812Y-91833608D01*
X150692686Y-91899500D01*
X150692683Y-91899502D01*
X150599502Y-91992683D01*
X150599500Y-91992686D01*
X150533608Y-92106812D01*
X150530657Y-92117827D01*
X150499500Y-92234108D01*
X150499500Y-92365892D01*
X150511814Y-92411848D01*
X150533608Y-92493187D01*
X150558898Y-92536989D01*
X150599500Y-92607314D01*
X150692686Y-92700500D01*
X150806814Y-92766392D01*
X150934108Y-92800500D01*
X150934110Y-92800500D01*
X151024167Y-92800500D01*
X151091206Y-92820185D01*
X151111848Y-92836819D01*
X153663348Y-95388319D01*
X153696833Y-95449642D01*
X153691849Y-95519334D01*
X153649977Y-95575267D01*
X153584513Y-95599684D01*
X153575667Y-95600000D01*
X149461739Y-95600000D01*
X148623897Y-96438595D01*
X148583281Y-96479247D01*
X148598156Y-113047807D01*
X148578532Y-113114864D01*
X148561877Y-113135560D01*
X144237682Y-117463642D01*
X144176374Y-117497154D01*
X144149961Y-117500000D01*
X135383862Y-117500000D01*
X135316823Y-117480315D01*
X135296181Y-117463681D01*
X131036319Y-113203819D01*
X131002834Y-113142496D01*
X131000000Y-113116138D01*
X131000000Y-99276332D01*
X131019685Y-99209293D01*
X131036319Y-99188651D01*
X137087819Y-93137151D01*
X137149142Y-93103666D01*
X137218834Y-93108650D01*
X137274767Y-93150522D01*
X137299184Y-93215986D01*
X137299500Y-93224832D01*
X137299500Y-111124166D01*
X137279815Y-111191205D01*
X137263181Y-111211847D01*
X136595680Y-111879347D01*
X136552828Y-111907279D01*
X134918205Y-112541113D01*
X134873376Y-112549500D01*
X134430247Y-112549500D01*
X134371770Y-112561131D01*
X134371769Y-112561132D01*
X134305447Y-112605447D01*
X134261132Y-112671769D01*
X134261131Y-112671770D01*
X134249500Y-112730247D01*
X134249500Y-114469752D01*
X134261131Y-114528229D01*
X134261132Y-114528230D01*
X134305447Y-114594552D01*
X134371769Y-114638867D01*
X134371770Y-114638868D01*
X134430247Y-114650499D01*
X134430250Y-114650500D01*
X134430252Y-114650500D01*
X136169750Y-114650500D01*
X136169751Y-114650499D01*
X136184568Y-114647552D01*
X136228229Y-114638868D01*
X136228229Y-114638867D01*
X136228231Y-114638867D01*
X136294552Y-114594552D01*
X136338867Y-114528231D01*
X136338867Y-114528229D01*
X136338868Y-114528229D01*
X136350499Y-114469752D01*
X136350500Y-114469750D01*
X136350500Y-114026621D01*
X136358887Y-113981792D01*
X136992719Y-112347167D01*
X137020648Y-112304321D01*
X137840460Y-111484511D01*
X137880021Y-111415989D01*
X137900500Y-111339562D01*
X137900500Y-93425892D01*
X137920185Y-93358853D01*
X137936814Y-93338216D01*
X140239526Y-91035503D01*
X140254235Y-91027471D01*
X140265878Y-91015413D01*
X140284267Y-91011073D01*
X140300849Y-91002019D01*
X140317566Y-91003214D01*
X140333879Y-90999365D01*
X140351693Y-91005655D01*
X140370541Y-91007003D01*
X140384438Y-91017217D01*
X140399762Y-91022628D01*
X140415495Y-91040044D01*
X140425154Y-91047143D01*
X140430354Y-91053841D01*
X140475237Y-91131580D01*
X140544417Y-91200760D01*
X140549184Y-91206900D01*
X140559237Y-91232473D01*
X140572403Y-91256584D01*
X140573790Y-91269493D01*
X140574747Y-91271925D01*
X140574295Y-91274189D01*
X140575237Y-91282942D01*
X140575237Y-108815299D01*
X140588889Y-108866250D01*
X140595716Y-108891727D01*
X140595719Y-108891732D01*
X140635272Y-108960241D01*
X140635278Y-108960249D01*
X144613181Y-112938152D01*
X144646666Y-112999475D01*
X144649500Y-113025833D01*
X144649500Y-114469752D01*
X144661131Y-114528229D01*
X144661132Y-114528230D01*
X144705447Y-114594552D01*
X144771769Y-114638867D01*
X144771770Y-114638868D01*
X144830247Y-114650499D01*
X144830250Y-114650500D01*
X144830252Y-114650500D01*
X146569750Y-114650500D01*
X146569751Y-114650499D01*
X146584568Y-114647552D01*
X146628229Y-114638868D01*
X146628229Y-114638867D01*
X146628231Y-114638867D01*
X146694552Y-114594552D01*
X146738867Y-114528231D01*
X146738867Y-114528229D01*
X146738868Y-114528229D01*
X146750499Y-114469752D01*
X146750500Y-114469750D01*
X146750500Y-112730249D01*
X146750499Y-112730247D01*
X146738868Y-112671770D01*
X146738867Y-112671769D01*
X146694552Y-112605447D01*
X146628230Y-112561132D01*
X146628229Y-112561131D01*
X146569752Y-112549500D01*
X146569748Y-112549500D01*
X145125833Y-112549500D01*
X145058794Y-112529815D01*
X145038152Y-112513181D01*
X141212556Y-108687585D01*
X141179071Y-108626262D01*
X141176237Y-108599904D01*
X141176237Y-91282942D01*
X141184686Y-91254166D01*
X141190722Y-91224783D01*
X141195021Y-91218969D01*
X141195922Y-91215903D01*
X141211543Y-91196285D01*
X141212010Y-91195806D01*
X141276237Y-91131580D01*
X141278367Y-91127889D01*
X141286804Y-91119255D01*
X141311075Y-91105633D01*
X141333548Y-91089224D01*
X141341118Y-91088772D01*
X141347734Y-91085060D01*
X141375517Y-91086723D01*
X141403294Y-91085068D01*
X141409907Y-91088781D01*
X141417479Y-91089235D01*
X141439948Y-91105651D01*
X141464215Y-91119279D01*
X141467771Y-91125979D01*
X141473895Y-91130454D01*
X141483921Y-91156409D01*
X141496969Y-91180995D01*
X141498234Y-91193464D01*
X141499071Y-91195630D01*
X141498658Y-91197639D01*
X141499498Y-91205912D01*
X141499498Y-106139560D01*
X141513150Y-106190511D01*
X141519977Y-106215988D01*
X141519980Y-106215993D01*
X141559533Y-106284502D01*
X141559539Y-106284510D01*
X147063181Y-111788152D01*
X147096666Y-111849475D01*
X147099500Y-111875833D01*
X147099500Y-111965892D01*
X147116554Y-112029539D01*
X147133608Y-112093187D01*
X147156413Y-112132686D01*
X147199500Y-112207314D01*
X147292686Y-112300500D01*
X147406814Y-112366392D01*
X147534108Y-112400500D01*
X147534110Y-112400500D01*
X147665890Y-112400500D01*
X147665892Y-112400500D01*
X147793186Y-112366392D01*
X147907314Y-112300500D01*
X148000500Y-112207314D01*
X148066392Y-112093186D01*
X148100500Y-111965892D01*
X148100500Y-111834108D01*
X148066392Y-111706814D01*
X148000500Y-111592686D01*
X147907314Y-111499500D01*
X147850250Y-111466554D01*
X147793187Y-111433608D01*
X147727430Y-111415989D01*
X147665892Y-111399500D01*
X147575833Y-111399500D01*
X147508794Y-111379815D01*
X147488152Y-111363181D01*
X142136817Y-106011846D01*
X142103332Y-105950523D01*
X142100498Y-105924165D01*
X142100498Y-90358676D01*
X142120183Y-90291637D01*
X142136817Y-90270995D01*
X142157459Y-90250353D01*
X142200498Y-90207314D01*
X142266390Y-90093186D01*
X142300498Y-89965892D01*
X142300498Y-89834108D01*
X142273703Y-89734108D01*
X143599500Y-89734108D01*
X143599500Y-89865892D01*
X143632797Y-89990157D01*
X143633608Y-89993185D01*
X143633611Y-89993192D01*
X143659481Y-90038001D01*
X143675954Y-90105901D01*
X143659481Y-90161999D01*
X143633611Y-90206807D01*
X143633608Y-90206814D01*
X143599500Y-90334108D01*
X143599500Y-90465892D01*
X143628910Y-90575650D01*
X143633608Y-90593185D01*
X143633611Y-90593192D01*
X143659481Y-90638001D01*
X143675954Y-90705901D01*
X143659481Y-90761999D01*
X143633611Y-90806807D01*
X143633608Y-90806814D01*
X143599500Y-90934108D01*
X143599500Y-91065892D01*
X143610153Y-91105651D01*
X143633608Y-91193187D01*
X143654112Y-91228700D01*
X143699500Y-91307314D01*
X143792686Y-91400500D01*
X143906814Y-91466392D01*
X144034108Y-91500500D01*
X144034110Y-91500500D01*
X144165890Y-91500500D01*
X144165892Y-91500500D01*
X144293186Y-91466392D01*
X144407314Y-91400500D01*
X144500500Y-91307314D01*
X144566392Y-91193186D01*
X144600500Y-91065892D01*
X144600500Y-90934108D01*
X144566392Y-90806814D01*
X144566391Y-90806813D01*
X144566391Y-90806811D01*
X144549566Y-90777671D01*
X144540518Y-90761999D01*
X144524045Y-90694102D01*
X144540519Y-90637998D01*
X144544514Y-90631080D01*
X144566392Y-90593186D01*
X144600500Y-90465892D01*
X144600500Y-90334108D01*
X144566392Y-90206814D01*
X144566391Y-90206813D01*
X144566391Y-90206811D01*
X144549640Y-90177800D01*
X144540518Y-90161999D01*
X144524045Y-90094102D01*
X144540519Y-90037998D01*
X144541608Y-90036113D01*
X144566392Y-89993186D01*
X144600500Y-89865892D01*
X144600500Y-89734108D01*
X146499500Y-89734108D01*
X146499500Y-89865892D01*
X146532796Y-89990157D01*
X146533609Y-89993188D01*
X146533609Y-89993189D01*
X146572050Y-90059771D01*
X146588523Y-90127671D01*
X146572051Y-90183770D01*
X146533608Y-90250355D01*
X146504584Y-90358676D01*
X146499500Y-90377651D01*
X146499500Y-90509435D01*
X146532982Y-90634394D01*
X146533609Y-90636731D01*
X146533609Y-90636732D01*
X146575778Y-90709771D01*
X146592251Y-90777671D01*
X146575779Y-90833770D01*
X146533608Y-90906812D01*
X146499500Y-91034108D01*
X146499500Y-91165891D01*
X146533608Y-91293187D01*
X146541766Y-91307316D01*
X146599500Y-91407314D01*
X146692686Y-91500500D01*
X146806814Y-91566392D01*
X146934108Y-91600500D01*
X146934110Y-91600500D01*
X147065890Y-91600500D01*
X147065892Y-91600500D01*
X147193186Y-91566392D01*
X147307314Y-91500500D01*
X147400500Y-91407314D01*
X147466392Y-91293186D01*
X147500500Y-91165892D01*
X147500500Y-91034108D01*
X147466392Y-90906814D01*
X147455617Y-90888152D01*
X147424221Y-90833772D01*
X147407747Y-90765872D01*
X147424219Y-90709773D01*
X147466392Y-90636729D01*
X147500500Y-90509435D01*
X147500500Y-90377651D01*
X147466392Y-90250357D01*
X147466390Y-90250353D01*
X147427949Y-90183771D01*
X147411476Y-90115871D01*
X147427949Y-90059771D01*
X147466392Y-89993186D01*
X147500500Y-89865892D01*
X147500500Y-89734108D01*
X147466392Y-89606814D01*
X147400500Y-89492686D01*
X147307314Y-89399500D01*
X147249095Y-89365887D01*
X147193187Y-89333608D01*
X147129539Y-89316554D01*
X147065892Y-89299500D01*
X146934108Y-89299500D01*
X146806812Y-89333608D01*
X146692686Y-89399500D01*
X146692683Y-89399502D01*
X146599502Y-89492683D01*
X146599500Y-89492686D01*
X146533608Y-89606812D01*
X146510599Y-89692686D01*
X146499500Y-89734108D01*
X144600500Y-89734108D01*
X144566392Y-89606814D01*
X144500500Y-89492686D01*
X144407314Y-89399500D01*
X144349095Y-89365887D01*
X144293187Y-89333608D01*
X144229539Y-89316554D01*
X144165892Y-89299500D01*
X144034108Y-89299500D01*
X143906812Y-89333608D01*
X143792686Y-89399500D01*
X143792683Y-89399502D01*
X143699502Y-89492683D01*
X143699500Y-89492686D01*
X143633608Y-89606812D01*
X143610599Y-89692686D01*
X143599500Y-89734108D01*
X142273703Y-89734108D01*
X142266390Y-89706814D01*
X142200498Y-89592686D01*
X142107312Y-89499500D01*
X142050248Y-89466554D01*
X141993185Y-89433608D01*
X141908947Y-89411037D01*
X141865890Y-89399500D01*
X141734106Y-89399500D01*
X141606812Y-89433608D01*
X141594206Y-89440886D01*
X141594202Y-89440887D01*
X141492687Y-89499497D01*
X141492681Y-89499502D01*
X141399500Y-89592683D01*
X141399171Y-89593113D01*
X141398800Y-89593383D01*
X141393751Y-89598433D01*
X141392963Y-89597645D01*
X141342741Y-89634313D01*
X141272995Y-89638465D01*
X141238893Y-89625064D01*
X141224701Y-89616887D01*
X141207314Y-89599500D01*
X141093186Y-89533608D01*
X141068839Y-89527084D01*
X141054742Y-89518962D01*
X141041393Y-89504986D01*
X141024891Y-89494928D01*
X141017757Y-89480242D01*
X141006482Y-89468438D01*
X141002807Y-89449465D01*
X140994363Y-89432080D01*
X140995365Y-89411037D01*
X140993198Y-89399843D01*
X140996265Y-89392160D01*
X140996872Y-89379429D01*
X141000500Y-89365892D01*
X141000500Y-89234108D01*
X141000238Y-89233130D01*
X141000258Y-89232274D01*
X140999439Y-89226052D01*
X141000409Y-89225924D01*
X141001897Y-89163283D01*
X141041057Y-89105418D01*
X141105284Y-89077911D01*
X141174187Y-89089494D01*
X141185589Y-89096537D01*
X141185648Y-89096436D01*
X141192684Y-89100498D01*
X141192686Y-89100500D01*
X141306814Y-89166392D01*
X141434108Y-89200500D01*
X141434110Y-89200500D01*
X141533138Y-89200500D01*
X141565892Y-89200500D01*
X141693186Y-89166392D01*
X141807314Y-89100500D01*
X141869995Y-89037819D01*
X141931318Y-89004334D01*
X141957676Y-89001500D01*
X149038560Y-89001500D01*
X149038562Y-89001500D01*
X149056105Y-88996798D01*
X149120291Y-88996798D01*
X149134108Y-89000500D01*
X149134110Y-89000500D01*
X149265890Y-89000500D01*
X149265892Y-89000500D01*
X149393186Y-88966392D01*
X149507314Y-88900500D01*
X149600500Y-88807314D01*
X149666392Y-88693186D01*
X149700500Y-88565892D01*
X149700500Y-88434108D01*
X149666392Y-88306814D01*
X149600500Y-88192686D01*
X149507314Y-88099500D01*
X149450250Y-88066554D01*
X149393187Y-88033608D01*
X149329539Y-88016554D01*
X149265892Y-87999500D01*
X149134108Y-87999500D01*
X149006812Y-88033608D01*
X148892686Y-88099500D01*
X148892683Y-88099502D01*
X148799502Y-88192683D01*
X148799500Y-88192686D01*
X148737830Y-88299502D01*
X148733608Y-88306814D01*
X148733131Y-88308590D01*
X148732320Y-88309921D01*
X148730500Y-88314318D01*
X148729814Y-88314034D01*
X148696770Y-88368251D01*
X148633924Y-88398782D01*
X148613357Y-88400500D01*
X141959676Y-88400500D01*
X141892637Y-88380815D01*
X141871995Y-88364181D01*
X141807316Y-88299502D01*
X141807314Y-88299500D01*
X141750250Y-88266554D01*
X141693187Y-88233608D01*
X141629539Y-88216554D01*
X141565892Y-88199500D01*
X141434108Y-88199500D01*
X141306812Y-88233608D01*
X141192686Y-88299500D01*
X141192683Y-88299502D01*
X141099502Y-88392683D01*
X141099500Y-88392686D01*
X141033608Y-88506812D01*
X140999500Y-88634108D01*
X140999500Y-88765891D01*
X140999764Y-88766876D01*
X140999743Y-88767738D01*
X141000561Y-88773948D01*
X140999592Y-88774075D01*
X140998099Y-88836726D01*
X140958935Y-88894587D01*
X140894706Y-88922089D01*
X140825804Y-88910501D01*
X140814410Y-88903462D01*
X140814352Y-88903564D01*
X140807315Y-88899501D01*
X140807314Y-88899500D01*
X140698587Y-88836726D01*
X140693187Y-88833608D01*
X140629539Y-88816554D01*
X140565892Y-88799500D01*
X140434108Y-88799500D01*
X140306812Y-88833608D01*
X140192686Y-88899500D01*
X140192683Y-88899502D01*
X140099502Y-88992683D01*
X140099500Y-88992686D01*
X140033608Y-89106812D01*
X139999500Y-89234108D01*
X139999500Y-89324166D01*
X139979815Y-89391205D01*
X139963181Y-89411847D01*
X131211681Y-98163347D01*
X131150358Y-98196832D01*
X131080666Y-98191848D01*
X131024733Y-98149976D01*
X131000316Y-98084512D01*
X131000000Y-98075666D01*
X131000000Y-96526276D01*
X131019685Y-96459237D01*
X131036319Y-96438595D01*
X132140460Y-95334454D01*
X132180021Y-95265932D01*
X132200500Y-95189505D01*
X132200500Y-90760438D01*
X132180021Y-90684011D01*
X132180017Y-90684004D01*
X132140464Y-90615495D01*
X132140458Y-90615487D01*
X131561084Y-90036113D01*
X131527599Y-89974790D01*
X131524765Y-89948432D01*
X131524765Y-89858375D01*
X131524765Y-89858373D01*
X131490657Y-89731079D01*
X131424765Y-89616951D01*
X131388839Y-89581025D01*
X131355354Y-89519702D01*
X131360338Y-89450010D01*
X131369129Y-89431352D01*
X131433721Y-89319477D01*
X131467829Y-89192183D01*
X131467829Y-89060399D01*
X131433721Y-88933105D01*
X131367829Y-88818977D01*
X131274643Y-88725791D01*
X131217579Y-88692845D01*
X131160516Y-88659899D01*
X131127166Y-88650963D01*
X131091906Y-88641515D01*
X131032246Y-88605151D01*
X131001717Y-88542304D01*
X131000000Y-88521741D01*
X131000000Y-85334048D01*
X131019685Y-85267009D01*
X131061999Y-85226662D01*
X131107314Y-85200500D01*
X131200500Y-85107314D01*
X131266392Y-84993186D01*
X131300500Y-84865892D01*
X131300500Y-84734108D01*
X131266392Y-84606814D01*
X131200500Y-84492686D01*
X131107314Y-84399500D01*
X131093799Y-84391697D01*
X131061998Y-84373336D01*
X131013784Y-84322769D01*
X131000000Y-84265950D01*
X131000000Y-83934048D01*
X131019685Y-83867009D01*
X131061999Y-83826662D01*
X131107314Y-83800500D01*
X131200500Y-83707314D01*
X131266392Y-83593186D01*
X131300500Y-83465892D01*
X131300500Y-83334108D01*
X131266392Y-83206814D01*
X131213964Y-83116006D01*
X131197492Y-83048110D01*
X131220344Y-82982083D01*
X131233665Y-82966334D01*
X139463681Y-74736319D01*
X139525004Y-74702834D01*
X139551362Y-74700000D01*
X158039254Y-74700000D01*
X158106293Y-74719685D01*
G37*
%TD.AperFunction*%
%TD*%
%TA.AperFunction,NonConductor*%
G36*
X131184684Y-90551474D02*
G01*
X131217915Y-90555447D01*
X131219485Y-90556509D01*
X131220716Y-90556688D01*
X131224140Y-90559660D01*
X131256784Y-90581755D01*
X131563181Y-90888152D01*
X131596666Y-90949475D01*
X131599500Y-90975833D01*
X131599500Y-93437948D01*
X131579815Y-93504987D01*
X131527011Y-93550742D01*
X131457853Y-93560686D01*
X131413502Y-93545336D01*
X131393191Y-93533610D01*
X131393188Y-93533609D01*
X131393187Y-93533608D01*
X131393186Y-93533608D01*
X131265892Y-93499500D01*
X131134108Y-93499500D01*
X131125981Y-93499500D01*
X131125981Y-93496492D01*
X131071105Y-93487912D01*
X131018868Y-93441511D01*
X131000000Y-93375760D01*
X131000000Y-90822533D01*
X131005054Y-90787491D01*
X131009227Y-90773325D01*
X131016068Y-90761477D01*
X131049742Y-90635802D01*
X131050157Y-90634394D01*
X131068278Y-90606253D01*
X131085692Y-90577683D01*
X131087123Y-90576987D01*
X131087985Y-90575650D01*
X131118443Y-90561772D01*
X131148539Y-90547153D01*
X131150117Y-90547341D01*
X131151566Y-90546682D01*
X131184684Y-90551474D01*
G37*
%TD.AperFunction*%
%TA.AperFunction,NonConductor*%
G36*
X131547426Y-94461043D02*
G01*
X131590617Y-94515964D01*
X131599500Y-94562051D01*
X131599500Y-94974110D01*
X131579815Y-95041149D01*
X131563181Y-95061791D01*
X131211681Y-95413291D01*
X131150358Y-95446776D01*
X131080666Y-95441792D01*
X131024733Y-95399920D01*
X131000316Y-95334456D01*
X131000000Y-95325610D01*
X131000000Y-94624239D01*
X131019685Y-94557200D01*
X131072489Y-94511445D01*
X131125981Y-94503430D01*
X131125981Y-94500500D01*
X131265890Y-94500500D01*
X131265892Y-94500500D01*
X131393186Y-94466392D01*
X131413499Y-94454663D01*
X131481399Y-94438191D01*
X131547426Y-94461043D01*
G37*
%TD.AperFunction*%
%TA.AperFunction,Conductor*%
%TO.N,PG_12*%
G36*
X136682172Y-112081209D02*
G01*
X136685722Y-112083641D01*
X136816358Y-112214277D01*
X136819785Y-112222550D01*
X136818994Y-112226780D01*
X136154323Y-113940932D01*
X136148137Y-113947407D01*
X136139184Y-113947611D01*
X136138947Y-113947516D01*
X135303784Y-113602562D01*
X135297446Y-113596236D01*
X134952483Y-112761052D01*
X134952492Y-112752097D01*
X134958830Y-112745771D01*
X134958996Y-112745704D01*
X136673222Y-112081005D01*
X136682172Y-112081209D01*
G37*
%TD.AperFunction*%
%TD*%
%TA.AperFunction,Conductor*%
%TO.N,EN_12*%
G36*
X120197740Y-111968288D02*
G01*
X120201103Y-111975336D01*
X120332550Y-113223567D01*
X120330008Y-113232153D01*
X120323210Y-113236265D01*
X119507680Y-113399463D01*
X119498895Y-113397726D01*
X119495652Y-113394484D01*
X119033914Y-112702466D01*
X119032172Y-112693682D01*
X119036630Y-112686609D01*
X119996882Y-111967197D01*
X120003897Y-111964861D01*
X120189467Y-111964861D01*
X120197740Y-111968288D01*
G37*
%TD.AperFunction*%
%TD*%
%TA.AperFunction,Conductor*%
%TO.N,EN_5*%
G36*
X118450675Y-120093605D02*
G01*
X119655722Y-120463233D01*
X119662627Y-120468936D01*
X119663767Y-120476699D01*
X119501525Y-121293320D01*
X119496551Y-121300767D01*
X119492318Y-121302518D01*
X118676716Y-121463773D01*
X118667936Y-121462016D01*
X118663254Y-121455699D01*
X118650006Y-121412122D01*
X118649500Y-121408719D01*
X118649500Y-120783675D01*
X118629022Y-120707252D01*
X118629020Y-120707248D01*
X118589462Y-120638732D01*
X118589458Y-120638727D01*
X118340693Y-120389962D01*
X118337773Y-120385093D01*
X118253592Y-120108195D01*
X118254464Y-120099283D01*
X118261383Y-120093598D01*
X118264786Y-120093092D01*
X118447245Y-120093092D01*
X118450675Y-120093605D01*
G37*
%TD.AperFunction*%
%TD*%
M02*
