%TF.GenerationSoftware,KiCad,Pcbnew,9.0.4*%
%TF.CreationDate,2025-11-02T19:47:46-03:00*%
%TF.ProjectId,PowerPCB,506f7765-7250-4434-922e-6b696361645f,rev?*%
%TF.SameCoordinates,Original*%
%TF.FileFunction,Legend,Top*%
%TF.FilePolarity,Positive*%
%FSLAX46Y46*%
G04 Gerber Fmt 4.6, Leading zero omitted, Abs format (unit mm)*
G04 Created by KiCad (PCBNEW 9.0.4) date 2025-11-02 19:47:46*
%MOMM*%
%LPD*%
G01*
G04 APERTURE LIST*
%ADD10C,0.200000*%
%ADD11C,0.300000*%
%ADD12C,0.250000*%
%ADD13C,0.150000*%
%ADD14C,0.120000*%
%ADD15C,0.152400*%
G04 APERTURE END LIST*
D10*
X141380000Y-115370000D02*
X143900000Y-115370000D01*
D11*
X111580225Y-120800828D02*
X111865939Y-120800828D01*
X111865939Y-120800828D02*
X112008796Y-120872257D01*
X112008796Y-120872257D02*
X112151653Y-121015114D01*
X112151653Y-121015114D02*
X112223082Y-121300828D01*
X112223082Y-121300828D02*
X112223082Y-121800828D01*
X112223082Y-121800828D02*
X112151653Y-122086542D01*
X112151653Y-122086542D02*
X112008796Y-122229400D01*
X112008796Y-122229400D02*
X111865939Y-122300828D01*
X111865939Y-122300828D02*
X111580225Y-122300828D01*
X111580225Y-122300828D02*
X111437368Y-122229400D01*
X111437368Y-122229400D02*
X111294510Y-122086542D01*
X111294510Y-122086542D02*
X111223082Y-121800828D01*
X111223082Y-121800828D02*
X111223082Y-121300828D01*
X111223082Y-121300828D02*
X111294510Y-121015114D01*
X111294510Y-121015114D02*
X111437368Y-120872257D01*
X111437368Y-120872257D02*
X111580225Y-120800828D01*
X113365939Y-121515114D02*
X112865939Y-121515114D01*
X112865939Y-122300828D02*
X112865939Y-120800828D01*
X112865939Y-120800828D02*
X113580225Y-120800828D01*
X114651653Y-121515114D02*
X114151653Y-121515114D01*
X114151653Y-122300828D02*
X114151653Y-120800828D01*
X114151653Y-120800828D02*
X114865939Y-120800828D01*
X116754510Y-124115114D02*
X117254510Y-124115114D01*
X117468796Y-124900828D02*
X116754510Y-124900828D01*
X116754510Y-124900828D02*
X116754510Y-123400828D01*
X116754510Y-123400828D02*
X117468796Y-123400828D01*
X118111653Y-124900828D02*
X118111653Y-123400828D01*
X118111653Y-123400828D02*
X118968796Y-124900828D01*
X118968796Y-124900828D02*
X118968796Y-123400828D01*
X119325940Y-125043685D02*
X120468797Y-125043685D01*
X121540225Y-123400828D02*
X120825939Y-123400828D01*
X120825939Y-123400828D02*
X120754511Y-124115114D01*
X120754511Y-124115114D02*
X120825939Y-124043685D01*
X120825939Y-124043685D02*
X120968797Y-123972257D01*
X120968797Y-123972257D02*
X121325939Y-123972257D01*
X121325939Y-123972257D02*
X121468797Y-124043685D01*
X121468797Y-124043685D02*
X121540225Y-124115114D01*
X121540225Y-124115114D02*
X121611654Y-124257971D01*
X121611654Y-124257971D02*
X121611654Y-124615114D01*
X121611654Y-124615114D02*
X121540225Y-124757971D01*
X121540225Y-124757971D02*
X121468797Y-124829400D01*
X121468797Y-124829400D02*
X121325939Y-124900828D01*
X121325939Y-124900828D02*
X120968797Y-124900828D01*
X120968797Y-124900828D02*
X120825939Y-124829400D01*
X120825939Y-124829400D02*
X120754511Y-124757971D01*
D12*
X145380807Y-124513520D02*
X146323616Y-124984925D01*
X146323616Y-124984925D02*
X145852212Y-124042116D01*
X146660334Y-123907429D02*
X146795021Y-123840085D01*
X146795021Y-123840085D02*
X146862365Y-123840085D01*
X146862365Y-123840085D02*
X146963380Y-123873757D01*
X146963380Y-123873757D02*
X147064395Y-123974772D01*
X147064395Y-123974772D02*
X147098067Y-124075788D01*
X147098067Y-124075788D02*
X147098067Y-124143131D01*
X147098067Y-124143131D02*
X147064395Y-124244146D01*
X147064395Y-124244146D02*
X146795021Y-124513520D01*
X146795021Y-124513520D02*
X146087914Y-123806414D01*
X146087914Y-123806414D02*
X146323617Y-123570711D01*
X146323617Y-123570711D02*
X146424632Y-123537040D01*
X146424632Y-123537040D02*
X146491975Y-123537040D01*
X146491975Y-123537040D02*
X146592991Y-123570711D01*
X146592991Y-123570711D02*
X146660334Y-123638055D01*
X146660334Y-123638055D02*
X146694006Y-123739070D01*
X146694006Y-123739070D02*
X146694006Y-123806414D01*
X146694006Y-123806414D02*
X146660334Y-123907429D01*
X146660334Y-123907429D02*
X146424632Y-124143131D01*
X146795021Y-123099307D02*
X147367441Y-123671727D01*
X147367441Y-123671727D02*
X147468456Y-123705398D01*
X147468456Y-123705398D02*
X147535800Y-123705398D01*
X147535800Y-123705398D02*
X147636815Y-123671727D01*
X147636815Y-123671727D02*
X147771502Y-123537040D01*
X147771502Y-123537040D02*
X147805174Y-123436024D01*
X147805174Y-123436024D02*
X147805174Y-123368681D01*
X147805174Y-123368681D02*
X147771502Y-123267666D01*
X147771502Y-123267666D02*
X147199082Y-122695246D01*
X148175563Y-123065635D02*
X148310250Y-122998292D01*
X148310250Y-122998292D02*
X148478609Y-122829933D01*
X148478609Y-122829933D02*
X148512280Y-122728918D01*
X148512280Y-122728918D02*
X148512280Y-122661574D01*
X148512280Y-122661574D02*
X148478609Y-122560559D01*
X148478609Y-122560559D02*
X148411265Y-122493215D01*
X148411265Y-122493215D02*
X148310250Y-122459544D01*
X148310250Y-122459544D02*
X148242906Y-122459544D01*
X148242906Y-122459544D02*
X148141891Y-122493215D01*
X148141891Y-122493215D02*
X147973532Y-122594231D01*
X147973532Y-122594231D02*
X147872517Y-122627902D01*
X147872517Y-122627902D02*
X147805174Y-122627902D01*
X147805174Y-122627902D02*
X147704158Y-122594231D01*
X147704158Y-122594231D02*
X147636815Y-122526887D01*
X147636815Y-122526887D02*
X147603143Y-122425872D01*
X147603143Y-122425872D02*
X147603143Y-122358528D01*
X147603143Y-122358528D02*
X147636815Y-122257513D01*
X147636815Y-122257513D02*
X147805174Y-122089154D01*
X147805174Y-122089154D02*
X147939861Y-122021811D01*
D11*
X111580225Y-112700828D02*
X111865939Y-112700828D01*
X111865939Y-112700828D02*
X112008796Y-112772257D01*
X112008796Y-112772257D02*
X112151653Y-112915114D01*
X112151653Y-112915114D02*
X112223082Y-113200828D01*
X112223082Y-113200828D02*
X112223082Y-113700828D01*
X112223082Y-113700828D02*
X112151653Y-113986542D01*
X112151653Y-113986542D02*
X112008796Y-114129400D01*
X112008796Y-114129400D02*
X111865939Y-114200828D01*
X111865939Y-114200828D02*
X111580225Y-114200828D01*
X111580225Y-114200828D02*
X111437368Y-114129400D01*
X111437368Y-114129400D02*
X111294510Y-113986542D01*
X111294510Y-113986542D02*
X111223082Y-113700828D01*
X111223082Y-113700828D02*
X111223082Y-113200828D01*
X111223082Y-113200828D02*
X111294510Y-112915114D01*
X111294510Y-112915114D02*
X111437368Y-112772257D01*
X111437368Y-112772257D02*
X111580225Y-112700828D01*
X113365939Y-113415114D02*
X112865939Y-113415114D01*
X112865939Y-114200828D02*
X112865939Y-112700828D01*
X112865939Y-112700828D02*
X113580225Y-112700828D01*
X114651653Y-113415114D02*
X114151653Y-113415114D01*
X114151653Y-114200828D02*
X114151653Y-112700828D01*
X114151653Y-112700828D02*
X114865939Y-112700828D01*
X116394510Y-116215114D02*
X116894510Y-116215114D01*
X117108796Y-117000828D02*
X116394510Y-117000828D01*
X116394510Y-117000828D02*
X116394510Y-115500828D01*
X116394510Y-115500828D02*
X117108796Y-115500828D01*
X117751653Y-117000828D02*
X117751653Y-115500828D01*
X117751653Y-115500828D02*
X118608796Y-117000828D01*
X118608796Y-117000828D02*
X118608796Y-115500828D01*
X118965940Y-117143685D02*
X120108797Y-117143685D01*
X121251654Y-117000828D02*
X120394511Y-117000828D01*
X120823082Y-117000828D02*
X120823082Y-115500828D01*
X120823082Y-115500828D02*
X120680225Y-115715114D01*
X120680225Y-115715114D02*
X120537368Y-115857971D01*
X120537368Y-115857971D02*
X120394511Y-115929400D01*
X121823082Y-115643685D02*
X121894510Y-115572257D01*
X121894510Y-115572257D02*
X122037368Y-115500828D01*
X122037368Y-115500828D02*
X122394510Y-115500828D01*
X122394510Y-115500828D02*
X122537368Y-115572257D01*
X122537368Y-115572257D02*
X122608796Y-115643685D01*
X122608796Y-115643685D02*
X122680225Y-115786542D01*
X122680225Y-115786542D02*
X122680225Y-115929400D01*
X122680225Y-115929400D02*
X122608796Y-116143685D01*
X122608796Y-116143685D02*
X121751653Y-117000828D01*
X121751653Y-117000828D02*
X122680225Y-117000828D01*
X124580225Y-120700828D02*
X124865939Y-120700828D01*
X124865939Y-120700828D02*
X125008796Y-120772257D01*
X125008796Y-120772257D02*
X125151653Y-120915114D01*
X125151653Y-120915114D02*
X125223082Y-121200828D01*
X125223082Y-121200828D02*
X125223082Y-121700828D01*
X125223082Y-121700828D02*
X125151653Y-121986542D01*
X125151653Y-121986542D02*
X125008796Y-122129400D01*
X125008796Y-122129400D02*
X124865939Y-122200828D01*
X124865939Y-122200828D02*
X124580225Y-122200828D01*
X124580225Y-122200828D02*
X124437368Y-122129400D01*
X124437368Y-122129400D02*
X124294510Y-121986542D01*
X124294510Y-121986542D02*
X124223082Y-121700828D01*
X124223082Y-121700828D02*
X124223082Y-121200828D01*
X124223082Y-121200828D02*
X124294510Y-120915114D01*
X124294510Y-120915114D02*
X124437368Y-120772257D01*
X124437368Y-120772257D02*
X124580225Y-120700828D01*
X125865939Y-122200828D02*
X125865939Y-120700828D01*
X125865939Y-120700828D02*
X126723082Y-122200828D01*
X126723082Y-122200828D02*
X126723082Y-120700828D01*
X142411653Y-117057971D02*
X142340225Y-117129400D01*
X142340225Y-117129400D02*
X142125939Y-117200828D01*
X142125939Y-117200828D02*
X141983082Y-117200828D01*
X141983082Y-117200828D02*
X141768796Y-117129400D01*
X141768796Y-117129400D02*
X141625939Y-116986542D01*
X141625939Y-116986542D02*
X141554510Y-116843685D01*
X141554510Y-116843685D02*
X141483082Y-116557971D01*
X141483082Y-116557971D02*
X141483082Y-116343685D01*
X141483082Y-116343685D02*
X141554510Y-116057971D01*
X141554510Y-116057971D02*
X141625939Y-115915114D01*
X141625939Y-115915114D02*
X141768796Y-115772257D01*
X141768796Y-115772257D02*
X141983082Y-115700828D01*
X141983082Y-115700828D02*
X142125939Y-115700828D01*
X142125939Y-115700828D02*
X142340225Y-115772257D01*
X142340225Y-115772257D02*
X142411653Y-115843685D01*
X143911653Y-117057971D02*
X143840225Y-117129400D01*
X143840225Y-117129400D02*
X143625939Y-117200828D01*
X143625939Y-117200828D02*
X143483082Y-117200828D01*
X143483082Y-117200828D02*
X143268796Y-117129400D01*
X143268796Y-117129400D02*
X143125939Y-116986542D01*
X143125939Y-116986542D02*
X143054510Y-116843685D01*
X143054510Y-116843685D02*
X142983082Y-116557971D01*
X142983082Y-116557971D02*
X142983082Y-116343685D01*
X142983082Y-116343685D02*
X143054510Y-116057971D01*
X143054510Y-116057971D02*
X143125939Y-115915114D01*
X143125939Y-115915114D02*
X143268796Y-115772257D01*
X143268796Y-115772257D02*
X143483082Y-115700828D01*
X143483082Y-115700828D02*
X143625939Y-115700828D01*
X143625939Y-115700828D02*
X143840225Y-115772257D01*
X143840225Y-115772257D02*
X143911653Y-115843685D01*
X144197368Y-117343685D02*
X145340225Y-117343685D01*
X146483082Y-117200828D02*
X145625939Y-117200828D01*
X146054510Y-117200828D02*
X146054510Y-115700828D01*
X146054510Y-115700828D02*
X145911653Y-115915114D01*
X145911653Y-115915114D02*
X145768796Y-116057971D01*
X145768796Y-116057971D02*
X145625939Y-116129400D01*
X147054510Y-115843685D02*
X147125938Y-115772257D01*
X147125938Y-115772257D02*
X147268796Y-115700828D01*
X147268796Y-115700828D02*
X147625938Y-115700828D01*
X147625938Y-115700828D02*
X147768796Y-115772257D01*
X147768796Y-115772257D02*
X147840224Y-115843685D01*
X147840224Y-115843685D02*
X147911653Y-115986542D01*
X147911653Y-115986542D02*
X147911653Y-116129400D01*
X147911653Y-116129400D02*
X147840224Y-116343685D01*
X147840224Y-116343685D02*
X146983081Y-117200828D01*
X146983081Y-117200828D02*
X147911653Y-117200828D01*
X130854510Y-117200828D02*
X130854510Y-115700828D01*
X130854510Y-115700828D02*
X131425939Y-115700828D01*
X131425939Y-115700828D02*
X131568796Y-115772257D01*
X131568796Y-115772257D02*
X131640225Y-115843685D01*
X131640225Y-115843685D02*
X131711653Y-115986542D01*
X131711653Y-115986542D02*
X131711653Y-116200828D01*
X131711653Y-116200828D02*
X131640225Y-116343685D01*
X131640225Y-116343685D02*
X131568796Y-116415114D01*
X131568796Y-116415114D02*
X131425939Y-116486542D01*
X131425939Y-116486542D02*
X130854510Y-116486542D01*
X133140225Y-115772257D02*
X132997368Y-115700828D01*
X132997368Y-115700828D02*
X132783082Y-115700828D01*
X132783082Y-115700828D02*
X132568796Y-115772257D01*
X132568796Y-115772257D02*
X132425939Y-115915114D01*
X132425939Y-115915114D02*
X132354510Y-116057971D01*
X132354510Y-116057971D02*
X132283082Y-116343685D01*
X132283082Y-116343685D02*
X132283082Y-116557971D01*
X132283082Y-116557971D02*
X132354510Y-116843685D01*
X132354510Y-116843685D02*
X132425939Y-116986542D01*
X132425939Y-116986542D02*
X132568796Y-117129400D01*
X132568796Y-117129400D02*
X132783082Y-117200828D01*
X132783082Y-117200828D02*
X132925939Y-117200828D01*
X132925939Y-117200828D02*
X133140225Y-117129400D01*
X133140225Y-117129400D02*
X133211653Y-117057971D01*
X133211653Y-117057971D02*
X133211653Y-116557971D01*
X133211653Y-116557971D02*
X132925939Y-116557971D01*
X133497368Y-117343685D02*
X134640225Y-117343685D01*
X135783082Y-117200828D02*
X134925939Y-117200828D01*
X135354510Y-117200828D02*
X135354510Y-115700828D01*
X135354510Y-115700828D02*
X135211653Y-115915114D01*
X135211653Y-115915114D02*
X135068796Y-116057971D01*
X135068796Y-116057971D02*
X134925939Y-116129400D01*
X136354510Y-115843685D02*
X136425938Y-115772257D01*
X136425938Y-115772257D02*
X136568796Y-115700828D01*
X136568796Y-115700828D02*
X136925938Y-115700828D01*
X136925938Y-115700828D02*
X137068796Y-115772257D01*
X137068796Y-115772257D02*
X137140224Y-115843685D01*
X137140224Y-115843685D02*
X137211653Y-115986542D01*
X137211653Y-115986542D02*
X137211653Y-116129400D01*
X137211653Y-116129400D02*
X137140224Y-116343685D01*
X137140224Y-116343685D02*
X136283081Y-117200828D01*
X136283081Y-117200828D02*
X137211653Y-117200828D01*
X124580225Y-112600828D02*
X124865939Y-112600828D01*
X124865939Y-112600828D02*
X125008796Y-112672257D01*
X125008796Y-112672257D02*
X125151653Y-112815114D01*
X125151653Y-112815114D02*
X125223082Y-113100828D01*
X125223082Y-113100828D02*
X125223082Y-113600828D01*
X125223082Y-113600828D02*
X125151653Y-113886542D01*
X125151653Y-113886542D02*
X125008796Y-114029400D01*
X125008796Y-114029400D02*
X124865939Y-114100828D01*
X124865939Y-114100828D02*
X124580225Y-114100828D01*
X124580225Y-114100828D02*
X124437368Y-114029400D01*
X124437368Y-114029400D02*
X124294510Y-113886542D01*
X124294510Y-113886542D02*
X124223082Y-113600828D01*
X124223082Y-113600828D02*
X124223082Y-113100828D01*
X124223082Y-113100828D02*
X124294510Y-112815114D01*
X124294510Y-112815114D02*
X124437368Y-112672257D01*
X124437368Y-112672257D02*
X124580225Y-112600828D01*
X125865939Y-114100828D02*
X125865939Y-112600828D01*
X125865939Y-112600828D02*
X126723082Y-114100828D01*
X126723082Y-114100828D02*
X126723082Y-112600828D01*
D12*
X143521586Y-125219612D02*
X143656273Y-125152268D01*
X143656273Y-125152268D02*
X143824632Y-124983910D01*
X143824632Y-124983910D02*
X143858303Y-124882894D01*
X143858303Y-124882894D02*
X143858303Y-124815551D01*
X143858303Y-124815551D02*
X143824632Y-124714536D01*
X143824632Y-124714536D02*
X143757288Y-124647192D01*
X143757288Y-124647192D02*
X143656273Y-124613520D01*
X143656273Y-124613520D02*
X143588929Y-124613520D01*
X143588929Y-124613520D02*
X143487914Y-124647192D01*
X143487914Y-124647192D02*
X143319555Y-124748207D01*
X143319555Y-124748207D02*
X143218540Y-124781879D01*
X143218540Y-124781879D02*
X143151197Y-124781879D01*
X143151197Y-124781879D02*
X143050181Y-124748207D01*
X143050181Y-124748207D02*
X142982838Y-124680864D01*
X142982838Y-124680864D02*
X142949166Y-124579849D01*
X142949166Y-124579849D02*
X142949166Y-124512505D01*
X142949166Y-124512505D02*
X142982838Y-124411490D01*
X142982838Y-124411490D02*
X143151197Y-124243131D01*
X143151197Y-124243131D02*
X143285884Y-124175788D01*
X144599082Y-124074772D02*
X144599082Y-124142116D01*
X144599082Y-124142116D02*
X144531739Y-124276803D01*
X144531739Y-124276803D02*
X144464395Y-124344146D01*
X144464395Y-124344146D02*
X144329708Y-124411490D01*
X144329708Y-124411490D02*
X144195021Y-124411490D01*
X144195021Y-124411490D02*
X144094006Y-124377818D01*
X144094006Y-124377818D02*
X143925647Y-124276803D01*
X143925647Y-124276803D02*
X143824632Y-124175788D01*
X143824632Y-124175788D02*
X143723616Y-124007429D01*
X143723616Y-124007429D02*
X143689945Y-123906414D01*
X143689945Y-123906414D02*
X143689945Y-123771727D01*
X143689945Y-123771727D02*
X143757288Y-123637040D01*
X143757288Y-123637040D02*
X143824632Y-123569696D01*
X143824632Y-123569696D02*
X143959319Y-123502353D01*
X143959319Y-123502353D02*
X144026662Y-123502353D01*
X145306189Y-123502353D02*
X144969471Y-123839070D01*
X144969471Y-123839070D02*
X144262365Y-123131963D01*
X141021586Y-125019612D02*
X141156273Y-124952268D01*
X141156273Y-124952268D02*
X141324632Y-124783910D01*
X141324632Y-124783910D02*
X141358303Y-124682894D01*
X141358303Y-124682894D02*
X141358303Y-124615551D01*
X141358303Y-124615551D02*
X141324632Y-124514536D01*
X141324632Y-124514536D02*
X141257288Y-124447192D01*
X141257288Y-124447192D02*
X141156273Y-124413520D01*
X141156273Y-124413520D02*
X141088929Y-124413520D01*
X141088929Y-124413520D02*
X140987914Y-124447192D01*
X140987914Y-124447192D02*
X140819555Y-124548207D01*
X140819555Y-124548207D02*
X140718540Y-124581879D01*
X140718540Y-124581879D02*
X140651197Y-124581879D01*
X140651197Y-124581879D02*
X140550181Y-124548207D01*
X140550181Y-124548207D02*
X140482838Y-124480864D01*
X140482838Y-124480864D02*
X140449166Y-124379849D01*
X140449166Y-124379849D02*
X140449166Y-124312505D01*
X140449166Y-124312505D02*
X140482838Y-124211490D01*
X140482838Y-124211490D02*
X140651197Y-124043131D01*
X140651197Y-124043131D02*
X140785884Y-123975788D01*
X141762365Y-124346177D02*
X141055258Y-123639070D01*
X141055258Y-123639070D02*
X141223616Y-123470711D01*
X141223616Y-123470711D02*
X141358303Y-123403368D01*
X141358303Y-123403368D02*
X141492990Y-123403368D01*
X141492990Y-123403368D02*
X141594006Y-123437040D01*
X141594006Y-123437040D02*
X141762365Y-123538055D01*
X141762365Y-123538055D02*
X141863380Y-123639070D01*
X141863380Y-123639070D02*
X141964395Y-123807429D01*
X141964395Y-123807429D02*
X141998067Y-123908444D01*
X141998067Y-123908444D02*
X141998067Y-124043131D01*
X141998067Y-124043131D02*
X141930723Y-124177818D01*
X141930723Y-124177818D02*
X141762365Y-124346177D01*
X142233769Y-123470711D02*
X142570487Y-123133994D01*
X142368456Y-123740085D02*
X141897052Y-122797276D01*
X141897052Y-122797276D02*
X142839861Y-123268681D01*
D11*
X131654510Y-124900828D02*
X131654510Y-123400828D01*
X131654510Y-123400828D02*
X132225939Y-123400828D01*
X132225939Y-123400828D02*
X132368796Y-123472257D01*
X132368796Y-123472257D02*
X132440225Y-123543685D01*
X132440225Y-123543685D02*
X132511653Y-123686542D01*
X132511653Y-123686542D02*
X132511653Y-123900828D01*
X132511653Y-123900828D02*
X132440225Y-124043685D01*
X132440225Y-124043685D02*
X132368796Y-124115114D01*
X132368796Y-124115114D02*
X132225939Y-124186542D01*
X132225939Y-124186542D02*
X131654510Y-124186542D01*
X133940225Y-123472257D02*
X133797368Y-123400828D01*
X133797368Y-123400828D02*
X133583082Y-123400828D01*
X133583082Y-123400828D02*
X133368796Y-123472257D01*
X133368796Y-123472257D02*
X133225939Y-123615114D01*
X133225939Y-123615114D02*
X133154510Y-123757971D01*
X133154510Y-123757971D02*
X133083082Y-124043685D01*
X133083082Y-124043685D02*
X133083082Y-124257971D01*
X133083082Y-124257971D02*
X133154510Y-124543685D01*
X133154510Y-124543685D02*
X133225939Y-124686542D01*
X133225939Y-124686542D02*
X133368796Y-124829400D01*
X133368796Y-124829400D02*
X133583082Y-124900828D01*
X133583082Y-124900828D02*
X133725939Y-124900828D01*
X133725939Y-124900828D02*
X133940225Y-124829400D01*
X133940225Y-124829400D02*
X134011653Y-124757971D01*
X134011653Y-124757971D02*
X134011653Y-124257971D01*
X134011653Y-124257971D02*
X133725939Y-124257971D01*
X134297368Y-125043685D02*
X135440225Y-125043685D01*
X136511653Y-123400828D02*
X135797367Y-123400828D01*
X135797367Y-123400828D02*
X135725939Y-124115114D01*
X135725939Y-124115114D02*
X135797367Y-124043685D01*
X135797367Y-124043685D02*
X135940225Y-123972257D01*
X135940225Y-123972257D02*
X136297367Y-123972257D01*
X136297367Y-123972257D02*
X136440225Y-124043685D01*
X136440225Y-124043685D02*
X136511653Y-124115114D01*
X136511653Y-124115114D02*
X136583082Y-124257971D01*
X136583082Y-124257971D02*
X136583082Y-124615114D01*
X136583082Y-124615114D02*
X136511653Y-124757971D01*
X136511653Y-124757971D02*
X136440225Y-124829400D01*
X136440225Y-124829400D02*
X136297367Y-124900828D01*
X136297367Y-124900828D02*
X135940225Y-124900828D01*
X135940225Y-124900828D02*
X135797367Y-124829400D01*
X135797367Y-124829400D02*
X135725939Y-124757971D01*
D13*
X140057142Y-95359580D02*
X140009523Y-95407200D01*
X140009523Y-95407200D02*
X139866666Y-95454819D01*
X139866666Y-95454819D02*
X139771428Y-95454819D01*
X139771428Y-95454819D02*
X139628571Y-95407200D01*
X139628571Y-95407200D02*
X139533333Y-95311961D01*
X139533333Y-95311961D02*
X139485714Y-95216723D01*
X139485714Y-95216723D02*
X139438095Y-95026247D01*
X139438095Y-95026247D02*
X139438095Y-94883390D01*
X139438095Y-94883390D02*
X139485714Y-94692914D01*
X139485714Y-94692914D02*
X139533333Y-94597676D01*
X139533333Y-94597676D02*
X139628571Y-94502438D01*
X139628571Y-94502438D02*
X139771428Y-94454819D01*
X139771428Y-94454819D02*
X139866666Y-94454819D01*
X139866666Y-94454819D02*
X140009523Y-94502438D01*
X140009523Y-94502438D02*
X140057142Y-94550057D01*
X140438095Y-94550057D02*
X140485714Y-94502438D01*
X140485714Y-94502438D02*
X140580952Y-94454819D01*
X140580952Y-94454819D02*
X140819047Y-94454819D01*
X140819047Y-94454819D02*
X140914285Y-94502438D01*
X140914285Y-94502438D02*
X140961904Y-94550057D01*
X140961904Y-94550057D02*
X141009523Y-94645295D01*
X141009523Y-94645295D02*
X141009523Y-94740533D01*
X141009523Y-94740533D02*
X140961904Y-94883390D01*
X140961904Y-94883390D02*
X140390476Y-95454819D01*
X140390476Y-95454819D02*
X141009523Y-95454819D01*
X141628571Y-94454819D02*
X141723809Y-94454819D01*
X141723809Y-94454819D02*
X141819047Y-94502438D01*
X141819047Y-94502438D02*
X141866666Y-94550057D01*
X141866666Y-94550057D02*
X141914285Y-94645295D01*
X141914285Y-94645295D02*
X141961904Y-94835771D01*
X141961904Y-94835771D02*
X141961904Y-95073866D01*
X141961904Y-95073866D02*
X141914285Y-95264342D01*
X141914285Y-95264342D02*
X141866666Y-95359580D01*
X141866666Y-95359580D02*
X141819047Y-95407200D01*
X141819047Y-95407200D02*
X141723809Y-95454819D01*
X141723809Y-95454819D02*
X141628571Y-95454819D01*
X141628571Y-95454819D02*
X141533333Y-95407200D01*
X141533333Y-95407200D02*
X141485714Y-95359580D01*
X141485714Y-95359580D02*
X141438095Y-95264342D01*
X141438095Y-95264342D02*
X141390476Y-95073866D01*
X141390476Y-95073866D02*
X141390476Y-94835771D01*
X141390476Y-94835771D02*
X141438095Y-94645295D01*
X141438095Y-94645295D02*
X141485714Y-94550057D01*
X141485714Y-94550057D02*
X141533333Y-94502438D01*
X141533333Y-94502438D02*
X141628571Y-94454819D01*
X115957142Y-118359580D02*
X115909523Y-118407200D01*
X115909523Y-118407200D02*
X115766666Y-118454819D01*
X115766666Y-118454819D02*
X115671428Y-118454819D01*
X115671428Y-118454819D02*
X115528571Y-118407200D01*
X115528571Y-118407200D02*
X115433333Y-118311961D01*
X115433333Y-118311961D02*
X115385714Y-118216723D01*
X115385714Y-118216723D02*
X115338095Y-118026247D01*
X115338095Y-118026247D02*
X115338095Y-117883390D01*
X115338095Y-117883390D02*
X115385714Y-117692914D01*
X115385714Y-117692914D02*
X115433333Y-117597676D01*
X115433333Y-117597676D02*
X115528571Y-117502438D01*
X115528571Y-117502438D02*
X115671428Y-117454819D01*
X115671428Y-117454819D02*
X115766666Y-117454819D01*
X115766666Y-117454819D02*
X115909523Y-117502438D01*
X115909523Y-117502438D02*
X115957142Y-117550057D01*
X116338095Y-117550057D02*
X116385714Y-117502438D01*
X116385714Y-117502438D02*
X116480952Y-117454819D01*
X116480952Y-117454819D02*
X116719047Y-117454819D01*
X116719047Y-117454819D02*
X116814285Y-117502438D01*
X116814285Y-117502438D02*
X116861904Y-117550057D01*
X116861904Y-117550057D02*
X116909523Y-117645295D01*
X116909523Y-117645295D02*
X116909523Y-117740533D01*
X116909523Y-117740533D02*
X116861904Y-117883390D01*
X116861904Y-117883390D02*
X116290476Y-118454819D01*
X116290476Y-118454819D02*
X116909523Y-118454819D01*
X117480952Y-117883390D02*
X117385714Y-117835771D01*
X117385714Y-117835771D02*
X117338095Y-117788152D01*
X117338095Y-117788152D02*
X117290476Y-117692914D01*
X117290476Y-117692914D02*
X117290476Y-117645295D01*
X117290476Y-117645295D02*
X117338095Y-117550057D01*
X117338095Y-117550057D02*
X117385714Y-117502438D01*
X117385714Y-117502438D02*
X117480952Y-117454819D01*
X117480952Y-117454819D02*
X117671428Y-117454819D01*
X117671428Y-117454819D02*
X117766666Y-117502438D01*
X117766666Y-117502438D02*
X117814285Y-117550057D01*
X117814285Y-117550057D02*
X117861904Y-117645295D01*
X117861904Y-117645295D02*
X117861904Y-117692914D01*
X117861904Y-117692914D02*
X117814285Y-117788152D01*
X117814285Y-117788152D02*
X117766666Y-117835771D01*
X117766666Y-117835771D02*
X117671428Y-117883390D01*
X117671428Y-117883390D02*
X117480952Y-117883390D01*
X117480952Y-117883390D02*
X117385714Y-117931009D01*
X117385714Y-117931009D02*
X117338095Y-117978628D01*
X117338095Y-117978628D02*
X117290476Y-118073866D01*
X117290476Y-118073866D02*
X117290476Y-118264342D01*
X117290476Y-118264342D02*
X117338095Y-118359580D01*
X117338095Y-118359580D02*
X117385714Y-118407200D01*
X117385714Y-118407200D02*
X117480952Y-118454819D01*
X117480952Y-118454819D02*
X117671428Y-118454819D01*
X117671428Y-118454819D02*
X117766666Y-118407200D01*
X117766666Y-118407200D02*
X117814285Y-118359580D01*
X117814285Y-118359580D02*
X117861904Y-118264342D01*
X117861904Y-118264342D02*
X117861904Y-118073866D01*
X117861904Y-118073866D02*
X117814285Y-117978628D01*
X117814285Y-117978628D02*
X117766666Y-117931009D01*
X117766666Y-117931009D02*
X117671428Y-117883390D01*
X187266666Y-100454819D02*
X187266666Y-101169104D01*
X187266666Y-101169104D02*
X187219047Y-101311961D01*
X187219047Y-101311961D02*
X187123809Y-101407200D01*
X187123809Y-101407200D02*
X186980952Y-101454819D01*
X186980952Y-101454819D02*
X186885714Y-101454819D01*
X188219047Y-100454819D02*
X187742857Y-100454819D01*
X187742857Y-100454819D02*
X187695238Y-100931009D01*
X187695238Y-100931009D02*
X187742857Y-100883390D01*
X187742857Y-100883390D02*
X187838095Y-100835771D01*
X187838095Y-100835771D02*
X188076190Y-100835771D01*
X188076190Y-100835771D02*
X188171428Y-100883390D01*
X188171428Y-100883390D02*
X188219047Y-100931009D01*
X188219047Y-100931009D02*
X188266666Y-101026247D01*
X188266666Y-101026247D02*
X188266666Y-101264342D01*
X188266666Y-101264342D02*
X188219047Y-101359580D01*
X188219047Y-101359580D02*
X188171428Y-101407200D01*
X188171428Y-101407200D02*
X188076190Y-101454819D01*
X188076190Y-101454819D02*
X187838095Y-101454819D01*
X187838095Y-101454819D02*
X187742857Y-101407200D01*
X187742857Y-101407200D02*
X187695238Y-101359580D01*
X134757142Y-96059580D02*
X134709523Y-96107200D01*
X134709523Y-96107200D02*
X134566666Y-96154819D01*
X134566666Y-96154819D02*
X134471428Y-96154819D01*
X134471428Y-96154819D02*
X134328571Y-96107200D01*
X134328571Y-96107200D02*
X134233333Y-96011961D01*
X134233333Y-96011961D02*
X134185714Y-95916723D01*
X134185714Y-95916723D02*
X134138095Y-95726247D01*
X134138095Y-95726247D02*
X134138095Y-95583390D01*
X134138095Y-95583390D02*
X134185714Y-95392914D01*
X134185714Y-95392914D02*
X134233333Y-95297676D01*
X134233333Y-95297676D02*
X134328571Y-95202438D01*
X134328571Y-95202438D02*
X134471428Y-95154819D01*
X134471428Y-95154819D02*
X134566666Y-95154819D01*
X134566666Y-95154819D02*
X134709523Y-95202438D01*
X134709523Y-95202438D02*
X134757142Y-95250057D01*
X135090476Y-95154819D02*
X135709523Y-95154819D01*
X135709523Y-95154819D02*
X135376190Y-95535771D01*
X135376190Y-95535771D02*
X135519047Y-95535771D01*
X135519047Y-95535771D02*
X135614285Y-95583390D01*
X135614285Y-95583390D02*
X135661904Y-95631009D01*
X135661904Y-95631009D02*
X135709523Y-95726247D01*
X135709523Y-95726247D02*
X135709523Y-95964342D01*
X135709523Y-95964342D02*
X135661904Y-96059580D01*
X135661904Y-96059580D02*
X135614285Y-96107200D01*
X135614285Y-96107200D02*
X135519047Y-96154819D01*
X135519047Y-96154819D02*
X135233333Y-96154819D01*
X135233333Y-96154819D02*
X135138095Y-96107200D01*
X135138095Y-96107200D02*
X135090476Y-96059580D01*
X136328571Y-95154819D02*
X136423809Y-95154819D01*
X136423809Y-95154819D02*
X136519047Y-95202438D01*
X136519047Y-95202438D02*
X136566666Y-95250057D01*
X136566666Y-95250057D02*
X136614285Y-95345295D01*
X136614285Y-95345295D02*
X136661904Y-95535771D01*
X136661904Y-95535771D02*
X136661904Y-95773866D01*
X136661904Y-95773866D02*
X136614285Y-95964342D01*
X136614285Y-95964342D02*
X136566666Y-96059580D01*
X136566666Y-96059580D02*
X136519047Y-96107200D01*
X136519047Y-96107200D02*
X136423809Y-96154819D01*
X136423809Y-96154819D02*
X136328571Y-96154819D01*
X136328571Y-96154819D02*
X136233333Y-96107200D01*
X136233333Y-96107200D02*
X136185714Y-96059580D01*
X136185714Y-96059580D02*
X136138095Y-95964342D01*
X136138095Y-95964342D02*
X136090476Y-95773866D01*
X136090476Y-95773866D02*
X136090476Y-95535771D01*
X136090476Y-95535771D02*
X136138095Y-95345295D01*
X136138095Y-95345295D02*
X136185714Y-95250057D01*
X136185714Y-95250057D02*
X136233333Y-95202438D01*
X136233333Y-95202438D02*
X136328571Y-95154819D01*
X137333333Y-91559580D02*
X137285714Y-91607200D01*
X137285714Y-91607200D02*
X137142857Y-91654819D01*
X137142857Y-91654819D02*
X137047619Y-91654819D01*
X137047619Y-91654819D02*
X136904762Y-91607200D01*
X136904762Y-91607200D02*
X136809524Y-91511961D01*
X136809524Y-91511961D02*
X136761905Y-91416723D01*
X136761905Y-91416723D02*
X136714286Y-91226247D01*
X136714286Y-91226247D02*
X136714286Y-91083390D01*
X136714286Y-91083390D02*
X136761905Y-90892914D01*
X136761905Y-90892914D02*
X136809524Y-90797676D01*
X136809524Y-90797676D02*
X136904762Y-90702438D01*
X136904762Y-90702438D02*
X137047619Y-90654819D01*
X137047619Y-90654819D02*
X137142857Y-90654819D01*
X137142857Y-90654819D02*
X137285714Y-90702438D01*
X137285714Y-90702438D02*
X137333333Y-90750057D01*
X138285714Y-91654819D02*
X137714286Y-91654819D01*
X138000000Y-91654819D02*
X138000000Y-90654819D01*
X138000000Y-90654819D02*
X137904762Y-90797676D01*
X137904762Y-90797676D02*
X137809524Y-90892914D01*
X137809524Y-90892914D02*
X137714286Y-90940533D01*
X147534819Y-113933333D02*
X148249104Y-113933333D01*
X148249104Y-113933333D02*
X148391961Y-113980952D01*
X148391961Y-113980952D02*
X148487200Y-114076190D01*
X148487200Y-114076190D02*
X148534819Y-114219047D01*
X148534819Y-114219047D02*
X148534819Y-114314285D01*
X147963390Y-113314285D02*
X147915771Y-113409523D01*
X147915771Y-113409523D02*
X147868152Y-113457142D01*
X147868152Y-113457142D02*
X147772914Y-113504761D01*
X147772914Y-113504761D02*
X147725295Y-113504761D01*
X147725295Y-113504761D02*
X147630057Y-113457142D01*
X147630057Y-113457142D02*
X147582438Y-113409523D01*
X147582438Y-113409523D02*
X147534819Y-113314285D01*
X147534819Y-113314285D02*
X147534819Y-113123809D01*
X147534819Y-113123809D02*
X147582438Y-113028571D01*
X147582438Y-113028571D02*
X147630057Y-112980952D01*
X147630057Y-112980952D02*
X147725295Y-112933333D01*
X147725295Y-112933333D02*
X147772914Y-112933333D01*
X147772914Y-112933333D02*
X147868152Y-112980952D01*
X147868152Y-112980952D02*
X147915771Y-113028571D01*
X147915771Y-113028571D02*
X147963390Y-113123809D01*
X147963390Y-113123809D02*
X147963390Y-113314285D01*
X147963390Y-113314285D02*
X148011009Y-113409523D01*
X148011009Y-113409523D02*
X148058628Y-113457142D01*
X148058628Y-113457142D02*
X148153866Y-113504761D01*
X148153866Y-113504761D02*
X148344342Y-113504761D01*
X148344342Y-113504761D02*
X148439580Y-113457142D01*
X148439580Y-113457142D02*
X148487200Y-113409523D01*
X148487200Y-113409523D02*
X148534819Y-113314285D01*
X148534819Y-113314285D02*
X148534819Y-113123809D01*
X148534819Y-113123809D02*
X148487200Y-113028571D01*
X148487200Y-113028571D02*
X148439580Y-112980952D01*
X148439580Y-112980952D02*
X148344342Y-112933333D01*
X148344342Y-112933333D02*
X148153866Y-112933333D01*
X148153866Y-112933333D02*
X148058628Y-112980952D01*
X148058628Y-112980952D02*
X148011009Y-113028571D01*
X148011009Y-113028571D02*
X147963390Y-113123809D01*
X136057142Y-90059580D02*
X136009523Y-90107200D01*
X136009523Y-90107200D02*
X135866666Y-90154819D01*
X135866666Y-90154819D02*
X135771428Y-90154819D01*
X135771428Y-90154819D02*
X135628571Y-90107200D01*
X135628571Y-90107200D02*
X135533333Y-90011961D01*
X135533333Y-90011961D02*
X135485714Y-89916723D01*
X135485714Y-89916723D02*
X135438095Y-89726247D01*
X135438095Y-89726247D02*
X135438095Y-89583390D01*
X135438095Y-89583390D02*
X135485714Y-89392914D01*
X135485714Y-89392914D02*
X135533333Y-89297676D01*
X135533333Y-89297676D02*
X135628571Y-89202438D01*
X135628571Y-89202438D02*
X135771428Y-89154819D01*
X135771428Y-89154819D02*
X135866666Y-89154819D01*
X135866666Y-89154819D02*
X136009523Y-89202438D01*
X136009523Y-89202438D02*
X136057142Y-89250057D01*
X136438095Y-89250057D02*
X136485714Y-89202438D01*
X136485714Y-89202438D02*
X136580952Y-89154819D01*
X136580952Y-89154819D02*
X136819047Y-89154819D01*
X136819047Y-89154819D02*
X136914285Y-89202438D01*
X136914285Y-89202438D02*
X136961904Y-89250057D01*
X136961904Y-89250057D02*
X137009523Y-89345295D01*
X137009523Y-89345295D02*
X137009523Y-89440533D01*
X137009523Y-89440533D02*
X136961904Y-89583390D01*
X136961904Y-89583390D02*
X136390476Y-90154819D01*
X136390476Y-90154819D02*
X137009523Y-90154819D01*
X137866666Y-89488152D02*
X137866666Y-90154819D01*
X137628571Y-89107200D02*
X137390476Y-89821485D01*
X137390476Y-89821485D02*
X138009523Y-89821485D01*
X145433333Y-77454819D02*
X144957143Y-77454819D01*
X144957143Y-77454819D02*
X144957143Y-76454819D01*
X146290476Y-77454819D02*
X145719048Y-77454819D01*
X146004762Y-77454819D02*
X146004762Y-76454819D01*
X146004762Y-76454819D02*
X145909524Y-76597676D01*
X145909524Y-76597676D02*
X145814286Y-76692914D01*
X145814286Y-76692914D02*
X145719048Y-76740533D01*
X138038095Y-78554819D02*
X138609523Y-78554819D01*
X138323809Y-79554819D02*
X138323809Y-78554819D01*
X138942857Y-79554819D02*
X138942857Y-78554819D01*
X138942857Y-78554819D02*
X139323809Y-78554819D01*
X139323809Y-78554819D02*
X139419047Y-78602438D01*
X139419047Y-78602438D02*
X139466666Y-78650057D01*
X139466666Y-78650057D02*
X139514285Y-78745295D01*
X139514285Y-78745295D02*
X139514285Y-78888152D01*
X139514285Y-78888152D02*
X139466666Y-78983390D01*
X139466666Y-78983390D02*
X139419047Y-79031009D01*
X139419047Y-79031009D02*
X139323809Y-79078628D01*
X139323809Y-79078628D02*
X138942857Y-79078628D01*
X140466666Y-79554819D02*
X139895238Y-79554819D01*
X140180952Y-79554819D02*
X140180952Y-78554819D01*
X140180952Y-78554819D02*
X140085714Y-78697676D01*
X140085714Y-78697676D02*
X139990476Y-78792914D01*
X139990476Y-78792914D02*
X139895238Y-78840533D01*
X136133333Y-88759580D02*
X136085714Y-88807200D01*
X136085714Y-88807200D02*
X135942857Y-88854819D01*
X135942857Y-88854819D02*
X135847619Y-88854819D01*
X135847619Y-88854819D02*
X135704762Y-88807200D01*
X135704762Y-88807200D02*
X135609524Y-88711961D01*
X135609524Y-88711961D02*
X135561905Y-88616723D01*
X135561905Y-88616723D02*
X135514286Y-88426247D01*
X135514286Y-88426247D02*
X135514286Y-88283390D01*
X135514286Y-88283390D02*
X135561905Y-88092914D01*
X135561905Y-88092914D02*
X135609524Y-87997676D01*
X135609524Y-87997676D02*
X135704762Y-87902438D01*
X135704762Y-87902438D02*
X135847619Y-87854819D01*
X135847619Y-87854819D02*
X135942857Y-87854819D01*
X135942857Y-87854819D02*
X136085714Y-87902438D01*
X136085714Y-87902438D02*
X136133333Y-87950057D01*
X136514286Y-87950057D02*
X136561905Y-87902438D01*
X136561905Y-87902438D02*
X136657143Y-87854819D01*
X136657143Y-87854819D02*
X136895238Y-87854819D01*
X136895238Y-87854819D02*
X136990476Y-87902438D01*
X136990476Y-87902438D02*
X137038095Y-87950057D01*
X137038095Y-87950057D02*
X137085714Y-88045295D01*
X137085714Y-88045295D02*
X137085714Y-88140533D01*
X137085714Y-88140533D02*
X137038095Y-88283390D01*
X137038095Y-88283390D02*
X136466667Y-88854819D01*
X136466667Y-88854819D02*
X137085714Y-88854819D01*
X150333333Y-87359580D02*
X150285714Y-87407200D01*
X150285714Y-87407200D02*
X150142857Y-87454819D01*
X150142857Y-87454819D02*
X150047619Y-87454819D01*
X150047619Y-87454819D02*
X149904762Y-87407200D01*
X149904762Y-87407200D02*
X149809524Y-87311961D01*
X149809524Y-87311961D02*
X149761905Y-87216723D01*
X149761905Y-87216723D02*
X149714286Y-87026247D01*
X149714286Y-87026247D02*
X149714286Y-86883390D01*
X149714286Y-86883390D02*
X149761905Y-86692914D01*
X149761905Y-86692914D02*
X149809524Y-86597676D01*
X149809524Y-86597676D02*
X149904762Y-86502438D01*
X149904762Y-86502438D02*
X150047619Y-86454819D01*
X150047619Y-86454819D02*
X150142857Y-86454819D01*
X150142857Y-86454819D02*
X150285714Y-86502438D01*
X150285714Y-86502438D02*
X150333333Y-86550057D01*
X151190476Y-86788152D02*
X151190476Y-87454819D01*
X150952381Y-86407200D02*
X150714286Y-87121485D01*
X150714286Y-87121485D02*
X151333333Y-87121485D01*
X119757142Y-84859580D02*
X119709523Y-84907200D01*
X119709523Y-84907200D02*
X119566666Y-84954819D01*
X119566666Y-84954819D02*
X119471428Y-84954819D01*
X119471428Y-84954819D02*
X119328571Y-84907200D01*
X119328571Y-84907200D02*
X119233333Y-84811961D01*
X119233333Y-84811961D02*
X119185714Y-84716723D01*
X119185714Y-84716723D02*
X119138095Y-84526247D01*
X119138095Y-84526247D02*
X119138095Y-84383390D01*
X119138095Y-84383390D02*
X119185714Y-84192914D01*
X119185714Y-84192914D02*
X119233333Y-84097676D01*
X119233333Y-84097676D02*
X119328571Y-84002438D01*
X119328571Y-84002438D02*
X119471428Y-83954819D01*
X119471428Y-83954819D02*
X119566666Y-83954819D01*
X119566666Y-83954819D02*
X119709523Y-84002438D01*
X119709523Y-84002438D02*
X119757142Y-84050057D01*
X120090476Y-83954819D02*
X120709523Y-83954819D01*
X120709523Y-83954819D02*
X120376190Y-84335771D01*
X120376190Y-84335771D02*
X120519047Y-84335771D01*
X120519047Y-84335771D02*
X120614285Y-84383390D01*
X120614285Y-84383390D02*
X120661904Y-84431009D01*
X120661904Y-84431009D02*
X120709523Y-84526247D01*
X120709523Y-84526247D02*
X120709523Y-84764342D01*
X120709523Y-84764342D02*
X120661904Y-84859580D01*
X120661904Y-84859580D02*
X120614285Y-84907200D01*
X120614285Y-84907200D02*
X120519047Y-84954819D01*
X120519047Y-84954819D02*
X120233333Y-84954819D01*
X120233333Y-84954819D02*
X120138095Y-84907200D01*
X120138095Y-84907200D02*
X120090476Y-84859580D01*
X121090476Y-84050057D02*
X121138095Y-84002438D01*
X121138095Y-84002438D02*
X121233333Y-83954819D01*
X121233333Y-83954819D02*
X121471428Y-83954819D01*
X121471428Y-83954819D02*
X121566666Y-84002438D01*
X121566666Y-84002438D02*
X121614285Y-84050057D01*
X121614285Y-84050057D02*
X121661904Y-84145295D01*
X121661904Y-84145295D02*
X121661904Y-84240533D01*
X121661904Y-84240533D02*
X121614285Y-84383390D01*
X121614285Y-84383390D02*
X121042857Y-84954819D01*
X121042857Y-84954819D02*
X121661904Y-84954819D01*
X150538095Y-78354819D02*
X151109523Y-78354819D01*
X150823809Y-79354819D02*
X150823809Y-78354819D01*
X151442857Y-79354819D02*
X151442857Y-78354819D01*
X151442857Y-78354819D02*
X151823809Y-78354819D01*
X151823809Y-78354819D02*
X151919047Y-78402438D01*
X151919047Y-78402438D02*
X151966666Y-78450057D01*
X151966666Y-78450057D02*
X152014285Y-78545295D01*
X152014285Y-78545295D02*
X152014285Y-78688152D01*
X152014285Y-78688152D02*
X151966666Y-78783390D01*
X151966666Y-78783390D02*
X151919047Y-78831009D01*
X151919047Y-78831009D02*
X151823809Y-78878628D01*
X151823809Y-78878628D02*
X151442857Y-78878628D01*
X152871428Y-78688152D02*
X152871428Y-79354819D01*
X152633333Y-78307200D02*
X152395238Y-79021485D01*
X152395238Y-79021485D02*
X153014285Y-79021485D01*
X151257142Y-99659580D02*
X151209523Y-99707200D01*
X151209523Y-99707200D02*
X151066666Y-99754819D01*
X151066666Y-99754819D02*
X150971428Y-99754819D01*
X150971428Y-99754819D02*
X150828571Y-99707200D01*
X150828571Y-99707200D02*
X150733333Y-99611961D01*
X150733333Y-99611961D02*
X150685714Y-99516723D01*
X150685714Y-99516723D02*
X150638095Y-99326247D01*
X150638095Y-99326247D02*
X150638095Y-99183390D01*
X150638095Y-99183390D02*
X150685714Y-98992914D01*
X150685714Y-98992914D02*
X150733333Y-98897676D01*
X150733333Y-98897676D02*
X150828571Y-98802438D01*
X150828571Y-98802438D02*
X150971428Y-98754819D01*
X150971428Y-98754819D02*
X151066666Y-98754819D01*
X151066666Y-98754819D02*
X151209523Y-98802438D01*
X151209523Y-98802438D02*
X151257142Y-98850057D01*
X152209523Y-99754819D02*
X151638095Y-99754819D01*
X151923809Y-99754819D02*
X151923809Y-98754819D01*
X151923809Y-98754819D02*
X151828571Y-98897676D01*
X151828571Y-98897676D02*
X151733333Y-98992914D01*
X151733333Y-98992914D02*
X151638095Y-99040533D01*
X152828571Y-98754819D02*
X152923809Y-98754819D01*
X152923809Y-98754819D02*
X153019047Y-98802438D01*
X153019047Y-98802438D02*
X153066666Y-98850057D01*
X153066666Y-98850057D02*
X153114285Y-98945295D01*
X153114285Y-98945295D02*
X153161904Y-99135771D01*
X153161904Y-99135771D02*
X153161904Y-99373866D01*
X153161904Y-99373866D02*
X153114285Y-99564342D01*
X153114285Y-99564342D02*
X153066666Y-99659580D01*
X153066666Y-99659580D02*
X153019047Y-99707200D01*
X153019047Y-99707200D02*
X152923809Y-99754819D01*
X152923809Y-99754819D02*
X152828571Y-99754819D01*
X152828571Y-99754819D02*
X152733333Y-99707200D01*
X152733333Y-99707200D02*
X152685714Y-99659580D01*
X152685714Y-99659580D02*
X152638095Y-99564342D01*
X152638095Y-99564342D02*
X152590476Y-99373866D01*
X152590476Y-99373866D02*
X152590476Y-99135771D01*
X152590476Y-99135771D02*
X152638095Y-98945295D01*
X152638095Y-98945295D02*
X152685714Y-98850057D01*
X152685714Y-98850057D02*
X152733333Y-98802438D01*
X152733333Y-98802438D02*
X152828571Y-98754819D01*
X138657142Y-99559580D02*
X138609523Y-99607200D01*
X138609523Y-99607200D02*
X138466666Y-99654819D01*
X138466666Y-99654819D02*
X138371428Y-99654819D01*
X138371428Y-99654819D02*
X138228571Y-99607200D01*
X138228571Y-99607200D02*
X138133333Y-99511961D01*
X138133333Y-99511961D02*
X138085714Y-99416723D01*
X138085714Y-99416723D02*
X138038095Y-99226247D01*
X138038095Y-99226247D02*
X138038095Y-99083390D01*
X138038095Y-99083390D02*
X138085714Y-98892914D01*
X138085714Y-98892914D02*
X138133333Y-98797676D01*
X138133333Y-98797676D02*
X138228571Y-98702438D01*
X138228571Y-98702438D02*
X138371428Y-98654819D01*
X138371428Y-98654819D02*
X138466666Y-98654819D01*
X138466666Y-98654819D02*
X138609523Y-98702438D01*
X138609523Y-98702438D02*
X138657142Y-98750057D01*
X139609523Y-99654819D02*
X139038095Y-99654819D01*
X139323809Y-99654819D02*
X139323809Y-98654819D01*
X139323809Y-98654819D02*
X139228571Y-98797676D01*
X139228571Y-98797676D02*
X139133333Y-98892914D01*
X139133333Y-98892914D02*
X139038095Y-98940533D01*
X140180952Y-99083390D02*
X140085714Y-99035771D01*
X140085714Y-99035771D02*
X140038095Y-98988152D01*
X140038095Y-98988152D02*
X139990476Y-98892914D01*
X139990476Y-98892914D02*
X139990476Y-98845295D01*
X139990476Y-98845295D02*
X140038095Y-98750057D01*
X140038095Y-98750057D02*
X140085714Y-98702438D01*
X140085714Y-98702438D02*
X140180952Y-98654819D01*
X140180952Y-98654819D02*
X140371428Y-98654819D01*
X140371428Y-98654819D02*
X140466666Y-98702438D01*
X140466666Y-98702438D02*
X140514285Y-98750057D01*
X140514285Y-98750057D02*
X140561904Y-98845295D01*
X140561904Y-98845295D02*
X140561904Y-98892914D01*
X140561904Y-98892914D02*
X140514285Y-98988152D01*
X140514285Y-98988152D02*
X140466666Y-99035771D01*
X140466666Y-99035771D02*
X140371428Y-99083390D01*
X140371428Y-99083390D02*
X140180952Y-99083390D01*
X140180952Y-99083390D02*
X140085714Y-99131009D01*
X140085714Y-99131009D02*
X140038095Y-99178628D01*
X140038095Y-99178628D02*
X139990476Y-99273866D01*
X139990476Y-99273866D02*
X139990476Y-99464342D01*
X139990476Y-99464342D02*
X140038095Y-99559580D01*
X140038095Y-99559580D02*
X140085714Y-99607200D01*
X140085714Y-99607200D02*
X140180952Y-99654819D01*
X140180952Y-99654819D02*
X140371428Y-99654819D01*
X140371428Y-99654819D02*
X140466666Y-99607200D01*
X140466666Y-99607200D02*
X140514285Y-99559580D01*
X140514285Y-99559580D02*
X140561904Y-99464342D01*
X140561904Y-99464342D02*
X140561904Y-99273866D01*
X140561904Y-99273866D02*
X140514285Y-99178628D01*
X140514285Y-99178628D02*
X140466666Y-99131009D01*
X140466666Y-99131009D02*
X140371428Y-99083390D01*
X159209580Y-114366666D02*
X159257200Y-114414285D01*
X159257200Y-114414285D02*
X159304819Y-114557142D01*
X159304819Y-114557142D02*
X159304819Y-114652380D01*
X159304819Y-114652380D02*
X159257200Y-114795237D01*
X159257200Y-114795237D02*
X159161961Y-114890475D01*
X159161961Y-114890475D02*
X159066723Y-114938094D01*
X159066723Y-114938094D02*
X158876247Y-114985713D01*
X158876247Y-114985713D02*
X158733390Y-114985713D01*
X158733390Y-114985713D02*
X158542914Y-114938094D01*
X158542914Y-114938094D02*
X158447676Y-114890475D01*
X158447676Y-114890475D02*
X158352438Y-114795237D01*
X158352438Y-114795237D02*
X158304819Y-114652380D01*
X158304819Y-114652380D02*
X158304819Y-114557142D01*
X158304819Y-114557142D02*
X158352438Y-114414285D01*
X158352438Y-114414285D02*
X158400057Y-114366666D01*
X159304819Y-113890475D02*
X159304819Y-113699999D01*
X159304819Y-113699999D02*
X159257200Y-113604761D01*
X159257200Y-113604761D02*
X159209580Y-113557142D01*
X159209580Y-113557142D02*
X159066723Y-113461904D01*
X159066723Y-113461904D02*
X158876247Y-113414285D01*
X158876247Y-113414285D02*
X158495295Y-113414285D01*
X158495295Y-113414285D02*
X158400057Y-113461904D01*
X158400057Y-113461904D02*
X158352438Y-113509523D01*
X158352438Y-113509523D02*
X158304819Y-113604761D01*
X158304819Y-113604761D02*
X158304819Y-113795237D01*
X158304819Y-113795237D02*
X158352438Y-113890475D01*
X158352438Y-113890475D02*
X158400057Y-113938094D01*
X158400057Y-113938094D02*
X158495295Y-113985713D01*
X158495295Y-113985713D02*
X158733390Y-113985713D01*
X158733390Y-113985713D02*
X158828628Y-113938094D01*
X158828628Y-113938094D02*
X158876247Y-113890475D01*
X158876247Y-113890475D02*
X158923866Y-113795237D01*
X158923866Y-113795237D02*
X158923866Y-113604761D01*
X158923866Y-113604761D02*
X158876247Y-113509523D01*
X158876247Y-113509523D02*
X158828628Y-113461904D01*
X158828628Y-113461904D02*
X158733390Y-113414285D01*
X148157142Y-94059580D02*
X148109523Y-94107200D01*
X148109523Y-94107200D02*
X147966666Y-94154819D01*
X147966666Y-94154819D02*
X147871428Y-94154819D01*
X147871428Y-94154819D02*
X147728571Y-94107200D01*
X147728571Y-94107200D02*
X147633333Y-94011961D01*
X147633333Y-94011961D02*
X147585714Y-93916723D01*
X147585714Y-93916723D02*
X147538095Y-93726247D01*
X147538095Y-93726247D02*
X147538095Y-93583390D01*
X147538095Y-93583390D02*
X147585714Y-93392914D01*
X147585714Y-93392914D02*
X147633333Y-93297676D01*
X147633333Y-93297676D02*
X147728571Y-93202438D01*
X147728571Y-93202438D02*
X147871428Y-93154819D01*
X147871428Y-93154819D02*
X147966666Y-93154819D01*
X147966666Y-93154819D02*
X148109523Y-93202438D01*
X148109523Y-93202438D02*
X148157142Y-93250057D01*
X149109523Y-94154819D02*
X148538095Y-94154819D01*
X148823809Y-94154819D02*
X148823809Y-93154819D01*
X148823809Y-93154819D02*
X148728571Y-93297676D01*
X148728571Y-93297676D02*
X148633333Y-93392914D01*
X148633333Y-93392914D02*
X148538095Y-93440533D01*
X150014285Y-93154819D02*
X149538095Y-93154819D01*
X149538095Y-93154819D02*
X149490476Y-93631009D01*
X149490476Y-93631009D02*
X149538095Y-93583390D01*
X149538095Y-93583390D02*
X149633333Y-93535771D01*
X149633333Y-93535771D02*
X149871428Y-93535771D01*
X149871428Y-93535771D02*
X149966666Y-93583390D01*
X149966666Y-93583390D02*
X150014285Y-93631009D01*
X150014285Y-93631009D02*
X150061904Y-93726247D01*
X150061904Y-93726247D02*
X150061904Y-93964342D01*
X150061904Y-93964342D02*
X150014285Y-94059580D01*
X150014285Y-94059580D02*
X149966666Y-94107200D01*
X149966666Y-94107200D02*
X149871428Y-94154819D01*
X149871428Y-94154819D02*
X149633333Y-94154819D01*
X149633333Y-94154819D02*
X149538095Y-94107200D01*
X149538095Y-94107200D02*
X149490476Y-94059580D01*
X126963089Y-86354819D02*
X126963089Y-87164342D01*
X126963089Y-87164342D02*
X127010708Y-87259580D01*
X127010708Y-87259580D02*
X127058327Y-87307200D01*
X127058327Y-87307200D02*
X127153565Y-87354819D01*
X127153565Y-87354819D02*
X127344041Y-87354819D01*
X127344041Y-87354819D02*
X127439279Y-87307200D01*
X127439279Y-87307200D02*
X127486898Y-87259580D01*
X127486898Y-87259580D02*
X127534517Y-87164342D01*
X127534517Y-87164342D02*
X127534517Y-86354819D01*
X127963089Y-86450057D02*
X128010708Y-86402438D01*
X128010708Y-86402438D02*
X128105946Y-86354819D01*
X128105946Y-86354819D02*
X128344041Y-86354819D01*
X128344041Y-86354819D02*
X128439279Y-86402438D01*
X128439279Y-86402438D02*
X128486898Y-86450057D01*
X128486898Y-86450057D02*
X128534517Y-86545295D01*
X128534517Y-86545295D02*
X128534517Y-86640533D01*
X128534517Y-86640533D02*
X128486898Y-86783390D01*
X128486898Y-86783390D02*
X127915470Y-87354819D01*
X127915470Y-87354819D02*
X128534517Y-87354819D01*
X154323668Y-90105435D02*
X153990335Y-89629244D01*
X153752240Y-90105435D02*
X153752240Y-89105435D01*
X153752240Y-89105435D02*
X154133192Y-89105435D01*
X154133192Y-89105435D02*
X154228430Y-89153054D01*
X154228430Y-89153054D02*
X154276049Y-89200673D01*
X154276049Y-89200673D02*
X154323668Y-89295911D01*
X154323668Y-89295911D02*
X154323668Y-89438768D01*
X154323668Y-89438768D02*
X154276049Y-89534006D01*
X154276049Y-89534006D02*
X154228430Y-89581625D01*
X154228430Y-89581625D02*
X154133192Y-89629244D01*
X154133192Y-89629244D02*
X153752240Y-89629244D01*
X155228430Y-89105435D02*
X154752240Y-89105435D01*
X154752240Y-89105435D02*
X154704621Y-89581625D01*
X154704621Y-89581625D02*
X154752240Y-89534006D01*
X154752240Y-89534006D02*
X154847478Y-89486387D01*
X154847478Y-89486387D02*
X155085573Y-89486387D01*
X155085573Y-89486387D02*
X155180811Y-89534006D01*
X155180811Y-89534006D02*
X155228430Y-89581625D01*
X155228430Y-89581625D02*
X155276049Y-89676863D01*
X155276049Y-89676863D02*
X155276049Y-89914958D01*
X155276049Y-89914958D02*
X155228430Y-90010196D01*
X155228430Y-90010196D02*
X155180811Y-90057816D01*
X155180811Y-90057816D02*
X155085573Y-90105435D01*
X155085573Y-90105435D02*
X154847478Y-90105435D01*
X154847478Y-90105435D02*
X154752240Y-90057816D01*
X154752240Y-90057816D02*
X154704621Y-90010196D01*
X117174819Y-100633333D02*
X117889104Y-100633333D01*
X117889104Y-100633333D02*
X118031961Y-100680952D01*
X118031961Y-100680952D02*
X118127200Y-100776190D01*
X118127200Y-100776190D02*
X118174819Y-100919047D01*
X118174819Y-100919047D02*
X118174819Y-101014285D01*
X118174819Y-99633333D02*
X118174819Y-100204761D01*
X118174819Y-99919047D02*
X117174819Y-99919047D01*
X117174819Y-99919047D02*
X117317676Y-100014285D01*
X117317676Y-100014285D02*
X117412914Y-100109523D01*
X117412914Y-100109523D02*
X117460533Y-100204761D01*
X116797142Y-110524819D02*
X116463809Y-110048628D01*
X116225714Y-110524819D02*
X116225714Y-109524819D01*
X116225714Y-109524819D02*
X116606666Y-109524819D01*
X116606666Y-109524819D02*
X116701904Y-109572438D01*
X116701904Y-109572438D02*
X116749523Y-109620057D01*
X116749523Y-109620057D02*
X116797142Y-109715295D01*
X116797142Y-109715295D02*
X116797142Y-109858152D01*
X116797142Y-109858152D02*
X116749523Y-109953390D01*
X116749523Y-109953390D02*
X116701904Y-110001009D01*
X116701904Y-110001009D02*
X116606666Y-110048628D01*
X116606666Y-110048628D02*
X116225714Y-110048628D01*
X117749523Y-110524819D02*
X117178095Y-110524819D01*
X117463809Y-110524819D02*
X117463809Y-109524819D01*
X117463809Y-109524819D02*
X117368571Y-109667676D01*
X117368571Y-109667676D02*
X117273333Y-109762914D01*
X117273333Y-109762914D02*
X117178095Y-109810533D01*
X118701904Y-110524819D02*
X118130476Y-110524819D01*
X118416190Y-110524819D02*
X118416190Y-109524819D01*
X118416190Y-109524819D02*
X118320952Y-109667676D01*
X118320952Y-109667676D02*
X118225714Y-109762914D01*
X118225714Y-109762914D02*
X118130476Y-109810533D01*
X173057142Y-98359580D02*
X173009523Y-98407200D01*
X173009523Y-98407200D02*
X172866666Y-98454819D01*
X172866666Y-98454819D02*
X172771428Y-98454819D01*
X172771428Y-98454819D02*
X172628571Y-98407200D01*
X172628571Y-98407200D02*
X172533333Y-98311961D01*
X172533333Y-98311961D02*
X172485714Y-98216723D01*
X172485714Y-98216723D02*
X172438095Y-98026247D01*
X172438095Y-98026247D02*
X172438095Y-97883390D01*
X172438095Y-97883390D02*
X172485714Y-97692914D01*
X172485714Y-97692914D02*
X172533333Y-97597676D01*
X172533333Y-97597676D02*
X172628571Y-97502438D01*
X172628571Y-97502438D02*
X172771428Y-97454819D01*
X172771428Y-97454819D02*
X172866666Y-97454819D01*
X172866666Y-97454819D02*
X173009523Y-97502438D01*
X173009523Y-97502438D02*
X173057142Y-97550057D01*
X173438095Y-97550057D02*
X173485714Y-97502438D01*
X173485714Y-97502438D02*
X173580952Y-97454819D01*
X173580952Y-97454819D02*
X173819047Y-97454819D01*
X173819047Y-97454819D02*
X173914285Y-97502438D01*
X173914285Y-97502438D02*
X173961904Y-97550057D01*
X173961904Y-97550057D02*
X174009523Y-97645295D01*
X174009523Y-97645295D02*
X174009523Y-97740533D01*
X174009523Y-97740533D02*
X173961904Y-97883390D01*
X173961904Y-97883390D02*
X173390476Y-98454819D01*
X173390476Y-98454819D02*
X174009523Y-98454819D01*
X174342857Y-97454819D02*
X175009523Y-97454819D01*
X175009523Y-97454819D02*
X174580952Y-98454819D01*
X156033333Y-90954819D02*
X155700000Y-90478628D01*
X155461905Y-90954819D02*
X155461905Y-89954819D01*
X155461905Y-89954819D02*
X155842857Y-89954819D01*
X155842857Y-89954819D02*
X155938095Y-90002438D01*
X155938095Y-90002438D02*
X155985714Y-90050057D01*
X155985714Y-90050057D02*
X156033333Y-90145295D01*
X156033333Y-90145295D02*
X156033333Y-90288152D01*
X156033333Y-90288152D02*
X155985714Y-90383390D01*
X155985714Y-90383390D02*
X155938095Y-90431009D01*
X155938095Y-90431009D02*
X155842857Y-90478628D01*
X155842857Y-90478628D02*
X155461905Y-90478628D01*
X156366667Y-89954819D02*
X157033333Y-89954819D01*
X157033333Y-89954819D02*
X156604762Y-90954819D01*
X156561905Y-119704819D02*
X157133333Y-119704819D01*
X156847619Y-120704819D02*
X156847619Y-119704819D01*
X157466667Y-120704819D02*
X157466667Y-119704819D01*
X157466667Y-119704819D02*
X157847619Y-119704819D01*
X157847619Y-119704819D02*
X157942857Y-119752438D01*
X157942857Y-119752438D02*
X157990476Y-119800057D01*
X157990476Y-119800057D02*
X158038095Y-119895295D01*
X158038095Y-119895295D02*
X158038095Y-120038152D01*
X158038095Y-120038152D02*
X157990476Y-120133390D01*
X157990476Y-120133390D02*
X157942857Y-120181009D01*
X157942857Y-120181009D02*
X157847619Y-120228628D01*
X157847619Y-120228628D02*
X157466667Y-120228628D01*
X158990476Y-120704819D02*
X158419048Y-120704819D01*
X158704762Y-120704819D02*
X158704762Y-119704819D01*
X158704762Y-119704819D02*
X158609524Y-119847676D01*
X158609524Y-119847676D02*
X158514286Y-119942914D01*
X158514286Y-119942914D02*
X158419048Y-119990533D01*
X159942857Y-120704819D02*
X159371429Y-120704819D01*
X159657143Y-120704819D02*
X159657143Y-119704819D01*
X159657143Y-119704819D02*
X159561905Y-119847676D01*
X159561905Y-119847676D02*
X159466667Y-119942914D01*
X159466667Y-119942914D02*
X159371429Y-119990533D01*
X137134819Y-113933333D02*
X137849104Y-113933333D01*
X137849104Y-113933333D02*
X137991961Y-113980952D01*
X137991961Y-113980952D02*
X138087200Y-114076190D01*
X138087200Y-114076190D02*
X138134819Y-114219047D01*
X138134819Y-114219047D02*
X138134819Y-114314285D01*
X137230057Y-113504761D02*
X137182438Y-113457142D01*
X137182438Y-113457142D02*
X137134819Y-113361904D01*
X137134819Y-113361904D02*
X137134819Y-113123809D01*
X137134819Y-113123809D02*
X137182438Y-113028571D01*
X137182438Y-113028571D02*
X137230057Y-112980952D01*
X137230057Y-112980952D02*
X137325295Y-112933333D01*
X137325295Y-112933333D02*
X137420533Y-112933333D01*
X137420533Y-112933333D02*
X137563390Y-112980952D01*
X137563390Y-112980952D02*
X138134819Y-113552380D01*
X138134819Y-113552380D02*
X138134819Y-112933333D01*
X137333333Y-92854819D02*
X137000000Y-92378628D01*
X136761905Y-92854819D02*
X136761905Y-91854819D01*
X136761905Y-91854819D02*
X137142857Y-91854819D01*
X137142857Y-91854819D02*
X137238095Y-91902438D01*
X137238095Y-91902438D02*
X137285714Y-91950057D01*
X137285714Y-91950057D02*
X137333333Y-92045295D01*
X137333333Y-92045295D02*
X137333333Y-92188152D01*
X137333333Y-92188152D02*
X137285714Y-92283390D01*
X137285714Y-92283390D02*
X137238095Y-92331009D01*
X137238095Y-92331009D02*
X137142857Y-92378628D01*
X137142857Y-92378628D02*
X136761905Y-92378628D01*
X138190476Y-92188152D02*
X138190476Y-92854819D01*
X137952381Y-91807200D02*
X137714286Y-92521485D01*
X137714286Y-92521485D02*
X138333333Y-92521485D01*
X151357142Y-102059580D02*
X151309523Y-102107200D01*
X151309523Y-102107200D02*
X151166666Y-102154819D01*
X151166666Y-102154819D02*
X151071428Y-102154819D01*
X151071428Y-102154819D02*
X150928571Y-102107200D01*
X150928571Y-102107200D02*
X150833333Y-102011961D01*
X150833333Y-102011961D02*
X150785714Y-101916723D01*
X150785714Y-101916723D02*
X150738095Y-101726247D01*
X150738095Y-101726247D02*
X150738095Y-101583390D01*
X150738095Y-101583390D02*
X150785714Y-101392914D01*
X150785714Y-101392914D02*
X150833333Y-101297676D01*
X150833333Y-101297676D02*
X150928571Y-101202438D01*
X150928571Y-101202438D02*
X151071428Y-101154819D01*
X151071428Y-101154819D02*
X151166666Y-101154819D01*
X151166666Y-101154819D02*
X151309523Y-101202438D01*
X151309523Y-101202438D02*
X151357142Y-101250057D01*
X152309523Y-102154819D02*
X151738095Y-102154819D01*
X152023809Y-102154819D02*
X152023809Y-101154819D01*
X152023809Y-101154819D02*
X151928571Y-101297676D01*
X151928571Y-101297676D02*
X151833333Y-101392914D01*
X151833333Y-101392914D02*
X151738095Y-101440533D01*
X153261904Y-102154819D02*
X152690476Y-102154819D01*
X152976190Y-102154819D02*
X152976190Y-101154819D01*
X152976190Y-101154819D02*
X152880952Y-101297676D01*
X152880952Y-101297676D02*
X152785714Y-101392914D01*
X152785714Y-101392914D02*
X152690476Y-101440533D01*
X153533333Y-88859580D02*
X153485714Y-88907200D01*
X153485714Y-88907200D02*
X153342857Y-88954819D01*
X153342857Y-88954819D02*
X153247619Y-88954819D01*
X153247619Y-88954819D02*
X153104762Y-88907200D01*
X153104762Y-88907200D02*
X153009524Y-88811961D01*
X153009524Y-88811961D02*
X152961905Y-88716723D01*
X152961905Y-88716723D02*
X152914286Y-88526247D01*
X152914286Y-88526247D02*
X152914286Y-88383390D01*
X152914286Y-88383390D02*
X152961905Y-88192914D01*
X152961905Y-88192914D02*
X153009524Y-88097676D01*
X153009524Y-88097676D02*
X153104762Y-88002438D01*
X153104762Y-88002438D02*
X153247619Y-87954819D01*
X153247619Y-87954819D02*
X153342857Y-87954819D01*
X153342857Y-87954819D02*
X153485714Y-88002438D01*
X153485714Y-88002438D02*
X153533333Y-88050057D01*
X154438095Y-87954819D02*
X153961905Y-87954819D01*
X153961905Y-87954819D02*
X153914286Y-88431009D01*
X153914286Y-88431009D02*
X153961905Y-88383390D01*
X153961905Y-88383390D02*
X154057143Y-88335771D01*
X154057143Y-88335771D02*
X154295238Y-88335771D01*
X154295238Y-88335771D02*
X154390476Y-88383390D01*
X154390476Y-88383390D02*
X154438095Y-88431009D01*
X154438095Y-88431009D02*
X154485714Y-88526247D01*
X154485714Y-88526247D02*
X154485714Y-88764342D01*
X154485714Y-88764342D02*
X154438095Y-88859580D01*
X154438095Y-88859580D02*
X154390476Y-88907200D01*
X154390476Y-88907200D02*
X154295238Y-88954819D01*
X154295238Y-88954819D02*
X154057143Y-88954819D01*
X154057143Y-88954819D02*
X153961905Y-88907200D01*
X153961905Y-88907200D02*
X153914286Y-88859580D01*
X124457142Y-118154819D02*
X124123809Y-117678628D01*
X123885714Y-118154819D02*
X123885714Y-117154819D01*
X123885714Y-117154819D02*
X124266666Y-117154819D01*
X124266666Y-117154819D02*
X124361904Y-117202438D01*
X124361904Y-117202438D02*
X124409523Y-117250057D01*
X124409523Y-117250057D02*
X124457142Y-117345295D01*
X124457142Y-117345295D02*
X124457142Y-117488152D01*
X124457142Y-117488152D02*
X124409523Y-117583390D01*
X124409523Y-117583390D02*
X124361904Y-117631009D01*
X124361904Y-117631009D02*
X124266666Y-117678628D01*
X124266666Y-117678628D02*
X123885714Y-117678628D01*
X125409523Y-118154819D02*
X124838095Y-118154819D01*
X125123809Y-118154819D02*
X125123809Y-117154819D01*
X125123809Y-117154819D02*
X125028571Y-117297676D01*
X125028571Y-117297676D02*
X124933333Y-117392914D01*
X124933333Y-117392914D02*
X124838095Y-117440533D01*
X125742857Y-117154819D02*
X126409523Y-117154819D01*
X126409523Y-117154819D02*
X125980952Y-118154819D01*
X156033333Y-95354819D02*
X155700000Y-94878628D01*
X155461905Y-95354819D02*
X155461905Y-94354819D01*
X155461905Y-94354819D02*
X155842857Y-94354819D01*
X155842857Y-94354819D02*
X155938095Y-94402438D01*
X155938095Y-94402438D02*
X155985714Y-94450057D01*
X155985714Y-94450057D02*
X156033333Y-94545295D01*
X156033333Y-94545295D02*
X156033333Y-94688152D01*
X156033333Y-94688152D02*
X155985714Y-94783390D01*
X155985714Y-94783390D02*
X155938095Y-94831009D01*
X155938095Y-94831009D02*
X155842857Y-94878628D01*
X155842857Y-94878628D02*
X155461905Y-94878628D01*
X156604762Y-94783390D02*
X156509524Y-94735771D01*
X156509524Y-94735771D02*
X156461905Y-94688152D01*
X156461905Y-94688152D02*
X156414286Y-94592914D01*
X156414286Y-94592914D02*
X156414286Y-94545295D01*
X156414286Y-94545295D02*
X156461905Y-94450057D01*
X156461905Y-94450057D02*
X156509524Y-94402438D01*
X156509524Y-94402438D02*
X156604762Y-94354819D01*
X156604762Y-94354819D02*
X156795238Y-94354819D01*
X156795238Y-94354819D02*
X156890476Y-94402438D01*
X156890476Y-94402438D02*
X156938095Y-94450057D01*
X156938095Y-94450057D02*
X156985714Y-94545295D01*
X156985714Y-94545295D02*
X156985714Y-94592914D01*
X156985714Y-94592914D02*
X156938095Y-94688152D01*
X156938095Y-94688152D02*
X156890476Y-94735771D01*
X156890476Y-94735771D02*
X156795238Y-94783390D01*
X156795238Y-94783390D02*
X156604762Y-94783390D01*
X156604762Y-94783390D02*
X156509524Y-94831009D01*
X156509524Y-94831009D02*
X156461905Y-94878628D01*
X156461905Y-94878628D02*
X156414286Y-94973866D01*
X156414286Y-94973866D02*
X156414286Y-95164342D01*
X156414286Y-95164342D02*
X156461905Y-95259580D01*
X156461905Y-95259580D02*
X156509524Y-95307200D01*
X156509524Y-95307200D02*
X156604762Y-95354819D01*
X156604762Y-95354819D02*
X156795238Y-95354819D01*
X156795238Y-95354819D02*
X156890476Y-95307200D01*
X156890476Y-95307200D02*
X156938095Y-95259580D01*
X156938095Y-95259580D02*
X156985714Y-95164342D01*
X156985714Y-95164342D02*
X156985714Y-94973866D01*
X156985714Y-94973866D02*
X156938095Y-94878628D01*
X156938095Y-94878628D02*
X156890476Y-94831009D01*
X156890476Y-94831009D02*
X156795238Y-94783390D01*
X134757142Y-106852080D02*
X134709523Y-106899700D01*
X134709523Y-106899700D02*
X134566666Y-106947319D01*
X134566666Y-106947319D02*
X134471428Y-106947319D01*
X134471428Y-106947319D02*
X134328571Y-106899700D01*
X134328571Y-106899700D02*
X134233333Y-106804461D01*
X134233333Y-106804461D02*
X134185714Y-106709223D01*
X134185714Y-106709223D02*
X134138095Y-106518747D01*
X134138095Y-106518747D02*
X134138095Y-106375890D01*
X134138095Y-106375890D02*
X134185714Y-106185414D01*
X134185714Y-106185414D02*
X134233333Y-106090176D01*
X134233333Y-106090176D02*
X134328571Y-105994938D01*
X134328571Y-105994938D02*
X134471428Y-105947319D01*
X134471428Y-105947319D02*
X134566666Y-105947319D01*
X134566666Y-105947319D02*
X134709523Y-105994938D01*
X134709523Y-105994938D02*
X134757142Y-106042557D01*
X135709523Y-106947319D02*
X135138095Y-106947319D01*
X135423809Y-106947319D02*
X135423809Y-105947319D01*
X135423809Y-105947319D02*
X135328571Y-106090176D01*
X135328571Y-106090176D02*
X135233333Y-106185414D01*
X135233333Y-106185414D02*
X135138095Y-106233033D01*
X136042857Y-105947319D02*
X136709523Y-105947319D01*
X136709523Y-105947319D02*
X136280952Y-106947319D01*
X111138095Y-110154819D02*
X111709523Y-110154819D01*
X111423809Y-111154819D02*
X111423809Y-110154819D01*
X112042857Y-111154819D02*
X112042857Y-110154819D01*
X112042857Y-110154819D02*
X112423809Y-110154819D01*
X112423809Y-110154819D02*
X112519047Y-110202438D01*
X112519047Y-110202438D02*
X112566666Y-110250057D01*
X112566666Y-110250057D02*
X112614285Y-110345295D01*
X112614285Y-110345295D02*
X112614285Y-110488152D01*
X112614285Y-110488152D02*
X112566666Y-110583390D01*
X112566666Y-110583390D02*
X112519047Y-110631009D01*
X112519047Y-110631009D02*
X112423809Y-110678628D01*
X112423809Y-110678628D02*
X112042857Y-110678628D01*
X113185714Y-110583390D02*
X113090476Y-110535771D01*
X113090476Y-110535771D02*
X113042857Y-110488152D01*
X113042857Y-110488152D02*
X112995238Y-110392914D01*
X112995238Y-110392914D02*
X112995238Y-110345295D01*
X112995238Y-110345295D02*
X113042857Y-110250057D01*
X113042857Y-110250057D02*
X113090476Y-110202438D01*
X113090476Y-110202438D02*
X113185714Y-110154819D01*
X113185714Y-110154819D02*
X113376190Y-110154819D01*
X113376190Y-110154819D02*
X113471428Y-110202438D01*
X113471428Y-110202438D02*
X113519047Y-110250057D01*
X113519047Y-110250057D02*
X113566666Y-110345295D01*
X113566666Y-110345295D02*
X113566666Y-110392914D01*
X113566666Y-110392914D02*
X113519047Y-110488152D01*
X113519047Y-110488152D02*
X113471428Y-110535771D01*
X113471428Y-110535771D02*
X113376190Y-110583390D01*
X113376190Y-110583390D02*
X113185714Y-110583390D01*
X113185714Y-110583390D02*
X113090476Y-110631009D01*
X113090476Y-110631009D02*
X113042857Y-110678628D01*
X113042857Y-110678628D02*
X112995238Y-110773866D01*
X112995238Y-110773866D02*
X112995238Y-110964342D01*
X112995238Y-110964342D02*
X113042857Y-111059580D01*
X113042857Y-111059580D02*
X113090476Y-111107200D01*
X113090476Y-111107200D02*
X113185714Y-111154819D01*
X113185714Y-111154819D02*
X113376190Y-111154819D01*
X113376190Y-111154819D02*
X113471428Y-111107200D01*
X113471428Y-111107200D02*
X113519047Y-111059580D01*
X113519047Y-111059580D02*
X113566666Y-110964342D01*
X113566666Y-110964342D02*
X113566666Y-110773866D01*
X113566666Y-110773866D02*
X113519047Y-110678628D01*
X113519047Y-110678628D02*
X113471428Y-110631009D01*
X113471428Y-110631009D02*
X113376190Y-110583390D01*
X119757142Y-86759580D02*
X119709523Y-86807200D01*
X119709523Y-86807200D02*
X119566666Y-86854819D01*
X119566666Y-86854819D02*
X119471428Y-86854819D01*
X119471428Y-86854819D02*
X119328571Y-86807200D01*
X119328571Y-86807200D02*
X119233333Y-86711961D01*
X119233333Y-86711961D02*
X119185714Y-86616723D01*
X119185714Y-86616723D02*
X119138095Y-86426247D01*
X119138095Y-86426247D02*
X119138095Y-86283390D01*
X119138095Y-86283390D02*
X119185714Y-86092914D01*
X119185714Y-86092914D02*
X119233333Y-85997676D01*
X119233333Y-85997676D02*
X119328571Y-85902438D01*
X119328571Y-85902438D02*
X119471428Y-85854819D01*
X119471428Y-85854819D02*
X119566666Y-85854819D01*
X119566666Y-85854819D02*
X119709523Y-85902438D01*
X119709523Y-85902438D02*
X119757142Y-85950057D01*
X120090476Y-85854819D02*
X120709523Y-85854819D01*
X120709523Y-85854819D02*
X120376190Y-86235771D01*
X120376190Y-86235771D02*
X120519047Y-86235771D01*
X120519047Y-86235771D02*
X120614285Y-86283390D01*
X120614285Y-86283390D02*
X120661904Y-86331009D01*
X120661904Y-86331009D02*
X120709523Y-86426247D01*
X120709523Y-86426247D02*
X120709523Y-86664342D01*
X120709523Y-86664342D02*
X120661904Y-86759580D01*
X120661904Y-86759580D02*
X120614285Y-86807200D01*
X120614285Y-86807200D02*
X120519047Y-86854819D01*
X120519047Y-86854819D02*
X120233333Y-86854819D01*
X120233333Y-86854819D02*
X120138095Y-86807200D01*
X120138095Y-86807200D02*
X120090476Y-86759580D01*
X121614285Y-85854819D02*
X121138095Y-85854819D01*
X121138095Y-85854819D02*
X121090476Y-86331009D01*
X121090476Y-86331009D02*
X121138095Y-86283390D01*
X121138095Y-86283390D02*
X121233333Y-86235771D01*
X121233333Y-86235771D02*
X121471428Y-86235771D01*
X121471428Y-86235771D02*
X121566666Y-86283390D01*
X121566666Y-86283390D02*
X121614285Y-86331009D01*
X121614285Y-86331009D02*
X121661904Y-86426247D01*
X121661904Y-86426247D02*
X121661904Y-86664342D01*
X121661904Y-86664342D02*
X121614285Y-86759580D01*
X121614285Y-86759580D02*
X121566666Y-86807200D01*
X121566666Y-86807200D02*
X121471428Y-86854819D01*
X121471428Y-86854819D02*
X121233333Y-86854819D01*
X121233333Y-86854819D02*
X121138095Y-86807200D01*
X121138095Y-86807200D02*
X121090476Y-86759580D01*
X130457142Y-119554819D02*
X130123809Y-119078628D01*
X129885714Y-119554819D02*
X129885714Y-118554819D01*
X129885714Y-118554819D02*
X130266666Y-118554819D01*
X130266666Y-118554819D02*
X130361904Y-118602438D01*
X130361904Y-118602438D02*
X130409523Y-118650057D01*
X130409523Y-118650057D02*
X130457142Y-118745295D01*
X130457142Y-118745295D02*
X130457142Y-118888152D01*
X130457142Y-118888152D02*
X130409523Y-118983390D01*
X130409523Y-118983390D02*
X130361904Y-119031009D01*
X130361904Y-119031009D02*
X130266666Y-119078628D01*
X130266666Y-119078628D02*
X129885714Y-119078628D01*
X130838095Y-118650057D02*
X130885714Y-118602438D01*
X130885714Y-118602438D02*
X130980952Y-118554819D01*
X130980952Y-118554819D02*
X131219047Y-118554819D01*
X131219047Y-118554819D02*
X131314285Y-118602438D01*
X131314285Y-118602438D02*
X131361904Y-118650057D01*
X131361904Y-118650057D02*
X131409523Y-118745295D01*
X131409523Y-118745295D02*
X131409523Y-118840533D01*
X131409523Y-118840533D02*
X131361904Y-118983390D01*
X131361904Y-118983390D02*
X130790476Y-119554819D01*
X130790476Y-119554819D02*
X131409523Y-119554819D01*
X132361904Y-119554819D02*
X131790476Y-119554819D01*
X132076190Y-119554819D02*
X132076190Y-118554819D01*
X132076190Y-118554819D02*
X131980952Y-118697676D01*
X131980952Y-118697676D02*
X131885714Y-118792914D01*
X131885714Y-118792914D02*
X131790476Y-118840533D01*
X139472142Y-119984819D02*
X139138809Y-119508628D01*
X138900714Y-119984819D02*
X138900714Y-118984819D01*
X138900714Y-118984819D02*
X139281666Y-118984819D01*
X139281666Y-118984819D02*
X139376904Y-119032438D01*
X139376904Y-119032438D02*
X139424523Y-119080057D01*
X139424523Y-119080057D02*
X139472142Y-119175295D01*
X139472142Y-119175295D02*
X139472142Y-119318152D01*
X139472142Y-119318152D02*
X139424523Y-119413390D01*
X139424523Y-119413390D02*
X139376904Y-119461009D01*
X139376904Y-119461009D02*
X139281666Y-119508628D01*
X139281666Y-119508628D02*
X138900714Y-119508628D01*
X140424523Y-119984819D02*
X139853095Y-119984819D01*
X140138809Y-119984819D02*
X140138809Y-118984819D01*
X140138809Y-118984819D02*
X140043571Y-119127676D01*
X140043571Y-119127676D02*
X139948333Y-119222914D01*
X139948333Y-119222914D02*
X139853095Y-119270533D01*
X141281666Y-119318152D02*
X141281666Y-119984819D01*
X141043571Y-118937200D02*
X140805476Y-119651485D01*
X140805476Y-119651485D02*
X141424523Y-119651485D01*
X151257142Y-97259580D02*
X151209523Y-97307200D01*
X151209523Y-97307200D02*
X151066666Y-97354819D01*
X151066666Y-97354819D02*
X150971428Y-97354819D01*
X150971428Y-97354819D02*
X150828571Y-97307200D01*
X150828571Y-97307200D02*
X150733333Y-97211961D01*
X150733333Y-97211961D02*
X150685714Y-97116723D01*
X150685714Y-97116723D02*
X150638095Y-96926247D01*
X150638095Y-96926247D02*
X150638095Y-96783390D01*
X150638095Y-96783390D02*
X150685714Y-96592914D01*
X150685714Y-96592914D02*
X150733333Y-96497676D01*
X150733333Y-96497676D02*
X150828571Y-96402438D01*
X150828571Y-96402438D02*
X150971428Y-96354819D01*
X150971428Y-96354819D02*
X151066666Y-96354819D01*
X151066666Y-96354819D02*
X151209523Y-96402438D01*
X151209523Y-96402438D02*
X151257142Y-96450057D01*
X152209523Y-97354819D02*
X151638095Y-97354819D01*
X151923809Y-97354819D02*
X151923809Y-96354819D01*
X151923809Y-96354819D02*
X151828571Y-96497676D01*
X151828571Y-96497676D02*
X151733333Y-96592914D01*
X151733333Y-96592914D02*
X151638095Y-96640533D01*
X152590476Y-96450057D02*
X152638095Y-96402438D01*
X152638095Y-96402438D02*
X152733333Y-96354819D01*
X152733333Y-96354819D02*
X152971428Y-96354819D01*
X152971428Y-96354819D02*
X153066666Y-96402438D01*
X153066666Y-96402438D02*
X153114285Y-96450057D01*
X153114285Y-96450057D02*
X153161904Y-96545295D01*
X153161904Y-96545295D02*
X153161904Y-96640533D01*
X153161904Y-96640533D02*
X153114285Y-96783390D01*
X153114285Y-96783390D02*
X152542857Y-97354819D01*
X152542857Y-97354819D02*
X153161904Y-97354819D01*
X156033333Y-93254819D02*
X155700000Y-92778628D01*
X155461905Y-93254819D02*
X155461905Y-92254819D01*
X155461905Y-92254819D02*
X155842857Y-92254819D01*
X155842857Y-92254819D02*
X155938095Y-92302438D01*
X155938095Y-92302438D02*
X155985714Y-92350057D01*
X155985714Y-92350057D02*
X156033333Y-92445295D01*
X156033333Y-92445295D02*
X156033333Y-92588152D01*
X156033333Y-92588152D02*
X155985714Y-92683390D01*
X155985714Y-92683390D02*
X155938095Y-92731009D01*
X155938095Y-92731009D02*
X155842857Y-92778628D01*
X155842857Y-92778628D02*
X155461905Y-92778628D01*
X156366667Y-92254819D02*
X156985714Y-92254819D01*
X156985714Y-92254819D02*
X156652381Y-92635771D01*
X156652381Y-92635771D02*
X156795238Y-92635771D01*
X156795238Y-92635771D02*
X156890476Y-92683390D01*
X156890476Y-92683390D02*
X156938095Y-92731009D01*
X156938095Y-92731009D02*
X156985714Y-92826247D01*
X156985714Y-92826247D02*
X156985714Y-93064342D01*
X156985714Y-93064342D02*
X156938095Y-93159580D01*
X156938095Y-93159580D02*
X156890476Y-93207200D01*
X156890476Y-93207200D02*
X156795238Y-93254819D01*
X156795238Y-93254819D02*
X156509524Y-93254819D01*
X156509524Y-93254819D02*
X156414286Y-93207200D01*
X156414286Y-93207200D02*
X156366667Y-93159580D01*
X189252319Y-116233333D02*
X189966604Y-116233333D01*
X189966604Y-116233333D02*
X190109461Y-116280952D01*
X190109461Y-116280952D02*
X190204700Y-116376190D01*
X190204700Y-116376190D02*
X190252319Y-116519047D01*
X190252319Y-116519047D02*
X190252319Y-116614285D01*
X189585652Y-115328571D02*
X190252319Y-115328571D01*
X189204700Y-115566666D02*
X189918985Y-115804761D01*
X189918985Y-115804761D02*
X189918985Y-115185714D01*
X148799819Y-121633333D02*
X149514104Y-121633333D01*
X149514104Y-121633333D02*
X149656961Y-121680952D01*
X149656961Y-121680952D02*
X149752200Y-121776190D01*
X149752200Y-121776190D02*
X149799819Y-121919047D01*
X149799819Y-121919047D02*
X149799819Y-122014285D01*
X148799819Y-121252380D02*
X148799819Y-120585714D01*
X148799819Y-120585714D02*
X149799819Y-121014285D01*
X171933333Y-109314819D02*
X171600000Y-108838628D01*
X171361905Y-109314819D02*
X171361905Y-108314819D01*
X171361905Y-108314819D02*
X171742857Y-108314819D01*
X171742857Y-108314819D02*
X171838095Y-108362438D01*
X171838095Y-108362438D02*
X171885714Y-108410057D01*
X171885714Y-108410057D02*
X171933333Y-108505295D01*
X171933333Y-108505295D02*
X171933333Y-108648152D01*
X171933333Y-108648152D02*
X171885714Y-108743390D01*
X171885714Y-108743390D02*
X171838095Y-108791009D01*
X171838095Y-108791009D02*
X171742857Y-108838628D01*
X171742857Y-108838628D02*
X171361905Y-108838628D01*
X172885714Y-109314819D02*
X172314286Y-109314819D01*
X172600000Y-109314819D02*
X172600000Y-108314819D01*
X172600000Y-108314819D02*
X172504762Y-108457676D01*
X172504762Y-108457676D02*
X172409524Y-108552914D01*
X172409524Y-108552914D02*
X172314286Y-108600533D01*
X156033333Y-94404819D02*
X155700000Y-93928628D01*
X155461905Y-94404819D02*
X155461905Y-93404819D01*
X155461905Y-93404819D02*
X155842857Y-93404819D01*
X155842857Y-93404819D02*
X155938095Y-93452438D01*
X155938095Y-93452438D02*
X155985714Y-93500057D01*
X155985714Y-93500057D02*
X156033333Y-93595295D01*
X156033333Y-93595295D02*
X156033333Y-93738152D01*
X156033333Y-93738152D02*
X155985714Y-93833390D01*
X155985714Y-93833390D02*
X155938095Y-93881009D01*
X155938095Y-93881009D02*
X155842857Y-93928628D01*
X155842857Y-93928628D02*
X155461905Y-93928628D01*
X156890476Y-93404819D02*
X156700000Y-93404819D01*
X156700000Y-93404819D02*
X156604762Y-93452438D01*
X156604762Y-93452438D02*
X156557143Y-93500057D01*
X156557143Y-93500057D02*
X156461905Y-93642914D01*
X156461905Y-93642914D02*
X156414286Y-93833390D01*
X156414286Y-93833390D02*
X156414286Y-94214342D01*
X156414286Y-94214342D02*
X156461905Y-94309580D01*
X156461905Y-94309580D02*
X156509524Y-94357200D01*
X156509524Y-94357200D02*
X156604762Y-94404819D01*
X156604762Y-94404819D02*
X156795238Y-94404819D01*
X156795238Y-94404819D02*
X156890476Y-94357200D01*
X156890476Y-94357200D02*
X156938095Y-94309580D01*
X156938095Y-94309580D02*
X156985714Y-94214342D01*
X156985714Y-94214342D02*
X156985714Y-93976247D01*
X156985714Y-93976247D02*
X156938095Y-93881009D01*
X156938095Y-93881009D02*
X156890476Y-93833390D01*
X156890476Y-93833390D02*
X156795238Y-93785771D01*
X156795238Y-93785771D02*
X156604762Y-93785771D01*
X156604762Y-93785771D02*
X156509524Y-93833390D01*
X156509524Y-93833390D02*
X156461905Y-93881009D01*
X156461905Y-93881009D02*
X156414286Y-93976247D01*
X110938095Y-89404819D02*
X111509523Y-89404819D01*
X111223809Y-90404819D02*
X111223809Y-89404819D01*
X111842857Y-90404819D02*
X111842857Y-89404819D01*
X111842857Y-89404819D02*
X112223809Y-89404819D01*
X112223809Y-89404819D02*
X112319047Y-89452438D01*
X112319047Y-89452438D02*
X112366666Y-89500057D01*
X112366666Y-89500057D02*
X112414285Y-89595295D01*
X112414285Y-89595295D02*
X112414285Y-89738152D01*
X112414285Y-89738152D02*
X112366666Y-89833390D01*
X112366666Y-89833390D02*
X112319047Y-89881009D01*
X112319047Y-89881009D02*
X112223809Y-89928628D01*
X112223809Y-89928628D02*
X111842857Y-89928628D01*
X112747619Y-89404819D02*
X113414285Y-89404819D01*
X113414285Y-89404819D02*
X112985714Y-90404819D01*
X149757142Y-95359580D02*
X149709523Y-95407200D01*
X149709523Y-95407200D02*
X149566666Y-95454819D01*
X149566666Y-95454819D02*
X149471428Y-95454819D01*
X149471428Y-95454819D02*
X149328571Y-95407200D01*
X149328571Y-95407200D02*
X149233333Y-95311961D01*
X149233333Y-95311961D02*
X149185714Y-95216723D01*
X149185714Y-95216723D02*
X149138095Y-95026247D01*
X149138095Y-95026247D02*
X149138095Y-94883390D01*
X149138095Y-94883390D02*
X149185714Y-94692914D01*
X149185714Y-94692914D02*
X149233333Y-94597676D01*
X149233333Y-94597676D02*
X149328571Y-94502438D01*
X149328571Y-94502438D02*
X149471428Y-94454819D01*
X149471428Y-94454819D02*
X149566666Y-94454819D01*
X149566666Y-94454819D02*
X149709523Y-94502438D01*
X149709523Y-94502438D02*
X149757142Y-94550057D01*
X150709523Y-95454819D02*
X150138095Y-95454819D01*
X150423809Y-95454819D02*
X150423809Y-94454819D01*
X150423809Y-94454819D02*
X150328571Y-94597676D01*
X150328571Y-94597676D02*
X150233333Y-94692914D01*
X150233333Y-94692914D02*
X150138095Y-94740533D01*
X151042857Y-94454819D02*
X151661904Y-94454819D01*
X151661904Y-94454819D02*
X151328571Y-94835771D01*
X151328571Y-94835771D02*
X151471428Y-94835771D01*
X151471428Y-94835771D02*
X151566666Y-94883390D01*
X151566666Y-94883390D02*
X151614285Y-94931009D01*
X151614285Y-94931009D02*
X151661904Y-95026247D01*
X151661904Y-95026247D02*
X151661904Y-95264342D01*
X151661904Y-95264342D02*
X151614285Y-95359580D01*
X151614285Y-95359580D02*
X151566666Y-95407200D01*
X151566666Y-95407200D02*
X151471428Y-95454819D01*
X151471428Y-95454819D02*
X151185714Y-95454819D01*
X151185714Y-95454819D02*
X151090476Y-95407200D01*
X151090476Y-95407200D02*
X151042857Y-95359580D01*
X158023668Y-90859580D02*
X157976049Y-90907200D01*
X157976049Y-90907200D02*
X157833192Y-90954819D01*
X157833192Y-90954819D02*
X157737954Y-90954819D01*
X157737954Y-90954819D02*
X157595097Y-90907200D01*
X157595097Y-90907200D02*
X157499859Y-90811961D01*
X157499859Y-90811961D02*
X157452240Y-90716723D01*
X157452240Y-90716723D02*
X157404621Y-90526247D01*
X157404621Y-90526247D02*
X157404621Y-90383390D01*
X157404621Y-90383390D02*
X157452240Y-90192914D01*
X157452240Y-90192914D02*
X157499859Y-90097676D01*
X157499859Y-90097676D02*
X157595097Y-90002438D01*
X157595097Y-90002438D02*
X157737954Y-89954819D01*
X157737954Y-89954819D02*
X157833192Y-89954819D01*
X157833192Y-89954819D02*
X157976049Y-90002438D01*
X157976049Y-90002438D02*
X158023668Y-90050057D01*
X158595097Y-90383390D02*
X158499859Y-90335771D01*
X158499859Y-90335771D02*
X158452240Y-90288152D01*
X158452240Y-90288152D02*
X158404621Y-90192914D01*
X158404621Y-90192914D02*
X158404621Y-90145295D01*
X158404621Y-90145295D02*
X158452240Y-90050057D01*
X158452240Y-90050057D02*
X158499859Y-90002438D01*
X158499859Y-90002438D02*
X158595097Y-89954819D01*
X158595097Y-89954819D02*
X158785573Y-89954819D01*
X158785573Y-89954819D02*
X158880811Y-90002438D01*
X158880811Y-90002438D02*
X158928430Y-90050057D01*
X158928430Y-90050057D02*
X158976049Y-90145295D01*
X158976049Y-90145295D02*
X158976049Y-90192914D01*
X158976049Y-90192914D02*
X158928430Y-90288152D01*
X158928430Y-90288152D02*
X158880811Y-90335771D01*
X158880811Y-90335771D02*
X158785573Y-90383390D01*
X158785573Y-90383390D02*
X158595097Y-90383390D01*
X158595097Y-90383390D02*
X158499859Y-90431009D01*
X158499859Y-90431009D02*
X158452240Y-90478628D01*
X158452240Y-90478628D02*
X158404621Y-90573866D01*
X158404621Y-90573866D02*
X158404621Y-90764342D01*
X158404621Y-90764342D02*
X158452240Y-90859580D01*
X158452240Y-90859580D02*
X158499859Y-90907200D01*
X158499859Y-90907200D02*
X158595097Y-90954819D01*
X158595097Y-90954819D02*
X158785573Y-90954819D01*
X158785573Y-90954819D02*
X158880811Y-90907200D01*
X158880811Y-90907200D02*
X158928430Y-90859580D01*
X158928430Y-90859580D02*
X158976049Y-90764342D01*
X158976049Y-90764342D02*
X158976049Y-90573866D01*
X158976049Y-90573866D02*
X158928430Y-90478628D01*
X158928430Y-90478628D02*
X158880811Y-90431009D01*
X158880811Y-90431009D02*
X158785573Y-90383390D01*
X124066666Y-122854819D02*
X124066666Y-123569104D01*
X124066666Y-123569104D02*
X124019047Y-123711961D01*
X124019047Y-123711961D02*
X123923809Y-123807200D01*
X123923809Y-123807200D02*
X123780952Y-123854819D01*
X123780952Y-123854819D02*
X123685714Y-123854819D01*
X124590476Y-123854819D02*
X124780952Y-123854819D01*
X124780952Y-123854819D02*
X124876190Y-123807200D01*
X124876190Y-123807200D02*
X124923809Y-123759580D01*
X124923809Y-123759580D02*
X125019047Y-123616723D01*
X125019047Y-123616723D02*
X125066666Y-123426247D01*
X125066666Y-123426247D02*
X125066666Y-123045295D01*
X125066666Y-123045295D02*
X125019047Y-122950057D01*
X125019047Y-122950057D02*
X124971428Y-122902438D01*
X124971428Y-122902438D02*
X124876190Y-122854819D01*
X124876190Y-122854819D02*
X124685714Y-122854819D01*
X124685714Y-122854819D02*
X124590476Y-122902438D01*
X124590476Y-122902438D02*
X124542857Y-122950057D01*
X124542857Y-122950057D02*
X124495238Y-123045295D01*
X124495238Y-123045295D02*
X124495238Y-123283390D01*
X124495238Y-123283390D02*
X124542857Y-123378628D01*
X124542857Y-123378628D02*
X124590476Y-123426247D01*
X124590476Y-123426247D02*
X124685714Y-123473866D01*
X124685714Y-123473866D02*
X124876190Y-123473866D01*
X124876190Y-123473866D02*
X124971428Y-123426247D01*
X124971428Y-123426247D02*
X125019047Y-123378628D01*
X125019047Y-123378628D02*
X125066666Y-123283390D01*
X121697142Y-110524819D02*
X121363809Y-110048628D01*
X121125714Y-110524819D02*
X121125714Y-109524819D01*
X121125714Y-109524819D02*
X121506666Y-109524819D01*
X121506666Y-109524819D02*
X121601904Y-109572438D01*
X121601904Y-109572438D02*
X121649523Y-109620057D01*
X121649523Y-109620057D02*
X121697142Y-109715295D01*
X121697142Y-109715295D02*
X121697142Y-109858152D01*
X121697142Y-109858152D02*
X121649523Y-109953390D01*
X121649523Y-109953390D02*
X121601904Y-110001009D01*
X121601904Y-110001009D02*
X121506666Y-110048628D01*
X121506666Y-110048628D02*
X121125714Y-110048628D01*
X122649523Y-110524819D02*
X122078095Y-110524819D01*
X122363809Y-110524819D02*
X122363809Y-109524819D01*
X122363809Y-109524819D02*
X122268571Y-109667676D01*
X122268571Y-109667676D02*
X122173333Y-109762914D01*
X122173333Y-109762914D02*
X122078095Y-109810533D01*
X123268571Y-109524819D02*
X123363809Y-109524819D01*
X123363809Y-109524819D02*
X123459047Y-109572438D01*
X123459047Y-109572438D02*
X123506666Y-109620057D01*
X123506666Y-109620057D02*
X123554285Y-109715295D01*
X123554285Y-109715295D02*
X123601904Y-109905771D01*
X123601904Y-109905771D02*
X123601904Y-110143866D01*
X123601904Y-110143866D02*
X123554285Y-110334342D01*
X123554285Y-110334342D02*
X123506666Y-110429580D01*
X123506666Y-110429580D02*
X123459047Y-110477200D01*
X123459047Y-110477200D02*
X123363809Y-110524819D01*
X123363809Y-110524819D02*
X123268571Y-110524819D01*
X123268571Y-110524819D02*
X123173333Y-110477200D01*
X123173333Y-110477200D02*
X123125714Y-110429580D01*
X123125714Y-110429580D02*
X123078095Y-110334342D01*
X123078095Y-110334342D02*
X123030476Y-110143866D01*
X123030476Y-110143866D02*
X123030476Y-109905771D01*
X123030476Y-109905771D02*
X123078095Y-109715295D01*
X123078095Y-109715295D02*
X123125714Y-109620057D01*
X123125714Y-109620057D02*
X123173333Y-109572438D01*
X123173333Y-109572438D02*
X123268571Y-109524819D01*
X119057142Y-88254819D02*
X118723809Y-87778628D01*
X118485714Y-88254819D02*
X118485714Y-87254819D01*
X118485714Y-87254819D02*
X118866666Y-87254819D01*
X118866666Y-87254819D02*
X118961904Y-87302438D01*
X118961904Y-87302438D02*
X119009523Y-87350057D01*
X119009523Y-87350057D02*
X119057142Y-87445295D01*
X119057142Y-87445295D02*
X119057142Y-87588152D01*
X119057142Y-87588152D02*
X119009523Y-87683390D01*
X119009523Y-87683390D02*
X118961904Y-87731009D01*
X118961904Y-87731009D02*
X118866666Y-87778628D01*
X118866666Y-87778628D02*
X118485714Y-87778628D01*
X119438095Y-87350057D02*
X119485714Y-87302438D01*
X119485714Y-87302438D02*
X119580952Y-87254819D01*
X119580952Y-87254819D02*
X119819047Y-87254819D01*
X119819047Y-87254819D02*
X119914285Y-87302438D01*
X119914285Y-87302438D02*
X119961904Y-87350057D01*
X119961904Y-87350057D02*
X120009523Y-87445295D01*
X120009523Y-87445295D02*
X120009523Y-87540533D01*
X120009523Y-87540533D02*
X119961904Y-87683390D01*
X119961904Y-87683390D02*
X119390476Y-88254819D01*
X119390476Y-88254819D02*
X120009523Y-88254819D01*
X120390476Y-87350057D02*
X120438095Y-87302438D01*
X120438095Y-87302438D02*
X120533333Y-87254819D01*
X120533333Y-87254819D02*
X120771428Y-87254819D01*
X120771428Y-87254819D02*
X120866666Y-87302438D01*
X120866666Y-87302438D02*
X120914285Y-87350057D01*
X120914285Y-87350057D02*
X120961904Y-87445295D01*
X120961904Y-87445295D02*
X120961904Y-87540533D01*
X120961904Y-87540533D02*
X120914285Y-87683390D01*
X120914285Y-87683390D02*
X120342857Y-88254819D01*
X120342857Y-88254819D02*
X120961904Y-88254819D01*
X141557142Y-94059580D02*
X141509523Y-94107200D01*
X141509523Y-94107200D02*
X141366666Y-94154819D01*
X141366666Y-94154819D02*
X141271428Y-94154819D01*
X141271428Y-94154819D02*
X141128571Y-94107200D01*
X141128571Y-94107200D02*
X141033333Y-94011961D01*
X141033333Y-94011961D02*
X140985714Y-93916723D01*
X140985714Y-93916723D02*
X140938095Y-93726247D01*
X140938095Y-93726247D02*
X140938095Y-93583390D01*
X140938095Y-93583390D02*
X140985714Y-93392914D01*
X140985714Y-93392914D02*
X141033333Y-93297676D01*
X141033333Y-93297676D02*
X141128571Y-93202438D01*
X141128571Y-93202438D02*
X141271428Y-93154819D01*
X141271428Y-93154819D02*
X141366666Y-93154819D01*
X141366666Y-93154819D02*
X141509523Y-93202438D01*
X141509523Y-93202438D02*
X141557142Y-93250057D01*
X141938095Y-93250057D02*
X141985714Y-93202438D01*
X141985714Y-93202438D02*
X142080952Y-93154819D01*
X142080952Y-93154819D02*
X142319047Y-93154819D01*
X142319047Y-93154819D02*
X142414285Y-93202438D01*
X142414285Y-93202438D02*
X142461904Y-93250057D01*
X142461904Y-93250057D02*
X142509523Y-93345295D01*
X142509523Y-93345295D02*
X142509523Y-93440533D01*
X142509523Y-93440533D02*
X142461904Y-93583390D01*
X142461904Y-93583390D02*
X141890476Y-94154819D01*
X141890476Y-94154819D02*
X142509523Y-94154819D01*
X142890476Y-93250057D02*
X142938095Y-93202438D01*
X142938095Y-93202438D02*
X143033333Y-93154819D01*
X143033333Y-93154819D02*
X143271428Y-93154819D01*
X143271428Y-93154819D02*
X143366666Y-93202438D01*
X143366666Y-93202438D02*
X143414285Y-93250057D01*
X143414285Y-93250057D02*
X143461904Y-93345295D01*
X143461904Y-93345295D02*
X143461904Y-93440533D01*
X143461904Y-93440533D02*
X143414285Y-93583390D01*
X143414285Y-93583390D02*
X142842857Y-94154819D01*
X142842857Y-94154819D02*
X143461904Y-94154819D01*
X137357142Y-118659580D02*
X137309523Y-118707200D01*
X137309523Y-118707200D02*
X137166666Y-118754819D01*
X137166666Y-118754819D02*
X137071428Y-118754819D01*
X137071428Y-118754819D02*
X136928571Y-118707200D01*
X136928571Y-118707200D02*
X136833333Y-118611961D01*
X136833333Y-118611961D02*
X136785714Y-118516723D01*
X136785714Y-118516723D02*
X136738095Y-118326247D01*
X136738095Y-118326247D02*
X136738095Y-118183390D01*
X136738095Y-118183390D02*
X136785714Y-117992914D01*
X136785714Y-117992914D02*
X136833333Y-117897676D01*
X136833333Y-117897676D02*
X136928571Y-117802438D01*
X136928571Y-117802438D02*
X137071428Y-117754819D01*
X137071428Y-117754819D02*
X137166666Y-117754819D01*
X137166666Y-117754819D02*
X137309523Y-117802438D01*
X137309523Y-117802438D02*
X137357142Y-117850057D01*
X137690476Y-117754819D02*
X138309523Y-117754819D01*
X138309523Y-117754819D02*
X137976190Y-118135771D01*
X137976190Y-118135771D02*
X138119047Y-118135771D01*
X138119047Y-118135771D02*
X138214285Y-118183390D01*
X138214285Y-118183390D02*
X138261904Y-118231009D01*
X138261904Y-118231009D02*
X138309523Y-118326247D01*
X138309523Y-118326247D02*
X138309523Y-118564342D01*
X138309523Y-118564342D02*
X138261904Y-118659580D01*
X138261904Y-118659580D02*
X138214285Y-118707200D01*
X138214285Y-118707200D02*
X138119047Y-118754819D01*
X138119047Y-118754819D02*
X137833333Y-118754819D01*
X137833333Y-118754819D02*
X137738095Y-118707200D01*
X137738095Y-118707200D02*
X137690476Y-118659580D01*
X139261904Y-118754819D02*
X138690476Y-118754819D01*
X138976190Y-118754819D02*
X138976190Y-117754819D01*
X138976190Y-117754819D02*
X138880952Y-117897676D01*
X138880952Y-117897676D02*
X138785714Y-117992914D01*
X138785714Y-117992914D02*
X138690476Y-118040533D01*
X124857142Y-106859580D02*
X124809523Y-106907200D01*
X124809523Y-106907200D02*
X124666666Y-106954819D01*
X124666666Y-106954819D02*
X124571428Y-106954819D01*
X124571428Y-106954819D02*
X124428571Y-106907200D01*
X124428571Y-106907200D02*
X124333333Y-106811961D01*
X124333333Y-106811961D02*
X124285714Y-106716723D01*
X124285714Y-106716723D02*
X124238095Y-106526247D01*
X124238095Y-106526247D02*
X124238095Y-106383390D01*
X124238095Y-106383390D02*
X124285714Y-106192914D01*
X124285714Y-106192914D02*
X124333333Y-106097676D01*
X124333333Y-106097676D02*
X124428571Y-106002438D01*
X124428571Y-106002438D02*
X124571428Y-105954819D01*
X124571428Y-105954819D02*
X124666666Y-105954819D01*
X124666666Y-105954819D02*
X124809523Y-106002438D01*
X124809523Y-106002438D02*
X124857142Y-106050057D01*
X125190476Y-105954819D02*
X125809523Y-105954819D01*
X125809523Y-105954819D02*
X125476190Y-106335771D01*
X125476190Y-106335771D02*
X125619047Y-106335771D01*
X125619047Y-106335771D02*
X125714285Y-106383390D01*
X125714285Y-106383390D02*
X125761904Y-106431009D01*
X125761904Y-106431009D02*
X125809523Y-106526247D01*
X125809523Y-106526247D02*
X125809523Y-106764342D01*
X125809523Y-106764342D02*
X125761904Y-106859580D01*
X125761904Y-106859580D02*
X125714285Y-106907200D01*
X125714285Y-106907200D02*
X125619047Y-106954819D01*
X125619047Y-106954819D02*
X125333333Y-106954819D01*
X125333333Y-106954819D02*
X125238095Y-106907200D01*
X125238095Y-106907200D02*
X125190476Y-106859580D01*
X126142857Y-105954819D02*
X126761904Y-105954819D01*
X126761904Y-105954819D02*
X126428571Y-106335771D01*
X126428571Y-106335771D02*
X126571428Y-106335771D01*
X126571428Y-106335771D02*
X126666666Y-106383390D01*
X126666666Y-106383390D02*
X126714285Y-106431009D01*
X126714285Y-106431009D02*
X126761904Y-106526247D01*
X126761904Y-106526247D02*
X126761904Y-106764342D01*
X126761904Y-106764342D02*
X126714285Y-106859580D01*
X126714285Y-106859580D02*
X126666666Y-106907200D01*
X126666666Y-106907200D02*
X126571428Y-106954819D01*
X126571428Y-106954819D02*
X126285714Y-106954819D01*
X126285714Y-106954819D02*
X126190476Y-106907200D01*
X126190476Y-106907200D02*
X126142857Y-106859580D01*
X148138095Y-88354819D02*
X148138095Y-89164342D01*
X148138095Y-89164342D02*
X148185714Y-89259580D01*
X148185714Y-89259580D02*
X148233333Y-89307200D01*
X148233333Y-89307200D02*
X148328571Y-89354819D01*
X148328571Y-89354819D02*
X148519047Y-89354819D01*
X148519047Y-89354819D02*
X148614285Y-89307200D01*
X148614285Y-89307200D02*
X148661904Y-89259580D01*
X148661904Y-89259580D02*
X148709523Y-89164342D01*
X148709523Y-89164342D02*
X148709523Y-88354819D01*
X149709523Y-89354819D02*
X149138095Y-89354819D01*
X149423809Y-89354819D02*
X149423809Y-88354819D01*
X149423809Y-88354819D02*
X149328571Y-88497676D01*
X149328571Y-88497676D02*
X149233333Y-88592914D01*
X149233333Y-88592914D02*
X149138095Y-88640533D01*
X142210154Y-89153394D02*
X142210154Y-89391489D01*
X141972059Y-89296251D02*
X142210154Y-89391489D01*
X142210154Y-89391489D02*
X142448249Y-89296251D01*
X142067297Y-89581965D02*
X142210154Y-89391489D01*
X142210154Y-89391489D02*
X142353011Y-89581965D01*
X142210154Y-89153394D02*
X142210154Y-89391489D01*
X141972059Y-89296251D02*
X142210154Y-89391489D01*
X142210154Y-89391489D02*
X142448249Y-89296251D01*
X142067297Y-89581965D02*
X142210154Y-89391489D01*
X142210154Y-89391489D02*
X142353011Y-89581965D01*
X138457142Y-97259580D02*
X138409523Y-97307200D01*
X138409523Y-97307200D02*
X138266666Y-97354819D01*
X138266666Y-97354819D02*
X138171428Y-97354819D01*
X138171428Y-97354819D02*
X138028571Y-97307200D01*
X138028571Y-97307200D02*
X137933333Y-97211961D01*
X137933333Y-97211961D02*
X137885714Y-97116723D01*
X137885714Y-97116723D02*
X137838095Y-96926247D01*
X137838095Y-96926247D02*
X137838095Y-96783390D01*
X137838095Y-96783390D02*
X137885714Y-96592914D01*
X137885714Y-96592914D02*
X137933333Y-96497676D01*
X137933333Y-96497676D02*
X138028571Y-96402438D01*
X138028571Y-96402438D02*
X138171428Y-96354819D01*
X138171428Y-96354819D02*
X138266666Y-96354819D01*
X138266666Y-96354819D02*
X138409523Y-96402438D01*
X138409523Y-96402438D02*
X138457142Y-96450057D01*
X139409523Y-97354819D02*
X138838095Y-97354819D01*
X139123809Y-97354819D02*
X139123809Y-96354819D01*
X139123809Y-96354819D02*
X139028571Y-96497676D01*
X139028571Y-96497676D02*
X138933333Y-96592914D01*
X138933333Y-96592914D02*
X138838095Y-96640533D01*
X139885714Y-97354819D02*
X140076190Y-97354819D01*
X140076190Y-97354819D02*
X140171428Y-97307200D01*
X140171428Y-97307200D02*
X140219047Y-97259580D01*
X140219047Y-97259580D02*
X140314285Y-97116723D01*
X140314285Y-97116723D02*
X140361904Y-96926247D01*
X140361904Y-96926247D02*
X140361904Y-96545295D01*
X140361904Y-96545295D02*
X140314285Y-96450057D01*
X140314285Y-96450057D02*
X140266666Y-96402438D01*
X140266666Y-96402438D02*
X140171428Y-96354819D01*
X140171428Y-96354819D02*
X139980952Y-96354819D01*
X139980952Y-96354819D02*
X139885714Y-96402438D01*
X139885714Y-96402438D02*
X139838095Y-96450057D01*
X139838095Y-96450057D02*
X139790476Y-96545295D01*
X139790476Y-96545295D02*
X139790476Y-96783390D01*
X139790476Y-96783390D02*
X139838095Y-96878628D01*
X139838095Y-96878628D02*
X139885714Y-96926247D01*
X139885714Y-96926247D02*
X139980952Y-96973866D01*
X139980952Y-96973866D02*
X140171428Y-96973866D01*
X140171428Y-96973866D02*
X140266666Y-96926247D01*
X140266666Y-96926247D02*
X140314285Y-96878628D01*
X140314285Y-96878628D02*
X140361904Y-96783390D01*
X137134819Y-122109523D02*
X137849104Y-122109523D01*
X137849104Y-122109523D02*
X137991961Y-122157142D01*
X137991961Y-122157142D02*
X138087200Y-122252380D01*
X138087200Y-122252380D02*
X138134819Y-122395237D01*
X138134819Y-122395237D02*
X138134819Y-122490475D01*
X138134819Y-121109523D02*
X138134819Y-121680951D01*
X138134819Y-121395237D02*
X137134819Y-121395237D01*
X137134819Y-121395237D02*
X137277676Y-121490475D01*
X137277676Y-121490475D02*
X137372914Y-121585713D01*
X137372914Y-121585713D02*
X137420533Y-121680951D01*
X137134819Y-120490475D02*
X137134819Y-120395237D01*
X137134819Y-120395237D02*
X137182438Y-120299999D01*
X137182438Y-120299999D02*
X137230057Y-120252380D01*
X137230057Y-120252380D02*
X137325295Y-120204761D01*
X137325295Y-120204761D02*
X137515771Y-120157142D01*
X137515771Y-120157142D02*
X137753866Y-120157142D01*
X137753866Y-120157142D02*
X137944342Y-120204761D01*
X137944342Y-120204761D02*
X138039580Y-120252380D01*
X138039580Y-120252380D02*
X138087200Y-120299999D01*
X138087200Y-120299999D02*
X138134819Y-120395237D01*
X138134819Y-120395237D02*
X138134819Y-120490475D01*
X138134819Y-120490475D02*
X138087200Y-120585713D01*
X138087200Y-120585713D02*
X138039580Y-120633332D01*
X138039580Y-120633332D02*
X137944342Y-120680951D01*
X137944342Y-120680951D02*
X137753866Y-120728570D01*
X137753866Y-120728570D02*
X137515771Y-120728570D01*
X137515771Y-120728570D02*
X137325295Y-120680951D01*
X137325295Y-120680951D02*
X137230057Y-120633332D01*
X137230057Y-120633332D02*
X137182438Y-120585713D01*
X137182438Y-120585713D02*
X137134819Y-120490475D01*
X145957142Y-109954819D02*
X145623809Y-109478628D01*
X145385714Y-109954819D02*
X145385714Y-108954819D01*
X145385714Y-108954819D02*
X145766666Y-108954819D01*
X145766666Y-108954819D02*
X145861904Y-109002438D01*
X145861904Y-109002438D02*
X145909523Y-109050057D01*
X145909523Y-109050057D02*
X145957142Y-109145295D01*
X145957142Y-109145295D02*
X145957142Y-109288152D01*
X145957142Y-109288152D02*
X145909523Y-109383390D01*
X145909523Y-109383390D02*
X145861904Y-109431009D01*
X145861904Y-109431009D02*
X145766666Y-109478628D01*
X145766666Y-109478628D02*
X145385714Y-109478628D01*
X146909523Y-109954819D02*
X146338095Y-109954819D01*
X146623809Y-109954819D02*
X146623809Y-108954819D01*
X146623809Y-108954819D02*
X146528571Y-109097676D01*
X146528571Y-109097676D02*
X146433333Y-109192914D01*
X146433333Y-109192914D02*
X146338095Y-109240533D01*
X147814285Y-108954819D02*
X147338095Y-108954819D01*
X147338095Y-108954819D02*
X147290476Y-109431009D01*
X147290476Y-109431009D02*
X147338095Y-109383390D01*
X147338095Y-109383390D02*
X147433333Y-109335771D01*
X147433333Y-109335771D02*
X147671428Y-109335771D01*
X147671428Y-109335771D02*
X147766666Y-109383390D01*
X147766666Y-109383390D02*
X147814285Y-109431009D01*
X147814285Y-109431009D02*
X147861904Y-109526247D01*
X147861904Y-109526247D02*
X147861904Y-109764342D01*
X147861904Y-109764342D02*
X147814285Y-109859580D01*
X147814285Y-109859580D02*
X147766666Y-109907200D01*
X147766666Y-109907200D02*
X147671428Y-109954819D01*
X147671428Y-109954819D02*
X147433333Y-109954819D01*
X147433333Y-109954819D02*
X147338095Y-109907200D01*
X147338095Y-109907200D02*
X147290476Y-109859580D01*
X150333333Y-91854819D02*
X150000000Y-91378628D01*
X149761905Y-91854819D02*
X149761905Y-90854819D01*
X149761905Y-90854819D02*
X150142857Y-90854819D01*
X150142857Y-90854819D02*
X150238095Y-90902438D01*
X150238095Y-90902438D02*
X150285714Y-90950057D01*
X150285714Y-90950057D02*
X150333333Y-91045295D01*
X150333333Y-91045295D02*
X150333333Y-91188152D01*
X150333333Y-91188152D02*
X150285714Y-91283390D01*
X150285714Y-91283390D02*
X150238095Y-91331009D01*
X150238095Y-91331009D02*
X150142857Y-91378628D01*
X150142857Y-91378628D02*
X149761905Y-91378628D01*
X150714286Y-90950057D02*
X150761905Y-90902438D01*
X150761905Y-90902438D02*
X150857143Y-90854819D01*
X150857143Y-90854819D02*
X151095238Y-90854819D01*
X151095238Y-90854819D02*
X151190476Y-90902438D01*
X151190476Y-90902438D02*
X151238095Y-90950057D01*
X151238095Y-90950057D02*
X151285714Y-91045295D01*
X151285714Y-91045295D02*
X151285714Y-91140533D01*
X151285714Y-91140533D02*
X151238095Y-91283390D01*
X151238095Y-91283390D02*
X150666667Y-91854819D01*
X150666667Y-91854819D02*
X151285714Y-91854819D01*
X124357142Y-119354819D02*
X124023809Y-118878628D01*
X123785714Y-119354819D02*
X123785714Y-118354819D01*
X123785714Y-118354819D02*
X124166666Y-118354819D01*
X124166666Y-118354819D02*
X124261904Y-118402438D01*
X124261904Y-118402438D02*
X124309523Y-118450057D01*
X124309523Y-118450057D02*
X124357142Y-118545295D01*
X124357142Y-118545295D02*
X124357142Y-118688152D01*
X124357142Y-118688152D02*
X124309523Y-118783390D01*
X124309523Y-118783390D02*
X124261904Y-118831009D01*
X124261904Y-118831009D02*
X124166666Y-118878628D01*
X124166666Y-118878628D02*
X123785714Y-118878628D01*
X125309523Y-119354819D02*
X124738095Y-119354819D01*
X125023809Y-119354819D02*
X125023809Y-118354819D01*
X125023809Y-118354819D02*
X124928571Y-118497676D01*
X124928571Y-118497676D02*
X124833333Y-118592914D01*
X124833333Y-118592914D02*
X124738095Y-118640533D01*
X125880952Y-118783390D02*
X125785714Y-118735771D01*
X125785714Y-118735771D02*
X125738095Y-118688152D01*
X125738095Y-118688152D02*
X125690476Y-118592914D01*
X125690476Y-118592914D02*
X125690476Y-118545295D01*
X125690476Y-118545295D02*
X125738095Y-118450057D01*
X125738095Y-118450057D02*
X125785714Y-118402438D01*
X125785714Y-118402438D02*
X125880952Y-118354819D01*
X125880952Y-118354819D02*
X126071428Y-118354819D01*
X126071428Y-118354819D02*
X126166666Y-118402438D01*
X126166666Y-118402438D02*
X126214285Y-118450057D01*
X126214285Y-118450057D02*
X126261904Y-118545295D01*
X126261904Y-118545295D02*
X126261904Y-118592914D01*
X126261904Y-118592914D02*
X126214285Y-118688152D01*
X126214285Y-118688152D02*
X126166666Y-118735771D01*
X126166666Y-118735771D02*
X126071428Y-118783390D01*
X126071428Y-118783390D02*
X125880952Y-118783390D01*
X125880952Y-118783390D02*
X125785714Y-118831009D01*
X125785714Y-118831009D02*
X125738095Y-118878628D01*
X125738095Y-118878628D02*
X125690476Y-118973866D01*
X125690476Y-118973866D02*
X125690476Y-119164342D01*
X125690476Y-119164342D02*
X125738095Y-119259580D01*
X125738095Y-119259580D02*
X125785714Y-119307200D01*
X125785714Y-119307200D02*
X125880952Y-119354819D01*
X125880952Y-119354819D02*
X126071428Y-119354819D01*
X126071428Y-119354819D02*
X126166666Y-119307200D01*
X126166666Y-119307200D02*
X126214285Y-119259580D01*
X126214285Y-119259580D02*
X126261904Y-119164342D01*
X126261904Y-119164342D02*
X126261904Y-118973866D01*
X126261904Y-118973866D02*
X126214285Y-118878628D01*
X126214285Y-118878628D02*
X126166666Y-118831009D01*
X126166666Y-118831009D02*
X126071428Y-118783390D01*
X175857142Y-98359580D02*
X175809523Y-98407200D01*
X175809523Y-98407200D02*
X175666666Y-98454819D01*
X175666666Y-98454819D02*
X175571428Y-98454819D01*
X175571428Y-98454819D02*
X175428571Y-98407200D01*
X175428571Y-98407200D02*
X175333333Y-98311961D01*
X175333333Y-98311961D02*
X175285714Y-98216723D01*
X175285714Y-98216723D02*
X175238095Y-98026247D01*
X175238095Y-98026247D02*
X175238095Y-97883390D01*
X175238095Y-97883390D02*
X175285714Y-97692914D01*
X175285714Y-97692914D02*
X175333333Y-97597676D01*
X175333333Y-97597676D02*
X175428571Y-97502438D01*
X175428571Y-97502438D02*
X175571428Y-97454819D01*
X175571428Y-97454819D02*
X175666666Y-97454819D01*
X175666666Y-97454819D02*
X175809523Y-97502438D01*
X175809523Y-97502438D02*
X175857142Y-97550057D01*
X176238095Y-97550057D02*
X176285714Y-97502438D01*
X176285714Y-97502438D02*
X176380952Y-97454819D01*
X176380952Y-97454819D02*
X176619047Y-97454819D01*
X176619047Y-97454819D02*
X176714285Y-97502438D01*
X176714285Y-97502438D02*
X176761904Y-97550057D01*
X176761904Y-97550057D02*
X176809523Y-97645295D01*
X176809523Y-97645295D02*
X176809523Y-97740533D01*
X176809523Y-97740533D02*
X176761904Y-97883390D01*
X176761904Y-97883390D02*
X176190476Y-98454819D01*
X176190476Y-98454819D02*
X176809523Y-98454819D01*
X177666666Y-97454819D02*
X177476190Y-97454819D01*
X177476190Y-97454819D02*
X177380952Y-97502438D01*
X177380952Y-97502438D02*
X177333333Y-97550057D01*
X177333333Y-97550057D02*
X177238095Y-97692914D01*
X177238095Y-97692914D02*
X177190476Y-97883390D01*
X177190476Y-97883390D02*
X177190476Y-98264342D01*
X177190476Y-98264342D02*
X177238095Y-98359580D01*
X177238095Y-98359580D02*
X177285714Y-98407200D01*
X177285714Y-98407200D02*
X177380952Y-98454819D01*
X177380952Y-98454819D02*
X177571428Y-98454819D01*
X177571428Y-98454819D02*
X177666666Y-98407200D01*
X177666666Y-98407200D02*
X177714285Y-98359580D01*
X177714285Y-98359580D02*
X177761904Y-98264342D01*
X177761904Y-98264342D02*
X177761904Y-98026247D01*
X177761904Y-98026247D02*
X177714285Y-97931009D01*
X177714285Y-97931009D02*
X177666666Y-97883390D01*
X177666666Y-97883390D02*
X177571428Y-97835771D01*
X177571428Y-97835771D02*
X177380952Y-97835771D01*
X177380952Y-97835771D02*
X177285714Y-97883390D01*
X177285714Y-97883390D02*
X177238095Y-97931009D01*
X177238095Y-97931009D02*
X177190476Y-98026247D01*
X135557142Y-110054819D02*
X135223809Y-109578628D01*
X134985714Y-110054819D02*
X134985714Y-109054819D01*
X134985714Y-109054819D02*
X135366666Y-109054819D01*
X135366666Y-109054819D02*
X135461904Y-109102438D01*
X135461904Y-109102438D02*
X135509523Y-109150057D01*
X135509523Y-109150057D02*
X135557142Y-109245295D01*
X135557142Y-109245295D02*
X135557142Y-109388152D01*
X135557142Y-109388152D02*
X135509523Y-109483390D01*
X135509523Y-109483390D02*
X135461904Y-109531009D01*
X135461904Y-109531009D02*
X135366666Y-109578628D01*
X135366666Y-109578628D02*
X134985714Y-109578628D01*
X136509523Y-110054819D02*
X135938095Y-110054819D01*
X136223809Y-110054819D02*
X136223809Y-109054819D01*
X136223809Y-109054819D02*
X136128571Y-109197676D01*
X136128571Y-109197676D02*
X136033333Y-109292914D01*
X136033333Y-109292914D02*
X135938095Y-109340533D01*
X136890476Y-109150057D02*
X136938095Y-109102438D01*
X136938095Y-109102438D02*
X137033333Y-109054819D01*
X137033333Y-109054819D02*
X137271428Y-109054819D01*
X137271428Y-109054819D02*
X137366666Y-109102438D01*
X137366666Y-109102438D02*
X137414285Y-109150057D01*
X137414285Y-109150057D02*
X137461904Y-109245295D01*
X137461904Y-109245295D02*
X137461904Y-109340533D01*
X137461904Y-109340533D02*
X137414285Y-109483390D01*
X137414285Y-109483390D02*
X136842857Y-110054819D01*
X136842857Y-110054819D02*
X137461904Y-110054819D01*
X170633333Y-115284819D02*
X170300000Y-114808628D01*
X170061905Y-115284819D02*
X170061905Y-114284819D01*
X170061905Y-114284819D02*
X170442857Y-114284819D01*
X170442857Y-114284819D02*
X170538095Y-114332438D01*
X170538095Y-114332438D02*
X170585714Y-114380057D01*
X170585714Y-114380057D02*
X170633333Y-114475295D01*
X170633333Y-114475295D02*
X170633333Y-114618152D01*
X170633333Y-114618152D02*
X170585714Y-114713390D01*
X170585714Y-114713390D02*
X170538095Y-114761009D01*
X170538095Y-114761009D02*
X170442857Y-114808628D01*
X170442857Y-114808628D02*
X170061905Y-114808628D01*
X171109524Y-115284819D02*
X171300000Y-115284819D01*
X171300000Y-115284819D02*
X171395238Y-115237200D01*
X171395238Y-115237200D02*
X171442857Y-115189580D01*
X171442857Y-115189580D02*
X171538095Y-115046723D01*
X171538095Y-115046723D02*
X171585714Y-114856247D01*
X171585714Y-114856247D02*
X171585714Y-114475295D01*
X171585714Y-114475295D02*
X171538095Y-114380057D01*
X171538095Y-114380057D02*
X171490476Y-114332438D01*
X171490476Y-114332438D02*
X171395238Y-114284819D01*
X171395238Y-114284819D02*
X171204762Y-114284819D01*
X171204762Y-114284819D02*
X171109524Y-114332438D01*
X171109524Y-114332438D02*
X171061905Y-114380057D01*
X171061905Y-114380057D02*
X171014286Y-114475295D01*
X171014286Y-114475295D02*
X171014286Y-114713390D01*
X171014286Y-114713390D02*
X171061905Y-114808628D01*
X171061905Y-114808628D02*
X171109524Y-114856247D01*
X171109524Y-114856247D02*
X171204762Y-114903866D01*
X171204762Y-114903866D02*
X171395238Y-114903866D01*
X171395238Y-114903866D02*
X171490476Y-114856247D01*
X171490476Y-114856247D02*
X171538095Y-114808628D01*
X171538095Y-114808628D02*
X171585714Y-114713390D01*
X156033333Y-92009580D02*
X155985714Y-92057200D01*
X155985714Y-92057200D02*
X155842857Y-92104819D01*
X155842857Y-92104819D02*
X155747619Y-92104819D01*
X155747619Y-92104819D02*
X155604762Y-92057200D01*
X155604762Y-92057200D02*
X155509524Y-91961961D01*
X155509524Y-91961961D02*
X155461905Y-91866723D01*
X155461905Y-91866723D02*
X155414286Y-91676247D01*
X155414286Y-91676247D02*
X155414286Y-91533390D01*
X155414286Y-91533390D02*
X155461905Y-91342914D01*
X155461905Y-91342914D02*
X155509524Y-91247676D01*
X155509524Y-91247676D02*
X155604762Y-91152438D01*
X155604762Y-91152438D02*
X155747619Y-91104819D01*
X155747619Y-91104819D02*
X155842857Y-91104819D01*
X155842857Y-91104819D02*
X155985714Y-91152438D01*
X155985714Y-91152438D02*
X156033333Y-91200057D01*
X156366667Y-91104819D02*
X157033333Y-91104819D01*
X157033333Y-91104819D02*
X156604762Y-92104819D01*
X130857142Y-87454819D02*
X130523809Y-86978628D01*
X130285714Y-87454819D02*
X130285714Y-86454819D01*
X130285714Y-86454819D02*
X130666666Y-86454819D01*
X130666666Y-86454819D02*
X130761904Y-86502438D01*
X130761904Y-86502438D02*
X130809523Y-86550057D01*
X130809523Y-86550057D02*
X130857142Y-86645295D01*
X130857142Y-86645295D02*
X130857142Y-86788152D01*
X130857142Y-86788152D02*
X130809523Y-86883390D01*
X130809523Y-86883390D02*
X130761904Y-86931009D01*
X130761904Y-86931009D02*
X130666666Y-86978628D01*
X130666666Y-86978628D02*
X130285714Y-86978628D01*
X131809523Y-87454819D02*
X131238095Y-87454819D01*
X131523809Y-87454819D02*
X131523809Y-86454819D01*
X131523809Y-86454819D02*
X131428571Y-86597676D01*
X131428571Y-86597676D02*
X131333333Y-86692914D01*
X131333333Y-86692914D02*
X131238095Y-86740533D01*
X132666666Y-86454819D02*
X132476190Y-86454819D01*
X132476190Y-86454819D02*
X132380952Y-86502438D01*
X132380952Y-86502438D02*
X132333333Y-86550057D01*
X132333333Y-86550057D02*
X132238095Y-86692914D01*
X132238095Y-86692914D02*
X132190476Y-86883390D01*
X132190476Y-86883390D02*
X132190476Y-87264342D01*
X132190476Y-87264342D02*
X132238095Y-87359580D01*
X132238095Y-87359580D02*
X132285714Y-87407200D01*
X132285714Y-87407200D02*
X132380952Y-87454819D01*
X132380952Y-87454819D02*
X132571428Y-87454819D01*
X132571428Y-87454819D02*
X132666666Y-87407200D01*
X132666666Y-87407200D02*
X132714285Y-87359580D01*
X132714285Y-87359580D02*
X132761904Y-87264342D01*
X132761904Y-87264342D02*
X132761904Y-87026247D01*
X132761904Y-87026247D02*
X132714285Y-86931009D01*
X132714285Y-86931009D02*
X132666666Y-86883390D01*
X132666666Y-86883390D02*
X132571428Y-86835771D01*
X132571428Y-86835771D02*
X132380952Y-86835771D01*
X132380952Y-86835771D02*
X132285714Y-86883390D01*
X132285714Y-86883390D02*
X132238095Y-86931009D01*
X132238095Y-86931009D02*
X132190476Y-87026247D01*
X186770595Y-86854819D02*
X187342023Y-86854819D01*
X187056309Y-87854819D02*
X187056309Y-86854819D01*
X187675357Y-87854819D02*
X187675357Y-86854819D01*
X187675357Y-86854819D02*
X188056309Y-86854819D01*
X188056309Y-86854819D02*
X188151547Y-86902438D01*
X188151547Y-86902438D02*
X188199166Y-86950057D01*
X188199166Y-86950057D02*
X188246785Y-87045295D01*
X188246785Y-87045295D02*
X188246785Y-87188152D01*
X188246785Y-87188152D02*
X188199166Y-87283390D01*
X188199166Y-87283390D02*
X188151547Y-87331009D01*
X188151547Y-87331009D02*
X188056309Y-87378628D01*
X188056309Y-87378628D02*
X187675357Y-87378628D01*
X188722976Y-87854819D02*
X188913452Y-87854819D01*
X188913452Y-87854819D02*
X189008690Y-87807200D01*
X189008690Y-87807200D02*
X189056309Y-87759580D01*
X189056309Y-87759580D02*
X189151547Y-87616723D01*
X189151547Y-87616723D02*
X189199166Y-87426247D01*
X189199166Y-87426247D02*
X189199166Y-87045295D01*
X189199166Y-87045295D02*
X189151547Y-86950057D01*
X189151547Y-86950057D02*
X189103928Y-86902438D01*
X189103928Y-86902438D02*
X189008690Y-86854819D01*
X189008690Y-86854819D02*
X188818214Y-86854819D01*
X188818214Y-86854819D02*
X188722976Y-86902438D01*
X188722976Y-86902438D02*
X188675357Y-86950057D01*
X188675357Y-86950057D02*
X188627738Y-87045295D01*
X188627738Y-87045295D02*
X188627738Y-87283390D01*
X188627738Y-87283390D02*
X188675357Y-87378628D01*
X188675357Y-87378628D02*
X188722976Y-87426247D01*
X188722976Y-87426247D02*
X188818214Y-87473866D01*
X188818214Y-87473866D02*
X189008690Y-87473866D01*
X189008690Y-87473866D02*
X189103928Y-87426247D01*
X189103928Y-87426247D02*
X189151547Y-87378628D01*
X189151547Y-87378628D02*
X189199166Y-87283390D01*
X132257142Y-96084580D02*
X132209523Y-96132200D01*
X132209523Y-96132200D02*
X132066666Y-96179819D01*
X132066666Y-96179819D02*
X131971428Y-96179819D01*
X131971428Y-96179819D02*
X131828571Y-96132200D01*
X131828571Y-96132200D02*
X131733333Y-96036961D01*
X131733333Y-96036961D02*
X131685714Y-95941723D01*
X131685714Y-95941723D02*
X131638095Y-95751247D01*
X131638095Y-95751247D02*
X131638095Y-95608390D01*
X131638095Y-95608390D02*
X131685714Y-95417914D01*
X131685714Y-95417914D02*
X131733333Y-95322676D01*
X131733333Y-95322676D02*
X131828571Y-95227438D01*
X131828571Y-95227438D02*
X131971428Y-95179819D01*
X131971428Y-95179819D02*
X132066666Y-95179819D01*
X132066666Y-95179819D02*
X132209523Y-95227438D01*
X132209523Y-95227438D02*
X132257142Y-95275057D01*
X132638095Y-95275057D02*
X132685714Y-95227438D01*
X132685714Y-95227438D02*
X132780952Y-95179819D01*
X132780952Y-95179819D02*
X133019047Y-95179819D01*
X133019047Y-95179819D02*
X133114285Y-95227438D01*
X133114285Y-95227438D02*
X133161904Y-95275057D01*
X133161904Y-95275057D02*
X133209523Y-95370295D01*
X133209523Y-95370295D02*
X133209523Y-95465533D01*
X133209523Y-95465533D02*
X133161904Y-95608390D01*
X133161904Y-95608390D02*
X132590476Y-96179819D01*
X132590476Y-96179819D02*
X133209523Y-96179819D01*
X133685714Y-96179819D02*
X133876190Y-96179819D01*
X133876190Y-96179819D02*
X133971428Y-96132200D01*
X133971428Y-96132200D02*
X134019047Y-96084580D01*
X134019047Y-96084580D02*
X134114285Y-95941723D01*
X134114285Y-95941723D02*
X134161904Y-95751247D01*
X134161904Y-95751247D02*
X134161904Y-95370295D01*
X134161904Y-95370295D02*
X134114285Y-95275057D01*
X134114285Y-95275057D02*
X134066666Y-95227438D01*
X134066666Y-95227438D02*
X133971428Y-95179819D01*
X133971428Y-95179819D02*
X133780952Y-95179819D01*
X133780952Y-95179819D02*
X133685714Y-95227438D01*
X133685714Y-95227438D02*
X133638095Y-95275057D01*
X133638095Y-95275057D02*
X133590476Y-95370295D01*
X133590476Y-95370295D02*
X133590476Y-95608390D01*
X133590476Y-95608390D02*
X133638095Y-95703628D01*
X133638095Y-95703628D02*
X133685714Y-95751247D01*
X133685714Y-95751247D02*
X133780952Y-95798866D01*
X133780952Y-95798866D02*
X133971428Y-95798866D01*
X133971428Y-95798866D02*
X134066666Y-95751247D01*
X134066666Y-95751247D02*
X134114285Y-95703628D01*
X134114285Y-95703628D02*
X134161904Y-95608390D01*
X127657142Y-93619580D02*
X127609523Y-93667200D01*
X127609523Y-93667200D02*
X127466666Y-93714819D01*
X127466666Y-93714819D02*
X127371428Y-93714819D01*
X127371428Y-93714819D02*
X127228571Y-93667200D01*
X127228571Y-93667200D02*
X127133333Y-93571961D01*
X127133333Y-93571961D02*
X127085714Y-93476723D01*
X127085714Y-93476723D02*
X127038095Y-93286247D01*
X127038095Y-93286247D02*
X127038095Y-93143390D01*
X127038095Y-93143390D02*
X127085714Y-92952914D01*
X127085714Y-92952914D02*
X127133333Y-92857676D01*
X127133333Y-92857676D02*
X127228571Y-92762438D01*
X127228571Y-92762438D02*
X127371428Y-92714819D01*
X127371428Y-92714819D02*
X127466666Y-92714819D01*
X127466666Y-92714819D02*
X127609523Y-92762438D01*
X127609523Y-92762438D02*
X127657142Y-92810057D01*
X127990476Y-92714819D02*
X128609523Y-92714819D01*
X128609523Y-92714819D02*
X128276190Y-93095771D01*
X128276190Y-93095771D02*
X128419047Y-93095771D01*
X128419047Y-93095771D02*
X128514285Y-93143390D01*
X128514285Y-93143390D02*
X128561904Y-93191009D01*
X128561904Y-93191009D02*
X128609523Y-93286247D01*
X128609523Y-93286247D02*
X128609523Y-93524342D01*
X128609523Y-93524342D02*
X128561904Y-93619580D01*
X128561904Y-93619580D02*
X128514285Y-93667200D01*
X128514285Y-93667200D02*
X128419047Y-93714819D01*
X128419047Y-93714819D02*
X128133333Y-93714819D01*
X128133333Y-93714819D02*
X128038095Y-93667200D01*
X128038095Y-93667200D02*
X127990476Y-93619580D01*
X129466666Y-93048152D02*
X129466666Y-93714819D01*
X129228571Y-92667200D02*
X128990476Y-93381485D01*
X128990476Y-93381485D02*
X129609523Y-93381485D01*
X140633333Y-87459580D02*
X140585714Y-87507200D01*
X140585714Y-87507200D02*
X140442857Y-87554819D01*
X140442857Y-87554819D02*
X140347619Y-87554819D01*
X140347619Y-87554819D02*
X140204762Y-87507200D01*
X140204762Y-87507200D02*
X140109524Y-87411961D01*
X140109524Y-87411961D02*
X140061905Y-87316723D01*
X140061905Y-87316723D02*
X140014286Y-87126247D01*
X140014286Y-87126247D02*
X140014286Y-86983390D01*
X140014286Y-86983390D02*
X140061905Y-86792914D01*
X140061905Y-86792914D02*
X140109524Y-86697676D01*
X140109524Y-86697676D02*
X140204762Y-86602438D01*
X140204762Y-86602438D02*
X140347619Y-86554819D01*
X140347619Y-86554819D02*
X140442857Y-86554819D01*
X140442857Y-86554819D02*
X140585714Y-86602438D01*
X140585714Y-86602438D02*
X140633333Y-86650057D01*
X140966667Y-86554819D02*
X141585714Y-86554819D01*
X141585714Y-86554819D02*
X141252381Y-86935771D01*
X141252381Y-86935771D02*
X141395238Y-86935771D01*
X141395238Y-86935771D02*
X141490476Y-86983390D01*
X141490476Y-86983390D02*
X141538095Y-87031009D01*
X141538095Y-87031009D02*
X141585714Y-87126247D01*
X141585714Y-87126247D02*
X141585714Y-87364342D01*
X141585714Y-87364342D02*
X141538095Y-87459580D01*
X141538095Y-87459580D02*
X141490476Y-87507200D01*
X141490476Y-87507200D02*
X141395238Y-87554819D01*
X141395238Y-87554819D02*
X141109524Y-87554819D01*
X141109524Y-87554819D02*
X141014286Y-87507200D01*
X141014286Y-87507200D02*
X140966667Y-87459580D01*
X122706666Y-110454819D02*
X122706666Y-111169104D01*
X122706666Y-111169104D02*
X122659047Y-111311961D01*
X122659047Y-111311961D02*
X122563809Y-111407200D01*
X122563809Y-111407200D02*
X122420952Y-111454819D01*
X122420952Y-111454819D02*
X122325714Y-111454819D01*
X123087619Y-110454819D02*
X123706666Y-110454819D01*
X123706666Y-110454819D02*
X123373333Y-110835771D01*
X123373333Y-110835771D02*
X123516190Y-110835771D01*
X123516190Y-110835771D02*
X123611428Y-110883390D01*
X123611428Y-110883390D02*
X123659047Y-110931009D01*
X123659047Y-110931009D02*
X123706666Y-111026247D01*
X123706666Y-111026247D02*
X123706666Y-111264342D01*
X123706666Y-111264342D02*
X123659047Y-111359580D01*
X123659047Y-111359580D02*
X123611428Y-111407200D01*
X123611428Y-111407200D02*
X123516190Y-111454819D01*
X123516190Y-111454819D02*
X123230476Y-111454819D01*
X123230476Y-111454819D02*
X123135238Y-111407200D01*
X123135238Y-111407200D02*
X123087619Y-111359580D01*
X132157142Y-110059580D02*
X132109523Y-110107200D01*
X132109523Y-110107200D02*
X131966666Y-110154819D01*
X131966666Y-110154819D02*
X131871428Y-110154819D01*
X131871428Y-110154819D02*
X131728571Y-110107200D01*
X131728571Y-110107200D02*
X131633333Y-110011961D01*
X131633333Y-110011961D02*
X131585714Y-109916723D01*
X131585714Y-109916723D02*
X131538095Y-109726247D01*
X131538095Y-109726247D02*
X131538095Y-109583390D01*
X131538095Y-109583390D02*
X131585714Y-109392914D01*
X131585714Y-109392914D02*
X131633333Y-109297676D01*
X131633333Y-109297676D02*
X131728571Y-109202438D01*
X131728571Y-109202438D02*
X131871428Y-109154819D01*
X131871428Y-109154819D02*
X131966666Y-109154819D01*
X131966666Y-109154819D02*
X132109523Y-109202438D01*
X132109523Y-109202438D02*
X132157142Y-109250057D01*
X132538095Y-109250057D02*
X132585714Y-109202438D01*
X132585714Y-109202438D02*
X132680952Y-109154819D01*
X132680952Y-109154819D02*
X132919047Y-109154819D01*
X132919047Y-109154819D02*
X133014285Y-109202438D01*
X133014285Y-109202438D02*
X133061904Y-109250057D01*
X133061904Y-109250057D02*
X133109523Y-109345295D01*
X133109523Y-109345295D02*
X133109523Y-109440533D01*
X133109523Y-109440533D02*
X133061904Y-109583390D01*
X133061904Y-109583390D02*
X132490476Y-110154819D01*
X132490476Y-110154819D02*
X133109523Y-110154819D01*
X133442857Y-109154819D02*
X134061904Y-109154819D01*
X134061904Y-109154819D02*
X133728571Y-109535771D01*
X133728571Y-109535771D02*
X133871428Y-109535771D01*
X133871428Y-109535771D02*
X133966666Y-109583390D01*
X133966666Y-109583390D02*
X134014285Y-109631009D01*
X134014285Y-109631009D02*
X134061904Y-109726247D01*
X134061904Y-109726247D02*
X134061904Y-109964342D01*
X134061904Y-109964342D02*
X134014285Y-110059580D01*
X134014285Y-110059580D02*
X133966666Y-110107200D01*
X133966666Y-110107200D02*
X133871428Y-110154819D01*
X133871428Y-110154819D02*
X133585714Y-110154819D01*
X133585714Y-110154819D02*
X133490476Y-110107200D01*
X133490476Y-110107200D02*
X133442857Y-110059580D01*
X177889580Y-117242857D02*
X177937200Y-117290476D01*
X177937200Y-117290476D02*
X177984819Y-117433333D01*
X177984819Y-117433333D02*
X177984819Y-117528571D01*
X177984819Y-117528571D02*
X177937200Y-117671428D01*
X177937200Y-117671428D02*
X177841961Y-117766666D01*
X177841961Y-117766666D02*
X177746723Y-117814285D01*
X177746723Y-117814285D02*
X177556247Y-117861904D01*
X177556247Y-117861904D02*
X177413390Y-117861904D01*
X177413390Y-117861904D02*
X177222914Y-117814285D01*
X177222914Y-117814285D02*
X177127676Y-117766666D01*
X177127676Y-117766666D02*
X177032438Y-117671428D01*
X177032438Y-117671428D02*
X176984819Y-117528571D01*
X176984819Y-117528571D02*
X176984819Y-117433333D01*
X176984819Y-117433333D02*
X177032438Y-117290476D01*
X177032438Y-117290476D02*
X177080057Y-117242857D01*
X177984819Y-116290476D02*
X177984819Y-116861904D01*
X177984819Y-116576190D02*
X176984819Y-116576190D01*
X176984819Y-116576190D02*
X177127676Y-116671428D01*
X177127676Y-116671428D02*
X177222914Y-116766666D01*
X177222914Y-116766666D02*
X177270533Y-116861904D01*
X176984819Y-115433333D02*
X176984819Y-115623809D01*
X176984819Y-115623809D02*
X177032438Y-115719047D01*
X177032438Y-115719047D02*
X177080057Y-115766666D01*
X177080057Y-115766666D02*
X177222914Y-115861904D01*
X177222914Y-115861904D02*
X177413390Y-115909523D01*
X177413390Y-115909523D02*
X177794342Y-115909523D01*
X177794342Y-115909523D02*
X177889580Y-115861904D01*
X177889580Y-115861904D02*
X177937200Y-115814285D01*
X177937200Y-115814285D02*
X177984819Y-115719047D01*
X177984819Y-115719047D02*
X177984819Y-115528571D01*
X177984819Y-115528571D02*
X177937200Y-115433333D01*
X177937200Y-115433333D02*
X177889580Y-115385714D01*
X177889580Y-115385714D02*
X177794342Y-115338095D01*
X177794342Y-115338095D02*
X177556247Y-115338095D01*
X177556247Y-115338095D02*
X177461009Y-115385714D01*
X177461009Y-115385714D02*
X177413390Y-115433333D01*
X177413390Y-115433333D02*
X177365771Y-115528571D01*
X177365771Y-115528571D02*
X177365771Y-115719047D01*
X177365771Y-115719047D02*
X177413390Y-115814285D01*
X177413390Y-115814285D02*
X177461009Y-115861904D01*
X177461009Y-115861904D02*
X177556247Y-115909523D01*
X142657142Y-109859580D02*
X142609523Y-109907200D01*
X142609523Y-109907200D02*
X142466666Y-109954819D01*
X142466666Y-109954819D02*
X142371428Y-109954819D01*
X142371428Y-109954819D02*
X142228571Y-109907200D01*
X142228571Y-109907200D02*
X142133333Y-109811961D01*
X142133333Y-109811961D02*
X142085714Y-109716723D01*
X142085714Y-109716723D02*
X142038095Y-109526247D01*
X142038095Y-109526247D02*
X142038095Y-109383390D01*
X142038095Y-109383390D02*
X142085714Y-109192914D01*
X142085714Y-109192914D02*
X142133333Y-109097676D01*
X142133333Y-109097676D02*
X142228571Y-109002438D01*
X142228571Y-109002438D02*
X142371428Y-108954819D01*
X142371428Y-108954819D02*
X142466666Y-108954819D01*
X142466666Y-108954819D02*
X142609523Y-109002438D01*
X142609523Y-109002438D02*
X142657142Y-109050057D01*
X143038095Y-109050057D02*
X143085714Y-109002438D01*
X143085714Y-109002438D02*
X143180952Y-108954819D01*
X143180952Y-108954819D02*
X143419047Y-108954819D01*
X143419047Y-108954819D02*
X143514285Y-109002438D01*
X143514285Y-109002438D02*
X143561904Y-109050057D01*
X143561904Y-109050057D02*
X143609523Y-109145295D01*
X143609523Y-109145295D02*
X143609523Y-109240533D01*
X143609523Y-109240533D02*
X143561904Y-109383390D01*
X143561904Y-109383390D02*
X142990476Y-109954819D01*
X142990476Y-109954819D02*
X143609523Y-109954819D01*
X144514285Y-108954819D02*
X144038095Y-108954819D01*
X144038095Y-108954819D02*
X143990476Y-109431009D01*
X143990476Y-109431009D02*
X144038095Y-109383390D01*
X144038095Y-109383390D02*
X144133333Y-109335771D01*
X144133333Y-109335771D02*
X144371428Y-109335771D01*
X144371428Y-109335771D02*
X144466666Y-109383390D01*
X144466666Y-109383390D02*
X144514285Y-109431009D01*
X144514285Y-109431009D02*
X144561904Y-109526247D01*
X144561904Y-109526247D02*
X144561904Y-109764342D01*
X144561904Y-109764342D02*
X144514285Y-109859580D01*
X144514285Y-109859580D02*
X144466666Y-109907200D01*
X144466666Y-109907200D02*
X144371428Y-109954819D01*
X144371428Y-109954819D02*
X144133333Y-109954819D01*
X144133333Y-109954819D02*
X144038095Y-109907200D01*
X144038095Y-109907200D02*
X143990476Y-109859580D01*
X165338095Y-119704819D02*
X165909523Y-119704819D01*
X165623809Y-120704819D02*
X165623809Y-119704819D01*
X166242857Y-120704819D02*
X166242857Y-119704819D01*
X166242857Y-119704819D02*
X166623809Y-119704819D01*
X166623809Y-119704819D02*
X166719047Y-119752438D01*
X166719047Y-119752438D02*
X166766666Y-119800057D01*
X166766666Y-119800057D02*
X166814285Y-119895295D01*
X166814285Y-119895295D02*
X166814285Y-120038152D01*
X166814285Y-120038152D02*
X166766666Y-120133390D01*
X166766666Y-120133390D02*
X166719047Y-120181009D01*
X166719047Y-120181009D02*
X166623809Y-120228628D01*
X166623809Y-120228628D02*
X166242857Y-120228628D01*
X167147619Y-119704819D02*
X167766666Y-119704819D01*
X167766666Y-119704819D02*
X167433333Y-120085771D01*
X167433333Y-120085771D02*
X167576190Y-120085771D01*
X167576190Y-120085771D02*
X167671428Y-120133390D01*
X167671428Y-120133390D02*
X167719047Y-120181009D01*
X167719047Y-120181009D02*
X167766666Y-120276247D01*
X167766666Y-120276247D02*
X167766666Y-120514342D01*
X167766666Y-120514342D02*
X167719047Y-120609580D01*
X167719047Y-120609580D02*
X167671428Y-120657200D01*
X167671428Y-120657200D02*
X167576190Y-120704819D01*
X167576190Y-120704819D02*
X167290476Y-120704819D01*
X167290476Y-120704819D02*
X167195238Y-120657200D01*
X167195238Y-120657200D02*
X167147619Y-120609580D01*
X150933333Y-93659580D02*
X150885714Y-93707200D01*
X150885714Y-93707200D02*
X150742857Y-93754819D01*
X150742857Y-93754819D02*
X150647619Y-93754819D01*
X150647619Y-93754819D02*
X150504762Y-93707200D01*
X150504762Y-93707200D02*
X150409524Y-93611961D01*
X150409524Y-93611961D02*
X150361905Y-93516723D01*
X150361905Y-93516723D02*
X150314286Y-93326247D01*
X150314286Y-93326247D02*
X150314286Y-93183390D01*
X150314286Y-93183390D02*
X150361905Y-92992914D01*
X150361905Y-92992914D02*
X150409524Y-92897676D01*
X150409524Y-92897676D02*
X150504762Y-92802438D01*
X150504762Y-92802438D02*
X150647619Y-92754819D01*
X150647619Y-92754819D02*
X150742857Y-92754819D01*
X150742857Y-92754819D02*
X150885714Y-92802438D01*
X150885714Y-92802438D02*
X150933333Y-92850057D01*
X151790476Y-92754819D02*
X151600000Y-92754819D01*
X151600000Y-92754819D02*
X151504762Y-92802438D01*
X151504762Y-92802438D02*
X151457143Y-92850057D01*
X151457143Y-92850057D02*
X151361905Y-92992914D01*
X151361905Y-92992914D02*
X151314286Y-93183390D01*
X151314286Y-93183390D02*
X151314286Y-93564342D01*
X151314286Y-93564342D02*
X151361905Y-93659580D01*
X151361905Y-93659580D02*
X151409524Y-93707200D01*
X151409524Y-93707200D02*
X151504762Y-93754819D01*
X151504762Y-93754819D02*
X151695238Y-93754819D01*
X151695238Y-93754819D02*
X151790476Y-93707200D01*
X151790476Y-93707200D02*
X151838095Y-93659580D01*
X151838095Y-93659580D02*
X151885714Y-93564342D01*
X151885714Y-93564342D02*
X151885714Y-93326247D01*
X151885714Y-93326247D02*
X151838095Y-93231009D01*
X151838095Y-93231009D02*
X151790476Y-93183390D01*
X151790476Y-93183390D02*
X151695238Y-93135771D01*
X151695238Y-93135771D02*
X151504762Y-93135771D01*
X151504762Y-93135771D02*
X151409524Y-93183390D01*
X151409524Y-93183390D02*
X151361905Y-93231009D01*
X151361905Y-93231009D02*
X151314286Y-93326247D01*
X146757142Y-119054819D02*
X146423809Y-118578628D01*
X146185714Y-119054819D02*
X146185714Y-118054819D01*
X146185714Y-118054819D02*
X146566666Y-118054819D01*
X146566666Y-118054819D02*
X146661904Y-118102438D01*
X146661904Y-118102438D02*
X146709523Y-118150057D01*
X146709523Y-118150057D02*
X146757142Y-118245295D01*
X146757142Y-118245295D02*
X146757142Y-118388152D01*
X146757142Y-118388152D02*
X146709523Y-118483390D01*
X146709523Y-118483390D02*
X146661904Y-118531009D01*
X146661904Y-118531009D02*
X146566666Y-118578628D01*
X146566666Y-118578628D02*
X146185714Y-118578628D01*
X147709523Y-119054819D02*
X147138095Y-119054819D01*
X147423809Y-119054819D02*
X147423809Y-118054819D01*
X147423809Y-118054819D02*
X147328571Y-118197676D01*
X147328571Y-118197676D02*
X147233333Y-118292914D01*
X147233333Y-118292914D02*
X147138095Y-118340533D01*
X148042857Y-118054819D02*
X148661904Y-118054819D01*
X148661904Y-118054819D02*
X148328571Y-118435771D01*
X148328571Y-118435771D02*
X148471428Y-118435771D01*
X148471428Y-118435771D02*
X148566666Y-118483390D01*
X148566666Y-118483390D02*
X148614285Y-118531009D01*
X148614285Y-118531009D02*
X148661904Y-118626247D01*
X148661904Y-118626247D02*
X148661904Y-118864342D01*
X148661904Y-118864342D02*
X148614285Y-118959580D01*
X148614285Y-118959580D02*
X148566666Y-119007200D01*
X148566666Y-119007200D02*
X148471428Y-119054819D01*
X148471428Y-119054819D02*
X148185714Y-119054819D01*
X148185714Y-119054819D02*
X148090476Y-119007200D01*
X148090476Y-119007200D02*
X148042857Y-118959580D01*
X173838095Y-119754819D02*
X174409523Y-119754819D01*
X174123809Y-120754819D02*
X174123809Y-119754819D01*
X174742857Y-120754819D02*
X174742857Y-119754819D01*
X174742857Y-119754819D02*
X175123809Y-119754819D01*
X175123809Y-119754819D02*
X175219047Y-119802438D01*
X175219047Y-119802438D02*
X175266666Y-119850057D01*
X175266666Y-119850057D02*
X175314285Y-119945295D01*
X175314285Y-119945295D02*
X175314285Y-120088152D01*
X175314285Y-120088152D02*
X175266666Y-120183390D01*
X175266666Y-120183390D02*
X175219047Y-120231009D01*
X175219047Y-120231009D02*
X175123809Y-120278628D01*
X175123809Y-120278628D02*
X174742857Y-120278628D01*
X175695238Y-119850057D02*
X175742857Y-119802438D01*
X175742857Y-119802438D02*
X175838095Y-119754819D01*
X175838095Y-119754819D02*
X176076190Y-119754819D01*
X176076190Y-119754819D02*
X176171428Y-119802438D01*
X176171428Y-119802438D02*
X176219047Y-119850057D01*
X176219047Y-119850057D02*
X176266666Y-119945295D01*
X176266666Y-119945295D02*
X176266666Y-120040533D01*
X176266666Y-120040533D02*
X176219047Y-120183390D01*
X176219047Y-120183390D02*
X175647619Y-120754819D01*
X175647619Y-120754819D02*
X176266666Y-120754819D01*
D14*
%TO.C,C20*%
X143559420Y-94490000D02*
X143840580Y-94490000D01*
X143559420Y-95510000D02*
X143840580Y-95510000D01*
%TO.C,C28*%
X118992164Y-117640000D02*
X119207836Y-117640000D01*
X118992164Y-118360000D02*
X119207836Y-118360000D01*
%TO.C,J5*%
X180257500Y-89880000D02*
X188797500Y-89880000D01*
X180257500Y-92200000D02*
X180257500Y-89880000D01*
X180257500Y-100120000D02*
X180257500Y-92800000D01*
X180877500Y-89880000D02*
X180877500Y-100120000D01*
X182377500Y-89880000D02*
X182377500Y-100120000D01*
X186677500Y-89880000D02*
X186677500Y-100120000D01*
X187677500Y-91500000D02*
X188677500Y-91500000D01*
X187677500Y-93500000D02*
X187677500Y-91500000D01*
X187677500Y-96500000D02*
X188677500Y-96500000D01*
X187677500Y-98500000D02*
X187677500Y-96500000D01*
X188677500Y-91500000D02*
X188677500Y-93500000D01*
X188677500Y-93500000D02*
X187677500Y-93500000D01*
X188677500Y-96500000D02*
X188677500Y-98500000D01*
X188677500Y-98500000D02*
X187677500Y-98500000D01*
X188797500Y-89880000D02*
X188797500Y-100120000D01*
X188797500Y-100120000D02*
X180257500Y-100120000D01*
X180257500Y-92500000D02*
X179647500Y-92940000D01*
X179647500Y-92060000D01*
X180257500Y-92500000D01*
G36*
X180257500Y-92500000D02*
G01*
X179647500Y-92940000D01*
X179647500Y-92060000D01*
X180257500Y-92500000D01*
G37*
%TO.C,C30*%
X134490000Y-93536252D02*
X134490000Y-92113748D01*
X136310000Y-93536252D02*
X136310000Y-92113748D01*
%TO.C,C1*%
X139092164Y-90840000D02*
X139307836Y-90840000D01*
X139092164Y-91560000D02*
X139307836Y-91560000D01*
%TO.C,J8*%
X141780000Y-112220000D02*
X141780000Y-114980000D01*
X144430000Y-112220000D02*
X141780000Y-112220000D01*
X144430000Y-112220000D02*
X144430000Y-114980000D01*
X144430000Y-114980000D02*
X141780000Y-114980000D01*
X145700000Y-112220000D02*
X147080000Y-112220000D01*
X147080000Y-112220000D02*
X147080000Y-113600000D01*
%TO.C,C24*%
X139092164Y-89340000D02*
X139307836Y-89340000D01*
X139092164Y-90060000D02*
X139307836Y-90060000D01*
%TO.C,L1*%
X141640000Y-77990000D02*
X149560000Y-77990000D01*
X141640000Y-86210000D02*
X141640000Y-77990000D01*
X149560000Y-77990000D02*
X149560000Y-86210000D01*
X149560000Y-86210000D02*
X141640000Y-86210000D01*
%TO.C,TP1*%
X138100000Y-84200000D02*
X140500000Y-84200000D01*
X140500000Y-80000000D01*
X138100000Y-80000000D01*
X138100000Y-84200000D01*
%TO.C,C2*%
X139092164Y-88340000D02*
X139307836Y-88340000D01*
X139092164Y-89060000D02*
X139307836Y-89060000D01*
%TO.C,C4*%
X148240580Y-86690000D02*
X147959420Y-86690000D01*
X148240580Y-87710000D02*
X147959420Y-87710000D01*
%TO.C,C32*%
X123488748Y-83390000D02*
X124911252Y-83390000D01*
X123488748Y-85210000D02*
X124911252Y-85210000D01*
%TO.C,TP4*%
X150600000Y-84000000D02*
X153000000Y-84000000D01*
X153000000Y-79800000D01*
X150600000Y-79800000D01*
X150600000Y-84000000D01*
%TO.C,C10*%
X148911252Y-98390000D02*
X147488748Y-98390000D01*
X148911252Y-100210000D02*
X147488748Y-100210000D01*
%TO.C,C18*%
X142188748Y-98290000D02*
X143611252Y-98290000D01*
X142188748Y-100110000D02*
X143611252Y-100110000D01*
%TO.C,C9*%
X151090000Y-111854437D02*
X151090000Y-117610000D01*
X151090000Y-117610000D02*
X153440000Y-117610000D01*
X152154437Y-110790000D02*
X151090000Y-111854437D01*
X152154437Y-110790000D02*
X153440000Y-110790000D01*
X156347500Y-109762500D02*
X156347500Y-110550000D01*
X156741250Y-110156250D02*
X155953750Y-110156250D01*
X156845563Y-110790000D02*
X155560000Y-110790000D01*
X156845563Y-110790000D02*
X157910000Y-111854437D01*
X157910000Y-111854437D02*
X157910000Y-117610000D01*
X157910000Y-117610000D02*
X155560000Y-117610000D01*
%TO.C,C15*%
X146607836Y-93340000D02*
X146392164Y-93340000D01*
X146607836Y-94060000D02*
X146392164Y-94060000D01*
D15*
%TO.C,U2*%
X130059400Y-90971200D02*
G75*
G02*
X129856200Y-90971200I-101600J0D01*
G01*
X129856200Y-90971200D02*
G75*
G02*
X130059400Y-90971200I101600J0D01*
G01*
D14*
%TO.C,R5*%
X152336694Y-89270616D02*
X152643976Y-89270616D01*
X152336694Y-90030616D02*
X152643976Y-90030616D01*
%TO.C,J1*%
X108180000Y-95180000D02*
X116720000Y-95180000D01*
X108180000Y-97500000D02*
X108180000Y-95180000D01*
X108180000Y-105420000D02*
X108180000Y-98100000D01*
X108800000Y-95180000D02*
X108800000Y-105420000D01*
X110300000Y-95180000D02*
X110300000Y-105420000D01*
X114600000Y-95180000D02*
X114600000Y-105420000D01*
X115600000Y-96800000D02*
X116600000Y-96800000D01*
X115600000Y-98800000D02*
X115600000Y-96800000D01*
X115600000Y-101800000D02*
X116600000Y-101800000D01*
X115600000Y-103800000D02*
X115600000Y-101800000D01*
X116600000Y-96800000D02*
X116600000Y-98800000D01*
X116600000Y-98800000D02*
X115600000Y-98800000D01*
X116600000Y-101800000D02*
X116600000Y-103800000D01*
X116600000Y-103800000D02*
X115600000Y-103800000D01*
X116720000Y-95180000D02*
X116720000Y-105420000D01*
X116720000Y-105420000D02*
X108180000Y-105420000D01*
X108180000Y-97800000D02*
X107570000Y-98240000D01*
X107570000Y-97360000D01*
X108180000Y-97800000D01*
G36*
X108180000Y-97800000D02*
G01*
X107570000Y-98240000D01*
X107570000Y-97360000D01*
X108180000Y-97800000D01*
G37*
%TO.C,R11*%
X117593641Y-108520000D02*
X117286359Y-108520000D01*
X117593641Y-109280000D02*
X117286359Y-109280000D01*
%TO.C,C27*%
X173090000Y-94013748D02*
X173090000Y-95436252D01*
X174910000Y-94013748D02*
X174910000Y-95436252D01*
%TO.C,R7*%
X152643976Y-90270616D02*
X152336694Y-90270616D01*
X152643976Y-91030616D02*
X152336694Y-91030616D01*
%TO.C,TP11*%
X156200000Y-121300000D02*
X160400000Y-121300000D01*
X160400000Y-123700000D01*
X156200000Y-123700000D01*
X156200000Y-121300000D01*
%TO.C,J2*%
X131380000Y-112220000D02*
X131380000Y-114980000D01*
X134030000Y-112220000D02*
X131380000Y-112220000D01*
X134030000Y-112220000D02*
X134030000Y-114980000D01*
X134030000Y-114980000D02*
X131380000Y-114980000D01*
X135300000Y-112220000D02*
X136680000Y-112220000D01*
X136680000Y-112220000D02*
X136680000Y-113600000D01*
%TO.C,R4*%
X139353641Y-91820000D02*
X139046359Y-91820000D01*
X139353641Y-92580000D02*
X139046359Y-92580000D01*
%TO.C,C11*%
X148911252Y-100790000D02*
X147488748Y-100790000D01*
X148911252Y-102610000D02*
X147488748Y-102610000D01*
%TO.C,C5*%
X151059420Y-87890000D02*
X151340580Y-87890000D01*
X151059420Y-88910000D02*
X151340580Y-88910000D01*
%TO.C,R17*%
X122743641Y-117520000D02*
X122436359Y-117520000D01*
X122743641Y-118280000D02*
X122436359Y-118280000D01*
%TO.C,R8*%
X154553641Y-94320000D02*
X154246359Y-94320000D01*
X154553641Y-95080000D02*
X154246359Y-95080000D01*
%TO.C,C17*%
X128240000Y-98046937D02*
X128240000Y-105502500D01*
X128240000Y-105502500D02*
X130990000Y-105502500D01*
X129304437Y-96982500D02*
X128240000Y-98046937D01*
X129304437Y-96982500D02*
X130990000Y-96982500D01*
X135010000Y-95742500D02*
X135010000Y-96742500D01*
X135510000Y-96242500D02*
X134510000Y-96242500D01*
X135695563Y-96982500D02*
X134010000Y-96982500D01*
X135695563Y-96982500D02*
X136760000Y-98046937D01*
X136760000Y-98046937D02*
X136760000Y-105502500D01*
X136760000Y-105502500D02*
X134010000Y-105502500D01*
%TO.C,TP8*%
X110300000Y-107200000D02*
X114500000Y-107200000D01*
X114500000Y-109600000D01*
X110300000Y-109600000D01*
X110300000Y-107200000D01*
%TO.C,C35*%
X123259420Y-85890000D02*
X123540580Y-85890000D01*
X123259420Y-86910000D02*
X123540580Y-86910000D01*
%TO.C,R21*%
X133246359Y-117920000D02*
X133553641Y-117920000D01*
X133246359Y-118680000D02*
X133553641Y-118680000D01*
%TO.C,R14*%
X142543641Y-118220000D02*
X142236359Y-118220000D01*
X142543641Y-118980000D02*
X142236359Y-118980000D01*
%TO.C,C12*%
X148911252Y-95990000D02*
X147488748Y-95990000D01*
X148911252Y-97810000D02*
X147488748Y-97810000D01*
%TO.C,R3*%
X154543976Y-92270616D02*
X154236694Y-92270616D01*
X154543976Y-93030616D02*
X154236694Y-93030616D01*
%TO.C,J4*%
X180257500Y-110780000D02*
X188797500Y-110780000D01*
X180257500Y-113100000D02*
X180257500Y-110780000D01*
X180257500Y-121020000D02*
X180257500Y-113700000D01*
X180877500Y-110780000D02*
X180877500Y-121020000D01*
X182377500Y-110780000D02*
X182377500Y-121020000D01*
X186677500Y-110780000D02*
X186677500Y-121020000D01*
X187677500Y-112400000D02*
X188677500Y-112400000D01*
X187677500Y-114400000D02*
X187677500Y-112400000D01*
X187677500Y-117400000D02*
X188677500Y-117400000D01*
X187677500Y-119400000D02*
X187677500Y-117400000D01*
X188677500Y-112400000D02*
X188677500Y-114400000D01*
X188677500Y-114400000D02*
X187677500Y-114400000D01*
X188677500Y-117400000D02*
X188677500Y-119400000D01*
X188677500Y-119400000D02*
X187677500Y-119400000D01*
X188797500Y-110780000D02*
X188797500Y-121020000D01*
X188797500Y-121020000D02*
X180257500Y-121020000D01*
X180257500Y-113400000D02*
X179647500Y-113840000D01*
X179647500Y-112960000D01*
X180257500Y-113400000D01*
G36*
X180257500Y-113400000D02*
G01*
X179647500Y-113840000D01*
X179647500Y-112960000D01*
X180257500Y-113400000D01*
G37*
%TO.C,J7*%
X140505000Y-119920000D02*
X140505000Y-122680000D01*
X145695000Y-119920000D02*
X140505000Y-119920000D01*
X145695000Y-119920000D02*
X145695000Y-122680000D01*
X145695000Y-122680000D02*
X140505000Y-122680000D01*
X146965000Y-119920000D02*
X148345000Y-119920000D01*
X148345000Y-119920000D02*
X148345000Y-121300000D01*
%TO.C,R1*%
X172253641Y-107310000D02*
X171946359Y-107310000D01*
X172253641Y-108070000D02*
X171946359Y-108070000D01*
%TO.C,R6*%
X154553641Y-93320000D02*
X154246359Y-93320000D01*
X154553641Y-94080000D02*
X154246359Y-94080000D01*
%TO.C,TP7*%
X110100000Y-91000000D02*
X114300000Y-91000000D01*
X114300000Y-93400000D01*
X110100000Y-93400000D01*
X110100000Y-91000000D01*
%TO.C,C13*%
X147540580Y-94490000D02*
X147259420Y-94490000D01*
X147540580Y-95510000D02*
X147259420Y-95510000D01*
%TO.C,C8*%
X154282499Y-90290616D02*
X154498171Y-90290616D01*
X154282499Y-91010616D02*
X154498171Y-91010616D01*
%TO.C,J9*%
X115580000Y-119920000D02*
X115580000Y-122680000D01*
X120770000Y-119920000D02*
X115580000Y-119920000D01*
X120770000Y-119920000D02*
X120770000Y-122680000D01*
X120770000Y-122680000D02*
X115580000Y-122680000D01*
X122040000Y-119920000D02*
X123420000Y-119920000D01*
X123420000Y-119920000D02*
X123420000Y-121300000D01*
%TO.C,R10*%
X122493641Y-108520000D02*
X122186359Y-108520000D01*
X122493641Y-109280000D02*
X122186359Y-109280000D01*
%TO.C,R22*%
X121946359Y-87420000D02*
X122253641Y-87420000D01*
X121946359Y-88180000D02*
X122253641Y-88180000D01*
%TO.C,C22*%
X144492164Y-93340000D02*
X144707836Y-93340000D01*
X144492164Y-94060000D02*
X144707836Y-94060000D01*
%TO.C,C31*%
X135592164Y-117940000D02*
X135807836Y-117940000D01*
X135592164Y-118660000D02*
X135807836Y-118660000D01*
%TO.C,C33*%
X118440000Y-98004437D02*
X118440000Y-105460000D01*
X118440000Y-105460000D02*
X121190000Y-105460000D01*
X119504437Y-96940000D02*
X118440000Y-98004437D01*
X119504437Y-96940000D02*
X121190000Y-96940000D01*
X125210000Y-95700000D02*
X125210000Y-96700000D01*
X125710000Y-96200000D02*
X124710000Y-96200000D01*
X125895563Y-96940000D02*
X124210000Y-96940000D01*
X125895563Y-96940000D02*
X126960000Y-98004437D01*
X126960000Y-98004437D02*
X126960000Y-105460000D01*
X126960000Y-105460000D02*
X124210000Y-105460000D01*
D15*
%TO.C,U1*%
X142870300Y-88772364D02*
X142870300Y-89238835D01*
X142870300Y-91658693D02*
X142870300Y-92125164D01*
X142870300Y-92125164D02*
X143089756Y-92125164D01*
X143089756Y-88772364D02*
X142870300Y-88772364D01*
X148010244Y-92125164D02*
X148229700Y-92125164D01*
X148229700Y-88772364D02*
X148010244Y-88772364D01*
X148229700Y-89238835D02*
X148229700Y-88772364D01*
X148229700Y-92125164D02*
X148229700Y-91658693D01*
D14*
%TO.C,C19*%
X142188748Y-95990000D02*
X143611252Y-95990000D01*
X142188748Y-97810000D02*
X143611252Y-97810000D01*
%TO.C,J10*%
X131380000Y-119920000D02*
X131380000Y-122680000D01*
X134030000Y-119920000D02*
X131380000Y-119920000D01*
X134030000Y-119920000D02*
X134030000Y-122680000D01*
X134030000Y-122680000D02*
X131380000Y-122680000D01*
X135300000Y-119920000D02*
X136680000Y-119920000D01*
X136680000Y-119920000D02*
X136680000Y-121300000D01*
%TO.C,R15*%
X146046359Y-110220000D02*
X146353641Y-110220000D01*
X146046359Y-110980000D02*
X146353641Y-110980000D01*
%TO.C,R2*%
X151610335Y-92204257D02*
X151610335Y-91896975D01*
X152370335Y-92204257D02*
X152370335Y-91896975D01*
%TO.C,R18*%
X122451359Y-118520000D02*
X122758641Y-118520000D01*
X122451359Y-119280000D02*
X122758641Y-119280000D01*
%TO.C,C26*%
X175490000Y-94013748D02*
X175490000Y-95436252D01*
X177310000Y-94013748D02*
X177310000Y-95436252D01*
%TO.C,R12*%
X135646359Y-110420000D02*
X135953641Y-110420000D01*
X135646359Y-111180000D02*
X135953641Y-111180000D01*
%TO.C,R9*%
X171527064Y-112090000D02*
X170072936Y-112090000D01*
X171527064Y-113910000D02*
X170072936Y-113910000D01*
%TO.C,C7*%
X154282499Y-91290616D02*
X154498171Y-91290616D01*
X154282499Y-92010616D02*
X154498171Y-92010616D01*
%TO.C,R16*%
X131653641Y-87820000D02*
X131346359Y-87820000D01*
X131653641Y-88580000D02*
X131346359Y-88580000D01*
%TO.C,TP9*%
X182432500Y-84900000D02*
X186632500Y-84900000D01*
X186632500Y-87300000D01*
X182432500Y-87300000D01*
X182432500Y-84900000D01*
%TO.C,C29*%
X132090000Y-93561252D02*
X132090000Y-92138748D01*
X133910000Y-93561252D02*
X133910000Y-92138748D01*
%TO.C,C34*%
X128407836Y-91740000D02*
X128192164Y-91740000D01*
X128407836Y-92460000D02*
X128192164Y-92460000D01*
%TO.C,C3*%
X143059420Y-86690000D02*
X143340580Y-86690000D01*
X143059420Y-87710000D02*
X143340580Y-87710000D01*
%TO.C,J3*%
X115580000Y-112020000D02*
X115580000Y-114780000D01*
X120770000Y-112020000D02*
X115580000Y-112020000D01*
X120770000Y-112020000D02*
X120770000Y-114780000D01*
X120770000Y-114780000D02*
X115580000Y-114780000D01*
X122040000Y-112020000D02*
X123420000Y-112020000D01*
X123420000Y-112020000D02*
X123420000Y-113400000D01*
%TO.C,C23*%
X133092164Y-110440000D02*
X133307836Y-110440000D01*
X133092164Y-111160000D02*
X133307836Y-111160000D01*
%TO.C,C16*%
X175590000Y-116459420D02*
X175590000Y-116740580D01*
X176610000Y-116459420D02*
X176610000Y-116740580D01*
%TO.C,C25*%
X143492164Y-110240000D02*
X143707836Y-110240000D01*
X143492164Y-110960000D02*
X143707836Y-110960000D01*
%TO.C,TP3*%
X164500000Y-121300000D02*
X168700000Y-121300000D01*
X168700000Y-123700000D01*
X164500000Y-123700000D01*
X164500000Y-121300000D01*
%TO.C,C6*%
X149311732Y-92787860D02*
X149311732Y-92572188D01*
X150031732Y-92787860D02*
X150031732Y-92572188D01*
%TO.C,R13*%
X145053641Y-118220000D02*
X144746359Y-118220000D01*
X145053641Y-118980000D02*
X144746359Y-118980000D01*
%TO.C,TP2*%
X172900000Y-121300000D02*
X177100000Y-121300000D01*
X177100000Y-123700000D01*
X172900000Y-123700000D01*
X172900000Y-121300000D01*
%TD*%
M02*
