%TF.GenerationSoftware,KiCad,Pcbnew,9.0.4*%
%TF.CreationDate,2025-11-02T19:47:45-03:00*%
%TF.ProjectId,PowerPCB,506f7765-7250-4434-922e-6b696361645f,rev?*%
%TF.SameCoordinates,Original*%
%TF.FileFunction,Copper,L2,Inr*%
%TF.FilePolarity,Positive*%
%FSLAX46Y46*%
G04 Gerber Fmt 4.6, Leading zero omitted, Abs format (unit mm)*
G04 Created by KiCad (PCBNEW 9.0.4) date 2025-11-02 19:47:45*
%MOMM*%
%LPD*%
G01*
G04 APERTURE LIST*
G04 Aperture macros list*
%AMRoundRect*
0 Rectangle with rounded corners*
0 $1 Rounding radius*
0 $2 $3 $4 $5 $6 $7 $8 $9 X,Y pos of 4 corners*
0 Add a 4 corners polygon primitive as box body*
4,1,4,$2,$3,$4,$5,$6,$7,$8,$9,$2,$3,0*
0 Add four circle primitives for the rounded corners*
1,1,$1+$1,$2,$3*
1,1,$1+$1,$4,$5*
1,1,$1+$1,$6,$7*
1,1,$1+$1,$8,$9*
0 Add four rect primitives between the rounded corners*
20,1,$1+$1,$2,$3,$4,$5,0*
20,1,$1+$1,$4,$5,$6,$7,0*
20,1,$1+$1,$6,$7,$8,$9,0*
20,1,$1+$1,$8,$9,$2,$3,0*%
G04 Aperture macros list end*
%TA.AperFunction,ComponentPad*%
%ADD10RoundRect,0.250000X-1.050000X1.050000X-1.050000X-1.050000X1.050000X-1.050000X1.050000X1.050000X0*%
%TD*%
%TA.AperFunction,ComponentPad*%
%ADD11C,2.600000*%
%TD*%
%TA.AperFunction,ComponentPad*%
%ADD12R,1.700000X1.700000*%
%TD*%
%TA.AperFunction,ComponentPad*%
%ADD13C,1.700000*%
%TD*%
%TA.AperFunction,ViaPad*%
%ADD14C,0.600000*%
%TD*%
%TA.AperFunction,Conductor*%
%ADD15C,0.200000*%
%TD*%
G04 APERTURE END LIST*
D10*
%TO.N,V_OUT_5+*%
%TO.C,J5*%
X184377500Y-92500000D03*
D11*
%TO.N,GND*%
X184377500Y-97500000D03*
%TD*%
D12*
%TO.N,\u002ACC_12*%
%TO.C,J8*%
X145700000Y-113600000D03*
D13*
%TO.N,GND*%
X143160000Y-113600000D03*
%TD*%
D10*
%TO.N,V_BAT+*%
%TO.C,J1*%
X112300000Y-97800000D03*
D11*
%TO.N,GND*%
X112300000Y-102800000D03*
%TD*%
D12*
%TO.N,PG_12*%
%TO.C,J2*%
X135300000Y-113600000D03*
D13*
%TO.N,GND*%
X132760000Y-113600000D03*
%TD*%
D10*
%TO.N,V_OUT_12+*%
%TO.C,J4*%
X184377500Y-113400000D03*
D11*
%TO.N,GND*%
X184377500Y-118400000D03*
%TD*%
D12*
%TO.N,VBUS*%
%TO.C,J7*%
X146965000Y-121300000D03*
D13*
%TO.N,SCL*%
X144425000Y-121300000D03*
%TO.N,SDA*%
X141885000Y-121300000D03*
%TD*%
D12*
%TO.N,Net-(J9-Pin_1)*%
%TO.C,J9*%
X122040000Y-121300000D03*
D13*
%TO.N,EN_5*%
X119500000Y-121300000D03*
%TO.N,GND*%
X116960000Y-121300000D03*
%TD*%
D12*
%TO.N,PG_5*%
%TO.C,J10*%
X135300000Y-121300000D03*
D13*
%TO.N,GND*%
X132760000Y-121300000D03*
%TD*%
D12*
%TO.N,Net-(J3-Pin_1)*%
%TO.C,J3*%
X122040000Y-113400000D03*
D13*
%TO.N,EN_12*%
X119500000Y-113400000D03*
%TO.N,GND*%
X116960000Y-113400000D03*
%TD*%
D14*
%TO.N,PG_12*%
X140900000Y-90000000D03*
%TO.N,VCC_12*%
X149200000Y-88500000D03*
%TO.N,GND*%
X127300000Y-89100000D03*
%TO.N,V_BAT+*%
X144100000Y-90400000D03*
X144100000Y-91000000D03*
X144100000Y-89800000D03*
%TO.N,V_OUT_12+*%
X147000000Y-90443543D03*
X147000000Y-91100000D03*
X147000000Y-89800000D03*
%TO.N,V_BAT+*%
X128660000Y-96540000D03*
X126120000Y-96540000D03*
X118500000Y-96540000D03*
X131200000Y-94000000D03*
X128660000Y-94000000D03*
X126120000Y-94000000D03*
X123580000Y-94000000D03*
X121040000Y-94000000D03*
X118500000Y-94000000D03*
%TO.N,GND*%
X137500000Y-79460000D03*
X137500000Y-82000000D03*
X134960000Y-82000000D03*
X137500000Y-87060000D03*
X134960000Y-87060000D03*
X132420000Y-84520000D03*
X137500000Y-89600000D03*
X134960000Y-84520000D03*
X134960000Y-89600000D03*
X137500000Y-84520000D03*
X132420000Y-89600000D03*
X132420000Y-87060000D03*
%TO.N,V_BAT+*%
X110260000Y-89600000D03*
X112800000Y-81980000D03*
X112800000Y-84520000D03*
X112800000Y-87060000D03*
X110260000Y-87060000D03*
X112800000Y-89600000D03*
X110260000Y-84520000D03*
X110260000Y-81980000D03*
X112800000Y-79440000D03*
%TO.N,GND*%
X120360000Y-72460000D03*
X122900000Y-72460000D03*
X120360000Y-75000000D03*
X122900000Y-75000000D03*
X115360000Y-72460000D03*
X117900000Y-72460000D03*
X112820000Y-72460000D03*
X110280000Y-72460000D03*
X115360000Y-75000000D03*
X110280000Y-75000000D03*
X117900000Y-75000000D03*
X112820000Y-75000000D03*
%TO.N,V_OUT_5+*%
X168620000Y-80220000D03*
X171160000Y-85300000D03*
X173700000Y-80220000D03*
X168620000Y-82760000D03*
X168620000Y-85300000D03*
X171160000Y-82760000D03*
X173700000Y-85300000D03*
X171160000Y-80220000D03*
X173700000Y-82760000D03*
X173520000Y-72820000D03*
X176060000Y-77900000D03*
X178600000Y-72820000D03*
X173520000Y-75360000D03*
X173520000Y-77900000D03*
X176060000Y-75360000D03*
X178600000Y-77900000D03*
X176060000Y-72820000D03*
X178600000Y-75360000D03*
%TO.N,GND*%
X161300000Y-80540000D03*
X158760000Y-80540000D03*
X156220000Y-78000000D03*
X158760000Y-78000000D03*
X156220000Y-80540000D03*
X166340000Y-100540000D03*
X168880000Y-100540000D03*
X166340000Y-98000000D03*
X163800000Y-98000000D03*
X168880000Y-103080000D03*
X168880000Y-98000000D03*
X166240000Y-93240000D03*
X168780000Y-93240000D03*
X166240000Y-90700000D03*
X163700000Y-93240000D03*
X161160000Y-93240000D03*
X161160000Y-90700000D03*
X166240000Y-95780000D03*
X161160000Y-95780000D03*
X163700000Y-90700000D03*
X168780000Y-95780000D03*
X163700000Y-95780000D03*
X161340000Y-85440000D03*
X163880000Y-85440000D03*
X161340000Y-82900000D03*
X158800000Y-85440000D03*
X156260000Y-85440000D03*
X156260000Y-82900000D03*
X161340000Y-87980000D03*
X156260000Y-87980000D03*
X158800000Y-82900000D03*
X163880000Y-87980000D03*
X163880000Y-82900000D03*
X158800000Y-87980000D03*
X176400000Y-103040000D03*
X171320000Y-103040000D03*
X173860000Y-103040000D03*
X176400000Y-100500000D03*
X176400000Y-105580000D03*
X171320000Y-100500000D03*
X178940000Y-103040000D03*
X171320000Y-105580000D03*
X173860000Y-100500000D03*
X178940000Y-105580000D03*
X178940000Y-100500000D03*
X173860000Y-105580000D03*
%TO.N,V_OUT_5+*%
X171120000Y-72760000D03*
X166040000Y-77840000D03*
X168580000Y-75300000D03*
X171120000Y-77840000D03*
X168580000Y-72760000D03*
X171120000Y-75300000D03*
X166040000Y-72760000D03*
X166040000Y-75300000D03*
X168580000Y-77840000D03*
X163500000Y-75300000D03*
X163500000Y-72760000D03*
X134180000Y-74600000D03*
X129100000Y-74600000D03*
X131640000Y-74600000D03*
X134180000Y-72060000D03*
X134180000Y-77140000D03*
X129100000Y-72060000D03*
X136720000Y-74600000D03*
X129100000Y-77140000D03*
X131640000Y-72060000D03*
X136720000Y-72060000D03*
X131640000Y-77140000D03*
%TO.N,V_OUT_12+*%
X181720000Y-113880000D03*
X179180000Y-113880000D03*
X176640000Y-113880000D03*
X174100000Y-113880000D03*
X186800000Y-111340000D03*
X184260000Y-111340000D03*
X181720000Y-111340000D03*
X179180000Y-111340000D03*
X176640000Y-111340000D03*
X174100000Y-111340000D03*
X186800000Y-108800000D03*
X184260000Y-108800000D03*
X181720000Y-108800000D03*
X179180000Y-108800000D03*
X176640000Y-108800000D03*
X174100000Y-108800000D03*
X186800000Y-113880000D03*
X167200000Y-112460000D03*
X167200000Y-115000000D03*
X167200000Y-109920000D03*
X159420000Y-114980000D03*
X161960000Y-112440000D03*
X161960000Y-114980000D03*
X164500000Y-112440000D03*
X164500000Y-114980000D03*
X159420000Y-109900000D03*
X164500000Y-107360000D03*
X159420000Y-112440000D03*
X159420000Y-107360000D03*
X164500000Y-109900000D03*
X161960000Y-109900000D03*
X164500000Y-104820000D03*
X159420000Y-104820000D03*
X161960000Y-107360000D03*
X161960000Y-104820000D03*
X152020000Y-109920000D03*
X157100000Y-107380000D03*
X154560000Y-107380000D03*
X152020000Y-107380000D03*
X157100000Y-104840000D03*
X154560000Y-104840000D03*
X152020000Y-104840000D03*
X157100000Y-102300000D03*
X154560000Y-102300000D03*
X152020000Y-102300000D03*
X157100000Y-99760000D03*
X154560000Y-99760000D03*
X152020000Y-99760000D03*
X157100000Y-97220000D03*
X154560000Y-97220000D03*
X152020000Y-97220000D03*
X157100000Y-109920000D03*
%TO.N,GND*%
X119120000Y-109900000D03*
X116580000Y-107360000D03*
X119120000Y-107360000D03*
X116580000Y-109900000D03*
X124200000Y-107360000D03*
X139000000Y-117000000D03*
X126300000Y-114460000D03*
X126300000Y-117000000D03*
X136460000Y-117000000D03*
X128840000Y-117000000D03*
X139000000Y-114460000D03*
X139000000Y-112280000D03*
X128840000Y-109740000D03*
X131380000Y-109740000D03*
X133920000Y-109740000D03*
X136460000Y-109740000D03*
X139000000Y-109740000D03*
X126300000Y-107200000D03*
X126300000Y-112280000D03*
X128840000Y-112280000D03*
X133920000Y-107200000D03*
X126300000Y-109740000D03*
X131380000Y-107200000D03*
X128840000Y-107200000D03*
X139000000Y-107200000D03*
X136460000Y-107200000D03*
%TO.N,V_BAT+*%
X120500000Y-81960000D03*
X120500000Y-84500000D03*
X120500000Y-87040000D03*
X120500000Y-89580000D03*
X120500000Y-92120000D03*
X117960000Y-79420000D03*
X117960000Y-81960000D03*
X117960000Y-84500000D03*
X117960000Y-87040000D03*
X117960000Y-89580000D03*
X117960000Y-92120000D03*
X115420000Y-79420000D03*
X115420000Y-81960000D03*
X115420000Y-84500000D03*
X115420000Y-87040000D03*
X115420000Y-89580000D03*
X115420000Y-92120000D03*
X120500000Y-79420000D03*
%TO.N,V_OUT_5+*%
X130800000Y-82000000D03*
X129600000Y-82000000D03*
X127200000Y-82000000D03*
X128400000Y-82000000D03*
X130800000Y-83400000D03*
X129600000Y-83400000D03*
X127200000Y-83400000D03*
X128400000Y-83400000D03*
%TO.N,GND*%
X125700000Y-80900000D03*
X125700000Y-81900000D03*
X185700000Y-123600000D03*
X183540000Y-123600000D03*
X181380000Y-123600000D03*
X182460000Y-123600000D03*
X184620000Y-123600000D03*
X180300000Y-123600000D03*
X186700000Y-123600000D03*
X181300000Y-124900000D03*
X183460000Y-124900000D03*
X185620000Y-124900000D03*
X184540000Y-124900000D03*
X182380000Y-124900000D03*
X186700000Y-124900000D03*
X180300000Y-124900000D03*
%TO.N,V_BAT+*%
X124900000Y-100300000D03*
X122740000Y-100300000D03*
X120580000Y-100300000D03*
X121660000Y-100300000D03*
X123820000Y-100300000D03*
X119500000Y-100300000D03*
X125900000Y-100300000D03*
%TO.N,GND*%
X124900000Y-101817500D03*
X122740000Y-101817500D03*
X120580000Y-101817500D03*
X121660000Y-101817500D03*
X123820000Y-101817500D03*
X119500000Y-101817500D03*
X125900000Y-101817500D03*
X129200000Y-101900000D03*
X130280000Y-101900000D03*
X134600000Y-101900000D03*
X133520000Y-101900000D03*
X132440000Y-101900000D03*
X131360000Y-101900000D03*
X125000000Y-87700000D03*
X125000000Y-88600000D03*
X124200000Y-87700000D03*
X124300000Y-80900000D03*
X124300000Y-81900000D03*
X124300000Y-82900000D03*
X124300000Y-83900000D03*
X124300000Y-84900000D03*
%TO.N,V_BAT+*%
X123600000Y-116700000D03*
%TO.N,PG_5*%
X130549676Y-90568291D03*
%TO.N,EN_5*%
X131024265Y-89924265D03*
%TO.N,VCC_12*%
X147600000Y-111900000D03*
X141799998Y-89900000D03*
X141500000Y-88700000D03*
%TO.N,\u002ACC_12*%
X140875737Y-90824266D03*
%TO.N,EN_12*%
X140500000Y-89300000D03*
%TO.N,V_OUT_5+*%
X128400000Y-86300000D03*
X128400000Y-87500000D03*
X127800000Y-87500000D03*
X129600000Y-86300000D03*
X127200000Y-88200000D03*
X127200000Y-86300000D03*
X128400000Y-88200000D03*
X130800000Y-84800000D03*
X127200000Y-84800000D03*
X127800000Y-88200000D03*
X129600000Y-84800000D03*
X128400000Y-84800000D03*
X130200000Y-88900000D03*
X127200000Y-87500000D03*
%TO.N,SDA*%
X130162239Y-91268217D03*
%TO.N,SCL*%
X130967329Y-89126291D03*
%TO.N,Net-(U1A-FB)*%
X169800000Y-121800000D03*
X152874859Y-92425141D03*
%TO.N,/VCC_5*%
X131000000Y-118600000D03*
X123376000Y-87400000D03*
%TO.N,Net-(R1-Pad2)*%
X170900000Y-121800000D03*
X172000000Y-108700000D03*
X151000000Y-92300000D03*
%TO.N,Net-(U2-VIN)*%
X153300000Y-121600000D03*
X123400000Y-89700000D03*
%TO.N,GND*%
X145600000Y-95400000D03*
X143500000Y-103400000D03*
X127851719Y-89083792D03*
X145600000Y-101800000D03*
X143500000Y-97000000D03*
X145600000Y-98600000D03*
X149645412Y-89541868D03*
X143500000Y-101000000D03*
X155700000Y-91500000D03*
X145550781Y-87466565D03*
X145600000Y-99400000D03*
X145600000Y-92800000D03*
X145550781Y-88100000D03*
X128400000Y-89700000D03*
X143500000Y-100200000D03*
X145600000Y-102600000D03*
X145544903Y-86787860D03*
X147650000Y-101800000D03*
X143500000Y-96200000D03*
X150345412Y-89541868D03*
X153800000Y-88500000D03*
X147650000Y-100200000D03*
X145600000Y-103400000D03*
X147650000Y-99400000D03*
X147650000Y-97800000D03*
X153000000Y-88500000D03*
X143500000Y-98600000D03*
X128351719Y-89083792D03*
X145600000Y-104200000D03*
X128400000Y-90300000D03*
X127900000Y-90300000D03*
X147650000Y-96200000D03*
X155700000Y-92400000D03*
X145600000Y-97800000D03*
X143500000Y-102600000D03*
X143500000Y-101800000D03*
X145600000Y-101000000D03*
X147650000Y-103400000D03*
X155700000Y-90700000D03*
X153900000Y-89500000D03*
X127900000Y-89700000D03*
X153000000Y-87500000D03*
X145600000Y-96200000D03*
X145600000Y-100200000D03*
X147650000Y-102600000D03*
X145600000Y-97000000D03*
X147650000Y-97000000D03*
X145600000Y-94600000D03*
X143500000Y-97800000D03*
X143500000Y-99400000D03*
X153800000Y-87500000D03*
X147650000Y-101000000D03*
X147650000Y-98600000D03*
X135600000Y-101900000D03*
%TD*%
D15*
%TO.N,SCL*%
X131625265Y-89675322D02*
X131076234Y-89126291D01*
X131625265Y-92474735D02*
X131625265Y-89675322D01*
X131076234Y-89126291D02*
X130967329Y-89126291D01*
X144425000Y-118725000D02*
X127800000Y-102100000D01*
X144425000Y-121300000D02*
X144425000Y-118725000D01*
X127800000Y-102100000D02*
X127800000Y-96300000D01*
X127800000Y-96300000D02*
X131625265Y-92474735D01*
%TO.N,Net-(U2-VIN)*%
X133232900Y-117100000D02*
X138583900Y-122451000D01*
X152449000Y-122451000D02*
X153300000Y-121600000D01*
X132810057Y-117100000D02*
X133232900Y-117100000D01*
X117800000Y-102089943D02*
X132810057Y-117100000D01*
X117800000Y-95900000D02*
X117800000Y-102089943D01*
X138583900Y-122451000D02*
X152449000Y-122451000D01*
X123400000Y-89700000D02*
X123400000Y-90300000D01*
X123400000Y-90300000D02*
X117800000Y-95900000D01*
%TO.N,PG_5*%
X129679513Y-90901000D02*
X130012222Y-90568291D01*
X125001000Y-90901000D02*
X129679513Y-90901000D01*
X122449943Y-89050057D02*
X123750057Y-89050057D01*
X123750057Y-89050057D02*
X124000000Y-89300000D01*
X124000000Y-89300000D02*
X124000000Y-89900000D01*
X124000000Y-89900000D02*
X125001000Y-90901000D01*
X135300000Y-120430057D02*
X117200000Y-102330057D01*
X135300000Y-121300000D02*
X135300000Y-120430057D01*
X130012222Y-90568291D02*
X130549676Y-90568291D01*
X117200000Y-102330057D02*
X117200000Y-94300000D01*
X117200000Y-94300000D02*
X122449943Y-89050057D01*
%TO.N,SDA*%
X127400000Y-109900000D02*
X127400000Y-94030456D01*
X127400000Y-94030456D02*
X130162239Y-91268217D01*
X138800000Y-121300000D02*
X127400000Y-109900000D01*
X141885000Y-121300000D02*
X138800000Y-121300000D01*
%TO.N,VCC_12*%
X141400000Y-89500000D02*
X141400000Y-88800000D01*
X141799998Y-89899998D02*
X141400000Y-89500000D01*
X141799998Y-89900000D02*
X141799998Y-89899998D01*
X141400000Y-88800000D02*
X141500000Y-88700000D01*
%TD*%
%TA.AperFunction,Conductor*%
%TO.N,SCL*%
G36*
X144526048Y-119619760D02*
G01*
X144528236Y-119622793D01*
X145127129Y-120818541D01*
X145127770Y-120827473D01*
X145123178Y-120833503D01*
X144431510Y-121296640D01*
X144422729Y-121298395D01*
X144418490Y-121296640D01*
X143726821Y-120833503D01*
X143721854Y-120826052D01*
X143722869Y-120818543D01*
X144321764Y-119622792D01*
X144328533Y-119616931D01*
X144332225Y-119616333D01*
X144517775Y-119616333D01*
X144526048Y-119619760D01*
G37*
%TD.AperFunction*%
%TD*%
%TA.AperFunction,Conductor*%
%TO.N,PG_5*%
G36*
X134791655Y-119777307D02*
G01*
X135011359Y-119913829D01*
X135863898Y-120443590D01*
X135869117Y-120450868D01*
X135867661Y-120459703D01*
X135867424Y-120460068D01*
X135308642Y-121288935D01*
X135301176Y-121293879D01*
X135292401Y-121292096D01*
X135290668Y-121290668D01*
X134455244Y-120455244D01*
X134451817Y-120446971D01*
X134452504Y-120443020D01*
X134641467Y-119916292D01*
X134644203Y-119911976D01*
X134777208Y-119778971D01*
X134785480Y-119775545D01*
X134791655Y-119777307D01*
G37*
%TD.AperFunction*%
%TD*%
%TA.AperFunction,Conductor*%
%TO.N,SDA*%
G36*
X141418503Y-120601821D02*
G01*
X141881640Y-121293490D01*
X141883395Y-121302271D01*
X141881640Y-121306510D01*
X141418503Y-121998178D01*
X141411052Y-122003145D01*
X141403541Y-122002129D01*
X140207793Y-121403235D01*
X140201931Y-121396466D01*
X140201333Y-121392774D01*
X140201333Y-121207225D01*
X140204760Y-121198952D01*
X140207790Y-121196765D01*
X141403543Y-120597869D01*
X141412473Y-120597229D01*
X141418503Y-120601821D01*
G37*
%TD.AperFunction*%
%TD*%
M02*
