%TF.GenerationSoftware,KiCad,Pcbnew,9.0.4*%
%TF.CreationDate,2025-11-02T19:47:45-03:00*%
%TF.ProjectId,PowerPCB,506f7765-7250-4434-922e-6b696361645f,rev?*%
%TF.SameCoordinates,Original*%
%TF.FileFunction,Paste,Top*%
%TF.FilePolarity,Positive*%
%FSLAX46Y46*%
G04 Gerber Fmt 4.6, Leading zero omitted, Abs format (unit mm)*
G04 Created by KiCad (PCBNEW 9.0.4) date 2025-11-02 19:47:45*
%MOMM*%
%LPD*%
G01*
G04 APERTURE LIST*
G04 Aperture macros list*
%AMRoundRect*
0 Rectangle with rounded corners*
0 $1 Rounding radius*
0 $2 $3 $4 $5 $6 $7 $8 $9 X,Y pos of 4 corners*
0 Add a 4 corners polygon primitive as box body*
4,1,4,$2,$3,$4,$5,$6,$7,$8,$9,$2,$3,0*
0 Add four circle primitives for the rounded corners*
1,1,$1+$1,$2,$3*
1,1,$1+$1,$4,$5*
1,1,$1+$1,$6,$7*
1,1,$1+$1,$8,$9*
0 Add four rect primitives between the rounded corners*
20,1,$1+$1,$2,$3,$4,$5,0*
20,1,$1+$1,$4,$5,$6,$7,0*
20,1,$1+$1,$6,$7,$8,$9,0*
20,1,$1+$1,$8,$9,$2,$3,0*%
G04 Aperture macros list end*
%ADD10C,0.000000*%
%ADD11RoundRect,0.225000X-0.225000X-0.250000X0.225000X-0.250000X0.225000X0.250000X-0.225000X0.250000X0*%
%ADD12RoundRect,0.140000X-0.140000X-0.170000X0.140000X-0.170000X0.140000X0.170000X-0.140000X0.170000X0*%
%ADD13RoundRect,0.250000X0.650000X-0.325000X0.650000X0.325000X-0.650000X0.325000X-0.650000X-0.325000X0*%
%ADD14RoundRect,0.249999X0.710001X3.000001X-0.710001X3.000001X-0.710001X-3.000001X0.710001X-3.000001X0*%
%ADD15RoundRect,0.250000X0.750000X-1.650000X0.750000X1.650000X-0.750000X1.650000X-0.750000X-1.650000X0*%
%ADD16RoundRect,0.225000X0.225000X0.250000X-0.225000X0.250000X-0.225000X-0.250000X0.225000X-0.250000X0*%
%ADD17RoundRect,0.250000X-0.325000X-0.650000X0.325000X-0.650000X0.325000X0.650000X-0.325000X0.650000X0*%
%ADD18RoundRect,0.250000X0.325000X0.650000X-0.325000X0.650000X-0.325000X-0.650000X0.325000X-0.650000X0*%
%ADD19RoundRect,0.250000X-0.550000X1.500000X-0.550000X-1.500000X0.550000X-1.500000X0.550000X1.500000X0*%
%ADD20RoundRect,0.140000X0.140000X0.170000X-0.140000X0.170000X-0.140000X-0.170000X0.140000X-0.170000X0*%
%ADD21R,0.449986X0.350012*%
%ADD22R,1.150010X0.350012*%
%ADD23R,0.127000X0.127000*%
%ADD24RoundRect,0.135000X-0.135000X-0.185000X0.135000X-0.185000X0.135000X0.185000X-0.135000X0.185000X0*%
%ADD25RoundRect,0.135000X0.135000X0.185000X-0.135000X0.185000X-0.135000X-0.185000X0.135000X-0.185000X0*%
%ADD26RoundRect,0.250000X-0.650000X0.325000X-0.650000X-0.325000X0.650000X-0.325000X0.650000X0.325000X0*%
%ADD27RoundRect,0.250000X-1.650000X-0.750000X1.650000X-0.750000X1.650000X0.750000X-1.650000X0.750000X0*%
%ADD28RoundRect,0.250000X-1.000000X1.500000X-1.000000X-1.500000X1.000000X-1.500000X1.000000X1.500000X0*%
%ADD29R,0.609600X0.254000*%
%ADD30R,0.254000X0.660400*%
%ADD31R,0.254000X0.609600*%
%ADD32R,0.254000X3.403600*%
%ADD33R,0.254000X3.397602*%
%ADD34RoundRect,0.135000X0.185000X-0.135000X0.185000X0.135000X-0.185000X0.135000X-0.185000X-0.135000X0*%
%ADD35RoundRect,0.250000X0.312500X0.625000X-0.312500X0.625000X-0.312500X-0.625000X0.312500X-0.625000X0*%
%ADD36RoundRect,0.225000X-0.250000X0.225000X-0.250000X-0.225000X0.250000X-0.225000X0.250000X0.225000X0*%
%ADD37RoundRect,0.140000X0.170000X-0.140000X0.170000X0.140000X-0.170000X0.140000X-0.170000X-0.140000X0*%
G04 APERTURE END LIST*
D10*
%TO.C,U2*%
G36*
X127250000Y-91149999D02*
G01*
X126950000Y-91149999D01*
X126950000Y-89850001D01*
X127250000Y-89850001D01*
X127250000Y-91149999D01*
G37*
G36*
X127690006Y-89450006D02*
G01*
X127039994Y-89450006D01*
X127039994Y-88899994D01*
X127690006Y-88899994D01*
X127690006Y-89450006D01*
G37*
G36*
X127724994Y-88475006D02*
G01*
X127005006Y-88475006D01*
X127005006Y-88124994D01*
X127724994Y-88124994D01*
X127724994Y-88475006D01*
G37*
G36*
X128525006Y-90425006D02*
G01*
X127674995Y-90425006D01*
X127674995Y-89774994D01*
X128525006Y-89774994D01*
X128525006Y-90425006D01*
G37*
G36*
X128560006Y-89450006D02*
G01*
X127909994Y-89450006D01*
X127909994Y-88899994D01*
X128560006Y-88899994D01*
X128560006Y-89450006D01*
G37*
G36*
X128594994Y-88475006D02*
G01*
X127875006Y-88475006D01*
X127875006Y-88124994D01*
X128594994Y-88124994D01*
X128594994Y-88475006D01*
G37*
%TO.C,U1*%
G36*
X145677000Y-89267664D02*
G01*
X145715100Y-89267664D01*
X145715100Y-91629864D01*
X145677000Y-91629864D01*
X145677000Y-92147567D01*
X145423000Y-92147564D01*
X145423000Y-91629864D01*
X145384900Y-91629864D01*
X145384900Y-89267664D01*
X145423000Y-89267664D01*
X145423000Y-88749961D01*
X145677000Y-88749961D01*
X145677000Y-89267664D01*
G37*
G36*
X145677000Y-89267664D02*
G01*
X145715100Y-89267664D01*
X145715100Y-91629864D01*
X145677000Y-91629864D01*
X145677000Y-92147564D01*
X145423000Y-92147564D01*
X145423000Y-91629864D01*
X145384900Y-91629864D01*
X145384900Y-89267664D01*
X145423000Y-89267664D01*
X145423000Y-88743964D01*
X145677000Y-88743964D01*
X145677000Y-89267664D01*
G37*
G36*
X145677000Y-89267664D02*
G01*
X145715100Y-89267664D01*
X145715100Y-91629864D01*
X145677000Y-91629864D01*
X145677000Y-92147564D01*
X145423000Y-92147564D01*
X145423000Y-91629864D01*
X145384900Y-91629864D01*
X145384900Y-89267664D01*
X145423000Y-89267664D01*
X145423000Y-88743964D01*
X145677000Y-88743964D01*
X145677000Y-89267664D01*
G37*
%TD*%
D11*
%TO.C,C20*%
X142925000Y-95000000D03*
X144475000Y-95000000D03*
%TD*%
D12*
%TO.C,C28*%
X118620000Y-118000000D03*
X119580000Y-118000000D03*
%TD*%
D13*
%TO.C,C30*%
X135400000Y-94300000D03*
X135400000Y-91350000D03*
%TD*%
D12*
%TO.C,C1*%
X138720000Y-91200000D03*
X139680000Y-91200000D03*
%TD*%
%TO.C,C24*%
X138720000Y-89700000D03*
X139680000Y-89700000D03*
%TD*%
D14*
%TO.C,L1*%
X148010000Y-82100000D03*
X143190000Y-82100000D03*
%TD*%
D15*
%TO.C,TP1*%
X139300000Y-82100000D03*
%TD*%
D12*
%TO.C,C2*%
X138720000Y-88700000D03*
X139680000Y-88700000D03*
%TD*%
D16*
%TO.C,C4*%
X148875000Y-87200000D03*
X147325000Y-87200000D03*
%TD*%
D17*
%TO.C,C32*%
X122725000Y-84300000D03*
X125675000Y-84300000D03*
%TD*%
D15*
%TO.C,TP4*%
X151800000Y-81900000D03*
%TD*%
D18*
%TO.C,C10*%
X149675000Y-99300000D03*
X146725000Y-99300000D03*
%TD*%
D17*
%TO.C,C18*%
X141425000Y-99200000D03*
X144375000Y-99200000D03*
%TD*%
D19*
%TO.C,C9*%
X154500000Y-111500000D03*
X154500000Y-116900000D03*
%TD*%
D20*
%TO.C,C15*%
X146980000Y-93700000D03*
X146020000Y-93700000D03*
%TD*%
D21*
%TO.C,U2*%
X129150200Y-91000001D03*
X129150200Y-90450000D03*
X129150200Y-89900001D03*
X129150200Y-89349999D03*
X129150200Y-88800000D03*
X129150200Y-88249999D03*
X126449800Y-88249999D03*
X126449800Y-88800000D03*
X126449800Y-89349999D03*
X126449800Y-89900001D03*
X126449800Y-90450000D03*
X126449800Y-90999999D03*
D22*
X128100000Y-91000000D03*
D23*
X128100000Y-90100000D03*
%TD*%
D24*
%TO.C,R5*%
X151980335Y-89650616D03*
X153000335Y-89650616D03*
%TD*%
D25*
%TO.C,R11*%
X117950000Y-108900000D03*
X116930000Y-108900000D03*
%TD*%
D26*
%TO.C,C27*%
X174000000Y-93250000D03*
X174000000Y-96200000D03*
%TD*%
D25*
%TO.C,R7*%
X153000335Y-90650616D03*
X151980335Y-90650616D03*
%TD*%
D27*
%TO.C,TP11*%
X158300000Y-122500000D03*
%TD*%
D25*
%TO.C,R4*%
X139710000Y-92200000D03*
X138690000Y-92200000D03*
%TD*%
D18*
%TO.C,C11*%
X149675000Y-101700000D03*
X146725000Y-101700000D03*
%TD*%
D11*
%TO.C,C5*%
X150425000Y-88400000D03*
X151975000Y-88400000D03*
%TD*%
D25*
%TO.C,R17*%
X123100000Y-117900000D03*
X122080000Y-117900000D03*
%TD*%
%TO.C,R8*%
X154910000Y-94700000D03*
X153890000Y-94700000D03*
%TD*%
D28*
%TO.C,C17*%
X132500000Y-97992500D03*
X132500000Y-104492500D03*
%TD*%
D27*
%TO.C,TP8*%
X112400000Y-108400000D03*
%TD*%
D11*
%TO.C,C35*%
X122625000Y-86400000D03*
X124175000Y-86400000D03*
%TD*%
D24*
%TO.C,R21*%
X132890000Y-118300000D03*
X133910000Y-118300000D03*
%TD*%
D25*
%TO.C,R14*%
X142900000Y-118600000D03*
X141880000Y-118600000D03*
%TD*%
D18*
%TO.C,C12*%
X149675000Y-96900000D03*
X146725000Y-96900000D03*
%TD*%
D25*
%TO.C,R3*%
X154900335Y-92650616D03*
X153880335Y-92650616D03*
%TD*%
%TO.C,R1*%
X172610000Y-107690000D03*
X171590000Y-107690000D03*
%TD*%
%TO.C,R6*%
X154910000Y-93700000D03*
X153890000Y-93700000D03*
%TD*%
D27*
%TO.C,TP7*%
X112200000Y-92200000D03*
%TD*%
D16*
%TO.C,C13*%
X148175000Y-95000000D03*
X146625000Y-95000000D03*
%TD*%
D12*
%TO.C,C8*%
X153910335Y-90650616D03*
X154870335Y-90650616D03*
%TD*%
D25*
%TO.C,R10*%
X122850000Y-108900000D03*
X121830000Y-108900000D03*
%TD*%
D24*
%TO.C,R22*%
X121590000Y-87800000D03*
X122610000Y-87800000D03*
%TD*%
D12*
%TO.C,C22*%
X144120000Y-93700000D03*
X145080000Y-93700000D03*
%TD*%
%TO.C,C31*%
X135220000Y-118300000D03*
X136180000Y-118300000D03*
%TD*%
D28*
%TO.C,C33*%
X122700000Y-97950000D03*
X122700000Y-104450000D03*
%TD*%
D29*
%TO.C,U1*%
X143149954Y-89698575D03*
X143149954Y-90198701D03*
X143149954Y-90698827D03*
X143149954Y-91198953D03*
D30*
X143549496Y-91823364D03*
D31*
X144049622Y-91848764D03*
D32*
X144549748Y-90445764D03*
X145049874Y-90445764D03*
D33*
X145550781Y-90448763D03*
D32*
X146050126Y-90445764D03*
X146550252Y-90445764D03*
D31*
X147050378Y-91848764D03*
D30*
X147550504Y-91823364D03*
D29*
X147950046Y-91198953D03*
X147950046Y-90698827D03*
X147950046Y-90198701D03*
X147950046Y-89698575D03*
D30*
X147550504Y-89074164D03*
D31*
X147050378Y-89048764D03*
X144049622Y-89048764D03*
D30*
X143549496Y-89074164D03*
%TD*%
D17*
%TO.C,C19*%
X141425000Y-96900000D03*
X144375000Y-96900000D03*
%TD*%
D24*
%TO.C,R15*%
X145690000Y-110600000D03*
X146710000Y-110600000D03*
%TD*%
D34*
%TO.C,R2*%
X151990335Y-92560616D03*
X151990335Y-91540616D03*
%TD*%
D24*
%TO.C,R18*%
X122095000Y-118900000D03*
X123115000Y-118900000D03*
%TD*%
D26*
%TO.C,C26*%
X176400000Y-93250000D03*
X176400000Y-96200000D03*
%TD*%
D24*
%TO.C,R12*%
X135290000Y-110800000D03*
X136310000Y-110800000D03*
%TD*%
D35*
%TO.C,R9*%
X172262500Y-113000000D03*
X169337500Y-113000000D03*
%TD*%
D12*
%TO.C,C7*%
X153910335Y-91650616D03*
X154870335Y-91650616D03*
%TD*%
D25*
%TO.C,R16*%
X132010000Y-88200000D03*
X130990000Y-88200000D03*
%TD*%
D27*
%TO.C,TP9*%
X184532500Y-86100000D03*
%TD*%
D13*
%TO.C,C29*%
X133000000Y-94325000D03*
X133000000Y-91375000D03*
%TD*%
D20*
%TO.C,C34*%
X128780000Y-92100000D03*
X127820000Y-92100000D03*
%TD*%
D11*
%TO.C,C3*%
X142425000Y-87200000D03*
X143975000Y-87200000D03*
%TD*%
D12*
%TO.C,C23*%
X132720000Y-110800000D03*
X133680000Y-110800000D03*
%TD*%
D36*
%TO.C,C16*%
X176100000Y-115825000D03*
X176100000Y-117375000D03*
%TD*%
D12*
%TO.C,C25*%
X143120000Y-110600000D03*
X144080000Y-110600000D03*
%TD*%
D27*
%TO.C,TP3*%
X166600000Y-122500000D03*
%TD*%
D37*
%TO.C,C6*%
X149671732Y-93160024D03*
X149671732Y-92200024D03*
%TD*%
D25*
%TO.C,R13*%
X145410000Y-118600000D03*
X144390000Y-118600000D03*
%TD*%
D27*
%TO.C,TP2*%
X175000000Y-122500000D03*
%TD*%
M02*
