M48
; DRILL file {KiCad 9.0.4} date 2025-11-02T19:47:40-0300
; FORMAT={-:-/ absolute / metric / decimal}
; #@! TF.CreationDate,2025-11-02T19:47:40-03:00
; #@! TF.GenerationSoftware,Kicad,Pcbnew,9.0.4
; #@! TF.FileFunction,Plated,1,4,PTH
FMAT,2
METRIC
; #@! TA.AperFunction,Plated,PTH,ViaDrill
T1C0.300
; #@! TA.AperFunction,Plated,PTH,ComponentDrill
T2C1.000
; #@! TA.AperFunction,Plated,PTH,ComponentDrill
T3C1.300
%
G90
G05
T1
X110.26Y-81.98
X110.26Y-84.52
X110.26Y-87.06
X110.26Y-89.6
X110.28Y-72.46
X110.28Y-75.0
X112.8Y-79.44
X112.8Y-81.98
X112.8Y-84.52
X112.8Y-87.06
X112.8Y-89.6
X112.82Y-72.46
X112.82Y-75.0
X115.36Y-72.46
X115.36Y-75.0
X115.42Y-79.42
X115.42Y-81.96
X115.42Y-84.5
X115.42Y-87.04
X115.42Y-89.58
X115.42Y-92.12
X116.58Y-107.36
X116.58Y-109.9
X117.9Y-72.46
X117.9Y-75.0
X117.96Y-79.42
X117.96Y-81.96
X117.96Y-84.5
X117.96Y-87.04
X117.96Y-89.58
X117.96Y-92.12
X118.5Y-94.0
X118.5Y-96.54
X119.12Y-107.36
X119.12Y-109.9
X119.5Y-100.3
X119.5Y-101.817
X120.36Y-72.46
X120.36Y-75.0
X120.5Y-79.42
X120.5Y-81.96
X120.5Y-84.5
X120.5Y-87.04
X120.5Y-89.58
X120.5Y-92.12
X120.58Y-100.3
X120.58Y-101.817
X121.04Y-94.0
X121.66Y-100.3
X121.66Y-101.817
X122.74Y-100.3
X122.74Y-101.817
X122.9Y-72.46
X122.9Y-75.0
X123.376Y-87.4
X123.4Y-89.7
X123.58Y-94.0
X123.6Y-116.7
X123.82Y-100.3
X123.82Y-101.817
X124.2Y-87.7
X124.2Y-107.36
X124.3Y-80.9
X124.3Y-81.9
X124.3Y-82.9
X124.3Y-83.9
X124.3Y-84.9
X124.9Y-100.3
X124.9Y-101.817
X125.0Y-87.7
X125.0Y-88.6
X125.7Y-80.9
X125.7Y-81.9
X125.9Y-100.3
X125.9Y-101.817
X126.12Y-94.0
X126.12Y-96.54
X126.3Y-107.2
X126.3Y-109.74
X126.3Y-112.28
X126.3Y-114.46
X126.3Y-117.0
X127.2Y-82.0
X127.2Y-83.4
X127.2Y-84.8
X127.2Y-86.3
X127.2Y-87.5
X127.2Y-88.2
X127.3Y-89.1
X127.8Y-87.5
X127.8Y-88.2
X127.852Y-89.084
X127.9Y-89.7
X127.9Y-90.3
X128.352Y-89.084
X128.4Y-82.0
X128.4Y-83.4
X128.4Y-84.8
X128.4Y-86.3
X128.4Y-87.5
X128.4Y-88.2
X128.4Y-89.7
X128.4Y-90.3
X128.66Y-94.0
X128.66Y-96.54
X128.84Y-107.2
X128.84Y-109.74
X128.84Y-112.28
X128.84Y-117.0
X129.1Y-72.06
X129.1Y-74.6
X129.1Y-77.14
X129.2Y-101.9
X129.6Y-82.0
X129.6Y-83.4
X129.6Y-84.8
X129.6Y-86.3
X130.162Y-91.268
X130.2Y-88.9
X130.28Y-101.9
X130.55Y-90.568
X130.8Y-82.0
X130.8Y-83.4
X130.8Y-84.8
X130.967Y-89.126
X131.0Y-118.6
X131.024Y-89.924
X131.2Y-94.0
X131.36Y-101.9
X131.38Y-107.2
X131.38Y-109.74
X131.64Y-72.06
X131.64Y-74.6
X131.64Y-77.14
X132.42Y-84.52
X132.42Y-87.06
X132.42Y-89.6
X132.44Y-101.9
X133.52Y-101.9
X133.92Y-107.2
X133.92Y-109.74
X134.18Y-72.06
X134.18Y-74.6
X134.18Y-77.14
X134.6Y-101.9
X134.96Y-82.0
X134.96Y-84.52
X134.96Y-87.06
X134.96Y-89.6
X135.6Y-101.9
X136.46Y-107.2
X136.46Y-109.74
X136.46Y-117.0
X136.72Y-72.06
X136.72Y-74.6
X137.5Y-79.46
X137.5Y-82.0
X137.5Y-84.52
X137.5Y-87.06
X137.5Y-89.6
X139.0Y-107.2
X139.0Y-109.74
X139.0Y-112.28
X139.0Y-114.46
X139.0Y-117.0
X140.5Y-89.3
X140.876Y-90.824
X140.9Y-90.0
X141.5Y-88.7
X141.8Y-89.9
X143.5Y-96.2
X143.5Y-97.0
X143.5Y-97.8
X143.5Y-98.6
X143.5Y-99.4
X143.5Y-100.2
X143.5Y-101.0
X143.5Y-101.8
X143.5Y-102.6
X143.5Y-103.4
X144.1Y-89.8
X144.1Y-90.4
X144.1Y-91.0
X145.545Y-86.788
X145.551Y-87.467
X145.551Y-88.1
X145.6Y-92.8
X145.6Y-94.6
X145.6Y-95.4
X145.6Y-96.2
X145.6Y-97.0
X145.6Y-97.8
X145.6Y-98.6
X145.6Y-99.4
X145.6Y-100.2
X145.6Y-101.0
X145.6Y-101.8
X145.6Y-102.6
X145.6Y-103.4
X145.6Y-104.2
X147.0Y-89.8
X147.0Y-90.444
X147.0Y-91.1
X147.6Y-111.9
X147.65Y-96.2
X147.65Y-97.0
X147.65Y-97.8
X147.65Y-98.6
X147.65Y-99.4
X147.65Y-100.2
X147.65Y-101.0
X147.65Y-101.8
X147.65Y-102.6
X147.65Y-103.4
X149.2Y-88.5
X149.645Y-89.542
X150.345Y-89.542
X151.0Y-92.3
X152.02Y-97.22
X152.02Y-99.76
X152.02Y-102.3
X152.02Y-104.84
X152.02Y-107.38
X152.02Y-109.92
X152.875Y-92.425
X153.0Y-87.5
X153.0Y-88.5
X153.3Y-121.6
X153.8Y-87.5
X153.8Y-88.5
X153.9Y-89.5
X154.56Y-97.22
X154.56Y-99.76
X154.56Y-102.3
X154.56Y-104.84
X154.56Y-107.38
X155.7Y-90.7
X155.7Y-91.5
X155.7Y-92.4
X156.22Y-78.0
X156.22Y-80.54
X156.26Y-82.9
X156.26Y-85.44
X156.26Y-87.98
X157.1Y-97.22
X157.1Y-99.76
X157.1Y-102.3
X157.1Y-104.84
X157.1Y-107.38
X157.1Y-109.92
X158.76Y-78.0
X158.76Y-80.54
X158.8Y-82.9
X158.8Y-85.44
X158.8Y-87.98
X159.42Y-104.82
X159.42Y-107.36
X159.42Y-109.9
X159.42Y-112.44
X159.42Y-114.98
X161.16Y-90.7
X161.16Y-93.24
X161.16Y-95.78
X161.3Y-80.54
X161.34Y-82.9
X161.34Y-85.44
X161.34Y-87.98
X161.96Y-104.82
X161.96Y-107.36
X161.96Y-109.9
X161.96Y-112.44
X161.96Y-114.98
X163.5Y-72.76
X163.5Y-75.3
X163.7Y-90.7
X163.7Y-93.24
X163.7Y-95.78
X163.8Y-98.0
X163.88Y-82.9
X163.88Y-85.44
X163.88Y-87.98
X164.5Y-104.82
X164.5Y-107.36
X164.5Y-109.9
X164.5Y-112.44
X164.5Y-114.98
X166.04Y-72.76
X166.04Y-75.3
X166.04Y-77.84
X166.24Y-90.7
X166.24Y-93.24
X166.24Y-95.78
X166.34Y-98.0
X166.34Y-100.54
X167.2Y-109.92
X167.2Y-112.46
X167.2Y-115.0
X168.58Y-72.76
X168.58Y-75.3
X168.58Y-77.84
X168.62Y-80.22
X168.62Y-82.76
X168.62Y-85.3
X168.78Y-93.24
X168.78Y-95.78
X168.88Y-98.0
X168.88Y-100.54
X168.88Y-103.08
X169.8Y-121.8
X170.9Y-121.8
X171.12Y-72.76
X171.12Y-75.3
X171.12Y-77.84
X171.16Y-80.22
X171.16Y-82.76
X171.16Y-85.3
X171.32Y-100.5
X171.32Y-103.04
X171.32Y-105.58
X172.0Y-108.7
X173.52Y-72.82
X173.52Y-75.36
X173.52Y-77.9
X173.7Y-80.22
X173.7Y-82.76
X173.7Y-85.3
X173.86Y-100.5
X173.86Y-103.04
X173.86Y-105.58
X174.1Y-108.8
X174.1Y-111.34
X174.1Y-113.88
X176.06Y-72.82
X176.06Y-75.36
X176.06Y-77.9
X176.4Y-100.5
X176.4Y-103.04
X176.4Y-105.58
X176.64Y-108.8
X176.64Y-111.34
X176.64Y-113.88
X178.6Y-72.82
X178.6Y-75.36
X178.6Y-77.9
X178.94Y-100.5
X178.94Y-103.04
X178.94Y-105.58
X179.18Y-108.8
X179.18Y-111.34
X179.18Y-113.88
X180.3Y-123.6
X180.3Y-124.9
X181.3Y-124.9
X181.38Y-123.6
X181.72Y-108.8
X181.72Y-111.34
X181.72Y-113.88
X182.38Y-124.9
X182.46Y-123.6
X183.46Y-124.9
X183.54Y-123.6
X184.26Y-108.8
X184.26Y-111.34
X184.54Y-124.9
X184.62Y-123.6
X185.62Y-124.9
X185.7Y-123.6
X186.7Y-123.6
X186.7Y-124.9
X186.8Y-108.8
X186.8Y-111.34
X186.8Y-113.88
T2
X116.96Y-113.4
X116.96Y-121.3
X119.5Y-113.4
X119.5Y-121.3
X122.04Y-113.4
X122.04Y-121.3
X132.76Y-113.6
X132.76Y-121.3
X135.3Y-113.6
X135.3Y-121.3
X141.885Y-121.3
X143.16Y-113.6
X144.425Y-121.3
X145.7Y-113.6
X146.965Y-121.3
T3
X112.3Y-97.8
X112.3Y-102.8
X184.377Y-92.5
X184.377Y-97.5
X184.377Y-113.4
X184.377Y-118.4
M30
