M48
; DRILL file {KiCad 9.0.4} date 2025-11-02T21:55:33-0300
; FORMAT={-:-/ absolute / inch / decimal}
; #@! TF.CreationDate,2025-11-02T21:55:33-03:00
; #@! TF.GenerationSoftware,Kicad,Pcbnew,9.0.4
; #@! TF.FileFunction,Plated,1,4,PTH
FMAT,2
INCH
; #@! TA.AperFunction,Plated,PTH,ViaDrill
T1C0.0118
; #@! TA.AperFunction,Plated,PTH,ComponentDrill
T2C0.0394
; #@! TA.AperFunction,Plated,PTH,ComponentDrill
T3C0.0512
%
G90
G05
T1
X4.3409Y-3.2276
X4.3409Y-3.3276
X4.3409Y-3.4276
X4.3409Y-3.5276
X4.3417Y-2.8528
X4.3417Y-2.9528
X4.4409Y-3.1276
X4.4409Y-3.2276
X4.4409Y-3.3276
X4.4409Y-3.4276
X4.4409Y-3.5276
X4.4417Y-2.8528
X4.4417Y-2.9528
X4.5417Y-2.8528
X4.5417Y-2.9528
X4.5441Y-3.1268
X4.5441Y-3.2268
X4.5441Y-3.3268
X4.5441Y-3.4268
X4.5441Y-3.5268
X4.5441Y-3.6268
X4.5898Y-4.2268
X4.5898Y-4.3268
X4.6417Y-2.8528
X4.6417Y-2.9528
X4.6441Y-3.1268
X4.6441Y-3.2268
X4.6441Y-3.3268
X4.6441Y-3.4268
X4.6441Y-3.5268
X4.6441Y-3.6268
X4.6654Y-3.7008
X4.6654Y-3.8008
X4.6898Y-4.2268
X4.6898Y-4.3268
X4.7047Y-3.9488
X4.7047Y-4.0086
X4.7386Y-2.8528
X4.7386Y-2.9528
X4.7441Y-3.1268
X4.7441Y-3.2268
X4.7441Y-3.3268
X4.7441Y-3.4268
X4.7441Y-3.5268
X4.7441Y-3.6268
X4.7472Y-3.9488
X4.7472Y-4.0086
X4.7654Y-3.7008
X4.7898Y-3.9488
X4.7898Y-4.0086
X4.8323Y-3.9488
X4.8323Y-4.0086
X4.8386Y-2.8528
X4.8386Y-2.9528
X4.8573Y-3.4409
X4.8583Y-3.5315
X4.8654Y-3.7008
X4.8661Y-4.5945
X4.8748Y-3.9488
X4.8748Y-4.0086
X4.8898Y-3.4528
X4.8898Y-4.2268
X4.8937Y-3.185
X4.8937Y-3.2244
X4.8937Y-3.2638
X4.8937Y-3.3031
X4.8937Y-3.3425
X4.9173Y-3.9488
X4.9173Y-4.0086
X4.9213Y-3.4528
X4.9213Y-3.4882
X4.9488Y-3.185
X4.9488Y-3.2244
X4.9567Y-3.9488
X4.9567Y-4.0086
X4.9654Y-3.7008
X4.9654Y-3.8008
X4.9724Y-4.2205
X4.9724Y-4.3205
X4.9724Y-4.4205
X4.9724Y-4.5063
X4.9724Y-4.6063
X5.0079Y-3.2283
X5.0079Y-3.2835
X5.0079Y-3.3386
X5.0079Y-3.3976
X5.0079Y-3.4449
X5.0079Y-3.4724
X5.0118Y-3.5079
X5.0315Y-3.4449
X5.0315Y-3.4724
X5.0335Y-3.5072
X5.0354Y-3.5315
X5.0354Y-3.5551
X5.0532Y-3.5072
X5.0551Y-3.2283
X5.0551Y-3.2835
X5.0551Y-3.3386
X5.0551Y-3.3976
X5.0551Y-3.4449
X5.0551Y-3.4724
X5.0551Y-3.5315
X5.0551Y-3.5551
X5.0654Y-3.7008
X5.0654Y-3.8008
X5.0724Y-4.2205
X5.0724Y-4.3205
X5.0724Y-4.4205
X5.0724Y-4.6063
X5.0827Y-2.837
X5.0827Y-2.937
X5.0827Y-3.037
X5.0866Y-4.0118
X5.1024Y-3.2283
X5.1024Y-3.2835
X5.1024Y-3.3386
X5.1024Y-3.3976
X5.1245Y-3.5932
X5.126Y-3.5
X5.1291Y-4.0118
X5.1398Y-3.5657
X5.1496Y-3.2283
X5.1496Y-3.2835
X5.1496Y-3.3386
X5.1562Y-3.5089
X5.1575Y-4.6693
X5.1584Y-3.5403
X5.1654Y-3.7008
X5.1717Y-4.0118
X5.1724Y-4.2205
X5.1724Y-4.3205
X5.1827Y-2.837
X5.1827Y-2.937
X5.1827Y-3.037
X5.2134Y-3.3276
X5.2134Y-3.4276
X5.2134Y-3.5276
X5.2142Y-4.0118
X5.2567Y-4.0118
X5.2724Y-4.2205
X5.2724Y-4.3205
X5.2827Y-2.837
X5.2827Y-2.937
X5.2827Y-3.037
X5.2992Y-4.0118
X5.3134Y-3.2283
X5.3134Y-3.3276
X5.3134Y-3.4276
X5.3134Y-3.5276
X5.3386Y-4.0118
X5.3724Y-4.2205
X5.3724Y-4.3205
X5.3724Y-4.6063
X5.3827Y-2.837
X5.3827Y-2.937
X5.4134Y-3.1283
X5.4134Y-3.2283
X5.4134Y-3.3276
X5.4134Y-3.4276
X5.4134Y-3.5276
X5.4724Y-4.2205
X5.4724Y-4.3205
X5.4724Y-4.4205
X5.4724Y-4.5063
X5.4724Y-4.6063
X5.5315Y-3.5157
X5.5463Y-3.5758
X5.5472Y-3.5433
X5.5709Y-3.4921
X5.5827Y-3.5394
X5.6496Y-3.7874
X5.6496Y-3.8189
X5.6496Y-3.8504
X5.6496Y-3.8819
X5.6496Y-3.9134
X5.6496Y-3.9449
X5.6496Y-3.9764
X5.6496Y-4.0079
X5.6496Y-4.0394
X5.6496Y-4.0709
X5.6732Y-3.5354
X5.6732Y-3.5591
X5.6732Y-3.5827
X5.7301Y-3.4168
X5.7303Y-3.4436
X5.7303Y-3.4685
X5.7323Y-3.6535
X5.7323Y-3.7244
X5.7323Y-3.7559
X5.7323Y-3.7874
X5.7323Y-3.8189
X5.7323Y-3.8504
X5.7323Y-3.8819
X5.7323Y-3.9134
X5.7323Y-3.9449
X5.7323Y-3.9764
X5.7323Y-4.0079
X5.7323Y-4.0394
X5.7323Y-4.0709
X5.7323Y-4.1024
X5.7874Y-3.5354
X5.7874Y-3.5608
X5.7874Y-3.5866
X5.811Y-4.4055
X5.813Y-3.7874
X5.813Y-3.8189
X5.813Y-3.8504
X5.813Y-3.8819
X5.813Y-3.9134
X5.813Y-3.9449
X5.813Y-3.9764
X5.813Y-4.0079
X5.813Y-4.0394
X5.813Y-4.0709
X5.874Y-3.4843
X5.8916Y-3.5253
X5.9191Y-3.5253
X5.9449Y-3.6339
X5.985Y-3.8276
X5.985Y-3.9276
X5.985Y-4.0276
X5.985Y-4.1276
X5.985Y-4.2276
X5.985Y-4.3276
X6.0187Y-3.6388
X6.0236Y-3.4449
X6.0236Y-3.4843
X6.0354Y-4.7874
X6.0551Y-3.4449
X6.0551Y-3.4843
X6.0591Y-3.5236
X6.085Y-3.8276
X6.085Y-3.9276
X6.085Y-4.0276
X6.085Y-4.1276
X6.085Y-4.2276
X6.1299Y-3.5709
X6.1299Y-3.6024
X6.1299Y-3.6378
X6.1504Y-3.0709
X6.1504Y-3.1709
X6.152Y-3.2638
X6.152Y-3.3638
X6.152Y-3.4638
X6.185Y-3.8276
X6.185Y-3.9276
X6.185Y-4.0276
X6.185Y-4.1276
X6.185Y-4.2276
X6.185Y-4.3276
X6.2504Y-3.0709
X6.2504Y-3.1709
X6.252Y-3.2638
X6.252Y-3.3638
X6.252Y-3.4638
X6.2764Y-4.1268
X6.2764Y-4.2268
X6.2764Y-4.3268
X6.2764Y-4.4268
X6.2764Y-4.5268
X6.3449Y-3.5709
X6.3449Y-3.6709
X6.3449Y-3.7709
X6.3504Y-3.1709
X6.352Y-3.2638
X6.352Y-3.3638
X6.352Y-3.4638
X6.3764Y-4.1268
X6.3764Y-4.2268
X6.3764Y-4.3268
X6.3764Y-4.4268
X6.3764Y-4.5268
X6.437Y-2.8646
X6.437Y-2.9646
X6.4449Y-3.5709
X6.4449Y-3.6709
X6.4449Y-3.7709
X6.4488Y-3.8583
X6.452Y-3.2638
X6.452Y-3.3638
X6.452Y-3.4638
X6.4764Y-4.1268
X6.4764Y-4.2268
X6.4764Y-4.3268
X6.4764Y-4.4268
X6.4764Y-4.5268
X6.537Y-2.8646
X6.537Y-2.9646
X6.537Y-3.0646
X6.5449Y-3.5709
X6.5449Y-3.6709
X6.5449Y-3.7709
X6.5488Y-3.8583
X6.5488Y-3.9583
X6.5827Y-4.3276
X6.5827Y-4.4276
X6.5827Y-4.5276
X6.637Y-2.8646
X6.637Y-2.9646
X6.637Y-3.0646
X6.6386Y-3.1583
X6.6386Y-3.2583
X6.6386Y-3.3583
X6.6449Y-3.6709
X6.6449Y-3.7709
X6.6488Y-3.8583
X6.6488Y-3.9583
X6.6488Y-4.0583
X6.685Y-4.7953
X6.7283Y-4.7953
X6.737Y-2.8646
X6.737Y-2.9646
X6.737Y-3.0646
X6.7386Y-3.1583
X6.7386Y-3.2583
X6.7386Y-3.3583
X6.7449Y-3.9567
X6.7449Y-4.0567
X6.7449Y-4.1567
X6.7717Y-4.2795
X6.8315Y-2.8669
X6.8315Y-2.9669
X6.8315Y-3.0669
X6.8386Y-3.1583
X6.8386Y-3.2583
X6.8386Y-3.3583
X6.8449Y-3.9567
X6.8449Y-4.0567
X6.8449Y-4.1567
X6.8543Y-4.2835
X6.8543Y-4.3835
X6.8543Y-4.4835
X6.9315Y-2.8669
X6.9315Y-2.9669
X6.9315Y-3.0669
X6.9449Y-3.9567
X6.9449Y-4.0567
X6.9449Y-4.1567
X6.9543Y-4.2835
X6.9543Y-4.3835
X6.9543Y-4.4835
X7.0315Y-2.8669
X7.0315Y-2.9669
X7.0315Y-3.0669
X7.0449Y-3.9567
X7.0449Y-4.0567
X7.0449Y-4.1567
X7.0543Y-4.2835
X7.0543Y-4.3835
X7.0543Y-4.4835
X7.0984Y-4.8661
X7.0984Y-4.9173
X7.1378Y-4.9173
X7.1409Y-4.8661
X7.1543Y-4.2835
X7.1543Y-4.3835
X7.1543Y-4.4835
X7.1803Y-4.9173
X7.1835Y-4.8661
X7.2228Y-4.9173
X7.226Y-4.8661
X7.2543Y-4.2835
X7.2543Y-4.3835
X7.2654Y-4.9173
X7.2685Y-4.8661
X7.3079Y-4.9173
X7.311Y-4.8661
X7.3504Y-4.8661
X7.3504Y-4.9173
X7.3543Y-4.2835
X7.3543Y-4.3835
X7.3543Y-4.4835
T2
X4.6047Y-4.4646
X4.6047Y-4.7756
X4.7047Y-4.4646
X4.7047Y-4.7756
X4.8047Y-4.4646
X4.8047Y-4.7756
X5.2268Y-4.4724
X5.2268Y-4.7756
X5.3268Y-4.4724
X5.3268Y-4.7756
X5.586Y-4.7756
X5.6362Y-4.4724
X5.686Y-4.7756
X5.7362Y-4.4724
X5.786Y-4.7756
T3
X4.4213Y-3.8504
X4.4213Y-4.0472
X7.259Y-3.6417
X7.259Y-3.8386
X7.259Y-4.4646
X7.259Y-4.6614
M30
