%TF.GenerationSoftware,KiCad,Pcbnew,9.0.4*%
%TF.CreationDate,2025-11-02T21:55:33-03:00*%
%TF.ProjectId,PowerPCB,506f7765-7250-4434-922e-6b696361645f,rev?*%
%TF.SameCoordinates,Original*%
%TF.FileFunction,Legend,Bot*%
%TF.FilePolarity,Positive*%
%FSLAX46Y46*%
G04 Gerber Fmt 4.6, Leading zero omitted, Abs format (unit mm)*
G04 Created by KiCad (PCBNEW 9.0.4) date 2025-11-02 21:55:33*
%MOMM*%
%LPD*%
G01*
G04 APERTURE LIST*
G04 Aperture macros list*
%AMRoundRect*
0 Rectangle with rounded corners*
0 $1 Rounding radius*
0 $2 $3 $4 $5 $6 $7 $8 $9 X,Y pos of 4 corners*
0 Add a 4 corners polygon primitive as box body*
4,1,4,$2,$3,$4,$5,$6,$7,$8,$9,$2,$3,0*
0 Add four circle primitives for the rounded corners*
1,1,$1+$1,$2,$3*
1,1,$1+$1,$4,$5*
1,1,$1+$1,$6,$7*
1,1,$1+$1,$8,$9*
0 Add four rect primitives between the rounded corners*
20,1,$1+$1,$2,$3,$4,$5,0*
20,1,$1+$1,$4,$5,$6,$7,0*
20,1,$1+$1,$6,$7,$8,$9,0*
20,1,$1+$1,$8,$9,$2,$3,0*%
G04 Aperture macros list end*
%ADD10C,0.150000*%
%ADD11C,0.120000*%
%ADD12RoundRect,0.250000X-1.050000X1.050000X-1.050000X-1.050000X1.050000X-1.050000X1.050000X1.050000X0*%
%ADD13C,2.600000*%
%ADD14R,1.700000X1.700000*%
%ADD15C,1.700000*%
%ADD16RoundRect,0.140000X-0.140000X-0.170000X0.140000X-0.170000X0.140000X0.170000X-0.140000X0.170000X0*%
%ADD17RoundRect,0.140000X0.140000X0.170000X-0.140000X0.170000X-0.140000X-0.170000X0.140000X-0.170000X0*%
G04 APERTURE END LIST*
D10*
X145242857Y-95219580D02*
X145290476Y-95267200D01*
X145290476Y-95267200D02*
X145433333Y-95314819D01*
X145433333Y-95314819D02*
X145528571Y-95314819D01*
X145528571Y-95314819D02*
X145671428Y-95267200D01*
X145671428Y-95267200D02*
X145766666Y-95171961D01*
X145766666Y-95171961D02*
X145814285Y-95076723D01*
X145814285Y-95076723D02*
X145861904Y-94886247D01*
X145861904Y-94886247D02*
X145861904Y-94743390D01*
X145861904Y-94743390D02*
X145814285Y-94552914D01*
X145814285Y-94552914D02*
X145766666Y-94457676D01*
X145766666Y-94457676D02*
X145671428Y-94362438D01*
X145671428Y-94362438D02*
X145528571Y-94314819D01*
X145528571Y-94314819D02*
X145433333Y-94314819D01*
X145433333Y-94314819D02*
X145290476Y-94362438D01*
X145290476Y-94362438D02*
X145242857Y-94410057D01*
X144861904Y-94410057D02*
X144814285Y-94362438D01*
X144814285Y-94362438D02*
X144719047Y-94314819D01*
X144719047Y-94314819D02*
X144480952Y-94314819D01*
X144480952Y-94314819D02*
X144385714Y-94362438D01*
X144385714Y-94362438D02*
X144338095Y-94410057D01*
X144338095Y-94410057D02*
X144290476Y-94505295D01*
X144290476Y-94505295D02*
X144290476Y-94600533D01*
X144290476Y-94600533D02*
X144338095Y-94743390D01*
X144338095Y-94743390D02*
X144909523Y-95314819D01*
X144909523Y-95314819D02*
X144290476Y-95314819D01*
X143338095Y-95314819D02*
X143909523Y-95314819D01*
X143623809Y-95314819D02*
X143623809Y-94314819D01*
X143623809Y-94314819D02*
X143719047Y-94457676D01*
X143719047Y-94457676D02*
X143814285Y-94552914D01*
X143814285Y-94552914D02*
X143909523Y-94600533D01*
X147142857Y-92899580D02*
X147190476Y-92947200D01*
X147190476Y-92947200D02*
X147333333Y-92994819D01*
X147333333Y-92994819D02*
X147428571Y-92994819D01*
X147428571Y-92994819D02*
X147571428Y-92947200D01*
X147571428Y-92947200D02*
X147666666Y-92851961D01*
X147666666Y-92851961D02*
X147714285Y-92756723D01*
X147714285Y-92756723D02*
X147761904Y-92566247D01*
X147761904Y-92566247D02*
X147761904Y-92423390D01*
X147761904Y-92423390D02*
X147714285Y-92232914D01*
X147714285Y-92232914D02*
X147666666Y-92137676D01*
X147666666Y-92137676D02*
X147571428Y-92042438D01*
X147571428Y-92042438D02*
X147428571Y-91994819D01*
X147428571Y-91994819D02*
X147333333Y-91994819D01*
X147333333Y-91994819D02*
X147190476Y-92042438D01*
X147190476Y-92042438D02*
X147142857Y-92090057D01*
X146190476Y-92994819D02*
X146761904Y-92994819D01*
X146476190Y-92994819D02*
X146476190Y-91994819D01*
X146476190Y-91994819D02*
X146571428Y-92137676D01*
X146571428Y-92137676D02*
X146666666Y-92232914D01*
X146666666Y-92232914D02*
X146761904Y-92280533D01*
X145333333Y-92328152D02*
X145333333Y-92994819D01*
X145571428Y-91947200D02*
X145809523Y-92661485D01*
X145809523Y-92661485D02*
X145190476Y-92661485D01*
D11*
%TO.C,C21*%
X144492164Y-93340000D02*
X144707836Y-93340000D01*
X144492164Y-94060000D02*
X144707836Y-94060000D01*
%TO.C,C14*%
X146607836Y-93340000D02*
X146392164Y-93340000D01*
X146607836Y-94060000D02*
X146392164Y-94060000D01*
%TD*%
%LPC*%
D12*
%TO.C,J5*%
X184377500Y-92500000D03*
D13*
X184377500Y-97500000D03*
%TD*%
D14*
%TO.C,J8*%
X145700000Y-113600000D03*
D15*
X143160000Y-113600000D03*
%TD*%
D12*
%TO.C,J1*%
X112300000Y-97800000D03*
D13*
X112300000Y-102800000D03*
%TD*%
D14*
%TO.C,J2*%
X135300000Y-113600000D03*
D15*
X132760000Y-113600000D03*
%TD*%
D12*
%TO.C,J4*%
X184377500Y-113400000D03*
D13*
X184377500Y-118400000D03*
%TD*%
D14*
%TO.C,J7*%
X146965000Y-121300000D03*
D15*
X144425000Y-121300000D03*
X141885000Y-121300000D03*
%TD*%
D14*
%TO.C,J9*%
X122040000Y-121300000D03*
D15*
X119500000Y-121300000D03*
X116960000Y-121300000D03*
%TD*%
D14*
%TO.C,J10*%
X135300000Y-121300000D03*
D15*
X132760000Y-121300000D03*
%TD*%
D14*
%TO.C,J3*%
X122040000Y-113400000D03*
D15*
X119500000Y-113400000D03*
X116960000Y-113400000D03*
%TD*%
D16*
%TO.C,C21*%
X144120000Y-93700000D03*
X145080000Y-93700000D03*
%TD*%
D17*
%TO.C,C14*%
X146980000Y-93700000D03*
X146020000Y-93700000D03*
%TD*%
%LPD*%
M02*
