%TF.GenerationSoftware,KiCad,Pcbnew,9.0.4*%
%TF.CreationDate,2025-11-02T21:55:33-03:00*%
%TF.ProjectId,PowerPCB,506f7765-7250-4434-922e-6b696361645f,rev?*%
%TF.SameCoordinates,Original*%
%TF.FileFunction,Copper,L1,Top*%
%TF.FilePolarity,Positive*%
%FSLAX46Y46*%
G04 Gerber Fmt 4.6, Leading zero omitted, Abs format (unit mm)*
G04 Created by KiCad (PCBNEW 9.0.4) date 2025-11-02 21:55:33*
%MOMM*%
%LPD*%
G01*
G04 APERTURE LIST*
G04 Aperture macros list*
%AMRoundRect*
0 Rectangle with rounded corners*
0 $1 Rounding radius*
0 $2 $3 $4 $5 $6 $7 $8 $9 X,Y pos of 4 corners*
0 Add a 4 corners polygon primitive as box body*
4,1,4,$2,$3,$4,$5,$6,$7,$8,$9,$2,$3,0*
0 Add four circle primitives for the rounded corners*
1,1,$1+$1,$2,$3*
1,1,$1+$1,$4,$5*
1,1,$1+$1,$6,$7*
1,1,$1+$1,$8,$9*
0 Add four rect primitives between the rounded corners*
20,1,$1+$1,$2,$3,$4,$5,0*
20,1,$1+$1,$4,$5,$6,$7,0*
20,1,$1+$1,$6,$7,$8,$9,0*
20,1,$1+$1,$8,$9,$2,$3,0*%
G04 Aperture macros list end*
%TA.AperFunction,EtchedComponent*%
%ADD10C,0.000000*%
%TD*%
%TA.AperFunction,SMDPad,CuDef*%
%ADD11RoundRect,0.225000X-0.225000X-0.250000X0.225000X-0.250000X0.225000X0.250000X-0.225000X0.250000X0*%
%TD*%
%TA.AperFunction,SMDPad,CuDef*%
%ADD12RoundRect,0.140000X-0.140000X-0.170000X0.140000X-0.170000X0.140000X0.170000X-0.140000X0.170000X0*%
%TD*%
%TA.AperFunction,ComponentPad*%
%ADD13RoundRect,0.250000X-1.050000X1.050000X-1.050000X-1.050000X1.050000X-1.050000X1.050000X1.050000X0*%
%TD*%
%TA.AperFunction,ComponentPad*%
%ADD14C,2.600000*%
%TD*%
%TA.AperFunction,SMDPad,CuDef*%
%ADD15RoundRect,0.250000X0.650000X-0.325000X0.650000X0.325000X-0.650000X0.325000X-0.650000X-0.325000X0*%
%TD*%
%TA.AperFunction,ComponentPad*%
%ADD16R,1.700000X1.700000*%
%TD*%
%TA.AperFunction,ComponentPad*%
%ADD17C,1.700000*%
%TD*%
%TA.AperFunction,SMDPad,CuDef*%
%ADD18RoundRect,0.249999X0.710001X3.000001X-0.710001X3.000001X-0.710001X-3.000001X0.710001X-3.000001X0*%
%TD*%
%TA.AperFunction,SMDPad,CuDef*%
%ADD19RoundRect,0.250000X0.750000X-1.650000X0.750000X1.650000X-0.750000X1.650000X-0.750000X-1.650000X0*%
%TD*%
%TA.AperFunction,SMDPad,CuDef*%
%ADD20RoundRect,0.225000X0.225000X0.250000X-0.225000X0.250000X-0.225000X-0.250000X0.225000X-0.250000X0*%
%TD*%
%TA.AperFunction,SMDPad,CuDef*%
%ADD21RoundRect,0.250000X-0.325000X-0.650000X0.325000X-0.650000X0.325000X0.650000X-0.325000X0.650000X0*%
%TD*%
%TA.AperFunction,SMDPad,CuDef*%
%ADD22RoundRect,0.250000X0.325000X0.650000X-0.325000X0.650000X-0.325000X-0.650000X0.325000X-0.650000X0*%
%TD*%
%TA.AperFunction,SMDPad,CuDef*%
%ADD23RoundRect,0.250000X-0.550000X1.500000X-0.550000X-1.500000X0.550000X-1.500000X0.550000X1.500000X0*%
%TD*%
%TA.AperFunction,SMDPad,CuDef*%
%ADD24RoundRect,0.140000X0.140000X0.170000X-0.140000X0.170000X-0.140000X-0.170000X0.140000X-0.170000X0*%
%TD*%
%TA.AperFunction,SMDPad,CuDef*%
%ADD25R,0.449986X0.350012*%
%TD*%
%TA.AperFunction,SMDPad,CuDef*%
%ADD26R,1.750009X0.449986*%
%TD*%
%TA.AperFunction,SMDPad,CuDef*%
%ADD27R,0.350012X0.350012*%
%TD*%
%TA.AperFunction,SMDPad,CuDef*%
%ADD28R,1.150010X0.350012*%
%TD*%
%TA.AperFunction,SMDPad,CuDef*%
%ADD29R,0.127000X0.127000*%
%TD*%
%TA.AperFunction,SMDPad,CuDef*%
%ADD30R,0.350012X0.787400*%
%TD*%
%TA.AperFunction,SMDPad,CuDef*%
%ADD31RoundRect,0.135000X-0.135000X-0.185000X0.135000X-0.185000X0.135000X0.185000X-0.135000X0.185000X0*%
%TD*%
%TA.AperFunction,SMDPad,CuDef*%
%ADD32RoundRect,0.135000X0.135000X0.185000X-0.135000X0.185000X-0.135000X-0.185000X0.135000X-0.185000X0*%
%TD*%
%TA.AperFunction,SMDPad,CuDef*%
%ADD33RoundRect,0.250000X-0.650000X0.325000X-0.650000X-0.325000X0.650000X-0.325000X0.650000X0.325000X0*%
%TD*%
%TA.AperFunction,SMDPad,CuDef*%
%ADD34RoundRect,0.250000X-1.650000X-0.750000X1.650000X-0.750000X1.650000X0.750000X-1.650000X0.750000X0*%
%TD*%
%TA.AperFunction,SMDPad,CuDef*%
%ADD35RoundRect,0.250000X-1.000000X1.500000X-1.000000X-1.500000X1.000000X-1.500000X1.000000X1.500000X0*%
%TD*%
%TA.AperFunction,SMDPad,CuDef*%
%ADD36R,0.609600X0.254000*%
%TD*%
%TA.AperFunction,SMDPad,CuDef*%
%ADD37R,0.254000X0.660400*%
%TD*%
%TA.AperFunction,SMDPad,CuDef*%
%ADD38R,0.254000X0.609600*%
%TD*%
%TA.AperFunction,SMDPad,CuDef*%
%ADD39R,0.254000X3.403600*%
%TD*%
%TA.AperFunction,SMDPad,CuDef*%
%ADD40R,0.254000X3.397602*%
%TD*%
%TA.AperFunction,SMDPad,CuDef*%
%ADD41RoundRect,0.135000X0.185000X-0.135000X0.185000X0.135000X-0.185000X0.135000X-0.185000X-0.135000X0*%
%TD*%
%TA.AperFunction,SMDPad,CuDef*%
%ADD42RoundRect,0.250000X0.312500X0.625000X-0.312500X0.625000X-0.312500X-0.625000X0.312500X-0.625000X0*%
%TD*%
%TA.AperFunction,SMDPad,CuDef*%
%ADD43RoundRect,0.225000X-0.250000X0.225000X-0.250000X-0.225000X0.250000X-0.225000X0.250000X0.225000X0*%
%TD*%
%TA.AperFunction,SMDPad,CuDef*%
%ADD44RoundRect,0.140000X0.170000X-0.140000X0.170000X0.140000X-0.170000X0.140000X-0.170000X-0.140000X0*%
%TD*%
%TA.AperFunction,ViaPad*%
%ADD45C,0.600000*%
%TD*%
%TA.AperFunction,Conductor*%
%ADD46C,0.200000*%
%TD*%
G04 APERTURE END LIST*
D10*
%TA.AperFunction,EtchedComponent*%
%TO.C,U2*%
G36*
X128674900Y-90574800D02*
G01*
X127525100Y-90574800D01*
X127525300Y-89575000D01*
X126924700Y-89575000D01*
X126924700Y-88775000D01*
X128674700Y-88775000D01*
X128674900Y-90574800D01*
G37*
%TD.AperFunction*%
%TD*%
D11*
%TO.P,C20,1*%
%TO.N,V_BAT+*%
X142925000Y-95000000D03*
%TO.P,C20,2*%
%TO.N,GND*%
X144475000Y-95000000D03*
%TD*%
D12*
%TO.P,C28,1*%
%TO.N,GND*%
X118620000Y-118000000D03*
%TO.P,C28,2*%
%TO.N,EN_5*%
X119580000Y-118000000D03*
%TD*%
D13*
%TO.P,J5,1,Pin_1*%
%TO.N,V_OUT_5+*%
X184377500Y-92500000D03*
D14*
%TO.P,J5,2,Pin_2*%
%TO.N,GND*%
X184377500Y-97500000D03*
%TD*%
D15*
%TO.P,C30,1*%
%TO.N,V_BAT+*%
X135400000Y-94300000D03*
%TO.P,C30,2*%
%TO.N,GND*%
X135400000Y-91350000D03*
%TD*%
D12*
%TO.P,C1,1*%
%TO.N,GND*%
X138720000Y-91200000D03*
%TO.P,C1,2*%
%TO.N,/DITH{slash}SYNC*%
X139680000Y-91200000D03*
%TD*%
D16*
%TO.P,J8,1,Pin_1*%
%TO.N,\u002ACC_12*%
X145700000Y-113600000D03*
D17*
%TO.P,J8,2,Pin_2*%
%TO.N,GND*%
X143160000Y-113600000D03*
%TD*%
D12*
%TO.P,C24,1*%
%TO.N,GND*%
X138720000Y-89700000D03*
%TO.P,C24,2*%
%TO.N,EN_12*%
X139680000Y-89700000D03*
%TD*%
D18*
%TO.P,L1,1,1*%
%TO.N,Net-(U1B-SW2)*%
X148010000Y-82100000D03*
%TO.P,L1,2,2*%
%TO.N,Net-(U1B-SW1)*%
X143190000Y-82100000D03*
%TD*%
D19*
%TO.P,TP1,1,1*%
%TO.N,Net-(U1B-SW1)*%
X139300000Y-82100000D03*
%TD*%
D12*
%TO.P,C2,1*%
%TO.N,GND*%
X138720000Y-88700000D03*
%TO.P,C2,2*%
%TO.N,VCC_12*%
X139680000Y-88700000D03*
%TD*%
D20*
%TO.P,C4,1*%
%TO.N,Net-(U1A-BOOT2)*%
X148875000Y-87200000D03*
%TO.P,C4,2*%
%TO.N,Net-(U1B-SW2)*%
X147325000Y-87200000D03*
%TD*%
D21*
%TO.P,C32,1*%
%TO.N,/VCC_5*%
X122725000Y-84300000D03*
%TO.P,C32,2*%
%TO.N,GND*%
X125675000Y-84300000D03*
%TD*%
D19*
%TO.P,TP4,1,1*%
%TO.N,Net-(U1B-SW2)*%
X151800000Y-81900000D03*
%TD*%
D22*
%TO.P,C10,1*%
%TO.N,V_OUT_12+*%
X149675000Y-99300000D03*
%TO.P,C10,2*%
%TO.N,GND*%
X146725000Y-99300000D03*
%TD*%
D21*
%TO.P,C18,1*%
%TO.N,V_BAT+*%
X141425000Y-99200000D03*
%TO.P,C18,2*%
%TO.N,GND*%
X144375000Y-99200000D03*
%TD*%
D23*
%TO.P,C9,1*%
%TO.N,V_OUT_12+*%
X154500000Y-111500000D03*
%TO.P,C9,2*%
%TO.N,GND*%
X154500000Y-116900000D03*
%TD*%
D24*
%TO.P,C15,1*%
%TO.N,V_OUT_12+*%
X146980000Y-93700000D03*
%TO.P,C15,2*%
%TO.N,GND*%
X146020000Y-93700000D03*
%TD*%
D25*
%TO.P,U2,1,SDA*%
%TO.N,SDA*%
X129150200Y-91000001D03*
%TO.P,U2,2,PG*%
%TO.N,PG_5*%
X129150200Y-90450000D03*
%TO.P,U2,3,EN*%
%TO.N,EN_5*%
X129150200Y-89900001D03*
%TO.P,U2,4,SCL*%
%TO.N,SCL*%
X129150200Y-89349999D03*
%TO.P,U2,5,VOS*%
%TO.N,V_OUT_5+*%
X129150200Y-88800000D03*
%TO.P,U2,6,ADDR*%
%TO.N,Net-(U2-ADDR)*%
X129150200Y-88249999D03*
D26*
%TO.P,U2,7,VOUT*%
%TO.N,V_OUT_5+*%
X127800000Y-88300000D03*
D25*
%TO.P,U2,8,PGND*%
%TO.N,GND*%
X126449800Y-88249999D03*
%TO.P,U2,9,AGND*%
X126449800Y-88800000D03*
%TO.P,U2,10,VCC*%
%TO.N,/VCC_5*%
X126449800Y-89349999D03*
%TO.P,U2,11,VIN*%
%TO.N,Net-(U2-VIN)*%
X126449800Y-89900001D03*
%TO.P,U2,12,PVIN*%
%TO.N,V_BAT+*%
X126449800Y-90450000D03*
%TO.P,U2,13,PVIN*%
X126449800Y-90999999D03*
D27*
%TO.P,U2,14,PVIN*%
X127100000Y-91000000D03*
D28*
%TO.P,U2,15,VSW*%
%TO.N,unconnected-(U2-VSW-Pad15)*%
X128100000Y-91000000D03*
D29*
%TO.P,U2,16,PGND*%
%TO.N,GND*%
X128100000Y-90100000D03*
D30*
%TO.P,U2,17,PVIN*%
%TO.N,V_BAT+*%
X127100000Y-90219000D03*
%TD*%
D31*
%TO.P,R5,1*%
%TO.N,Net-(U1A-CDC)*%
X151980335Y-89650616D03*
%TO.P,R5,2*%
%TO.N,GND*%
X153000335Y-89650616D03*
%TD*%
D13*
%TO.P,J1,1,Pin_1*%
%TO.N,V_BAT+*%
X112300000Y-97800000D03*
D14*
%TO.P,J1,2,Pin_2*%
%TO.N,GND*%
X112300000Y-102800000D03*
%TD*%
D32*
%TO.P,R11,1*%
%TO.N,Net-(J3-Pin_1)*%
X117950000Y-108900000D03*
%TO.P,R11,2*%
%TO.N,GND*%
X116930000Y-108900000D03*
%TD*%
D33*
%TO.P,C27,1*%
%TO.N,V_OUT_5+*%
X174000000Y-93250000D03*
%TO.P,C27,2*%
%TO.N,GND*%
X174000000Y-96200000D03*
%TD*%
D32*
%TO.P,R7,1*%
%TO.N,Net-(C8-Pad1)*%
X153000335Y-90650616D03*
%TO.P,R7,2*%
%TO.N,Net-(U1A-COMP)*%
X151980335Y-90650616D03*
%TD*%
D34*
%TO.P,TP11,1,1*%
%TO.N,Net-(U2-VIN)*%
X158300000Y-122500000D03*
%TD*%
D16*
%TO.P,J2,1,Pin_1*%
%TO.N,PG_12*%
X135300000Y-113600000D03*
D17*
%TO.P,J2,2,Pin_2*%
%TO.N,GND*%
X132760000Y-113600000D03*
%TD*%
D32*
%TO.P,R4,1*%
%TO.N,Net-(U1A-FSW)*%
X139710000Y-92200000D03*
%TO.P,R4,2*%
%TO.N,GND*%
X138690000Y-92200000D03*
%TD*%
D22*
%TO.P,C11,1*%
%TO.N,V_OUT_12+*%
X149675000Y-101700000D03*
%TO.P,C11,2*%
%TO.N,GND*%
X146725000Y-101700000D03*
%TD*%
D11*
%TO.P,C5,1*%
%TO.N,VCC_12*%
X150425000Y-88400000D03*
%TO.P,C5,2*%
%TO.N,GND*%
X151975000Y-88400000D03*
%TD*%
D32*
%TO.P,R17,1*%
%TO.N,V_BAT+*%
X123100000Y-117900000D03*
%TO.P,R17,2*%
%TO.N,Net-(J9-Pin_1)*%
X122080000Y-117900000D03*
%TD*%
%TO.P,R8,1*%
%TO.N,V_OUT_12+*%
X154910000Y-94700000D03*
%TO.P,R8,2*%
%TO.N,Net-(U1A-ISP)*%
X153890000Y-94700000D03*
%TD*%
D35*
%TO.P,C17,1*%
%TO.N,V_BAT+*%
X132500000Y-97992500D03*
%TO.P,C17,2*%
%TO.N,GND*%
X132500000Y-104492500D03*
%TD*%
D34*
%TO.P,TP8,1,1*%
%TO.N,GND*%
X112400000Y-108400000D03*
%TD*%
D11*
%TO.P,C35,1*%
%TO.N,Net-(U2-VIN)*%
X122625000Y-86400000D03*
%TO.P,C35,2*%
%TO.N,GND*%
X124175000Y-86400000D03*
%TD*%
D31*
%TO.P,R21,1*%
%TO.N,/VCC_5*%
X132890000Y-118300000D03*
%TO.P,R21,2*%
%TO.N,PG_5*%
X133910000Y-118300000D03*
%TD*%
D32*
%TO.P,R14,1*%
%TO.N,VBUS*%
X142900000Y-118600000D03*
%TO.P,R14,2*%
%TO.N,SDA*%
X141880000Y-118600000D03*
%TD*%
D22*
%TO.P,C12,1*%
%TO.N,V_OUT_12+*%
X149675000Y-96900000D03*
%TO.P,C12,2*%
%TO.N,GND*%
X146725000Y-96900000D03*
%TD*%
D32*
%TO.P,R3,1*%
%TO.N,GND*%
X154900335Y-92650616D03*
%TO.P,R3,2*%
%TO.N,Net-(U1A-FB)*%
X153880335Y-92650616D03*
%TD*%
D13*
%TO.P,J4,1,Pin_1*%
%TO.N,V_OUT_12+*%
X184377500Y-113400000D03*
D14*
%TO.P,J4,2,Pin_2*%
%TO.N,GND*%
X184377500Y-118400000D03*
%TD*%
D16*
%TO.P,J7,1,Pin_1*%
%TO.N,VBUS*%
X146965000Y-121300000D03*
D17*
%TO.P,J7,2,Pin_2*%
%TO.N,SCL*%
X144425000Y-121300000D03*
%TO.P,J7,3,Pin_3*%
%TO.N,SDA*%
X141885000Y-121300000D03*
%TD*%
D32*
%TO.P,R1,1*%
%TO.N,V_OUT_12+*%
X172610000Y-107690000D03*
%TO.P,R1,2*%
%TO.N,Net-(R1-Pad2)*%
X171590000Y-107690000D03*
%TD*%
%TO.P,R6,1*%
%TO.N,V_OUT_12+*%
X154910000Y-93700000D03*
%TO.P,R6,2*%
%TO.N,Net-(U1A-ISN)*%
X153890000Y-93700000D03*
%TD*%
D34*
%TO.P,TP7,1,1*%
%TO.N,V_BAT+*%
X112200000Y-92200000D03*
%TD*%
D20*
%TO.P,C13,1*%
%TO.N,V_OUT_12+*%
X148175000Y-95000000D03*
%TO.P,C13,2*%
%TO.N,GND*%
X146625000Y-95000000D03*
%TD*%
D12*
%TO.P,C8,1*%
%TO.N,Net-(C8-Pad1)*%
X153910335Y-90650616D03*
%TO.P,C8,2*%
%TO.N,GND*%
X154870335Y-90650616D03*
%TD*%
D16*
%TO.P,J9,1,Pin_1*%
%TO.N,Net-(J9-Pin_1)*%
X122040000Y-121300000D03*
D17*
%TO.P,J9,2,Pin_2*%
%TO.N,EN_5*%
X119500000Y-121300000D03*
%TO.P,J9,3,Pin_3*%
%TO.N,GND*%
X116960000Y-121300000D03*
%TD*%
D32*
%TO.P,R10,1*%
%TO.N,V_BAT+*%
X122850000Y-108900000D03*
%TO.P,R10,2*%
%TO.N,Net-(J3-Pin_1)*%
X121830000Y-108900000D03*
%TD*%
D31*
%TO.P,R22,1*%
%TO.N,V_BAT+*%
X121590000Y-87800000D03*
%TO.P,R22,2*%
%TO.N,Net-(U2-VIN)*%
X122610000Y-87800000D03*
%TD*%
D12*
%TO.P,C22,1*%
%TO.N,V_BAT+*%
X144120000Y-93700000D03*
%TO.P,C22,2*%
%TO.N,GND*%
X145080000Y-93700000D03*
%TD*%
%TO.P,C31,1*%
%TO.N,PG_5*%
X135220000Y-118300000D03*
%TO.P,C31,2*%
%TO.N,GND*%
X136180000Y-118300000D03*
%TD*%
D35*
%TO.P,C33,1*%
%TO.N,V_BAT+*%
X122700000Y-97950000D03*
%TO.P,C33,2*%
%TO.N,GND*%
X122700000Y-104450000D03*
%TD*%
D36*
%TO.P,U1,1,EN/UVLO*%
%TO.N,EN_12*%
X143149954Y-89698575D03*
%TO.P,U1,2,MODE*%
%TO.N,VCC_12*%
X143149954Y-90198701D03*
%TO.P,U1,3,PG*%
%TO.N,PG_12*%
X143149954Y-90698827D03*
%TO.P,U1,4,\u002ACC*%
%TO.N,\u002ACC_12*%
X143149954Y-91198953D03*
D37*
%TO.P,U1,5,DITH/SYNC*%
%TO.N,/DITH{slash}SYNC*%
X143549496Y-91823364D03*
D38*
%TO.P,U1,6,FSW*%
%TO.N,Net-(U1A-FSW)*%
X144049622Y-91848764D03*
D39*
%TO.P,U1,7,VIN*%
%TO.N,V_BAT+*%
X144549748Y-90445764D03*
%TO.P,U1,8,SW1*%
%TO.N,Net-(U1B-SW1)*%
X145049874Y-90445764D03*
D40*
%TO.P,U1,9,PGND*%
%TO.N,GND*%
X145550781Y-90448763D03*
D39*
%TO.P,U1,10,SW2*%
%TO.N,Net-(U1B-SW2)*%
X146050126Y-90445764D03*
%TO.P,U1,11,VOUT*%
%TO.N,V_OUT_12+*%
X146550252Y-90445764D03*
D38*
%TO.P,U1,12,ISP*%
%TO.N,Net-(U1A-ISP)*%
X147050378Y-91848764D03*
D37*
%TO.P,U1,13,ISN*%
%TO.N,Net-(U1A-ISN)*%
X147550504Y-91823364D03*
D36*
%TO.P,U1,14,FB*%
%TO.N,Net-(U1A-FB)*%
X147950046Y-91198953D03*
%TO.P,U1,15,COMP*%
%TO.N,Net-(U1A-COMP)*%
X147950046Y-90698827D03*
%TO.P,U1,16,CDC*%
%TO.N,Net-(U1A-CDC)*%
X147950046Y-90198701D03*
%TO.P,U1,17,AGND*%
%TO.N,GND*%
X147950046Y-89698575D03*
D37*
%TO.P,U1,18,VCC*%
%TO.N,VCC_12*%
X147550504Y-89074164D03*
D38*
%TO.P,U1,19,BOOT2*%
%TO.N,Net-(U1A-BOOT2)*%
X147050378Y-89048764D03*
%TO.P,U1,20,BOOT1*%
%TO.N,Net-(U1A-BOOT1)*%
X144049622Y-89048764D03*
D37*
%TO.P,U1,21,EXTVCC*%
%TO.N,VCC_12*%
X143549496Y-89074164D03*
%TD*%
D21*
%TO.P,C19,1*%
%TO.N,V_BAT+*%
X141425000Y-96900000D03*
%TO.P,C19,2*%
%TO.N,GND*%
X144375000Y-96900000D03*
%TD*%
D16*
%TO.P,J10,1,Pin_1*%
%TO.N,PG_5*%
X135300000Y-121300000D03*
D17*
%TO.P,J10,2,Pin_2*%
%TO.N,GND*%
X132760000Y-121300000D03*
%TD*%
D31*
%TO.P,R15,1*%
%TO.N,\u002ACC_12*%
X145690000Y-110600000D03*
%TO.P,R15,2*%
%TO.N,VCC_12*%
X146710000Y-110600000D03*
%TD*%
D41*
%TO.P,R2,1*%
%TO.N,Net-(R1-Pad2)*%
X151990335Y-92560616D03*
%TO.P,R2,2*%
%TO.N,Net-(U1A-FB)*%
X151990335Y-91540616D03*
%TD*%
D31*
%TO.P,R18,1*%
%TO.N,Net-(J9-Pin_1)*%
X122095000Y-118900000D03*
%TO.P,R18,2*%
%TO.N,GND*%
X123115000Y-118900000D03*
%TD*%
D33*
%TO.P,C26,1*%
%TO.N,V_OUT_5+*%
X176400000Y-93250000D03*
%TO.P,C26,2*%
%TO.N,GND*%
X176400000Y-96200000D03*
%TD*%
D31*
%TO.P,R12,1*%
%TO.N,PG_12*%
X135290000Y-110800000D03*
%TO.P,R12,2*%
%TO.N,VCC_12*%
X136310000Y-110800000D03*
%TD*%
D42*
%TO.P,R9,1*%
%TO.N,V_OUT_12+*%
X172262500Y-113000000D03*
%TO.P,R9,2*%
X169337500Y-113000000D03*
%TD*%
D12*
%TO.P,C7,1*%
%TO.N,Net-(U1A-COMP)*%
X153910335Y-91650616D03*
%TO.P,C7,2*%
%TO.N,GND*%
X154870335Y-91650616D03*
%TD*%
D32*
%TO.P,R16,1*%
%TO.N,GND*%
X132010000Y-88200000D03*
%TO.P,R16,2*%
%TO.N,Net-(U2-ADDR)*%
X130990000Y-88200000D03*
%TD*%
D34*
%TO.P,TP9,1,1*%
%TO.N,V_OUT_5+*%
X184532500Y-86100000D03*
%TD*%
D15*
%TO.P,C29,1*%
%TO.N,V_BAT+*%
X133000000Y-94325000D03*
%TO.P,C29,2*%
%TO.N,GND*%
X133000000Y-91375000D03*
%TD*%
D24*
%TO.P,C34,1*%
%TO.N,GND*%
X128780000Y-92100000D03*
%TO.P,C34,2*%
%TO.N,V_BAT+*%
X127820000Y-92100000D03*
%TD*%
D11*
%TO.P,C3,1*%
%TO.N,Net-(U1A-BOOT1)*%
X142425000Y-87200000D03*
%TO.P,C3,2*%
%TO.N,Net-(U1B-SW1)*%
X143975000Y-87200000D03*
%TD*%
D16*
%TO.P,J3,1,Pin_1*%
%TO.N,Net-(J3-Pin_1)*%
X122040000Y-113400000D03*
D17*
%TO.P,J3,2,Pin_2*%
%TO.N,EN_12*%
X119500000Y-113400000D03*
%TO.P,J3,3,Pin_3*%
%TO.N,GND*%
X116960000Y-113400000D03*
%TD*%
D12*
%TO.P,C23,1*%
%TO.N,GND*%
X132720000Y-110800000D03*
%TO.P,C23,2*%
%TO.N,PG_12*%
X133680000Y-110800000D03*
%TD*%
D43*
%TO.P,C16,1*%
%TO.N,V_OUT_12+*%
X176100000Y-115825000D03*
%TO.P,C16,2*%
%TO.N,GND*%
X176100000Y-117375000D03*
%TD*%
D12*
%TO.P,C25,1*%
%TO.N,GND*%
X143120000Y-110600000D03*
%TO.P,C25,2*%
%TO.N,\u002ACC_12*%
X144080000Y-110600000D03*
%TD*%
D34*
%TO.P,TP3,1,1*%
%TO.N,Net-(U1A-FB)*%
X166600000Y-122500000D03*
%TD*%
D44*
%TO.P,C6,1*%
%TO.N,Net-(U1A-ISP)*%
X149671732Y-93160024D03*
%TO.P,C6,2*%
%TO.N,Net-(U1A-ISN)*%
X149671732Y-92200024D03*
%TD*%
D32*
%TO.P,R13,1*%
%TO.N,VBUS*%
X145410000Y-118600000D03*
%TO.P,R13,2*%
%TO.N,SCL*%
X144390000Y-118600000D03*
%TD*%
D34*
%TO.P,TP2,1,1*%
%TO.N,Net-(R1-Pad2)*%
X175000000Y-122500000D03*
%TD*%
D45*
%TO.N,V_BAT+*%
X112800000Y-81980000D03*
X117960000Y-84500000D03*
X110260000Y-84520000D03*
X120580000Y-100300000D03*
X120500000Y-84500000D03*
X115420000Y-79420000D03*
X110260000Y-81980000D03*
X117960000Y-89580000D03*
X115420000Y-92120000D03*
X118500000Y-96540000D03*
X115420000Y-89580000D03*
X126120000Y-96540000D03*
X117960000Y-81960000D03*
X120500000Y-81960000D03*
X110260000Y-89600000D03*
X121660000Y-100300000D03*
X119500000Y-100300000D03*
X115420000Y-81960000D03*
X112800000Y-89600000D03*
X144100000Y-91000000D03*
X118500000Y-94000000D03*
X123580000Y-94000000D03*
X120500000Y-79420000D03*
X122740000Y-100300000D03*
X121040000Y-94000000D03*
X120500000Y-92120000D03*
X144100000Y-90400000D03*
X120500000Y-87040000D03*
X123600000Y-116700000D03*
X117960000Y-87040000D03*
X115420000Y-87040000D03*
X125900000Y-100300000D03*
X124900000Y-100300000D03*
X117960000Y-92120000D03*
X144100000Y-89800000D03*
X120500000Y-89580000D03*
X128660000Y-96540000D03*
X112800000Y-84520000D03*
X128660000Y-94000000D03*
X112800000Y-87060000D03*
X110260000Y-87060000D03*
X126120000Y-94000000D03*
X117960000Y-79420000D03*
X112800000Y-79440000D03*
X123820000Y-100300000D03*
X115420000Y-84500000D03*
X131200000Y-94000000D03*
%TO.N,PG_5*%
X130549676Y-90568291D03*
%TO.N,EN_5*%
X131024265Y-89924265D03*
%TO.N,V_OUT_12+*%
X152020000Y-107380000D03*
X159420000Y-114980000D03*
X161960000Y-107360000D03*
X174100000Y-113880000D03*
X157100000Y-109920000D03*
X181720000Y-108800000D03*
X184260000Y-111340000D03*
X181720000Y-111340000D03*
X167200000Y-109920000D03*
X181720000Y-113880000D03*
X167200000Y-115000000D03*
X176640000Y-111340000D03*
X161960000Y-109900000D03*
X152020000Y-109920000D03*
X186800000Y-111340000D03*
X161960000Y-114980000D03*
X161960000Y-112440000D03*
X164500000Y-104820000D03*
X186800000Y-113880000D03*
X159420000Y-107360000D03*
X164500000Y-109900000D03*
X157100000Y-99760000D03*
X157100000Y-97220000D03*
X154560000Y-102300000D03*
X147000000Y-90443543D03*
X154560000Y-104840000D03*
X167200000Y-112460000D03*
X157100000Y-107380000D03*
X154560000Y-107380000D03*
X179180000Y-108800000D03*
X159420000Y-112440000D03*
X184260000Y-108800000D03*
X164500000Y-112440000D03*
X176640000Y-108800000D03*
X147000000Y-91100000D03*
X174100000Y-111340000D03*
X161960000Y-104820000D03*
X152020000Y-99760000D03*
X176640000Y-113880000D03*
X152020000Y-102300000D03*
X159420000Y-109900000D03*
X164500000Y-114980000D03*
X152020000Y-97220000D03*
X179180000Y-113880000D03*
X157100000Y-104840000D03*
X154560000Y-99760000D03*
X186800000Y-108800000D03*
X152020000Y-104840000D03*
X164500000Y-107360000D03*
X154560000Y-97220000D03*
X179180000Y-111340000D03*
X157100000Y-102300000D03*
X147000000Y-89800000D03*
X159420000Y-104820000D03*
X174100000Y-108800000D03*
%TO.N,VCC_12*%
X147600000Y-111900000D03*
X141799998Y-89900000D03*
X141500000Y-88700000D03*
X149200000Y-88500000D03*
%TO.N,PG_12*%
X140900000Y-90000000D03*
%TO.N,\u002ACC_12*%
X140875737Y-90824266D03*
%TO.N,EN_12*%
X140500000Y-89300000D03*
%TO.N,V_OUT_5+*%
X168620000Y-80220000D03*
X168580000Y-77840000D03*
X129100000Y-72060000D03*
X134180000Y-72060000D03*
X127200000Y-83400000D03*
X171160000Y-82760000D03*
X176060000Y-75360000D03*
X171160000Y-80220000D03*
X166040000Y-77840000D03*
X128400000Y-86300000D03*
X128400000Y-87500000D03*
X128400000Y-82000000D03*
X127800000Y-87500000D03*
X128400000Y-83400000D03*
X173700000Y-82760000D03*
X173520000Y-72820000D03*
X129600000Y-86300000D03*
X168580000Y-75300000D03*
X131640000Y-74600000D03*
X127200000Y-82000000D03*
X127200000Y-88200000D03*
X127200000Y-86300000D03*
X173520000Y-77900000D03*
X128400000Y-88200000D03*
X166040000Y-75300000D03*
X130800000Y-84800000D03*
X127200000Y-84800000D03*
X168580000Y-72760000D03*
X173700000Y-80220000D03*
X136720000Y-74600000D03*
X130800000Y-83400000D03*
X168620000Y-85300000D03*
X131640000Y-77140000D03*
X171160000Y-85300000D03*
X134180000Y-74600000D03*
X131640000Y-72060000D03*
X178600000Y-75360000D03*
X176060000Y-72820000D03*
X178600000Y-77900000D03*
X166040000Y-72760000D03*
X176060000Y-77900000D03*
X130800000Y-82000000D03*
X127800000Y-88200000D03*
X129600000Y-84800000D03*
X171120000Y-75300000D03*
X129600000Y-83400000D03*
X163500000Y-75300000D03*
X129100000Y-74600000D03*
X173700000Y-85300000D03*
X168620000Y-82760000D03*
X178600000Y-72820000D03*
X171120000Y-72760000D03*
X136720000Y-72060000D03*
X163500000Y-72760000D03*
X173520000Y-75360000D03*
X128400000Y-84800000D03*
X130200000Y-88900000D03*
X134180000Y-77140000D03*
X171120000Y-77840000D03*
X127200000Y-87500000D03*
X129600000Y-82000000D03*
X129100000Y-77140000D03*
%TO.N,SDA*%
X130162239Y-91268217D03*
%TO.N,SCL*%
X130967329Y-89126291D03*
%TO.N,Net-(U1A-FB)*%
X169800000Y-121800000D03*
X152874859Y-92425141D03*
%TO.N,/VCC_5*%
X131000000Y-118600000D03*
X123376000Y-87400000D03*
%TO.N,Net-(R1-Pad2)*%
X170900000Y-121800000D03*
X172000000Y-108700000D03*
X151000000Y-92300000D03*
%TO.N,Net-(U2-VIN)*%
X153300000Y-121600000D03*
X123400000Y-89700000D03*
%TO.N,GND*%
X117900000Y-75000000D03*
X120360000Y-72460000D03*
X158760000Y-78000000D03*
X145600000Y-95400000D03*
X124300000Y-82900000D03*
X143500000Y-103400000D03*
X156260000Y-87980000D03*
X127851719Y-89083792D03*
X183540000Y-123600000D03*
X158800000Y-82900000D03*
X145600000Y-101800000D03*
X117900000Y-72460000D03*
X181380000Y-123600000D03*
X126300000Y-112280000D03*
X171320000Y-103040000D03*
X163800000Y-98000000D03*
X168880000Y-103080000D03*
X143500000Y-97000000D03*
X134960000Y-87060000D03*
X116580000Y-107360000D03*
X124200000Y-107360000D03*
X145600000Y-98600000D03*
X149645412Y-89541868D03*
X143500000Y-101000000D03*
X185700000Y-123600000D03*
X155700000Y-91500000D03*
X145550781Y-87466565D03*
X126300000Y-117000000D03*
X181300000Y-124900000D03*
X166240000Y-93240000D03*
X131380000Y-109740000D03*
X145600000Y-99400000D03*
X145600000Y-92800000D03*
X163700000Y-93240000D03*
X145550781Y-88100000D03*
X128400000Y-89700000D03*
X143500000Y-100200000D03*
X145600000Y-102600000D03*
X171320000Y-100500000D03*
X145544903Y-86787860D03*
X124300000Y-83900000D03*
X182460000Y-123600000D03*
X183460000Y-124900000D03*
X126300000Y-107200000D03*
X137500000Y-89600000D03*
X147650000Y-101800000D03*
X166240000Y-95780000D03*
X186700000Y-123600000D03*
X137500000Y-87060000D03*
X163700000Y-90700000D03*
X158800000Y-85440000D03*
X168880000Y-98000000D03*
X122900000Y-75000000D03*
X185620000Y-124900000D03*
X161340000Y-85440000D03*
X143500000Y-96200000D03*
X161300000Y-80540000D03*
X139000000Y-114460000D03*
X150345412Y-89541868D03*
X121660000Y-101817500D03*
X132420000Y-89600000D03*
X161340000Y-82900000D03*
X182380000Y-124900000D03*
X153800000Y-88500000D03*
X156260000Y-82900000D03*
X115360000Y-75000000D03*
X156220000Y-80540000D03*
X173860000Y-103040000D03*
X178940000Y-100500000D03*
X139000000Y-117000000D03*
X120580000Y-101817500D03*
X126300000Y-109740000D03*
X134960000Y-82000000D03*
X128840000Y-107200000D03*
X128840000Y-109740000D03*
X133920000Y-109740000D03*
X147650000Y-100200000D03*
X136460000Y-109740000D03*
X173860000Y-100500000D03*
X137500000Y-82000000D03*
X125000000Y-88600000D03*
X176400000Y-105580000D03*
X132420000Y-84520000D03*
X145600000Y-103400000D03*
X147650000Y-99400000D03*
X168780000Y-95780000D03*
X122740000Y-101817500D03*
X125700000Y-80900000D03*
X127300000Y-89100000D03*
X161160000Y-90700000D03*
X133920000Y-107200000D03*
X163700000Y-95780000D03*
X180300000Y-123600000D03*
X123820000Y-101817500D03*
X147650000Y-97800000D03*
X168780000Y-93240000D03*
X153000000Y-88500000D03*
X143500000Y-98600000D03*
X128351719Y-89083792D03*
X178940000Y-105580000D03*
X145600000Y-104200000D03*
X119120000Y-107360000D03*
X119500000Y-101817500D03*
X158760000Y-80540000D03*
X128400000Y-90300000D03*
X156260000Y-85440000D03*
X176400000Y-103040000D03*
X127900000Y-90300000D03*
X147650000Y-96200000D03*
X155700000Y-92400000D03*
X134960000Y-89600000D03*
X145600000Y-97800000D03*
X143500000Y-102600000D03*
X137500000Y-79460000D03*
X124300000Y-81900000D03*
X130280000Y-101900000D03*
X158800000Y-87980000D03*
X168880000Y-100540000D03*
X143500000Y-101800000D03*
X145600000Y-101000000D03*
X147650000Y-103400000D03*
X161340000Y-87980000D03*
X184540000Y-124900000D03*
X155700000Y-90700000D03*
X178940000Y-103040000D03*
X128840000Y-112280000D03*
X131360000Y-101900000D03*
X153900000Y-89500000D03*
X127900000Y-89700000D03*
X124900000Y-101817500D03*
X110280000Y-75000000D03*
X153000000Y-87500000D03*
X112820000Y-75000000D03*
X129200000Y-101900000D03*
X171320000Y-105580000D03*
X163880000Y-85440000D03*
X125700000Y-81900000D03*
X163880000Y-82900000D03*
X166340000Y-100540000D03*
X136460000Y-107200000D03*
X136460000Y-117000000D03*
X173860000Y-105580000D03*
X176400000Y-100500000D03*
X145600000Y-96200000D03*
X112820000Y-72460000D03*
X132420000Y-87060000D03*
X132440000Y-101900000D03*
X161160000Y-95780000D03*
X145600000Y-100200000D03*
X131380000Y-107200000D03*
X115360000Y-72460000D03*
X163880000Y-87980000D03*
X180300000Y-124900000D03*
X156220000Y-78000000D03*
X120360000Y-75000000D03*
X147650000Y-102600000D03*
X145600000Y-97000000D03*
X186700000Y-124900000D03*
X161160000Y-93240000D03*
X147650000Y-97000000D03*
X133520000Y-101900000D03*
X134960000Y-84520000D03*
X145600000Y-94600000D03*
X116580000Y-109900000D03*
X166240000Y-90700000D03*
X139000000Y-112280000D03*
X184620000Y-123600000D03*
X139000000Y-107200000D03*
X124200000Y-87700000D03*
X134600000Y-101900000D03*
X122900000Y-72460000D03*
X143500000Y-97800000D03*
X137500000Y-84520000D03*
X166340000Y-98000000D03*
X126300000Y-114460000D03*
X143500000Y-99400000D03*
X153800000Y-87500000D03*
X125900000Y-101817500D03*
X128840000Y-117000000D03*
X119120000Y-109900000D03*
X124300000Y-80900000D03*
X139000000Y-109740000D03*
X147650000Y-101000000D03*
X135600000Y-101900000D03*
X110280000Y-72460000D03*
X124300000Y-84900000D03*
X125000000Y-87700000D03*
X147650000Y-98600000D03*
%TD*%
D46*
%TO.N,V_BAT+*%
X123100000Y-117900000D02*
X123100000Y-117200000D01*
X122850000Y-108900000D02*
X123600000Y-109650000D01*
X123600000Y-109650000D02*
X123600000Y-116700000D01*
X123100000Y-117200000D02*
X123600000Y-116700000D01*
%TO.N,PG_5*%
X135220000Y-118300000D02*
X135220000Y-121220000D01*
X133910000Y-118300000D02*
X135220000Y-118300000D01*
X129150200Y-90450000D02*
X130431385Y-90450000D01*
X130431385Y-90450000D02*
X130549676Y-90568291D01*
%TO.N,EN_5*%
X129174464Y-89924265D02*
X131024265Y-89924265D01*
X129150200Y-89900001D02*
X129174464Y-89924265D01*
X119500000Y-121300000D02*
X119500000Y-118080000D01*
%TO.N,Net-(U1A-BOOT1)*%
X142425000Y-87200000D02*
X144049622Y-88824622D01*
X144049622Y-88824622D02*
X144049622Y-89048764D01*
%TO.N,Net-(U1A-BOOT2)*%
X148300000Y-87200000D02*
X148076000Y-87424000D01*
X147774110Y-87976000D02*
X147524000Y-87976000D01*
X147524000Y-87976000D02*
X147050378Y-88449622D01*
X147050378Y-88449622D02*
X147050378Y-88865090D01*
X148715468Y-87200000D02*
X148300000Y-87200000D01*
X148076000Y-87424000D02*
X148076000Y-87674110D01*
X148076000Y-87674110D02*
X147774110Y-87976000D01*
%TO.N,V_OUT_12+*%
X156500000Y-94700000D02*
X154910000Y-94700000D01*
X156300000Y-93700000D02*
X154910000Y-93700000D01*
X169900000Y-113000000D02*
X170400000Y-112500000D01*
X171400000Y-113000000D02*
X170900000Y-112500000D01*
X170900000Y-112500000D02*
X171000000Y-112400000D01*
X170400000Y-112500000D02*
X170400000Y-108600000D01*
X170400000Y-108600000D02*
X156500000Y-94700000D01*
X169337500Y-113000000D02*
X169900000Y-113000000D01*
X171000000Y-112400000D02*
X171000000Y-108400000D01*
X175190000Y-107690000D02*
X175300000Y-107800000D01*
X172262500Y-113000000D02*
X171400000Y-113000000D01*
X171000000Y-108400000D02*
X156300000Y-93700000D01*
X172610000Y-107690000D02*
X175190000Y-107690000D01*
%TO.N,Net-(U1A-COMP)*%
X153059995Y-91650616D02*
X153910335Y-91650616D01*
X147950046Y-90698827D02*
X152108206Y-90698827D01*
X152108206Y-90698827D02*
X153059995Y-91650616D01*
%TO.N,Net-(U1A-ISN)*%
X147550504Y-91823364D02*
X147927164Y-92200024D01*
X151171708Y-93700000D02*
X153890000Y-93700000D01*
X149671732Y-92200024D02*
X151171708Y-93700000D01*
X147927164Y-92200024D02*
X149671732Y-92200024D01*
%TO.N,Net-(U1A-ISP)*%
X151211708Y-94700000D02*
X153890000Y-94700000D01*
X147050378Y-92026564D02*
X148183838Y-93160024D01*
X148183838Y-93160024D02*
X149671732Y-93160024D01*
X149671732Y-93160024D02*
X151211708Y-94700000D01*
%TO.N,VCC_12*%
X136310000Y-110800000D02*
X138110000Y-109000000D01*
X145110000Y-109000000D02*
X146710000Y-110600000D01*
X141799998Y-89900000D02*
X142098699Y-90198701D01*
X141500000Y-88700000D02*
X143175332Y-88700000D01*
X143175332Y-88700000D02*
X143549496Y-89074164D01*
X146710000Y-110600000D02*
X146710000Y-111010000D01*
X139680000Y-88700000D02*
X141500000Y-88700000D01*
X146710000Y-111010000D02*
X147600000Y-111900000D01*
X142098699Y-90198701D02*
X143149954Y-90198701D01*
X138110000Y-109000000D02*
X145110000Y-109000000D01*
%TO.N,PG_12*%
X143149954Y-90698827D02*
X141598827Y-90698827D01*
X135300000Y-110810000D02*
X135300000Y-113600000D01*
X141598827Y-90698827D02*
X140900000Y-90000000D01*
X133680000Y-110800000D02*
X135290000Y-110800000D01*
%TO.N,\u002ACC_12*%
X144080000Y-110600000D02*
X145690000Y-110600000D01*
X145690000Y-110600000D02*
X145690000Y-113590000D01*
X143149954Y-91198953D02*
X141250424Y-91198953D01*
X141250424Y-91198953D02*
X140875737Y-90824266D01*
%TO.N,EN_12*%
X140500000Y-89300000D02*
X142751379Y-89300000D01*
X142751379Y-89300000D02*
X143149954Y-89698575D01*
X139680000Y-89700000D02*
X140080000Y-89300000D01*
X140080000Y-89300000D02*
X140500000Y-89300000D01*
%TO.N,V_OUT_5+*%
X129150200Y-88800000D02*
X130100000Y-88800000D01*
X130100000Y-88800000D02*
X130200000Y-88900000D01*
%TO.N,SDA*%
X129894023Y-91000001D02*
X130162239Y-91268217D01*
X129150200Y-91000001D02*
X129894023Y-91000001D01*
X129150200Y-91000001D02*
X129251200Y-91101001D01*
X141885000Y-121300000D02*
X141885000Y-118605000D01*
%TO.N,SCL*%
X129150200Y-89349999D02*
X129800056Y-89349999D01*
X129800056Y-89349999D02*
X129951057Y-89501000D01*
X130592620Y-89501000D02*
X130967329Y-89126291D01*
X129951057Y-89501000D02*
X130592620Y-89501000D01*
X144425000Y-121300000D02*
X144425000Y-118635000D01*
%TO.N,VBUS*%
X144789000Y-117979000D02*
X145410000Y-118600000D01*
X142900000Y-118600000D02*
X143521000Y-117979000D01*
X143521000Y-117979000D02*
X144789000Y-117979000D01*
X146965000Y-120165000D02*
X146965000Y-121300000D01*
X145410000Y-118610000D02*
X146965000Y-120165000D01*
%TO.N,Net-(U1A-FB)*%
X166600000Y-122500000D02*
X169100000Y-122500000D01*
X152874859Y-92425141D02*
X153100335Y-92650616D01*
X151990335Y-91540616D02*
X152874859Y-92425141D01*
X147950046Y-91198953D02*
X148291709Y-91540616D01*
X153100335Y-92650616D02*
X153880335Y-92650616D01*
X169100000Y-122500000D02*
X169800000Y-121800000D01*
X148291709Y-91540616D02*
X151990335Y-91540616D01*
%TO.N,Net-(U1A-FSW)*%
X139863564Y-92353564D02*
X143722622Y-92353564D01*
X143722622Y-92353564D02*
X144049622Y-92026564D01*
%TO.N,Net-(U1A-CDC)*%
X151432250Y-90198701D02*
X147950046Y-90198701D01*
X151980335Y-89650616D02*
X151432250Y-90198701D01*
%TO.N,Net-(C8-Pad1)*%
X153910335Y-90650616D02*
X153000335Y-90650616D01*
%TO.N,/VCC_5*%
X124224944Y-89349999D02*
X126449800Y-89349999D01*
X131300000Y-118300000D02*
X131000000Y-118600000D01*
X123376000Y-88501055D02*
X124224944Y-89349999D01*
X132890000Y-118300000D02*
X131300000Y-118300000D01*
X123376000Y-87400000D02*
X123376000Y-88501055D01*
X123376000Y-84951000D02*
X122725000Y-84300000D01*
X123376000Y-87400000D02*
X123376000Y-84951000D01*
%TO.N,Net-(J9-Pin_1)*%
X122040000Y-121300000D02*
X122040000Y-117940000D01*
%TO.N,Net-(R1-Pad2)*%
X171590000Y-108290000D02*
X172000000Y-108700000D01*
X171590000Y-107690000D02*
X171590000Y-108290000D01*
X151260616Y-92560616D02*
X151000000Y-92300000D01*
X171600000Y-122500000D02*
X170900000Y-121800000D01*
X151990335Y-92560616D02*
X151260616Y-92560616D01*
X175000000Y-122500000D02*
X171600000Y-122500000D01*
%TO.N,Net-(U2-ADDR)*%
X129150200Y-88249999D02*
X130940001Y-88249999D01*
%TO.N,Net-(U2-VIN)*%
X122625000Y-86400000D02*
X122625000Y-87785000D01*
X158300000Y-122500000D02*
X154200000Y-122500000D01*
X122610000Y-87800000D02*
X122610000Y-88910000D01*
X154200000Y-122500000D02*
X153300000Y-121600000D01*
X122610000Y-88910000D02*
X123400000Y-89700000D01*
X123600001Y-89900001D02*
X126449800Y-89900001D01*
X123400000Y-89700000D02*
X123600001Y-89900001D01*
%TO.N,GND*%
X145550781Y-86793738D02*
X145544903Y-86787860D01*
X132760000Y-113600000D02*
X132760000Y-110840000D01*
X145550781Y-90448763D02*
X145550781Y-87466565D01*
X145550781Y-88100000D02*
X145550781Y-86793738D01*
X143120000Y-110600000D02*
X143120000Y-113560000D01*
%TO.N,/DITH{slash}SYNC*%
X140303364Y-91823364D02*
X143549496Y-91823364D01*
X139680000Y-91200000D02*
X140303364Y-91823364D01*
%TO.N,Net-(J3-Pin_1)*%
X117950000Y-108900000D02*
X121830000Y-108900000D01*
X121830000Y-109090000D02*
X122040000Y-109300000D01*
X122040000Y-109300000D02*
X122040000Y-113400000D01*
%TD*%
%TA.AperFunction,Conductor*%
%TO.N,Net-(U2-VIN)*%
G36*
X156479806Y-121576561D02*
G01*
X158280420Y-122489565D01*
X158286249Y-122496363D01*
X158285564Y-122505291D01*
X158280420Y-122510435D01*
X156479806Y-123423438D01*
X156470878Y-123424123D01*
X156467375Y-123422272D01*
X155404560Y-122603512D01*
X155400097Y-122595748D01*
X155400000Y-122594243D01*
X155400000Y-122405756D01*
X155403427Y-122397483D01*
X155404560Y-122396487D01*
X156467377Y-121577726D01*
X156476020Y-121575393D01*
X156479806Y-121576561D01*
G37*
%TD.AperFunction*%
%TD*%
%TA.AperFunction,Conductor*%
%TO.N,SCL*%
G36*
X144526048Y-119619760D02*
G01*
X144528236Y-119622793D01*
X145127129Y-120818541D01*
X145127770Y-120827473D01*
X145123178Y-120833503D01*
X144431510Y-121296640D01*
X144422729Y-121298395D01*
X144418490Y-121296640D01*
X143726821Y-120833503D01*
X143721854Y-120826052D01*
X143722869Y-120818543D01*
X144321764Y-119622792D01*
X144328533Y-119616931D01*
X144332225Y-119616333D01*
X144517775Y-119616333D01*
X144526048Y-119619760D01*
G37*
%TD.AperFunction*%
%TD*%
%TA.AperFunction,Conductor*%
%TO.N,Net-(U2-VIN)*%
G36*
X126230247Y-89729207D02*
G01*
X126438853Y-89890749D01*
X126443296Y-89898524D01*
X126440940Y-89907164D01*
X126438853Y-89909251D01*
X126230250Y-90070791D01*
X126221610Y-90073147D01*
X126218477Y-90072294D01*
X126056892Y-90003040D01*
X126050638Y-89996631D01*
X126049801Y-89992286D01*
X126049801Y-89807715D01*
X126053228Y-89799442D01*
X126056888Y-89796963D01*
X126218479Y-89727706D01*
X126227432Y-89727598D01*
X126230247Y-89729207D01*
G37*
%TD.AperFunction*%
%TD*%
%TA.AperFunction,Conductor*%
%TO.N,PG_5*%
G36*
X129381520Y-90277705D02*
G01*
X129543109Y-90346961D01*
X129549362Y-90353369D01*
X129550199Y-90357714D01*
X129550199Y-90542285D01*
X129546772Y-90550558D01*
X129543108Y-90553039D01*
X129381522Y-90622293D01*
X129372568Y-90622402D01*
X129369749Y-90620790D01*
X129161146Y-90459250D01*
X129156703Y-90451475D01*
X129159059Y-90442835D01*
X129161140Y-90440753D01*
X129369751Y-90279208D01*
X129378388Y-90276853D01*
X129381520Y-90277705D01*
G37*
%TD.AperFunction*%
%TD*%
%TA.AperFunction,Conductor*%
%TO.N,EN_5*%
G36*
X129381468Y-89741430D02*
G01*
X129469152Y-89784476D01*
X129543655Y-89821052D01*
X129549571Y-89827774D01*
X129550199Y-89831555D01*
X129550199Y-90015475D01*
X129546772Y-90023748D01*
X129541757Y-90026712D01*
X129380910Y-90073349D01*
X129372010Y-90072362D01*
X129370488Y-90071363D01*
X129161626Y-89909623D01*
X129157183Y-89901848D01*
X129159539Y-89893208D01*
X129161977Y-89890861D01*
X129369506Y-89742416D01*
X129378228Y-89740391D01*
X129381468Y-89741430D01*
G37*
%TD.AperFunction*%
%TD*%
%TA.AperFunction,Conductor*%
%TO.N,SDA*%
G36*
X141986048Y-119619760D02*
G01*
X141988236Y-119622793D01*
X142587129Y-120818541D01*
X142587770Y-120827473D01*
X142583178Y-120833503D01*
X141891510Y-121296640D01*
X141882729Y-121298395D01*
X141878490Y-121296640D01*
X141186821Y-120833503D01*
X141181854Y-120826052D01*
X141182869Y-120818543D01*
X141781764Y-119622792D01*
X141788533Y-119616931D01*
X141792225Y-119616333D01*
X141977775Y-119616333D01*
X141986048Y-119619760D01*
G37*
%TD.AperFunction*%
%TD*%
%TA.AperFunction,Conductor*%
%TO.N,VBUS*%
G36*
X146644333Y-119701005D02*
G01*
X147099815Y-120049830D01*
X147613017Y-120442859D01*
X147617501Y-120450610D01*
X147615192Y-120459262D01*
X147615165Y-120459297D01*
X146973835Y-121290176D01*
X146966067Y-121294631D01*
X146957424Y-121292289D01*
X146956300Y-121291300D01*
X146121551Y-120456551D01*
X146118124Y-120448278D01*
X146119874Y-120442122D01*
X146494063Y-119837344D01*
X146495732Y-119835237D01*
X146628948Y-119702021D01*
X146637220Y-119698595D01*
X146644333Y-119701005D01*
G37*
%TD.AperFunction*%
%TD*%
%TA.AperFunction,Conductor*%
%TO.N,V_BAT+*%
G36*
X119909886Y-77483542D02*
G01*
X119976904Y-77503292D01*
X120001058Y-77523630D01*
X121948416Y-79642322D01*
X121979289Y-79705000D01*
X121981121Y-79725982D01*
X121988681Y-83440159D01*
X121981723Y-83481364D01*
X121952354Y-83565298D01*
X121952353Y-83565305D01*
X121949500Y-83595730D01*
X121949500Y-85004269D01*
X121952353Y-85034694D01*
X121952353Y-85034698D01*
X121985243Y-85128693D01*
X121992201Y-85169395D01*
X121993863Y-85985957D01*
X121990551Y-86007039D01*
X121991807Y-86007238D01*
X121974500Y-86116506D01*
X121974500Y-86683493D01*
X121991807Y-86792765D01*
X121991424Y-86792825D01*
X121995559Y-86818760D01*
X122000000Y-89000000D01*
X122717109Y-89904500D01*
X122971205Y-90224994D01*
X122971206Y-90224994D01*
X126027647Y-90224994D01*
X126028240Y-90225081D01*
X126028536Y-90224997D01*
X126030615Y-90225431D01*
X126063434Y-90230270D01*
X126070093Y-90232277D01*
X126137523Y-90261177D01*
X126164492Y-90270576D01*
X126167625Y-90271429D01*
X126184297Y-90275231D01*
X126200304Y-90274561D01*
X126205059Y-90275507D01*
X126213507Y-90275507D01*
X126694543Y-90275507D01*
X126694544Y-90275506D01*
X126709361Y-90272559D01*
X126753022Y-90263875D01*
X126753022Y-90263874D01*
X126753024Y-90263874D01*
X126811211Y-90224994D01*
X126849793Y-90224994D01*
X126849814Y-90173958D01*
X126863660Y-90153238D01*
X126873514Y-90103701D01*
X126875293Y-90094757D01*
X126875293Y-89904500D01*
X126877843Y-89895814D01*
X126876555Y-89886853D01*
X126887533Y-89862812D01*
X126894978Y-89837461D01*
X126901818Y-89831533D01*
X126905580Y-89823297D01*
X126927814Y-89809007D01*
X126947782Y-89791706D01*
X126958296Y-89789418D01*
X126964358Y-89785523D01*
X126999293Y-89780500D01*
X127195734Y-89780500D01*
X127262773Y-89800185D01*
X127308528Y-89852989D01*
X127319734Y-89904525D01*
X127319599Y-90574753D01*
X127324751Y-90620526D01*
X127324753Y-90620531D01*
X127327218Y-90625651D01*
X127339487Y-90680847D01*
X127333964Y-91169581D01*
X127333965Y-91169584D01*
X127829561Y-91609788D01*
X128058347Y-91813003D01*
X128095397Y-91872239D01*
X128100000Y-91905711D01*
X128100000Y-92400000D01*
X128700000Y-93000000D01*
X128904240Y-93000000D01*
X128921887Y-93001262D01*
X128925327Y-93001756D01*
X128951362Y-93005500D01*
X128951363Y-93005500D01*
X138818639Y-93005500D01*
X138821180Y-93005363D01*
X138840607Y-93004322D01*
X138840614Y-93004321D01*
X138840618Y-93004321D01*
X138873021Y-93000837D01*
X138873083Y-93001421D01*
X138886883Y-93000000D01*
X143699999Y-93000000D01*
X143700000Y-93000000D01*
X144427864Y-92196503D01*
X144427864Y-91543254D01*
X144427864Y-91543253D01*
X143903018Y-91318319D01*
X143849153Y-91273818D01*
X143827898Y-91207259D01*
X143827864Y-91204345D01*
X143827864Y-89679644D01*
X143847549Y-89612605D01*
X143900353Y-89566850D01*
X143917796Y-89560415D01*
X144427864Y-89414682D01*
X144427864Y-88926708D01*
X144433449Y-88907686D01*
X144434103Y-88887871D01*
X144443091Y-88874848D01*
X144447549Y-88859669D01*
X144462529Y-88846688D01*
X144473794Y-88830369D01*
X144488397Y-88824273D01*
X144500353Y-88813914D01*
X144519974Y-88811092D01*
X144538272Y-88803455D01*
X144553850Y-88806221D01*
X144569511Y-88803970D01*
X144587546Y-88812206D01*
X144607065Y-88815673D01*
X144630386Y-88831770D01*
X144633067Y-88832995D01*
X144636112Y-88835723D01*
X144656070Y-88854203D01*
X144691886Y-88914194D01*
X144695817Y-88944046D01*
X144718377Y-91392835D01*
X144723268Y-91435553D01*
X144724907Y-91442919D01*
X144727864Y-91469839D01*
X144727864Y-92178118D01*
X144708179Y-92245157D01*
X144703064Y-92252518D01*
X144635700Y-92342337D01*
X144635700Y-92462884D01*
X144623044Y-92511461D01*
X144625207Y-92512370D01*
X144622512Y-92518783D01*
X144602826Y-92585822D01*
X144602825Y-92585827D01*
X144602825Y-92585828D01*
X144595959Y-92633585D01*
X144594500Y-92643729D01*
X144594500Y-93690322D01*
X144574815Y-93757361D01*
X144539284Y-93793495D01*
X144478764Y-93833842D01*
X144478755Y-93833849D01*
X144436846Y-93870950D01*
X144393248Y-93921718D01*
X144393243Y-93921724D01*
X144389590Y-93927387D01*
X144373077Y-93947841D01*
X144354088Y-93966830D01*
X144318812Y-93991531D01*
X144307091Y-93996997D01*
X144284785Y-94004906D01*
X144236706Y-94016935D01*
X144236697Y-94016938D01*
X144184125Y-94036693D01*
X144184120Y-94036695D01*
X144142412Y-94058077D01*
X144142399Y-94058084D01*
X143941223Y-94192203D01*
X143941211Y-94192212D01*
X143918047Y-94210169D01*
X143891769Y-94233725D01*
X143891760Y-94233735D01*
X143890196Y-94235899D01*
X143880659Y-94249094D01*
X143879918Y-94248365D01*
X143873155Y-94255243D01*
X143867159Y-94261606D01*
X143851890Y-94288900D01*
X143847676Y-94294732D01*
X143847677Y-94294732D01*
X143840602Y-94304521D01*
X143840601Y-94304524D01*
X143833981Y-94319687D01*
X143831538Y-94325282D01*
X143822510Y-94341423D01*
X143818434Y-94355300D01*
X143815311Y-94362455D01*
X143815309Y-94362462D01*
X143812652Y-94368550D01*
X143812636Y-94368589D01*
X143800972Y-94400505D01*
X143799539Y-94399981D01*
X143771111Y-94452859D01*
X143770543Y-94453431D01*
X143627864Y-94596111D01*
X143627864Y-95234374D01*
X143608179Y-95301413D01*
X143570918Y-95338680D01*
X143216660Y-95566417D01*
X143186025Y-95586111D01*
X143139116Y-95586111D01*
X143054682Y-95670544D01*
X143043471Y-95677752D01*
X142745824Y-95869096D01*
X142745823Y-95869097D01*
X142711619Y-95896667D01*
X142674345Y-95933948D01*
X142667157Y-95941513D01*
X142667156Y-95941515D01*
X142622512Y-96021327D01*
X142622508Y-96021336D01*
X142602823Y-96088375D01*
X142601882Y-96092703D01*
X142600626Y-96092429D01*
X142573953Y-96150827D01*
X142567928Y-96157297D01*
X142539116Y-96186108D01*
X142539116Y-99641552D01*
X142519431Y-99708591D01*
X142486225Y-99743137D01*
X140885423Y-100863696D01*
X140819214Y-100886014D01*
X140814314Y-100886111D01*
X110472758Y-100886111D01*
X110405719Y-100866426D01*
X110393375Y-100857370D01*
X108672905Y-99423645D01*
X108634006Y-99365606D01*
X108628291Y-99327487D01*
X108764479Y-80669748D01*
X108784653Y-80602856D01*
X108814072Y-80571458D01*
X112907265Y-77501564D01*
X112972706Y-77477089D01*
X112981771Y-77476765D01*
X119909886Y-77483542D01*
G37*
%TD.AperFunction*%
%TD*%
%TA.AperFunction,Conductor*%
%TO.N,/VCC_5*%
G36*
X126230250Y-89179208D02*
G01*
X126438853Y-89340748D01*
X126443296Y-89348523D01*
X126440940Y-89357163D01*
X126438853Y-89359250D01*
X126231698Y-89519668D01*
X126224673Y-89522116D01*
X126220722Y-89522163D01*
X126215974Y-89521218D01*
X126056892Y-89453038D01*
X126050638Y-89446629D01*
X126049801Y-89442284D01*
X126049801Y-89257713D01*
X126053228Y-89249440D01*
X126056888Y-89246961D01*
X126218479Y-89177704D01*
X126227431Y-89177596D01*
X126230250Y-89179208D01*
G37*
%TD.AperFunction*%
%TD*%
%TA.AperFunction,Conductor*%
%TO.N,Net-(J3-Pin_1)*%
G36*
X122142993Y-111703427D02*
G01*
X122143493Y-111703959D01*
X122882732Y-112541763D01*
X122885636Y-112550234D01*
X122882237Y-112557772D01*
X122048278Y-113392712D01*
X122040007Y-113396144D01*
X122031732Y-113392722D01*
X122031722Y-113392712D01*
X121838868Y-113199632D01*
X121197761Y-112557770D01*
X121194340Y-112549497D01*
X121197266Y-112541764D01*
X121936507Y-111703959D01*
X121944550Y-111700023D01*
X121945280Y-111700000D01*
X122134720Y-111700000D01*
X122142993Y-111703427D01*
G37*
%TD.AperFunction*%
%TD*%
%TA.AperFunction,Conductor*%
%TO.N,SDA*%
G36*
X129381518Y-90827706D02*
G01*
X129543109Y-90896962D01*
X129549362Y-90903370D01*
X129550199Y-90907715D01*
X129550199Y-91092286D01*
X129546772Y-91100559D01*
X129543108Y-91103040D01*
X129381522Y-91172294D01*
X129372568Y-91172403D01*
X129369749Y-91170791D01*
X129161146Y-91009251D01*
X129156703Y-91001476D01*
X129159059Y-90992836D01*
X129161140Y-90990754D01*
X129369750Y-90829209D01*
X129378389Y-90826854D01*
X129381518Y-90827706D01*
G37*
%TD.AperFunction*%
%TD*%
%TA.AperFunction,Conductor*%
%TO.N,PG_5*%
G36*
X135323179Y-119603427D02*
G01*
X135323463Y-119603721D01*
X136103323Y-120441840D01*
X136103411Y-120441934D01*
X136106538Y-120450325D01*
X136103316Y-120457975D01*
X135308273Y-121292318D01*
X135300085Y-121295944D01*
X135291732Y-121292717D01*
X135291525Y-121292515D01*
X135228898Y-121229815D01*
X134457341Y-120457350D01*
X134453920Y-120449076D01*
X134456430Y-120441842D01*
X135116487Y-119604457D01*
X135124300Y-119600081D01*
X135125676Y-119600000D01*
X135314906Y-119600000D01*
X135323179Y-119603427D01*
G37*
%TD.AperFunction*%
%TD*%
%TA.AperFunction,Conductor*%
%TO.N,PG_12*%
G36*
X135402993Y-111903427D02*
G01*
X135403493Y-111903959D01*
X136142732Y-112741763D01*
X136145636Y-112750234D01*
X136142237Y-112757772D01*
X135308278Y-113592712D01*
X135300007Y-113596144D01*
X135291732Y-113592722D01*
X135291722Y-113592712D01*
X135098868Y-113399632D01*
X134457761Y-112757770D01*
X134454340Y-112749497D01*
X134457266Y-112741764D01*
X135196507Y-111903959D01*
X135204550Y-111900023D01*
X135205280Y-111900000D01*
X135394720Y-111900000D01*
X135402993Y-111903427D01*
G37*
%TD.AperFunction*%
%TD*%
%TA.AperFunction,Conductor*%
%TO.N,Net-(U1B-SW1)*%
G36*
X143967902Y-78874685D02*
G01*
X144011772Y-78923545D01*
X144186909Y-79273818D01*
X144200000Y-79329273D01*
X144200000Y-86278423D01*
X145027653Y-87284659D01*
X145055036Y-87348939D01*
X145051663Y-87395515D01*
X145050281Y-87400671D01*
X145050281Y-87532456D01*
X145084389Y-87659752D01*
X145102629Y-87691344D01*
X145119914Y-87721282D01*
X145136387Y-87789181D01*
X145119914Y-87845282D01*
X145084390Y-87906810D01*
X145084390Y-87906811D01*
X145050281Y-88034108D01*
X145050281Y-88165891D01*
X145084389Y-88293187D01*
X145088034Y-88299500D01*
X145150281Y-88407314D01*
X145150282Y-88407315D01*
X145154345Y-88414352D01*
X145152878Y-88415198D01*
X145174569Y-88471296D01*
X145175000Y-88481620D01*
X145175000Y-91389799D01*
X145172449Y-91398484D01*
X145173738Y-91407446D01*
X145162759Y-91431486D01*
X145155315Y-91456838D01*
X145148474Y-91462765D01*
X145144713Y-91471002D01*
X145122478Y-91485291D01*
X145102511Y-91502593D01*
X145091996Y-91504880D01*
X145085935Y-91508776D01*
X145051000Y-91513799D01*
X145047863Y-91513799D01*
X144980824Y-91494114D01*
X144935069Y-91441310D01*
X144923868Y-91390941D01*
X144900000Y-88800000D01*
X144352642Y-88293187D01*
X143115253Y-87147456D01*
X143079436Y-87087465D01*
X143075500Y-87056470D01*
X143075500Y-86916506D01*
X143059720Y-86816878D01*
X143059719Y-86816876D01*
X143059719Y-86816874D01*
X142998528Y-86696780D01*
X142998526Y-86696778D01*
X142998523Y-86696774D01*
X142903225Y-86601476D01*
X142903221Y-86601473D01*
X142903220Y-86601472D01*
X142783126Y-86540281D01*
X142783124Y-86540280D01*
X142783121Y-86540279D01*
X142683493Y-86524500D01*
X142683488Y-86524500D01*
X142491052Y-86524500D01*
X142463812Y-86516501D01*
X142435852Y-86511536D01*
X142427671Y-86505889D01*
X142424013Y-86504815D01*
X142406805Y-86491486D01*
X142239753Y-86336808D01*
X142203936Y-86276817D01*
X142200000Y-86245822D01*
X142200000Y-85100000D01*
X140381817Y-84100000D01*
X138774666Y-84100000D01*
X138707627Y-84080315D01*
X138700266Y-84075200D01*
X138249600Y-83737200D01*
X138207779Y-83681229D01*
X138200000Y-83638000D01*
X138200000Y-80362000D01*
X138219685Y-80294961D01*
X138249600Y-80262800D01*
X138566933Y-80024800D01*
X138632375Y-80000324D01*
X138641333Y-80000000D01*
X141300000Y-80000000D01*
X142277543Y-78924702D01*
X142290897Y-78916091D01*
X142299476Y-78905638D01*
X142325123Y-78894023D01*
X142331176Y-78890121D01*
X142334701Y-78888982D01*
X142359643Y-78882548D01*
X142419891Y-78861465D01*
X142421324Y-78861003D01*
X142424629Y-78860914D01*
X142459437Y-78855000D01*
X143900863Y-78855000D01*
X143967902Y-78874685D01*
G37*
%TD.AperFunction*%
%TD*%
%TA.AperFunction,Conductor*%
%TO.N,V_OUT_5+*%
G36*
X129384023Y-88628778D02*
G01*
X129543109Y-88696961D01*
X129549362Y-88703369D01*
X129550199Y-88707714D01*
X129550199Y-88892285D01*
X129546772Y-88900558D01*
X129543108Y-88903039D01*
X129381522Y-88972293D01*
X129372568Y-88972402D01*
X129369749Y-88970790D01*
X129161146Y-88809250D01*
X129156703Y-88801475D01*
X129159059Y-88792835D01*
X129161140Y-88790753D01*
X129368304Y-88630328D01*
X129375319Y-88627882D01*
X129379277Y-88627834D01*
X129384023Y-88628778D01*
G37*
%TD.AperFunction*%
%TD*%
%TA.AperFunction,Conductor*%
%TO.N,V_OUT_12+*%
G36*
X186177831Y-107393040D02*
G01*
X186244832Y-107412844D01*
X186265365Y-107429435D01*
X189263759Y-110433154D01*
X189297190Y-110494505D01*
X189300000Y-110520756D01*
X189300000Y-114523638D01*
X189280315Y-114590677D01*
X189263681Y-114611319D01*
X187611319Y-116263681D01*
X187549996Y-116297166D01*
X187523638Y-116300000D01*
X173721361Y-116300000D01*
X173654322Y-116280315D01*
X173641605Y-116270947D01*
X171364244Y-114357964D01*
X171325573Y-114299773D01*
X171320000Y-114263017D01*
X171320000Y-110254548D01*
X171339685Y-110187509D01*
X171353055Y-110170257D01*
X173908704Y-107412844D01*
X173910282Y-107411141D01*
X173970289Y-107375354D01*
X174001443Y-107371433D01*
X186177831Y-107393040D01*
G37*
%TD.AperFunction*%
%TD*%
%TA.AperFunction,Conductor*%
%TO.N,V_OUT_12+*%
G36*
X146623768Y-88764254D02*
G01*
X146678050Y-88808244D01*
X146699933Y-88874599D01*
X146700000Y-88878684D01*
X146700000Y-89300000D01*
X147137851Y-89464194D01*
X147181637Y-89492263D01*
X147188113Y-89498687D01*
X147191009Y-89502555D01*
X147259046Y-89570592D01*
X147275413Y-89585294D01*
X147275474Y-89585343D01*
X147277718Y-89587569D01*
X147293165Y-89615587D01*
X147309975Y-89642802D01*
X147309946Y-89646026D01*
X147311451Y-89648756D01*
X147309688Y-89674887D01*
X147309370Y-89710541D01*
X147303326Y-89731121D01*
X147295000Y-89789030D01*
X147295000Y-89874023D01*
X147300152Y-89919748D01*
X147302756Y-89928789D01*
X147306231Y-89944732D01*
X147308213Y-89957964D01*
X147313127Y-89981369D01*
X147313129Y-89981373D01*
X147356138Y-90062083D01*
X147356140Y-90062086D01*
X147401899Y-90114895D01*
X147419481Y-90132839D01*
X147419485Y-90132843D01*
X147436533Y-90142379D01*
X147485432Y-90192284D01*
X147500000Y-90250599D01*
X147500000Y-91214067D01*
X147480315Y-91281106D01*
X147427511Y-91326861D01*
X147419539Y-91330172D01*
X146922664Y-91516500D01*
X146922661Y-91516501D01*
X146913539Y-91519920D01*
X146913428Y-91519943D01*
X146913360Y-91519987D01*
X146910896Y-91520912D01*
X146910872Y-91520922D01*
X146700000Y-91600000D01*
X146700000Y-92185715D01*
X146987604Y-92391147D01*
X147003212Y-92404369D01*
X147363681Y-92764838D01*
X147397166Y-92826161D01*
X147400000Y-92852519D01*
X147400000Y-93900000D01*
X147900000Y-94300000D01*
X148638000Y-94300000D01*
X148705039Y-94319685D01*
X148737200Y-94349600D01*
X148975200Y-94666933D01*
X148999676Y-94732375D01*
X149000000Y-94741333D01*
X149000000Y-95400000D01*
X149300000Y-95700000D01*
X156948638Y-95700000D01*
X157015677Y-95719685D01*
X157036319Y-95736319D01*
X169963861Y-108663861D01*
X169997346Y-108725184D01*
X170000179Y-108751107D01*
X170019818Y-114348383D01*
X170000369Y-114415491D01*
X169983500Y-114436499D01*
X168156319Y-116263681D01*
X168094996Y-116297166D01*
X168068638Y-116300000D01*
X160140976Y-116300000D01*
X160073937Y-116280315D01*
X160067091Y-116275584D01*
X157000000Y-114000000D01*
X152062000Y-114000000D01*
X151994961Y-113980315D01*
X151962800Y-113950400D01*
X149024800Y-110033066D01*
X149000324Y-109967624D01*
X149000000Y-109958666D01*
X149000000Y-96700000D01*
X148200000Y-95800000D01*
X148138407Y-95800000D01*
X148071368Y-95780315D01*
X148060606Y-95772555D01*
X148044620Y-95759673D01*
X147973575Y-95722509D01*
X147906543Y-95702826D01*
X147905894Y-95702732D01*
X147848638Y-95694500D01*
X147848634Y-95694500D01*
X147709833Y-95694500D01*
X147688536Y-95688246D01*
X147666394Y-95686643D01*
X147647079Y-95676073D01*
X147642794Y-95674815D01*
X147635433Y-95669700D01*
X147549600Y-95605325D01*
X147507779Y-95549353D01*
X147500000Y-95506125D01*
X147500000Y-94600000D01*
X147000000Y-94100000D01*
X146895760Y-94100000D01*
X146882174Y-94099254D01*
X146880146Y-94099030D01*
X146848638Y-94094500D01*
X146839044Y-94094500D01*
X146832276Y-94093754D01*
X146806062Y-94082813D01*
X146778823Y-94074815D01*
X146770147Y-94067824D01*
X146767797Y-94066843D01*
X146766376Y-94064785D01*
X146758181Y-94058181D01*
X146541819Y-93841819D01*
X146508334Y-93780496D01*
X146505500Y-93754138D01*
X146505500Y-92666360D01*
X146503979Y-92651629D01*
X146501164Y-92624369D01*
X146490808Y-92574760D01*
X146488837Y-92566231D01*
X146447190Y-92484808D01*
X146402330Y-92431244D01*
X146358775Y-92392203D01*
X146355213Y-92389828D01*
X146310354Y-92336262D01*
X146300000Y-92286657D01*
X146300000Y-91614995D01*
X146313772Y-91558199D01*
X146318812Y-91548416D01*
X146322326Y-91543822D01*
X146325848Y-91536109D01*
X146325286Y-91535852D01*
X146332593Y-91521672D01*
X146332903Y-91521346D01*
X146335157Y-91516950D01*
X146342009Y-91504962D01*
X146343439Y-91500248D01*
X146349298Y-91484759D01*
X146351345Y-91480280D01*
X146357502Y-91464273D01*
X146360375Y-91456804D01*
X146360375Y-91456803D01*
X146361084Y-91448130D01*
X146362102Y-91439447D01*
X146362304Y-91438124D01*
X146362306Y-91438120D01*
X146371166Y-91380294D01*
X146393724Y-88931504D01*
X146403145Y-88900479D01*
X146411252Y-88869080D01*
X146413536Y-88866261D01*
X146414026Y-88864649D01*
X146433469Y-88841663D01*
X146491754Y-88787697D01*
X146554319Y-88756594D01*
X146623768Y-88764254D01*
G37*
%TD.AperFunction*%
%TD*%
%TA.AperFunction,Conductor*%
%TO.N,GND*%
G36*
X145643039Y-88719685D02*
G01*
X145688794Y-88772489D01*
X145700000Y-88824000D01*
X145700000Y-92200000D01*
X146244784Y-92563189D01*
X146289644Y-92616753D01*
X146300000Y-92666362D01*
X146300000Y-94000000D01*
X146600000Y-94300000D01*
X146848638Y-94300000D01*
X146915677Y-94319685D01*
X146936319Y-94336319D01*
X147163681Y-94563681D01*
X147197166Y-94625004D01*
X147200000Y-94651362D01*
X147200000Y-95600000D01*
X147199999Y-95600000D01*
X147400000Y-95750000D01*
X147600000Y-95900000D01*
X147848638Y-95900000D01*
X147915677Y-95919685D01*
X147936319Y-95936319D01*
X148163681Y-96163681D01*
X148197166Y-96225004D01*
X148200000Y-96251362D01*
X148200000Y-110200001D01*
X151582379Y-114650499D01*
X151848000Y-115000000D01*
X156961208Y-115000000D01*
X157028247Y-115019685D01*
X157031875Y-115022107D01*
X159595349Y-116800000D01*
X187193183Y-116800000D01*
X187260222Y-116819685D01*
X187281085Y-116836540D01*
X188067363Y-117626828D01*
X189397212Y-118963458D01*
X189430541Y-119024866D01*
X189433306Y-119051547D01*
X189408652Y-123898777D01*
X189388627Y-123965715D01*
X189372058Y-123986104D01*
X187885335Y-125463458D01*
X187823906Y-125496749D01*
X187797931Y-125499500D01*
X108624500Y-125499500D01*
X108557461Y-125479815D01*
X108511706Y-125427011D01*
X108500500Y-125375500D01*
X108500500Y-121196530D01*
X118449500Y-121196530D01*
X118449500Y-121403469D01*
X118476085Y-121537118D01*
X118489870Y-121606420D01*
X118569059Y-121797598D01*
X118614691Y-121865892D01*
X118684024Y-121969657D01*
X118830342Y-122115975D01*
X118830345Y-122115977D01*
X119002402Y-122230941D01*
X119193580Y-122310130D01*
X119327756Y-122336819D01*
X119396530Y-122350499D01*
X119396534Y-122350500D01*
X119396535Y-122350500D01*
X119603466Y-122350500D01*
X119603467Y-122350499D01*
X119806420Y-122310130D01*
X119997598Y-122230941D01*
X120169655Y-122115977D01*
X120315977Y-121969655D01*
X120430941Y-121797598D01*
X120510130Y-121606420D01*
X120550500Y-121403465D01*
X120550500Y-121196535D01*
X120510130Y-120993580D01*
X120430941Y-120802402D01*
X120430939Y-120802399D01*
X120400959Y-120757530D01*
X120389189Y-120731760D01*
X120388050Y-120732197D01*
X120385872Y-120726517D01*
X120385871Y-120726513D01*
X119813629Y-119583975D01*
X119800500Y-119528445D01*
X119800500Y-118587159D01*
X119820185Y-118520120D01*
X119872094Y-118474777D01*
X119918316Y-118453224D01*
X120003224Y-118368316D01*
X120053972Y-118259487D01*
X120060500Y-118209901D01*
X120060499Y-117790100D01*
X120053972Y-117740513D01*
X120003224Y-117631684D01*
X119918316Y-117546776D01*
X119809487Y-117496028D01*
X119809485Y-117496027D01*
X119809486Y-117496027D01*
X119759902Y-117489500D01*
X119400105Y-117489500D01*
X119384386Y-117491569D01*
X119350513Y-117496028D01*
X119350511Y-117496029D01*
X119350509Y-117496029D01*
X119241683Y-117546776D01*
X119156776Y-117631683D01*
X119106027Y-117740514D01*
X119099500Y-117790098D01*
X119099500Y-118209894D01*
X119099501Y-118209900D01*
X119106028Y-118259487D01*
X119106029Y-118259489D01*
X119106029Y-118259490D01*
X119156776Y-118368316D01*
X119163181Y-118374721D01*
X119196666Y-118436044D01*
X119199500Y-118462402D01*
X119199500Y-119528444D01*
X119186371Y-119583974D01*
X118614130Y-120726506D01*
X118612223Y-120731258D01*
X118611702Y-120731049D01*
X118599241Y-120757229D01*
X118569058Y-120802402D01*
X118489870Y-120993579D01*
X118489868Y-120993587D01*
X118449500Y-121196530D01*
X108500500Y-121196530D01*
X108500500Y-113296530D01*
X118449500Y-113296530D01*
X118449500Y-113503469D01*
X118489868Y-113706412D01*
X118489870Y-113706420D01*
X118569058Y-113897596D01*
X118684024Y-114069657D01*
X118830342Y-114215975D01*
X118830345Y-114215977D01*
X119002402Y-114330941D01*
X119193580Y-114410130D01*
X119338052Y-114438867D01*
X119396530Y-114450499D01*
X119396534Y-114450500D01*
X119396535Y-114450500D01*
X119603466Y-114450500D01*
X119603467Y-114450499D01*
X119806420Y-114410130D01*
X119997598Y-114330941D01*
X120169655Y-114215977D01*
X120315977Y-114069655D01*
X120430941Y-113897598D01*
X120510130Y-113706420D01*
X120550500Y-113503465D01*
X120550500Y-113296535D01*
X120510130Y-113093580D01*
X120430941Y-112902402D01*
X120315977Y-112730345D01*
X120315975Y-112730342D01*
X120169657Y-112584024D01*
X120060083Y-112510810D01*
X119997598Y-112469059D01*
X119980766Y-112462087D01*
X119806420Y-112389870D01*
X119806412Y-112389868D01*
X119603469Y-112349500D01*
X119603465Y-112349500D01*
X119396535Y-112349500D01*
X119396530Y-112349500D01*
X119193587Y-112389868D01*
X119193579Y-112389870D01*
X119002403Y-112469058D01*
X118830342Y-112584024D01*
X118684024Y-112730342D01*
X118569058Y-112902403D01*
X118489870Y-113093579D01*
X118489868Y-113093587D01*
X118449500Y-113296530D01*
X108500500Y-113296530D01*
X108500500Y-108675683D01*
X117479500Y-108675683D01*
X117479500Y-109124316D01*
X117485931Y-109173171D01*
X117485932Y-109173173D01*
X117535935Y-109280404D01*
X117619596Y-109364065D01*
X117726827Y-109414068D01*
X117775683Y-109420500D01*
X117775684Y-109420500D01*
X118124317Y-109420500D01*
X118140601Y-109418356D01*
X118173173Y-109414068D01*
X118280404Y-109364065D01*
X118364065Y-109280404D01*
X118367939Y-109272095D01*
X118414110Y-109219657D01*
X118480321Y-109200500D01*
X121299679Y-109200500D01*
X121366718Y-109220185D01*
X121412060Y-109272095D01*
X121415935Y-109280404D01*
X121499596Y-109364065D01*
X121606827Y-109414068D01*
X121631685Y-109417340D01*
X121695579Y-109445604D01*
X121734052Y-109503928D01*
X121739500Y-109540279D01*
X121739500Y-111569746D01*
X121719815Y-111636785D01*
X121708480Y-111651787D01*
X121043176Y-112405797D01*
X121043172Y-112405804D01*
X121032381Y-112423708D01*
X121032379Y-112423712D01*
X121024439Y-112436888D01*
X121001133Y-112471769D01*
X120989500Y-112530252D01*
X120989500Y-112536297D01*
X120989170Y-112537852D01*
X120989500Y-112539801D01*
X120989500Y-112544356D01*
X120989101Y-112545479D01*
X120989500Y-112550224D01*
X120989500Y-114269752D01*
X121001131Y-114328229D01*
X121001132Y-114328230D01*
X121045447Y-114394552D01*
X121111769Y-114438867D01*
X121111770Y-114438868D01*
X121170247Y-114450499D01*
X121170250Y-114450500D01*
X121170252Y-114450500D01*
X122909750Y-114450500D01*
X122909751Y-114450499D01*
X122924568Y-114447552D01*
X122968229Y-114438868D01*
X122968229Y-114438867D01*
X122968231Y-114438867D01*
X123034552Y-114394552D01*
X123072398Y-114337911D01*
X123126010Y-114293107D01*
X123195335Y-114284400D01*
X123258362Y-114314554D01*
X123295082Y-114373997D01*
X123299500Y-114406803D01*
X123299500Y-116241323D01*
X123279815Y-116308362D01*
X123263182Y-116329004D01*
X123199500Y-116392686D01*
X123133608Y-116506812D01*
X123099500Y-116634108D01*
X123099500Y-116724166D01*
X123090855Y-116753606D01*
X123084332Y-116783593D01*
X123080577Y-116788608D01*
X123079815Y-116791205D01*
X123063185Y-116811842D01*
X122915489Y-116959540D01*
X122915488Y-116959540D01*
X122915487Y-116959541D01*
X122859541Y-117015487D01*
X122859535Y-117015495D01*
X122819982Y-117084004D01*
X122819979Y-117084009D01*
X122799500Y-117160439D01*
X122799500Y-117354669D01*
X122790878Y-117384028D01*
X122784418Y-117413938D01*
X122780594Y-117419053D01*
X122779815Y-117421708D01*
X122763313Y-117442217D01*
X122685935Y-117519596D01*
X122685736Y-117520021D01*
X122677809Y-117527972D01*
X122656203Y-117539810D01*
X122636958Y-117555183D01*
X122626103Y-117556302D01*
X122616534Y-117561546D01*
X122591961Y-117559824D01*
X122567458Y-117562352D01*
X122557721Y-117557425D01*
X122546835Y-117556663D01*
X122527091Y-117541927D01*
X122505114Y-117530808D01*
X122501901Y-117527101D01*
X122501736Y-117527267D01*
X122410404Y-117435935D01*
X122379894Y-117421708D01*
X122303173Y-117385932D01*
X122303171Y-117385931D01*
X122303172Y-117385931D01*
X122254317Y-117379500D01*
X122254316Y-117379500D01*
X121905684Y-117379500D01*
X121905683Y-117379500D01*
X121856828Y-117385931D01*
X121749595Y-117435935D01*
X121665935Y-117519595D01*
X121615931Y-117626828D01*
X121609500Y-117675683D01*
X121609500Y-118124316D01*
X121615931Y-118173171D01*
X121665935Y-118280404D01*
X121703181Y-118317650D01*
X121717884Y-118344577D01*
X121734477Y-118370396D01*
X121735368Y-118376596D01*
X121736666Y-118378973D01*
X121739500Y-118405331D01*
X121739500Y-118409669D01*
X121719815Y-118476708D01*
X121703181Y-118497350D01*
X121680935Y-118519595D01*
X121630931Y-118626828D01*
X121624500Y-118675683D01*
X121624500Y-119124316D01*
X121630931Y-119173171D01*
X121680935Y-119280404D01*
X121703181Y-119302650D01*
X121717884Y-119329577D01*
X121734477Y-119355396D01*
X121735368Y-119361596D01*
X121736666Y-119363973D01*
X121739500Y-119390331D01*
X121739500Y-119469746D01*
X121719815Y-119536785D01*
X121708480Y-119551787D01*
X121043176Y-120305797D01*
X121043172Y-120305804D01*
X121032381Y-120323708D01*
X121032379Y-120323712D01*
X121024439Y-120336888D01*
X121001133Y-120371769D01*
X120989500Y-120430252D01*
X120989500Y-120436297D01*
X120989170Y-120437852D01*
X120989500Y-120439801D01*
X120989500Y-120444356D01*
X120989101Y-120445479D01*
X120989500Y-120450224D01*
X120989500Y-122169752D01*
X121001131Y-122228229D01*
X121001132Y-122228230D01*
X121045447Y-122294552D01*
X121111769Y-122338867D01*
X121111770Y-122338868D01*
X121170247Y-122350499D01*
X121170250Y-122350500D01*
X121170252Y-122350500D01*
X122909750Y-122350500D01*
X122909751Y-122350499D01*
X122924568Y-122347552D01*
X122968229Y-122338868D01*
X122968229Y-122338867D01*
X122968231Y-122338867D01*
X123034552Y-122294552D01*
X123078867Y-122228231D01*
X123078867Y-122228229D01*
X123078868Y-122228229D01*
X123088052Y-122182055D01*
X123090500Y-122169748D01*
X123090500Y-120430252D01*
X123090500Y-120430249D01*
X123090499Y-120430247D01*
X123078868Y-120371770D01*
X123078867Y-120371769D01*
X123052613Y-120332477D01*
X123048516Y-120325911D01*
X123036826Y-120305804D01*
X123036824Y-120305800D01*
X123036823Y-120305799D01*
X123036822Y-120305797D01*
X122379588Y-119560932D01*
X122349994Y-119497640D01*
X122359316Y-119428395D01*
X122404594Y-119375182D01*
X122420167Y-119366507D01*
X122425404Y-119364065D01*
X122509065Y-119280404D01*
X122559068Y-119173173D01*
X122565500Y-119124316D01*
X122565500Y-118675684D01*
X122559068Y-118626827D01*
X122515832Y-118534108D01*
X130499500Y-118534108D01*
X130499500Y-118665892D01*
X130506455Y-118691848D01*
X130533608Y-118793187D01*
X130551581Y-118824316D01*
X130599500Y-118907314D01*
X130692686Y-119000500D01*
X130766804Y-119043292D01*
X130802783Y-119064065D01*
X130806814Y-119066392D01*
X130934108Y-119100500D01*
X130934110Y-119100500D01*
X131065890Y-119100500D01*
X131065892Y-119100500D01*
X131193186Y-119066392D01*
X131307314Y-119000500D01*
X131400500Y-118907314D01*
X131466392Y-118793186D01*
X131493395Y-118692405D01*
X131529760Y-118632746D01*
X131592607Y-118602217D01*
X131613170Y-118600500D01*
X132359679Y-118600500D01*
X132426718Y-118620185D01*
X132472060Y-118672095D01*
X132475935Y-118680404D01*
X132559596Y-118764065D01*
X132666827Y-118814068D01*
X132715683Y-118820500D01*
X132715684Y-118820500D01*
X133064317Y-118820500D01*
X133080601Y-118818356D01*
X133113173Y-118814068D01*
X133220404Y-118764065D01*
X133304065Y-118680404D01*
X133304065Y-118680403D01*
X133311736Y-118672733D01*
X133314564Y-118675561D01*
X133352977Y-118644843D01*
X133422474Y-118637635D01*
X133484835Y-118669143D01*
X133488093Y-118672903D01*
X133488264Y-118672733D01*
X133495935Y-118680404D01*
X133579596Y-118764065D01*
X133686827Y-118814068D01*
X133735683Y-118820500D01*
X133735684Y-118820500D01*
X134084317Y-118820500D01*
X134100601Y-118818356D01*
X134133173Y-118814068D01*
X134240404Y-118764065D01*
X134324065Y-118680404D01*
X134327939Y-118672095D01*
X134339401Y-118659077D01*
X134346608Y-118643297D01*
X134362011Y-118633397D01*
X134374110Y-118619657D01*
X134390994Y-118614771D01*
X134405386Y-118605523D01*
X134440321Y-118600500D01*
X134686156Y-118600500D01*
X134753195Y-118620185D01*
X134788643Y-118660765D01*
X134790553Y-118659429D01*
X134796775Y-118668315D01*
X134883181Y-118754721D01*
X134916666Y-118816044D01*
X134919500Y-118842402D01*
X134919500Y-119479406D01*
X134899815Y-119546445D01*
X134892884Y-119556168D01*
X134585942Y-119945572D01*
X134295039Y-120314628D01*
X134275692Y-120349979D01*
X134261133Y-120371769D01*
X134249500Y-120430252D01*
X134249500Y-120433636D01*
X134248751Y-120437422D01*
X134249314Y-120440752D01*
X134248692Y-120442658D01*
X134249500Y-120452267D01*
X134249500Y-122169752D01*
X134261131Y-122228229D01*
X134261132Y-122228230D01*
X134305447Y-122294552D01*
X134371769Y-122338867D01*
X134371770Y-122338868D01*
X134430247Y-122350499D01*
X134430250Y-122350500D01*
X134430252Y-122350500D01*
X136169750Y-122350500D01*
X136169751Y-122350499D01*
X136184568Y-122347552D01*
X136228229Y-122338868D01*
X136228229Y-122338867D01*
X136228231Y-122338867D01*
X136294552Y-122294552D01*
X136338867Y-122228231D01*
X136338867Y-122228229D01*
X136338868Y-122228229D01*
X136348052Y-122182055D01*
X136350500Y-122169748D01*
X136350500Y-121196530D01*
X140834500Y-121196530D01*
X140834500Y-121403469D01*
X140861085Y-121537118D01*
X140874870Y-121606420D01*
X140954059Y-121797598D01*
X140999691Y-121865892D01*
X141069024Y-121969657D01*
X141215342Y-122115975D01*
X141215345Y-122115977D01*
X141387402Y-122230941D01*
X141578580Y-122310130D01*
X141712756Y-122336819D01*
X141781530Y-122350499D01*
X141781534Y-122350500D01*
X141781535Y-122350500D01*
X141988466Y-122350500D01*
X141988467Y-122350499D01*
X142191420Y-122310130D01*
X142382598Y-122230941D01*
X142554655Y-122115977D01*
X142700977Y-121969655D01*
X142815941Y-121797598D01*
X142895130Y-121606420D01*
X142935500Y-121403465D01*
X142935500Y-121196535D01*
X142895130Y-120993580D01*
X142815941Y-120802402D01*
X142815939Y-120802399D01*
X142785959Y-120757530D01*
X142774189Y-120731760D01*
X142773050Y-120732197D01*
X142770872Y-120726517D01*
X142770871Y-120726513D01*
X142198629Y-119583975D01*
X142185500Y-119528445D01*
X142185500Y-119140331D01*
X142194119Y-119110977D01*
X142200576Y-119081073D01*
X142204404Y-119075950D01*
X142205185Y-119073292D01*
X142221683Y-119052786D01*
X142294065Y-118980404D01*
X142294261Y-118979981D01*
X142302183Y-118972036D01*
X142323760Y-118960210D01*
X142342977Y-118944843D01*
X142353859Y-118943714D01*
X142363454Y-118938456D01*
X142388001Y-118940173D01*
X142412474Y-118937635D01*
X142422238Y-118942568D01*
X142433153Y-118943332D01*
X142452873Y-118958046D01*
X142474835Y-118969143D01*
X142478093Y-118972903D01*
X142478264Y-118972733D01*
X142485935Y-118980404D01*
X142569596Y-119064065D01*
X142676827Y-119114068D01*
X142725683Y-119120500D01*
X142725684Y-119120500D01*
X143074317Y-119120500D01*
X143090601Y-119118356D01*
X143123173Y-119114068D01*
X143230404Y-119064065D01*
X143314065Y-118980404D01*
X143364068Y-118873173D01*
X143370500Y-118824316D01*
X143370500Y-118605833D01*
X143390185Y-118538794D01*
X143406819Y-118518152D01*
X143609152Y-118315819D01*
X143636079Y-118301115D01*
X143661898Y-118284523D01*
X143668098Y-118283631D01*
X143670475Y-118282334D01*
X143696833Y-118279500D01*
X143795500Y-118279500D01*
X143862539Y-118299185D01*
X143908294Y-118351989D01*
X143919500Y-118403500D01*
X143919500Y-118824316D01*
X143925931Y-118873171D01*
X143975935Y-118980404D01*
X144059596Y-119064065D01*
X144068483Y-119070288D01*
X144066587Y-119072995D01*
X144105332Y-119107098D01*
X144124500Y-119173326D01*
X144124500Y-119528444D01*
X144111371Y-119583974D01*
X143539130Y-120726506D01*
X143537223Y-120731258D01*
X143536702Y-120731049D01*
X143524241Y-120757229D01*
X143494058Y-120802402D01*
X143414870Y-120993579D01*
X143414868Y-120993587D01*
X143374500Y-121196530D01*
X143374500Y-121403469D01*
X143401085Y-121537118D01*
X143414870Y-121606420D01*
X143494059Y-121797598D01*
X143539691Y-121865892D01*
X143609024Y-121969657D01*
X143755342Y-122115975D01*
X143755345Y-122115977D01*
X143927402Y-122230941D01*
X144118580Y-122310130D01*
X144252756Y-122336819D01*
X144321530Y-122350499D01*
X144321534Y-122350500D01*
X144321535Y-122350500D01*
X144528466Y-122350500D01*
X144528467Y-122350499D01*
X144731420Y-122310130D01*
X144922598Y-122230941D01*
X145094655Y-122115977D01*
X145240977Y-121969655D01*
X145355941Y-121797598D01*
X145435130Y-121606420D01*
X145475500Y-121403465D01*
X145475500Y-121196535D01*
X145435130Y-120993580D01*
X145355941Y-120802402D01*
X145355939Y-120802399D01*
X145325959Y-120757530D01*
X145314189Y-120731760D01*
X145313050Y-120732197D01*
X145310872Y-120726517D01*
X145310871Y-120726513D01*
X144738629Y-119583975D01*
X144725500Y-119528445D01*
X144725500Y-119110331D01*
X144734101Y-119081037D01*
X144740521Y-119051173D01*
X144744393Y-119045986D01*
X144745185Y-119043292D01*
X144761603Y-119022867D01*
X144761805Y-119022664D01*
X144804065Y-118980404D01*
X144804248Y-118980010D01*
X144812103Y-118972117D01*
X144833716Y-118960245D01*
X144852977Y-118944843D01*
X144863802Y-118943720D01*
X144873343Y-118938480D01*
X144897946Y-118940178D01*
X144922474Y-118937635D01*
X144932188Y-118942543D01*
X144943047Y-118943293D01*
X144962823Y-118958021D01*
X144984835Y-118969143D01*
X144988093Y-118972903D01*
X144988264Y-118972733D01*
X144995935Y-118980404D01*
X145079596Y-119064065D01*
X145186827Y-119114068D01*
X145235683Y-119120500D01*
X145235684Y-119120500D01*
X145444167Y-119120500D01*
X145511206Y-119140185D01*
X145531848Y-119156819D01*
X146167677Y-119792648D01*
X146201162Y-119853971D01*
X146196178Y-119923663D01*
X146185444Y-119945572D01*
X145945122Y-120333991D01*
X145945119Y-120333996D01*
X145937508Y-120351245D01*
X145937467Y-120351338D01*
X145932965Y-120361544D01*
X145926133Y-120371769D01*
X145924227Y-120381347D01*
X145922206Y-120385930D01*
X145921477Y-120388492D01*
X145921473Y-120388503D01*
X145920458Y-120392075D01*
X145920456Y-120392081D01*
X145912946Y-120436762D01*
X145912948Y-120437959D01*
X145914500Y-120456362D01*
X145914500Y-122169752D01*
X145926131Y-122228229D01*
X145926132Y-122228230D01*
X145970447Y-122294552D01*
X146036769Y-122338867D01*
X146036770Y-122338868D01*
X146095247Y-122350499D01*
X146095250Y-122350500D01*
X146095252Y-122350500D01*
X147834750Y-122350500D01*
X147834751Y-122350499D01*
X147849568Y-122347552D01*
X147893229Y-122338868D01*
X147893229Y-122338867D01*
X147893231Y-122338867D01*
X147959552Y-122294552D01*
X148003867Y-122228231D01*
X148003867Y-122228229D01*
X148003868Y-122228229D01*
X148013052Y-122182055D01*
X148015500Y-122169748D01*
X148015500Y-121534108D01*
X152799500Y-121534108D01*
X152799500Y-121665892D01*
X152807495Y-121695730D01*
X152833608Y-121793187D01*
X152836154Y-121797596D01*
X152899500Y-121907314D01*
X152992686Y-122000500D01*
X153106814Y-122066392D01*
X153234108Y-122100500D01*
X153234110Y-122100500D01*
X153324167Y-122100500D01*
X153391206Y-122120185D01*
X153411848Y-122136819D01*
X153959540Y-122684511D01*
X154015489Y-122740460D01*
X154015491Y-122740461D01*
X154015495Y-122740464D01*
X154084004Y-122780017D01*
X154084011Y-122780021D01*
X154160438Y-122800500D01*
X154239562Y-122800500D01*
X155281309Y-122800500D01*
X155348348Y-122820185D01*
X155356983Y-122826269D01*
X156341965Y-123585069D01*
X156341968Y-123585071D01*
X156364829Y-123599763D01*
X156371422Y-123604307D01*
X156437118Y-123652793D01*
X156479845Y-123667744D01*
X156565299Y-123697646D01*
X156595730Y-123700500D01*
X156595734Y-123700500D01*
X160004270Y-123700500D01*
X160034699Y-123697646D01*
X160034701Y-123697646D01*
X160098790Y-123675219D01*
X160162882Y-123652793D01*
X160272150Y-123572150D01*
X160352793Y-123462882D01*
X160375219Y-123398790D01*
X160397646Y-123334701D01*
X160397646Y-123334699D01*
X160400500Y-123304269D01*
X160400500Y-121695730D01*
X164499500Y-121695730D01*
X164499500Y-123304269D01*
X164502353Y-123334699D01*
X164502353Y-123334701D01*
X164547206Y-123462880D01*
X164547207Y-123462882D01*
X164627850Y-123572150D01*
X164737118Y-123652793D01*
X164779845Y-123667744D01*
X164865299Y-123697646D01*
X164895730Y-123700500D01*
X164895734Y-123700500D01*
X168304270Y-123700500D01*
X168334699Y-123697646D01*
X168334701Y-123697646D01*
X168398790Y-123675219D01*
X168462882Y-123652793D01*
X168572150Y-123572150D01*
X168652793Y-123462882D01*
X168675219Y-123398790D01*
X168697646Y-123334701D01*
X168697646Y-123334699D01*
X168700500Y-123304269D01*
X168700500Y-122924500D01*
X168720185Y-122857461D01*
X168772989Y-122811706D01*
X168824500Y-122800500D01*
X169139560Y-122800500D01*
X169139562Y-122800500D01*
X169215989Y-122780021D01*
X169284511Y-122740460D01*
X169340460Y-122684511D01*
X169688151Y-122336818D01*
X169749474Y-122303334D01*
X169775832Y-122300500D01*
X169865890Y-122300500D01*
X169865892Y-122300500D01*
X169993186Y-122266392D01*
X170107314Y-122200500D01*
X170200500Y-122107314D01*
X170242613Y-122034371D01*
X170293180Y-121986156D01*
X170361787Y-121972933D01*
X170426652Y-121998901D01*
X170457386Y-122034371D01*
X170499500Y-122107314D01*
X170592686Y-122200500D01*
X170706814Y-122266392D01*
X170834108Y-122300500D01*
X170834110Y-122300500D01*
X170924167Y-122300500D01*
X170991206Y-122320185D01*
X171011848Y-122336819D01*
X171359540Y-122684511D01*
X171415489Y-122740460D01*
X171415491Y-122740461D01*
X171415495Y-122740464D01*
X171484004Y-122780017D01*
X171484011Y-122780021D01*
X171560438Y-122800500D01*
X171981309Y-122800500D01*
X172048348Y-122820185D01*
X172056983Y-122826269D01*
X173041965Y-123585069D01*
X173041968Y-123585071D01*
X173064829Y-123599763D01*
X173071422Y-123604307D01*
X173137118Y-123652793D01*
X173179845Y-123667744D01*
X173265299Y-123697646D01*
X173295730Y-123700500D01*
X173295734Y-123700500D01*
X176704270Y-123700500D01*
X176734699Y-123697646D01*
X176734701Y-123697646D01*
X176798790Y-123675219D01*
X176862882Y-123652793D01*
X176972150Y-123572150D01*
X177052793Y-123462882D01*
X177075219Y-123398790D01*
X177097646Y-123334701D01*
X177097646Y-123334699D01*
X177100500Y-123304269D01*
X177100500Y-121695730D01*
X177097646Y-121665300D01*
X177097646Y-121665298D01*
X177052793Y-121537119D01*
X177052792Y-121537117D01*
X177050573Y-121534110D01*
X176972150Y-121427850D01*
X176862882Y-121347207D01*
X176862880Y-121347206D01*
X176734700Y-121302353D01*
X176704270Y-121299500D01*
X176704266Y-121299500D01*
X173295734Y-121299500D01*
X173295730Y-121299500D01*
X173265303Y-121302353D01*
X173137115Y-121347208D01*
X173061065Y-121403334D01*
X173042501Y-121414664D01*
X173041969Y-121414927D01*
X173041963Y-121414930D01*
X172056982Y-122173731D01*
X172035571Y-122182055D01*
X172016243Y-122194477D01*
X171996218Y-122197356D01*
X171991862Y-122199050D01*
X171981308Y-122199500D01*
X171775833Y-122199500D01*
X171708794Y-122179815D01*
X171688152Y-122163181D01*
X171436819Y-121911848D01*
X171403334Y-121850525D01*
X171400500Y-121824167D01*
X171400500Y-121734110D01*
X171400500Y-121734108D01*
X171366392Y-121606814D01*
X171300500Y-121492686D01*
X171207314Y-121399500D01*
X171116742Y-121347208D01*
X171093187Y-121333608D01*
X170976543Y-121302354D01*
X170965892Y-121299500D01*
X170834108Y-121299500D01*
X170706812Y-121333608D01*
X170592686Y-121399500D01*
X170592683Y-121399502D01*
X170499502Y-121492683D01*
X170499500Y-121492686D01*
X170457387Y-121565628D01*
X170406820Y-121613843D01*
X170338212Y-121627065D01*
X170273348Y-121601097D01*
X170242613Y-121565628D01*
X170226153Y-121537119D01*
X170200500Y-121492686D01*
X170107314Y-121399500D01*
X170016742Y-121347208D01*
X169993187Y-121333608D01*
X169876543Y-121302354D01*
X169865892Y-121299500D01*
X169734108Y-121299500D01*
X169606812Y-121333608D01*
X169492686Y-121399500D01*
X169492683Y-121399502D01*
X169399502Y-121492683D01*
X169399500Y-121492686D01*
X169333608Y-121606812D01*
X169299500Y-121734108D01*
X169299500Y-121824166D01*
X169279815Y-121891205D01*
X169263181Y-121911847D01*
X169011848Y-122163181D01*
X168984920Y-122177884D01*
X168959102Y-122194477D01*
X168952901Y-122195368D01*
X168950525Y-122196666D01*
X168924167Y-122199500D01*
X168824500Y-122199500D01*
X168757461Y-122179815D01*
X168711706Y-122127011D01*
X168700500Y-122075500D01*
X168700500Y-121695730D01*
X168697646Y-121665300D01*
X168697646Y-121665298D01*
X168652793Y-121537119D01*
X168652792Y-121537117D01*
X168650573Y-121534110D01*
X168572150Y-121427850D01*
X168462882Y-121347207D01*
X168462880Y-121347206D01*
X168334700Y-121302353D01*
X168304270Y-121299500D01*
X168304266Y-121299500D01*
X164895734Y-121299500D01*
X164895730Y-121299500D01*
X164865300Y-121302353D01*
X164865298Y-121302353D01*
X164737119Y-121347206D01*
X164737117Y-121347207D01*
X164627850Y-121427850D01*
X164547207Y-121537117D01*
X164547206Y-121537119D01*
X164502353Y-121665298D01*
X164502353Y-121665300D01*
X164499500Y-121695730D01*
X160400500Y-121695730D01*
X160397646Y-121665300D01*
X160397646Y-121665298D01*
X160352793Y-121537119D01*
X160352792Y-121537117D01*
X160350573Y-121534110D01*
X160272150Y-121427850D01*
X160162882Y-121347207D01*
X160162880Y-121347206D01*
X160034700Y-121302353D01*
X160004270Y-121299500D01*
X160004266Y-121299500D01*
X156595734Y-121299500D01*
X156595730Y-121299500D01*
X156565303Y-121302353D01*
X156437115Y-121347208D01*
X156361065Y-121403334D01*
X156342501Y-121414664D01*
X156341969Y-121414927D01*
X156341963Y-121414930D01*
X155356982Y-122173731D01*
X155291862Y-122199050D01*
X155281308Y-122199500D01*
X154375833Y-122199500D01*
X154308794Y-122179815D01*
X154288152Y-122163181D01*
X153836819Y-121711848D01*
X153803334Y-121650525D01*
X153800500Y-121624167D01*
X153800500Y-121534110D01*
X153800500Y-121534108D01*
X153766392Y-121406814D01*
X153764458Y-121403465D01*
X153731978Y-121347208D01*
X153700500Y-121292686D01*
X153607314Y-121199500D01*
X153550250Y-121166554D01*
X153493187Y-121133608D01*
X153429539Y-121116554D01*
X153365892Y-121099500D01*
X153234108Y-121099500D01*
X153106812Y-121133608D01*
X152992686Y-121199500D01*
X152992683Y-121199502D01*
X152899502Y-121292683D01*
X152899500Y-121292686D01*
X152833608Y-121406812D01*
X152831434Y-121414927D01*
X152799500Y-121534108D01*
X148015500Y-121534108D01*
X148015500Y-120430252D01*
X148015500Y-120430249D01*
X148015499Y-120430247D01*
X148003868Y-120371770D01*
X148003867Y-120371769D01*
X147959552Y-120305447D01*
X147893230Y-120261132D01*
X147893229Y-120261131D01*
X147834752Y-120249500D01*
X147834748Y-120249500D01*
X147740548Y-120249500D01*
X147673509Y-120229815D01*
X147665154Y-120223947D01*
X146769283Y-119537856D01*
X146765022Y-119535114D01*
X146765421Y-119534492D01*
X146742400Y-119517429D01*
X145916819Y-118691848D01*
X145883334Y-118630525D01*
X145880500Y-118604167D01*
X145880500Y-118375683D01*
X145874068Y-118326828D01*
X145874068Y-118326827D01*
X145824065Y-118219596D01*
X145740404Y-118135935D01*
X145633173Y-118085932D01*
X145633171Y-118085931D01*
X145633172Y-118085931D01*
X145584317Y-118079500D01*
X145584316Y-118079500D01*
X145365833Y-118079500D01*
X145298794Y-118059815D01*
X145278152Y-118043181D01*
X144973512Y-117738541D01*
X144973504Y-117738535D01*
X144904995Y-117698982D01*
X144904990Y-117698979D01*
X144879513Y-117692152D01*
X144828562Y-117678500D01*
X143560562Y-117678500D01*
X143481438Y-117678500D01*
X143405010Y-117698978D01*
X143336489Y-117738540D01*
X143336486Y-117738542D01*
X143031848Y-118043181D01*
X142970525Y-118076666D01*
X142944167Y-118079500D01*
X142725683Y-118079500D01*
X142676828Y-118085931D01*
X142569595Y-118135935D01*
X142478264Y-118227267D01*
X142475440Y-118224443D01*
X142436958Y-118255183D01*
X142367458Y-118262352D01*
X142305114Y-118230808D01*
X142301901Y-118227101D01*
X142301736Y-118227267D01*
X142210404Y-118135935D01*
X142185487Y-118124316D01*
X142103173Y-118085932D01*
X142103171Y-118085931D01*
X142103172Y-118085931D01*
X142054317Y-118079500D01*
X142054316Y-118079500D01*
X141705684Y-118079500D01*
X141705683Y-118079500D01*
X141656828Y-118085931D01*
X141549595Y-118135935D01*
X141465935Y-118219595D01*
X141415931Y-118326828D01*
X141409500Y-118375683D01*
X141409500Y-118824316D01*
X141415931Y-118873171D01*
X141465935Y-118980404D01*
X141548181Y-119062650D01*
X141581666Y-119123973D01*
X141584500Y-119150331D01*
X141584500Y-119528444D01*
X141571371Y-119583974D01*
X140999130Y-120726506D01*
X140997223Y-120731258D01*
X140996702Y-120731049D01*
X140984241Y-120757229D01*
X140954058Y-120802402D01*
X140874870Y-120993579D01*
X140874868Y-120993587D01*
X140834500Y-121196530D01*
X136350500Y-121196530D01*
X136350500Y-120430252D01*
X136350500Y-120430249D01*
X136350499Y-120430247D01*
X136338868Y-120371770D01*
X136338867Y-120371769D01*
X136294552Y-120305447D01*
X136218077Y-120254348D01*
X136218818Y-120253238D01*
X136189746Y-120233047D01*
X135779960Y-119792648D01*
X135553720Y-119549506D01*
X135522464Y-119487018D01*
X135520500Y-119465037D01*
X135520500Y-118842402D01*
X135540185Y-118775363D01*
X135556819Y-118754721D01*
X135558316Y-118753224D01*
X135643224Y-118668316D01*
X135693972Y-118559487D01*
X135700500Y-118509901D01*
X135700499Y-118090100D01*
X135693972Y-118040513D01*
X135643224Y-117931684D01*
X135558316Y-117846776D01*
X135449487Y-117796028D01*
X135449485Y-117796027D01*
X135449486Y-117796027D01*
X135399902Y-117789500D01*
X135040105Y-117789500D01*
X135024386Y-117791569D01*
X134990513Y-117796028D01*
X134990511Y-117796029D01*
X134990509Y-117796029D01*
X134881683Y-117846776D01*
X134796775Y-117931684D01*
X134790553Y-117940571D01*
X134788594Y-117939199D01*
X134787073Y-117940926D01*
X134779869Y-117956703D01*
X134764462Y-117966603D01*
X134752360Y-117980348D01*
X134735476Y-117985232D01*
X134721091Y-117994477D01*
X134686156Y-117999500D01*
X134440321Y-117999500D01*
X134373282Y-117979815D01*
X134327939Y-117927904D01*
X134324065Y-117919596D01*
X134240404Y-117835935D01*
X134133173Y-117785932D01*
X134133171Y-117785931D01*
X134133172Y-117785931D01*
X134084317Y-117779500D01*
X134084316Y-117779500D01*
X133735684Y-117779500D01*
X133735683Y-117779500D01*
X133686828Y-117785931D01*
X133579595Y-117835935D01*
X133488264Y-117927267D01*
X133485440Y-117924443D01*
X133446958Y-117955183D01*
X133377458Y-117962352D01*
X133315114Y-117930808D01*
X133311901Y-117927101D01*
X133311736Y-117927267D01*
X133220404Y-117835935D01*
X133113173Y-117785932D01*
X133113171Y-117785931D01*
X133113172Y-117785931D01*
X133064317Y-117779500D01*
X133064316Y-117779500D01*
X132715684Y-117779500D01*
X132715683Y-117779500D01*
X132666828Y-117785931D01*
X132559595Y-117835935D01*
X132475935Y-117919595D01*
X132475935Y-117919596D01*
X132472060Y-117927904D01*
X132425890Y-117980343D01*
X132359679Y-117999500D01*
X131260438Y-117999500D01*
X131229867Y-118007691D01*
X131184008Y-118019979D01*
X131184005Y-118019981D01*
X131152537Y-118038150D01*
X131152531Y-118038153D01*
X131148575Y-118040438D01*
X131115489Y-118059540D01*
X131103576Y-118071452D01*
X131093906Y-118078030D01*
X131071335Y-118085302D01*
X131050525Y-118096666D01*
X131028829Y-118098998D01*
X131027404Y-118099458D01*
X131026583Y-118099240D01*
X131024167Y-118099500D01*
X130934108Y-118099500D01*
X130806812Y-118133608D01*
X130692686Y-118199500D01*
X130692683Y-118199502D01*
X130599502Y-118292683D01*
X130599500Y-118292686D01*
X130533608Y-118406812D01*
X130509349Y-118497350D01*
X130499500Y-118534108D01*
X122515832Y-118534108D01*
X122509065Y-118519596D01*
X122469650Y-118480181D01*
X122465425Y-118472443D01*
X122458348Y-118467188D01*
X122448938Y-118442251D01*
X122436165Y-118418858D01*
X122436793Y-118410064D01*
X122433682Y-118401817D01*
X122439247Y-118375753D01*
X122441149Y-118349166D01*
X122446815Y-118340311D01*
X122448273Y-118333488D01*
X122468805Y-118305950D01*
X122469316Y-118305154D01*
X122469446Y-118305022D01*
X122494065Y-118280404D01*
X122494230Y-118280048D01*
X122501985Y-118272235D01*
X122523655Y-118260294D01*
X122542977Y-118244843D01*
X122553719Y-118243728D01*
X122563180Y-118238516D01*
X122587866Y-118240187D01*
X122612474Y-118237635D01*
X122622113Y-118242505D01*
X122632890Y-118243235D01*
X122652751Y-118257985D01*
X122674835Y-118269143D01*
X122678093Y-118272903D01*
X122678264Y-118272733D01*
X122685935Y-118280404D01*
X122769596Y-118364065D01*
X122876827Y-118414068D01*
X122925683Y-118420500D01*
X122925684Y-118420500D01*
X123274317Y-118420500D01*
X123290601Y-118418356D01*
X123323173Y-118414068D01*
X123430404Y-118364065D01*
X123514065Y-118280404D01*
X123564068Y-118173173D01*
X123570500Y-118124316D01*
X123570500Y-117675684D01*
X123564068Y-117626827D01*
X123514065Y-117519596D01*
X123447401Y-117452932D01*
X123443062Y-117444986D01*
X123435815Y-117439561D01*
X123426580Y-117414801D01*
X123413916Y-117391609D01*
X123414561Y-117382579D01*
X123411398Y-117374097D01*
X123417014Y-117348276D01*
X123418900Y-117321917D01*
X123424718Y-117312863D01*
X123426250Y-117305824D01*
X123447401Y-117277570D01*
X123488152Y-117236819D01*
X123549475Y-117203334D01*
X123575833Y-117200500D01*
X123665890Y-117200500D01*
X123665892Y-117200500D01*
X123793186Y-117166392D01*
X123907314Y-117100500D01*
X124000500Y-117007314D01*
X124066392Y-116893186D01*
X124100500Y-116765892D01*
X124100500Y-116634108D01*
X124066392Y-116506814D01*
X124000500Y-116392686D01*
X123936818Y-116329004D01*
X123903334Y-116267680D01*
X123900500Y-116241323D01*
X123900500Y-110590098D01*
X133199500Y-110590098D01*
X133199500Y-111009894D01*
X133199501Y-111009900D01*
X133206028Y-111059487D01*
X133206029Y-111059489D01*
X133206029Y-111059490D01*
X133245124Y-111143328D01*
X133256776Y-111168316D01*
X133341684Y-111253224D01*
X133450513Y-111303972D01*
X133500099Y-111310500D01*
X133859900Y-111310499D01*
X133909487Y-111303972D01*
X134018316Y-111253224D01*
X134103224Y-111168316D01*
X134103225Y-111168313D01*
X134109447Y-111159429D01*
X134111405Y-111160800D01*
X134147640Y-111119652D01*
X134213844Y-111100500D01*
X134759679Y-111100500D01*
X134826718Y-111120185D01*
X134852524Y-111142307D01*
X134864454Y-111155783D01*
X134875935Y-111180404D01*
X134959596Y-111264065D01*
X134960816Y-111264634D01*
X134968345Y-111273138D01*
X134981657Y-111301487D01*
X134996666Y-111328973D01*
X134997289Y-111334776D01*
X134998044Y-111336382D01*
X134997722Y-111338799D01*
X134999500Y-111355331D01*
X134999500Y-111769746D01*
X134979815Y-111836785D01*
X134968480Y-111851787D01*
X134303176Y-112605797D01*
X134303172Y-112605804D01*
X134292381Y-112623708D01*
X134292379Y-112623712D01*
X134284439Y-112636888D01*
X134261133Y-112671769D01*
X134249500Y-112730252D01*
X134249500Y-112736297D01*
X134249170Y-112737852D01*
X134249500Y-112739801D01*
X134249500Y-112744356D01*
X134249101Y-112745479D01*
X134249500Y-112750224D01*
X134249500Y-114469752D01*
X134261131Y-114528229D01*
X134261132Y-114528230D01*
X134305447Y-114594552D01*
X134371769Y-114638867D01*
X134371770Y-114638868D01*
X134430247Y-114650499D01*
X134430250Y-114650500D01*
X134430252Y-114650500D01*
X136169750Y-114650500D01*
X136169751Y-114650499D01*
X136184568Y-114647552D01*
X136228229Y-114638868D01*
X136228229Y-114638867D01*
X136228231Y-114638867D01*
X136294552Y-114594552D01*
X136338867Y-114528231D01*
X136338867Y-114528229D01*
X136338868Y-114528229D01*
X136350499Y-114469752D01*
X136350500Y-114469750D01*
X136350500Y-112730249D01*
X136350499Y-112730247D01*
X136338868Y-112671770D01*
X136338867Y-112671769D01*
X136312613Y-112632477D01*
X136308516Y-112625911D01*
X136296826Y-112605804D01*
X136296824Y-112605800D01*
X136296823Y-112605799D01*
X136296822Y-112605797D01*
X135631520Y-111851788D01*
X135601926Y-111788496D01*
X135600500Y-111769747D01*
X135600500Y-111335331D01*
X135609117Y-111305983D01*
X135615570Y-111276084D01*
X135619403Y-111270954D01*
X135620185Y-111268292D01*
X135636674Y-111247795D01*
X135704065Y-111180404D01*
X135704260Y-111179984D01*
X135712174Y-111172045D01*
X135733755Y-111160214D01*
X135752977Y-111144843D01*
X135763854Y-111143714D01*
X135773442Y-111138459D01*
X135797993Y-111140174D01*
X135822474Y-111137635D01*
X135832233Y-111142566D01*
X135843141Y-111143328D01*
X135862866Y-111158043D01*
X135884835Y-111169143D01*
X135888093Y-111172903D01*
X135888264Y-111172733D01*
X135895935Y-111180404D01*
X135979596Y-111264065D01*
X136086827Y-111314068D01*
X136135683Y-111320500D01*
X136135684Y-111320500D01*
X136484317Y-111320500D01*
X136500601Y-111318356D01*
X136533173Y-111314068D01*
X136640404Y-111264065D01*
X136724065Y-111180404D01*
X136774068Y-111073173D01*
X136780500Y-111024316D01*
X136780500Y-110805833D01*
X136800185Y-110738794D01*
X136816819Y-110718152D01*
X138198152Y-109336819D01*
X138259475Y-109303334D01*
X138285833Y-109300500D01*
X144934167Y-109300500D01*
X145001206Y-109320185D01*
X145021848Y-109336819D01*
X145557779Y-109872750D01*
X145591264Y-109934073D01*
X145586280Y-110003765D01*
X145544408Y-110059698D01*
X145486284Y-110083370D01*
X145466828Y-110085931D01*
X145359595Y-110135935D01*
X145275935Y-110219595D01*
X145275935Y-110219596D01*
X145272060Y-110227904D01*
X145225890Y-110280343D01*
X145159679Y-110299500D01*
X144613844Y-110299500D01*
X144546805Y-110279815D01*
X144511356Y-110239234D01*
X144509447Y-110240571D01*
X144503224Y-110231684D01*
X144418316Y-110146776D01*
X144346282Y-110113186D01*
X144309487Y-110096028D01*
X144309485Y-110096027D01*
X144309486Y-110096027D01*
X144259902Y-110089500D01*
X143900105Y-110089500D01*
X143884386Y-110091569D01*
X143850513Y-110096028D01*
X143850511Y-110096029D01*
X143850509Y-110096029D01*
X143741683Y-110146776D01*
X143656776Y-110231683D01*
X143606027Y-110340514D01*
X143599500Y-110390098D01*
X143599500Y-110809894D01*
X143599501Y-110809900D01*
X143606028Y-110859487D01*
X143606029Y-110859489D01*
X143606029Y-110859490D01*
X143645303Y-110943713D01*
X143656776Y-110968316D01*
X143741684Y-111053224D01*
X143850513Y-111103972D01*
X143900099Y-111110500D01*
X144259900Y-111110499D01*
X144309487Y-111103972D01*
X144418316Y-111053224D01*
X144503224Y-110968316D01*
X144503225Y-110968313D01*
X144509447Y-110959429D01*
X144511405Y-110960800D01*
X144547640Y-110919652D01*
X144613844Y-110900500D01*
X145159679Y-110900500D01*
X145226718Y-110920185D01*
X145252963Y-110942804D01*
X145264595Y-110956086D01*
X145275935Y-110980404D01*
X145356090Y-111060559D01*
X145358784Y-111063635D01*
X145371813Y-111091772D01*
X145386666Y-111118973D01*
X145387348Y-111125321D01*
X145388143Y-111127037D01*
X145387799Y-111129517D01*
X145389500Y-111145331D01*
X145389500Y-112425500D01*
X145369815Y-112492539D01*
X145317011Y-112538294D01*
X145265500Y-112549500D01*
X144830247Y-112549500D01*
X144771770Y-112561131D01*
X144771769Y-112561132D01*
X144705447Y-112605447D01*
X144661132Y-112671769D01*
X144661131Y-112671770D01*
X144649500Y-112730247D01*
X144649500Y-114469752D01*
X144661131Y-114528229D01*
X144661132Y-114528230D01*
X144705447Y-114594552D01*
X144771769Y-114638867D01*
X144771770Y-114638868D01*
X144830247Y-114650499D01*
X144830250Y-114650500D01*
X144830252Y-114650500D01*
X146569750Y-114650500D01*
X146569751Y-114650499D01*
X146584568Y-114647552D01*
X146628229Y-114638868D01*
X146628229Y-114638867D01*
X146628231Y-114638867D01*
X146694552Y-114594552D01*
X146738867Y-114528231D01*
X146738867Y-114528229D01*
X146738868Y-114528229D01*
X146750499Y-114469752D01*
X146750500Y-114469750D01*
X146750500Y-112730249D01*
X146750499Y-112730247D01*
X146738868Y-112671770D01*
X146738867Y-112671769D01*
X146694552Y-112605447D01*
X146628230Y-112561132D01*
X146628229Y-112561131D01*
X146569752Y-112549500D01*
X146569748Y-112549500D01*
X146114500Y-112549500D01*
X146047461Y-112529815D01*
X146001706Y-112477011D01*
X145990500Y-112425500D01*
X145990500Y-111145331D01*
X145999119Y-111115975D01*
X146005581Y-111086063D01*
X146009405Y-111080946D01*
X146010185Y-111078292D01*
X146026691Y-111057778D01*
X146104065Y-110980404D01*
X146104263Y-110979978D01*
X146112191Y-110972028D01*
X146133765Y-110960206D01*
X146152977Y-110944843D01*
X146163864Y-110943713D01*
X146173465Y-110938453D01*
X146198008Y-110940172D01*
X146222474Y-110937635D01*
X146232243Y-110942570D01*
X146243164Y-110943336D01*
X146262879Y-110958049D01*
X146284835Y-110969143D01*
X146288093Y-110972904D01*
X146288265Y-110972733D01*
X146295934Y-110980402D01*
X146295935Y-110980404D01*
X146339847Y-111024316D01*
X146379600Y-111064069D01*
X146384827Y-111067729D01*
X146428262Y-111121845D01*
X146429977Y-111125985D01*
X146429978Y-111125988D01*
X146429979Y-111125989D01*
X146450077Y-111160800D01*
X146454415Y-111168315D01*
X146461395Y-111180404D01*
X146461396Y-111180406D01*
X146461395Y-111180406D01*
X146469535Y-111194505D01*
X146469542Y-111194514D01*
X147063181Y-111788152D01*
X147096666Y-111849475D01*
X147099500Y-111875833D01*
X147099500Y-111965892D01*
X147116101Y-112027850D01*
X147133608Y-112093187D01*
X147156413Y-112132686D01*
X147199500Y-112207314D01*
X147292686Y-112300500D01*
X147406814Y-112366392D01*
X147534108Y-112400500D01*
X147534110Y-112400500D01*
X147665890Y-112400500D01*
X147665892Y-112400500D01*
X147793186Y-112366392D01*
X147907314Y-112300500D01*
X148000500Y-112207314D01*
X148066392Y-112093186D01*
X148100500Y-111965892D01*
X148100500Y-111834108D01*
X148066392Y-111706814D01*
X148000500Y-111592686D01*
X147907314Y-111499500D01*
X147850250Y-111466554D01*
X147793187Y-111433608D01*
X147689747Y-111405892D01*
X147665892Y-111399500D01*
X147575833Y-111399500D01*
X147508794Y-111379815D01*
X147488152Y-111363181D01*
X147179516Y-111054545D01*
X147146031Y-110993222D01*
X147151015Y-110923530D01*
X147154803Y-110914486D01*
X147174068Y-110873173D01*
X147180500Y-110824316D01*
X147180500Y-110375684D01*
X147174068Y-110326827D01*
X147124065Y-110219596D01*
X147040404Y-110135935D01*
X146933173Y-110085932D01*
X146933171Y-110085931D01*
X146933172Y-110085931D01*
X146884317Y-110079500D01*
X146884316Y-110079500D01*
X146665833Y-110079500D01*
X146598794Y-110059815D01*
X146578152Y-110043181D01*
X145294513Y-108759542D01*
X145294511Y-108759540D01*
X145273264Y-108747273D01*
X145250461Y-108734108D01*
X145225991Y-108719980D01*
X145225990Y-108719979D01*
X145200513Y-108713152D01*
X145149562Y-108699500D01*
X138070438Y-108699500D01*
X138032224Y-108709739D01*
X137994009Y-108719979D01*
X137994008Y-108719980D01*
X137946736Y-108747273D01*
X137925492Y-108759538D01*
X137925486Y-108759542D01*
X136441848Y-110243181D01*
X136380525Y-110276666D01*
X136354167Y-110279500D01*
X136135683Y-110279500D01*
X136086828Y-110285931D01*
X135979595Y-110335935D01*
X135888264Y-110427267D01*
X135885440Y-110424443D01*
X135846958Y-110455183D01*
X135777458Y-110462352D01*
X135715114Y-110430808D01*
X135711901Y-110427101D01*
X135711736Y-110427267D01*
X135620404Y-110335935D01*
X135587304Y-110320500D01*
X135513173Y-110285932D01*
X135513171Y-110285931D01*
X135513172Y-110285931D01*
X135464317Y-110279500D01*
X135464316Y-110279500D01*
X135115684Y-110279500D01*
X135115683Y-110279500D01*
X135066828Y-110285931D01*
X134959595Y-110335935D01*
X134875935Y-110419595D01*
X134875935Y-110419596D01*
X134872060Y-110427904D01*
X134825890Y-110480343D01*
X134759679Y-110499500D01*
X134213844Y-110499500D01*
X134146805Y-110479815D01*
X134111356Y-110439234D01*
X134109447Y-110440571D01*
X134103224Y-110431684D01*
X134018316Y-110346776D01*
X133995067Y-110335935D01*
X133909487Y-110296028D01*
X133909485Y-110296027D01*
X133909486Y-110296027D01*
X133859902Y-110289500D01*
X133500105Y-110289500D01*
X133484386Y-110291569D01*
X133450513Y-110296028D01*
X133450511Y-110296029D01*
X133450509Y-110296029D01*
X133341683Y-110346776D01*
X133256776Y-110431683D01*
X133206027Y-110540514D01*
X133199500Y-110590098D01*
X123900500Y-110590098D01*
X123900500Y-109610439D01*
X123900500Y-109610438D01*
X123880021Y-109534011D01*
X123860096Y-109499500D01*
X123840464Y-109465495D01*
X123840458Y-109465487D01*
X123356819Y-108981848D01*
X123323334Y-108920525D01*
X123320500Y-108894167D01*
X123320500Y-108675683D01*
X123317284Y-108651255D01*
X123314068Y-108626827D01*
X123264065Y-108519596D01*
X123180404Y-108435935D01*
X123073173Y-108385932D01*
X123073171Y-108385931D01*
X123073172Y-108385931D01*
X123024317Y-108379500D01*
X123024316Y-108379500D01*
X122675684Y-108379500D01*
X122675683Y-108379500D01*
X122626828Y-108385931D01*
X122519595Y-108435935D01*
X122428264Y-108527267D01*
X122425440Y-108524443D01*
X122386958Y-108555183D01*
X122317458Y-108562352D01*
X122255114Y-108530808D01*
X122251901Y-108527101D01*
X122251736Y-108527267D01*
X122160404Y-108435935D01*
X122082269Y-108399500D01*
X122053173Y-108385932D01*
X122053171Y-108385931D01*
X122053172Y-108385931D01*
X122004317Y-108379500D01*
X122004316Y-108379500D01*
X121655684Y-108379500D01*
X121655683Y-108379500D01*
X121606828Y-108385931D01*
X121499595Y-108435935D01*
X121415935Y-108519595D01*
X121415935Y-108519596D01*
X121412060Y-108527904D01*
X121365890Y-108580343D01*
X121299679Y-108599500D01*
X118480321Y-108599500D01*
X118413282Y-108579815D01*
X118367939Y-108527904D01*
X118364065Y-108519596D01*
X118280404Y-108435935D01*
X118173173Y-108385932D01*
X118173171Y-108385931D01*
X118173172Y-108385931D01*
X118124317Y-108379500D01*
X118124316Y-108379500D01*
X117775684Y-108379500D01*
X117775683Y-108379500D01*
X117726828Y-108385931D01*
X117619595Y-108435935D01*
X117535935Y-108519595D01*
X117485931Y-108626828D01*
X117479500Y-108675683D01*
X108500500Y-108675683D01*
X108500500Y-102957661D01*
X108520185Y-102890622D01*
X108545115Y-102862403D01*
X110265511Y-101428741D01*
X110329614Y-101400945D01*
X110344894Y-101400000D01*
X140999999Y-101400000D01*
X141000000Y-101400000D01*
X142800000Y-100153846D01*
X142800000Y-96146268D01*
X142819685Y-96079229D01*
X142856943Y-96041964D01*
X144000000Y-95307143D01*
X144000000Y-94466362D01*
X144002255Y-94458682D01*
X144000983Y-94450780D01*
X144011957Y-94425640D01*
X144019685Y-94399323D01*
X144026448Y-94392445D01*
X144028936Y-94386746D01*
X144055214Y-94363190D01*
X144256402Y-94229064D01*
X144308996Y-94209301D01*
X144349487Y-94203972D01*
X144458316Y-94153224D01*
X144543224Y-94068316D01*
X144549154Y-94055598D01*
X144592749Y-94004833D01*
X144800000Y-93866666D01*
X144800000Y-92643726D01*
X144819685Y-92576687D01*
X144858277Y-92538576D01*
X145400000Y-92200000D01*
X145400000Y-88824000D01*
X145402550Y-88815314D01*
X145401262Y-88806353D01*
X145412240Y-88782312D01*
X145419685Y-88756961D01*
X145426525Y-88751033D01*
X145430287Y-88742797D01*
X145452521Y-88728507D01*
X145472489Y-88711206D01*
X145483003Y-88708918D01*
X145489065Y-88705023D01*
X145524000Y-88700000D01*
X145576000Y-88700000D01*
X145643039Y-88719685D01*
G37*
%TD.AperFunction*%
%TD*%
%TA.AperFunction,NonConductor*%
G36*
X122516906Y-109362809D02*
G01*
X122519592Y-109364061D01*
X122519596Y-109364065D01*
X122626827Y-109414068D01*
X122663469Y-109418892D01*
X122675683Y-109420500D01*
X122675684Y-109420500D01*
X122894167Y-109420500D01*
X122961206Y-109440185D01*
X122981848Y-109456819D01*
X123263181Y-109738152D01*
X123296666Y-109799475D01*
X123299500Y-109825833D01*
X123299500Y-112393196D01*
X123289960Y-112425684D01*
X123280996Y-112458362D01*
X123280138Y-112459131D01*
X123279815Y-112460235D01*
X123254243Y-112482392D01*
X123229017Y-112505053D01*
X123227879Y-112505237D01*
X123227011Y-112505990D01*
X123193488Y-112510810D01*
X123160047Y-112516229D01*
X123158992Y-112515770D01*
X123157853Y-112515934D01*
X123127035Y-112501860D01*
X123095983Y-112488344D01*
X123094970Y-112487216D01*
X123094297Y-112486909D01*
X123072398Y-112462087D01*
X123052613Y-112432477D01*
X123048516Y-112425911D01*
X123036826Y-112405804D01*
X123036824Y-112405800D01*
X123036823Y-112405799D01*
X123036822Y-112405797D01*
X122371520Y-111651788D01*
X122341926Y-111588496D01*
X122340500Y-111569747D01*
X122340500Y-109475191D01*
X122360185Y-109408152D01*
X122412989Y-109362397D01*
X122482147Y-109352453D01*
X122516906Y-109362809D01*
G37*
%TD.AperFunction*%
%TA.AperFunction,Conductor*%
%TO.N,VCC_12*%
G36*
X150843039Y-87819685D02*
G01*
X150888794Y-87872489D01*
X150900000Y-87924000D01*
X150900000Y-88648638D01*
X150891355Y-88678078D01*
X150884832Y-88708065D01*
X150881077Y-88713080D01*
X150880315Y-88715677D01*
X150863681Y-88736319D01*
X150736319Y-88863681D01*
X150674996Y-88897166D01*
X150648638Y-88900000D01*
X148022366Y-88900000D01*
X147715081Y-89104856D01*
X147715081Y-89337601D01*
X147712530Y-89346286D01*
X147713819Y-89355248D01*
X147702840Y-89379288D01*
X147695396Y-89404640D01*
X147688555Y-89410567D01*
X147684794Y-89418804D01*
X147662559Y-89433093D01*
X147642592Y-89450395D01*
X147632077Y-89452682D01*
X147626016Y-89456578D01*
X147591081Y-89461601D01*
X147492037Y-89461601D01*
X147424998Y-89441916D01*
X147404356Y-89425282D01*
X147336319Y-89357245D01*
X147302834Y-89295922D01*
X147300000Y-89269564D01*
X147300000Y-89066957D01*
X147316614Y-89004955D01*
X147330398Y-88981080D01*
X147330399Y-88981079D01*
X147350878Y-88904652D01*
X147350878Y-88699680D01*
X147370563Y-88632641D01*
X147411080Y-88593351D01*
X147703881Y-88417670D01*
X147767678Y-88400000D01*
X148600000Y-88400000D01*
X148600000Y-88189374D01*
X148619685Y-88122335D01*
X148672489Y-88076580D01*
X148684781Y-88071739D01*
X149480912Y-87806363D01*
X149520124Y-87800000D01*
X150776000Y-87800000D01*
X150843039Y-87819685D01*
G37*
%TD.AperFunction*%
%TD*%
%TA.AperFunction,Conductor*%
%TO.N,Net-(J9-Pin_1)*%
G36*
X122142993Y-119603427D02*
G01*
X122143493Y-119603959D01*
X122882732Y-120441763D01*
X122885636Y-120450234D01*
X122882237Y-120457772D01*
X122048278Y-121292712D01*
X122040007Y-121296144D01*
X122031732Y-121292722D01*
X122031722Y-121292712D01*
X121838868Y-121099632D01*
X121197761Y-120457770D01*
X121194340Y-120449497D01*
X121197266Y-120441764D01*
X121936507Y-119603959D01*
X121944550Y-119600023D01*
X121945280Y-119600000D01*
X122134720Y-119600000D01*
X122142993Y-119603427D01*
G37*
%TD.AperFunction*%
%TD*%
%TA.AperFunction,Conductor*%
%TO.N,Net-(U1B-SW2)*%
G36*
X148772219Y-78874685D02*
G01*
X148796933Y-78895589D01*
X149789542Y-79987460D01*
X149789543Y-79987460D01*
X152448210Y-79987460D01*
X152515249Y-80007145D01*
X152522610Y-80012260D01*
X152768703Y-80196831D01*
X152778022Y-80208407D01*
X152788021Y-80214834D01*
X152800428Y-80236238D01*
X152807101Y-80244527D01*
X152818595Y-80269703D01*
X152818605Y-80269728D01*
X152818617Y-80269750D01*
X152818623Y-80269763D01*
X152852067Y-80330950D01*
X152852072Y-80330957D01*
X152864793Y-80347942D01*
X152889225Y-80413400D01*
X152889543Y-80422275D01*
X152889543Y-83625460D01*
X152869858Y-83692499D01*
X152839943Y-83724660D01*
X152389277Y-84062660D01*
X152323835Y-84087136D01*
X152314877Y-84087460D01*
X150707725Y-84087460D01*
X148889543Y-85087460D01*
X148889543Y-86233282D01*
X148869858Y-86300321D01*
X148849790Y-86324268D01*
X148664696Y-86495651D01*
X148602131Y-86526755D01*
X148599848Y-86527138D01*
X148516878Y-86540279D01*
X148396778Y-86601473D01*
X148396774Y-86601476D01*
X148301476Y-86696774D01*
X148301473Y-86696779D01*
X148240279Y-86816876D01*
X148237222Y-86836183D01*
X148207292Y-86899317D01*
X148176749Y-86924171D01*
X148115492Y-86959537D01*
X148115487Y-86959541D01*
X147895772Y-87179256D01*
X147895767Y-87179261D01*
X147891489Y-87183540D01*
X147835540Y-87239489D01*
X147810171Y-87283428D01*
X147803687Y-87291320D01*
X147799816Y-87293952D01*
X147792130Y-87303581D01*
X146189543Y-88787459D01*
X146189543Y-88787460D01*
X146165686Y-91377259D01*
X146165675Y-91378401D01*
X146163211Y-91386514D01*
X146164418Y-91394906D01*
X146153210Y-91419446D01*
X146145373Y-91445257D01*
X146138915Y-91450749D01*
X146135393Y-91458462D01*
X146112697Y-91473047D01*
X146092150Y-91490523D01*
X146082216Y-91492636D01*
X146076615Y-91496236D01*
X146041680Y-91501259D01*
X146038543Y-91501259D01*
X145971504Y-91481574D01*
X145925749Y-91428770D01*
X145914543Y-91377259D01*
X145914543Y-88495414D01*
X145934228Y-88428375D01*
X145950862Y-88407733D01*
X145951281Y-88407314D01*
X146017173Y-88293186D01*
X146051281Y-88165892D01*
X146051281Y-88034108D01*
X146017173Y-87906814D01*
X145989349Y-87858621D01*
X145981648Y-87845282D01*
X145965175Y-87777382D01*
X145981647Y-87721282D01*
X146017173Y-87659751D01*
X146051281Y-87532457D01*
X146051281Y-87400673D01*
X146044413Y-87375041D01*
X146046074Y-87305193D01*
X146068416Y-87264183D01*
X146889543Y-86265883D01*
X146889543Y-79316731D01*
X146902633Y-79261278D01*
X147054125Y-78958295D01*
X147076106Y-78934664D01*
X147097023Y-78910066D01*
X147100118Y-78908850D01*
X147101709Y-78907140D01*
X147128990Y-78895106D01*
X147136502Y-78892823D01*
X147146190Y-78891178D01*
X147179643Y-78882548D01*
X147240934Y-78861100D01*
X147243396Y-78860353D01*
X147248195Y-78860308D01*
X147279437Y-78855000D01*
X148705180Y-78855000D01*
X148772219Y-78874685D01*
G37*
%TD.AperFunction*%
%TD*%
%TA.AperFunction,Conductor*%
%TO.N,EN_5*%
G36*
X119601048Y-119619760D02*
G01*
X119603236Y-119622793D01*
X120202129Y-120818541D01*
X120202770Y-120827473D01*
X120198178Y-120833503D01*
X119506510Y-121296640D01*
X119497729Y-121298395D01*
X119493490Y-121296640D01*
X118801821Y-120833503D01*
X118796854Y-120826052D01*
X118797869Y-120818543D01*
X119396764Y-119622792D01*
X119403533Y-119616931D01*
X119407225Y-119616333D01*
X119592775Y-119616333D01*
X119601048Y-119619760D01*
G37*
%TD.AperFunction*%
%TD*%
%TA.AperFunction,Conductor*%
%TO.N,Net-(U2-ADDR)*%
G36*
X129381518Y-88077704D02*
G01*
X129543109Y-88146960D01*
X129549362Y-88153368D01*
X129550199Y-88157713D01*
X129550199Y-88342284D01*
X129546772Y-88350557D01*
X129543108Y-88353038D01*
X129381522Y-88422292D01*
X129372568Y-88422401D01*
X129369749Y-88420789D01*
X129161146Y-88259250D01*
X129156703Y-88251475D01*
X129159059Y-88242835D01*
X129161146Y-88240748D01*
X129369750Y-88079207D01*
X129378389Y-88076852D01*
X129381518Y-88077704D01*
G37*
%TD.AperFunction*%
%TD*%
%TA.AperFunction,Conductor*%
%TO.N,V_OUT_5+*%
G36*
X185013677Y-71220185D02*
G01*
X185034319Y-71236819D01*
X189061181Y-75263681D01*
X189094666Y-75325004D01*
X189097500Y-75351362D01*
X189097500Y-92452314D01*
X189077815Y-92519353D01*
X189061181Y-92539995D01*
X187095239Y-94505936D01*
X187033916Y-94539421D01*
X187009158Y-94542245D01*
X171417710Y-94743486D01*
X171350422Y-94724668D01*
X171329282Y-94708023D01*
X169081797Y-92503676D01*
X167643828Y-91093308D01*
X167609752Y-91032313D01*
X167606660Y-91005676D01*
X167589318Y-88599993D01*
X167548950Y-83000000D01*
X167548950Y-82999999D01*
X163395284Y-78882214D01*
X159277500Y-74800000D01*
X159277499Y-74800000D01*
X139374999Y-74800000D01*
X131200000Y-82494118D01*
X131200000Y-86151805D01*
X131180315Y-86218844D01*
X131144638Y-86255075D01*
X128752879Y-87844754D01*
X128752878Y-87844755D01*
X128752533Y-87935383D01*
X128737988Y-87984226D01*
X128741013Y-87985479D01*
X128736339Y-87996762D01*
X128724707Y-88055242D01*
X128724707Y-88445500D01*
X128705022Y-88512539D01*
X128652218Y-88558294D01*
X128600707Y-88569500D01*
X127053995Y-88569500D01*
X127052071Y-88568935D01*
X127050130Y-88569440D01*
X127018687Y-88559132D01*
X126986956Y-88549815D01*
X126985643Y-88548299D01*
X126983737Y-88547675D01*
X126962854Y-88522000D01*
X126941201Y-88497011D01*
X126940515Y-88494535D01*
X126939650Y-88493471D01*
X126938127Y-88485906D01*
X126930767Y-88459313D01*
X126929995Y-88452425D01*
X126929995Y-88375499D01*
X126928237Y-88348677D01*
X126924012Y-88316584D01*
X126918768Y-88290219D01*
X126906811Y-88245595D01*
X126905772Y-88236323D01*
X126906370Y-88232918D01*
X126905000Y-88222510D01*
X126905000Y-88177488D01*
X126909225Y-88145395D01*
X126933087Y-88056341D01*
X126933224Y-88055794D01*
X126934846Y-88049928D01*
X126941905Y-88026665D01*
X126951344Y-87979213D01*
X126955293Y-87939121D01*
X126955293Y-87754445D01*
X126953201Y-87725199D01*
X126948178Y-87690264D01*
X126940997Y-87671013D01*
X126937405Y-87659775D01*
X126932106Y-87640000D01*
X126932107Y-87640000D01*
X126909225Y-87554602D01*
X126905000Y-87522510D01*
X126905000Y-87477487D01*
X126909225Y-87445394D01*
X126936432Y-87343855D01*
X126937066Y-87341575D01*
X126940770Y-87328736D01*
X126941334Y-87325622D01*
X126944733Y-87312080D01*
X126945001Y-87311623D01*
X126945228Y-87310172D01*
X126948292Y-87298736D01*
X126948293Y-87298733D01*
X126955293Y-87245555D01*
X126955293Y-86554445D01*
X126948289Y-86501252D01*
X126945194Y-86489702D01*
X126931971Y-86440037D01*
X126932107Y-86440001D01*
X126909174Y-86354412D01*
X126909178Y-86354247D01*
X126905000Y-86322510D01*
X126905000Y-86277487D01*
X126909225Y-86245394D01*
X126936432Y-86143855D01*
X126937066Y-86141575D01*
X126940770Y-86128736D01*
X126941334Y-86125622D01*
X126944733Y-86112080D01*
X126945001Y-86111623D01*
X126945228Y-86110172D01*
X126948292Y-86098736D01*
X126948293Y-86098733D01*
X126955293Y-86045555D01*
X126955293Y-85054445D01*
X126948289Y-85001252D01*
X126945150Y-84989538D01*
X126931970Y-84940036D01*
X126932107Y-84940000D01*
X126909174Y-84854412D01*
X126909178Y-84854247D01*
X126905000Y-84822510D01*
X126905000Y-84777487D01*
X126909225Y-84745394D01*
X126936432Y-84643855D01*
X126937066Y-84641575D01*
X126940770Y-84628736D01*
X126941334Y-84625622D01*
X126944733Y-84612080D01*
X126945001Y-84611623D01*
X126945228Y-84610172D01*
X126948292Y-84598736D01*
X126948293Y-84598733D01*
X126955293Y-84545555D01*
X126955293Y-83654445D01*
X126948289Y-83601252D01*
X126945150Y-83589538D01*
X126931970Y-83540036D01*
X126932107Y-83540000D01*
X126909174Y-83454412D01*
X126909178Y-83454247D01*
X126905000Y-83422510D01*
X126905000Y-83377487D01*
X126909225Y-83345394D01*
X126936432Y-83243855D01*
X126937066Y-83241575D01*
X126940770Y-83228736D01*
X126941334Y-83225622D01*
X126944733Y-83212080D01*
X126945001Y-83211623D01*
X126945228Y-83210172D01*
X126948292Y-83198736D01*
X126948293Y-83198733D01*
X126955293Y-83145555D01*
X126955293Y-82254445D01*
X126948289Y-82201252D01*
X126945150Y-82189538D01*
X126931970Y-82140036D01*
X126932107Y-82140000D01*
X126909174Y-82054412D01*
X126909178Y-82054247D01*
X126905000Y-82022510D01*
X126905000Y-81977487D01*
X126909225Y-81945394D01*
X126936432Y-81843855D01*
X126937066Y-81841575D01*
X126940770Y-81828736D01*
X126941334Y-81825622D01*
X126944733Y-81812080D01*
X126945001Y-81811623D01*
X126945228Y-81810172D01*
X126948292Y-81798736D01*
X126948293Y-81798733D01*
X126955293Y-81745555D01*
X126955293Y-73301155D01*
X126954115Y-73279186D01*
X126951281Y-73252828D01*
X126948889Y-73245188D01*
X126947642Y-73175330D01*
X126979540Y-73120459D01*
X128863181Y-71236819D01*
X128924504Y-71203334D01*
X128950862Y-71200500D01*
X184946638Y-71200500D01*
X185013677Y-71220185D01*
G37*
%TD.AperFunction*%
%TD*%
%TA.AperFunction,Conductor*%
%TO.N,Net-(R1-Pad2)*%
G36*
X173179806Y-121576561D02*
G01*
X174980420Y-122489565D01*
X174986249Y-122496363D01*
X174985564Y-122505291D01*
X174980420Y-122510435D01*
X173179806Y-123423438D01*
X173170878Y-123424123D01*
X173167375Y-123422272D01*
X172104560Y-122603512D01*
X172100097Y-122595748D01*
X172100000Y-122594243D01*
X172100000Y-122405756D01*
X172103427Y-122397483D01*
X172104560Y-122396487D01*
X173167377Y-121577726D01*
X173176020Y-121575393D01*
X173179806Y-121576561D01*
G37*
%TD.AperFunction*%
%TD*%
%TA.AperFunction,Conductor*%
%TO.N,GND*%
G36*
X158604295Y-75214396D02*
G01*
X158671213Y-75234482D01*
X158691490Y-75250973D01*
X166963943Y-83573110D01*
X166997245Y-83634533D01*
X167000000Y-83660528D01*
X167000000Y-90976256D01*
X171152549Y-95200000D01*
X186826138Y-95200000D01*
X186893177Y-95219685D01*
X186913819Y-95236319D01*
X189691181Y-98013681D01*
X189724666Y-98075004D01*
X189727500Y-98101362D01*
X189727500Y-103348638D01*
X189707815Y-103415677D01*
X189691181Y-103436319D01*
X186163819Y-106963681D01*
X186102496Y-106997166D01*
X186076138Y-107000000D01*
X170372491Y-107000000D01*
X170305452Y-106980315D01*
X170285187Y-106964057D01*
X156301440Y-93100000D01*
X154514764Y-93100000D01*
X154447725Y-93080315D01*
X154401970Y-93027511D01*
X154390765Y-92975572D01*
X154399656Y-90399657D01*
X154399655Y-90399655D01*
X154393808Y-90393808D01*
X154369105Y-90358529D01*
X154364998Y-90349722D01*
X154333559Y-90282300D01*
X154248651Y-90197392D01*
X154239631Y-90193186D01*
X154172419Y-90161844D01*
X154137143Y-90137143D01*
X154100000Y-90100000D01*
X152615674Y-90100000D01*
X152548635Y-90080315D01*
X152502880Y-90027511D01*
X152491681Y-89974668D01*
X152498926Y-89300000D01*
X152475551Y-89300000D01*
X152408512Y-89280315D01*
X152387870Y-89263682D01*
X152353529Y-89229341D01*
X152310739Y-89186551D01*
X152203508Y-89136548D01*
X152203506Y-89136547D01*
X152203507Y-89136547D01*
X152154652Y-89130116D01*
X152154651Y-89130116D01*
X151806019Y-89130116D01*
X151806018Y-89130116D01*
X151757163Y-89136547D01*
X151649930Y-89186551D01*
X151566271Y-89270210D01*
X151566270Y-89270211D01*
X151566270Y-89270212D01*
X151552380Y-89300000D01*
X151515657Y-89378751D01*
X151474384Y-89427930D01*
X150834591Y-89875786D01*
X150768382Y-89898104D01*
X150763482Y-89898201D01*
X147910484Y-89898201D01*
X147872270Y-89908440D01*
X147834055Y-89918680D01*
X147834050Y-89918683D01*
X147765541Y-89958236D01*
X147765533Y-89958242D01*
X147760095Y-89963681D01*
X147733167Y-89978384D01*
X147707349Y-89994977D01*
X147701148Y-89995868D01*
X147698772Y-89997166D01*
X147672414Y-90000000D01*
X147624239Y-90000000D01*
X147557200Y-89980315D01*
X147511445Y-89927511D01*
X147503431Y-89874019D01*
X147500500Y-89874019D01*
X147500500Y-89789027D01*
X147520185Y-89721988D01*
X147572989Y-89676233D01*
X147615658Y-89665343D01*
X147616256Y-89665300D01*
X147620327Y-89665009D01*
X147643966Y-89661610D01*
X147655256Y-89659987D01*
X147655256Y-89659986D01*
X147655262Y-89659986D01*
X147675521Y-89652428D01*
X147675752Y-89653487D01*
X147686267Y-89651200D01*
X147696457Y-89648710D01*
X147722049Y-89635071D01*
X147737134Y-89629445D01*
X147743195Y-89625549D01*
X147743194Y-89625548D01*
X147754806Y-89618084D01*
X147754828Y-89618070D01*
X147759072Y-89615342D01*
X147777168Y-89605700D01*
X147786023Y-89598026D01*
X147795893Y-89591684D01*
X147816183Y-89576814D01*
X147827329Y-89562234D01*
X147829960Y-89559955D01*
X147847925Y-89542354D01*
X147862640Y-89516045D01*
X147871729Y-89504158D01*
X147875490Y-89495921D01*
X147875489Y-89495920D01*
X147880462Y-89485031D01*
X147885045Y-89475991D01*
X147892056Y-89463459D01*
X147941966Y-89414563D01*
X148000272Y-89400000D01*
X149033332Y-89400000D01*
X149033333Y-89400000D01*
X149266933Y-89224799D01*
X149332375Y-89200324D01*
X149341333Y-89200000D01*
X150900000Y-89200000D01*
X151200000Y-89000000D01*
X151200000Y-85516365D01*
X151219685Y-85449326D01*
X151243989Y-85421632D01*
X153250000Y-83727367D01*
X153250000Y-80450000D01*
X153032391Y-80232391D01*
X152998927Y-80171167D01*
X152997644Y-80165293D01*
X152952793Y-80037119D01*
X152952792Y-80037117D01*
X152927136Y-80002354D01*
X152872150Y-79927850D01*
X152762882Y-79847207D01*
X152762880Y-79847206D01*
X152634699Y-79802353D01*
X152628825Y-79801070D01*
X152567608Y-79767608D01*
X151495539Y-78695539D01*
X148949185Y-78695539D01*
X148908230Y-78688580D01*
X148804702Y-78652354D01*
X148804700Y-78652353D01*
X148774270Y-78649500D01*
X147245739Y-78649500D01*
X147215297Y-78652354D01*
X147111769Y-78688581D01*
X147070815Y-78695539D01*
X144129185Y-78695539D01*
X144088230Y-78688580D01*
X143984702Y-78652354D01*
X143984700Y-78652353D01*
X143954270Y-78649500D01*
X142425739Y-78649500D01*
X142395297Y-78652354D01*
X142291769Y-78688581D01*
X142250815Y-78695539D01*
X138904460Y-78695539D01*
X137850000Y-79749999D01*
X137850000Y-84450000D01*
X139163681Y-85763681D01*
X139197166Y-85825004D01*
X139200000Y-85851362D01*
X139200000Y-88478411D01*
X139199735Y-88486520D01*
X139199500Y-88490105D01*
X139199500Y-88909902D01*
X139199734Y-88913456D01*
X139200000Y-88921569D01*
X139200000Y-89478411D01*
X139199735Y-89486520D01*
X139199500Y-89490105D01*
X139199500Y-89909902D01*
X139199734Y-89913456D01*
X139200000Y-89921569D01*
X139200000Y-90978411D01*
X139199735Y-90986520D01*
X139199500Y-90990105D01*
X139199500Y-91409902D01*
X139199734Y-91413456D01*
X139200000Y-91421569D01*
X139200000Y-92418638D01*
X139180315Y-92485677D01*
X139163681Y-92506319D01*
X138906319Y-92763681D01*
X138844996Y-92797166D01*
X138818638Y-92800000D01*
X128951362Y-92800000D01*
X128884323Y-92780315D01*
X128863681Y-92763681D01*
X128536319Y-92436319D01*
X128502834Y-92374996D01*
X128500000Y-92348638D01*
X128500000Y-91855962D01*
X128508644Y-91826521D01*
X128515168Y-91796535D01*
X128518922Y-91791519D01*
X128519685Y-91788923D01*
X128536319Y-91768281D01*
X128663681Y-91640919D01*
X128725004Y-91607434D01*
X128751362Y-91604600D01*
X129739446Y-91604600D01*
X129806485Y-91624285D01*
X129827127Y-91640919D01*
X129854925Y-91668717D01*
X129969053Y-91734609D01*
X130096347Y-91768717D01*
X130096349Y-91768717D01*
X130228129Y-91768717D01*
X130228131Y-91768717D01*
X130355425Y-91734609D01*
X130469553Y-91668717D01*
X130497351Y-91640919D01*
X130558674Y-91607434D01*
X130585032Y-91604600D01*
X130800000Y-91604600D01*
X131500000Y-90904600D01*
X131510176Y-90059461D01*
X131514390Y-90028874D01*
X131524765Y-89990157D01*
X131524765Y-89858373D01*
X131517542Y-89831418D01*
X131513327Y-89797841D01*
X131599369Y-82652370D01*
X131619859Y-82585574D01*
X131637979Y-82563943D01*
X139463800Y-75134366D01*
X139525970Y-75102486D01*
X139549906Y-75100298D01*
X158604295Y-75214396D01*
G37*
%TD.AperFunction*%
%TD*%
%TA.AperFunction,Conductor*%
%TO.N,GND*%
G36*
X124716177Y-71220185D02*
G01*
X124736819Y-71236819D01*
X126713474Y-73213474D01*
X126746959Y-73274797D01*
X126749793Y-73301155D01*
X126749793Y-81745555D01*
X126735526Y-81798810D01*
X126736719Y-81799305D01*
X126733609Y-81806811D01*
X126733608Y-81806814D01*
X126699500Y-81934108D01*
X126699500Y-82065892D01*
X126728249Y-82173186D01*
X126733609Y-82193188D01*
X126736720Y-82200700D01*
X126735523Y-82201195D01*
X126749793Y-82254445D01*
X126749793Y-83145555D01*
X126735526Y-83198810D01*
X126736719Y-83199305D01*
X126733609Y-83206811D01*
X126733608Y-83206814D01*
X126699500Y-83334108D01*
X126699500Y-83465892D01*
X126726136Y-83565301D01*
X126733609Y-83593188D01*
X126736720Y-83600700D01*
X126735523Y-83601195D01*
X126749793Y-83654445D01*
X126749793Y-84545555D01*
X126735526Y-84598810D01*
X126736719Y-84599305D01*
X126733609Y-84606811D01*
X126733608Y-84606814D01*
X126699500Y-84734108D01*
X126699500Y-84865892D01*
X126711704Y-84911439D01*
X126733609Y-84993188D01*
X126736720Y-85000700D01*
X126735523Y-85001195D01*
X126749793Y-85054445D01*
X126749793Y-86045555D01*
X126735526Y-86098810D01*
X126736719Y-86099305D01*
X126733609Y-86106811D01*
X126733608Y-86106814D01*
X126699500Y-86234108D01*
X126699500Y-86365891D01*
X126733609Y-86493188D01*
X126736720Y-86500700D01*
X126735523Y-86501195D01*
X126749793Y-86554445D01*
X126749793Y-87245555D01*
X126735526Y-87298810D01*
X126736719Y-87299305D01*
X126733609Y-87306811D01*
X126733608Y-87306814D01*
X126699500Y-87434108D01*
X126699500Y-87565892D01*
X126706813Y-87593186D01*
X126733609Y-87693188D01*
X126736720Y-87700700D01*
X126735523Y-87701195D01*
X126737327Y-87707929D01*
X126744770Y-87719510D01*
X126749793Y-87754445D01*
X126749793Y-87939121D01*
X126740354Y-87986573D01*
X126736010Y-87997058D01*
X126734589Y-88003154D01*
X126733608Y-88006813D01*
X126733608Y-88006814D01*
X126718742Y-88062295D01*
X126699500Y-88134108D01*
X126699500Y-88265891D01*
X126720270Y-88343406D01*
X126724495Y-88375499D01*
X126724495Y-88544745D01*
X126738510Y-88615203D01*
X126737251Y-88615453D01*
X126737468Y-88617075D01*
X126743236Y-88629172D01*
X126742425Y-88654067D01*
X126743818Y-88664461D01*
X126741397Y-88683521D01*
X126739551Y-88685837D01*
X126719200Y-88775000D01*
X126719200Y-88858332D01*
X126718212Y-88866113D01*
X126707237Y-88891233D01*
X126699515Y-88917532D01*
X126693452Y-88922784D01*
X126690240Y-88930139D01*
X126667422Y-88945340D01*
X126646711Y-88963287D01*
X126637465Y-88965298D01*
X126632092Y-88968878D01*
X126620101Y-88969075D01*
X126595200Y-88974493D01*
X126249216Y-88974493D01*
X126231900Y-88972647D01*
X126231884Y-88972807D01*
X126224956Y-88972111D01*
X126224952Y-88972111D01*
X126217790Y-88972197D01*
X126215999Y-88972219D01*
X126209023Y-88973695D01*
X126207554Y-88973996D01*
X126144582Y-88986522D01*
X126143272Y-88987000D01*
X126137527Y-88988819D01*
X126099027Y-89005321D01*
X126076492Y-89014979D01*
X126027645Y-89025006D01*
X124826368Y-89025006D01*
X124759329Y-89005321D01*
X124738687Y-88988687D01*
X123712819Y-87962819D01*
X123698115Y-87935891D01*
X123681523Y-87910073D01*
X123680631Y-87903872D01*
X123679334Y-87901496D01*
X123676500Y-87875138D01*
X123676500Y-87858676D01*
X123696185Y-87791637D01*
X123712819Y-87770995D01*
X123729369Y-87754445D01*
X123776500Y-87707314D01*
X123842392Y-87593186D01*
X123876500Y-87465892D01*
X123876500Y-87334108D01*
X123842392Y-87206814D01*
X123776500Y-87092686D01*
X123712818Y-87029004D01*
X123679334Y-86967680D01*
X123676500Y-86941323D01*
X123676500Y-84911439D01*
X123673569Y-84900500D01*
X123656021Y-84835011D01*
X123656020Y-84835009D01*
X123652910Y-84827501D01*
X123653938Y-84827074D01*
X123639528Y-84773821D01*
X123619198Y-80570071D01*
X120299999Y-77100000D01*
X110251362Y-77100000D01*
X110184323Y-77080315D01*
X110163681Y-77063681D01*
X108536819Y-75436819D01*
X108503334Y-75375496D01*
X108500500Y-75349138D01*
X108500500Y-72438597D01*
X108520185Y-72371558D01*
X108533090Y-72354810D01*
X109554349Y-71240709D01*
X109614160Y-71204593D01*
X109645756Y-71200500D01*
X124649138Y-71200500D01*
X124716177Y-71220185D01*
G37*
%TD.AperFunction*%
%TD*%
%TA.AperFunction,Conductor*%
%TO.N,SCL*%
G36*
X129381518Y-89177704D02*
G01*
X129543109Y-89246960D01*
X129549362Y-89253368D01*
X129550199Y-89257713D01*
X129550199Y-89442284D01*
X129546772Y-89450557D01*
X129543108Y-89453038D01*
X129381521Y-89522292D01*
X129372567Y-89522401D01*
X129369750Y-89520790D01*
X129161145Y-89359249D01*
X129156703Y-89351475D01*
X129159059Y-89342835D01*
X129161146Y-89340748D01*
X129369750Y-89179207D01*
X129378389Y-89176852D01*
X129381518Y-89177704D01*
G37*
%TD.AperFunction*%
%TD*%
M02*
