M48
; DRILL file {KiCad 9.0.4} date 2025-09-17T18:04:15-0300
; FORMAT={-:-/ absolute / metric / decimal}
; #@! TF.CreationDate,2025-09-17T18:04:15-03:00
; #@! TF.GenerationSoftware,Kicad,Pcbnew,9.0.4
; #@! TF.FileFunction,Plated,1,2,PTH
FMAT,2
METRIC
; #@! TA.AperFunction,Plated,PTH,ComponentDrill
T1C0.200
; #@! TA.AperFunction,Plated,PTH,ViaDrill
T2C0.300
; #@! TA.AperFunction,Plated,PTH,ComponentDrill
T3C1.300
%
G90
G05
T1
X146.482Y-109.7
X146.482Y-111.0
X146.482Y-112.3
X146.482Y-113.6
X147.782Y-109.7
X147.782Y-111.0
X147.782Y-112.3
X147.782Y-113.6
T2
X117.0Y-112.0
X124.96Y-122.96
X125.0Y-119.0
X128.5Y-138.0
X129.0Y-136.5
X130.0Y-142.0
X130.25Y-129.75
X131.0Y-132.0
X132.0Y-112.0
X133.5Y-138.0
X134.04Y-110.0
X134.5Y-125.5
X134.5Y-146.5
X135.0Y-136.5
X139.0Y-133.5
X142.0Y-113.555
X142.0Y-120.175
X142.0Y-131.675
X142.0Y-142.175
X142.5Y-111.015
X146.0Y-137.0
X146.5Y-125.0
X146.5Y-138.5
X147.0Y-128.5
X148.0Y-117.0
X151.0Y-118.875
X151.0Y-122.5
X151.0Y-133.625
X151.0Y-144.5
X151.375Y-130.375
X151.375Y-140.875
X151.825Y-120.175
X152.5Y-131.675
X153.0Y-111.0
X153.0Y-142.5
X156.5Y-112.5
X159.0Y-111.5
X160.5Y-112.5
T3
X106.0Y-130.46
X106.0Y-135.54
X106.0Y-142.96
X106.0Y-148.04
X106.5Y-104.92
X106.5Y-110.0
X106.5Y-117.96
X106.5Y-123.04
X112.46Y-156.5
X116.46Y-104.5
X117.54Y-156.5
X121.54Y-104.5
X125.46Y-155.5
X128.96Y-104.0
X130.54Y-155.5
X134.04Y-104.0
X138.46Y-155.5
X143.54Y-155.5
X151.46Y-155.5
X154.46Y-106.0
X156.54Y-155.5
X159.54Y-106.0
X164.46Y-155.5
X166.96Y-105.5
X169.54Y-155.5
X172.04Y-105.5
X177.46Y-155.5
X179.46Y-105.5
X182.54Y-155.5
X184.54Y-105.5
X193.5Y-108.46
X193.5Y-113.54
X193.5Y-121.46
X193.5Y-126.54
X193.5Y-134.42
X193.5Y-139.5
X193.5Y-146.96
X193.5Y-152.04
M30
