%TF.GenerationSoftware,KiCad,Pcbnew,9.0.4*%
%TF.CreationDate,2025-09-17T18:04:11-03:00*%
%TF.ProjectId,DriversDiego,44726976-6572-4734-9469-65676f2e6b69,rev?*%
%TF.SameCoordinates,Original*%
%TF.FileFunction,Copper,L1,Top*%
%TF.FilePolarity,Positive*%
%FSLAX46Y46*%
G04 Gerber Fmt 4.6, Leading zero omitted, Abs format (unit mm)*
G04 Created by KiCad (PCBNEW 9.0.4) date 2025-09-17 18:04:11*
%MOMM*%
%LPD*%
G01*
G04 APERTURE LIST*
G04 Aperture macros list*
%AMRoundRect*
0 Rectangle with rounded corners*
0 $1 Rounding radius*
0 $2 $3 $4 $5 $6 $7 $8 $9 X,Y pos of 4 corners*
0 Add a 4 corners polygon primitive as box body*
4,1,4,$2,$3,$4,$5,$6,$7,$8,$9,$2,$3,0*
0 Add four circle primitives for the rounded corners*
1,1,$1+$1,$2,$3*
1,1,$1+$1,$4,$5*
1,1,$1+$1,$6,$7*
1,1,$1+$1,$8,$9*
0 Add four rect primitives between the rounded corners*
20,1,$1+$1,$2,$3,$4,$5,0*
20,1,$1+$1,$4,$5,$6,$7,0*
20,1,$1+$1,$6,$7,$8,$9,0*
20,1,$1+$1,$8,$9,$2,$3,0*%
G04 Aperture macros list end*
%TA.AperFunction,ComponentPad*%
%ADD10C,1.950000*%
%TD*%
%TA.AperFunction,ComponentPad*%
%ADD11R,1.950000X1.950000*%
%TD*%
%TA.AperFunction,SMDPad,CuDef*%
%ADD12RoundRect,0.250000X-0.350000X-0.450000X0.350000X-0.450000X0.350000X0.450000X-0.350000X0.450000X0*%
%TD*%
%TA.AperFunction,SMDPad,CuDef*%
%ADD13RoundRect,0.250000X-0.450000X0.350000X-0.450000X-0.350000X0.450000X-0.350000X0.450000X0.350000X0*%
%TD*%
%TA.AperFunction,SMDPad,CuDef*%
%ADD14RoundRect,0.135000X-0.575000X0.405000X-0.575000X-0.405000X0.575000X-0.405000X0.575000X0.405000X0*%
%TD*%
%TA.AperFunction,SMDPad,CuDef*%
%ADD15RoundRect,0.015000X0.760000X0.285000X-0.760000X0.285000X-0.760000X-0.285000X0.760000X-0.285000X0*%
%TD*%
%TA.AperFunction,SMDPad,CuDef*%
%ADD16R,2.950000X4.900000*%
%TD*%
%TA.AperFunction,ComponentPad*%
%ADD17C,0.300000*%
%TD*%
%TA.AperFunction,SMDPad,CuDef*%
%ADD18R,0.900000X1.300000*%
%TD*%
%TA.AperFunction,SMDPad,CuDef*%
%ADD19R,1.955430X0.420766*%
%TD*%
%TA.AperFunction,SMDPad,CuDef*%
%ADD20R,2.460000X2.770000*%
%TD*%
%TA.AperFunction,SMDPad,CuDef*%
%ADD21R,1.168400X2.413000*%
%TD*%
%TA.AperFunction,SMDPad,CuDef*%
%ADD22R,1.210000X1.530000*%
%TD*%
%TA.AperFunction,ViaPad*%
%ADD23C,0.600000*%
%TD*%
%TA.AperFunction,Conductor*%
%ADD24C,1.500000*%
%TD*%
%TA.AperFunction,Conductor*%
%ADD25C,0.400000*%
%TD*%
%TA.AperFunction,Conductor*%
%ADD26C,3.000000*%
%TD*%
%TA.AperFunction,Conductor*%
%ADD27C,0.200000*%
%TD*%
%TA.AperFunction,Conductor*%
%ADD28C,2.000000*%
%TD*%
%TA.AperFunction,Conductor*%
%ADD29C,0.600000*%
%TD*%
%TA.AperFunction,Conductor*%
%ADD30C,1.000000*%
%TD*%
%TA.AperFunction,Conductor*%
%ADD31C,1.200000*%
%TD*%
G04 APERTURE END LIST*
D10*
%TO.P,J14,2,2*%
%TO.N,Net-(IC2-AIN1)*%
X117540000Y-156500000D03*
D11*
%TO.P,J14,1,1*%
%TO.N,Net-(IC2-AIN2)*%
X112460000Y-156500000D03*
%TD*%
D12*
%TO.P,R3,1*%
%TO.N,Net-(IC1-BISEN)*%
X154500000Y-141000000D03*
%TO.P,R3,2*%
%TO.N,GND*%
X156500000Y-141000000D03*
%TD*%
D13*
%TO.P,R4,1*%
%TO.N,Net-(IC2-AISEN)*%
X152500000Y-134500000D03*
%TO.P,R4,2*%
%TO.N,GND*%
X152500000Y-136500000D03*
%TD*%
D11*
%TO.P,J3,1,1*%
%TO.N,Net-(U1-VM)*%
X106500000Y-104920000D03*
D10*
%TO.P,J3,2,2*%
%TO.N,GND*%
X106500000Y-110000000D03*
%TD*%
D11*
%TO.P,J17,1,1*%
%TO.N,Net-(IC1-AIN2)*%
X138460000Y-155500000D03*
D10*
%TO.P,J17,2,2*%
%TO.N,Net-(IC1-AIN1)*%
X143540000Y-155500000D03*
%TD*%
D14*
%TO.P,C3,1*%
%TO.N,Net-(IC1-VM)*%
X114605000Y-121210000D03*
%TO.P,C3,2*%
%TO.N,GND*%
X114605000Y-123000000D03*
%TD*%
D15*
%TO.P,U1,1,GND*%
%TO.N,GND*%
X149832152Y-113555000D03*
%TO.P,U1,2,IN2*%
%TO.N,Net-(U1-IN2)*%
X149832152Y-112285000D03*
%TO.P,U1,3,IN1*%
%TO.N,Net-(U1-IN1)*%
X149832152Y-111015000D03*
%TO.P,U1,4,ILIM*%
%TO.N,Net-(U1-ILIM)*%
X149832152Y-109745000D03*
%TO.P,U1,5,VM*%
%TO.N,Net-(U1-VM)*%
X144432152Y-109745000D03*
%TO.P,U1,6,OUT1*%
%TO.N,Net-(U1-OUT1)*%
X144432152Y-111015000D03*
%TO.P,U1,7,PGND*%
%TO.N,GND*%
X144432152Y-112285000D03*
%TO.P,U1,8,OUT2*%
%TO.N,Net-(U1-OUT2)*%
X144432152Y-113555000D03*
D16*
%TO.P,U1,9*%
%TO.N,N/C*%
X147132152Y-111650000D03*
D17*
%TO.P,U1,10*%
X147782152Y-113600000D03*
%TO.P,U1,11*%
X146482152Y-113600000D03*
%TO.P,U1,12*%
X147782152Y-112300000D03*
%TO.P,U1,13*%
X146482152Y-112300000D03*
%TO.P,U1,14*%
X147782152Y-111000000D03*
%TO.P,U1,15*%
X146482152Y-111000000D03*
%TO.P,U1,16*%
X147782152Y-109700000D03*
%TO.P,U1,17*%
X146482152Y-109700000D03*
%TD*%
D11*
%TO.P,J4,1,1*%
%TO.N,Net-(IC1-VM)*%
X106500000Y-117960000D03*
D10*
%TO.P,J4,2,2*%
%TO.N,GND*%
X106500000Y-123040000D03*
%TD*%
D11*
%TO.P,J13,1,1*%
%TO.N,Net-(IC3-BOUT1)*%
X193500000Y-108460000D03*
D10*
%TO.P,J13,2,2*%
%TO.N,Net-(IC3-BOUT2)*%
X193500000Y-113540000D03*
%TD*%
D11*
%TO.P,J8,1,1*%
%TO.N,Net-(IC3-AIN2)*%
X116460000Y-104500000D03*
D10*
%TO.P,J8,2,2*%
%TO.N,Net-(IC3-AIN1)*%
X121540000Y-104500000D03*
%TD*%
D11*
%TO.P,J7,1,1*%
%TO.N,Net-(IC2-SLEEP_N)*%
X106000000Y-148040000D03*
D10*
%TO.P,J7,2,2*%
%TO.N,Net-(IC2-FAULT_N)*%
X106000000Y-142960000D03*
%TD*%
D18*
%TO.P,C1,1*%
%TO.N,Net-(U1-VM)*%
X113100000Y-111000000D03*
%TO.P,C1,2*%
%TO.N,GND*%
X115000000Y-111000000D03*
%TD*%
D12*
%TO.P,R7,1*%
%TO.N,Net-(IC3-BISEN)*%
X158000000Y-118500000D03*
%TO.P,R7,2*%
%TO.N,GND*%
X160000000Y-118500000D03*
%TD*%
D11*
%TO.P,J16,1,1*%
%TO.N,Net-(IC2-BOUT1)*%
X193500000Y-134420000D03*
D10*
%TO.P,J16,2,2*%
%TO.N,Net-(IC2-BOUT2)*%
X193500000Y-139500000D03*
%TD*%
D12*
%TO.P,R1,1*%
%TO.N,Net-(U1-ILIM)*%
X162500000Y-112500000D03*
%TO.P,R1,2*%
%TO.N,Net-(R1-Pad2)*%
X164500000Y-112500000D03*
%TD*%
D11*
%TO.P,J1,1,1*%
%TO.N,Net-(U1-OUT1)*%
X179460000Y-105500000D03*
D10*
%TO.P,J1,2,2*%
%TO.N,Net-(U1-OUT2)*%
X184540000Y-105500000D03*
%TD*%
D19*
%TO.P,IC3,1,SLEEP_N*%
%TO.N,Net-(IC3-SLEEP_N)*%
X149375380Y-122775000D03*
%TO.P,IC3,2,AOUT1*%
%TO.N,Net-(IC3-AOUT1)*%
X149375380Y-122125000D03*
%TO.P,IC3,3,AISEN*%
%TO.N,Net-(IC3-AISEN)*%
X149375380Y-121475000D03*
%TO.P,IC3,4,AOUT2*%
%TO.N,Net-(IC3-AOUT2)*%
X149375380Y-120825000D03*
%TO.P,IC3,5,BOUT2*%
%TO.N,Net-(IC3-BOUT2)*%
X149375380Y-120175000D03*
%TO.P,IC3,6,BISEN*%
%TO.N,Net-(IC3-BISEN)*%
X149375380Y-119525000D03*
%TO.P,IC3,7,BOUT1*%
%TO.N,Net-(IC3-BOUT1)*%
X149375380Y-118875000D03*
%TO.P,IC3,8,FAULT_N*%
%TO.N,Net-(IC3-FAULT_N)*%
X149375380Y-118225000D03*
%TO.P,IC3,9,BIN1*%
%TO.N,Net-(IC3-BIN1)*%
X143624620Y-118225000D03*
%TO.P,IC3,10,BIN2*%
%TO.N,Net-(IC3-BIN2)*%
X143624620Y-118875000D03*
%TO.P,IC3,11,NC@2*%
%TO.N,unconnected-(IC3-NC@2-Pad11)*%
X143624620Y-119525000D03*
%TO.P,IC3,12,VM*%
%TO.N,Net-(IC1-VM)*%
X143624620Y-120175000D03*
%TO.P,IC3,13,GND*%
%TO.N,GND*%
X143624620Y-120825000D03*
%TO.P,IC3,14,NC@1*%
%TO.N,unconnected-(IC3-NC@1-Pad14)*%
X143624620Y-121475000D03*
%TO.P,IC3,15,AIN2*%
%TO.N,Net-(IC3-AIN2)*%
X143624620Y-122125000D03*
%TO.P,IC3,16,AIN1*%
%TO.N,Net-(IC3-AIN1)*%
X143624620Y-122775000D03*
D20*
%TO.P,IC3,17,THERMAL_PAD*%
%TO.N,GND*%
X146500000Y-120500000D03*
%TD*%
D11*
%TO.P,J10,1,1*%
%TO.N,Net-(IC3-BIN2)*%
X128960000Y-104000000D03*
D10*
%TO.P,J10,2,2*%
%TO.N,Net-(IC3-BIN1)*%
X134040000Y-104000000D03*
%TD*%
D11*
%TO.P,J2,1,1*%
%TO.N,Net-(U1-IN2)*%
X159540000Y-106000000D03*
D10*
%TO.P,J2,2,2*%
%TO.N,Net-(U1-IN1)*%
X154460000Y-106000000D03*
%TD*%
D11*
%TO.P,J15,1,1*%
%TO.N,Net-(IC2-AOUT1)*%
X193500000Y-146960000D03*
D10*
%TO.P,J15,2,2*%
%TO.N,Net-(IC2-AOUT2)*%
X193500000Y-152040000D03*
%TD*%
D13*
%TO.P,R2,1*%
%TO.N,Net-(IC1-AISEN)*%
X152500000Y-146000000D03*
%TO.P,R2,2*%
%TO.N,GND*%
X152500000Y-148000000D03*
%TD*%
D11*
%TO.P,J5,1,1*%
%TO.N,Net-(IC1-SLEEP_N)*%
X151460000Y-155500000D03*
D10*
%TO.P,J5,2,2*%
%TO.N,Net-(IC1-FAULT_N)*%
X156540000Y-155500000D03*
%TD*%
D19*
%TO.P,IC2,1,SLEEP_N*%
%TO.N,Net-(IC2-SLEEP_N)*%
X149375380Y-134275000D03*
%TO.P,IC2,2,AOUT1*%
%TO.N,Net-(IC2-AOUT1)*%
X149375380Y-133625000D03*
%TO.P,IC2,3,AISEN*%
%TO.N,Net-(IC2-AISEN)*%
X149375380Y-132975000D03*
%TO.P,IC2,4,AOUT2*%
%TO.N,Net-(IC2-AOUT2)*%
X149375380Y-132325000D03*
%TO.P,IC2,5,BOUT2*%
%TO.N,Net-(IC2-BOUT2)*%
X149375380Y-131675000D03*
%TO.P,IC2,6,BISEN*%
%TO.N,Net-(IC2-BISEN)*%
X149375380Y-131025000D03*
%TO.P,IC2,7,BOUT1*%
%TO.N,Net-(IC2-BOUT1)*%
X149375380Y-130375000D03*
%TO.P,IC2,8,FAULT_N*%
%TO.N,Net-(IC2-FAULT_N)*%
X149375380Y-129725000D03*
%TO.P,IC2,9,BIN1*%
%TO.N,Net-(IC2-BIN1)*%
X143624620Y-129725000D03*
%TO.P,IC2,10,BIN2*%
%TO.N,Net-(IC2-BIN2)*%
X143624620Y-130375000D03*
%TO.P,IC2,11,NC@2*%
%TO.N,unconnected-(IC2-NC@2-Pad11)*%
X143624620Y-131025000D03*
%TO.P,IC2,12,VM*%
%TO.N,Net-(IC1-VM)*%
X143624620Y-131675000D03*
%TO.P,IC2,13,GND*%
%TO.N,GND*%
X143624620Y-132325000D03*
%TO.P,IC2,14,NC@1*%
%TO.N,unconnected-(IC2-NC@1-Pad14)*%
X143624620Y-132975000D03*
%TO.P,IC2,15,AIN2*%
%TO.N,Net-(IC2-AIN2)*%
X143624620Y-133625000D03*
%TO.P,IC2,16,AIN1*%
%TO.N,Net-(IC2-AIN1)*%
X143624620Y-134275000D03*
D20*
%TO.P,IC2,17,THERMAL_PAD*%
%TO.N,GND*%
X146500000Y-132000000D03*
%TD*%
D11*
%TO.P,J18,1,1*%
%TO.N,Net-(IC1-AOUT1)*%
X169540000Y-155500000D03*
D10*
%TO.P,J18,2,2*%
%TO.N,Net-(IC1-AOUT2)*%
X164460000Y-155500000D03*
%TD*%
D11*
%TO.P,J11,1,1*%
%TO.N,Net-(IC3-SLEEP_N)*%
X166960000Y-105500000D03*
D10*
%TO.P,J11,2,2*%
%TO.N,Net-(IC3-FAULT_N)*%
X172040000Y-105500000D03*
%TD*%
D19*
%TO.P,IC1,1,SLEEP_N*%
%TO.N,Net-(IC1-SLEEP_N)*%
X149375380Y-144775000D03*
%TO.P,IC1,2,AOUT1*%
%TO.N,Net-(IC1-AOUT1)*%
X149375380Y-144125000D03*
%TO.P,IC1,3,AISEN*%
%TO.N,Net-(IC1-AISEN)*%
X149375380Y-143475000D03*
%TO.P,IC1,4,AOUT2*%
%TO.N,Net-(IC1-AOUT2)*%
X149375380Y-142825000D03*
%TO.P,IC1,5,BOUT2*%
%TO.N,Net-(IC1-BOUT2)*%
X149375380Y-142175000D03*
%TO.P,IC1,6,BISEN*%
%TO.N,Net-(IC1-BISEN)*%
X149375380Y-141525000D03*
%TO.P,IC1,7,BOUT1*%
%TO.N,Net-(IC1-BOUT1)*%
X149375380Y-140875000D03*
%TO.P,IC1,8,FAULT_N*%
%TO.N,Net-(IC1-FAULT_N)*%
X149375380Y-140225000D03*
%TO.P,IC1,9,BIN1*%
%TO.N,Net-(IC1-BIN1)*%
X143624620Y-140225000D03*
%TO.P,IC1,10,BIN2*%
%TO.N,Net-(IC1-BIN2)*%
X143624620Y-140875000D03*
%TO.P,IC1,11,NC@2*%
%TO.N,unconnected-(IC1-NC@2-Pad11)*%
X143624620Y-141525000D03*
%TO.P,IC1,12,VM*%
%TO.N,Net-(IC1-VM)*%
X143624620Y-142175000D03*
%TO.P,IC1,13,GND*%
%TO.N,GND*%
X143624620Y-142825000D03*
%TO.P,IC1,14,NC@1*%
%TO.N,unconnected-(IC1-NC@1-Pad14)*%
X143624620Y-143475000D03*
%TO.P,IC1,15,AIN2*%
%TO.N,Net-(IC1-AIN2)*%
X143624620Y-144125000D03*
%TO.P,IC1,16,AIN1*%
%TO.N,Net-(IC1-AIN1)*%
X143624620Y-144775000D03*
D20*
%TO.P,IC1,17,THERMAL_PAD*%
%TO.N,GND*%
X146500000Y-142500000D03*
%TD*%
D12*
%TO.P,R8,1*%
%TO.N,Net-(R1-Pad2)*%
X166500000Y-112500000D03*
%TO.P,R8,2*%
%TO.N,GND*%
X168500000Y-112500000D03*
%TD*%
D11*
%TO.P,J12,1,1*%
%TO.N,Net-(IC3-AOUT1)*%
X193500000Y-121460000D03*
D10*
%TO.P,J12,2,2*%
%TO.N,Net-(IC3-AOUT2)*%
X193500000Y-126540000D03*
%TD*%
D21*
%TO.P,C4,1*%
%TO.N,Net-(IC1-VM)*%
X125000000Y-123000000D03*
%TO.P,C4,2*%
%TO.N,GND*%
X125000000Y-127114800D03*
%TD*%
D12*
%TO.P,R5,1*%
%TO.N,Net-(IC2-BISEN)*%
X154500000Y-131000000D03*
%TO.P,R5,2*%
%TO.N,GND*%
X156500000Y-131000000D03*
%TD*%
D11*
%TO.P,J6,1,1*%
%TO.N,Net-(IC1-BIN2)*%
X125460000Y-155500000D03*
D10*
%TO.P,J6,2,2*%
%TO.N,Net-(IC1-BIN1)*%
X130540000Y-155500000D03*
%TD*%
D13*
%TO.P,R6,1*%
%TO.N,Net-(IC3-AISEN)*%
X154000000Y-123000000D03*
%TO.P,R6,2*%
%TO.N,GND*%
X154000000Y-125000000D03*
%TD*%
D11*
%TO.P,J9,1,1*%
%TO.N,Net-(IC2-BIN2)*%
X106000000Y-135540000D03*
D10*
%TO.P,J9,2,2*%
%TO.N,Net-(IC2-BIN1)*%
X106000000Y-130460000D03*
%TD*%
D22*
%TO.P,C2,1*%
%TO.N,Net-(U1-VM)*%
X113130000Y-113500000D03*
%TO.P,C2,2*%
%TO.N,GND*%
X114912000Y-113500000D03*
%TD*%
D11*
%TO.P,J19,1,1*%
%TO.N,Net-(IC1-BOUT1)*%
X182540000Y-155500000D03*
D10*
%TO.P,J19,2,2*%
%TO.N,Net-(IC1-BOUT2)*%
X177460000Y-155500000D03*
%TD*%
D23*
%TO.N,Net-(IC1-VM)*%
X124960000Y-122960000D03*
X134500000Y-125500000D03*
X142000000Y-131675000D03*
X130000000Y-142000000D03*
X142000000Y-120175000D03*
X142000000Y-142175000D03*
%TO.N,Net-(IC1-BOUT1)*%
X151375000Y-140875000D03*
%TO.N,Net-(IC1-BOUT2)*%
X153000000Y-142500000D03*
%TO.N,Net-(IC1-BIN2)*%
X134500000Y-146500000D03*
%TO.N,Net-(IC1-FAULT_N)*%
X146500000Y-138500000D03*
%TO.N,Net-(IC1-AOUT1)*%
X151000000Y-144500000D03*
%TO.N,Net-(IC2-BOUT2)*%
X152500000Y-131675000D03*
%TO.N,Net-(IC2-BOUT1)*%
X151375000Y-130375000D03*
%TO.N,Net-(IC2-SLEEP_N)*%
X133500000Y-138000000D03*
X146000000Y-137000000D03*
X128500000Y-138000000D03*
%TO.N,Net-(IC2-AIN2)*%
X139000000Y-133500000D03*
%TO.N,Net-(IC2-FAULT_N)*%
X135000000Y-136500000D03*
X129000000Y-136500000D03*
X147000000Y-128500000D03*
%TO.N,Net-(IC2-BIN2)*%
X131000000Y-132000000D03*
%TO.N,Net-(IC2-BIN1)*%
X130250000Y-129750000D03*
%TO.N,Net-(IC2-AOUT1)*%
X151000000Y-133625000D03*
%TO.N,Net-(IC3-SLEEP_N)*%
X148000000Y-117000000D03*
X159000000Y-111500000D03*
X146500000Y-125000000D03*
%TO.N,Net-(IC3-BIN1)*%
X134040000Y-110000000D03*
%TO.N,Net-(IC3-AOUT1)*%
X151000000Y-122500000D03*
%TO.N,Net-(IC3-BOUT2)*%
X151825000Y-120175000D03*
%TO.N,Net-(IC3-AIN1)*%
X125000000Y-119000000D03*
%TO.N,Net-(IC3-BOUT1)*%
X151000000Y-118875000D03*
%TO.N,Net-(IC3-BIN2)*%
X132000000Y-112000000D03*
%TO.N,Net-(IC3-FAULT_N)*%
X160500000Y-112500000D03*
%TO.N,Net-(IC3-AIN2)*%
X117000000Y-112000000D03*
%TO.N,Net-(U1-OUT2)*%
X142000000Y-113555000D03*
%TO.N,Net-(U1-OUT1)*%
X142500000Y-111015000D03*
%TO.N,Net-(U1-IN1)*%
X153000000Y-111000000D03*
%TO.N,Net-(U1-IN2)*%
X156500000Y-112500000D03*
%TD*%
D24*
%TO.N,Net-(U1-VM)*%
X113100000Y-113470000D02*
X113130000Y-113500000D01*
X143147152Y-108460000D02*
X144432152Y-109745000D01*
X113100000Y-109900000D02*
X113100000Y-111000000D01*
X110920000Y-104920000D02*
X106500000Y-104920000D01*
X113100000Y-111000000D02*
X113100000Y-113470000D01*
X114500000Y-108500000D02*
X113100000Y-109900000D01*
X114500000Y-108500000D02*
X110920000Y-104920000D01*
X114540000Y-108460000D02*
X114500000Y-108500000D01*
X143147152Y-108460000D02*
X114540000Y-108460000D01*
%TO.N,Net-(IC1-VM)*%
X127500000Y-125500000D02*
X125000000Y-123000000D01*
D25*
X143624620Y-142175000D02*
X142000000Y-142175000D01*
D26*
X121500000Y-122960000D02*
X124960000Y-122960000D01*
D27*
X124960000Y-122960000D02*
X125000000Y-123000000D01*
D25*
X143624620Y-131675000D02*
X142000000Y-131675000D01*
D24*
X135000000Y-125500000D02*
X134500000Y-125500000D01*
D25*
X143624620Y-142175000D02*
X142399810Y-142175000D01*
D26*
X121500000Y-122960000D02*
X116500000Y-117960000D01*
D24*
X121500000Y-133500000D02*
X130000000Y-142000000D01*
D28*
X114605000Y-119855000D02*
X114605000Y-120759000D01*
D24*
X134500000Y-125500000D02*
X127500000Y-125500000D01*
D25*
X142000000Y-120175000D02*
X143624620Y-120175000D01*
D24*
X121500000Y-122960000D02*
X121500000Y-133500000D01*
D28*
X116500000Y-117960000D02*
X114605000Y-119855000D01*
D26*
X116500000Y-117960000D02*
X106500000Y-117960000D01*
D25*
%TO.N,Net-(IC1-BOUT1)*%
X149375380Y-140875000D02*
X151375000Y-140875000D01*
%TO.N,Net-(IC1-BISEN)*%
X151975000Y-141525000D02*
X152500000Y-141000000D01*
X149375380Y-141525000D02*
X151975000Y-141525000D01*
X152500000Y-141000000D02*
X154500000Y-141000000D01*
D27*
%TO.N,Net-(IC1-AIN1)*%
X143624620Y-155415380D02*
X143540000Y-155500000D01*
D25*
X143624620Y-144775000D02*
X143624620Y-155415380D01*
%TO.N,Net-(IC1-BOUT2)*%
X149375380Y-142175000D02*
X151175000Y-142175000D01*
X152675000Y-142175000D02*
X153000000Y-142500000D01*
X151175000Y-142175000D02*
X152675000Y-142175000D01*
%TO.N,Net-(IC1-AISEN)*%
X150975000Y-143475000D02*
X152500000Y-145000000D01*
X149375380Y-143475000D02*
X150975000Y-143475000D01*
D29*
X152500000Y-145000000D02*
X152500000Y-146000000D01*
D25*
%TO.N,Net-(IC1-AOUT2)*%
X151825000Y-142825000D02*
X152000000Y-143000000D01*
X150825000Y-142825000D02*
X151825000Y-142825000D01*
D30*
X153500000Y-144500000D02*
X152000000Y-143000000D01*
D27*
X153500000Y-144540000D02*
X153500000Y-144500000D01*
D25*
X149375380Y-142825000D02*
X150825000Y-142825000D01*
D24*
X164460000Y-155500000D02*
X153500000Y-144540000D01*
D25*
%TO.N,Net-(IC1-BIN2)*%
X140125000Y-140875000D02*
X134500000Y-146500000D01*
X143624620Y-140875000D02*
X140125000Y-140875000D01*
%TO.N,Net-(IC1-BIN1)*%
X142225000Y-140225000D02*
X143624620Y-140225000D01*
X130540000Y-155500000D02*
X130540000Y-147460000D01*
X138000000Y-140000000D02*
X142000000Y-140000000D01*
X130540000Y-147460000D02*
X138000000Y-140000000D01*
X142000000Y-140000000D02*
X142225000Y-140225000D01*
%TO.N,Net-(IC1-AIN2)*%
X142375000Y-144125000D02*
X138460000Y-148040000D01*
X143624620Y-144125000D02*
X142375000Y-144125000D01*
X138460000Y-148040000D02*
X138460000Y-155500000D01*
%TO.N,Net-(IC1-FAULT_N)*%
X149375380Y-140225000D02*
X147650380Y-138500000D01*
X147650380Y-138500000D02*
X146500000Y-138500000D01*
%TO.N,Net-(IC1-AOUT1)*%
X149375380Y-144125000D02*
X150625000Y-144125000D01*
X150625000Y-144125000D02*
X151000000Y-144500000D01*
%TO.N,Net-(IC1-SLEEP_N)*%
X149375380Y-153415380D02*
X151460000Y-155500000D01*
X149375380Y-144775000D02*
X149375380Y-153415380D01*
D27*
%TO.N,Net-(IC2-BISEN)*%
X154475000Y-131025000D02*
X154500000Y-131000000D01*
D25*
X149375380Y-131025000D02*
X154475000Y-131025000D01*
D24*
%TO.N,Net-(IC2-AOUT2)*%
X155000000Y-134000000D02*
X154000000Y-133000000D01*
D29*
X150874000Y-132374000D02*
X152374000Y-132374000D01*
D25*
X149375380Y-132325000D02*
X150825000Y-132325000D01*
D29*
X152374000Y-132374000D02*
X153000000Y-133000000D01*
D24*
X193500000Y-152040000D02*
X187040000Y-152040000D01*
D25*
X150825000Y-132325000D02*
X150874000Y-132374000D01*
D24*
X187040000Y-152040000D02*
X169000000Y-134000000D01*
D29*
X153000000Y-133000000D02*
X154000000Y-133000000D01*
D24*
X169000000Y-134000000D02*
X155000000Y-134000000D01*
D27*
%TO.N,Net-(IC2-BOUT2)*%
X152000000Y-131675000D02*
X152325000Y-131675000D01*
D25*
X149375380Y-131675000D02*
X152000000Y-131675000D01*
X152000000Y-131675000D02*
X152500000Y-131675000D01*
%TO.N,Net-(IC2-BOUT1)*%
X149375380Y-130375000D02*
X151375000Y-130375000D01*
%TO.N,Net-(IC2-SLEEP_N)*%
X128500000Y-138000000D02*
X133500000Y-138000000D01*
X148725000Y-134275000D02*
X149375380Y-134275000D01*
X146000000Y-137000000D02*
X148725000Y-134275000D01*
D27*
%TO.N,Net-(IC2-AIN2)*%
X143624620Y-133625000D02*
X143499620Y-133500000D01*
D25*
X143499620Y-133500000D02*
X139000000Y-133500000D01*
%TO.N,Net-(IC2-FAULT_N)*%
X147000000Y-128500000D02*
X148150380Y-128500000D01*
X148150380Y-128500000D02*
X149375380Y-129725000D01*
X129000000Y-136500000D02*
X135000000Y-136500000D01*
%TO.N,Net-(IC2-BIN2)*%
X132625000Y-130375000D02*
X143624620Y-130375000D01*
X131000000Y-132000000D02*
X132625000Y-130375000D01*
%TO.N,Net-(IC2-AISEN)*%
X152500000Y-134000000D02*
X151475000Y-132975000D01*
D27*
X152500000Y-134500000D02*
X152500000Y-134000000D01*
D25*
X151475000Y-132975000D02*
X149375380Y-132975000D01*
%TO.N,Net-(IC2-BIN1)*%
X130275000Y-129725000D02*
X143624620Y-129725000D01*
X130250000Y-129750000D02*
X130275000Y-129725000D01*
%TO.N,Net-(IC2-AOUT1)*%
X149375380Y-133625000D02*
X151000000Y-133625000D01*
%TO.N,Net-(IC2-AIN1)*%
X139765000Y-134275000D02*
X143624620Y-134275000D01*
X117540000Y-156500000D02*
X139765000Y-134275000D01*
%TO.N,Net-(IC3-SLEEP_N)*%
X153500000Y-117000000D02*
X148000000Y-117000000D01*
X146500000Y-125000000D02*
X147150380Y-125000000D01*
X147150380Y-125000000D02*
X149375380Y-122775000D01*
X159000000Y-111500000D02*
X153500000Y-117000000D01*
%TO.N,Net-(IC3-BIN1)*%
X142265000Y-118225000D02*
X143624620Y-118225000D01*
X134040000Y-110000000D02*
X142265000Y-118225000D01*
D30*
%TO.N,Net-(IC3-BISEN)*%
X156975000Y-119525000D02*
X158000000Y-118500000D01*
D27*
X152475000Y-119525000D02*
X152500000Y-119500000D01*
D25*
X149375380Y-119525000D02*
X152475000Y-119525000D01*
D30*
X156975000Y-119525000D02*
X152475000Y-119525000D01*
D27*
%TO.N,Net-(IC3-AISEN)*%
X149375380Y-121475000D02*
X149401380Y-121501000D01*
D29*
X154000000Y-123000000D02*
X152499000Y-123000000D01*
X151000000Y-121501000D02*
X152499000Y-123000000D01*
D25*
X149401380Y-121501000D02*
X151000000Y-121501000D01*
D29*
%TO.N,Net-(IC3-AOUT1)*%
X150625000Y-122125000D02*
X151000000Y-122500000D01*
X149375380Y-122125000D02*
X150625000Y-122125000D01*
D25*
%TO.N,Net-(IC3-BOUT2)*%
X151000000Y-120175000D02*
X151825000Y-120175000D01*
X149375380Y-120175000D02*
X151000000Y-120175000D01*
%TO.N,Net-(IC3-AIN1)*%
X128775000Y-122775000D02*
X143624620Y-122775000D01*
X125000000Y-119000000D02*
X128775000Y-122775000D01*
%TO.N,Net-(IC3-BOUT1)*%
X149375380Y-118875000D02*
X151000000Y-118875000D01*
%TO.N,Net-(IC3-BIN2)*%
X132000000Y-112000000D02*
X138875000Y-118875000D01*
X138875000Y-118875000D02*
X143624620Y-118875000D01*
%TO.N,Net-(IC3-FAULT_N)*%
X149426380Y-118174000D02*
X149375380Y-118225000D01*
X160500000Y-112500000D02*
X154826000Y-118174000D01*
X154826000Y-118174000D02*
X149426380Y-118174000D01*
%TO.N,Net-(IC3-AIN2)*%
X120000000Y-115000000D02*
X126500000Y-115000000D01*
X126500000Y-115000000D02*
X133625000Y-122125000D01*
X133625000Y-122125000D02*
X143624620Y-122125000D01*
X117000000Y-112000000D02*
X120000000Y-115000000D01*
%TO.N,Net-(IC3-AOUT2)*%
X151173942Y-120825000D02*
X151348942Y-121000000D01*
X151348942Y-121000000D02*
X153000000Y-121000000D01*
D24*
X191500000Y-124540000D02*
X159040000Y-124540000D01*
X193500000Y-126540000D02*
X191500000Y-124540000D01*
X159040000Y-124540000D02*
X155500000Y-121000000D01*
D31*
X155500000Y-121000000D02*
X153000000Y-121000000D01*
D25*
X149375380Y-120825000D02*
X151173942Y-120825000D01*
D27*
%TO.N,Net-(U1-OUT2)*%
X184540000Y-105500000D02*
X184500000Y-105540000D01*
D29*
X144432152Y-113555000D02*
X142000000Y-113555000D01*
%TO.N,Net-(U1-OUT1)*%
X144432152Y-111015000D02*
X142500000Y-111015000D01*
D25*
%TO.N,Net-(U1-IN1)*%
X149847152Y-111000000D02*
X149832152Y-111015000D01*
X153000000Y-111000000D02*
X149847152Y-111000000D01*
%TO.N,Net-(U1-IN2)*%
X156500000Y-112500000D02*
X156285000Y-112285000D01*
X156285000Y-112285000D02*
X149832152Y-112285000D01*
D30*
%TO.N,Net-(U1-ILIM)*%
X149832152Y-109745000D02*
X159745000Y-109745000D01*
X159745000Y-109745000D02*
X162500000Y-112500000D01*
D24*
%TO.N,Net-(R1-Pad2)*%
X164500000Y-112500000D02*
X166500000Y-112500000D01*
%TD*%
%TA.AperFunction,Conductor*%
%TO.N,GND*%
G36*
X199442539Y-100520185D02*
G01*
X199488294Y-100572989D01*
X199499500Y-100624500D01*
X199499500Y-159375500D01*
X199479815Y-159442539D01*
X199427011Y-159488294D01*
X199375500Y-159499500D01*
X100624500Y-159499500D01*
X100557461Y-159479815D01*
X100511706Y-159427011D01*
X100500500Y-159375500D01*
X100500500Y-155477135D01*
X110984500Y-155477135D01*
X110984500Y-157522870D01*
X110984501Y-157522876D01*
X110990908Y-157582483D01*
X111041202Y-157717328D01*
X111041206Y-157717335D01*
X111127452Y-157832544D01*
X111127455Y-157832547D01*
X111242664Y-157918793D01*
X111242671Y-157918797D01*
X111377517Y-157969091D01*
X111377516Y-157969091D01*
X111384444Y-157969835D01*
X111437127Y-157975500D01*
X113482872Y-157975499D01*
X113542483Y-157969091D01*
X113677331Y-157918796D01*
X113792546Y-157832546D01*
X113878796Y-157717331D01*
X113929091Y-157582483D01*
X113935500Y-157522873D01*
X113935499Y-155477128D01*
X113929091Y-155417517D01*
X113916541Y-155383870D01*
X113878797Y-155282671D01*
X113878793Y-155282664D01*
X113792547Y-155167455D01*
X113792544Y-155167452D01*
X113677335Y-155081206D01*
X113677328Y-155081202D01*
X113542482Y-155030908D01*
X113542483Y-155030908D01*
X113482883Y-155024501D01*
X113482881Y-155024500D01*
X113482873Y-155024500D01*
X113482864Y-155024500D01*
X111437129Y-155024500D01*
X111437123Y-155024501D01*
X111377516Y-155030908D01*
X111242671Y-155081202D01*
X111242664Y-155081206D01*
X111127455Y-155167452D01*
X111127452Y-155167455D01*
X111041206Y-155282664D01*
X111041202Y-155282671D01*
X110990908Y-155417517D01*
X110984501Y-155477116D01*
X110984501Y-155477123D01*
X110984500Y-155477135D01*
X100500500Y-155477135D01*
X100500500Y-147017135D01*
X104524500Y-147017135D01*
X104524500Y-149062870D01*
X104524501Y-149062876D01*
X104530908Y-149122483D01*
X104581202Y-149257328D01*
X104581206Y-149257335D01*
X104667452Y-149372544D01*
X104667455Y-149372547D01*
X104782664Y-149458793D01*
X104782671Y-149458797D01*
X104917517Y-149509091D01*
X104917516Y-149509091D01*
X104924444Y-149509835D01*
X104977127Y-149515500D01*
X107022872Y-149515499D01*
X107082483Y-149509091D01*
X107217331Y-149458796D01*
X107332546Y-149372546D01*
X107418796Y-149257331D01*
X107469091Y-149122483D01*
X107475500Y-149062873D01*
X107475499Y-147017128D01*
X107469091Y-146957517D01*
X107468905Y-146957019D01*
X107418797Y-146822671D01*
X107418793Y-146822664D01*
X107332547Y-146707455D01*
X107332544Y-146707452D01*
X107217335Y-146621206D01*
X107217328Y-146621202D01*
X107082482Y-146570908D01*
X107082483Y-146570908D01*
X107022883Y-146564501D01*
X107022881Y-146564500D01*
X107022873Y-146564500D01*
X107022864Y-146564500D01*
X104977129Y-146564500D01*
X104977123Y-146564501D01*
X104917516Y-146570908D01*
X104782671Y-146621202D01*
X104782664Y-146621206D01*
X104667455Y-146707452D01*
X104667452Y-146707455D01*
X104581206Y-146822664D01*
X104581202Y-146822671D01*
X104530908Y-146957517D01*
X104524894Y-147013458D01*
X104524501Y-147017123D01*
X104524500Y-147017135D01*
X100500500Y-147017135D01*
X100500500Y-142843870D01*
X104524500Y-142843870D01*
X104524500Y-143076129D01*
X104560831Y-143305514D01*
X104632601Y-143526400D01*
X104738000Y-143733255D01*
X104738039Y-143733331D01*
X104874551Y-143921224D01*
X105038776Y-144085449D01*
X105226669Y-144221961D01*
X105324436Y-144271776D01*
X105433599Y-144327398D01*
X105433601Y-144327398D01*
X105433604Y-144327400D01*
X105654486Y-144399169D01*
X105772668Y-144417886D01*
X105883871Y-144435500D01*
X105883876Y-144435500D01*
X106116129Y-144435500D01*
X106217502Y-144419443D01*
X106345514Y-144399169D01*
X106566396Y-144327400D01*
X106773331Y-144221961D01*
X106961224Y-144085449D01*
X107125449Y-143921224D01*
X107261961Y-143733331D01*
X107367400Y-143526396D01*
X107439169Y-143305514D01*
X107462670Y-143157134D01*
X107475500Y-143076129D01*
X107475500Y-142843870D01*
X107450383Y-142685289D01*
X107439169Y-142614486D01*
X107367400Y-142393604D01*
X107367398Y-142393601D01*
X107367398Y-142393599D01*
X107302639Y-142266503D01*
X107261961Y-142186669D01*
X107125449Y-141998776D01*
X106961224Y-141834551D01*
X106773331Y-141698039D01*
X106566400Y-141592601D01*
X106345514Y-141520831D01*
X106116129Y-141484500D01*
X106116124Y-141484500D01*
X105883876Y-141484500D01*
X105883871Y-141484500D01*
X105654485Y-141520831D01*
X105433599Y-141592601D01*
X105226668Y-141698039D01*
X105038773Y-141834553D01*
X104874553Y-141998773D01*
X104738039Y-142186668D01*
X104632601Y-142393599D01*
X104560831Y-142614485D01*
X104524500Y-142843870D01*
X100500500Y-142843870D01*
X100500500Y-134517135D01*
X104524500Y-134517135D01*
X104524500Y-136562870D01*
X104524501Y-136562876D01*
X104530908Y-136622483D01*
X104581202Y-136757328D01*
X104581206Y-136757335D01*
X104667452Y-136872544D01*
X104667455Y-136872547D01*
X104782664Y-136958793D01*
X104782671Y-136958797D01*
X104917517Y-137009091D01*
X104917516Y-137009091D01*
X104924444Y-137009835D01*
X104977127Y-137015500D01*
X107022872Y-137015499D01*
X107082483Y-137009091D01*
X107217331Y-136958796D01*
X107332546Y-136872546D01*
X107418796Y-136757331D01*
X107469091Y-136622483D01*
X107475500Y-136562873D01*
X107475499Y-134517128D01*
X107469091Y-134457517D01*
X107460276Y-134433884D01*
X107418797Y-134322671D01*
X107418793Y-134322664D01*
X107332547Y-134207455D01*
X107332544Y-134207452D01*
X107217335Y-134121206D01*
X107217328Y-134121202D01*
X107082482Y-134070908D01*
X107082483Y-134070908D01*
X107022883Y-134064501D01*
X107022881Y-134064500D01*
X107022873Y-134064500D01*
X107022864Y-134064500D01*
X104977129Y-134064500D01*
X104977123Y-134064501D01*
X104917516Y-134070908D01*
X104782671Y-134121202D01*
X104782664Y-134121206D01*
X104667455Y-134207452D01*
X104667452Y-134207455D01*
X104581206Y-134322664D01*
X104581202Y-134322671D01*
X104530908Y-134457517D01*
X104525628Y-134506633D01*
X104524501Y-134517123D01*
X104524500Y-134517135D01*
X100500500Y-134517135D01*
X100500500Y-130343870D01*
X104524500Y-130343870D01*
X104524500Y-130576129D01*
X104560831Y-130805514D01*
X104632601Y-131026400D01*
X104736476Y-131230263D01*
X104738039Y-131233331D01*
X104874551Y-131421224D01*
X105038776Y-131585449D01*
X105226669Y-131721961D01*
X105319231Y-131769124D01*
X105433599Y-131827398D01*
X105433601Y-131827398D01*
X105433604Y-131827400D01*
X105654486Y-131899169D01*
X105772668Y-131917886D01*
X105883871Y-131935500D01*
X105883876Y-131935500D01*
X106116129Y-131935500D01*
X106222475Y-131918656D01*
X106345514Y-131899169D01*
X106566396Y-131827400D01*
X106773331Y-131721961D01*
X106961224Y-131585449D01*
X107125449Y-131421224D01*
X107261961Y-131233331D01*
X107367400Y-131026396D01*
X107439169Y-130805514D01*
X107465830Y-130637181D01*
X107475500Y-130576129D01*
X107475500Y-130343870D01*
X107456232Y-130222222D01*
X107439169Y-130114486D01*
X107367400Y-129893604D01*
X107367398Y-129893601D01*
X107367398Y-129893599D01*
X107261960Y-129686668D01*
X107125449Y-129498776D01*
X106961224Y-129334551D01*
X106773331Y-129198039D01*
X106566400Y-129092601D01*
X106345514Y-129020831D01*
X106116129Y-128984500D01*
X106116124Y-128984500D01*
X105883876Y-128984500D01*
X105883871Y-128984500D01*
X105654485Y-129020831D01*
X105433599Y-129092601D01*
X105226668Y-129198039D01*
X105038773Y-129334553D01*
X104874553Y-129498773D01*
X104738039Y-129686668D01*
X104632601Y-129893599D01*
X104560831Y-130114485D01*
X104524500Y-130343870D01*
X100500500Y-130343870D01*
X100500500Y-122923909D01*
X105025000Y-122923909D01*
X105025000Y-123156090D01*
X105061318Y-123385393D01*
X105133065Y-123606205D01*
X105238465Y-123813064D01*
X105295238Y-123891207D01*
X105898958Y-123287487D01*
X105923978Y-123347890D01*
X105995112Y-123454351D01*
X106085649Y-123544888D01*
X106192110Y-123616022D01*
X106252510Y-123641041D01*
X105648791Y-124244759D01*
X105648791Y-124244760D01*
X105726935Y-124301534D01*
X105933794Y-124406934D01*
X106154606Y-124478681D01*
X106383910Y-124515000D01*
X106616090Y-124515000D01*
X106845393Y-124478681D01*
X107066205Y-124406934D01*
X107273071Y-124301530D01*
X107351207Y-124244762D01*
X107351208Y-124244760D01*
X106747488Y-123641041D01*
X106807890Y-123616022D01*
X106914351Y-123544888D01*
X107004888Y-123454351D01*
X107076022Y-123347890D01*
X107101041Y-123287489D01*
X107704760Y-123891208D01*
X107704762Y-123891207D01*
X107761530Y-123813071D01*
X107866934Y-123606205D01*
X107911471Y-123469135D01*
X113395000Y-123469135D01*
X113397832Y-123505123D01*
X113397833Y-123505129D01*
X113442592Y-123659188D01*
X113442593Y-123659191D01*
X113524261Y-123797285D01*
X113524268Y-123797294D01*
X113637705Y-123910731D01*
X113637714Y-123910738D01*
X113775808Y-123992406D01*
X113775811Y-123992407D01*
X113929870Y-124037166D01*
X113929876Y-124037167D01*
X113965864Y-124039999D01*
X113965880Y-124040000D01*
X114355000Y-124040000D01*
X114855000Y-124040000D01*
X115244120Y-124040000D01*
X115244135Y-124039999D01*
X115280123Y-124037167D01*
X115280129Y-124037166D01*
X115434188Y-123992407D01*
X115434191Y-123992406D01*
X115572285Y-123910738D01*
X115572294Y-123910731D01*
X115685731Y-123797294D01*
X115685738Y-123797285D01*
X115767406Y-123659191D01*
X115767407Y-123659188D01*
X115812166Y-123505129D01*
X115812167Y-123505123D01*
X115814999Y-123469135D01*
X115815000Y-123469120D01*
X115815000Y-123250000D01*
X114855000Y-123250000D01*
X114855000Y-124040000D01*
X114355000Y-124040000D01*
X114355000Y-123250000D01*
X113395000Y-123250000D01*
X113395000Y-123469135D01*
X107911471Y-123469135D01*
X107938681Y-123385393D01*
X107971333Y-123179240D01*
X107971333Y-123179238D01*
X107975000Y-123156087D01*
X107975000Y-122923909D01*
X107938681Y-122694606D01*
X107866934Y-122473794D01*
X107761534Y-122266935D01*
X107704760Y-122188791D01*
X107704759Y-122188791D01*
X107101041Y-122792510D01*
X107076022Y-122732110D01*
X107004888Y-122625649D01*
X106914351Y-122535112D01*
X106807890Y-122463978D01*
X106747487Y-122438957D01*
X107351207Y-121835238D01*
X107273064Y-121778465D01*
X107066205Y-121673065D01*
X106845393Y-121601318D01*
X106616090Y-121565000D01*
X106383910Y-121565000D01*
X106154606Y-121601318D01*
X105933794Y-121673065D01*
X105726925Y-121778470D01*
X105648791Y-121835237D01*
X105648791Y-121835238D01*
X106252511Y-122438958D01*
X106192110Y-122463978D01*
X106085649Y-122535112D01*
X105995112Y-122625649D01*
X105923978Y-122732110D01*
X105898958Y-122792511D01*
X105295238Y-122188791D01*
X105295237Y-122188791D01*
X105238470Y-122266925D01*
X105133065Y-122473794D01*
X105061318Y-122694606D01*
X105025000Y-122923909D01*
X100500500Y-122923909D01*
X100500500Y-117828872D01*
X104499500Y-117828872D01*
X104499500Y-118091127D01*
X104525764Y-118290609D01*
X104533730Y-118351116D01*
X104579429Y-118521666D01*
X104601602Y-118604418D01*
X104601605Y-118604428D01*
X104701953Y-118846690D01*
X104701958Y-118846700D01*
X104833075Y-119073803D01*
X104992718Y-119281851D01*
X104992726Y-119281860D01*
X105178140Y-119467274D01*
X105178148Y-119467281D01*
X105386196Y-119626924D01*
X105613299Y-119758041D01*
X105613309Y-119758046D01*
X105818083Y-119842866D01*
X105855581Y-119858398D01*
X106108884Y-119926270D01*
X106368880Y-119960500D01*
X112980500Y-119960500D01*
X113047539Y-119980185D01*
X113093294Y-120032989D01*
X113104500Y-120084500D01*
X113104500Y-120877097D01*
X113141446Y-121110368D01*
X113214433Y-121334996D01*
X113274416Y-121452718D01*
X113321657Y-121545433D01*
X113371000Y-121613348D01*
X113393642Y-121676805D01*
X113394310Y-121676753D01*
X113397335Y-121715205D01*
X113442129Y-121869388D01*
X113442131Y-121869393D01*
X113523863Y-122007595D01*
X113523868Y-122007602D01*
X113533936Y-122017669D01*
X113567423Y-122078991D01*
X113562441Y-122148683D01*
X113533942Y-122193031D01*
X113524270Y-122202703D01*
X113524261Y-122202714D01*
X113442593Y-122340808D01*
X113442592Y-122340811D01*
X113397833Y-122494870D01*
X113397832Y-122494876D01*
X113395000Y-122530864D01*
X113395000Y-122750000D01*
X115815000Y-122750000D01*
X115815000Y-122530879D01*
X115814999Y-122530864D01*
X115812167Y-122494876D01*
X115812166Y-122494870D01*
X115767407Y-122340811D01*
X115767406Y-122340808D01*
X115685738Y-122202714D01*
X115685731Y-122202705D01*
X115676060Y-122193034D01*
X115642575Y-122131711D01*
X115647559Y-122062019D01*
X115676061Y-122017671D01*
X115686135Y-122007598D01*
X115767869Y-121869393D01*
X115800851Y-121755865D01*
X115812664Y-121715208D01*
X115812664Y-121715206D01*
X115812665Y-121715204D01*
X115815500Y-121679181D01*
X115815499Y-121679179D01*
X115815691Y-121676753D01*
X115817038Y-121676859D01*
X115837472Y-121615496D01*
X115838951Y-121613413D01*
X115888343Y-121545433D01*
X115995568Y-121334992D01*
X116068553Y-121110368D01*
X116078433Y-121047989D01*
X116105500Y-120877097D01*
X116105500Y-120693996D01*
X116125185Y-120626957D01*
X116177989Y-120581202D01*
X116247147Y-120571258D01*
X116310703Y-120600283D01*
X116317181Y-120606315D01*
X120178143Y-124467278D01*
X120178145Y-124467280D01*
X120178149Y-124467283D01*
X120200985Y-124484805D01*
X120242188Y-124541231D01*
X120249500Y-124583182D01*
X120249500Y-133598422D01*
X120280290Y-133792826D01*
X120341117Y-133980030D01*
X120387423Y-134070909D01*
X120430476Y-134155405D01*
X120546172Y-134314646D01*
X129185354Y-142953828D01*
X129275251Y-143019142D01*
X129344590Y-143069521D01*
X129344591Y-143069521D01*
X129344595Y-143069524D01*
X129519974Y-143158883D01*
X129607158Y-143187211D01*
X129664832Y-143226648D01*
X129692030Y-143291006D01*
X129680115Y-143359853D01*
X129656519Y-143392822D01*
X118016983Y-155032358D01*
X117955660Y-155065843D01*
X117890984Y-155062608D01*
X117885515Y-155060831D01*
X117656129Y-155024500D01*
X117656124Y-155024500D01*
X117423876Y-155024500D01*
X117423871Y-155024500D01*
X117194485Y-155060831D01*
X116973599Y-155132601D01*
X116766668Y-155238039D01*
X116578773Y-155374553D01*
X116414553Y-155538773D01*
X116278039Y-155726668D01*
X116172601Y-155933599D01*
X116100831Y-156154485D01*
X116064500Y-156383870D01*
X116064500Y-156616129D01*
X116100831Y-156845514D01*
X116172601Y-157066400D01*
X116278039Y-157273331D01*
X116414551Y-157461224D01*
X116578776Y-157625449D01*
X116766669Y-157761961D01*
X116864436Y-157811776D01*
X116973599Y-157867398D01*
X116973601Y-157867398D01*
X116973604Y-157867400D01*
X117194486Y-157939169D01*
X117312668Y-157957886D01*
X117423871Y-157975500D01*
X117423876Y-157975500D01*
X117656129Y-157975500D01*
X117757502Y-157959443D01*
X117885514Y-157939169D01*
X118106396Y-157867400D01*
X118313331Y-157761961D01*
X118501224Y-157625449D01*
X118665449Y-157461224D01*
X118801961Y-157273331D01*
X118907400Y-157066396D01*
X118979169Y-156845514D01*
X118999471Y-156717328D01*
X119015500Y-156616129D01*
X119015500Y-156383870D01*
X118996232Y-156262222D01*
X118979169Y-156154486D01*
X118977391Y-156149013D01*
X118975396Y-156079172D01*
X119007639Y-156023016D01*
X120553520Y-154477135D01*
X123984500Y-154477135D01*
X123984500Y-156522870D01*
X123984501Y-156522876D01*
X123990908Y-156582483D01*
X124041202Y-156717328D01*
X124041206Y-156717335D01*
X124127452Y-156832544D01*
X124127455Y-156832547D01*
X124242664Y-156918793D01*
X124242671Y-156918797D01*
X124377517Y-156969091D01*
X124377516Y-156969091D01*
X124384444Y-156969835D01*
X124437127Y-156975500D01*
X126482872Y-156975499D01*
X126542483Y-156969091D01*
X126677331Y-156918796D01*
X126792546Y-156832546D01*
X126878796Y-156717331D01*
X126929091Y-156582483D01*
X126935500Y-156522873D01*
X126935499Y-155383870D01*
X129064500Y-155383870D01*
X129064500Y-155616129D01*
X129100831Y-155845514D01*
X129172601Y-156066400D01*
X129217484Y-156154486D01*
X129278039Y-156273331D01*
X129414551Y-156461224D01*
X129578776Y-156625449D01*
X129766669Y-156761961D01*
X129864436Y-156811776D01*
X129973599Y-156867398D01*
X129973601Y-156867398D01*
X129973604Y-156867400D01*
X130194486Y-156939169D01*
X130312668Y-156957886D01*
X130423871Y-156975500D01*
X130423876Y-156975500D01*
X130656129Y-156975500D01*
X130757502Y-156959443D01*
X130885514Y-156939169D01*
X131106396Y-156867400D01*
X131313331Y-156761961D01*
X131501224Y-156625449D01*
X131665449Y-156461224D01*
X131801961Y-156273331D01*
X131907400Y-156066396D01*
X131979169Y-155845514D01*
X131999443Y-155717502D01*
X132015500Y-155616129D01*
X132015500Y-155383870D01*
X131992402Y-155238039D01*
X131979169Y-155154486D01*
X131907400Y-154933604D01*
X131907398Y-154933601D01*
X131907398Y-154933599D01*
X131801960Y-154726668D01*
X131801958Y-154726665D01*
X131665449Y-154538776D01*
X131501224Y-154374551D01*
X131313331Y-154238039D01*
X131313330Y-154238038D01*
X131313328Y-154238037D01*
X131308202Y-154235425D01*
X131257407Y-154187450D01*
X131240500Y-154124942D01*
X131240500Y-147801519D01*
X131260185Y-147734480D01*
X131276819Y-147713838D01*
X138253838Y-140736819D01*
X138315161Y-140703334D01*
X138341519Y-140700500D01*
X139009481Y-140700500D01*
X139076520Y-140720185D01*
X139122275Y-140772989D01*
X139132219Y-140842147D01*
X139103194Y-140905703D01*
X139097162Y-140912181D01*
X134305412Y-145703929D01*
X134265184Y-145730809D01*
X134120823Y-145790604D01*
X134120814Y-145790609D01*
X133989711Y-145878210D01*
X133989707Y-145878213D01*
X133878213Y-145989707D01*
X133878210Y-145989711D01*
X133790609Y-146120814D01*
X133790602Y-146120827D01*
X133730264Y-146266498D01*
X133730261Y-146266510D01*
X133699500Y-146421153D01*
X133699500Y-146578846D01*
X133730261Y-146733489D01*
X133730264Y-146733501D01*
X133790602Y-146879172D01*
X133790609Y-146879185D01*
X133878210Y-147010288D01*
X133878213Y-147010292D01*
X133989707Y-147121786D01*
X133989711Y-147121789D01*
X134120814Y-147209390D01*
X134120827Y-147209397D01*
X134266498Y-147269735D01*
X134266503Y-147269737D01*
X134421153Y-147300499D01*
X134421156Y-147300500D01*
X134421158Y-147300500D01*
X134578844Y-147300500D01*
X134578845Y-147300499D01*
X134733497Y-147269737D01*
X134879179Y-147209394D01*
X135010289Y-147121789D01*
X135121789Y-147010289D01*
X135209394Y-146879179D01*
X135209395Y-146879176D01*
X135209397Y-146879173D01*
X135269192Y-146734812D01*
X135296069Y-146694586D01*
X140378838Y-141611819D01*
X140440161Y-141578334D01*
X140466519Y-141575500D01*
X141205832Y-141575500D01*
X141272871Y-141595185D01*
X141318626Y-141647989D01*
X141328570Y-141717147D01*
X141308933Y-141768392D01*
X141290610Y-141795812D01*
X141290602Y-141795827D01*
X141230264Y-141941498D01*
X141230261Y-141941510D01*
X141199500Y-142096153D01*
X141199500Y-142253846D01*
X141230261Y-142408489D01*
X141230264Y-142408501D01*
X141290602Y-142554172D01*
X141290609Y-142554185D01*
X141378210Y-142685288D01*
X141378213Y-142685292D01*
X141489707Y-142796786D01*
X141489711Y-142796789D01*
X141620814Y-142884390D01*
X141620827Y-142884397D01*
X141766498Y-142944735D01*
X141766503Y-142944737D01*
X141921153Y-142975499D01*
X141921156Y-142975500D01*
X142023941Y-142975500D01*
X142026143Y-142976146D01*
X142028367Y-142975579D01*
X142059505Y-142985942D01*
X142090980Y-142995185D01*
X142092482Y-142996918D01*
X142094661Y-142997644D01*
X142115259Y-143023204D01*
X142136735Y-143047989D01*
X142137510Y-143050817D01*
X142138502Y-143052047D01*
X142147231Y-143086245D01*
X142152408Y-143134399D01*
X142152408Y-143160907D01*
X142148608Y-143196259D01*
X142146405Y-143216747D01*
X142146405Y-143378617D01*
X142126720Y-143445656D01*
X142073916Y-143491411D01*
X142069858Y-143493178D01*
X142043192Y-143504223D01*
X142043182Y-143504228D01*
X141928456Y-143580885D01*
X137915887Y-147593454D01*
X137911505Y-147600013D01*
X137868532Y-147664328D01*
X137853878Y-147686258D01*
X137839225Y-147708188D01*
X137839221Y-147708195D01*
X137786421Y-147835667D01*
X137786418Y-147835677D01*
X137759500Y-147971004D01*
X137759500Y-153900500D01*
X137739815Y-153967539D01*
X137687011Y-154013294D01*
X137635501Y-154024500D01*
X137437130Y-154024500D01*
X137437123Y-154024501D01*
X137377516Y-154030908D01*
X137242671Y-154081202D01*
X137242664Y-154081206D01*
X137127455Y-154167452D01*
X137127452Y-154167455D01*
X137041206Y-154282664D01*
X137041202Y-154282671D01*
X136990908Y-154417517D01*
X136984501Y-154477116D01*
X136984501Y-154477123D01*
X136984500Y-154477135D01*
X136984500Y-156522870D01*
X136984501Y-156522876D01*
X136990908Y-156582483D01*
X137041202Y-156717328D01*
X137041206Y-156717335D01*
X137127452Y-156832544D01*
X137127455Y-156832547D01*
X137242664Y-156918793D01*
X137242671Y-156918797D01*
X137377517Y-156969091D01*
X137377516Y-156969091D01*
X137384444Y-156969835D01*
X137437127Y-156975500D01*
X139482872Y-156975499D01*
X139542483Y-156969091D01*
X139677331Y-156918796D01*
X139792546Y-156832546D01*
X139878796Y-156717331D01*
X139929091Y-156582483D01*
X139935500Y-156522873D01*
X139935499Y-154477128D01*
X139929091Y-154417517D01*
X139913066Y-154374553D01*
X139878797Y-154282671D01*
X139878793Y-154282664D01*
X139792547Y-154167455D01*
X139792544Y-154167452D01*
X139677335Y-154081206D01*
X139677328Y-154081202D01*
X139542482Y-154030908D01*
X139542483Y-154030908D01*
X139482883Y-154024501D01*
X139482881Y-154024500D01*
X139482873Y-154024500D01*
X139482865Y-154024500D01*
X139284500Y-154024500D01*
X139217461Y-154004815D01*
X139171706Y-153952011D01*
X139160500Y-153900500D01*
X139160500Y-148381518D01*
X139180185Y-148314479D01*
X139196814Y-148293842D01*
X142132387Y-145358268D01*
X142193708Y-145324785D01*
X142263400Y-145329769D01*
X142294371Y-145346681D01*
X142404570Y-145429176D01*
X142404573Y-145429178D01*
X142404576Y-145429180D01*
X142449523Y-145445944D01*
X142539422Y-145479474D01*
X142599032Y-145485883D01*
X142800120Y-145485882D01*
X142867159Y-145505566D01*
X142912914Y-145558370D01*
X142924120Y-145609882D01*
X142924120Y-154081825D01*
X142904435Y-154148864D01*
X142856416Y-154192309D01*
X142766671Y-154238037D01*
X142578773Y-154374553D01*
X142414553Y-154538773D01*
X142278039Y-154726668D01*
X142172601Y-154933599D01*
X142100831Y-155154485D01*
X142064500Y-155383870D01*
X142064500Y-155616129D01*
X142100831Y-155845514D01*
X142172601Y-156066400D01*
X142217484Y-156154486D01*
X142278039Y-156273331D01*
X142414551Y-156461224D01*
X142578776Y-156625449D01*
X142766669Y-156761961D01*
X142864436Y-156811776D01*
X142973599Y-156867398D01*
X142973601Y-156867398D01*
X142973604Y-156867400D01*
X143194486Y-156939169D01*
X143312668Y-156957886D01*
X143423871Y-156975500D01*
X143423876Y-156975500D01*
X143656129Y-156975500D01*
X143757502Y-156959443D01*
X143885514Y-156939169D01*
X144106396Y-156867400D01*
X144313331Y-156761961D01*
X144501224Y-156625449D01*
X144665449Y-156461224D01*
X144801961Y-156273331D01*
X144907400Y-156066396D01*
X144979169Y-155845514D01*
X144999443Y-155717502D01*
X145015500Y-155616129D01*
X145015500Y-155383870D01*
X144992402Y-155238039D01*
X144979169Y-155154486D01*
X144907400Y-154933604D01*
X144907398Y-154933601D01*
X144907398Y-154933599D01*
X144801960Y-154726668D01*
X144801958Y-154726665D01*
X144665449Y-154538776D01*
X144501224Y-154374551D01*
X144376235Y-154283741D01*
X144333569Y-154228411D01*
X144325120Y-154183423D01*
X144325120Y-145609882D01*
X144344805Y-145542843D01*
X144397609Y-145497088D01*
X144449120Y-145485882D01*
X144650206Y-145485882D01*
X144650207Y-145485882D01*
X144709818Y-145479474D01*
X144844666Y-145429179D01*
X144959881Y-145342929D01*
X145046131Y-145227714D01*
X145096426Y-145092866D01*
X145102835Y-145033256D01*
X145102834Y-144516745D01*
X145102834Y-144516744D01*
X145102834Y-144516734D01*
X145102775Y-144515633D01*
X145102834Y-144515383D01*
X145102834Y-144513424D01*
X145103297Y-144513424D01*
X145118845Y-144447637D01*
X145169125Y-144399123D01*
X145226597Y-144385000D01*
X146250000Y-144385000D01*
X146250000Y-140615000D01*
X145226598Y-140615000D01*
X145159559Y-140595315D01*
X145113804Y-140542511D01*
X145103196Y-140486577D01*
X145102835Y-140486577D01*
X145102834Y-140484676D01*
X145102776Y-140484365D01*
X145102834Y-140483264D01*
X145102835Y-140483256D01*
X145102834Y-139966745D01*
X145096426Y-139907134D01*
X145080780Y-139865186D01*
X145046132Y-139772288D01*
X145046128Y-139772281D01*
X144959882Y-139657072D01*
X144959879Y-139657069D01*
X144844670Y-139570823D01*
X144844663Y-139570819D01*
X144709817Y-139520525D01*
X144709818Y-139520525D01*
X144650218Y-139514118D01*
X144650216Y-139514117D01*
X144650208Y-139514117D01*
X144650199Y-139514117D01*
X142599034Y-139514117D01*
X142599026Y-139514118D01*
X142572907Y-139516926D01*
X142504148Y-139504519D01*
X142471975Y-139481318D01*
X142446543Y-139455886D01*
X142331811Y-139379225D01*
X142331812Y-139379225D01*
X142331807Y-139379222D01*
X142204332Y-139326421D01*
X142204322Y-139326418D01*
X142068996Y-139299500D01*
X142068994Y-139299500D01*
X142068993Y-139299500D01*
X137931007Y-139299500D01*
X137931003Y-139299500D01*
X137822590Y-139321065D01*
X137822589Y-139321065D01*
X137795681Y-139326418D01*
X137795671Y-139326420D01*
X137668190Y-139379224D01*
X137553454Y-139455887D01*
X129995890Y-147013451D01*
X129995884Y-147013458D01*
X129953786Y-147076464D01*
X129953786Y-147076465D01*
X129946056Y-147088034D01*
X129919225Y-147128188D01*
X129919221Y-147128195D01*
X129866421Y-147255667D01*
X129866418Y-147255677D01*
X129839500Y-147391004D01*
X129839500Y-154124942D01*
X129819815Y-154191981D01*
X129771798Y-154235425D01*
X129766671Y-154238037D01*
X129578773Y-154374553D01*
X129414553Y-154538773D01*
X129278039Y-154726668D01*
X129172601Y-154933599D01*
X129100831Y-155154485D01*
X129064500Y-155383870D01*
X126935499Y-155383870D01*
X126935499Y-154477128D01*
X126929091Y-154417517D01*
X126913066Y-154374553D01*
X126878797Y-154282671D01*
X126878793Y-154282664D01*
X126792547Y-154167455D01*
X126792544Y-154167452D01*
X126677335Y-154081206D01*
X126677328Y-154081202D01*
X126542482Y-154030908D01*
X126542483Y-154030908D01*
X126482883Y-154024501D01*
X126482881Y-154024500D01*
X126482873Y-154024500D01*
X126482864Y-154024500D01*
X124437129Y-154024500D01*
X124437123Y-154024501D01*
X124377516Y-154030908D01*
X124242671Y-154081202D01*
X124242664Y-154081206D01*
X124127455Y-154167452D01*
X124127452Y-154167455D01*
X124041206Y-154282664D01*
X124041202Y-154282671D01*
X123990908Y-154417517D01*
X123984501Y-154477116D01*
X123984501Y-154477123D01*
X123984500Y-154477135D01*
X120553520Y-154477135D01*
X138109503Y-136921153D01*
X145199500Y-136921153D01*
X145199500Y-137078846D01*
X145230261Y-137233489D01*
X145230264Y-137233501D01*
X145290602Y-137379172D01*
X145290609Y-137379185D01*
X145378210Y-137510288D01*
X145378213Y-137510292D01*
X145489707Y-137621786D01*
X145489711Y-137621789D01*
X145620814Y-137709390D01*
X145620827Y-137709397D01*
X145758683Y-137766498D01*
X145766503Y-137769737D01*
X145784747Y-137773366D01*
X145815624Y-137779508D01*
X145877535Y-137811892D01*
X145912109Y-137872608D01*
X145908370Y-137942377D01*
X145881706Y-137984697D01*
X145882076Y-137985001D01*
X145879661Y-137987942D01*
X145879123Y-137988798D01*
X145878212Y-137989708D01*
X145878210Y-137989711D01*
X145790609Y-138120814D01*
X145790602Y-138120827D01*
X145730264Y-138266498D01*
X145730261Y-138266510D01*
X145699500Y-138421153D01*
X145699500Y-138578846D01*
X145730261Y-138733489D01*
X145730264Y-138733501D01*
X145790602Y-138879172D01*
X145790609Y-138879185D01*
X145878210Y-139010288D01*
X145878213Y-139010292D01*
X145989707Y-139121786D01*
X145989711Y-139121789D01*
X146120814Y-139209390D01*
X146120827Y-139209397D01*
X146187031Y-139236819D01*
X146266503Y-139269737D01*
X146416131Y-139299500D01*
X146421153Y-139300499D01*
X146421156Y-139300500D01*
X146421158Y-139300500D01*
X146578844Y-139300500D01*
X146578845Y-139300499D01*
X146733497Y-139269737D01*
X146812969Y-139236819D01*
X146877864Y-139209939D01*
X146925316Y-139200500D01*
X147308861Y-139200500D01*
X147375900Y-139220185D01*
X147396542Y-139236819D01*
X147891581Y-139731858D01*
X147925066Y-139793181D01*
X147920082Y-139862871D01*
X147903575Y-139907128D01*
X147903574Y-139907132D01*
X147903574Y-139907134D01*
X147897165Y-139966744D01*
X147897165Y-139966751D01*
X147897165Y-139966752D01*
X147897165Y-140483265D01*
X147897225Y-140484367D01*
X147897165Y-140484616D01*
X147897166Y-140486576D01*
X147896703Y-140486576D01*
X147881155Y-140552363D01*
X147830875Y-140600877D01*
X147773403Y-140615000D01*
X146750000Y-140615000D01*
X146750000Y-144385000D01*
X147773402Y-144385000D01*
X147840441Y-144404685D01*
X147886196Y-144457489D01*
X147896804Y-144513423D01*
X147897165Y-144513423D01*
X147897165Y-144515323D01*
X147897224Y-144515635D01*
X147897165Y-144516735D01*
X147897165Y-145033253D01*
X147897166Y-145033259D01*
X147903573Y-145092866D01*
X147953867Y-145227711D01*
X147953871Y-145227718D01*
X148040117Y-145342927D01*
X148040120Y-145342930D01*
X148155329Y-145429176D01*
X148155336Y-145429180D01*
X148200283Y-145445944D01*
X148290182Y-145479474D01*
X148349792Y-145485883D01*
X148550880Y-145485882D01*
X148617919Y-145505566D01*
X148663674Y-145558370D01*
X148674880Y-145609882D01*
X148674880Y-153346386D01*
X148674880Y-153484374D01*
X148674880Y-153484376D01*
X148674879Y-153484376D01*
X148701798Y-153619702D01*
X148701801Y-153619712D01*
X148754602Y-153747187D01*
X148831267Y-153861925D01*
X148831268Y-153861926D01*
X149948181Y-154978838D01*
X149981666Y-155040161D01*
X149984500Y-155066519D01*
X149984500Y-156522870D01*
X149984501Y-156522876D01*
X149990908Y-156582483D01*
X150041202Y-156717328D01*
X150041206Y-156717335D01*
X150127452Y-156832544D01*
X150127455Y-156832547D01*
X150242664Y-156918793D01*
X150242671Y-156918797D01*
X150377517Y-156969091D01*
X150377516Y-156969091D01*
X150384444Y-156969835D01*
X150437127Y-156975500D01*
X152482872Y-156975499D01*
X152542483Y-156969091D01*
X152677331Y-156918796D01*
X152792546Y-156832546D01*
X152878796Y-156717331D01*
X152929091Y-156582483D01*
X152935500Y-156522873D01*
X152935499Y-155383870D01*
X155064500Y-155383870D01*
X155064500Y-155616129D01*
X155100831Y-155845514D01*
X155172601Y-156066400D01*
X155217484Y-156154486D01*
X155278039Y-156273331D01*
X155414551Y-156461224D01*
X155578776Y-156625449D01*
X155766669Y-156761961D01*
X155864436Y-156811776D01*
X155973599Y-156867398D01*
X155973601Y-156867398D01*
X155973604Y-156867400D01*
X156194486Y-156939169D01*
X156312668Y-156957886D01*
X156423871Y-156975500D01*
X156423876Y-156975500D01*
X156656129Y-156975500D01*
X156757502Y-156959443D01*
X156885514Y-156939169D01*
X157106396Y-156867400D01*
X157313331Y-156761961D01*
X157501224Y-156625449D01*
X157665449Y-156461224D01*
X157801961Y-156273331D01*
X157907400Y-156066396D01*
X157979169Y-155845514D01*
X157999443Y-155717502D01*
X158015500Y-155616129D01*
X158015500Y-155383870D01*
X157992402Y-155238039D01*
X157979169Y-155154486D01*
X157907400Y-154933604D01*
X157907398Y-154933601D01*
X157907398Y-154933599D01*
X157801960Y-154726668D01*
X157801958Y-154726665D01*
X157665449Y-154538776D01*
X157501224Y-154374551D01*
X157313331Y-154238039D01*
X157240499Y-154200929D01*
X157106400Y-154132601D01*
X156885514Y-154060831D01*
X156656129Y-154024500D01*
X156656124Y-154024500D01*
X156423876Y-154024500D01*
X156423871Y-154024500D01*
X156194485Y-154060831D01*
X155973599Y-154132601D01*
X155766668Y-154238039D01*
X155578773Y-154374553D01*
X155414553Y-154538773D01*
X155278039Y-154726668D01*
X155172601Y-154933599D01*
X155100831Y-155154485D01*
X155064500Y-155383870D01*
X152935499Y-155383870D01*
X152935499Y-154477128D01*
X152929091Y-154417517D01*
X152913066Y-154374553D01*
X152878797Y-154282671D01*
X152878793Y-154282664D01*
X152792547Y-154167455D01*
X152792544Y-154167452D01*
X152677335Y-154081206D01*
X152677328Y-154081202D01*
X152542482Y-154030908D01*
X152542483Y-154030908D01*
X152482883Y-154024501D01*
X152482881Y-154024500D01*
X152482873Y-154024500D01*
X152482865Y-154024500D01*
X151026519Y-154024500D01*
X150959480Y-154004815D01*
X150938838Y-153988181D01*
X150112199Y-153161542D01*
X150078714Y-153100219D01*
X150075880Y-153073861D01*
X150075880Y-148399986D01*
X151300001Y-148399986D01*
X151310494Y-148502697D01*
X151365641Y-148669119D01*
X151365643Y-148669124D01*
X151457684Y-148818345D01*
X151581654Y-148942315D01*
X151730875Y-149034356D01*
X151730880Y-149034358D01*
X151897302Y-149089505D01*
X151897309Y-149089506D01*
X152000019Y-149099999D01*
X152249999Y-149099999D01*
X152750000Y-149099999D01*
X152999972Y-149099999D01*
X152999986Y-149099998D01*
X153102697Y-149089505D01*
X153269119Y-149034358D01*
X153269124Y-149034356D01*
X153418345Y-148942315D01*
X153542315Y-148818345D01*
X153634356Y-148669124D01*
X153634358Y-148669119D01*
X153689505Y-148502697D01*
X153689506Y-148502690D01*
X153699999Y-148399986D01*
X153700000Y-148399973D01*
X153700000Y-148250000D01*
X152750000Y-148250000D01*
X152750000Y-149099999D01*
X152249999Y-149099999D01*
X152250000Y-149099998D01*
X152250000Y-148250000D01*
X151300001Y-148250000D01*
X151300001Y-148399986D01*
X150075880Y-148399986D01*
X150075880Y-145609882D01*
X150095565Y-145542843D01*
X150148369Y-145497088D01*
X150199880Y-145485882D01*
X150400966Y-145485882D01*
X150400967Y-145485882D01*
X150460578Y-145479474D01*
X150595426Y-145429179D01*
X150710641Y-145342929D01*
X150718744Y-145332103D01*
X150774675Y-145290232D01*
X150842204Y-145284795D01*
X150865425Y-145289414D01*
X150921156Y-145300500D01*
X150921158Y-145300500D01*
X151078844Y-145300500D01*
X151187202Y-145278946D01*
X151256794Y-145285173D01*
X151311971Y-145328036D01*
X151335216Y-145393926D01*
X151329100Y-145439565D01*
X151315876Y-145479474D01*
X151310001Y-145497203D01*
X151310000Y-145497204D01*
X151299500Y-145599983D01*
X151299500Y-146400001D01*
X151299501Y-146400019D01*
X151310000Y-146502796D01*
X151310001Y-146502799D01*
X151365185Y-146669331D01*
X151365187Y-146669336D01*
X151457289Y-146818657D01*
X151551304Y-146912672D01*
X151584789Y-146973995D01*
X151579805Y-147043687D01*
X151551305Y-147088034D01*
X151457682Y-147181657D01*
X151365643Y-147330875D01*
X151365641Y-147330880D01*
X151310494Y-147497302D01*
X151310493Y-147497309D01*
X151300000Y-147600013D01*
X151300000Y-147750000D01*
X153699999Y-147750000D01*
X153699999Y-147600028D01*
X153699998Y-147600013D01*
X153689505Y-147497302D01*
X153634358Y-147330880D01*
X153634356Y-147330875D01*
X153542315Y-147181654D01*
X153448695Y-147088034D01*
X153415210Y-147026711D01*
X153420194Y-146957019D01*
X153448691Y-146912676D01*
X153542712Y-146818656D01*
X153634814Y-146669334D01*
X153634815Y-146669331D01*
X153638605Y-146663187D01*
X153641425Y-146664926D01*
X153677619Y-146623493D01*
X153744737Y-146604077D01*
X153811697Y-146624030D01*
X153831921Y-146640395D01*
X162991979Y-155800453D01*
X163022228Y-155849815D01*
X163092600Y-156066396D01*
X163198039Y-156273331D01*
X163334551Y-156461224D01*
X163498776Y-156625449D01*
X163686669Y-156761961D01*
X163784436Y-156811776D01*
X163893599Y-156867398D01*
X163893601Y-156867398D01*
X163893604Y-156867400D01*
X164114486Y-156939169D01*
X164232668Y-156957886D01*
X164343871Y-156975500D01*
X164343876Y-156975500D01*
X164576129Y-156975500D01*
X164677502Y-156959443D01*
X164805514Y-156939169D01*
X165026396Y-156867400D01*
X165233331Y-156761961D01*
X165421224Y-156625449D01*
X165585449Y-156461224D01*
X165721961Y-156273331D01*
X165827400Y-156066396D01*
X165899169Y-155845514D01*
X165919443Y-155717502D01*
X165935500Y-155616129D01*
X165935500Y-155383870D01*
X165912402Y-155238039D01*
X165899169Y-155154486D01*
X165827400Y-154933604D01*
X165827398Y-154933601D01*
X165827398Y-154933599D01*
X165789145Y-154858526D01*
X165721961Y-154726669D01*
X165585449Y-154538776D01*
X165523808Y-154477135D01*
X168064500Y-154477135D01*
X168064500Y-156522870D01*
X168064501Y-156522876D01*
X168070908Y-156582483D01*
X168121202Y-156717328D01*
X168121206Y-156717335D01*
X168207452Y-156832544D01*
X168207455Y-156832547D01*
X168322664Y-156918793D01*
X168322671Y-156918797D01*
X168457517Y-156969091D01*
X168457516Y-156969091D01*
X168464444Y-156969835D01*
X168517127Y-156975500D01*
X170562872Y-156975499D01*
X170622483Y-156969091D01*
X170757331Y-156918796D01*
X170872546Y-156832546D01*
X170958796Y-156717331D01*
X171009091Y-156582483D01*
X171015500Y-156522873D01*
X171015499Y-155383870D01*
X175984500Y-155383870D01*
X175984500Y-155616129D01*
X176020831Y-155845514D01*
X176092601Y-156066400D01*
X176137484Y-156154486D01*
X176198039Y-156273331D01*
X176334551Y-156461224D01*
X176498776Y-156625449D01*
X176686669Y-156761961D01*
X176784436Y-156811776D01*
X176893599Y-156867398D01*
X176893601Y-156867398D01*
X176893604Y-156867400D01*
X177114486Y-156939169D01*
X177232668Y-156957886D01*
X177343871Y-156975500D01*
X177343876Y-156975500D01*
X177576129Y-156975500D01*
X177677502Y-156959443D01*
X177805514Y-156939169D01*
X178026396Y-156867400D01*
X178233331Y-156761961D01*
X178421224Y-156625449D01*
X178585449Y-156461224D01*
X178721961Y-156273331D01*
X178827400Y-156066396D01*
X178899169Y-155845514D01*
X178919443Y-155717502D01*
X178935500Y-155616129D01*
X178935500Y-155383870D01*
X178912402Y-155238039D01*
X178899169Y-155154486D01*
X178827400Y-154933604D01*
X178827398Y-154933601D01*
X178827398Y-154933599D01*
X178789145Y-154858526D01*
X178721961Y-154726669D01*
X178585449Y-154538776D01*
X178523808Y-154477135D01*
X181064500Y-154477135D01*
X181064500Y-156522870D01*
X181064501Y-156522876D01*
X181070908Y-156582483D01*
X181121202Y-156717328D01*
X181121206Y-156717335D01*
X181207452Y-156832544D01*
X181207455Y-156832547D01*
X181322664Y-156918793D01*
X181322671Y-156918797D01*
X181457517Y-156969091D01*
X181457516Y-156969091D01*
X181464444Y-156969835D01*
X181517127Y-156975500D01*
X183562872Y-156975499D01*
X183622483Y-156969091D01*
X183757331Y-156918796D01*
X183872546Y-156832546D01*
X183958796Y-156717331D01*
X184009091Y-156582483D01*
X184015500Y-156522873D01*
X184015499Y-154477128D01*
X184009091Y-154417517D01*
X183993066Y-154374553D01*
X183958797Y-154282671D01*
X183958793Y-154282664D01*
X183872547Y-154167455D01*
X183872544Y-154167452D01*
X183757335Y-154081206D01*
X183757328Y-154081202D01*
X183622482Y-154030908D01*
X183622483Y-154030908D01*
X183562883Y-154024501D01*
X183562881Y-154024500D01*
X183562873Y-154024500D01*
X183562864Y-154024500D01*
X181517129Y-154024500D01*
X181517123Y-154024501D01*
X181457516Y-154030908D01*
X181322671Y-154081202D01*
X181322664Y-154081206D01*
X181207455Y-154167452D01*
X181207452Y-154167455D01*
X181121206Y-154282664D01*
X181121202Y-154282671D01*
X181070908Y-154417517D01*
X181064501Y-154477116D01*
X181064501Y-154477123D01*
X181064500Y-154477135D01*
X178523808Y-154477135D01*
X178421224Y-154374551D01*
X178233331Y-154238039D01*
X178160499Y-154200929D01*
X178026400Y-154132601D01*
X177805514Y-154060831D01*
X177576129Y-154024500D01*
X177576124Y-154024500D01*
X177343876Y-154024500D01*
X177343871Y-154024500D01*
X177114485Y-154060831D01*
X176893599Y-154132601D01*
X176686668Y-154238039D01*
X176498773Y-154374553D01*
X176334553Y-154538773D01*
X176198039Y-154726668D01*
X176092601Y-154933599D01*
X176020831Y-155154485D01*
X175984500Y-155383870D01*
X171015499Y-155383870D01*
X171015499Y-154477128D01*
X171009091Y-154417517D01*
X170993066Y-154374553D01*
X170958797Y-154282671D01*
X170958793Y-154282664D01*
X170872547Y-154167455D01*
X170872544Y-154167452D01*
X170757335Y-154081206D01*
X170757328Y-154081202D01*
X170622482Y-154030908D01*
X170622483Y-154030908D01*
X170562883Y-154024501D01*
X170562881Y-154024500D01*
X170562873Y-154024500D01*
X170562864Y-154024500D01*
X168517129Y-154024500D01*
X168517123Y-154024501D01*
X168457516Y-154030908D01*
X168322671Y-154081202D01*
X168322664Y-154081206D01*
X168207455Y-154167452D01*
X168207452Y-154167455D01*
X168121206Y-154282664D01*
X168121202Y-154282671D01*
X168070908Y-154417517D01*
X168064501Y-154477116D01*
X168064501Y-154477123D01*
X168064500Y-154477135D01*
X165523808Y-154477135D01*
X165421224Y-154374551D01*
X165233331Y-154238039D01*
X165026396Y-154132600D01*
X164809815Y-154062228D01*
X164760453Y-154031979D01*
X154314648Y-143586174D01*
X154314646Y-143586172D01*
X154155405Y-143470476D01*
X153980026Y-143381116D01*
X153792826Y-143320291D01*
X153784601Y-143318988D01*
X153764159Y-143315750D01*
X153744927Y-143306632D01*
X153724133Y-143302109D01*
X153704699Y-143287561D01*
X153701025Y-143285819D01*
X153695879Y-143280958D01*
X153611180Y-143196259D01*
X153577695Y-143134936D01*
X153582679Y-143065244D01*
X153611181Y-143020896D01*
X153621789Y-143010289D01*
X153709394Y-142879179D01*
X153769737Y-142733497D01*
X153800500Y-142578842D01*
X153800500Y-142421158D01*
X153800500Y-142421155D01*
X153800499Y-142421153D01*
X153778946Y-142312796D01*
X153785173Y-142243205D01*
X153828036Y-142188027D01*
X153893926Y-142164783D01*
X153939564Y-142170899D01*
X153997203Y-142189999D01*
X154099991Y-142200500D01*
X154900008Y-142200499D01*
X154900016Y-142200498D01*
X154900019Y-142200498D01*
X154956302Y-142194748D01*
X155002797Y-142189999D01*
X155169334Y-142134814D01*
X155318656Y-142042712D01*
X155412675Y-141948692D01*
X155473994Y-141915210D01*
X155543686Y-141920194D01*
X155588034Y-141948695D01*
X155681654Y-142042315D01*
X155830875Y-142134356D01*
X155830880Y-142134358D01*
X155997302Y-142189505D01*
X155997309Y-142189506D01*
X156100019Y-142199999D01*
X156249999Y-142199999D01*
X156750000Y-142199999D01*
X156899972Y-142199999D01*
X156899986Y-142199998D01*
X157002697Y-142189505D01*
X157169119Y-142134358D01*
X157169124Y-142134356D01*
X157318345Y-142042315D01*
X157442315Y-141918345D01*
X157534356Y-141769124D01*
X157534358Y-141769119D01*
X157589505Y-141602697D01*
X157589506Y-141602690D01*
X157599999Y-141499986D01*
X157600000Y-141499973D01*
X157600000Y-141250000D01*
X156750000Y-141250000D01*
X156750000Y-142199999D01*
X156249999Y-142199999D01*
X156250000Y-142199998D01*
X156250000Y-140750000D01*
X156750000Y-140750000D01*
X157599999Y-140750000D01*
X157599999Y-140500028D01*
X157599998Y-140500013D01*
X157589505Y-140397302D01*
X157534358Y-140230880D01*
X157534356Y-140230875D01*
X157442315Y-140081654D01*
X157318345Y-139957684D01*
X157169124Y-139865643D01*
X157169119Y-139865641D01*
X157002697Y-139810494D01*
X157002690Y-139810493D01*
X156899986Y-139800000D01*
X156750000Y-139800000D01*
X156750000Y-140750000D01*
X156250000Y-140750000D01*
X156250000Y-139800000D01*
X156100027Y-139800000D01*
X156100012Y-139800001D01*
X155997302Y-139810494D01*
X155830880Y-139865641D01*
X155830875Y-139865643D01*
X155681657Y-139957682D01*
X155588034Y-140051305D01*
X155526710Y-140084789D01*
X155457019Y-140079805D01*
X155412672Y-140051304D01*
X155318657Y-139957289D01*
X155318656Y-139957288D01*
X155169334Y-139865186D01*
X155002797Y-139810001D01*
X155002795Y-139810000D01*
X154900010Y-139799500D01*
X154099998Y-139799500D01*
X154099980Y-139799501D01*
X153997203Y-139810000D01*
X153997200Y-139810001D01*
X153830668Y-139865185D01*
X153830663Y-139865187D01*
X153681342Y-139957289D01*
X153557289Y-140081342D01*
X153461395Y-140236813D01*
X153459600Y-140235706D01*
X153420313Y-140280337D01*
X153354092Y-140299500D01*
X152431005Y-140299500D01*
X152295677Y-140326418D01*
X152295671Y-140326420D01*
X152168192Y-140379223D01*
X152168187Y-140379226D01*
X152158629Y-140385613D01*
X152091951Y-140406489D01*
X152024571Y-140388003D01*
X152001917Y-140368197D01*
X152001097Y-140369018D01*
X151885292Y-140253213D01*
X151885288Y-140253210D01*
X151754185Y-140165609D01*
X151754172Y-140165602D01*
X151608501Y-140105264D01*
X151608489Y-140105261D01*
X151453845Y-140074500D01*
X151453842Y-140074500D01*
X151296158Y-140074500D01*
X151296155Y-140074500D01*
X151141510Y-140105261D01*
X151141498Y-140105264D01*
X151025046Y-140153500D01*
X150955577Y-140160969D01*
X150893098Y-140129693D01*
X150857446Y-140069604D01*
X150853594Y-140038939D01*
X150853594Y-139966746D01*
X150853593Y-139966740D01*
X150852619Y-139957682D01*
X150847186Y-139907134D01*
X150831540Y-139865186D01*
X150796892Y-139772288D01*
X150796888Y-139772281D01*
X150710642Y-139657072D01*
X150710639Y-139657069D01*
X150595430Y-139570823D01*
X150595423Y-139570819D01*
X150460577Y-139520525D01*
X150460578Y-139520525D01*
X150400978Y-139514118D01*
X150400976Y-139514117D01*
X150400968Y-139514117D01*
X150400960Y-139514117D01*
X149706515Y-139514117D01*
X149639476Y-139494432D01*
X149618834Y-139477798D01*
X148096926Y-137955888D01*
X148096925Y-137955887D01*
X147982187Y-137879222D01*
X147854712Y-137826421D01*
X147854702Y-137826418D01*
X147719376Y-137799500D01*
X147719374Y-137799500D01*
X147719373Y-137799500D01*
X146925316Y-137799500D01*
X146920981Y-137798756D01*
X146918597Y-137799318D01*
X146901165Y-137795356D01*
X146883986Y-137792409D01*
X146879508Y-137790826D01*
X146879179Y-137790606D01*
X146733497Y-137730263D01*
X146675642Y-137718755D01*
X146667236Y-137715783D01*
X146645845Y-137700337D01*
X146622463Y-137688106D01*
X146617962Y-137680203D01*
X146610591Y-137674880D01*
X146600945Y-137650318D01*
X146587889Y-137627389D01*
X146588375Y-137618309D01*
X146585052Y-137609845D01*
X146590217Y-137583966D01*
X146591630Y-137557620D01*
X146597258Y-137548687D01*
X146598728Y-137541327D01*
X146607841Y-137531894D01*
X146618296Y-137515304D01*
X146617924Y-137514999D01*
X146620357Y-137512033D01*
X146620891Y-137511186D01*
X146621789Y-137510289D01*
X146709394Y-137379179D01*
X146709395Y-137379176D01*
X146709397Y-137379173D01*
X146749992Y-137281166D01*
X146769192Y-137234810D01*
X146796069Y-137194586D01*
X147090669Y-136899986D01*
X151300001Y-136899986D01*
X151310494Y-137002697D01*
X151365641Y-137169119D01*
X151365643Y-137169124D01*
X151457684Y-137318345D01*
X151581654Y-137442315D01*
X151730875Y-137534356D01*
X151730880Y-137534358D01*
X151897302Y-137589505D01*
X151897309Y-137589506D01*
X152000019Y-137599999D01*
X152249999Y-137599999D01*
X152750000Y-137599999D01*
X152999972Y-137599999D01*
X152999986Y-137599998D01*
X153102697Y-137589505D01*
X153269119Y-137534358D01*
X153269124Y-137534356D01*
X153418345Y-137442315D01*
X153542315Y-137318345D01*
X153634356Y-137169124D01*
X153634358Y-137169119D01*
X153689505Y-137002697D01*
X153689506Y-137002690D01*
X153699999Y-136899986D01*
X153700000Y-136899973D01*
X153700000Y-136750000D01*
X152750000Y-136750000D01*
X152750000Y-137599999D01*
X152249999Y-137599999D01*
X152250000Y-137599998D01*
X152250000Y-136750000D01*
X151300001Y-136750000D01*
X151300001Y-136899986D01*
X147090669Y-136899986D01*
X148968455Y-135022201D01*
X149029778Y-134988716D01*
X149056136Y-134985882D01*
X150400966Y-134985882D01*
X150400967Y-134985882D01*
X150460578Y-134979474D01*
X150595426Y-134929179D01*
X150710641Y-134842929D01*
X150796891Y-134727714D01*
X150847186Y-134592866D01*
X150853275Y-134536242D01*
X150865540Y-134506633D01*
X150876351Y-134476470D01*
X150878821Y-134474570D01*
X150880014Y-134471692D01*
X150906331Y-134453419D01*
X150931742Y-134433884D01*
X150935476Y-134433185D01*
X150937407Y-134431845D01*
X150966131Y-134425940D01*
X150971342Y-134425500D01*
X151078842Y-134425500D01*
X151158136Y-134409727D01*
X151165067Y-134409142D01*
X151192754Y-134414793D01*
X151220899Y-134417312D01*
X151226533Y-134421688D01*
X151233525Y-134423116D01*
X151253760Y-134442838D01*
X151276077Y-134460174D01*
X151278451Y-134466903D01*
X151283560Y-134471883D01*
X151289919Y-134499411D01*
X151299322Y-134526063D01*
X151299500Y-134532702D01*
X151299500Y-134900001D01*
X151299501Y-134900019D01*
X151310000Y-135002796D01*
X151310001Y-135002799D01*
X151365185Y-135169331D01*
X151365187Y-135169336D01*
X151457289Y-135318657D01*
X151551304Y-135412672D01*
X151584789Y-135473995D01*
X151579805Y-135543687D01*
X151551305Y-135588034D01*
X151457682Y-135681657D01*
X151365643Y-135830875D01*
X151365641Y-135830880D01*
X151310494Y-135997302D01*
X151310493Y-135997309D01*
X151300000Y-136100013D01*
X151300000Y-136250000D01*
X153699999Y-136250000D01*
X153699999Y-136100028D01*
X153699998Y-136100013D01*
X153689505Y-135997302D01*
X153634358Y-135830880D01*
X153634356Y-135830875D01*
X153542315Y-135681654D01*
X153448695Y-135588034D01*
X153415210Y-135526711D01*
X153420194Y-135457019D01*
X153448691Y-135412676D01*
X153542712Y-135318656D01*
X153634814Y-135169334D01*
X153689999Y-135002797D01*
X153700500Y-134900009D01*
X153700499Y-134768333D01*
X153720183Y-134701296D01*
X153772987Y-134655541D01*
X153842145Y-134645597D01*
X153905701Y-134674621D01*
X153912180Y-134680654D01*
X154185355Y-134953829D01*
X154280552Y-135022994D01*
X154280551Y-135022994D01*
X154337266Y-135064199D01*
X154344595Y-135069524D01*
X154456347Y-135126464D01*
X154519970Y-135158882D01*
X154519972Y-135158882D01*
X154519975Y-135158884D01*
X154620317Y-135191487D01*
X154707173Y-135219709D01*
X154901578Y-135250500D01*
X154901583Y-135250500D01*
X154901584Y-135250500D01*
X155098417Y-135250500D01*
X168430664Y-135250500D01*
X168497703Y-135270185D01*
X168518345Y-135286819D01*
X186225355Y-152993829D01*
X186384595Y-153109524D01*
X186467454Y-153151742D01*
X186559969Y-153198882D01*
X186559971Y-153198882D01*
X186559974Y-153198884D01*
X186660318Y-153231487D01*
X186747173Y-153259709D01*
X186941578Y-153290500D01*
X186941583Y-153290500D01*
X186941584Y-153290500D01*
X187138417Y-153290500D01*
X192674405Y-153290500D01*
X192730700Y-153304015D01*
X192933599Y-153407398D01*
X192933601Y-153407398D01*
X192933604Y-153407400D01*
X193154486Y-153479169D01*
X193272668Y-153497886D01*
X193383871Y-153515500D01*
X193383876Y-153515500D01*
X193616129Y-153515500D01*
X193717502Y-153499443D01*
X193845514Y-153479169D01*
X194066396Y-153407400D01*
X194273331Y-153301961D01*
X194461224Y-153165449D01*
X194625449Y-153001224D01*
X194761961Y-152813331D01*
X194867400Y-152606396D01*
X194939169Y-152385514D01*
X194959443Y-152257502D01*
X194975500Y-152156129D01*
X194975500Y-151923870D01*
X194956232Y-151802222D01*
X194939169Y-151694486D01*
X194867400Y-151473604D01*
X194867398Y-151473601D01*
X194867398Y-151473599D01*
X194761960Y-151266668D01*
X194625449Y-151078776D01*
X194461224Y-150914551D01*
X194273331Y-150778039D01*
X194224545Y-150753181D01*
X194066400Y-150672601D01*
X193845514Y-150600831D01*
X193616129Y-150564500D01*
X193616124Y-150564500D01*
X193383876Y-150564500D01*
X193383871Y-150564500D01*
X193154485Y-150600831D01*
X192933599Y-150672601D01*
X192730700Y-150775985D01*
X192674405Y-150789500D01*
X187609336Y-150789500D01*
X187542297Y-150769815D01*
X187521655Y-150753181D01*
X182705609Y-145937135D01*
X192024500Y-145937135D01*
X192024500Y-147982870D01*
X192024501Y-147982876D01*
X192030908Y-148042483D01*
X192081202Y-148177328D01*
X192081206Y-148177335D01*
X192167452Y-148292544D01*
X192167455Y-148292547D01*
X192282664Y-148378793D01*
X192282671Y-148378797D01*
X192417517Y-148429091D01*
X192417516Y-148429091D01*
X192424444Y-148429835D01*
X192477127Y-148435500D01*
X194522872Y-148435499D01*
X194582483Y-148429091D01*
X194717331Y-148378796D01*
X194832546Y-148292546D01*
X194918796Y-148177331D01*
X194969091Y-148042483D01*
X194975500Y-147982873D01*
X194975499Y-145937128D01*
X194969166Y-145878211D01*
X194969091Y-145877516D01*
X194918797Y-145742671D01*
X194918793Y-145742664D01*
X194832547Y-145627455D01*
X194832544Y-145627452D01*
X194717335Y-145541206D01*
X194717328Y-145541202D01*
X194582482Y-145490908D01*
X194582483Y-145490908D01*
X194522883Y-145484501D01*
X194522881Y-145484500D01*
X194522873Y-145484500D01*
X194522864Y-145484500D01*
X192477129Y-145484500D01*
X192477123Y-145484501D01*
X192417516Y-145490908D01*
X192282671Y-145541202D01*
X192282664Y-145541206D01*
X192167455Y-145627452D01*
X192167452Y-145627455D01*
X192081206Y-145742664D01*
X192081202Y-145742671D01*
X192030908Y-145877517D01*
X192024501Y-145937116D01*
X192024501Y-145937123D01*
X192024500Y-145937135D01*
X182705609Y-145937135D01*
X176152344Y-139383870D01*
X192024500Y-139383870D01*
X192024500Y-139616129D01*
X192060831Y-139845514D01*
X192132601Y-140066400D01*
X192216409Y-140230880D01*
X192238039Y-140273331D01*
X192374551Y-140461224D01*
X192538776Y-140625449D01*
X192726669Y-140761961D01*
X192748313Y-140772989D01*
X192933599Y-140867398D01*
X192933601Y-140867398D01*
X192933604Y-140867400D01*
X193154486Y-140939169D01*
X193272668Y-140957886D01*
X193383871Y-140975500D01*
X193383876Y-140975500D01*
X193616129Y-140975500D01*
X193717502Y-140959443D01*
X193845514Y-140939169D01*
X194066396Y-140867400D01*
X194273331Y-140761961D01*
X194461224Y-140625449D01*
X194625449Y-140461224D01*
X194761961Y-140273331D01*
X194867400Y-140066396D01*
X194939169Y-139845514D01*
X194969015Y-139657071D01*
X194975500Y-139616129D01*
X194975500Y-139383870D01*
X194949574Y-139220185D01*
X194939169Y-139154486D01*
X194867400Y-138933604D01*
X194867398Y-138933601D01*
X194867398Y-138933599D01*
X194799579Y-138800499D01*
X194761961Y-138726669D01*
X194625449Y-138538776D01*
X194461224Y-138374551D01*
X194273331Y-138238039D01*
X194264401Y-138233489D01*
X194066400Y-138132601D01*
X193845514Y-138060831D01*
X193616129Y-138024500D01*
X193616124Y-138024500D01*
X193383876Y-138024500D01*
X193383871Y-138024500D01*
X193154485Y-138060831D01*
X192933599Y-138132601D01*
X192726668Y-138238039D01*
X192538773Y-138374553D01*
X192374553Y-138538773D01*
X192238039Y-138726668D01*
X192132601Y-138933599D01*
X192060831Y-139154485D01*
X192024500Y-139383870D01*
X176152344Y-139383870D01*
X170165609Y-133397135D01*
X192024500Y-133397135D01*
X192024500Y-135442870D01*
X192024501Y-135442876D01*
X192030908Y-135502483D01*
X192081202Y-135637328D01*
X192081206Y-135637335D01*
X192167452Y-135752544D01*
X192167455Y-135752547D01*
X192282664Y-135838793D01*
X192282671Y-135838797D01*
X192417517Y-135889091D01*
X192417516Y-135889091D01*
X192424444Y-135889835D01*
X192477127Y-135895500D01*
X194522872Y-135895499D01*
X194582483Y-135889091D01*
X194717331Y-135838796D01*
X194832546Y-135752546D01*
X194918796Y-135637331D01*
X194969091Y-135502483D01*
X194975500Y-135442873D01*
X194975499Y-133397128D01*
X194969091Y-133337517D01*
X194952437Y-133292866D01*
X194918797Y-133202671D01*
X194918793Y-133202664D01*
X194832547Y-133087455D01*
X194832544Y-133087452D01*
X194717335Y-133001206D01*
X194717328Y-133001202D01*
X194582482Y-132950908D01*
X194582483Y-132950908D01*
X194522883Y-132944501D01*
X194522881Y-132944500D01*
X194522873Y-132944500D01*
X194522864Y-132944500D01*
X192477129Y-132944500D01*
X192477123Y-132944501D01*
X192417516Y-132950908D01*
X192282671Y-133001202D01*
X192282664Y-133001206D01*
X192167455Y-133087452D01*
X192167452Y-133087455D01*
X192081206Y-133202664D01*
X192081202Y-133202671D01*
X192030908Y-133337517D01*
X192024501Y-133397116D01*
X192024501Y-133397123D01*
X192024500Y-133397135D01*
X170165609Y-133397135D01*
X169814648Y-133046174D01*
X169814646Y-133046172D01*
X169655405Y-132930476D01*
X169480030Y-132841117D01*
X169292826Y-132780290D01*
X169098422Y-132749500D01*
X169098417Y-132749500D01*
X155569336Y-132749500D01*
X155502297Y-132729815D01*
X155481655Y-132713181D01*
X155111656Y-132343182D01*
X155078171Y-132281859D01*
X155083155Y-132212167D01*
X155125027Y-132156234D01*
X155160330Y-132137797D01*
X155169334Y-132134814D01*
X155318656Y-132042712D01*
X155412675Y-131948692D01*
X155473994Y-131915210D01*
X155543686Y-131920194D01*
X155588034Y-131948695D01*
X155681654Y-132042315D01*
X155830875Y-132134356D01*
X155830880Y-132134358D01*
X155997302Y-132189505D01*
X155997309Y-132189506D01*
X156100019Y-132199999D01*
X156249999Y-132199999D01*
X156750000Y-132199999D01*
X156899972Y-132199999D01*
X156899986Y-132199998D01*
X157002697Y-132189505D01*
X157169119Y-132134358D01*
X157169124Y-132134356D01*
X157318345Y-132042315D01*
X157442315Y-131918345D01*
X157534356Y-131769124D01*
X157534358Y-131769119D01*
X157589505Y-131602697D01*
X157589506Y-131602690D01*
X157599999Y-131499986D01*
X157600000Y-131499973D01*
X157600000Y-131250000D01*
X156750000Y-131250000D01*
X156750000Y-132199999D01*
X156249999Y-132199999D01*
X156250000Y-132199998D01*
X156250000Y-130750000D01*
X156750000Y-130750000D01*
X157599999Y-130750000D01*
X157599999Y-130500028D01*
X157599998Y-130500013D01*
X157589505Y-130397302D01*
X157534358Y-130230880D01*
X157534356Y-130230875D01*
X157442315Y-130081654D01*
X157318345Y-129957684D01*
X157169124Y-129865643D01*
X157169119Y-129865641D01*
X157002697Y-129810494D01*
X157002690Y-129810493D01*
X156899986Y-129800000D01*
X156750000Y-129800000D01*
X156750000Y-130750000D01*
X156250000Y-130750000D01*
X156250000Y-129800000D01*
X156100027Y-129800000D01*
X156100012Y-129800001D01*
X155997302Y-129810494D01*
X155830880Y-129865641D01*
X155830875Y-129865643D01*
X155681657Y-129957682D01*
X155588034Y-130051305D01*
X155526710Y-130084789D01*
X155457019Y-130079805D01*
X155412672Y-130051304D01*
X155318657Y-129957289D01*
X155318656Y-129957288D01*
X155169334Y-129865186D01*
X155002797Y-129810001D01*
X155002795Y-129810000D01*
X154900010Y-129799500D01*
X154099998Y-129799500D01*
X154099980Y-129799501D01*
X153997203Y-129810000D01*
X153997200Y-129810001D01*
X153830668Y-129865185D01*
X153830663Y-129865187D01*
X153681342Y-129957289D01*
X153557289Y-130081342D01*
X153465185Y-130230667D01*
X153462256Y-130239507D01*
X153422482Y-130296951D01*
X153357965Y-130323772D01*
X153344551Y-130324500D01*
X152282902Y-130324500D01*
X152215863Y-130304815D01*
X152170108Y-130252011D01*
X152161285Y-130224692D01*
X152144738Y-130141508D01*
X152144737Y-130141507D01*
X152144737Y-130141503D01*
X152127909Y-130100877D01*
X152084397Y-129995827D01*
X152084390Y-129995814D01*
X151996789Y-129864711D01*
X151996786Y-129864707D01*
X151885292Y-129753213D01*
X151885288Y-129753210D01*
X151754185Y-129665609D01*
X151754172Y-129665602D01*
X151608501Y-129605264D01*
X151608489Y-129605261D01*
X151453845Y-129574500D01*
X151453842Y-129574500D01*
X151296158Y-129574500D01*
X151296155Y-129574500D01*
X151141510Y-129605261D01*
X151141498Y-129605264D01*
X151025046Y-129653500D01*
X150955577Y-129660969D01*
X150893098Y-129629693D01*
X150857446Y-129569604D01*
X150853594Y-129538939D01*
X150853594Y-129466746D01*
X150853593Y-129466740D01*
X150847186Y-129407133D01*
X150796892Y-129272288D01*
X150796888Y-129272281D01*
X150710642Y-129157072D01*
X150710639Y-129157069D01*
X150595430Y-129070823D01*
X150595423Y-129070819D01*
X150460577Y-129020525D01*
X150460578Y-129020525D01*
X150400978Y-129014118D01*
X150400976Y-129014117D01*
X150400968Y-129014117D01*
X150400960Y-129014117D01*
X149706516Y-129014117D01*
X149639477Y-128994432D01*
X149618835Y-128977798D01*
X148596926Y-127955888D01*
X148596925Y-127955887D01*
X148482187Y-127879222D01*
X148354712Y-127826421D01*
X148354702Y-127826418D01*
X148219376Y-127799500D01*
X148219374Y-127799500D01*
X148219373Y-127799500D01*
X147425316Y-127799500D01*
X147377864Y-127790061D01*
X147233501Y-127730264D01*
X147233489Y-127730261D01*
X147078845Y-127699500D01*
X147078842Y-127699500D01*
X146921158Y-127699500D01*
X146921155Y-127699500D01*
X146766510Y-127730261D01*
X146766498Y-127730264D01*
X146620827Y-127790602D01*
X146620814Y-127790609D01*
X146489711Y-127878210D01*
X146489707Y-127878213D01*
X146378213Y-127989707D01*
X146378210Y-127989711D01*
X146290609Y-128120814D01*
X146290602Y-128120827D01*
X146230264Y-128266498D01*
X146230261Y-128266510D01*
X146199500Y-128421153D01*
X146199500Y-128578846D01*
X146230261Y-128733489D01*
X146230264Y-128733501D01*
X146290602Y-128879172D01*
X146290609Y-128879185D01*
X146378210Y-129010288D01*
X146378213Y-129010292D01*
X146489707Y-129121786D01*
X146489711Y-129121789D01*
X146620814Y-129209390D01*
X146620827Y-129209397D01*
X146694013Y-129239711D01*
X146766503Y-129269737D01*
X146921153Y-129300499D01*
X146921156Y-129300500D01*
X146921158Y-129300500D01*
X147078844Y-129300500D01*
X147078845Y-129300499D01*
X147233497Y-129269737D01*
X147308963Y-129238478D01*
X147377864Y-129209939D01*
X147425316Y-129200500D01*
X147802050Y-129200500D01*
X147869089Y-129220185D01*
X147914844Y-129272989D01*
X147924788Y-129342147D01*
X147918231Y-129367833D01*
X147903574Y-129407134D01*
X147897165Y-129466744D01*
X147897165Y-129466751D01*
X147897165Y-129466752D01*
X147897165Y-129983265D01*
X147897225Y-129984367D01*
X147897165Y-129984616D01*
X147897166Y-129986576D01*
X147896703Y-129986576D01*
X147881155Y-130052363D01*
X147830875Y-130100877D01*
X147773403Y-130115000D01*
X146750000Y-130115000D01*
X146750000Y-133885000D01*
X147773402Y-133885000D01*
X147782360Y-133887630D01*
X147791610Y-133886344D01*
X147815352Y-133897318D01*
X147840441Y-133904685D01*
X147846554Y-133911739D01*
X147855033Y-133915659D01*
X147869074Y-133937730D01*
X147886196Y-133957489D01*
X147888521Y-133968296D01*
X147892538Y-133974610D01*
X147895546Y-134000946D01*
X147897401Y-134009567D01*
X147897377Y-134014770D01*
X147897165Y-134016744D01*
X147897165Y-134061163D01*
X147897164Y-134061382D01*
X147887211Y-134094710D01*
X147877480Y-134127854D01*
X147877218Y-134128178D01*
X147877173Y-134128331D01*
X147876921Y-134128546D01*
X147860846Y-134148496D01*
X145805412Y-136203929D01*
X145765184Y-136230809D01*
X145620823Y-136290604D01*
X145620814Y-136290609D01*
X145489711Y-136378210D01*
X145489707Y-136378213D01*
X145378213Y-136489707D01*
X145378210Y-136489711D01*
X145290609Y-136620814D01*
X145290602Y-136620827D01*
X145230264Y-136766498D01*
X145230261Y-136766510D01*
X145199500Y-136921153D01*
X138109503Y-136921153D01*
X140018837Y-135011819D01*
X140080160Y-134978334D01*
X140106518Y-134975500D01*
X142508152Y-134975500D01*
X142536664Y-134978822D01*
X142539415Y-134979471D01*
X142539422Y-134979474D01*
X142599032Y-134985883D01*
X144650207Y-134985882D01*
X144709818Y-134979474D01*
X144844666Y-134929179D01*
X144959881Y-134842929D01*
X145046131Y-134727714D01*
X145096426Y-134592866D01*
X145102835Y-134533256D01*
X145102834Y-134016745D01*
X145102834Y-134016744D01*
X145102834Y-134016734D01*
X145102775Y-134015633D01*
X145102834Y-134015383D01*
X145102834Y-134013424D01*
X145103297Y-134013424D01*
X145118845Y-133947637D01*
X145169125Y-133899123D01*
X145226597Y-133885000D01*
X146250000Y-133885000D01*
X146250000Y-130115000D01*
X145226598Y-130115000D01*
X145159559Y-130095315D01*
X145113804Y-130042511D01*
X145103196Y-129986577D01*
X145102835Y-129986577D01*
X145102834Y-129984676D01*
X145102776Y-129984365D01*
X145102834Y-129983264D01*
X145102835Y-129983256D01*
X145102834Y-129466745D01*
X145096426Y-129407134D01*
X145082884Y-129370827D01*
X145046132Y-129272288D01*
X145046128Y-129272281D01*
X144959882Y-129157072D01*
X144959879Y-129157069D01*
X144844670Y-129070823D01*
X144844663Y-129070819D01*
X144709817Y-129020525D01*
X144709818Y-129020525D01*
X144650218Y-129014118D01*
X144650216Y-129014117D01*
X144650208Y-129014117D01*
X144650199Y-129014117D01*
X142599034Y-129014117D01*
X142599028Y-129014118D01*
X142539420Y-129020526D01*
X142536670Y-129021176D01*
X142508152Y-129024500D01*
X130614960Y-129024500D01*
X130567508Y-129015061D01*
X130483501Y-128980264D01*
X130483489Y-128980261D01*
X130328845Y-128949500D01*
X130328842Y-128949500D01*
X130171158Y-128949500D01*
X130171155Y-128949500D01*
X130016510Y-128980261D01*
X130016498Y-128980264D01*
X129870827Y-129040602D01*
X129870814Y-129040609D01*
X129739711Y-129128210D01*
X129739707Y-129128213D01*
X129628213Y-129239707D01*
X129628210Y-129239711D01*
X129540609Y-129370814D01*
X129540602Y-129370827D01*
X129480264Y-129516498D01*
X129480261Y-129516510D01*
X129449500Y-129671153D01*
X129449500Y-129828846D01*
X129480261Y-129983489D01*
X129480264Y-129983501D01*
X129540602Y-130129172D01*
X129540609Y-130129185D01*
X129628210Y-130260288D01*
X129628213Y-130260292D01*
X129739707Y-130371786D01*
X129739711Y-130371789D01*
X129870814Y-130459390D01*
X129870827Y-130459397D01*
X130016498Y-130519735D01*
X130016503Y-130519737D01*
X130171153Y-130550499D01*
X130171156Y-130550500D01*
X130171158Y-130550500D01*
X130328844Y-130550500D01*
X130328845Y-130550499D01*
X130483497Y-130519737D01*
X130629179Y-130459394D01*
X130637928Y-130453547D01*
X130648628Y-130446399D01*
X130715305Y-130425520D01*
X130717520Y-130425500D01*
X131284481Y-130425500D01*
X131351520Y-130445185D01*
X131397275Y-130497989D01*
X131407219Y-130567147D01*
X131378194Y-130630703D01*
X131372162Y-130637181D01*
X130805412Y-131203929D01*
X130765184Y-131230809D01*
X130620823Y-131290604D01*
X130620814Y-131290609D01*
X130489711Y-131378210D01*
X130489707Y-131378213D01*
X130378213Y-131489707D01*
X130378210Y-131489711D01*
X130290609Y-131620814D01*
X130290602Y-131620827D01*
X130230264Y-131766498D01*
X130230261Y-131766510D01*
X130199500Y-131921153D01*
X130199500Y-132078846D01*
X130230261Y-132233489D01*
X130230264Y-132233501D01*
X130290602Y-132379172D01*
X130290609Y-132379185D01*
X130378210Y-132510288D01*
X130378213Y-132510292D01*
X130489707Y-132621786D01*
X130489711Y-132621789D01*
X130620814Y-132709390D01*
X130620827Y-132709397D01*
X130766498Y-132769735D01*
X130766503Y-132769737D01*
X130916131Y-132799500D01*
X130921153Y-132800499D01*
X130921156Y-132800500D01*
X130921158Y-132800500D01*
X131078844Y-132800500D01*
X131078845Y-132800499D01*
X131233497Y-132769737D01*
X131361432Y-132716745D01*
X131379172Y-132709397D01*
X131379172Y-132709396D01*
X131379179Y-132709394D01*
X131510289Y-132621789D01*
X131621789Y-132510289D01*
X131709394Y-132379179D01*
X131709395Y-132379176D01*
X131709397Y-132379173D01*
X131769192Y-132234812D01*
X131796069Y-132194586D01*
X132878838Y-131111819D01*
X132940161Y-131078334D01*
X132966519Y-131075500D01*
X141205832Y-131075500D01*
X141272871Y-131095185D01*
X141318626Y-131147989D01*
X141328570Y-131217147D01*
X141308933Y-131268392D01*
X141290610Y-131295812D01*
X141290602Y-131295827D01*
X141230264Y-131441498D01*
X141230261Y-131441510D01*
X141199500Y-131596153D01*
X141199500Y-131753846D01*
X141230261Y-131908489D01*
X141230264Y-131908501D01*
X141290602Y-132054172D01*
X141290609Y-132054185D01*
X141378210Y-132185288D01*
X141378213Y-132185292D01*
X141489707Y-132296786D01*
X141489711Y-132296789D01*
X141620814Y-132384390D01*
X141620827Y-132384397D01*
X141766498Y-132444735D01*
X141766503Y-132444737D01*
X141921153Y-132475499D01*
X141921156Y-132475500D01*
X142023941Y-132475500D01*
X142026143Y-132476146D01*
X142028367Y-132475579D01*
X142059505Y-132485942D01*
X142090980Y-132495185D01*
X142092482Y-132496918D01*
X142094661Y-132497644D01*
X142115259Y-132523204D01*
X142136735Y-132547989D01*
X142137510Y-132550817D01*
X142138502Y-132552047D01*
X142147231Y-132586245D01*
X142152408Y-132634399D01*
X142152408Y-132660906D01*
X142149415Y-132688752D01*
X142122679Y-132753304D01*
X142065287Y-132793153D01*
X142026125Y-132799500D01*
X139425316Y-132799500D01*
X139377864Y-132790061D01*
X139233501Y-132730264D01*
X139233489Y-132730261D01*
X139078845Y-132699500D01*
X139078842Y-132699500D01*
X138921158Y-132699500D01*
X138921155Y-132699500D01*
X138766510Y-132730261D01*
X138766498Y-132730264D01*
X138620827Y-132790602D01*
X138620814Y-132790609D01*
X138489711Y-132878210D01*
X138489707Y-132878213D01*
X138378213Y-132989707D01*
X138378210Y-132989711D01*
X138290609Y-133120814D01*
X138290602Y-133120827D01*
X138230264Y-133266498D01*
X138230261Y-133266510D01*
X138199500Y-133421153D01*
X138199500Y-133578846D01*
X138230261Y-133733489D01*
X138230264Y-133733501D01*
X138290602Y-133879172D01*
X138290609Y-133879185D01*
X138378210Y-134010288D01*
X138378213Y-134010292D01*
X138489707Y-134121786D01*
X138489711Y-134121789D01*
X138625886Y-134212779D01*
X138624392Y-134215014D01*
X138665957Y-134255770D01*
X138681480Y-134323893D01*
X138657709Y-134389595D01*
X138645396Y-134403946D01*
X131392822Y-141656519D01*
X131331499Y-141690004D01*
X131261807Y-141685020D01*
X131205874Y-141643148D01*
X131187212Y-141607160D01*
X131158883Y-141519974D01*
X131069524Y-141344595D01*
X131069521Y-141344591D01*
X131069521Y-141344590D01*
X131012962Y-141266745D01*
X130953828Y-141185354D01*
X128726633Y-138958159D01*
X128710912Y-138929368D01*
X128694166Y-138901144D01*
X128694247Y-138898850D01*
X128693148Y-138896836D01*
X128695489Y-138864099D01*
X128696660Y-138831318D01*
X128697968Y-138829433D01*
X128698132Y-138827144D01*
X128717793Y-138800879D01*
X128736508Y-138773926D01*
X128739140Y-138772363D01*
X128740004Y-138771211D01*
X128766862Y-138755917D01*
X128877864Y-138709939D01*
X128925316Y-138700500D01*
X133074684Y-138700500D01*
X133122136Y-138709939D01*
X133233138Y-138755917D01*
X133266503Y-138769737D01*
X133421153Y-138800499D01*
X133421156Y-138800500D01*
X133421158Y-138800500D01*
X133578844Y-138800500D01*
X133578845Y-138800499D01*
X133733497Y-138769737D01*
X133879179Y-138709394D01*
X134010289Y-138621789D01*
X134121789Y-138510289D01*
X134209394Y-138379179D01*
X134269737Y-138233497D01*
X134300500Y-138078842D01*
X134300500Y-137921158D01*
X134300500Y-137921155D01*
X134300499Y-137921153D01*
X134290843Y-137872608D01*
X134269737Y-137766503D01*
X134245171Y-137707195D01*
X134209397Y-137620827D01*
X134209390Y-137620814D01*
X134121789Y-137489711D01*
X134121786Y-137489707D01*
X134044260Y-137412181D01*
X134010775Y-137350858D01*
X134015759Y-137281166D01*
X134057631Y-137225233D01*
X134123095Y-137200816D01*
X134131941Y-137200500D01*
X134574684Y-137200500D01*
X134622136Y-137209939D01*
X134766498Y-137269735D01*
X134766503Y-137269737D01*
X134882468Y-137292804D01*
X134921153Y-137300499D01*
X134921156Y-137300500D01*
X134921158Y-137300500D01*
X135078844Y-137300500D01*
X135078845Y-137300499D01*
X135233497Y-137269737D01*
X135379179Y-137209394D01*
X135510289Y-137121789D01*
X135621789Y-137010289D01*
X135709394Y-136879179D01*
X135712142Y-136872546D01*
X135730848Y-136827385D01*
X135769737Y-136733497D01*
X135800500Y-136578842D01*
X135800500Y-136421158D01*
X135800500Y-136421155D01*
X135800499Y-136421153D01*
X135769738Y-136266510D01*
X135769737Y-136266503D01*
X135754726Y-136230263D01*
X135709397Y-136120827D01*
X135709390Y-136120814D01*
X135621789Y-135989711D01*
X135621786Y-135989707D01*
X135510292Y-135878213D01*
X135510288Y-135878210D01*
X135379185Y-135790609D01*
X135379172Y-135790602D01*
X135233501Y-135730264D01*
X135233489Y-135730261D01*
X135078845Y-135699500D01*
X135078842Y-135699500D01*
X134921158Y-135699500D01*
X134921155Y-135699500D01*
X134766510Y-135730261D01*
X134766498Y-135730264D01*
X134622136Y-135790061D01*
X134574684Y-135799500D01*
X129425316Y-135799500D01*
X129377864Y-135790061D01*
X129233501Y-135730264D01*
X129233489Y-135730261D01*
X129078845Y-135699500D01*
X129078842Y-135699500D01*
X128921158Y-135699500D01*
X128921155Y-135699500D01*
X128766510Y-135730261D01*
X128766498Y-135730264D01*
X128620827Y-135790602D01*
X128620814Y-135790609D01*
X128489711Y-135878210D01*
X128489707Y-135878213D01*
X128378213Y-135989707D01*
X128378210Y-135989711D01*
X128290609Y-136120814D01*
X128290602Y-136120827D01*
X128230264Y-136266498D01*
X128230261Y-136266510D01*
X128199500Y-136421153D01*
X128199500Y-136578846D01*
X128230261Y-136733489D01*
X128230264Y-136733501D01*
X128290602Y-136879172D01*
X128290609Y-136879185D01*
X128378210Y-137010288D01*
X128378213Y-137010292D01*
X128379114Y-137011193D01*
X128379435Y-137011780D01*
X128382076Y-137014999D01*
X128381465Y-137015499D01*
X128412599Y-137072516D01*
X128407615Y-137142208D01*
X128365743Y-137198141D01*
X128315626Y-137220491D01*
X128266507Y-137230261D01*
X128266498Y-137230264D01*
X128120827Y-137290602D01*
X128120814Y-137290609D01*
X127989711Y-137378210D01*
X127989707Y-137378213D01*
X127878213Y-137489707D01*
X127878210Y-137489711D01*
X127790609Y-137620814D01*
X127790604Y-137620824D01*
X127744082Y-137733138D01*
X127700241Y-137787541D01*
X127633946Y-137809606D01*
X127566247Y-137792326D01*
X127541840Y-137773366D01*
X122786819Y-133018345D01*
X122753334Y-132957022D01*
X122750500Y-132930664D01*
X122750500Y-128369144D01*
X123915800Y-128369144D01*
X123922201Y-128428672D01*
X123922203Y-128428679D01*
X123972445Y-128563386D01*
X123972449Y-128563393D01*
X124058609Y-128678487D01*
X124058612Y-128678490D01*
X124173706Y-128764650D01*
X124173713Y-128764654D01*
X124308420Y-128814896D01*
X124308427Y-128814898D01*
X124367955Y-128821299D01*
X124367972Y-128821300D01*
X124750000Y-128821300D01*
X125250000Y-128821300D01*
X125632028Y-128821300D01*
X125632044Y-128821299D01*
X125691572Y-128814898D01*
X125691579Y-128814896D01*
X125826286Y-128764654D01*
X125826293Y-128764650D01*
X125941387Y-128678490D01*
X125941390Y-128678487D01*
X126027550Y-128563393D01*
X126027554Y-128563386D01*
X126077796Y-128428679D01*
X126077798Y-128428672D01*
X126084199Y-128369144D01*
X126084200Y-128369127D01*
X126084200Y-127364800D01*
X125250000Y-127364800D01*
X125250000Y-128821300D01*
X124750000Y-128821300D01*
X124750000Y-127364800D01*
X123915800Y-127364800D01*
X123915800Y-128369144D01*
X122750500Y-128369144D01*
X122750500Y-125860455D01*
X123915800Y-125860455D01*
X123915800Y-126864800D01*
X124750000Y-126864800D01*
X124750000Y-125408300D01*
X124367955Y-125408300D01*
X124308427Y-125414701D01*
X124308420Y-125414703D01*
X124173713Y-125464945D01*
X124173706Y-125464949D01*
X124058612Y-125551109D01*
X124058609Y-125551112D01*
X123972449Y-125666206D01*
X123972445Y-125666213D01*
X123922203Y-125800920D01*
X123922201Y-125800927D01*
X123915800Y-125860455D01*
X122750500Y-125860455D01*
X122750500Y-125084500D01*
X122770185Y-125017461D01*
X122822989Y-124971706D01*
X122874500Y-124960500D01*
X125091114Y-124960500D01*
X125091120Y-124960500D01*
X125119658Y-124956742D01*
X125188692Y-124967506D01*
X125223526Y-124992000D01*
X125428145Y-125196619D01*
X125461630Y-125257942D01*
X125456646Y-125327634D01*
X125414774Y-125383567D01*
X125349310Y-125407984D01*
X125340464Y-125408300D01*
X125250000Y-125408300D01*
X125250000Y-126864800D01*
X126084200Y-126864800D01*
X126084200Y-126152036D01*
X126103885Y-126084997D01*
X126156689Y-126039242D01*
X126225847Y-126029298D01*
X126289403Y-126058323D01*
X126295881Y-126064355D01*
X126685354Y-126453828D01*
X126844595Y-126569524D01*
X126927454Y-126611742D01*
X127019969Y-126658882D01*
X127019971Y-126658882D01*
X127019974Y-126658884D01*
X127120318Y-126691487D01*
X127207173Y-126719709D01*
X127401578Y-126750500D01*
X127401583Y-126750500D01*
X135098422Y-126750500D01*
X135292826Y-126719709D01*
X135480025Y-126658884D01*
X135655405Y-126569524D01*
X135814646Y-126453828D01*
X135953828Y-126314646D01*
X136069524Y-126155405D01*
X136158884Y-125980025D01*
X136219709Y-125792826D01*
X136232923Y-125709397D01*
X136250500Y-125598422D01*
X136250500Y-125401577D01*
X136219709Y-125207173D01*
X136185156Y-125100831D01*
X136158884Y-125019975D01*
X136158882Y-125019972D01*
X136158882Y-125019970D01*
X136069523Y-124844594D01*
X135953828Y-124685354D01*
X135814646Y-124546172D01*
X135655405Y-124430476D01*
X135609201Y-124406934D01*
X135480029Y-124341117D01*
X135292826Y-124280290D01*
X135098422Y-124249500D01*
X135098417Y-124249500D01*
X134598417Y-124249500D01*
X128069336Y-124249500D01*
X128002297Y-124229815D01*
X127981655Y-124213181D01*
X126992000Y-123223526D01*
X126958515Y-123162203D01*
X126956742Y-123119660D01*
X126960500Y-123091120D01*
X126960500Y-122828880D01*
X126926270Y-122568884D01*
X126858398Y-122315581D01*
X126767074Y-122095107D01*
X126759606Y-122025640D01*
X126790881Y-121963160D01*
X126850970Y-121927508D01*
X126920795Y-121930001D01*
X126969317Y-121959975D01*
X128328454Y-123319112D01*
X128443190Y-123395776D01*
X128523833Y-123429179D01*
X128570671Y-123448580D01*
X128570672Y-123448580D01*
X128570677Y-123448582D01*
X128597545Y-123453925D01*
X128597551Y-123453926D01*
X128597591Y-123453934D01*
X128687937Y-123471905D01*
X128706006Y-123475500D01*
X128706007Y-123475500D01*
X142508152Y-123475500D01*
X142536664Y-123478822D01*
X142539415Y-123479471D01*
X142539422Y-123479474D01*
X142599032Y-123485883D01*
X144650207Y-123485882D01*
X144709818Y-123479474D01*
X144844666Y-123429179D01*
X144959881Y-123342929D01*
X145046131Y-123227714D01*
X145096426Y-123092866D01*
X145102835Y-123033256D01*
X145102834Y-122516745D01*
X145102834Y-122516744D01*
X145102834Y-122516734D01*
X145102775Y-122515633D01*
X145102834Y-122515383D01*
X145102834Y-122513424D01*
X145103297Y-122513424D01*
X145118845Y-122447637D01*
X145169125Y-122399123D01*
X145226597Y-122385000D01*
X146250000Y-122385000D01*
X146250000Y-118615000D01*
X145226598Y-118615000D01*
X145159559Y-118595315D01*
X145113804Y-118542511D01*
X145103196Y-118486577D01*
X145102835Y-118486577D01*
X145102834Y-118484676D01*
X145102776Y-118484365D01*
X145102834Y-118483264D01*
X145102835Y-118483256D01*
X145102834Y-117966745D01*
X145096426Y-117907134D01*
X145092722Y-117897204D01*
X145046132Y-117772288D01*
X145046128Y-117772281D01*
X144959882Y-117657072D01*
X144959879Y-117657069D01*
X144844670Y-117570823D01*
X144844663Y-117570819D01*
X144709817Y-117520525D01*
X144709818Y-117520525D01*
X144650218Y-117514118D01*
X144650216Y-117514117D01*
X144650208Y-117514117D01*
X144650200Y-117514117D01*
X142596136Y-117514117D01*
X142529097Y-117494432D01*
X142508455Y-117477798D01*
X134952838Y-109922181D01*
X134919353Y-109860858D01*
X134924337Y-109791166D01*
X134966209Y-109735233D01*
X135031673Y-109710816D01*
X135040519Y-109710500D01*
X142577816Y-109710500D01*
X142644855Y-109730185D01*
X142665497Y-109746819D01*
X142921497Y-110002819D01*
X142954982Y-110064142D01*
X142949998Y-110133834D01*
X142908126Y-110189767D01*
X142842662Y-110214184D01*
X142833816Y-110214500D01*
X142421155Y-110214500D01*
X142266510Y-110245261D01*
X142266498Y-110245264D01*
X142120827Y-110305602D01*
X142120814Y-110305609D01*
X141989711Y-110393210D01*
X141989707Y-110393213D01*
X141878213Y-110504707D01*
X141878210Y-110504711D01*
X141790609Y-110635814D01*
X141790602Y-110635827D01*
X141730264Y-110781498D01*
X141730261Y-110781510D01*
X141699500Y-110936153D01*
X141699500Y-111093846D01*
X141730261Y-111248489D01*
X141730264Y-111248501D01*
X141790602Y-111394172D01*
X141790609Y-111394185D01*
X141878210Y-111525288D01*
X141878213Y-111525292D01*
X141989707Y-111636786D01*
X141989711Y-111636789D01*
X142120814Y-111724390D01*
X142120827Y-111724397D01*
X142255354Y-111780119D01*
X142266503Y-111784737D01*
X142370453Y-111805414D01*
X142421153Y-111815499D01*
X142421156Y-111815500D01*
X142421158Y-111815500D01*
X142578842Y-111815500D01*
X143034685Y-111815500D01*
X143101724Y-111835185D01*
X143147479Y-111887989D01*
X143157800Y-111954286D01*
X143157152Y-111959681D01*
X143157152Y-112035000D01*
X144308152Y-112035000D01*
X144375191Y-112054685D01*
X144420946Y-112107489D01*
X144432152Y-112159000D01*
X144432152Y-112411000D01*
X144412467Y-112478039D01*
X144359663Y-112523794D01*
X144308152Y-112535000D01*
X143157153Y-112535000D01*
X143157153Y-112610311D01*
X143157802Y-112615717D01*
X143146250Y-112684625D01*
X143099277Y-112736349D01*
X143034686Y-112754500D01*
X141921155Y-112754500D01*
X141766510Y-112785261D01*
X141766498Y-112785264D01*
X141620827Y-112845602D01*
X141620814Y-112845609D01*
X141489711Y-112933210D01*
X141489707Y-112933213D01*
X141378213Y-113044707D01*
X141378210Y-113044711D01*
X141290609Y-113175814D01*
X141290602Y-113175827D01*
X141230264Y-113321498D01*
X141230261Y-113321510D01*
X141199500Y-113476153D01*
X141199500Y-113633846D01*
X141230261Y-113788489D01*
X141230264Y-113788501D01*
X141290602Y-113934172D01*
X141290609Y-113934185D01*
X141378210Y-114065288D01*
X141378213Y-114065292D01*
X141489707Y-114176786D01*
X141489711Y-114176789D01*
X141620814Y-114264390D01*
X141620827Y-114264397D01*
X141738966Y-114313331D01*
X141766503Y-114324737D01*
X141918639Y-114354999D01*
X141921153Y-114355499D01*
X141921156Y-114355500D01*
X141921158Y-114355500D01*
X142078842Y-114355500D01*
X143631790Y-114355500D01*
X145161145Y-114355500D01*
X145228184Y-114375185D01*
X145260412Y-114405190D01*
X145299601Y-114457541D01*
X145299604Y-114457544D01*
X145299606Y-114457546D01*
X145299609Y-114457548D01*
X145414816Y-114543793D01*
X145414823Y-114543797D01*
X145549669Y-114594091D01*
X145549668Y-114594091D01*
X145556596Y-114594835D01*
X145609279Y-114600500D01*
X148655024Y-114600499D01*
X148714635Y-114594091D01*
X148849483Y-114543796D01*
X148964698Y-114457546D01*
X149004267Y-114404688D01*
X149060198Y-114362818D01*
X149103533Y-114354999D01*
X149582152Y-114354999D01*
X150082152Y-114354999D01*
X150632464Y-114354999D01*
X150715230Y-114345061D01*
X150846932Y-114293125D01*
X150846934Y-114293124D01*
X150959736Y-114207584D01*
X151045276Y-114094782D01*
X151045277Y-114094780D01*
X151097212Y-113963081D01*
X151097213Y-113963077D01*
X151107152Y-113880319D01*
X151107152Y-113805000D01*
X150082152Y-113805000D01*
X150082152Y-114354999D01*
X149582152Y-114354999D01*
X149582152Y-113679000D01*
X149601837Y-113611961D01*
X149654641Y-113566206D01*
X149706152Y-113555000D01*
X149832152Y-113555000D01*
X149832152Y-113429000D01*
X149851837Y-113361961D01*
X149904641Y-113316206D01*
X149956152Y-113305000D01*
X151107151Y-113305000D01*
X151107151Y-113229688D01*
X151097212Y-113146919D01*
X151095436Y-113139891D01*
X151098090Y-113070072D01*
X151138069Y-113012771D01*
X151202681Y-112986180D01*
X151215654Y-112985500D01*
X155802060Y-112985500D01*
X155869099Y-113005185D01*
X155889736Y-113021814D01*
X155943474Y-113075552D01*
X155989712Y-113121790D01*
X156102569Y-113197199D01*
X156147374Y-113250811D01*
X156156081Y-113320136D01*
X156125926Y-113383164D01*
X156121359Y-113387982D01*
X153246162Y-116263181D01*
X153184839Y-116296666D01*
X153158481Y-116299500D01*
X148425316Y-116299500D01*
X148377864Y-116290061D01*
X148233501Y-116230264D01*
X148233489Y-116230261D01*
X148078845Y-116199500D01*
X148078842Y-116199500D01*
X147921158Y-116199500D01*
X147921155Y-116199500D01*
X147766510Y-116230261D01*
X147766498Y-116230264D01*
X147620827Y-116290602D01*
X147620814Y-116290609D01*
X147489711Y-116378210D01*
X147489707Y-116378213D01*
X147378213Y-116489707D01*
X147378210Y-116489711D01*
X147290609Y-116620814D01*
X147290602Y-116620827D01*
X147230264Y-116766498D01*
X147230261Y-116766510D01*
X147199500Y-116921153D01*
X147199500Y-117078846D01*
X147230261Y-117233489D01*
X147230264Y-117233501D01*
X147290602Y-117379172D01*
X147290609Y-117379185D01*
X147378210Y-117510288D01*
X147378213Y-117510292D01*
X147489707Y-117621786D01*
X147489711Y-117621789D01*
X147620814Y-117709390D01*
X147620827Y-117709397D01*
X147766498Y-117769735D01*
X147766503Y-117769737D01*
X147803947Y-117777185D01*
X147865857Y-117809569D01*
X147900431Y-117870284D01*
X147903044Y-117912054D01*
X147897165Y-117966744D01*
X147897165Y-117966746D01*
X147897165Y-117966750D01*
X147897165Y-118483265D01*
X147897225Y-118484367D01*
X147897165Y-118484616D01*
X147897166Y-118486576D01*
X147896703Y-118486576D01*
X147881155Y-118552363D01*
X147830875Y-118600877D01*
X147773403Y-118615000D01*
X146750000Y-118615000D01*
X146750000Y-122385000D01*
X147773402Y-122385000D01*
X147840441Y-122404685D01*
X147886196Y-122457489D01*
X147896804Y-122513423D01*
X147897165Y-122513423D01*
X147897165Y-122515323D01*
X147897224Y-122515635D01*
X147897165Y-122516735D01*
X147897165Y-123033253D01*
X147897166Y-123033259D01*
X147903573Y-123092865D01*
X147920082Y-123137129D01*
X147925065Y-123206821D01*
X147891580Y-123268141D01*
X146930649Y-124229072D01*
X146869326Y-124262557D01*
X146799634Y-124257573D01*
X146795539Y-124255961D01*
X146762076Y-124242100D01*
X146733498Y-124230263D01*
X146733488Y-124230260D01*
X146578845Y-124199500D01*
X146578842Y-124199500D01*
X146421158Y-124199500D01*
X146421155Y-124199500D01*
X146266510Y-124230261D01*
X146266498Y-124230264D01*
X146120827Y-124290602D01*
X146120814Y-124290609D01*
X145989711Y-124378210D01*
X145989707Y-124378213D01*
X145878213Y-124489707D01*
X145878210Y-124489711D01*
X145790609Y-124620814D01*
X145790602Y-124620827D01*
X145730264Y-124766498D01*
X145730261Y-124766510D01*
X145699500Y-124921153D01*
X145699500Y-125078846D01*
X145730261Y-125233489D01*
X145730264Y-125233501D01*
X145790602Y-125379172D01*
X145790609Y-125379185D01*
X145878210Y-125510288D01*
X145878213Y-125510292D01*
X145989707Y-125621786D01*
X145989711Y-125621789D01*
X146120814Y-125709390D01*
X146120827Y-125709397D01*
X146259096Y-125766669D01*
X146266503Y-125769737D01*
X146421153Y-125800499D01*
X146421156Y-125800500D01*
X146421158Y-125800500D01*
X146578844Y-125800500D01*
X146578845Y-125800499D01*
X146733497Y-125769737D01*
X146808963Y-125738478D01*
X146877864Y-125709939D01*
X146925316Y-125700500D01*
X147219376Y-125700500D01*
X147310420Y-125682389D01*
X147354708Y-125673580D01*
X147418449Y-125647177D01*
X147482187Y-125620777D01*
X147482188Y-125620776D01*
X147482191Y-125620775D01*
X147596923Y-125544114D01*
X147741051Y-125399986D01*
X152800001Y-125399986D01*
X152810494Y-125502697D01*
X152865641Y-125669119D01*
X152865643Y-125669124D01*
X152957684Y-125818345D01*
X153081654Y-125942315D01*
X153230875Y-126034356D01*
X153230880Y-126034358D01*
X153397302Y-126089505D01*
X153397309Y-126089506D01*
X153500019Y-126099999D01*
X153749999Y-126099999D01*
X154250000Y-126099999D01*
X154499972Y-126099999D01*
X154499986Y-126099998D01*
X154602697Y-126089505D01*
X154769119Y-126034358D01*
X154769124Y-126034356D01*
X154918345Y-125942315D01*
X155042315Y-125818345D01*
X155134356Y-125669124D01*
X155134358Y-125669119D01*
X155189505Y-125502697D01*
X155189506Y-125502690D01*
X155199999Y-125399986D01*
X155200000Y-125399973D01*
X155200000Y-125250000D01*
X154250000Y-125250000D01*
X154250000Y-126099999D01*
X153749999Y-126099999D01*
X153750000Y-126099998D01*
X153750000Y-125250000D01*
X152800001Y-125250000D01*
X152800001Y-125399986D01*
X147741051Y-125399986D01*
X147813403Y-125327634D01*
X148030081Y-125110957D01*
X149618835Y-123522201D01*
X149680158Y-123488716D01*
X149706516Y-123485882D01*
X150400966Y-123485882D01*
X150400967Y-123485882D01*
X150460578Y-123479474D01*
X150595426Y-123429179D01*
X150710641Y-123342929D01*
X150718744Y-123332103D01*
X150774675Y-123290232D01*
X150842204Y-123284795D01*
X150865425Y-123289414D01*
X150921156Y-123300500D01*
X150921158Y-123300500D01*
X151078844Y-123300500D01*
X151078845Y-123300499D01*
X151233497Y-123269737D01*
X151379179Y-123209394D01*
X151412740Y-123186968D01*
X151479413Y-123166090D01*
X151546794Y-123184573D01*
X151569311Y-123202389D01*
X151877211Y-123510289D01*
X151953094Y-123586172D01*
X151988712Y-123621790D01*
X152119817Y-123709392D01*
X152119819Y-123709392D01*
X152119821Y-123709394D01*
X152243203Y-123760500D01*
X152243204Y-123760501D01*
X152265498Y-123769735D01*
X152265503Y-123769737D01*
X152420153Y-123800499D01*
X152420156Y-123800500D01*
X152420158Y-123800500D01*
X152577842Y-123800500D01*
X152887769Y-123800500D01*
X152917205Y-123809143D01*
X152947195Y-123815667D01*
X152952212Y-123819422D01*
X152954808Y-123820185D01*
X152975450Y-123836818D01*
X153051305Y-123912673D01*
X153084789Y-123973994D01*
X153079805Y-124043686D01*
X153051305Y-124088034D01*
X152957682Y-124181657D01*
X152865643Y-124330875D01*
X152865641Y-124330880D01*
X152810494Y-124497302D01*
X152810493Y-124497309D01*
X152800000Y-124600013D01*
X152800000Y-124750000D01*
X155199999Y-124750000D01*
X155199999Y-124600028D01*
X155199998Y-124600013D01*
X155189505Y-124497302D01*
X155134358Y-124330880D01*
X155134356Y-124330875D01*
X155042315Y-124181654D01*
X154948695Y-124088034D01*
X154915210Y-124026711D01*
X154920194Y-123957019D01*
X154948691Y-123912676D01*
X155042712Y-123818656D01*
X155134814Y-123669334D01*
X155189999Y-123502797D01*
X155200500Y-123400009D01*
X155200499Y-122768334D01*
X155220183Y-122701296D01*
X155272987Y-122655541D01*
X155342146Y-122645597D01*
X155405702Y-122674622D01*
X155412180Y-122680654D01*
X158225354Y-125493828D01*
X158384595Y-125609524D01*
X158467454Y-125651742D01*
X158559969Y-125698882D01*
X158559971Y-125698882D01*
X158559974Y-125698884D01*
X158660318Y-125731487D01*
X158747173Y-125759709D01*
X158941578Y-125790500D01*
X158941583Y-125790500D01*
X159138417Y-125790500D01*
X190930664Y-125790500D01*
X190997703Y-125810185D01*
X191018345Y-125826819D01*
X192031979Y-126840453D01*
X192062228Y-126889815D01*
X192132600Y-127106396D01*
X192238039Y-127313331D01*
X192374551Y-127501224D01*
X192538776Y-127665449D01*
X192726669Y-127801961D01*
X192824436Y-127851776D01*
X192933599Y-127907398D01*
X192933601Y-127907398D01*
X192933604Y-127907400D01*
X193154486Y-127979169D01*
X193272668Y-127997886D01*
X193383871Y-128015500D01*
X193383876Y-128015500D01*
X193616129Y-128015500D01*
X193717502Y-127999443D01*
X193845514Y-127979169D01*
X194066396Y-127907400D01*
X194273331Y-127801961D01*
X194461224Y-127665449D01*
X194625449Y-127501224D01*
X194761961Y-127313331D01*
X194867400Y-127106396D01*
X194939169Y-126885514D01*
X194960553Y-126750500D01*
X194975500Y-126656129D01*
X194975500Y-126423870D01*
X194956232Y-126302222D01*
X194939169Y-126194486D01*
X194867400Y-125973604D01*
X194867398Y-125973601D01*
X194867398Y-125973599D01*
X194811776Y-125864436D01*
X194761961Y-125766669D01*
X194625449Y-125578776D01*
X194461224Y-125414551D01*
X194273331Y-125278039D01*
X194066396Y-125172600D01*
X193849815Y-125102228D01*
X193800453Y-125071979D01*
X192314648Y-123586174D01*
X192314646Y-123586172D01*
X192155405Y-123470476D01*
X192123758Y-123454351D01*
X191980030Y-123381117D01*
X191792826Y-123320290D01*
X191598422Y-123289500D01*
X191598417Y-123289500D01*
X159609336Y-123289500D01*
X159542297Y-123269815D01*
X159521655Y-123253181D01*
X157004397Y-120735923D01*
X156999526Y-120727003D01*
X156991501Y-120720769D01*
X156983065Y-120696856D01*
X156970912Y-120674600D01*
X156971636Y-120664462D01*
X156968256Y-120654879D01*
X156974087Y-120630203D01*
X156975896Y-120604908D01*
X156981987Y-120596771D01*
X156984324Y-120586882D01*
X157002571Y-120569274D01*
X157017768Y-120548975D01*
X157028628Y-120544131D01*
X157034603Y-120538367D01*
X157067886Y-120526625D01*
X157165872Y-120507134D01*
X157235978Y-120493189D01*
X157266836Y-120487051D01*
X157320165Y-120464961D01*
X157387344Y-120437135D01*
X192024500Y-120437135D01*
X192024500Y-122482870D01*
X192024501Y-122482876D01*
X192030908Y-122542483D01*
X192081202Y-122677328D01*
X192081206Y-122677335D01*
X192167452Y-122792544D01*
X192167455Y-122792547D01*
X192282664Y-122878793D01*
X192282671Y-122878797D01*
X192417517Y-122929091D01*
X192417516Y-122929091D01*
X192424444Y-122929835D01*
X192477127Y-122935500D01*
X194522872Y-122935499D01*
X194582483Y-122929091D01*
X194717331Y-122878796D01*
X194832546Y-122792546D01*
X194918796Y-122677331D01*
X194969091Y-122542483D01*
X194975500Y-122482873D01*
X194975499Y-120437128D01*
X194969091Y-120377517D01*
X194940977Y-120302140D01*
X194918797Y-120242671D01*
X194918793Y-120242664D01*
X194832547Y-120127455D01*
X194832544Y-120127452D01*
X194717335Y-120041206D01*
X194717328Y-120041202D01*
X194582482Y-119990908D01*
X194582483Y-119990908D01*
X194522883Y-119984501D01*
X194522881Y-119984500D01*
X194522873Y-119984500D01*
X194522864Y-119984500D01*
X192477129Y-119984500D01*
X192477123Y-119984501D01*
X192417516Y-119990908D01*
X192282671Y-120041202D01*
X192282664Y-120041206D01*
X192167455Y-120127452D01*
X192167452Y-120127455D01*
X192081206Y-120242664D01*
X192081202Y-120242671D01*
X192030908Y-120377517D01*
X192027241Y-120411632D01*
X192024501Y-120437123D01*
X192024500Y-120437135D01*
X157387344Y-120437135D01*
X157448914Y-120411632D01*
X157570029Y-120330705D01*
X157570032Y-120330704D01*
X157592944Y-120315393D01*
X157612782Y-120302139D01*
X157752139Y-120162782D01*
X157752140Y-120162780D01*
X157759206Y-120155714D01*
X157759209Y-120155710D01*
X158178101Y-119736818D01*
X158239424Y-119703333D01*
X158265782Y-119700499D01*
X158400002Y-119700499D01*
X158400008Y-119700499D01*
X158502797Y-119689999D01*
X158669334Y-119634814D01*
X158818656Y-119542712D01*
X158912675Y-119448692D01*
X158973994Y-119415210D01*
X159043686Y-119420194D01*
X159088034Y-119448695D01*
X159181654Y-119542315D01*
X159330875Y-119634356D01*
X159330880Y-119634358D01*
X159497302Y-119689505D01*
X159497309Y-119689506D01*
X159600019Y-119699999D01*
X159749999Y-119699999D01*
X160250000Y-119699999D01*
X160399972Y-119699999D01*
X160399986Y-119699998D01*
X160502697Y-119689505D01*
X160669119Y-119634358D01*
X160669124Y-119634356D01*
X160818345Y-119542315D01*
X160942315Y-119418345D01*
X161034356Y-119269124D01*
X161034358Y-119269119D01*
X161089505Y-119102697D01*
X161089506Y-119102690D01*
X161099999Y-118999986D01*
X161100000Y-118999973D01*
X161100000Y-118750000D01*
X160250000Y-118750000D01*
X160250000Y-119699999D01*
X159749999Y-119699999D01*
X159750000Y-119699998D01*
X159750000Y-118250000D01*
X160250000Y-118250000D01*
X161099999Y-118250000D01*
X161099999Y-118000028D01*
X161099998Y-118000013D01*
X161089505Y-117897302D01*
X161034358Y-117730880D01*
X161034356Y-117730875D01*
X160942315Y-117581654D01*
X160818345Y-117457684D01*
X160669124Y-117365643D01*
X160669119Y-117365641D01*
X160502697Y-117310494D01*
X160502690Y-117310493D01*
X160399986Y-117300000D01*
X160250000Y-117300000D01*
X160250000Y-118250000D01*
X159750000Y-118250000D01*
X159750000Y-117300000D01*
X159600027Y-117300000D01*
X159600012Y-117300001D01*
X159497302Y-117310494D01*
X159330880Y-117365641D01*
X159330875Y-117365643D01*
X159181657Y-117457682D01*
X159088034Y-117551305D01*
X159026710Y-117584789D01*
X158957019Y-117579805D01*
X158912672Y-117551304D01*
X158818657Y-117457289D01*
X158818656Y-117457288D01*
X158692030Y-117379185D01*
X158669336Y-117365187D01*
X158669331Y-117365185D01*
X158667862Y-117364698D01*
X158502797Y-117310001D01*
X158502795Y-117310000D01*
X158400010Y-117299500D01*
X157599998Y-117299500D01*
X157599980Y-117299501D01*
X157497203Y-117310000D01*
X157497200Y-117310001D01*
X157330668Y-117365185D01*
X157330663Y-117365187D01*
X157181342Y-117457289D01*
X157057289Y-117581342D01*
X156965187Y-117730663D01*
X156965185Y-117730668D01*
X156965115Y-117730880D01*
X156910001Y-117897203D01*
X156910001Y-117897204D01*
X156910000Y-117897204D01*
X156899500Y-117999983D01*
X156899500Y-118134217D01*
X156879815Y-118201256D01*
X156863181Y-118221898D01*
X156596899Y-118488181D01*
X156535576Y-118521666D01*
X156509218Y-118524500D01*
X155765519Y-118524500D01*
X155698480Y-118504815D01*
X155652725Y-118452011D01*
X155642781Y-118382853D01*
X155671806Y-118319297D01*
X155677838Y-118312819D01*
X156917358Y-117073299D01*
X160694586Y-113296069D01*
X160734810Y-113269192D01*
X160830185Y-113229688D01*
X160879173Y-113209397D01*
X160879176Y-113209395D01*
X160879179Y-113209394D01*
X161010289Y-113121789D01*
X161121789Y-113010289D01*
X161172412Y-112934526D01*
X161226022Y-112889723D01*
X161295347Y-112881015D01*
X161358375Y-112911169D01*
X161395094Y-112970611D01*
X161399352Y-112997094D01*
X161399500Y-113000008D01*
X161410000Y-113102796D01*
X161410001Y-113102799D01*
X161465185Y-113269331D01*
X161465187Y-113269336D01*
X161467360Y-113272859D01*
X161557288Y-113418656D01*
X161681344Y-113542712D01*
X161830666Y-113634814D01*
X161997203Y-113689999D01*
X162099991Y-113700500D01*
X162900008Y-113700499D01*
X162900016Y-113700498D01*
X162900019Y-113700498D01*
X162956302Y-113694748D01*
X163002797Y-113689999D01*
X163169334Y-113634814D01*
X163318656Y-113542712D01*
X163412319Y-113449049D01*
X163473642Y-113415564D01*
X163543334Y-113420548D01*
X163587681Y-113449049D01*
X163681344Y-113542712D01*
X163830666Y-113634814D01*
X163997203Y-113689999D01*
X164099991Y-113700500D01*
X164128412Y-113700499D01*
X164166730Y-113706567D01*
X164207174Y-113719709D01*
X164280077Y-113731255D01*
X164401578Y-113750500D01*
X164401583Y-113750500D01*
X166598422Y-113750500D01*
X166706422Y-113733393D01*
X166792826Y-113719709D01*
X166833269Y-113706568D01*
X166871587Y-113700499D01*
X166900002Y-113700499D01*
X166900008Y-113700499D01*
X167002797Y-113689999D01*
X167169334Y-113634814D01*
X167318656Y-113542712D01*
X167412675Y-113448692D01*
X167473994Y-113415210D01*
X167543686Y-113420194D01*
X167588034Y-113448695D01*
X167681654Y-113542315D01*
X167830875Y-113634356D01*
X167830880Y-113634358D01*
X167997302Y-113689505D01*
X167997309Y-113689506D01*
X168100019Y-113699999D01*
X168249999Y-113699999D01*
X168750000Y-113699999D01*
X168899972Y-113699999D01*
X168899986Y-113699998D01*
X169002697Y-113689505D01*
X169169119Y-113634358D01*
X169169124Y-113634356D01*
X169318345Y-113542315D01*
X169436790Y-113423870D01*
X192024500Y-113423870D01*
X192024500Y-113656129D01*
X192060831Y-113885514D01*
X192132601Y-114106400D01*
X192184158Y-114207584D01*
X192238039Y-114313331D01*
X192374551Y-114501224D01*
X192538776Y-114665449D01*
X192726669Y-114801961D01*
X192824436Y-114851776D01*
X192933599Y-114907398D01*
X192933601Y-114907398D01*
X192933604Y-114907400D01*
X193154486Y-114979169D01*
X193272668Y-114997886D01*
X193383871Y-115015500D01*
X193383876Y-115015500D01*
X193616129Y-115015500D01*
X193717502Y-114999443D01*
X193845514Y-114979169D01*
X194066396Y-114907400D01*
X194273331Y-114801961D01*
X194461224Y-114665449D01*
X194625449Y-114501224D01*
X194761961Y-114313331D01*
X194867400Y-114106396D01*
X194939169Y-113885514D01*
X194960632Y-113750000D01*
X194975500Y-113656129D01*
X194975500Y-113423870D01*
X194950989Y-113269119D01*
X194939169Y-113194486D01*
X194867400Y-112973604D01*
X194867398Y-112973601D01*
X194867398Y-112973599D01*
X194802183Y-112845609D01*
X194761961Y-112766669D01*
X194625449Y-112578776D01*
X194461224Y-112414551D01*
X194273331Y-112278039D01*
X194257534Y-112269990D01*
X194066400Y-112172601D01*
X193845514Y-112100831D01*
X193616129Y-112064500D01*
X193616124Y-112064500D01*
X193383876Y-112064500D01*
X193383871Y-112064500D01*
X193154485Y-112100831D01*
X192933599Y-112172601D01*
X192726668Y-112278039D01*
X192538773Y-112414553D01*
X192374553Y-112578773D01*
X192238039Y-112766668D01*
X192132601Y-112973599D01*
X192060831Y-113194485D01*
X192024500Y-113423870D01*
X169436790Y-113423870D01*
X169442316Y-113418344D01*
X169442319Y-113418340D01*
X169482060Y-113353910D01*
X169482062Y-113353907D01*
X169534356Y-113269124D01*
X169534358Y-113269119D01*
X169589505Y-113102697D01*
X169589506Y-113102690D01*
X169599999Y-112999986D01*
X169600000Y-112999973D01*
X169600000Y-112750000D01*
X168750000Y-112750000D01*
X168750000Y-113699999D01*
X168249999Y-113699999D01*
X168250000Y-113699998D01*
X168250000Y-112250000D01*
X168750000Y-112250000D01*
X169599999Y-112250000D01*
X169599999Y-112000028D01*
X169599998Y-112000013D01*
X169589505Y-111897302D01*
X169534358Y-111730880D01*
X169534356Y-111730875D01*
X169442315Y-111581654D01*
X169318345Y-111457684D01*
X169169124Y-111365643D01*
X169169119Y-111365641D01*
X169002697Y-111310494D01*
X169002690Y-111310493D01*
X168899986Y-111300000D01*
X168750000Y-111300000D01*
X168750000Y-112250000D01*
X168250000Y-112250000D01*
X168250000Y-111300000D01*
X168100027Y-111300000D01*
X168100012Y-111300001D01*
X167997302Y-111310494D01*
X167830880Y-111365641D01*
X167830875Y-111365643D01*
X167681657Y-111457682D01*
X167588034Y-111551305D01*
X167526710Y-111584789D01*
X167457019Y-111579805D01*
X167412672Y-111551304D01*
X167318657Y-111457289D01*
X167318656Y-111457288D01*
X167211344Y-111391098D01*
X167169336Y-111365187D01*
X167169331Y-111365185D01*
X167167862Y-111364698D01*
X167002797Y-111310001D01*
X167002795Y-111310000D01*
X166900016Y-111299500D01*
X166900009Y-111299500D01*
X166871585Y-111299500D01*
X166833267Y-111293431D01*
X166826584Y-111291259D01*
X166792826Y-111280290D01*
X166598422Y-111249500D01*
X166598417Y-111249500D01*
X164401583Y-111249500D01*
X164401578Y-111249500D01*
X164207173Y-111280291D01*
X164166726Y-111293432D01*
X164128415Y-111299500D01*
X164099999Y-111299500D01*
X164099981Y-111299501D01*
X163997202Y-111310001D01*
X163997200Y-111310001D01*
X163830668Y-111365185D01*
X163830663Y-111365187D01*
X163681342Y-111457289D01*
X163587681Y-111550951D01*
X163526358Y-111584436D01*
X163456666Y-111579452D01*
X163412319Y-111550951D01*
X163318657Y-111457289D01*
X163318656Y-111457288D01*
X163211344Y-111391098D01*
X163169336Y-111365187D01*
X163169331Y-111365185D01*
X163167862Y-111364698D01*
X163002797Y-111310001D01*
X163002795Y-111310000D01*
X162900016Y-111299500D01*
X162900009Y-111299500D01*
X162765783Y-111299500D01*
X162698744Y-111279815D01*
X162678102Y-111263181D01*
X160529209Y-109114289D01*
X160529206Y-109114285D01*
X160529206Y-109114286D01*
X160522139Y-109107219D01*
X160522139Y-109107218D01*
X160382782Y-108967861D01*
X160382781Y-108967860D01*
X160382780Y-108967859D01*
X160218920Y-108858371D01*
X160218907Y-108858364D01*
X160069866Y-108796630D01*
X160069862Y-108796629D01*
X160060683Y-108792827D01*
X160036836Y-108782949D01*
X159885398Y-108752826D01*
X159863062Y-108748383D01*
X159843542Y-108744500D01*
X159843541Y-108744500D01*
X149733611Y-108744500D01*
X149733609Y-108744500D01*
X149540322Y-108782947D01*
X149540312Y-108782950D01*
X149358240Y-108858366D01*
X149260608Y-108923602D01*
X149242561Y-108929252D01*
X149226652Y-108939477D01*
X149195690Y-108943928D01*
X149193930Y-108944480D01*
X149191717Y-108944500D01*
X149103159Y-108944500D01*
X149036120Y-108924815D01*
X149003892Y-108894810D01*
X148964702Y-108842458D01*
X148964699Y-108842455D01*
X148964698Y-108842454D01*
X148964694Y-108842451D01*
X148849487Y-108756206D01*
X148849480Y-108756202D01*
X148714634Y-108705908D01*
X148714635Y-108705908D01*
X148655035Y-108699501D01*
X148655033Y-108699500D01*
X148655025Y-108699500D01*
X148655016Y-108699500D01*
X145609281Y-108699500D01*
X145609275Y-108699501D01*
X145549668Y-108705908D01*
X145414823Y-108756202D01*
X145414821Y-108756203D01*
X145384747Y-108778717D01*
X145319282Y-108803133D01*
X145251009Y-108788281D01*
X145222756Y-108767130D01*
X143961800Y-107506174D01*
X143961798Y-107506172D01*
X143802557Y-107390476D01*
X143757264Y-107367398D01*
X143627182Y-107301117D01*
X143439978Y-107240290D01*
X143245574Y-107209500D01*
X143245569Y-107209500D01*
X115029336Y-107209500D01*
X114962297Y-107189815D01*
X114941655Y-107173181D01*
X111734648Y-103966174D01*
X111734646Y-103966172D01*
X111575405Y-103850476D01*
X111549972Y-103837517D01*
X111400030Y-103761117D01*
X111212826Y-103700290D01*
X111018422Y-103669500D01*
X111018417Y-103669500D01*
X107956035Y-103669500D01*
X107925244Y-103660458D01*
X107894058Y-103652900D01*
X107891365Y-103650510D01*
X107888996Y-103649815D01*
X107866310Y-103631089D01*
X107861205Y-103625737D01*
X107832546Y-103587454D01*
X107717331Y-103501204D01*
X107717330Y-103501203D01*
X107717328Y-103501202D01*
X107652801Y-103477135D01*
X114984500Y-103477135D01*
X114984500Y-105522870D01*
X114984501Y-105522876D01*
X114990908Y-105582483D01*
X115041202Y-105717328D01*
X115041206Y-105717335D01*
X115127452Y-105832544D01*
X115127455Y-105832547D01*
X115242664Y-105918793D01*
X115242671Y-105918797D01*
X115377517Y-105969091D01*
X115377516Y-105969091D01*
X115384444Y-105969835D01*
X115437127Y-105975500D01*
X117482872Y-105975499D01*
X117542483Y-105969091D01*
X117677331Y-105918796D01*
X117792546Y-105832546D01*
X117878796Y-105717331D01*
X117929091Y-105582483D01*
X117935500Y-105522873D01*
X117935499Y-104383870D01*
X120064500Y-104383870D01*
X120064500Y-104616129D01*
X120100831Y-104845514D01*
X120172601Y-105066400D01*
X120254261Y-105226665D01*
X120278039Y-105273331D01*
X120414551Y-105461224D01*
X120578776Y-105625449D01*
X120766669Y-105761961D01*
X120864436Y-105811776D01*
X120973599Y-105867398D01*
X120973601Y-105867398D01*
X120973604Y-105867400D01*
X121194486Y-105939169D01*
X121312668Y-105957886D01*
X121423871Y-105975500D01*
X121423876Y-105975500D01*
X121656129Y-105975500D01*
X121757502Y-105959443D01*
X121885514Y-105939169D01*
X122055707Y-105883870D01*
X152984500Y-105883870D01*
X152984500Y-106116129D01*
X153020831Y-106345514D01*
X153092601Y-106566400D01*
X153192245Y-106761960D01*
X153198039Y-106773331D01*
X153334551Y-106961224D01*
X153498776Y-107125449D01*
X153686669Y-107261961D01*
X153763515Y-107301116D01*
X153893599Y-107367398D01*
X153893601Y-107367398D01*
X153893604Y-107367400D01*
X154114486Y-107439169D01*
X154232668Y-107457886D01*
X154343871Y-107475500D01*
X154343876Y-107475500D01*
X154576129Y-107475500D01*
X154677502Y-107459443D01*
X154805514Y-107439169D01*
X155026396Y-107367400D01*
X155233331Y-107261961D01*
X155421224Y-107125449D01*
X155585449Y-106961224D01*
X155721961Y-106773331D01*
X155827400Y-106566396D01*
X155899169Y-106345514D01*
X155932141Y-106137335D01*
X155935500Y-106116129D01*
X155935500Y-105883870D01*
X155909122Y-105717328D01*
X155899169Y-105654486D01*
X155827400Y-105433604D01*
X155827398Y-105433601D01*
X155827398Y-105433599D01*
X155775907Y-105332544D01*
X155721961Y-105226669D01*
X155585449Y-105038776D01*
X155523808Y-104977135D01*
X158064500Y-104977135D01*
X158064500Y-107022870D01*
X158064501Y-107022876D01*
X158070908Y-107082483D01*
X158121202Y-107217328D01*
X158121206Y-107217335D01*
X158207452Y-107332544D01*
X158207455Y-107332547D01*
X158322664Y-107418793D01*
X158322671Y-107418797D01*
X158457517Y-107469091D01*
X158457516Y-107469091D01*
X158464444Y-107469835D01*
X158517127Y-107475500D01*
X160562872Y-107475499D01*
X160622483Y-107469091D01*
X160708162Y-107437135D01*
X192024500Y-107437135D01*
X192024500Y-109482870D01*
X192024501Y-109482876D01*
X192030908Y-109542483D01*
X192081202Y-109677328D01*
X192081206Y-109677335D01*
X192167452Y-109792544D01*
X192167455Y-109792547D01*
X192282664Y-109878793D01*
X192282671Y-109878797D01*
X192417517Y-109929091D01*
X192417516Y-109929091D01*
X192424444Y-109929835D01*
X192477127Y-109935500D01*
X194522872Y-109935499D01*
X194582483Y-109929091D01*
X194717331Y-109878796D01*
X194832546Y-109792546D01*
X194918796Y-109677331D01*
X194969091Y-109542483D01*
X194975500Y-109482873D01*
X194975499Y-107437128D01*
X194969091Y-107377517D01*
X194952318Y-107332547D01*
X194918797Y-107242671D01*
X194918793Y-107242664D01*
X194832547Y-107127455D01*
X194832544Y-107127452D01*
X194717335Y-107041206D01*
X194717328Y-107041202D01*
X194582482Y-106990908D01*
X194582483Y-106990908D01*
X194522883Y-106984501D01*
X194522881Y-106984500D01*
X194522873Y-106984500D01*
X194522864Y-106984500D01*
X192477129Y-106984500D01*
X192477123Y-106984501D01*
X192417516Y-106990908D01*
X192282671Y-107041202D01*
X192282664Y-107041206D01*
X192167455Y-107127452D01*
X192167452Y-107127455D01*
X192081206Y-107242664D01*
X192081202Y-107242671D01*
X192030908Y-107377517D01*
X192024501Y-107437116D01*
X192024501Y-107437123D01*
X192024500Y-107437135D01*
X160708162Y-107437135D01*
X160757331Y-107418796D01*
X160872546Y-107332546D01*
X160958796Y-107217331D01*
X161009091Y-107082483D01*
X161015500Y-107022873D01*
X161015499Y-104977128D01*
X161009091Y-104917517D01*
X160993066Y-104874553D01*
X160958797Y-104782671D01*
X160958793Y-104782664D01*
X160872547Y-104667455D01*
X160872544Y-104667452D01*
X160757332Y-104581204D01*
X160622482Y-104530908D01*
X160622483Y-104530908D01*
X160562883Y-104524501D01*
X160562881Y-104524500D01*
X160562873Y-104524500D01*
X160562864Y-104524500D01*
X158517129Y-104524500D01*
X158517123Y-104524501D01*
X158457516Y-104530908D01*
X158322671Y-104581202D01*
X158322664Y-104581206D01*
X158207455Y-104667452D01*
X158207452Y-104667455D01*
X158121206Y-104782664D01*
X158121202Y-104782671D01*
X158070908Y-104917517D01*
X158064501Y-104977116D01*
X158064501Y-104977123D01*
X158064500Y-104977135D01*
X155523808Y-104977135D01*
X155421224Y-104874551D01*
X155233331Y-104738039D01*
X155211014Y-104726668D01*
X155026400Y-104632601D01*
X154805514Y-104560831D01*
X154576129Y-104524500D01*
X154576124Y-104524500D01*
X154343876Y-104524500D01*
X154343871Y-104524500D01*
X154114485Y-104560831D01*
X153893599Y-104632601D01*
X153686668Y-104738039D01*
X153498773Y-104874553D01*
X153334553Y-105038773D01*
X153198039Y-105226668D01*
X153092601Y-105433599D01*
X153020831Y-105654485D01*
X152984500Y-105883870D01*
X122055707Y-105883870D01*
X122106396Y-105867400D01*
X122313331Y-105761961D01*
X122501224Y-105625449D01*
X122665449Y-105461224D01*
X122801961Y-105273331D01*
X122907400Y-105066396D01*
X122979169Y-104845514D01*
X122999443Y-104717502D01*
X123015500Y-104616129D01*
X123015500Y-104383870D01*
X122992402Y-104238039D01*
X122979169Y-104154486D01*
X122907400Y-103933604D01*
X122907398Y-103933601D01*
X122907398Y-103933599D01*
X122819513Y-103761117D01*
X122801961Y-103726669D01*
X122665449Y-103538776D01*
X122501224Y-103374551D01*
X122313331Y-103238039D01*
X122106396Y-103132600D01*
X121948216Y-103081204D01*
X121885514Y-103060830D01*
X121656129Y-103024500D01*
X121656124Y-103024500D01*
X121423876Y-103024500D01*
X121423871Y-103024500D01*
X121194485Y-103060831D01*
X120973599Y-103132601D01*
X120766668Y-103238039D01*
X120578773Y-103374553D01*
X120414553Y-103538773D01*
X120278039Y-103726668D01*
X120172601Y-103933599D01*
X120100831Y-104154485D01*
X120064500Y-104383870D01*
X117935499Y-104383870D01*
X117935499Y-103477128D01*
X117929091Y-103417517D01*
X117913066Y-103374553D01*
X117878797Y-103282671D01*
X117878793Y-103282664D01*
X117792547Y-103167455D01*
X117792544Y-103167452D01*
X117677335Y-103081206D01*
X117677328Y-103081202D01*
X117542482Y-103030908D01*
X117542483Y-103030908D01*
X117482883Y-103024501D01*
X117482881Y-103024500D01*
X117482873Y-103024500D01*
X117482864Y-103024500D01*
X115437129Y-103024500D01*
X115437123Y-103024501D01*
X115377516Y-103030908D01*
X115242671Y-103081202D01*
X115242664Y-103081206D01*
X115127455Y-103167452D01*
X115127452Y-103167455D01*
X115041206Y-103282664D01*
X115041202Y-103282671D01*
X114990908Y-103417517D01*
X114984501Y-103477116D01*
X114984501Y-103477123D01*
X114984500Y-103477135D01*
X107652801Y-103477135D01*
X107582482Y-103450908D01*
X107582483Y-103450908D01*
X107522883Y-103444501D01*
X107522881Y-103444500D01*
X107522873Y-103444500D01*
X107522864Y-103444500D01*
X105477129Y-103444500D01*
X105477123Y-103444501D01*
X105417516Y-103450908D01*
X105282671Y-103501202D01*
X105282664Y-103501206D01*
X105167455Y-103587452D01*
X105167452Y-103587455D01*
X105081206Y-103702664D01*
X105081202Y-103702671D01*
X105030908Y-103837517D01*
X105024501Y-103897116D01*
X105024500Y-103897135D01*
X105024500Y-105942870D01*
X105024501Y-105942876D01*
X105030908Y-106002483D01*
X105081202Y-106137328D01*
X105081206Y-106137335D01*
X105167452Y-106252544D01*
X105167455Y-106252547D01*
X105282664Y-106338793D01*
X105282671Y-106338797D01*
X105417517Y-106389091D01*
X105417516Y-106389091D01*
X105424444Y-106389835D01*
X105477127Y-106395500D01*
X107522872Y-106395499D01*
X107582483Y-106389091D01*
X107717331Y-106338796D01*
X107832546Y-106252546D01*
X107856768Y-106220190D01*
X107912701Y-106178318D01*
X107956035Y-106170500D01*
X110350664Y-106170500D01*
X110417703Y-106190185D01*
X110438345Y-106206819D01*
X112643845Y-108412319D01*
X112677330Y-108473642D01*
X112672346Y-108543334D01*
X112643845Y-108587681D01*
X112146174Y-109085351D01*
X112146174Y-109085352D01*
X112146172Y-109085354D01*
X112100082Y-109148791D01*
X112030476Y-109244594D01*
X111941115Y-109419973D01*
X111941114Y-109419976D01*
X111897745Y-109553456D01*
X111880291Y-109607172D01*
X111880290Y-109607177D01*
X111849500Y-109801577D01*
X111849500Y-113568422D01*
X111880291Y-113762827D01*
X111880291Y-113762830D01*
X111941114Y-113950023D01*
X111973912Y-114014394D01*
X112010985Y-114087153D01*
X112024500Y-114143446D01*
X112024500Y-114312869D01*
X112024501Y-114312876D01*
X112030908Y-114372483D01*
X112081202Y-114507328D01*
X112081206Y-114507335D01*
X112167452Y-114622544D01*
X112167455Y-114622547D01*
X112282664Y-114708793D01*
X112282671Y-114708797D01*
X112417517Y-114759091D01*
X112417516Y-114759091D01*
X112424444Y-114759835D01*
X112477127Y-114765500D01*
X113782872Y-114765499D01*
X113842483Y-114759091D01*
X113977331Y-114708796D01*
X113977333Y-114708793D01*
X113978379Y-114708404D01*
X114048070Y-114703419D01*
X114065047Y-114708403D01*
X114199623Y-114758597D01*
X114199627Y-114758598D01*
X114259155Y-114764999D01*
X114259172Y-114765000D01*
X114662000Y-114765000D01*
X115162000Y-114765000D01*
X115564828Y-114765000D01*
X115564844Y-114764999D01*
X115624372Y-114758598D01*
X115624379Y-114758596D01*
X115759086Y-114708354D01*
X115759093Y-114708350D01*
X115874187Y-114622190D01*
X115874190Y-114622187D01*
X115960350Y-114507093D01*
X115960354Y-114507086D01*
X116010596Y-114372379D01*
X116010598Y-114372372D01*
X116016999Y-114312844D01*
X116017000Y-114312827D01*
X116017000Y-113750000D01*
X115162000Y-113750000D01*
X115162000Y-114765000D01*
X114662000Y-114765000D01*
X114662000Y-112280000D01*
X115162000Y-112280000D01*
X115162000Y-113250000D01*
X116017000Y-113250000D01*
X116017000Y-112687172D01*
X116016999Y-112687155D01*
X116010598Y-112627627D01*
X116010596Y-112627620D01*
X115960354Y-112492913D01*
X115960350Y-112492906D01*
X115874190Y-112377812D01*
X115874187Y-112377809D01*
X115759093Y-112291649D01*
X115759083Y-112291643D01*
X115750336Y-112288381D01*
X115694404Y-112246508D01*
X115669990Y-112181043D01*
X115684844Y-112112770D01*
X115719364Y-112072934D01*
X115807189Y-112007188D01*
X115807190Y-112007187D01*
X115893350Y-111892093D01*
X115893354Y-111892086D01*
X115943596Y-111757379D01*
X115943598Y-111757372D01*
X115949999Y-111697844D01*
X115950000Y-111697827D01*
X115950000Y-111250000D01*
X115250000Y-111250000D01*
X115250000Y-112156000D01*
X115230315Y-112223039D01*
X115177511Y-112268794D01*
X115172009Y-112269990D01*
X115162000Y-112280000D01*
X114662000Y-112280000D01*
X114662000Y-112229000D01*
X114664145Y-112221694D01*
X114662888Y-112214183D01*
X114673853Y-112188631D01*
X114681685Y-112161961D01*
X114687439Y-112156974D01*
X114690443Y-112149976D01*
X114713482Y-112134408D01*
X114734489Y-112116206D01*
X114740077Y-112114922D01*
X114750000Y-112105000D01*
X114750000Y-111124000D01*
X114769685Y-111056961D01*
X114822489Y-111011206D01*
X114874000Y-111000000D01*
X115000000Y-111000000D01*
X115000000Y-110874000D01*
X115019685Y-110806961D01*
X115072489Y-110761206D01*
X115124000Y-110750000D01*
X115950000Y-110750000D01*
X115950000Y-110302172D01*
X115949999Y-110302155D01*
X115943598Y-110242627D01*
X115943596Y-110242620D01*
X115893354Y-110107913D01*
X115893350Y-110107906D01*
X115807190Y-109992812D01*
X115807187Y-109992809D01*
X115728316Y-109933766D01*
X115686445Y-109877833D01*
X115681461Y-109808141D01*
X115714947Y-109746818D01*
X115776270Y-109713334D01*
X115802627Y-109710500D01*
X133130308Y-109710500D01*
X133197347Y-109730185D01*
X133243102Y-109782989D01*
X133253046Y-109852147D01*
X133251925Y-109858692D01*
X133239500Y-109921155D01*
X133239500Y-110078846D01*
X133270261Y-110233489D01*
X133270264Y-110233501D01*
X133330602Y-110379172D01*
X133330609Y-110379185D01*
X133418210Y-110510288D01*
X133418213Y-110510292D01*
X133529707Y-110621786D01*
X133529711Y-110621789D01*
X133660814Y-110709390D01*
X133660827Y-110709397D01*
X133805185Y-110769191D01*
X133845414Y-110796071D01*
X141012162Y-117962819D01*
X141045647Y-118024142D01*
X141040663Y-118093834D01*
X140998791Y-118149767D01*
X140933327Y-118174184D01*
X140924481Y-118174500D01*
X139216519Y-118174500D01*
X139149480Y-118154815D01*
X139128838Y-118138181D01*
X132796071Y-111805414D01*
X132769191Y-111765185D01*
X132709397Y-111620827D01*
X132709390Y-111620814D01*
X132621789Y-111489711D01*
X132621786Y-111489707D01*
X132510292Y-111378213D01*
X132510288Y-111378210D01*
X132379185Y-111290609D01*
X132379172Y-111290602D01*
X132233501Y-111230264D01*
X132233489Y-111230261D01*
X132078845Y-111199500D01*
X132078842Y-111199500D01*
X131921158Y-111199500D01*
X131921155Y-111199500D01*
X131766510Y-111230261D01*
X131766498Y-111230264D01*
X131620827Y-111290602D01*
X131620814Y-111290609D01*
X131489711Y-111378210D01*
X131489707Y-111378213D01*
X131378213Y-111489707D01*
X131378210Y-111489711D01*
X131290609Y-111620814D01*
X131290602Y-111620827D01*
X131230264Y-111766498D01*
X131230261Y-111766510D01*
X131199500Y-111921153D01*
X131199500Y-112078846D01*
X131230261Y-112233489D01*
X131230264Y-112233501D01*
X131290602Y-112379172D01*
X131290609Y-112379185D01*
X131378210Y-112510288D01*
X131378213Y-112510292D01*
X131489707Y-112621786D01*
X131489711Y-112621789D01*
X131620814Y-112709390D01*
X131620827Y-112709397D01*
X131765185Y-112769191D01*
X131805414Y-112796071D01*
X138428453Y-119419111D01*
X138428454Y-119419112D01*
X138428457Y-119419114D01*
X138543189Y-119495775D01*
X138670671Y-119548580D01*
X138693953Y-119553211D01*
X138721966Y-119558783D01*
X138806004Y-119575500D01*
X138806007Y-119575500D01*
X141205832Y-119575500D01*
X141272871Y-119595185D01*
X141318626Y-119647989D01*
X141328570Y-119717147D01*
X141308933Y-119768392D01*
X141290610Y-119795812D01*
X141290602Y-119795827D01*
X141230264Y-119941498D01*
X141230261Y-119941510D01*
X141199500Y-120096153D01*
X141199500Y-120253846D01*
X141230261Y-120408489D01*
X141230264Y-120408501D01*
X141290602Y-120554172D01*
X141290609Y-120554185D01*
X141378210Y-120685288D01*
X141378213Y-120685292D01*
X141489707Y-120796786D01*
X141489711Y-120796789D01*
X141620814Y-120884390D01*
X141620827Y-120884397D01*
X141754620Y-120939815D01*
X141766503Y-120944737D01*
X141921153Y-120975499D01*
X141921156Y-120975500D01*
X142023941Y-120975500D01*
X142026143Y-120976146D01*
X142028367Y-120975579D01*
X142059505Y-120985942D01*
X142090980Y-120995185D01*
X142092482Y-120996918D01*
X142094661Y-120997644D01*
X142115259Y-121023204D01*
X142136735Y-121047989D01*
X142137510Y-121050817D01*
X142138502Y-121052047D01*
X142147231Y-121086245D01*
X142152408Y-121134399D01*
X142152408Y-121160907D01*
X142146405Y-121216747D01*
X142146405Y-121300500D01*
X142126720Y-121367539D01*
X142073916Y-121413294D01*
X142022405Y-121424500D01*
X133966519Y-121424500D01*
X133899480Y-121404815D01*
X133878838Y-121388181D01*
X126946546Y-114455888D01*
X126946545Y-114455887D01*
X126831807Y-114379222D01*
X126704332Y-114326421D01*
X126704322Y-114326418D01*
X126568996Y-114299500D01*
X126568994Y-114299500D01*
X126568993Y-114299500D01*
X120341519Y-114299500D01*
X120274480Y-114279815D01*
X120253838Y-114263181D01*
X117796071Y-111805414D01*
X117769191Y-111765185D01*
X117709397Y-111620827D01*
X117709390Y-111620814D01*
X117621789Y-111489711D01*
X117621786Y-111489707D01*
X117510292Y-111378213D01*
X117510288Y-111378210D01*
X117379185Y-111290609D01*
X117379172Y-111290602D01*
X117233501Y-111230264D01*
X117233489Y-111230261D01*
X117078845Y-111199500D01*
X117078842Y-111199500D01*
X116921158Y-111199500D01*
X116921155Y-111199500D01*
X116766510Y-111230261D01*
X116766498Y-111230264D01*
X116620827Y-111290602D01*
X116620814Y-111290609D01*
X116489711Y-111378210D01*
X116489707Y-111378213D01*
X116378213Y-111489707D01*
X116378210Y-111489711D01*
X116290609Y-111620814D01*
X116290602Y-111620827D01*
X116230264Y-111766498D01*
X116230261Y-111766510D01*
X116199500Y-111921153D01*
X116199500Y-112078846D01*
X116230261Y-112233489D01*
X116230264Y-112233501D01*
X116290602Y-112379172D01*
X116290609Y-112379185D01*
X116378210Y-112510288D01*
X116378213Y-112510292D01*
X116489707Y-112621786D01*
X116489711Y-112621789D01*
X116620814Y-112709390D01*
X116620827Y-112709397D01*
X116765185Y-112769191D01*
X116805414Y-112796071D01*
X119553453Y-115544111D01*
X119553454Y-115544112D01*
X119668192Y-115620777D01*
X119795667Y-115673578D01*
X119795672Y-115673580D01*
X119795676Y-115673580D01*
X119795677Y-115673581D01*
X119931003Y-115700500D01*
X119931006Y-115700500D01*
X119931007Y-115700500D01*
X126158481Y-115700500D01*
X126225520Y-115720185D01*
X126246162Y-115736819D01*
X132372162Y-121862819D01*
X132405647Y-121924142D01*
X132400663Y-121993834D01*
X132358791Y-122049767D01*
X132293327Y-122074184D01*
X132284481Y-122074500D01*
X129116519Y-122074500D01*
X129049480Y-122054815D01*
X129028838Y-122038181D01*
X125796071Y-118805414D01*
X125769191Y-118765185D01*
X125709397Y-118620827D01*
X125709390Y-118620814D01*
X125621789Y-118489711D01*
X125621786Y-118489707D01*
X125510292Y-118378213D01*
X125510288Y-118378210D01*
X125379185Y-118290609D01*
X125379172Y-118290602D01*
X125233501Y-118230264D01*
X125233489Y-118230261D01*
X125078845Y-118199500D01*
X125078842Y-118199500D01*
X124921158Y-118199500D01*
X124921155Y-118199500D01*
X124766510Y-118230261D01*
X124766498Y-118230264D01*
X124620827Y-118290602D01*
X124620814Y-118290609D01*
X124489711Y-118378210D01*
X124489707Y-118378213D01*
X124378213Y-118489707D01*
X124378210Y-118489711D01*
X124290609Y-118620814D01*
X124290602Y-118620827D01*
X124230264Y-118766498D01*
X124230261Y-118766510D01*
X124199500Y-118921153D01*
X124199500Y-119078846D01*
X124230261Y-119233489D01*
X124230264Y-119233501D01*
X124290602Y-119379172D01*
X124290609Y-119379185D01*
X124378210Y-119510288D01*
X124378213Y-119510292D01*
X124489707Y-119621786D01*
X124489711Y-119621789D01*
X124620814Y-119709390D01*
X124620827Y-119709397D01*
X124765185Y-119769191D01*
X124805414Y-119796071D01*
X125960025Y-120950682D01*
X125993510Y-121012005D01*
X125988526Y-121081697D01*
X125946654Y-121137630D01*
X125881190Y-121162047D01*
X125824891Y-121152924D01*
X125604428Y-121061605D01*
X125604421Y-121061603D01*
X125604419Y-121061602D01*
X125351116Y-120993730D01*
X125291962Y-120985942D01*
X125091127Y-120959500D01*
X125091120Y-120959500D01*
X122379996Y-120959500D01*
X122312957Y-120939815D01*
X122292315Y-120923181D01*
X117821856Y-116452721D01*
X117821849Y-116452715D01*
X117704131Y-116362388D01*
X117704130Y-116362387D01*
X117613803Y-116293075D01*
X117386700Y-116161958D01*
X117386690Y-116161954D01*
X117144419Y-116061602D01*
X116891116Y-115993729D01*
X116891115Y-115993728D01*
X116891112Y-115993728D01*
X116761118Y-115976615D01*
X116631127Y-115959500D01*
X116631120Y-115959500D01*
X106368880Y-115959500D01*
X106368872Y-115959500D01*
X106137772Y-115989926D01*
X106108884Y-115993730D01*
X105855581Y-116061602D01*
X105855571Y-116061605D01*
X105613309Y-116161953D01*
X105613299Y-116161958D01*
X105386196Y-116293075D01*
X105178148Y-116452718D01*
X104992718Y-116638148D01*
X104833075Y-116846196D01*
X104701958Y-117073299D01*
X104701953Y-117073309D01*
X104601605Y-117315571D01*
X104601602Y-117315581D01*
X104538441Y-117551305D01*
X104533730Y-117568885D01*
X104499500Y-117828872D01*
X100500500Y-117828872D01*
X100500500Y-109883909D01*
X105025000Y-109883909D01*
X105025000Y-110116090D01*
X105061318Y-110345393D01*
X105133065Y-110566205D01*
X105238465Y-110773064D01*
X105295238Y-110851207D01*
X105898958Y-110247487D01*
X105923978Y-110307890D01*
X105995112Y-110414351D01*
X106085649Y-110504888D01*
X106192110Y-110576022D01*
X106252510Y-110601041D01*
X105648791Y-111204759D01*
X105648791Y-111204760D01*
X105726935Y-111261534D01*
X105933794Y-111366934D01*
X106154606Y-111438681D01*
X106383910Y-111475000D01*
X106616090Y-111475000D01*
X106845393Y-111438681D01*
X107066205Y-111366934D01*
X107273071Y-111261530D01*
X107351207Y-111204762D01*
X107351208Y-111204760D01*
X106747488Y-110601041D01*
X106807890Y-110576022D01*
X106914351Y-110504888D01*
X107004888Y-110414351D01*
X107076022Y-110307890D01*
X107101041Y-110247489D01*
X107704760Y-110851208D01*
X107704762Y-110851207D01*
X107761530Y-110773071D01*
X107866934Y-110566205D01*
X107938681Y-110345393D01*
X107975000Y-110116090D01*
X107975000Y-109883909D01*
X107938681Y-109654606D01*
X107866934Y-109433794D01*
X107761534Y-109226935D01*
X107704760Y-109148791D01*
X107704759Y-109148791D01*
X107101041Y-109752510D01*
X107076022Y-109692110D01*
X107004888Y-109585649D01*
X106914351Y-109495112D01*
X106807890Y-109423978D01*
X106747487Y-109398957D01*
X107351207Y-108795238D01*
X107273064Y-108738465D01*
X107066205Y-108633065D01*
X106845393Y-108561318D01*
X106616090Y-108525000D01*
X106383910Y-108525000D01*
X106154606Y-108561318D01*
X105933794Y-108633065D01*
X105726925Y-108738470D01*
X105648791Y-108795237D01*
X105648791Y-108795238D01*
X106252511Y-109398958D01*
X106192110Y-109423978D01*
X106085649Y-109495112D01*
X105995112Y-109585649D01*
X105923978Y-109692110D01*
X105898958Y-109752511D01*
X105295238Y-109148791D01*
X105295237Y-109148791D01*
X105238470Y-109226925D01*
X105133065Y-109433794D01*
X105061318Y-109654606D01*
X105025000Y-109883909D01*
X100500500Y-109883909D01*
X100500500Y-102977135D01*
X127484500Y-102977135D01*
X127484500Y-105022870D01*
X127484501Y-105022876D01*
X127490908Y-105082483D01*
X127541202Y-105217328D01*
X127541206Y-105217335D01*
X127627452Y-105332544D01*
X127627455Y-105332547D01*
X127742664Y-105418793D01*
X127742671Y-105418797D01*
X127877517Y-105469091D01*
X127877516Y-105469091D01*
X127884444Y-105469835D01*
X127937127Y-105475500D01*
X129982872Y-105475499D01*
X130042483Y-105469091D01*
X130177331Y-105418796D01*
X130292546Y-105332546D01*
X130378796Y-105217331D01*
X130429091Y-105082483D01*
X130435500Y-105022873D01*
X130435499Y-103883870D01*
X132564500Y-103883870D01*
X132564500Y-104116129D01*
X132600831Y-104345514D01*
X132672601Y-104566400D01*
X132724092Y-104667455D01*
X132778039Y-104773331D01*
X132914551Y-104961224D01*
X133078776Y-105125449D01*
X133266669Y-105261961D01*
X133364436Y-105311776D01*
X133473599Y-105367398D01*
X133473601Y-105367398D01*
X133473604Y-105367400D01*
X133694486Y-105439169D01*
X133812668Y-105457886D01*
X133923871Y-105475500D01*
X133923876Y-105475500D01*
X134156129Y-105475500D01*
X134257502Y-105459443D01*
X134385514Y-105439169D01*
X134606396Y-105367400D01*
X134813331Y-105261961D01*
X135001224Y-105125449D01*
X135165449Y-104961224D01*
X135301961Y-104773331D01*
X135407400Y-104566396D01*
X135436403Y-104477135D01*
X165484500Y-104477135D01*
X165484500Y-106522870D01*
X165484501Y-106522876D01*
X165490908Y-106582483D01*
X165541202Y-106717328D01*
X165541206Y-106717335D01*
X165627452Y-106832544D01*
X165627455Y-106832547D01*
X165742664Y-106918793D01*
X165742671Y-106918797D01*
X165877517Y-106969091D01*
X165877516Y-106969091D01*
X165884444Y-106969835D01*
X165937127Y-106975500D01*
X167982872Y-106975499D01*
X168042483Y-106969091D01*
X168177331Y-106918796D01*
X168292546Y-106832546D01*
X168378796Y-106717331D01*
X168429091Y-106582483D01*
X168435500Y-106522873D01*
X168435499Y-105383870D01*
X170564500Y-105383870D01*
X170564500Y-105616129D01*
X170600831Y-105845514D01*
X170672601Y-106066400D01*
X170744149Y-106206819D01*
X170778039Y-106273331D01*
X170914551Y-106461224D01*
X171078776Y-106625449D01*
X171266669Y-106761961D01*
X171364436Y-106811776D01*
X171473599Y-106867398D01*
X171473601Y-106867398D01*
X171473604Y-106867400D01*
X171694486Y-106939169D01*
X171812668Y-106957886D01*
X171923871Y-106975500D01*
X171923876Y-106975500D01*
X172156129Y-106975500D01*
X172257502Y-106959443D01*
X172385514Y-106939169D01*
X172606396Y-106867400D01*
X172813331Y-106761961D01*
X173001224Y-106625449D01*
X173165449Y-106461224D01*
X173301961Y-106273331D01*
X173407400Y-106066396D01*
X173479169Y-105845514D01*
X173499471Y-105717328D01*
X173515500Y-105616129D01*
X173515500Y-105383870D01*
X173490601Y-105226668D01*
X173479169Y-105154486D01*
X173407400Y-104933604D01*
X173407398Y-104933601D01*
X173407398Y-104933599D01*
X173362516Y-104845514D01*
X173301961Y-104726669D01*
X173165449Y-104538776D01*
X173103808Y-104477135D01*
X177984500Y-104477135D01*
X177984500Y-106522870D01*
X177984501Y-106522876D01*
X177990908Y-106582483D01*
X178041202Y-106717328D01*
X178041206Y-106717335D01*
X178127452Y-106832544D01*
X178127455Y-106832547D01*
X178242664Y-106918793D01*
X178242671Y-106918797D01*
X178377517Y-106969091D01*
X178377516Y-106969091D01*
X178384444Y-106969835D01*
X178437127Y-106975500D01*
X180482872Y-106975499D01*
X180542483Y-106969091D01*
X180677331Y-106918796D01*
X180792546Y-106832546D01*
X180878796Y-106717331D01*
X180929091Y-106582483D01*
X180935500Y-106522873D01*
X180935499Y-105383870D01*
X183064500Y-105383870D01*
X183064500Y-105616129D01*
X183100831Y-105845514D01*
X183172601Y-106066400D01*
X183244149Y-106206819D01*
X183278039Y-106273331D01*
X183414551Y-106461224D01*
X183578776Y-106625449D01*
X183766669Y-106761961D01*
X183864436Y-106811776D01*
X183973599Y-106867398D01*
X183973601Y-106867398D01*
X183973604Y-106867400D01*
X184194486Y-106939169D01*
X184312668Y-106957886D01*
X184423871Y-106975500D01*
X184423876Y-106975500D01*
X184656129Y-106975500D01*
X184757502Y-106959443D01*
X184885514Y-106939169D01*
X185106396Y-106867400D01*
X185313331Y-106761961D01*
X185501224Y-106625449D01*
X185665449Y-106461224D01*
X185801961Y-106273331D01*
X185907400Y-106066396D01*
X185979169Y-105845514D01*
X185999471Y-105717328D01*
X186015500Y-105616129D01*
X186015500Y-105383870D01*
X185990601Y-105226668D01*
X185979169Y-105154486D01*
X185907400Y-104933604D01*
X185907398Y-104933601D01*
X185907398Y-104933599D01*
X185851776Y-104824436D01*
X185801961Y-104726669D01*
X185665449Y-104538776D01*
X185501224Y-104374551D01*
X185313331Y-104238039D01*
X185106400Y-104132601D01*
X184885514Y-104060831D01*
X184656129Y-104024500D01*
X184656124Y-104024500D01*
X184423876Y-104024500D01*
X184423871Y-104024500D01*
X184194485Y-104060831D01*
X183973599Y-104132601D01*
X183766668Y-104238039D01*
X183578773Y-104374553D01*
X183414553Y-104538773D01*
X183278039Y-104726668D01*
X183172601Y-104933599D01*
X183100831Y-105154485D01*
X183064500Y-105383870D01*
X180935499Y-105383870D01*
X180935499Y-104477128D01*
X180929091Y-104417517D01*
X180916541Y-104383870D01*
X180878797Y-104282671D01*
X180878793Y-104282664D01*
X180792547Y-104167455D01*
X180792544Y-104167452D01*
X180677335Y-104081206D01*
X180677328Y-104081202D01*
X180542482Y-104030908D01*
X180542483Y-104030908D01*
X180482883Y-104024501D01*
X180482881Y-104024500D01*
X180482873Y-104024500D01*
X180482864Y-104024500D01*
X178437129Y-104024500D01*
X178437123Y-104024501D01*
X178377516Y-104030908D01*
X178242671Y-104081202D01*
X178242664Y-104081206D01*
X178127455Y-104167452D01*
X178127452Y-104167455D01*
X178041206Y-104282664D01*
X178041202Y-104282671D01*
X177990908Y-104417517D01*
X177984501Y-104477116D01*
X177984501Y-104477123D01*
X177984500Y-104477135D01*
X173103808Y-104477135D01*
X173001224Y-104374551D01*
X172813331Y-104238039D01*
X172606400Y-104132601D01*
X172385514Y-104060831D01*
X172156129Y-104024500D01*
X172156124Y-104024500D01*
X171923876Y-104024500D01*
X171923871Y-104024500D01*
X171694485Y-104060831D01*
X171473599Y-104132601D01*
X171266668Y-104238039D01*
X171078773Y-104374553D01*
X170914553Y-104538773D01*
X170778039Y-104726668D01*
X170672601Y-104933599D01*
X170600831Y-105154485D01*
X170564500Y-105383870D01*
X168435499Y-105383870D01*
X168435499Y-104477128D01*
X168429091Y-104417517D01*
X168416541Y-104383870D01*
X168378797Y-104282671D01*
X168378793Y-104282664D01*
X168292547Y-104167455D01*
X168292544Y-104167452D01*
X168177335Y-104081206D01*
X168177328Y-104081202D01*
X168042482Y-104030908D01*
X168042483Y-104030908D01*
X167982883Y-104024501D01*
X167982881Y-104024500D01*
X167982873Y-104024500D01*
X167982864Y-104024500D01*
X165937129Y-104024500D01*
X165937123Y-104024501D01*
X165877516Y-104030908D01*
X165742671Y-104081202D01*
X165742664Y-104081206D01*
X165627455Y-104167452D01*
X165627452Y-104167455D01*
X165541206Y-104282664D01*
X165541202Y-104282671D01*
X165490908Y-104417517D01*
X165484501Y-104477116D01*
X165484501Y-104477123D01*
X165484500Y-104477135D01*
X135436403Y-104477135D01*
X135479169Y-104345514D01*
X135499443Y-104217502D01*
X135515500Y-104116129D01*
X135515500Y-103883870D01*
X135490601Y-103726668D01*
X135479169Y-103654486D01*
X135407400Y-103433604D01*
X135407398Y-103433601D01*
X135407398Y-103433599D01*
X135351776Y-103324436D01*
X135301961Y-103226669D01*
X135165449Y-103038776D01*
X135001224Y-102874551D01*
X134813331Y-102738039D01*
X134606400Y-102632601D01*
X134385514Y-102560831D01*
X134156129Y-102524500D01*
X134156124Y-102524500D01*
X133923876Y-102524500D01*
X133923871Y-102524500D01*
X133694485Y-102560831D01*
X133473599Y-102632601D01*
X133266668Y-102738039D01*
X133078773Y-102874553D01*
X132914553Y-103038773D01*
X132778039Y-103226668D01*
X132672601Y-103433599D01*
X132600831Y-103654485D01*
X132564500Y-103883870D01*
X130435499Y-103883870D01*
X130435499Y-102977128D01*
X130429091Y-102917517D01*
X130413066Y-102874553D01*
X130378797Y-102782671D01*
X130378793Y-102782664D01*
X130292547Y-102667455D01*
X130292544Y-102667452D01*
X130177335Y-102581206D01*
X130177328Y-102581202D01*
X130042482Y-102530908D01*
X130042483Y-102530908D01*
X129982883Y-102524501D01*
X129982881Y-102524500D01*
X129982873Y-102524500D01*
X129982864Y-102524500D01*
X127937129Y-102524500D01*
X127937123Y-102524501D01*
X127877516Y-102530908D01*
X127742671Y-102581202D01*
X127742664Y-102581206D01*
X127627455Y-102667452D01*
X127627452Y-102667455D01*
X127541206Y-102782664D01*
X127541202Y-102782671D01*
X127490908Y-102917517D01*
X127484501Y-102977116D01*
X127484501Y-102977123D01*
X127484500Y-102977135D01*
X100500500Y-102977135D01*
X100500500Y-100624500D01*
X100520185Y-100557461D01*
X100572989Y-100511706D01*
X100624500Y-100500500D01*
X199375500Y-100500500D01*
X199442539Y-100520185D01*
G37*
%TD.AperFunction*%
%TD*%
%TA.AperFunction,NonConductor*%
G36*
X159928814Y-111393960D02*
G01*
X159942147Y-111392044D01*
X159962290Y-111401243D01*
X159983927Y-111405950D01*
X160001652Y-111419218D01*
X160005703Y-111421069D01*
X160012181Y-111427101D01*
X160169813Y-111584733D01*
X160203298Y-111646056D01*
X160198314Y-111715748D01*
X160156442Y-111771681D01*
X160129589Y-111786973D01*
X160120828Y-111790601D01*
X160120814Y-111790609D01*
X159989711Y-111878210D01*
X159989706Y-111878214D01*
X159952666Y-111915254D01*
X159891343Y-111948739D01*
X159821651Y-111943753D01*
X159765718Y-111901881D01*
X159741302Y-111836417D01*
X159750424Y-111780121D01*
X159769737Y-111733497D01*
X159800500Y-111578842D01*
X159800500Y-111514782D01*
X159806738Y-111493536D01*
X159808318Y-111471448D01*
X159816390Y-111460664D01*
X159820185Y-111447743D01*
X159836918Y-111433243D01*
X159850190Y-111415515D01*
X159862810Y-111410807D01*
X159872989Y-111401988D01*
X159894906Y-111398836D01*
X159915654Y-111391098D01*
X159928814Y-111393960D01*
G37*
%TD.AperFunction*%
%TA.AperFunction,NonConductor*%
G36*
X158390098Y-110765185D02*
G01*
X158435853Y-110817989D01*
X158445797Y-110887147D01*
X158416772Y-110950703D01*
X158410740Y-110957181D01*
X158378213Y-110989707D01*
X158378210Y-110989711D01*
X158290609Y-111120814D01*
X158290604Y-111120823D01*
X158230809Y-111265184D01*
X158203929Y-111305412D01*
X157387982Y-112121359D01*
X157326659Y-112154844D01*
X157256967Y-112149860D01*
X157201034Y-112107988D01*
X157197199Y-112102569D01*
X157121789Y-111989711D01*
X157121786Y-111989707D01*
X157010292Y-111878213D01*
X157010288Y-111878210D01*
X156879185Y-111790609D01*
X156879172Y-111790602D01*
X156733499Y-111730263D01*
X156733490Y-111730261D01*
X156732259Y-111730016D01*
X156731098Y-111729535D01*
X156727663Y-111728493D01*
X156727765Y-111728154D01*
X156687566Y-111711502D01*
X156667125Y-111697844D01*
X156616811Y-111664225D01*
X156616810Y-111664224D01*
X156616808Y-111664223D01*
X156489332Y-111611421D01*
X156489322Y-111611418D01*
X156353996Y-111584500D01*
X156353994Y-111584500D01*
X156353993Y-111584500D01*
X153804191Y-111584500D01*
X153737152Y-111564815D01*
X153691397Y-111512011D01*
X153681453Y-111442853D01*
X153701089Y-111391608D01*
X153701430Y-111391098D01*
X153709394Y-111379179D01*
X153715191Y-111365185D01*
X153744912Y-111293431D01*
X153769737Y-111233497D01*
X153800500Y-111078842D01*
X153800500Y-110921158D01*
X153800500Y-110921155D01*
X153795037Y-110893692D01*
X153801264Y-110824100D01*
X153844127Y-110768923D01*
X153910016Y-110745678D01*
X153916654Y-110745500D01*
X158323059Y-110745500D01*
X158390098Y-110765185D01*
G37*
%TD.AperFunction*%
%TA.AperFunction,NonConductor*%
G36*
X159678345Y-112056245D02*
G01*
X159734279Y-112098115D01*
X159758697Y-112163579D01*
X159749575Y-112219879D01*
X159730810Y-112265183D01*
X159703929Y-112305412D01*
X154572162Y-117437181D01*
X154545234Y-117451884D01*
X154519416Y-117468477D01*
X154513215Y-117469368D01*
X154510839Y-117470666D01*
X154484481Y-117473500D01*
X154316519Y-117473500D01*
X154249480Y-117453815D01*
X154203725Y-117401011D01*
X154193781Y-117331853D01*
X154222806Y-117268297D01*
X154228838Y-117261819D01*
X155429055Y-116061602D01*
X159194586Y-112296069D01*
X159234810Y-112269192D01*
X159289577Y-112246508D01*
X159379173Y-112209397D01*
X159379176Y-112209395D01*
X159379179Y-112209394D01*
X159510289Y-112121789D01*
X159547331Y-112084747D01*
X159608653Y-112051261D01*
X159678345Y-112056245D01*
G37*
%TD.AperFunction*%
M02*
