%TF.GenerationSoftware,KiCad,Pcbnew,9.0.4*%
%TF.CreationDate,2025-09-17T18:04:12-03:00*%
%TF.ProjectId,DriversDiego,44726976-6572-4734-9469-65676f2e6b69,rev?*%
%TF.SameCoordinates,Original*%
%TF.FileFunction,Legend,Top*%
%TF.FilePolarity,Positive*%
%FSLAX46Y46*%
G04 Gerber Fmt 4.6, Leading zero omitted, Abs format (unit mm)*
G04 Created by KiCad (PCBNEW 9.0.4) date 2025-09-17 18:04:12*
%MOMM*%
%LPD*%
G01*
G04 APERTURE LIST*
%ADD10C,0.150000*%
%ADD11C,0.098425*%
%ADD12C,0.080000*%
%ADD13C,0.200000*%
%ADD14C,0.127000*%
%ADD15C,0.120000*%
%ADD16C,0.152400*%
%ADD17C,0.254000*%
G04 APERTURE END LIST*
D10*
X112365476Y-149319819D02*
X112365476Y-150034104D01*
X112365476Y-150034104D02*
X112317857Y-150176961D01*
X112317857Y-150176961D02*
X112222619Y-150272200D01*
X112222619Y-150272200D02*
X112079762Y-150319819D01*
X112079762Y-150319819D02*
X111984524Y-150319819D01*
X113365476Y-150319819D02*
X112794048Y-150319819D01*
X113079762Y-150319819D02*
X113079762Y-149319819D01*
X113079762Y-149319819D02*
X112984524Y-149462676D01*
X112984524Y-149462676D02*
X112889286Y-149557914D01*
X112889286Y-149557914D02*
X112794048Y-149605533D01*
X114222619Y-149653152D02*
X114222619Y-150319819D01*
X113984524Y-149272200D02*
X113746429Y-149986485D01*
X113746429Y-149986485D02*
X114365476Y-149986485D01*
X155333333Y-139804819D02*
X155000000Y-139328628D01*
X154761905Y-139804819D02*
X154761905Y-138804819D01*
X154761905Y-138804819D02*
X155142857Y-138804819D01*
X155142857Y-138804819D02*
X155238095Y-138852438D01*
X155238095Y-138852438D02*
X155285714Y-138900057D01*
X155285714Y-138900057D02*
X155333333Y-138995295D01*
X155333333Y-138995295D02*
X155333333Y-139138152D01*
X155333333Y-139138152D02*
X155285714Y-139233390D01*
X155285714Y-139233390D02*
X155238095Y-139281009D01*
X155238095Y-139281009D02*
X155142857Y-139328628D01*
X155142857Y-139328628D02*
X154761905Y-139328628D01*
X155666667Y-138804819D02*
X156285714Y-138804819D01*
X156285714Y-138804819D02*
X155952381Y-139185771D01*
X155952381Y-139185771D02*
X156095238Y-139185771D01*
X156095238Y-139185771D02*
X156190476Y-139233390D01*
X156190476Y-139233390D02*
X156238095Y-139281009D01*
X156238095Y-139281009D02*
X156285714Y-139376247D01*
X156285714Y-139376247D02*
X156285714Y-139614342D01*
X156285714Y-139614342D02*
X156238095Y-139709580D01*
X156238095Y-139709580D02*
X156190476Y-139757200D01*
X156190476Y-139757200D02*
X156095238Y-139804819D01*
X156095238Y-139804819D02*
X155809524Y-139804819D01*
X155809524Y-139804819D02*
X155714286Y-139757200D01*
X155714286Y-139757200D02*
X155666667Y-139709580D01*
X137704819Y-73666666D02*
X137228628Y-73999999D01*
X137704819Y-74238094D02*
X136704819Y-74238094D01*
X136704819Y-74238094D02*
X136704819Y-73857142D01*
X136704819Y-73857142D02*
X136752438Y-73761904D01*
X136752438Y-73761904D02*
X136800057Y-73714285D01*
X136800057Y-73714285D02*
X136895295Y-73666666D01*
X136895295Y-73666666D02*
X137038152Y-73666666D01*
X137038152Y-73666666D02*
X137133390Y-73714285D01*
X137133390Y-73714285D02*
X137181009Y-73761904D01*
X137181009Y-73761904D02*
X137228628Y-73857142D01*
X137228628Y-73857142D02*
X137228628Y-74238094D01*
X137038152Y-72809523D02*
X137704819Y-72809523D01*
X136657200Y-73047618D02*
X137371485Y-73285713D01*
X137371485Y-73285713D02*
X137371485Y-72666666D01*
X112589819Y-105968333D02*
X113304104Y-105968333D01*
X113304104Y-105968333D02*
X113446961Y-106015952D01*
X113446961Y-106015952D02*
X113542200Y-106111190D01*
X113542200Y-106111190D02*
X113589819Y-106254047D01*
X113589819Y-106254047D02*
X113589819Y-106349285D01*
X112589819Y-105587380D02*
X112589819Y-104968333D01*
X112589819Y-104968333D02*
X112970771Y-105301666D01*
X112970771Y-105301666D02*
X112970771Y-105158809D01*
X112970771Y-105158809D02*
X113018390Y-105063571D01*
X113018390Y-105063571D02*
X113066009Y-105015952D01*
X113066009Y-105015952D02*
X113161247Y-104968333D01*
X113161247Y-104968333D02*
X113399342Y-104968333D01*
X113399342Y-104968333D02*
X113494580Y-105015952D01*
X113494580Y-105015952D02*
X113542200Y-105063571D01*
X113542200Y-105063571D02*
X113589819Y-105158809D01*
X113589819Y-105158809D02*
X113589819Y-105444523D01*
X113589819Y-105444523D02*
X113542200Y-105539761D01*
X113542200Y-105539761D02*
X113494580Y-105587380D01*
X138365476Y-148319819D02*
X138365476Y-149034104D01*
X138365476Y-149034104D02*
X138317857Y-149176961D01*
X138317857Y-149176961D02*
X138222619Y-149272200D01*
X138222619Y-149272200D02*
X138079762Y-149319819D01*
X138079762Y-149319819D02*
X137984524Y-149319819D01*
X139365476Y-149319819D02*
X138794048Y-149319819D01*
X139079762Y-149319819D02*
X139079762Y-148319819D01*
X139079762Y-148319819D02*
X138984524Y-148462676D01*
X138984524Y-148462676D02*
X138889286Y-148557914D01*
X138889286Y-148557914D02*
X138794048Y-148605533D01*
X139698810Y-148319819D02*
X140365476Y-148319819D01*
X140365476Y-148319819D02*
X139936905Y-149319819D01*
D11*
X116044519Y-121730616D02*
X116063267Y-121749364D01*
X116063267Y-121749364D02*
X116082014Y-121805607D01*
X116082014Y-121805607D02*
X116082014Y-121843102D01*
X116082014Y-121843102D02*
X116063267Y-121899345D01*
X116063267Y-121899345D02*
X116025771Y-121936841D01*
X116025771Y-121936841D02*
X115988276Y-121955588D01*
X115988276Y-121955588D02*
X115913285Y-121974336D01*
X115913285Y-121974336D02*
X115857042Y-121974336D01*
X115857042Y-121974336D02*
X115782052Y-121955588D01*
X115782052Y-121955588D02*
X115744556Y-121936841D01*
X115744556Y-121936841D02*
X115707061Y-121899345D01*
X115707061Y-121899345D02*
X115688313Y-121843102D01*
X115688313Y-121843102D02*
X115688313Y-121805607D01*
X115688313Y-121805607D02*
X115707061Y-121749364D01*
X115707061Y-121749364D02*
X115725809Y-121730616D01*
X115688313Y-121599383D02*
X115688313Y-121355663D01*
X115688313Y-121355663D02*
X115838295Y-121486897D01*
X115838295Y-121486897D02*
X115838295Y-121430654D01*
X115838295Y-121430654D02*
X115857042Y-121393158D01*
X115857042Y-121393158D02*
X115875790Y-121374411D01*
X115875790Y-121374411D02*
X115913285Y-121355663D01*
X115913285Y-121355663D02*
X116007024Y-121355663D01*
X116007024Y-121355663D02*
X116044519Y-121374411D01*
X116044519Y-121374411D02*
X116063267Y-121393158D01*
X116063267Y-121393158D02*
X116082014Y-121430654D01*
X116082014Y-121430654D02*
X116082014Y-121543140D01*
X116082014Y-121543140D02*
X116063267Y-121580635D01*
X116063267Y-121580635D02*
X116044519Y-121599383D01*
D10*
X146445247Y-114739819D02*
X146445247Y-115549342D01*
X146445247Y-115549342D02*
X146492866Y-115644580D01*
X146492866Y-115644580D02*
X146540485Y-115692200D01*
X146540485Y-115692200D02*
X146635723Y-115739819D01*
X146635723Y-115739819D02*
X146826199Y-115739819D01*
X146826199Y-115739819D02*
X146921437Y-115692200D01*
X146921437Y-115692200D02*
X146969056Y-115644580D01*
X146969056Y-115644580D02*
X147016675Y-115549342D01*
X147016675Y-115549342D02*
X147016675Y-114739819D01*
X148016675Y-115739819D02*
X147445247Y-115739819D01*
X147730961Y-115739819D02*
X147730961Y-114739819D01*
X147730961Y-114739819D02*
X147635723Y-114882676D01*
X147635723Y-114882676D02*
X147540485Y-114977914D01*
X147540485Y-114977914D02*
X147445247Y-115025533D01*
X112589819Y-119008333D02*
X113304104Y-119008333D01*
X113304104Y-119008333D02*
X113446961Y-119055952D01*
X113446961Y-119055952D02*
X113542200Y-119151190D01*
X113542200Y-119151190D02*
X113589819Y-119294047D01*
X113589819Y-119294047D02*
X113589819Y-119389285D01*
X112923152Y-118103571D02*
X113589819Y-118103571D01*
X112542200Y-118341666D02*
X113256485Y-118579761D01*
X113256485Y-118579761D02*
X113256485Y-117960714D01*
X199589819Y-109984523D02*
X200304104Y-109984523D01*
X200304104Y-109984523D02*
X200446961Y-110032142D01*
X200446961Y-110032142D02*
X200542200Y-110127380D01*
X200542200Y-110127380D02*
X200589819Y-110270237D01*
X200589819Y-110270237D02*
X200589819Y-110365475D01*
X200589819Y-108984523D02*
X200589819Y-109555951D01*
X200589819Y-109270237D02*
X199589819Y-109270237D01*
X199589819Y-109270237D02*
X199732676Y-109365475D01*
X199732676Y-109365475D02*
X199827914Y-109460713D01*
X199827914Y-109460713D02*
X199875533Y-109555951D01*
X199589819Y-108651189D02*
X199589819Y-108032142D01*
X199589819Y-108032142D02*
X199970771Y-108365475D01*
X199970771Y-108365475D02*
X199970771Y-108222618D01*
X199970771Y-108222618D02*
X200018390Y-108127380D01*
X200018390Y-108127380D02*
X200066009Y-108079761D01*
X200066009Y-108079761D02*
X200161247Y-108032142D01*
X200161247Y-108032142D02*
X200399342Y-108032142D01*
X200399342Y-108032142D02*
X200494580Y-108079761D01*
X200494580Y-108079761D02*
X200542200Y-108127380D01*
X200542200Y-108127380D02*
X200589819Y-108222618D01*
X200589819Y-108222618D02*
X200589819Y-108508332D01*
X200589819Y-108508332D02*
X200542200Y-108603570D01*
X200542200Y-108603570D02*
X200494580Y-108651189D01*
X116841666Y-97319819D02*
X116841666Y-98034104D01*
X116841666Y-98034104D02*
X116794047Y-98176961D01*
X116794047Y-98176961D02*
X116698809Y-98272200D01*
X116698809Y-98272200D02*
X116555952Y-98319819D01*
X116555952Y-98319819D02*
X116460714Y-98319819D01*
X117460714Y-97748390D02*
X117365476Y-97700771D01*
X117365476Y-97700771D02*
X117317857Y-97653152D01*
X117317857Y-97653152D02*
X117270238Y-97557914D01*
X117270238Y-97557914D02*
X117270238Y-97510295D01*
X117270238Y-97510295D02*
X117317857Y-97415057D01*
X117317857Y-97415057D02*
X117365476Y-97367438D01*
X117365476Y-97367438D02*
X117460714Y-97319819D01*
X117460714Y-97319819D02*
X117651190Y-97319819D01*
X117651190Y-97319819D02*
X117746428Y-97367438D01*
X117746428Y-97367438D02*
X117794047Y-97415057D01*
X117794047Y-97415057D02*
X117841666Y-97510295D01*
X117841666Y-97510295D02*
X117841666Y-97557914D01*
X117841666Y-97557914D02*
X117794047Y-97653152D01*
X117794047Y-97653152D02*
X117746428Y-97700771D01*
X117746428Y-97700771D02*
X117651190Y-97748390D01*
X117651190Y-97748390D02*
X117460714Y-97748390D01*
X117460714Y-97748390D02*
X117365476Y-97796009D01*
X117365476Y-97796009D02*
X117317857Y-97843628D01*
X117317857Y-97843628D02*
X117270238Y-97938866D01*
X117270238Y-97938866D02*
X117270238Y-98129342D01*
X117270238Y-98129342D02*
X117317857Y-98224580D01*
X117317857Y-98224580D02*
X117365476Y-98272200D01*
X117365476Y-98272200D02*
X117460714Y-98319819D01*
X117460714Y-98319819D02*
X117651190Y-98319819D01*
X117651190Y-98319819D02*
X117746428Y-98272200D01*
X117746428Y-98272200D02*
X117794047Y-98224580D01*
X117794047Y-98224580D02*
X117841666Y-98129342D01*
X117841666Y-98129342D02*
X117841666Y-97938866D01*
X117841666Y-97938866D02*
X117794047Y-97843628D01*
X117794047Y-97843628D02*
X117746428Y-97796009D01*
X117746428Y-97796009D02*
X117651190Y-97748390D01*
X98819819Y-147658333D02*
X99534104Y-147658333D01*
X99534104Y-147658333D02*
X99676961Y-147705952D01*
X99676961Y-147705952D02*
X99772200Y-147801190D01*
X99772200Y-147801190D02*
X99819819Y-147944047D01*
X99819819Y-147944047D02*
X99819819Y-148039285D01*
X98819819Y-147277380D02*
X98819819Y-146610714D01*
X98819819Y-146610714D02*
X99819819Y-147039285D01*
D12*
X113996666Y-109710201D02*
X113981428Y-109725440D01*
X113981428Y-109725440D02*
X113935714Y-109740678D01*
X113935714Y-109740678D02*
X113905238Y-109740678D01*
X113905238Y-109740678D02*
X113859523Y-109725440D01*
X113859523Y-109725440D02*
X113829047Y-109694963D01*
X113829047Y-109694963D02*
X113813809Y-109664487D01*
X113813809Y-109664487D02*
X113798571Y-109603535D01*
X113798571Y-109603535D02*
X113798571Y-109557820D01*
X113798571Y-109557820D02*
X113813809Y-109496868D01*
X113813809Y-109496868D02*
X113829047Y-109466392D01*
X113829047Y-109466392D02*
X113859523Y-109435916D01*
X113859523Y-109435916D02*
X113905238Y-109420678D01*
X113905238Y-109420678D02*
X113935714Y-109420678D01*
X113935714Y-109420678D02*
X113981428Y-109435916D01*
X113981428Y-109435916D02*
X113996666Y-109451154D01*
X114301428Y-109740678D02*
X114118571Y-109740678D01*
X114209999Y-109740678D02*
X114209999Y-109420678D01*
X114209999Y-109420678D02*
X114179523Y-109466392D01*
X114179523Y-109466392D02*
X114149047Y-109496868D01*
X114149047Y-109496868D02*
X114118571Y-109512106D01*
D10*
X158833333Y-117304819D02*
X158500000Y-116828628D01*
X158261905Y-117304819D02*
X158261905Y-116304819D01*
X158261905Y-116304819D02*
X158642857Y-116304819D01*
X158642857Y-116304819D02*
X158738095Y-116352438D01*
X158738095Y-116352438D02*
X158785714Y-116400057D01*
X158785714Y-116400057D02*
X158833333Y-116495295D01*
X158833333Y-116495295D02*
X158833333Y-116638152D01*
X158833333Y-116638152D02*
X158785714Y-116733390D01*
X158785714Y-116733390D02*
X158738095Y-116781009D01*
X158738095Y-116781009D02*
X158642857Y-116828628D01*
X158642857Y-116828628D02*
X158261905Y-116828628D01*
X159166667Y-116304819D02*
X159833333Y-116304819D01*
X159833333Y-116304819D02*
X159404762Y-117304819D01*
X199589819Y-135944523D02*
X200304104Y-135944523D01*
X200304104Y-135944523D02*
X200446961Y-135992142D01*
X200446961Y-135992142D02*
X200542200Y-136087380D01*
X200542200Y-136087380D02*
X200589819Y-136230237D01*
X200589819Y-136230237D02*
X200589819Y-136325475D01*
X200589819Y-134944523D02*
X200589819Y-135515951D01*
X200589819Y-135230237D02*
X199589819Y-135230237D01*
X199589819Y-135230237D02*
X199732676Y-135325475D01*
X199732676Y-135325475D02*
X199827914Y-135420713D01*
X199827914Y-135420713D02*
X199875533Y-135515951D01*
X199589819Y-134087380D02*
X199589819Y-134277856D01*
X199589819Y-134277856D02*
X199637438Y-134373094D01*
X199637438Y-134373094D02*
X199685057Y-134420713D01*
X199685057Y-134420713D02*
X199827914Y-134515951D01*
X199827914Y-134515951D02*
X200018390Y-134563570D01*
X200018390Y-134563570D02*
X200399342Y-134563570D01*
X200399342Y-134563570D02*
X200494580Y-134515951D01*
X200494580Y-134515951D02*
X200542200Y-134468332D01*
X200542200Y-134468332D02*
X200589819Y-134373094D01*
X200589819Y-134373094D02*
X200589819Y-134182618D01*
X200589819Y-134182618D02*
X200542200Y-134087380D01*
X200542200Y-134087380D02*
X200494580Y-134039761D01*
X200494580Y-134039761D02*
X200399342Y-133992142D01*
X200399342Y-133992142D02*
X200161247Y-133992142D01*
X200161247Y-133992142D02*
X200066009Y-134039761D01*
X200066009Y-134039761D02*
X200018390Y-134087380D01*
X200018390Y-134087380D02*
X199970771Y-134182618D01*
X199970771Y-134182618D02*
X199970771Y-134373094D01*
X199970771Y-134373094D02*
X200018390Y-134468332D01*
X200018390Y-134468332D02*
X200066009Y-134515951D01*
X200066009Y-134515951D02*
X200161247Y-134563570D01*
X166333333Y-111304819D02*
X166000000Y-110828628D01*
X165761905Y-111304819D02*
X165761905Y-110304819D01*
X165761905Y-110304819D02*
X166142857Y-110304819D01*
X166142857Y-110304819D02*
X166238095Y-110352438D01*
X166238095Y-110352438D02*
X166285714Y-110400057D01*
X166285714Y-110400057D02*
X166333333Y-110495295D01*
X166333333Y-110495295D02*
X166333333Y-110638152D01*
X166333333Y-110638152D02*
X166285714Y-110733390D01*
X166285714Y-110733390D02*
X166238095Y-110781009D01*
X166238095Y-110781009D02*
X166142857Y-110828628D01*
X166142857Y-110828628D02*
X165761905Y-110828628D01*
X167285714Y-111304819D02*
X166714286Y-111304819D01*
X167000000Y-111304819D02*
X167000000Y-110304819D01*
X167000000Y-110304819D02*
X166904762Y-110447676D01*
X166904762Y-110447676D02*
X166809524Y-110542914D01*
X166809524Y-110542914D02*
X166714286Y-110590533D01*
X179841666Y-98319819D02*
X179841666Y-99034104D01*
X179841666Y-99034104D02*
X179794047Y-99176961D01*
X179794047Y-99176961D02*
X179698809Y-99272200D01*
X179698809Y-99272200D02*
X179555952Y-99319819D01*
X179555952Y-99319819D02*
X179460714Y-99319819D01*
X180841666Y-99319819D02*
X180270238Y-99319819D01*
X180555952Y-99319819D02*
X180555952Y-98319819D01*
X180555952Y-98319819D02*
X180460714Y-98462676D01*
X180460714Y-98462676D02*
X180365476Y-98557914D01*
X180365476Y-98557914D02*
X180270238Y-98605533D01*
X145625410Y-124764819D02*
X145625410Y-123764819D01*
X146673028Y-124669580D02*
X146625409Y-124717200D01*
X146625409Y-124717200D02*
X146482552Y-124764819D01*
X146482552Y-124764819D02*
X146387314Y-124764819D01*
X146387314Y-124764819D02*
X146244457Y-124717200D01*
X146244457Y-124717200D02*
X146149219Y-124621961D01*
X146149219Y-124621961D02*
X146101600Y-124526723D01*
X146101600Y-124526723D02*
X146053981Y-124336247D01*
X146053981Y-124336247D02*
X146053981Y-124193390D01*
X146053981Y-124193390D02*
X146101600Y-124002914D01*
X146101600Y-124002914D02*
X146149219Y-123907676D01*
X146149219Y-123907676D02*
X146244457Y-123812438D01*
X146244457Y-123812438D02*
X146387314Y-123764819D01*
X146387314Y-123764819D02*
X146482552Y-123764819D01*
X146482552Y-123764819D02*
X146625409Y-123812438D01*
X146625409Y-123812438D02*
X146673028Y-123860057D01*
X147006362Y-123764819D02*
X147625409Y-123764819D01*
X147625409Y-123764819D02*
X147292076Y-124145771D01*
X147292076Y-124145771D02*
X147434933Y-124145771D01*
X147434933Y-124145771D02*
X147530171Y-124193390D01*
X147530171Y-124193390D02*
X147577790Y-124241009D01*
X147577790Y-124241009D02*
X147625409Y-124336247D01*
X147625409Y-124336247D02*
X147625409Y-124574342D01*
X147625409Y-124574342D02*
X147577790Y-124669580D01*
X147577790Y-124669580D02*
X147530171Y-124717200D01*
X147530171Y-124717200D02*
X147434933Y-124764819D01*
X147434933Y-124764819D02*
X147149219Y-124764819D01*
X147149219Y-124764819D02*
X147053981Y-124717200D01*
X147053981Y-124717200D02*
X147006362Y-124669580D01*
X128865476Y-96819819D02*
X128865476Y-97534104D01*
X128865476Y-97534104D02*
X128817857Y-97676961D01*
X128817857Y-97676961D02*
X128722619Y-97772200D01*
X128722619Y-97772200D02*
X128579762Y-97819819D01*
X128579762Y-97819819D02*
X128484524Y-97819819D01*
X129865476Y-97819819D02*
X129294048Y-97819819D01*
X129579762Y-97819819D02*
X129579762Y-96819819D01*
X129579762Y-96819819D02*
X129484524Y-96962676D01*
X129484524Y-96962676D02*
X129389286Y-97057914D01*
X129389286Y-97057914D02*
X129294048Y-97105533D01*
X130484524Y-96819819D02*
X130579762Y-96819819D01*
X130579762Y-96819819D02*
X130675000Y-96867438D01*
X130675000Y-96867438D02*
X130722619Y-96915057D01*
X130722619Y-96915057D02*
X130770238Y-97010295D01*
X130770238Y-97010295D02*
X130817857Y-97200771D01*
X130817857Y-97200771D02*
X130817857Y-97438866D01*
X130817857Y-97438866D02*
X130770238Y-97629342D01*
X130770238Y-97629342D02*
X130722619Y-97724580D01*
X130722619Y-97724580D02*
X130675000Y-97772200D01*
X130675000Y-97772200D02*
X130579762Y-97819819D01*
X130579762Y-97819819D02*
X130484524Y-97819819D01*
X130484524Y-97819819D02*
X130389286Y-97772200D01*
X130389286Y-97772200D02*
X130341667Y-97724580D01*
X130341667Y-97724580D02*
X130294048Y-97629342D01*
X130294048Y-97629342D02*
X130246429Y-97438866D01*
X130246429Y-97438866D02*
X130246429Y-97200771D01*
X130246429Y-97200771D02*
X130294048Y-97010295D01*
X130294048Y-97010295D02*
X130341667Y-96915057D01*
X130341667Y-96915057D02*
X130389286Y-96867438D01*
X130389286Y-96867438D02*
X130484524Y-96819819D01*
X158491666Y-112089819D02*
X158491666Y-112804104D01*
X158491666Y-112804104D02*
X158444047Y-112946961D01*
X158444047Y-112946961D02*
X158348809Y-113042200D01*
X158348809Y-113042200D02*
X158205952Y-113089819D01*
X158205952Y-113089819D02*
X158110714Y-113089819D01*
X158920238Y-112185057D02*
X158967857Y-112137438D01*
X158967857Y-112137438D02*
X159063095Y-112089819D01*
X159063095Y-112089819D02*
X159301190Y-112089819D01*
X159301190Y-112089819D02*
X159396428Y-112137438D01*
X159396428Y-112137438D02*
X159444047Y-112185057D01*
X159444047Y-112185057D02*
X159491666Y-112280295D01*
X159491666Y-112280295D02*
X159491666Y-112375533D01*
X159491666Y-112375533D02*
X159444047Y-112518390D01*
X159444047Y-112518390D02*
X158872619Y-113089819D01*
X158872619Y-113089819D02*
X159491666Y-113089819D01*
X199589819Y-148484523D02*
X200304104Y-148484523D01*
X200304104Y-148484523D02*
X200446961Y-148532142D01*
X200446961Y-148532142D02*
X200542200Y-148627380D01*
X200542200Y-148627380D02*
X200589819Y-148770237D01*
X200589819Y-148770237D02*
X200589819Y-148865475D01*
X200589819Y-147484523D02*
X200589819Y-148055951D01*
X200589819Y-147770237D02*
X199589819Y-147770237D01*
X199589819Y-147770237D02*
X199732676Y-147865475D01*
X199732676Y-147865475D02*
X199827914Y-147960713D01*
X199827914Y-147960713D02*
X199875533Y-148055951D01*
X199589819Y-146579761D02*
X199589819Y-147055951D01*
X199589819Y-147055951D02*
X200066009Y-147103570D01*
X200066009Y-147103570D02*
X200018390Y-147055951D01*
X200018390Y-147055951D02*
X199970771Y-146960713D01*
X199970771Y-146960713D02*
X199970771Y-146722618D01*
X199970771Y-146722618D02*
X200018390Y-146627380D01*
X200018390Y-146627380D02*
X200066009Y-146579761D01*
X200066009Y-146579761D02*
X200161247Y-146532142D01*
X200161247Y-146532142D02*
X200399342Y-146532142D01*
X200399342Y-146532142D02*
X200494580Y-146579761D01*
X200494580Y-146579761D02*
X200542200Y-146627380D01*
X200542200Y-146627380D02*
X200589819Y-146722618D01*
X200589819Y-146722618D02*
X200589819Y-146960713D01*
X200589819Y-146960713D02*
X200542200Y-147055951D01*
X200542200Y-147055951D02*
X200494580Y-147103570D01*
X154604819Y-147166666D02*
X154128628Y-147499999D01*
X154604819Y-147738094D02*
X153604819Y-147738094D01*
X153604819Y-147738094D02*
X153604819Y-147357142D01*
X153604819Y-147357142D02*
X153652438Y-147261904D01*
X153652438Y-147261904D02*
X153700057Y-147214285D01*
X153700057Y-147214285D02*
X153795295Y-147166666D01*
X153795295Y-147166666D02*
X153938152Y-147166666D01*
X153938152Y-147166666D02*
X154033390Y-147214285D01*
X154033390Y-147214285D02*
X154081009Y-147261904D01*
X154081009Y-147261904D02*
X154128628Y-147357142D01*
X154128628Y-147357142D02*
X154128628Y-147738094D01*
X153700057Y-146785713D02*
X153652438Y-146738094D01*
X153652438Y-146738094D02*
X153604819Y-146642856D01*
X153604819Y-146642856D02*
X153604819Y-146404761D01*
X153604819Y-146404761D02*
X153652438Y-146309523D01*
X153652438Y-146309523D02*
X153700057Y-146261904D01*
X153700057Y-146261904D02*
X153795295Y-146214285D01*
X153795295Y-146214285D02*
X153890533Y-146214285D01*
X153890533Y-146214285D02*
X154033390Y-146261904D01*
X154033390Y-146261904D02*
X154604819Y-146833332D01*
X154604819Y-146833332D02*
X154604819Y-146214285D01*
X151841666Y-148319819D02*
X151841666Y-149034104D01*
X151841666Y-149034104D02*
X151794047Y-149176961D01*
X151794047Y-149176961D02*
X151698809Y-149272200D01*
X151698809Y-149272200D02*
X151555952Y-149319819D01*
X151555952Y-149319819D02*
X151460714Y-149319819D01*
X152794047Y-148319819D02*
X152317857Y-148319819D01*
X152317857Y-148319819D02*
X152270238Y-148796009D01*
X152270238Y-148796009D02*
X152317857Y-148748390D01*
X152317857Y-148748390D02*
X152413095Y-148700771D01*
X152413095Y-148700771D02*
X152651190Y-148700771D01*
X152651190Y-148700771D02*
X152746428Y-148748390D01*
X152746428Y-148748390D02*
X152794047Y-148796009D01*
X152794047Y-148796009D02*
X152841666Y-148891247D01*
X152841666Y-148891247D02*
X152841666Y-149129342D01*
X152841666Y-149129342D02*
X152794047Y-149224580D01*
X152794047Y-149224580D02*
X152746428Y-149272200D01*
X152746428Y-149272200D02*
X152651190Y-149319819D01*
X152651190Y-149319819D02*
X152413095Y-149319819D01*
X152413095Y-149319819D02*
X152317857Y-149272200D01*
X152317857Y-149272200D02*
X152270238Y-149224580D01*
X145625410Y-136264819D02*
X145625410Y-135264819D01*
X146673028Y-136169580D02*
X146625409Y-136217200D01*
X146625409Y-136217200D02*
X146482552Y-136264819D01*
X146482552Y-136264819D02*
X146387314Y-136264819D01*
X146387314Y-136264819D02*
X146244457Y-136217200D01*
X146244457Y-136217200D02*
X146149219Y-136121961D01*
X146149219Y-136121961D02*
X146101600Y-136026723D01*
X146101600Y-136026723D02*
X146053981Y-135836247D01*
X146053981Y-135836247D02*
X146053981Y-135693390D01*
X146053981Y-135693390D02*
X146101600Y-135502914D01*
X146101600Y-135502914D02*
X146149219Y-135407676D01*
X146149219Y-135407676D02*
X146244457Y-135312438D01*
X146244457Y-135312438D02*
X146387314Y-135264819D01*
X146387314Y-135264819D02*
X146482552Y-135264819D01*
X146482552Y-135264819D02*
X146625409Y-135312438D01*
X146625409Y-135312438D02*
X146673028Y-135360057D01*
X147053981Y-135360057D02*
X147101600Y-135312438D01*
X147101600Y-135312438D02*
X147196838Y-135264819D01*
X147196838Y-135264819D02*
X147434933Y-135264819D01*
X147434933Y-135264819D02*
X147530171Y-135312438D01*
X147530171Y-135312438D02*
X147577790Y-135360057D01*
X147577790Y-135360057D02*
X147625409Y-135455295D01*
X147625409Y-135455295D02*
X147625409Y-135550533D01*
X147625409Y-135550533D02*
X147577790Y-135693390D01*
X147577790Y-135693390D02*
X147006362Y-136264819D01*
X147006362Y-136264819D02*
X147625409Y-136264819D01*
X168015476Y-161589819D02*
X168015476Y-162304104D01*
X168015476Y-162304104D02*
X167967857Y-162446961D01*
X167967857Y-162446961D02*
X167872619Y-162542200D01*
X167872619Y-162542200D02*
X167729762Y-162589819D01*
X167729762Y-162589819D02*
X167634524Y-162589819D01*
X169015476Y-162589819D02*
X168444048Y-162589819D01*
X168729762Y-162589819D02*
X168729762Y-161589819D01*
X168729762Y-161589819D02*
X168634524Y-161732676D01*
X168634524Y-161732676D02*
X168539286Y-161827914D01*
X168539286Y-161827914D02*
X168444048Y-161875533D01*
X169586905Y-162018390D02*
X169491667Y-161970771D01*
X169491667Y-161970771D02*
X169444048Y-161923152D01*
X169444048Y-161923152D02*
X169396429Y-161827914D01*
X169396429Y-161827914D02*
X169396429Y-161780295D01*
X169396429Y-161780295D02*
X169444048Y-161685057D01*
X169444048Y-161685057D02*
X169491667Y-161637438D01*
X169491667Y-161637438D02*
X169586905Y-161589819D01*
X169586905Y-161589819D02*
X169777381Y-161589819D01*
X169777381Y-161589819D02*
X169872619Y-161637438D01*
X169872619Y-161637438D02*
X169920238Y-161685057D01*
X169920238Y-161685057D02*
X169967857Y-161780295D01*
X169967857Y-161780295D02*
X169967857Y-161827914D01*
X169967857Y-161827914D02*
X169920238Y-161923152D01*
X169920238Y-161923152D02*
X169872619Y-161970771D01*
X169872619Y-161970771D02*
X169777381Y-162018390D01*
X169777381Y-162018390D02*
X169586905Y-162018390D01*
X169586905Y-162018390D02*
X169491667Y-162066009D01*
X169491667Y-162066009D02*
X169444048Y-162113628D01*
X169444048Y-162113628D02*
X169396429Y-162208866D01*
X169396429Y-162208866D02*
X169396429Y-162399342D01*
X169396429Y-162399342D02*
X169444048Y-162494580D01*
X169444048Y-162494580D02*
X169491667Y-162542200D01*
X169491667Y-162542200D02*
X169586905Y-162589819D01*
X169586905Y-162589819D02*
X169777381Y-162589819D01*
X169777381Y-162589819D02*
X169872619Y-162542200D01*
X169872619Y-162542200D02*
X169920238Y-162494580D01*
X169920238Y-162494580D02*
X169967857Y-162399342D01*
X169967857Y-162399342D02*
X169967857Y-162208866D01*
X169967857Y-162208866D02*
X169920238Y-162113628D01*
X169920238Y-162113628D02*
X169872619Y-162066009D01*
X169872619Y-162066009D02*
X169777381Y-162018390D01*
X166865476Y-98319819D02*
X166865476Y-99034104D01*
X166865476Y-99034104D02*
X166817857Y-99176961D01*
X166817857Y-99176961D02*
X166722619Y-99272200D01*
X166722619Y-99272200D02*
X166579762Y-99319819D01*
X166579762Y-99319819D02*
X166484524Y-99319819D01*
X167865476Y-99319819D02*
X167294048Y-99319819D01*
X167579762Y-99319819D02*
X167579762Y-98319819D01*
X167579762Y-98319819D02*
X167484524Y-98462676D01*
X167484524Y-98462676D02*
X167389286Y-98557914D01*
X167389286Y-98557914D02*
X167294048Y-98605533D01*
X168817857Y-99319819D02*
X168246429Y-99319819D01*
X168532143Y-99319819D02*
X168532143Y-98319819D01*
X168532143Y-98319819D02*
X168436905Y-98462676D01*
X168436905Y-98462676D02*
X168341667Y-98557914D01*
X168341667Y-98557914D02*
X168246429Y-98605533D01*
X145625410Y-146764819D02*
X145625410Y-145764819D01*
X146673028Y-146669580D02*
X146625409Y-146717200D01*
X146625409Y-146717200D02*
X146482552Y-146764819D01*
X146482552Y-146764819D02*
X146387314Y-146764819D01*
X146387314Y-146764819D02*
X146244457Y-146717200D01*
X146244457Y-146717200D02*
X146149219Y-146621961D01*
X146149219Y-146621961D02*
X146101600Y-146526723D01*
X146101600Y-146526723D02*
X146053981Y-146336247D01*
X146053981Y-146336247D02*
X146053981Y-146193390D01*
X146053981Y-146193390D02*
X146101600Y-146002914D01*
X146101600Y-146002914D02*
X146149219Y-145907676D01*
X146149219Y-145907676D02*
X146244457Y-145812438D01*
X146244457Y-145812438D02*
X146387314Y-145764819D01*
X146387314Y-145764819D02*
X146482552Y-145764819D01*
X146482552Y-145764819D02*
X146625409Y-145812438D01*
X146625409Y-145812438D02*
X146673028Y-145860057D01*
X147625409Y-146764819D02*
X147053981Y-146764819D01*
X147339695Y-146764819D02*
X147339695Y-145764819D01*
X147339695Y-145764819D02*
X147244457Y-145907676D01*
X147244457Y-145907676D02*
X147149219Y-146002914D01*
X147149219Y-146002914D02*
X147053981Y-146050533D01*
X170333333Y-111304819D02*
X170000000Y-110828628D01*
X169761905Y-111304819D02*
X169761905Y-110304819D01*
X169761905Y-110304819D02*
X170142857Y-110304819D01*
X170142857Y-110304819D02*
X170238095Y-110352438D01*
X170238095Y-110352438D02*
X170285714Y-110400057D01*
X170285714Y-110400057D02*
X170333333Y-110495295D01*
X170333333Y-110495295D02*
X170333333Y-110638152D01*
X170333333Y-110638152D02*
X170285714Y-110733390D01*
X170285714Y-110733390D02*
X170238095Y-110781009D01*
X170238095Y-110781009D02*
X170142857Y-110828628D01*
X170142857Y-110828628D02*
X169761905Y-110828628D01*
X170904762Y-110733390D02*
X170809524Y-110685771D01*
X170809524Y-110685771D02*
X170761905Y-110638152D01*
X170761905Y-110638152D02*
X170714286Y-110542914D01*
X170714286Y-110542914D02*
X170714286Y-110495295D01*
X170714286Y-110495295D02*
X170761905Y-110400057D01*
X170761905Y-110400057D02*
X170809524Y-110352438D01*
X170809524Y-110352438D02*
X170904762Y-110304819D01*
X170904762Y-110304819D02*
X171095238Y-110304819D01*
X171095238Y-110304819D02*
X171190476Y-110352438D01*
X171190476Y-110352438D02*
X171238095Y-110400057D01*
X171238095Y-110400057D02*
X171285714Y-110495295D01*
X171285714Y-110495295D02*
X171285714Y-110542914D01*
X171285714Y-110542914D02*
X171238095Y-110638152D01*
X171238095Y-110638152D02*
X171190476Y-110685771D01*
X171190476Y-110685771D02*
X171095238Y-110733390D01*
X171095238Y-110733390D02*
X170904762Y-110733390D01*
X170904762Y-110733390D02*
X170809524Y-110781009D01*
X170809524Y-110781009D02*
X170761905Y-110828628D01*
X170761905Y-110828628D02*
X170714286Y-110923866D01*
X170714286Y-110923866D02*
X170714286Y-111114342D01*
X170714286Y-111114342D02*
X170761905Y-111209580D01*
X170761905Y-111209580D02*
X170809524Y-111257200D01*
X170809524Y-111257200D02*
X170904762Y-111304819D01*
X170904762Y-111304819D02*
X171095238Y-111304819D01*
X171095238Y-111304819D02*
X171190476Y-111257200D01*
X171190476Y-111257200D02*
X171238095Y-111209580D01*
X171238095Y-111209580D02*
X171285714Y-111114342D01*
X171285714Y-111114342D02*
X171285714Y-110923866D01*
X171285714Y-110923866D02*
X171238095Y-110828628D01*
X171238095Y-110828628D02*
X171190476Y-110781009D01*
X171190476Y-110781009D02*
X171095238Y-110733390D01*
X199589819Y-122984523D02*
X200304104Y-122984523D01*
X200304104Y-122984523D02*
X200446961Y-123032142D01*
X200446961Y-123032142D02*
X200542200Y-123127380D01*
X200542200Y-123127380D02*
X200589819Y-123270237D01*
X200589819Y-123270237D02*
X200589819Y-123365475D01*
X200589819Y-121984523D02*
X200589819Y-122555951D01*
X200589819Y-122270237D02*
X199589819Y-122270237D01*
X199589819Y-122270237D02*
X199732676Y-122365475D01*
X199732676Y-122365475D02*
X199827914Y-122460713D01*
X199827914Y-122460713D02*
X199875533Y-122555951D01*
X199685057Y-121603570D02*
X199637438Y-121555951D01*
X199637438Y-121555951D02*
X199589819Y-121460713D01*
X199589819Y-121460713D02*
X199589819Y-121222618D01*
X199589819Y-121222618D02*
X199637438Y-121127380D01*
X199637438Y-121127380D02*
X199685057Y-121079761D01*
X199685057Y-121079761D02*
X199780295Y-121032142D01*
X199780295Y-121032142D02*
X199875533Y-121032142D01*
X199875533Y-121032142D02*
X200018390Y-121079761D01*
X200018390Y-121079761D02*
X200589819Y-121651189D01*
X200589819Y-121651189D02*
X200589819Y-121032142D01*
X125359580Y-125122466D02*
X125407200Y-125170085D01*
X125407200Y-125170085D02*
X125454819Y-125312942D01*
X125454819Y-125312942D02*
X125454819Y-125408180D01*
X125454819Y-125408180D02*
X125407200Y-125551037D01*
X125407200Y-125551037D02*
X125311961Y-125646275D01*
X125311961Y-125646275D02*
X125216723Y-125693894D01*
X125216723Y-125693894D02*
X125026247Y-125741513D01*
X125026247Y-125741513D02*
X124883390Y-125741513D01*
X124883390Y-125741513D02*
X124692914Y-125693894D01*
X124692914Y-125693894D02*
X124597676Y-125646275D01*
X124597676Y-125646275D02*
X124502438Y-125551037D01*
X124502438Y-125551037D02*
X124454819Y-125408180D01*
X124454819Y-125408180D02*
X124454819Y-125312942D01*
X124454819Y-125312942D02*
X124502438Y-125170085D01*
X124502438Y-125170085D02*
X124550057Y-125122466D01*
X124788152Y-124265323D02*
X125454819Y-124265323D01*
X124407200Y-124503418D02*
X125121485Y-124741513D01*
X125121485Y-124741513D02*
X125121485Y-124122466D01*
X124454819Y-135561152D02*
X124454819Y-136037342D01*
X124454819Y-136037342D02*
X124931009Y-136084961D01*
X124931009Y-136084961D02*
X124883390Y-136037342D01*
X124883390Y-136037342D02*
X124835771Y-135942104D01*
X124835771Y-135942104D02*
X124835771Y-135704009D01*
X124835771Y-135704009D02*
X124883390Y-135608771D01*
X124883390Y-135608771D02*
X124931009Y-135561152D01*
X124931009Y-135561152D02*
X125026247Y-135513533D01*
X125026247Y-135513533D02*
X125264342Y-135513533D01*
X125264342Y-135513533D02*
X125359580Y-135561152D01*
X125359580Y-135561152D02*
X125407200Y-135608771D01*
X125407200Y-135608771D02*
X125454819Y-135704009D01*
X125454819Y-135704009D02*
X125454819Y-135942104D01*
X125454819Y-135942104D02*
X125407200Y-136037342D01*
X125407200Y-136037342D02*
X125359580Y-136084961D01*
X124454819Y-134894485D02*
X124454819Y-134799247D01*
X124454819Y-134799247D02*
X124502438Y-134704009D01*
X124502438Y-134704009D02*
X124550057Y-134656390D01*
X124550057Y-134656390D02*
X124645295Y-134608771D01*
X124645295Y-134608771D02*
X124835771Y-134561152D01*
X124835771Y-134561152D02*
X125073866Y-134561152D01*
X125073866Y-134561152D02*
X125264342Y-134608771D01*
X125264342Y-134608771D02*
X125359580Y-134656390D01*
X125359580Y-134656390D02*
X125407200Y-134704009D01*
X125407200Y-134704009D02*
X125454819Y-134799247D01*
X125454819Y-134799247D02*
X125454819Y-134894485D01*
X125454819Y-134894485D02*
X125407200Y-134989723D01*
X125407200Y-134989723D02*
X125359580Y-135037342D01*
X125359580Y-135037342D02*
X125264342Y-135084961D01*
X125264342Y-135084961D02*
X125073866Y-135132580D01*
X125073866Y-135132580D02*
X124835771Y-135132580D01*
X124835771Y-135132580D02*
X124645295Y-135084961D01*
X124645295Y-135084961D02*
X124550057Y-135037342D01*
X124550057Y-135037342D02*
X124502438Y-134989723D01*
X124502438Y-134989723D02*
X124454819Y-134894485D01*
X124454819Y-133942104D02*
X124454819Y-133846866D01*
X124454819Y-133846866D02*
X124502438Y-133751628D01*
X124502438Y-133751628D02*
X124550057Y-133704009D01*
X124550057Y-133704009D02*
X124645295Y-133656390D01*
X124645295Y-133656390D02*
X124835771Y-133608771D01*
X124835771Y-133608771D02*
X125073866Y-133608771D01*
X125073866Y-133608771D02*
X125264342Y-133656390D01*
X125264342Y-133656390D02*
X125359580Y-133704009D01*
X125359580Y-133704009D02*
X125407200Y-133751628D01*
X125407200Y-133751628D02*
X125454819Y-133846866D01*
X125454819Y-133846866D02*
X125454819Y-133942104D01*
X125454819Y-133942104D02*
X125407200Y-134037342D01*
X125407200Y-134037342D02*
X125359580Y-134084961D01*
X125359580Y-134084961D02*
X125264342Y-134132580D01*
X125264342Y-134132580D02*
X125073866Y-134180199D01*
X125073866Y-134180199D02*
X124835771Y-134180199D01*
X124835771Y-134180199D02*
X124645295Y-134132580D01*
X124645295Y-134132580D02*
X124550057Y-134084961D01*
X124550057Y-134084961D02*
X124502438Y-134037342D01*
X124502438Y-134037342D02*
X124454819Y-133942104D01*
X125454819Y-132608771D02*
X124978628Y-132942104D01*
X125454819Y-133180199D02*
X124454819Y-133180199D01*
X124454819Y-133180199D02*
X124454819Y-132799247D01*
X124454819Y-132799247D02*
X124502438Y-132704009D01*
X124502438Y-132704009D02*
X124550057Y-132656390D01*
X124550057Y-132656390D02*
X124645295Y-132608771D01*
X124645295Y-132608771D02*
X124788152Y-132608771D01*
X124788152Y-132608771D02*
X124883390Y-132656390D01*
X124883390Y-132656390D02*
X124931009Y-132704009D01*
X124931009Y-132704009D02*
X124978628Y-132799247D01*
X124978628Y-132799247D02*
X124978628Y-133180199D01*
X125454819Y-131656390D02*
X125454819Y-132227818D01*
X125454819Y-131942104D02*
X124454819Y-131942104D01*
X124454819Y-131942104D02*
X124597676Y-132037342D01*
X124597676Y-132037342D02*
X124692914Y-132132580D01*
X124692914Y-132132580D02*
X124740533Y-132227818D01*
X124454819Y-130751628D02*
X124454819Y-131227818D01*
X124454819Y-131227818D02*
X124931009Y-131275437D01*
X124931009Y-131275437D02*
X124883390Y-131227818D01*
X124883390Y-131227818D02*
X124835771Y-131132580D01*
X124835771Y-131132580D02*
X124835771Y-130894485D01*
X124835771Y-130894485D02*
X124883390Y-130799247D01*
X124883390Y-130799247D02*
X124931009Y-130751628D01*
X124931009Y-130751628D02*
X125026247Y-130704009D01*
X125026247Y-130704009D02*
X125264342Y-130704009D01*
X125264342Y-130704009D02*
X125359580Y-130751628D01*
X125359580Y-130751628D02*
X125407200Y-130799247D01*
X125407200Y-130799247D02*
X125454819Y-130894485D01*
X125454819Y-130894485D02*
X125454819Y-131132580D01*
X125454819Y-131132580D02*
X125407200Y-131227818D01*
X125407200Y-131227818D02*
X125359580Y-131275437D01*
X124978628Y-130084961D02*
X125454819Y-130084961D01*
X124454819Y-130418294D02*
X124978628Y-130084961D01*
X124978628Y-130084961D02*
X124454819Y-129751628D01*
X125454819Y-128894485D02*
X125454819Y-129465913D01*
X125454819Y-129180199D02*
X124454819Y-129180199D01*
X124454819Y-129180199D02*
X124597676Y-129275437D01*
X124597676Y-129275437D02*
X124692914Y-129370675D01*
X124692914Y-129370675D02*
X124740533Y-129465913D01*
X124454819Y-128275437D02*
X124454819Y-128180199D01*
X124454819Y-128180199D02*
X124502438Y-128084961D01*
X124502438Y-128084961D02*
X124550057Y-128037342D01*
X124550057Y-128037342D02*
X124645295Y-127989723D01*
X124645295Y-127989723D02*
X124835771Y-127942104D01*
X124835771Y-127942104D02*
X125073866Y-127942104D01*
X125073866Y-127942104D02*
X125264342Y-127989723D01*
X125264342Y-127989723D02*
X125359580Y-128037342D01*
X125359580Y-128037342D02*
X125407200Y-128084961D01*
X125407200Y-128084961D02*
X125454819Y-128180199D01*
X125454819Y-128180199D02*
X125454819Y-128275437D01*
X125454819Y-128275437D02*
X125407200Y-128370675D01*
X125407200Y-128370675D02*
X125359580Y-128418294D01*
X125359580Y-128418294D02*
X125264342Y-128465913D01*
X125264342Y-128465913D02*
X125073866Y-128513532D01*
X125073866Y-128513532D02*
X124835771Y-128513532D01*
X124835771Y-128513532D02*
X124645295Y-128465913D01*
X124645295Y-128465913D02*
X124550057Y-128418294D01*
X124550057Y-128418294D02*
X124502438Y-128370675D01*
X124502438Y-128370675D02*
X124454819Y-128275437D01*
X124788152Y-127084961D02*
X125454819Y-127084961D01*
X124407200Y-127323056D02*
X125121485Y-127561151D01*
X125121485Y-127561151D02*
X125121485Y-126942104D01*
X125454819Y-126561151D02*
X124454819Y-126561151D01*
X124454819Y-126561151D02*
X125169104Y-126227818D01*
X125169104Y-126227818D02*
X124454819Y-125894485D01*
X124454819Y-125894485D02*
X125454819Y-125894485D01*
X124454819Y-125561151D02*
X125454819Y-125227818D01*
X125454819Y-125227818D02*
X124454819Y-124894485D01*
X124788152Y-124132580D02*
X125454819Y-124132580D01*
X124407200Y-124370675D02*
X125121485Y-124608770D01*
X125121485Y-124608770D02*
X125121485Y-123989723D01*
X124454819Y-123751627D02*
X124454819Y-123180199D01*
X125454819Y-123465913D02*
X124454819Y-123465913D01*
X155333333Y-129804819D02*
X155000000Y-129328628D01*
X154761905Y-129804819D02*
X154761905Y-128804819D01*
X154761905Y-128804819D02*
X155142857Y-128804819D01*
X155142857Y-128804819D02*
X155238095Y-128852438D01*
X155238095Y-128852438D02*
X155285714Y-128900057D01*
X155285714Y-128900057D02*
X155333333Y-128995295D01*
X155333333Y-128995295D02*
X155333333Y-129138152D01*
X155333333Y-129138152D02*
X155285714Y-129233390D01*
X155285714Y-129233390D02*
X155238095Y-129281009D01*
X155238095Y-129281009D02*
X155142857Y-129328628D01*
X155142857Y-129328628D02*
X154761905Y-129328628D01*
X156238095Y-128804819D02*
X155761905Y-128804819D01*
X155761905Y-128804819D02*
X155714286Y-129281009D01*
X155714286Y-129281009D02*
X155761905Y-129233390D01*
X155761905Y-129233390D02*
X155857143Y-129185771D01*
X155857143Y-129185771D02*
X156095238Y-129185771D01*
X156095238Y-129185771D02*
X156190476Y-129233390D01*
X156190476Y-129233390D02*
X156238095Y-129281009D01*
X156238095Y-129281009D02*
X156285714Y-129376247D01*
X156285714Y-129376247D02*
X156285714Y-129614342D01*
X156285714Y-129614342D02*
X156238095Y-129709580D01*
X156238095Y-129709580D02*
X156190476Y-129757200D01*
X156190476Y-129757200D02*
X156095238Y-129804819D01*
X156095238Y-129804819D02*
X155857143Y-129804819D01*
X155857143Y-129804819D02*
X155761905Y-129757200D01*
X155761905Y-129757200D02*
X155714286Y-129709580D01*
X125841666Y-148319819D02*
X125841666Y-149034104D01*
X125841666Y-149034104D02*
X125794047Y-149176961D01*
X125794047Y-149176961D02*
X125698809Y-149272200D01*
X125698809Y-149272200D02*
X125555952Y-149319819D01*
X125555952Y-149319819D02*
X125460714Y-149319819D01*
X126746428Y-148319819D02*
X126555952Y-148319819D01*
X126555952Y-148319819D02*
X126460714Y-148367438D01*
X126460714Y-148367438D02*
X126413095Y-148415057D01*
X126413095Y-148415057D02*
X126317857Y-148557914D01*
X126317857Y-148557914D02*
X126270238Y-148748390D01*
X126270238Y-148748390D02*
X126270238Y-149129342D01*
X126270238Y-149129342D02*
X126317857Y-149224580D01*
X126317857Y-149224580D02*
X126365476Y-149272200D01*
X126365476Y-149272200D02*
X126460714Y-149319819D01*
X126460714Y-149319819D02*
X126651190Y-149319819D01*
X126651190Y-149319819D02*
X126746428Y-149272200D01*
X126746428Y-149272200D02*
X126794047Y-149224580D01*
X126794047Y-149224580D02*
X126841666Y-149129342D01*
X126841666Y-149129342D02*
X126841666Y-148891247D01*
X126841666Y-148891247D02*
X126794047Y-148796009D01*
X126794047Y-148796009D02*
X126746428Y-148748390D01*
X126746428Y-148748390D02*
X126651190Y-148700771D01*
X126651190Y-148700771D02*
X126460714Y-148700771D01*
X126460714Y-148700771D02*
X126365476Y-148748390D01*
X126365476Y-148748390D02*
X126317857Y-148796009D01*
X126317857Y-148796009D02*
X126270238Y-148891247D01*
X156104819Y-124166666D02*
X155628628Y-124499999D01*
X156104819Y-124738094D02*
X155104819Y-124738094D01*
X155104819Y-124738094D02*
X155104819Y-124357142D01*
X155104819Y-124357142D02*
X155152438Y-124261904D01*
X155152438Y-124261904D02*
X155200057Y-124214285D01*
X155200057Y-124214285D02*
X155295295Y-124166666D01*
X155295295Y-124166666D02*
X155438152Y-124166666D01*
X155438152Y-124166666D02*
X155533390Y-124214285D01*
X155533390Y-124214285D02*
X155581009Y-124261904D01*
X155581009Y-124261904D02*
X155628628Y-124357142D01*
X155628628Y-124357142D02*
X155628628Y-124738094D01*
X155104819Y-123309523D02*
X155104819Y-123499999D01*
X155104819Y-123499999D02*
X155152438Y-123595237D01*
X155152438Y-123595237D02*
X155200057Y-123642856D01*
X155200057Y-123642856D02*
X155342914Y-123738094D01*
X155342914Y-123738094D02*
X155533390Y-123785713D01*
X155533390Y-123785713D02*
X155914342Y-123785713D01*
X155914342Y-123785713D02*
X156009580Y-123738094D01*
X156009580Y-123738094D02*
X156057200Y-123690475D01*
X156057200Y-123690475D02*
X156104819Y-123595237D01*
X156104819Y-123595237D02*
X156104819Y-123404761D01*
X156104819Y-123404761D02*
X156057200Y-123309523D01*
X156057200Y-123309523D02*
X156009580Y-123261904D01*
X156009580Y-123261904D02*
X155914342Y-123214285D01*
X155914342Y-123214285D02*
X155676247Y-123214285D01*
X155676247Y-123214285D02*
X155581009Y-123261904D01*
X155581009Y-123261904D02*
X155533390Y-123309523D01*
X155533390Y-123309523D02*
X155485771Y-123404761D01*
X155485771Y-123404761D02*
X155485771Y-123595237D01*
X155485771Y-123595237D02*
X155533390Y-123690475D01*
X155533390Y-123690475D02*
X155581009Y-123738094D01*
X155581009Y-123738094D02*
X155676247Y-123785713D01*
X98819819Y-135158333D02*
X99534104Y-135158333D01*
X99534104Y-135158333D02*
X99676961Y-135205952D01*
X99676961Y-135205952D02*
X99772200Y-135301190D01*
X99772200Y-135301190D02*
X99819819Y-135444047D01*
X99819819Y-135444047D02*
X99819819Y-135539285D01*
X99819819Y-134634523D02*
X99819819Y-134444047D01*
X99819819Y-134444047D02*
X99772200Y-134348809D01*
X99772200Y-134348809D02*
X99724580Y-134301190D01*
X99724580Y-134301190D02*
X99581723Y-134205952D01*
X99581723Y-134205952D02*
X99391247Y-134158333D01*
X99391247Y-134158333D02*
X99010295Y-134158333D01*
X99010295Y-134158333D02*
X98915057Y-134205952D01*
X98915057Y-134205952D02*
X98867438Y-134253571D01*
X98867438Y-134253571D02*
X98819819Y-134348809D01*
X98819819Y-134348809D02*
X98819819Y-134539285D01*
X98819819Y-134539285D02*
X98867438Y-134634523D01*
X98867438Y-134634523D02*
X98915057Y-134682142D01*
X98915057Y-134682142D02*
X99010295Y-134729761D01*
X99010295Y-134729761D02*
X99248390Y-134729761D01*
X99248390Y-134729761D02*
X99343628Y-134682142D01*
X99343628Y-134682142D02*
X99391247Y-134634523D01*
X99391247Y-134634523D02*
X99438866Y-134539285D01*
X99438866Y-134539285D02*
X99438866Y-134348809D01*
X99438866Y-134348809D02*
X99391247Y-134253571D01*
X99391247Y-134253571D02*
X99343628Y-134205952D01*
X99343628Y-134205952D02*
X99248390Y-134158333D01*
D11*
X113455383Y-112279519D02*
X113436635Y-112298267D01*
X113436635Y-112298267D02*
X113380392Y-112317014D01*
X113380392Y-112317014D02*
X113342897Y-112317014D01*
X113342897Y-112317014D02*
X113286654Y-112298267D01*
X113286654Y-112298267D02*
X113249159Y-112260771D01*
X113249159Y-112260771D02*
X113230411Y-112223276D01*
X113230411Y-112223276D02*
X113211663Y-112148285D01*
X113211663Y-112148285D02*
X113211663Y-112092042D01*
X113211663Y-112092042D02*
X113230411Y-112017052D01*
X113230411Y-112017052D02*
X113249159Y-111979556D01*
X113249159Y-111979556D02*
X113286654Y-111942061D01*
X113286654Y-111942061D02*
X113342897Y-111923313D01*
X113342897Y-111923313D02*
X113380392Y-111923313D01*
X113380392Y-111923313D02*
X113436635Y-111942061D01*
X113436635Y-111942061D02*
X113455383Y-111960809D01*
X113605364Y-111960809D02*
X113624112Y-111942061D01*
X113624112Y-111942061D02*
X113661607Y-111923313D01*
X113661607Y-111923313D02*
X113755346Y-111923313D01*
X113755346Y-111923313D02*
X113792841Y-111942061D01*
X113792841Y-111942061D02*
X113811589Y-111960809D01*
X113811589Y-111960809D02*
X113830336Y-111998304D01*
X113830336Y-111998304D02*
X113830336Y-112035799D01*
X113830336Y-112035799D02*
X113811589Y-112092042D01*
X113811589Y-112092042D02*
X113586617Y-112317014D01*
X113586617Y-112317014D02*
X113830336Y-112317014D01*
D10*
X181015476Y-161589819D02*
X181015476Y-162304104D01*
X181015476Y-162304104D02*
X180967857Y-162446961D01*
X180967857Y-162446961D02*
X180872619Y-162542200D01*
X180872619Y-162542200D02*
X180729762Y-162589819D01*
X180729762Y-162589819D02*
X180634524Y-162589819D01*
X182015476Y-162589819D02*
X181444048Y-162589819D01*
X181729762Y-162589819D02*
X181729762Y-161589819D01*
X181729762Y-161589819D02*
X181634524Y-161732676D01*
X181634524Y-161732676D02*
X181539286Y-161827914D01*
X181539286Y-161827914D02*
X181444048Y-161875533D01*
X182491667Y-162589819D02*
X182682143Y-162589819D01*
X182682143Y-162589819D02*
X182777381Y-162542200D01*
X182777381Y-162542200D02*
X182825000Y-162494580D01*
X182825000Y-162494580D02*
X182920238Y-162351723D01*
X182920238Y-162351723D02*
X182967857Y-162161247D01*
X182967857Y-162161247D02*
X182967857Y-161780295D01*
X182967857Y-161780295D02*
X182920238Y-161685057D01*
X182920238Y-161685057D02*
X182872619Y-161637438D01*
X182872619Y-161637438D02*
X182777381Y-161589819D01*
X182777381Y-161589819D02*
X182586905Y-161589819D01*
X182586905Y-161589819D02*
X182491667Y-161637438D01*
X182491667Y-161637438D02*
X182444048Y-161685057D01*
X182444048Y-161685057D02*
X182396429Y-161780295D01*
X182396429Y-161780295D02*
X182396429Y-162018390D01*
X182396429Y-162018390D02*
X182444048Y-162113628D01*
X182444048Y-162113628D02*
X182491667Y-162161247D01*
X182491667Y-162161247D02*
X182586905Y-162208866D01*
X182586905Y-162208866D02*
X182777381Y-162208866D01*
X182777381Y-162208866D02*
X182872619Y-162161247D01*
X182872619Y-162161247D02*
X182920238Y-162113628D01*
X182920238Y-162113628D02*
X182967857Y-162018390D01*
D13*
%TO.C,J14*%
X109500000Y-156500000D02*
G75*
G02*
X109300000Y-156500000I-100000J0D01*
G01*
X109300000Y-156500000D02*
G75*
G02*
X109500000Y-156500000I100000J0D01*
G01*
D14*
X120080000Y-161100000D02*
X109920000Y-161100000D01*
X120080000Y-152450000D02*
X120080000Y-161100000D01*
X109920000Y-161100000D02*
X109920000Y-152450000D01*
X109920000Y-152450000D02*
X120080000Y-152450000D01*
D15*
%TO.C,R3*%
X155272936Y-140265000D02*
X155727064Y-140265000D01*
X155272936Y-141735000D02*
X155727064Y-141735000D01*
%TO.C,R4*%
X151765000Y-135272936D02*
X151765000Y-135727064D01*
X153235000Y-135272936D02*
X153235000Y-135727064D01*
D14*
%TO.C,J3*%
X101900000Y-102380000D02*
X110550000Y-102380000D01*
X101900000Y-112540000D02*
X101900000Y-102380000D01*
X110550000Y-102380000D02*
X110550000Y-112540000D01*
X110550000Y-112540000D02*
X101900000Y-112540000D01*
D13*
X106600000Y-101860000D02*
G75*
G02*
X106400000Y-101860000I-100000J0D01*
G01*
X106400000Y-101860000D02*
G75*
G02*
X106600000Y-101860000I100000J0D01*
G01*
D14*
%TO.C,J17*%
X135920000Y-151450000D02*
X146080000Y-151450000D01*
X135920000Y-160100000D02*
X135920000Y-151450000D01*
X146080000Y-151450000D02*
X146080000Y-160100000D01*
X146080000Y-160100000D02*
X135920000Y-160100000D01*
D13*
X135500000Y-155500000D02*
G75*
G02*
X135300000Y-155500000I-100000J0D01*
G01*
X135300000Y-155500000D02*
G75*
G02*
X135500000Y-155500000I100000J0D01*
G01*
D14*
%TO.C,U1*%
X149082152Y-109125000D02*
X145182152Y-109125000D01*
X149082152Y-114175000D02*
X145182152Y-114175000D01*
D13*
X151302152Y-113555000D02*
G75*
G02*
X151102152Y-113555000I-100000J0D01*
G01*
X151102152Y-113555000D02*
G75*
G02*
X151302152Y-113555000I100000J0D01*
G01*
D14*
%TO.C,J4*%
X101900000Y-115420000D02*
X110550000Y-115420000D01*
X101900000Y-125580000D02*
X101900000Y-115420000D01*
X110550000Y-115420000D02*
X110550000Y-125580000D01*
X110550000Y-125580000D02*
X101900000Y-125580000D01*
D13*
X106600000Y-114900000D02*
G75*
G02*
X106400000Y-114900000I-100000J0D01*
G01*
X106400000Y-114900000D02*
G75*
G02*
X106600000Y-114900000I100000J0D01*
G01*
D14*
%TO.C,J13*%
X188900000Y-105920000D02*
X197550000Y-105920000D01*
X188900000Y-116080000D02*
X188900000Y-105920000D01*
X197550000Y-105920000D02*
X197550000Y-116080000D01*
X197550000Y-116080000D02*
X188900000Y-116080000D01*
D13*
X193600000Y-105400000D02*
G75*
G02*
X193400000Y-105400000I-100000J0D01*
G01*
X193400000Y-105400000D02*
G75*
G02*
X193600000Y-105400000I100000J0D01*
G01*
D14*
%TO.C,J8*%
X113920000Y-100450000D02*
X124080000Y-100450000D01*
X113920000Y-109100000D02*
X113920000Y-100450000D01*
X124080000Y-100450000D02*
X124080000Y-109100000D01*
X124080000Y-109100000D02*
X113920000Y-109100000D01*
D13*
X113500000Y-104500000D02*
G75*
G02*
X113300000Y-104500000I-100000J0D01*
G01*
X113300000Y-104500000D02*
G75*
G02*
X113500000Y-104500000I100000J0D01*
G01*
D14*
%TO.C,J7*%
X101950000Y-140420000D02*
X110600000Y-140420000D01*
X101950000Y-150580000D02*
X101950000Y-140420000D01*
X110600000Y-140420000D02*
X110600000Y-150580000D01*
X110600000Y-150580000D02*
X101950000Y-150580000D01*
D13*
X106100000Y-151100000D02*
G75*
G02*
X105900000Y-151100000I-100000J0D01*
G01*
X105900000Y-151100000D02*
G75*
G02*
X106100000Y-151100000I100000J0D01*
G01*
%TO.C,C1*%
X113850000Y-110275000D02*
X114250000Y-110275000D01*
X113850000Y-111725000D02*
X114250000Y-111725000D01*
D15*
%TO.C,R7*%
X158772936Y-117765000D02*
X159227064Y-117765000D01*
X158772936Y-119235000D02*
X159227064Y-119235000D01*
D14*
%TO.C,J16*%
X188900000Y-131880000D02*
X197550000Y-131880000D01*
X188900000Y-142040000D02*
X188900000Y-131880000D01*
X197550000Y-131880000D02*
X197550000Y-142040000D01*
X197550000Y-142040000D02*
X188900000Y-142040000D01*
D13*
X193600000Y-131360000D02*
G75*
G02*
X193400000Y-131360000I-100000J0D01*
G01*
X193400000Y-131360000D02*
G75*
G02*
X193600000Y-131360000I100000J0D01*
G01*
D15*
%TO.C,R1*%
X163272936Y-111765000D02*
X163727064Y-111765000D01*
X163272936Y-113235000D02*
X163727064Y-113235000D01*
D14*
%TO.C,J1*%
X176920000Y-101450000D02*
X187080000Y-101450000D01*
X176920000Y-110100000D02*
X176920000Y-101450000D01*
X187080000Y-101450000D02*
X187080000Y-110100000D01*
X187080000Y-110100000D02*
X176920000Y-110100000D01*
D13*
X176500000Y-105500000D02*
G75*
G02*
X176300000Y-105500000I-100000J0D01*
G01*
X176300000Y-105500000D02*
G75*
G02*
X176500000Y-105500000I100000J0D01*
G01*
D16*
%TO.C,IC3*%
X148760600Y-117553600D02*
X144239400Y-117553600D01*
X148760600Y-123446400D02*
X144239400Y-123446400D01*
D17*
X150716400Y-122786000D02*
G75*
G02*
X150970400Y-122786000I127000J0D01*
G01*
X150970400Y-122786000D02*
G75*
G02*
X150716400Y-122786000I-127000J0D01*
G01*
D14*
%TO.C,J10*%
X126420000Y-99950000D02*
X136580000Y-99950000D01*
X126420000Y-108600000D02*
X126420000Y-99950000D01*
X136580000Y-99950000D02*
X136580000Y-108600000D01*
X136580000Y-108600000D02*
X126420000Y-108600000D01*
D13*
X126000000Y-104000000D02*
G75*
G02*
X125800000Y-104000000I-100000J0D01*
G01*
X125800000Y-104000000D02*
G75*
G02*
X126000000Y-104000000I100000J0D01*
G01*
D14*
%TO.C,J2*%
X151920000Y-101400000D02*
X162080000Y-101400000D01*
X151920000Y-110050000D02*
X151920000Y-101400000D01*
X162080000Y-101400000D02*
X162080000Y-110050000D01*
X162080000Y-110050000D02*
X151920000Y-110050000D01*
D13*
X162700000Y-106000000D02*
G75*
G02*
X162500000Y-106000000I-100000J0D01*
G01*
X162500000Y-106000000D02*
G75*
G02*
X162700000Y-106000000I100000J0D01*
G01*
D14*
%TO.C,J15*%
X188900000Y-144420000D02*
X197550000Y-144420000D01*
X188900000Y-154580000D02*
X188900000Y-144420000D01*
X197550000Y-144420000D02*
X197550000Y-154580000D01*
X197550000Y-154580000D02*
X188900000Y-154580000D01*
D13*
X193600000Y-143900000D02*
G75*
G02*
X193400000Y-143900000I-100000J0D01*
G01*
X193400000Y-143900000D02*
G75*
G02*
X193600000Y-143900000I100000J0D01*
G01*
D15*
%TO.C,R2*%
X151765000Y-146772936D02*
X151765000Y-147227064D01*
X153235000Y-146772936D02*
X153235000Y-147227064D01*
D14*
%TO.C,J5*%
X148920000Y-151450000D02*
X159080000Y-151450000D01*
X148920000Y-160100000D02*
X148920000Y-151450000D01*
X159080000Y-151450000D02*
X159080000Y-160100000D01*
X159080000Y-160100000D02*
X148920000Y-160100000D01*
D13*
X148500000Y-155500000D02*
G75*
G02*
X148300000Y-155500000I-100000J0D01*
G01*
X148300000Y-155500000D02*
G75*
G02*
X148500000Y-155500000I100000J0D01*
G01*
D16*
%TO.C,IC2*%
X148760600Y-129053600D02*
X144239400Y-129053600D01*
X148760600Y-134946400D02*
X144239400Y-134946400D01*
D17*
X150716400Y-134286000D02*
G75*
G02*
X150970400Y-134286000I127000J0D01*
G01*
X150970400Y-134286000D02*
G75*
G02*
X150716400Y-134286000I-127000J0D01*
G01*
D14*
%TO.C,J18*%
X161920000Y-150900000D02*
X172080000Y-150900000D01*
X161920000Y-159550000D02*
X161920000Y-150900000D01*
X172080000Y-150900000D02*
X172080000Y-159550000D01*
X172080000Y-159550000D02*
X161920000Y-159550000D01*
D13*
X172700000Y-155500000D02*
G75*
G02*
X172500000Y-155500000I-100000J0D01*
G01*
X172500000Y-155500000D02*
G75*
G02*
X172700000Y-155500000I100000J0D01*
G01*
D14*
%TO.C,J11*%
X164420000Y-101450000D02*
X174580000Y-101450000D01*
X164420000Y-110100000D02*
X164420000Y-101450000D01*
X174580000Y-101450000D02*
X174580000Y-110100000D01*
X174580000Y-110100000D02*
X164420000Y-110100000D01*
D13*
X164000000Y-105500000D02*
G75*
G02*
X163800000Y-105500000I-100000J0D01*
G01*
X163800000Y-105500000D02*
G75*
G02*
X164000000Y-105500000I100000J0D01*
G01*
D16*
%TO.C,IC1*%
X148760600Y-139553600D02*
X144239400Y-139553600D01*
X148760600Y-145446400D02*
X144239400Y-145446400D01*
D17*
X150716400Y-144786000D02*
G75*
G02*
X150970400Y-144786000I127000J0D01*
G01*
X150970400Y-144786000D02*
G75*
G02*
X150716400Y-144786000I-127000J0D01*
G01*
D15*
%TO.C,R8*%
X167272936Y-111765000D02*
X167727064Y-111765000D01*
X167272936Y-113235000D02*
X167727064Y-113235000D01*
D14*
%TO.C,J12*%
X188900000Y-118920000D02*
X197550000Y-118920000D01*
X188900000Y-129080000D02*
X188900000Y-118920000D01*
X197550000Y-118920000D02*
X197550000Y-129080000D01*
X197550000Y-129080000D02*
X188900000Y-129080000D01*
D13*
X193600000Y-118400000D02*
G75*
G02*
X193400000Y-118400000I-100000J0D01*
G01*
X193400000Y-118400000D02*
G75*
G02*
X193600000Y-118400000I100000J0D01*
G01*
D16*
%TO.C,C4*%
X122612400Y-122669800D02*
X122612400Y-127445000D01*
X122612400Y-127445000D02*
X124085600Y-127445000D01*
X124085600Y-122669800D02*
X122612400Y-122669800D01*
X125914400Y-127445000D02*
X127387600Y-127445000D01*
X127387600Y-122669800D02*
X125914400Y-122669800D01*
X127387600Y-127445000D02*
X127387600Y-122669800D01*
D15*
%TO.C,R5*%
X155272936Y-130265000D02*
X155727064Y-130265000D01*
X155272936Y-131735000D02*
X155727064Y-131735000D01*
D14*
%TO.C,J6*%
X122920000Y-151450000D02*
X133080000Y-151450000D01*
X122920000Y-160100000D02*
X122920000Y-151450000D01*
X133080000Y-151450000D02*
X133080000Y-160100000D01*
X133080000Y-160100000D02*
X122920000Y-160100000D01*
D13*
X122500000Y-155500000D02*
G75*
G02*
X122300000Y-155500000I-100000J0D01*
G01*
X122300000Y-155500000D02*
G75*
G02*
X122500000Y-155500000I100000J0D01*
G01*
D15*
%TO.C,R6*%
X153265000Y-123772936D02*
X153265000Y-124227064D01*
X154735000Y-123772936D02*
X154735000Y-124227064D01*
D14*
%TO.C,J9*%
X101950000Y-127920000D02*
X110600000Y-127920000D01*
X101950000Y-138080000D02*
X101950000Y-127920000D01*
X110600000Y-127920000D02*
X110600000Y-138080000D01*
X110600000Y-138080000D02*
X101950000Y-138080000D01*
D13*
X106100000Y-138600000D02*
G75*
G02*
X105900000Y-138600000I-100000J0D01*
G01*
X105900000Y-138600000D02*
G75*
G02*
X106100000Y-138600000I100000J0D01*
G01*
D14*
%TO.C,J19*%
X174920000Y-150900000D02*
X185080000Y-150900000D01*
X174920000Y-159550000D02*
X174920000Y-150900000D01*
X185080000Y-150900000D02*
X185080000Y-159550000D01*
X185080000Y-159550000D02*
X174920000Y-159550000D01*
D13*
X185700000Y-155500000D02*
G75*
G02*
X185500000Y-155500000I-100000J0D01*
G01*
X185500000Y-155500000D02*
G75*
G02*
X185700000Y-155500000I100000J0D01*
G01*
%TD*%
M02*
