%TF.GenerationSoftware,KiCad,Pcbnew,9.0.4*%
%TF.CreationDate,2025-09-17T01:56:31-03:00*%
%TF.ProjectId,DriversDiego,44726976-6572-4734-9469-65676f2e6b69,rev?*%
%TF.SameCoordinates,Original*%
%TF.FileFunction,Copper,L2,Bot*%
%TF.FilePolarity,Positive*%
%FSLAX46Y46*%
G04 Gerber Fmt 4.6, Leading zero omitted, Abs format (unit mm)*
G04 Created by KiCad (PCBNEW 9.0.4) date 2025-09-17 01:56:31*
%MOMM*%
%LPD*%
G01*
G04 APERTURE LIST*
%TA.AperFunction,ComponentPad*%
%ADD10R,1.950000X1.950000*%
%TD*%
%TA.AperFunction,ComponentPad*%
%ADD11C,1.950000*%
%TD*%
%TA.AperFunction,ComponentPad*%
%ADD12C,0.300000*%
%TD*%
%TA.AperFunction,ViaPad*%
%ADD13C,0.600000*%
%TD*%
%TA.AperFunction,Conductor*%
%ADD14C,1.500000*%
%TD*%
%TA.AperFunction,Conductor*%
%ADD15C,0.400000*%
%TD*%
%TA.AperFunction,Conductor*%
%ADD16C,0.200000*%
%TD*%
G04 APERTURE END LIST*
D10*
%TO.P,J3,1,1*%
%TO.N,Net-(U1-VM)*%
X106500000Y-104920000D03*
D11*
%TO.P,J3,2,2*%
%TO.N,GND*%
X106500000Y-110000000D03*
%TD*%
D10*
%TO.P,J17,1,1*%
%TO.N,Net-(IC1-AIN2)*%
X138460000Y-155500000D03*
D11*
%TO.P,J17,2,2*%
%TO.N,Net-(IC1-AIN1)*%
X143540000Y-155500000D03*
%TD*%
D12*
%TO.P,U1,10*%
%TO.N,N/C*%
X147782152Y-113600000D03*
%TO.P,U1,11*%
X146482152Y-113600000D03*
%TO.P,U1,12*%
X147782152Y-112300000D03*
%TO.P,U1,13*%
X146482152Y-112300000D03*
%TO.P,U1,14*%
X147782152Y-111000000D03*
%TO.P,U1,15*%
X146482152Y-111000000D03*
%TO.P,U1,16*%
X147782152Y-109700000D03*
%TO.P,U1,17*%
X146482152Y-109700000D03*
%TD*%
D10*
%TO.P,J4,1,1*%
%TO.N,Net-(IC1-VM)*%
X106500000Y-117960000D03*
D11*
%TO.P,J4,2,2*%
%TO.N,GND*%
X106500000Y-123040000D03*
%TD*%
D10*
%TO.P,J13,1,1*%
%TO.N,Net-(IC3-BOUT1)*%
X193500000Y-108460000D03*
D11*
%TO.P,J13,2,2*%
%TO.N,Net-(IC3-BOUT2)*%
X193500000Y-113540000D03*
%TD*%
D10*
%TO.P,J8,1,1*%
%TO.N,Net-(IC3-AIN2)*%
X116460000Y-104500000D03*
D11*
%TO.P,J8,2,2*%
%TO.N,Net-(IC3-AIN1)*%
X121540000Y-104500000D03*
%TD*%
D10*
%TO.P,J7,1,1*%
%TO.N,Net-(IC2-SLEEP_N)*%
X106000000Y-148040000D03*
D11*
%TO.P,J7,2,2*%
%TO.N,Net-(IC2-FAULT_N)*%
X106000000Y-142960000D03*
%TD*%
D10*
%TO.P,J14,1,1*%
%TO.N,Net-(IC2-AIN2)*%
X112460000Y-156500000D03*
D11*
%TO.P,J14,2,2*%
%TO.N,Net-(IC2-AIN1)*%
X117540000Y-156500000D03*
%TD*%
D10*
%TO.P,J16,1,1*%
%TO.N,Net-(IC2-BOUT1)*%
X193500000Y-134420000D03*
D11*
%TO.P,J16,2,2*%
%TO.N,Net-(IC2-BOUT2)*%
X193500000Y-139500000D03*
%TD*%
D10*
%TO.P,J1,1,1*%
%TO.N,Net-(U1-OUT1)*%
X179460000Y-105500000D03*
D11*
%TO.P,J1,2,2*%
%TO.N,Net-(U1-OUT2)*%
X184540000Y-105500000D03*
%TD*%
D10*
%TO.P,J10,1,1*%
%TO.N,Net-(IC3-BIN2)*%
X128960000Y-104000000D03*
D11*
%TO.P,J10,2,2*%
%TO.N,Net-(IC3-BIN1)*%
X134040000Y-104000000D03*
%TD*%
D10*
%TO.P,J2,1,1*%
%TO.N,Net-(U1-IN2)*%
X159540000Y-106000000D03*
D11*
%TO.P,J2,2,2*%
%TO.N,Net-(U1-IN1)*%
X154460000Y-106000000D03*
%TD*%
D10*
%TO.P,J15,1,1*%
%TO.N,Net-(IC2-AOUT1)*%
X193500000Y-146960000D03*
D11*
%TO.P,J15,2,2*%
%TO.N,Net-(IC2-AOUT2)*%
X193500000Y-152040000D03*
%TD*%
D10*
%TO.P,J5,1,1*%
%TO.N,Net-(IC1-SLEEP_N)*%
X151460000Y-155500000D03*
D11*
%TO.P,J5,2,2*%
%TO.N,Net-(IC1-FAULT_N)*%
X156540000Y-155500000D03*
%TD*%
D10*
%TO.P,J18,1,1*%
%TO.N,Net-(IC1-AOUT1)*%
X169540000Y-155500000D03*
D11*
%TO.P,J18,2,2*%
%TO.N,Net-(IC1-AOUT2)*%
X164460000Y-155500000D03*
%TD*%
D10*
%TO.P,J11,1,1*%
%TO.N,Net-(IC3-SLEEP_N)*%
X166960000Y-105500000D03*
D11*
%TO.P,J11,2,2*%
%TO.N,Net-(IC3-FAULT_N)*%
X172040000Y-105500000D03*
%TD*%
D10*
%TO.P,J12,1,1*%
%TO.N,Net-(IC3-AOUT1)*%
X193500000Y-121460000D03*
D11*
%TO.P,J12,2,2*%
%TO.N,Net-(IC3-AOUT2)*%
X193500000Y-126540000D03*
%TD*%
D10*
%TO.P,J6,1,1*%
%TO.N,Net-(IC1-BIN2)*%
X125460000Y-155500000D03*
D11*
%TO.P,J6,2,2*%
%TO.N,Net-(IC1-BIN1)*%
X130540000Y-155500000D03*
%TD*%
D10*
%TO.P,J9,1,1*%
%TO.N,Net-(IC2-BIN2)*%
X106000000Y-135540000D03*
D11*
%TO.P,J9,2,2*%
%TO.N,Net-(IC2-BIN1)*%
X106000000Y-130460000D03*
%TD*%
D10*
%TO.P,J19,1,1*%
%TO.N,Net-(IC1-BOUT1)*%
X182540000Y-155500000D03*
D11*
%TO.P,J19,2,2*%
%TO.N,Net-(IC1-BOUT2)*%
X177460000Y-155500000D03*
%TD*%
D13*
%TO.N,Net-(IC1-VM)*%
X124960000Y-122960000D03*
X134500000Y-125500000D03*
X142000000Y-131675000D03*
X130000000Y-142000000D03*
X142000000Y-120175000D03*
X142000000Y-142175000D03*
%TO.N,Net-(IC1-BOUT1)*%
X151375000Y-140875000D03*
%TO.N,Net-(IC1-BOUT2)*%
X153000000Y-142500000D03*
%TO.N,Net-(IC1-BIN2)*%
X134500000Y-146500000D03*
%TO.N,Net-(IC1-FAULT_N)*%
X146500000Y-138500000D03*
%TO.N,Net-(IC1-AOUT1)*%
X151000000Y-144500000D03*
%TO.N,Net-(IC2-BOUT2)*%
X152500000Y-131675000D03*
%TO.N,Net-(IC2-BOUT1)*%
X151375000Y-130375000D03*
%TO.N,Net-(IC2-SLEEP_N)*%
X133500000Y-138000000D03*
X146000000Y-137000000D03*
X128500000Y-138000000D03*
%TO.N,Net-(IC2-AIN2)*%
X139000000Y-133500000D03*
%TO.N,Net-(IC2-FAULT_N)*%
X135000000Y-136500000D03*
X129000000Y-136500000D03*
X147000000Y-128500000D03*
%TO.N,Net-(IC2-BIN2)*%
X131000000Y-132000000D03*
%TO.N,Net-(IC2-BIN1)*%
X130250000Y-129750000D03*
%TO.N,Net-(IC2-AOUT1)*%
X151000000Y-133625000D03*
X178000000Y-137500000D03*
%TO.N,Net-(IC3-SLEEP_N)*%
X148000000Y-117000000D03*
X159000000Y-111500000D03*
X146500000Y-125000000D03*
%TO.N,Net-(IC3-BIN1)*%
X134040000Y-110000000D03*
%TO.N,Net-(IC3-AOUT1)*%
X151000000Y-122500000D03*
X195960000Y-121460000D03*
%TO.N,Net-(IC3-BOUT2)*%
X151825000Y-120175000D03*
%TO.N,Net-(IC3-AIN1)*%
X125000000Y-119000000D03*
%TO.N,Net-(IC3-BOUT1)*%
X151000000Y-118875000D03*
X182960000Y-119000000D03*
%TO.N,Net-(IC3-BIN2)*%
X132000000Y-112000000D03*
%TO.N,Net-(IC3-FAULT_N)*%
X160500000Y-112500000D03*
%TO.N,Net-(IC3-AIN2)*%
X117000000Y-112000000D03*
%TO.N,Net-(U1-OUT2)*%
X184500000Y-108500000D03*
X142000000Y-113555000D03*
%TO.N,Net-(U1-OUT1)*%
X142500000Y-111015000D03*
%TO.N,Net-(U1-IN1)*%
X153000000Y-111000000D03*
%TO.N,Net-(U1-IN2)*%
X156500000Y-112500000D03*
%TD*%
D14*
%TO.N,Net-(IC1-VM)*%
X134500000Y-125500000D02*
X140675000Y-131675000D01*
X140675000Y-131675000D02*
X142000000Y-131675000D01*
X141825000Y-142000000D02*
X142000000Y-142175000D01*
X124960000Y-122960000D02*
X127745000Y-120175000D01*
X130000000Y-142000000D02*
X141825000Y-142000000D01*
X127745000Y-120175000D02*
X142000000Y-120175000D01*
%TO.N,Net-(IC1-BOUT1)*%
X182540000Y-155500000D02*
X167915000Y-140875000D01*
X167915000Y-140875000D02*
X151375000Y-140875000D01*
%TO.N,Net-(IC1-BOUT2)*%
X177460000Y-155500000D02*
X165960000Y-144000000D01*
X155000000Y-144000000D02*
X153576000Y-142576000D01*
X153576000Y-142576000D02*
X153000000Y-142576000D01*
X165960000Y-144000000D02*
X155000000Y-144000000D01*
D15*
%TO.N,Net-(IC1-BIN2)*%
X125500000Y-155500000D02*
X134500000Y-146500000D01*
D16*
X125460000Y-155500000D02*
X125500000Y-155500000D01*
D15*
%TO.N,Net-(IC1-FAULT_N)*%
X146500000Y-145460000D02*
X146500000Y-138500000D01*
X156540000Y-155500000D02*
X146500000Y-145460000D01*
D14*
%TO.N,Net-(IC1-AOUT1)*%
X151000000Y-144500000D02*
X157000000Y-150500000D01*
X164540000Y-150500000D02*
X169540000Y-155500000D01*
X157000000Y-150500000D02*
X164540000Y-150500000D01*
%TO.N,Net-(IC2-BOUT2)*%
X177675000Y-131675000D02*
X185500000Y-139500000D01*
X152500000Y-131675000D02*
X177675000Y-131675000D01*
X185500000Y-139500000D02*
X193500000Y-139500000D01*
%TO.N,Net-(IC2-BOUT1)*%
X151375000Y-130375000D02*
X152750000Y-129000000D01*
X185500000Y-129000000D02*
X190920000Y-134420000D01*
X190920000Y-134420000D02*
X193500000Y-134420000D01*
X152750000Y-129000000D02*
X185500000Y-129000000D01*
D15*
%TO.N,Net-(IC2-SLEEP_N)*%
X133500000Y-138000000D02*
X145000000Y-138000000D01*
X106000000Y-148040000D02*
X118460000Y-148040000D01*
X145000000Y-138000000D02*
X146000000Y-137000000D01*
X118460000Y-148040000D02*
X128500000Y-138000000D01*
%TO.N,Net-(IC2-AIN2)*%
X135460000Y-133500000D02*
X112460000Y-156500000D01*
X139000000Y-133500000D02*
X135460000Y-133500000D01*
%TO.N,Net-(IC2-FAULT_N)*%
X144500000Y-136500000D02*
X145000000Y-136000000D01*
X135000000Y-136500000D02*
X144500000Y-136500000D01*
X145000000Y-136000000D02*
X147000000Y-134000000D01*
X112460000Y-136500000D02*
X129000000Y-136500000D01*
X106000000Y-142960000D02*
X112460000Y-136500000D01*
X147000000Y-134000000D02*
X147000000Y-128500000D01*
%TO.N,Net-(IC2-BIN2)*%
X106000000Y-135540000D02*
X127460000Y-135540000D01*
X127460000Y-135540000D02*
X131000000Y-132000000D01*
%TO.N,Net-(IC2-BIN1)*%
X129540000Y-130460000D02*
X130250000Y-129750000D01*
X106000000Y-130460000D02*
X129540000Y-130460000D01*
D14*
%TO.N,Net-(IC2-AOUT1)*%
X154875000Y-137500000D02*
X151000000Y-133625000D01*
X193500000Y-146960000D02*
X187460000Y-146960000D01*
X187460000Y-146960000D02*
X178000000Y-137500000D01*
X178000000Y-137500000D02*
X154875000Y-137500000D01*
D15*
%TO.N,Net-(IC3-SLEEP_N)*%
X162500000Y-108000000D02*
X159000000Y-111500000D01*
X165000000Y-105500000D02*
X162500000Y-108000000D01*
X146500000Y-118500000D02*
X146500000Y-125000000D01*
X148000000Y-117000000D02*
X146500000Y-118500000D01*
X166960000Y-105500000D02*
X165000000Y-105500000D01*
%TO.N,Net-(IC3-BIN1)*%
X134040000Y-110000000D02*
X134040000Y-110040000D01*
X134040000Y-104000000D02*
X134040000Y-110000000D01*
D14*
%TO.N,Net-(IC3-AOUT1)*%
X194420000Y-123000000D02*
X151500000Y-123000000D01*
X195960000Y-121460000D02*
X194420000Y-123000000D01*
X151500000Y-123000000D02*
X151000000Y-122500000D01*
%TO.N,Net-(IC3-BOUT2)*%
X155500000Y-121000000D02*
X155000000Y-120500000D01*
X186040000Y-121000000D02*
X193500000Y-113540000D01*
X155500000Y-121000000D02*
X186040000Y-121000000D01*
X152150000Y-120500000D02*
X151825000Y-120175000D01*
X155000000Y-120500000D02*
X152150000Y-120500000D01*
D15*
%TO.N,Net-(IC3-AIN1)*%
X121540000Y-104500000D02*
X121540000Y-115540000D01*
X121540000Y-115540000D02*
X125000000Y-119000000D01*
D14*
%TO.N,Net-(IC3-BOUT1)*%
X182434000Y-118474000D02*
X151000000Y-118474000D01*
X182960000Y-119000000D02*
X182434000Y-118474000D01*
D15*
%TO.N,Net-(IC3-BIN2)*%
X128960000Y-108960000D02*
X132000000Y-112000000D01*
X128960000Y-104000000D02*
X128960000Y-108960000D01*
%TO.N,Net-(IC3-FAULT_N)*%
X172040000Y-105500000D02*
X168540000Y-109000000D01*
X164000000Y-109000000D02*
X160500000Y-112500000D01*
X168540000Y-109000000D02*
X164000000Y-109000000D01*
%TO.N,Net-(IC3-AIN2)*%
X116460000Y-111460000D02*
X117000000Y-112000000D01*
X116460000Y-104500000D02*
X116460000Y-111460000D01*
D14*
%TO.N,Net-(U1-OUT2)*%
X143945000Y-115500000D02*
X177500000Y-115500000D01*
X177500000Y-115500000D02*
X184500000Y-108500000D01*
X142000000Y-113555000D02*
X143945000Y-115500000D01*
%TO.N,Net-(U1-OUT1)*%
X140515000Y-111015000D02*
X142500000Y-111015000D01*
X179460000Y-105500000D02*
X179460000Y-103960000D01*
X179460000Y-103960000D02*
X178000000Y-102500000D01*
X138500000Y-109000000D02*
X140515000Y-111015000D01*
X138500000Y-107500000D02*
X138500000Y-109000000D01*
X178000000Y-102500000D02*
X143500000Y-102500000D01*
X140500000Y-105500000D02*
X138500000Y-107500000D01*
X143500000Y-102500000D02*
X140500000Y-105500000D01*
D15*
%TO.N,Net-(U1-IN1)*%
X154460000Y-109540000D02*
X153000000Y-111000000D01*
X154460000Y-106000000D02*
X154460000Y-109540000D01*
%TO.N,Net-(U1-IN2)*%
X159540000Y-106000000D02*
X159540000Y-109460000D01*
X159540000Y-109460000D02*
X156500000Y-112500000D01*
%TD*%
%TA.AperFunction,Conductor*%
%TO.N,GND*%
G36*
X199442539Y-100520185D02*
G01*
X199488294Y-100572989D01*
X199499500Y-100624500D01*
X199499500Y-159375500D01*
X199479815Y-159442539D01*
X199427011Y-159488294D01*
X199375500Y-159499500D01*
X100624500Y-159499500D01*
X100557461Y-159479815D01*
X100511706Y-159427011D01*
X100500500Y-159375500D01*
X100500500Y-134517135D01*
X104524500Y-134517135D01*
X104524500Y-136562870D01*
X104524501Y-136562876D01*
X104530908Y-136622483D01*
X104581202Y-136757328D01*
X104581206Y-136757335D01*
X104667452Y-136872544D01*
X104667455Y-136872547D01*
X104782664Y-136958793D01*
X104782671Y-136958797D01*
X104917517Y-137009091D01*
X104917516Y-137009091D01*
X104924444Y-137009835D01*
X104977127Y-137015500D01*
X107022872Y-137015499D01*
X107082483Y-137009091D01*
X107217331Y-136958796D01*
X107332546Y-136872546D01*
X107418796Y-136757331D01*
X107469091Y-136622483D01*
X107475500Y-136562873D01*
X107475500Y-136364500D01*
X107495185Y-136297461D01*
X107547989Y-136251706D01*
X107599500Y-136240500D01*
X111429481Y-136240500D01*
X111496520Y-136260185D01*
X111542275Y-136312989D01*
X111552219Y-136382147D01*
X111523194Y-136445703D01*
X111517162Y-136452181D01*
X106476983Y-141492358D01*
X106415660Y-141525843D01*
X106350984Y-141522608D01*
X106345515Y-141520831D01*
X106116129Y-141484500D01*
X106116124Y-141484500D01*
X105883876Y-141484500D01*
X105883871Y-141484500D01*
X105654485Y-141520831D01*
X105433599Y-141592601D01*
X105226668Y-141698039D01*
X105038773Y-141834553D01*
X104874553Y-141998773D01*
X104738039Y-142186668D01*
X104632601Y-142393599D01*
X104560831Y-142614485D01*
X104524500Y-142843870D01*
X104524500Y-143076129D01*
X104560831Y-143305514D01*
X104632601Y-143526400D01*
X104693298Y-143645523D01*
X104738039Y-143733331D01*
X104874551Y-143921224D01*
X105038776Y-144085449D01*
X105226669Y-144221961D01*
X105324436Y-144271776D01*
X105433599Y-144327398D01*
X105433601Y-144327398D01*
X105433604Y-144327400D01*
X105654486Y-144399169D01*
X105772668Y-144417886D01*
X105883871Y-144435500D01*
X105883876Y-144435500D01*
X106116129Y-144435500D01*
X106217502Y-144419443D01*
X106345514Y-144399169D01*
X106566396Y-144327400D01*
X106773331Y-144221961D01*
X106961224Y-144085449D01*
X107125449Y-143921224D01*
X107261961Y-143733331D01*
X107367400Y-143526396D01*
X107439169Y-143305514D01*
X107459443Y-143177502D01*
X107475500Y-143076129D01*
X107475500Y-142843870D01*
X107454800Y-142713181D01*
X107439169Y-142614486D01*
X107437391Y-142609013D01*
X107435396Y-142539172D01*
X107467639Y-142483016D01*
X112713838Y-137236819D01*
X112775161Y-137203334D01*
X112801519Y-137200500D01*
X127868059Y-137200500D01*
X127935098Y-137220185D01*
X127980853Y-137272989D01*
X127990797Y-137342147D01*
X127961772Y-137405703D01*
X127955740Y-137412181D01*
X127878213Y-137489707D01*
X127878210Y-137489711D01*
X127790609Y-137620814D01*
X127790604Y-137620823D01*
X127730809Y-137765184D01*
X127703929Y-137805412D01*
X118206162Y-147303181D01*
X118144839Y-147336666D01*
X118118481Y-147339500D01*
X107599499Y-147339500D01*
X107532460Y-147319815D01*
X107486705Y-147267011D01*
X107475499Y-147215500D01*
X107475499Y-147017129D01*
X107475498Y-147017123D01*
X107475497Y-147017116D01*
X107469091Y-146957517D01*
X107439870Y-146879172D01*
X107418797Y-146822671D01*
X107418793Y-146822664D01*
X107332547Y-146707455D01*
X107332544Y-146707452D01*
X107217335Y-146621206D01*
X107217328Y-146621202D01*
X107082482Y-146570908D01*
X107082483Y-146570908D01*
X107022883Y-146564501D01*
X107022881Y-146564500D01*
X107022873Y-146564500D01*
X107022864Y-146564500D01*
X104977129Y-146564500D01*
X104977123Y-146564501D01*
X104917516Y-146570908D01*
X104782671Y-146621202D01*
X104782664Y-146621206D01*
X104667455Y-146707452D01*
X104667452Y-146707455D01*
X104581206Y-146822664D01*
X104581202Y-146822671D01*
X104530908Y-146957517D01*
X104525235Y-147010288D01*
X104524501Y-147017123D01*
X104524500Y-147017135D01*
X104524500Y-149062870D01*
X104524501Y-149062876D01*
X104530908Y-149122483D01*
X104581202Y-149257328D01*
X104581206Y-149257335D01*
X104667452Y-149372544D01*
X104667455Y-149372547D01*
X104782664Y-149458793D01*
X104782671Y-149458797D01*
X104917517Y-149509091D01*
X104917516Y-149509091D01*
X104924444Y-149509835D01*
X104977127Y-149515500D01*
X107022872Y-149515499D01*
X107082483Y-149509091D01*
X107217331Y-149458796D01*
X107332546Y-149372546D01*
X107418796Y-149257331D01*
X107469091Y-149122483D01*
X107475500Y-149062873D01*
X107475500Y-148864500D01*
X107495185Y-148797461D01*
X107547989Y-148751706D01*
X107599500Y-148740500D01*
X118528996Y-148740500D01*
X118620040Y-148722389D01*
X118664328Y-148713580D01*
X118728069Y-148687177D01*
X118791807Y-148660777D01*
X118791808Y-148660776D01*
X118791811Y-148660775D01*
X118906543Y-148584114D01*
X128694586Y-138796069D01*
X128734810Y-138769192D01*
X128789435Y-138746566D01*
X128879173Y-138709397D01*
X128879175Y-138709395D01*
X128879179Y-138709394D01*
X128979876Y-138642109D01*
X129046553Y-138621232D01*
X129113933Y-138639716D01*
X129160624Y-138691695D01*
X129171800Y-138760665D01*
X129143915Y-138824728D01*
X129136448Y-138832893D01*
X112981160Y-154988181D01*
X112919837Y-155021666D01*
X112893479Y-155024500D01*
X111437129Y-155024500D01*
X111437123Y-155024501D01*
X111377516Y-155030908D01*
X111242671Y-155081202D01*
X111242664Y-155081206D01*
X111127455Y-155167452D01*
X111127452Y-155167455D01*
X111041206Y-155282664D01*
X111041202Y-155282671D01*
X110990908Y-155417517D01*
X110984501Y-155477116D01*
X110984500Y-155477135D01*
X110984500Y-157522870D01*
X110984501Y-157522876D01*
X110990908Y-157582483D01*
X111041202Y-157717328D01*
X111041206Y-157717335D01*
X111127452Y-157832544D01*
X111127455Y-157832547D01*
X111242664Y-157918793D01*
X111242671Y-157918797D01*
X111377517Y-157969091D01*
X111377516Y-157969091D01*
X111384444Y-157969835D01*
X111437127Y-157975500D01*
X113482872Y-157975499D01*
X113542483Y-157969091D01*
X113677331Y-157918796D01*
X113792546Y-157832546D01*
X113878796Y-157717331D01*
X113929091Y-157582483D01*
X113935500Y-157522873D01*
X113935499Y-156383870D01*
X116064500Y-156383870D01*
X116064500Y-156616129D01*
X116100831Y-156845514D01*
X116172601Y-157066400D01*
X116278039Y-157273331D01*
X116414551Y-157461224D01*
X116578776Y-157625449D01*
X116766669Y-157761961D01*
X116864436Y-157811776D01*
X116973599Y-157867398D01*
X116973601Y-157867398D01*
X116973604Y-157867400D01*
X117194486Y-157939169D01*
X117312668Y-157957886D01*
X117423871Y-157975500D01*
X117423876Y-157975500D01*
X117656129Y-157975500D01*
X117757502Y-157959443D01*
X117885514Y-157939169D01*
X118106396Y-157867400D01*
X118313331Y-157761961D01*
X118501224Y-157625449D01*
X118665449Y-157461224D01*
X118801961Y-157273331D01*
X118907400Y-157066396D01*
X118979169Y-156845514D01*
X118999471Y-156717328D01*
X119015500Y-156616129D01*
X119015500Y-156383870D01*
X118996232Y-156262222D01*
X118979169Y-156154486D01*
X118907400Y-155933604D01*
X118907398Y-155933601D01*
X118907398Y-155933599D01*
X118835745Y-155792974D01*
X118801961Y-155726669D01*
X118665449Y-155538776D01*
X118501224Y-155374551D01*
X118313331Y-155238039D01*
X118106400Y-155132601D01*
X117885514Y-155060831D01*
X117656129Y-155024500D01*
X117656124Y-155024500D01*
X117423876Y-155024500D01*
X117423871Y-155024500D01*
X117194485Y-155060831D01*
X116973599Y-155132601D01*
X116766668Y-155238039D01*
X116578773Y-155374553D01*
X116414553Y-155538773D01*
X116278039Y-155726668D01*
X116172601Y-155933599D01*
X116100831Y-156154485D01*
X116064500Y-156383870D01*
X113935499Y-156383870D01*
X113935499Y-156066517D01*
X113955184Y-155999479D01*
X113971813Y-155978842D01*
X115473520Y-154477135D01*
X123984500Y-154477135D01*
X123984500Y-156522870D01*
X123984501Y-156522876D01*
X123990908Y-156582483D01*
X124041202Y-156717328D01*
X124041206Y-156717335D01*
X124127452Y-156832544D01*
X124127455Y-156832547D01*
X124242664Y-156918793D01*
X124242671Y-156918797D01*
X124377517Y-156969091D01*
X124377516Y-156969091D01*
X124384444Y-156969835D01*
X124437127Y-156975500D01*
X126482872Y-156975499D01*
X126542483Y-156969091D01*
X126677331Y-156918796D01*
X126792546Y-156832546D01*
X126878796Y-156717331D01*
X126929091Y-156582483D01*
X126935500Y-156522873D01*
X126935499Y-155383870D01*
X129064500Y-155383870D01*
X129064500Y-155616129D01*
X129100831Y-155845514D01*
X129172601Y-156066400D01*
X129217484Y-156154486D01*
X129278039Y-156273331D01*
X129414551Y-156461224D01*
X129578776Y-156625449D01*
X129766669Y-156761961D01*
X129864436Y-156811776D01*
X129973599Y-156867398D01*
X129973601Y-156867398D01*
X129973604Y-156867400D01*
X130194486Y-156939169D01*
X130312668Y-156957886D01*
X130423871Y-156975500D01*
X130423876Y-156975500D01*
X130656129Y-156975500D01*
X130757502Y-156959443D01*
X130885514Y-156939169D01*
X131106396Y-156867400D01*
X131313331Y-156761961D01*
X131501224Y-156625449D01*
X131665449Y-156461224D01*
X131801961Y-156273331D01*
X131907400Y-156066396D01*
X131979169Y-155845514D01*
X131999443Y-155717502D01*
X132015500Y-155616129D01*
X132015500Y-155383870D01*
X131992402Y-155238039D01*
X131979169Y-155154486D01*
X131907400Y-154933604D01*
X131907398Y-154933601D01*
X131907398Y-154933599D01*
X131869145Y-154858526D01*
X131801961Y-154726669D01*
X131665449Y-154538776D01*
X131603808Y-154477135D01*
X136984500Y-154477135D01*
X136984500Y-156522870D01*
X136984501Y-156522876D01*
X136990908Y-156582483D01*
X137041202Y-156717328D01*
X137041206Y-156717335D01*
X137127452Y-156832544D01*
X137127455Y-156832547D01*
X137242664Y-156918793D01*
X137242671Y-156918797D01*
X137377517Y-156969091D01*
X137377516Y-156969091D01*
X137384444Y-156969835D01*
X137437127Y-156975500D01*
X139482872Y-156975499D01*
X139542483Y-156969091D01*
X139677331Y-156918796D01*
X139792546Y-156832546D01*
X139878796Y-156717331D01*
X139929091Y-156582483D01*
X139935500Y-156522873D01*
X139935499Y-155383870D01*
X142064500Y-155383870D01*
X142064500Y-155616129D01*
X142100831Y-155845514D01*
X142172601Y-156066400D01*
X142217484Y-156154486D01*
X142278039Y-156273331D01*
X142414551Y-156461224D01*
X142578776Y-156625449D01*
X142766669Y-156761961D01*
X142864436Y-156811776D01*
X142973599Y-156867398D01*
X142973601Y-156867398D01*
X142973604Y-156867400D01*
X143194486Y-156939169D01*
X143312668Y-156957886D01*
X143423871Y-156975500D01*
X143423876Y-156975500D01*
X143656129Y-156975500D01*
X143757502Y-156959443D01*
X143885514Y-156939169D01*
X144106396Y-156867400D01*
X144313331Y-156761961D01*
X144501224Y-156625449D01*
X144665449Y-156461224D01*
X144801961Y-156273331D01*
X144907400Y-156066396D01*
X144979169Y-155845514D01*
X144999443Y-155717502D01*
X145015500Y-155616129D01*
X145015500Y-155383870D01*
X144992402Y-155238039D01*
X144979169Y-155154486D01*
X144907400Y-154933604D01*
X144907398Y-154933601D01*
X144907398Y-154933599D01*
X144869145Y-154858526D01*
X144801961Y-154726669D01*
X144665449Y-154538776D01*
X144603808Y-154477135D01*
X149984500Y-154477135D01*
X149984500Y-156522870D01*
X149984501Y-156522876D01*
X149990908Y-156582483D01*
X150041202Y-156717328D01*
X150041206Y-156717335D01*
X150127452Y-156832544D01*
X150127455Y-156832547D01*
X150242664Y-156918793D01*
X150242671Y-156918797D01*
X150377517Y-156969091D01*
X150377516Y-156969091D01*
X150384444Y-156969835D01*
X150437127Y-156975500D01*
X152482872Y-156975499D01*
X152542483Y-156969091D01*
X152677331Y-156918796D01*
X152792546Y-156832546D01*
X152878796Y-156717331D01*
X152929091Y-156582483D01*
X152935500Y-156522873D01*
X152935499Y-154477128D01*
X152929091Y-154417517D01*
X152913066Y-154374553D01*
X152878797Y-154282671D01*
X152878793Y-154282664D01*
X152792547Y-154167455D01*
X152792544Y-154167452D01*
X152677335Y-154081206D01*
X152677328Y-154081202D01*
X152542482Y-154030908D01*
X152542483Y-154030908D01*
X152482883Y-154024501D01*
X152482881Y-154024500D01*
X152482873Y-154024500D01*
X152482864Y-154024500D01*
X150437129Y-154024500D01*
X150437123Y-154024501D01*
X150377516Y-154030908D01*
X150242671Y-154081202D01*
X150242664Y-154081206D01*
X150127455Y-154167452D01*
X150127452Y-154167455D01*
X150041206Y-154282664D01*
X150041202Y-154282671D01*
X149990908Y-154417517D01*
X149984501Y-154477116D01*
X149984501Y-154477123D01*
X149984500Y-154477135D01*
X144603808Y-154477135D01*
X144501224Y-154374551D01*
X144313331Y-154238039D01*
X144106400Y-154132601D01*
X143885514Y-154060831D01*
X143656129Y-154024500D01*
X143656124Y-154024500D01*
X143423876Y-154024500D01*
X143423871Y-154024500D01*
X143194485Y-154060831D01*
X142973599Y-154132601D01*
X142766668Y-154238039D01*
X142578773Y-154374553D01*
X142414553Y-154538773D01*
X142278039Y-154726668D01*
X142172601Y-154933599D01*
X142100831Y-155154485D01*
X142064500Y-155383870D01*
X139935499Y-155383870D01*
X139935499Y-154477128D01*
X139929091Y-154417517D01*
X139913066Y-154374553D01*
X139878797Y-154282671D01*
X139878793Y-154282664D01*
X139792547Y-154167455D01*
X139792544Y-154167452D01*
X139677335Y-154081206D01*
X139677328Y-154081202D01*
X139542482Y-154030908D01*
X139542483Y-154030908D01*
X139482883Y-154024501D01*
X139482881Y-154024500D01*
X139482873Y-154024500D01*
X139482864Y-154024500D01*
X137437129Y-154024500D01*
X137437123Y-154024501D01*
X137377516Y-154030908D01*
X137242671Y-154081202D01*
X137242664Y-154081206D01*
X137127455Y-154167452D01*
X137127452Y-154167455D01*
X137041206Y-154282664D01*
X137041202Y-154282671D01*
X136990908Y-154417517D01*
X136984501Y-154477116D01*
X136984501Y-154477123D01*
X136984500Y-154477135D01*
X131603808Y-154477135D01*
X131501224Y-154374551D01*
X131313331Y-154238039D01*
X131106400Y-154132601D01*
X130885514Y-154060831D01*
X130656129Y-154024500D01*
X130656124Y-154024500D01*
X130423876Y-154024500D01*
X130423871Y-154024500D01*
X130194485Y-154060831D01*
X129973599Y-154132601D01*
X129766668Y-154238039D01*
X129578773Y-154374553D01*
X129414553Y-154538773D01*
X129278039Y-154726668D01*
X129172601Y-154933599D01*
X129100831Y-155154485D01*
X129064500Y-155383870D01*
X126935499Y-155383870D01*
X126935499Y-155106517D01*
X126955184Y-155039479D01*
X126971813Y-155018842D01*
X134694586Y-147296069D01*
X134734810Y-147269192D01*
X134789435Y-147246566D01*
X134879173Y-147209397D01*
X134879176Y-147209395D01*
X134879179Y-147209394D01*
X135010289Y-147121789D01*
X135121789Y-147010289D01*
X135209394Y-146879179D01*
X135269737Y-146733497D01*
X135300500Y-146578842D01*
X135300500Y-146421158D01*
X135300500Y-146421155D01*
X135300499Y-146421153D01*
X135269737Y-146266503D01*
X135269191Y-146265184D01*
X135209397Y-146120827D01*
X135209390Y-146120814D01*
X135121789Y-145989711D01*
X135121786Y-145989707D01*
X135010292Y-145878213D01*
X135010288Y-145878210D01*
X134879185Y-145790609D01*
X134879172Y-145790602D01*
X134733501Y-145730264D01*
X134733489Y-145730261D01*
X134578845Y-145699500D01*
X134578842Y-145699500D01*
X134421158Y-145699500D01*
X134421155Y-145699500D01*
X134266510Y-145730261D01*
X134266498Y-145730264D01*
X134120827Y-145790602D01*
X134120814Y-145790609D01*
X133989711Y-145878210D01*
X133989707Y-145878213D01*
X133878213Y-145989707D01*
X133878210Y-145989711D01*
X133790609Y-146120814D01*
X133790604Y-146120823D01*
X133730809Y-146265184D01*
X133703929Y-146305412D01*
X126021160Y-153988181D01*
X125959837Y-154021666D01*
X125933479Y-154024500D01*
X124437129Y-154024500D01*
X124437123Y-154024501D01*
X124377516Y-154030908D01*
X124242671Y-154081202D01*
X124242664Y-154081206D01*
X124127455Y-154167452D01*
X124127452Y-154167455D01*
X124041206Y-154282664D01*
X124041202Y-154282671D01*
X123990908Y-154417517D01*
X123984501Y-154477116D01*
X123984501Y-154477123D01*
X123984500Y-154477135D01*
X115473520Y-154477135D01*
X128713895Y-141236761D01*
X128775217Y-141203277D01*
X128844909Y-141208261D01*
X128900842Y-141250133D01*
X128925259Y-141315597D01*
X128912060Y-141380737D01*
X128841118Y-141519967D01*
X128780290Y-141707173D01*
X128749500Y-141901577D01*
X128749500Y-142098422D01*
X128780290Y-142292826D01*
X128841117Y-142480029D01*
X128906838Y-142609013D01*
X128930476Y-142655405D01*
X129046172Y-142814646D01*
X129185354Y-142953828D01*
X129344595Y-143069524D01*
X129427455Y-143111743D01*
X129519970Y-143158882D01*
X129519972Y-143158882D01*
X129519975Y-143158884D01*
X129620317Y-143191487D01*
X129707173Y-143219709D01*
X129901578Y-143250500D01*
X129901583Y-143250500D01*
X141326555Y-143250500D01*
X141382850Y-143264015D01*
X141519969Y-143333881D01*
X141519971Y-143333881D01*
X141519974Y-143333883D01*
X141707173Y-143394709D01*
X141804378Y-143410104D01*
X141901578Y-143425500D01*
X141901583Y-143425500D01*
X142098421Y-143425500D01*
X142186784Y-143411504D01*
X142292826Y-143394709D01*
X142480026Y-143333883D01*
X142655405Y-143244523D01*
X142814645Y-143128828D01*
X142953828Y-142989645D01*
X143069523Y-142830405D01*
X143158883Y-142655026D01*
X143219709Y-142467826D01*
X143247426Y-142292826D01*
X143250500Y-142273421D01*
X143250500Y-142076577D01*
X143222782Y-141901577D01*
X143219709Y-141882173D01*
X143158883Y-141694974D01*
X143158881Y-141694971D01*
X143158881Y-141694969D01*
X143106721Y-141592600D01*
X143069523Y-141519594D01*
X142953828Y-141360354D01*
X142639646Y-141046172D01*
X142480405Y-140930476D01*
X142305030Y-140841117D01*
X142117826Y-140780290D01*
X141923422Y-140749500D01*
X141923417Y-140749500D01*
X129901583Y-140749500D01*
X129901578Y-140749500D01*
X129707173Y-140780290D01*
X129519967Y-140841118D01*
X129380737Y-140912060D01*
X129312068Y-140924956D01*
X129247328Y-140898679D01*
X129207071Y-140841573D01*
X129204079Y-140771767D01*
X129236761Y-140713895D01*
X132029503Y-137921153D01*
X132699500Y-137921153D01*
X132699500Y-138078846D01*
X132730261Y-138233489D01*
X132730264Y-138233501D01*
X132790602Y-138379172D01*
X132790609Y-138379185D01*
X132878210Y-138510288D01*
X132878213Y-138510292D01*
X132989707Y-138621786D01*
X132989711Y-138621789D01*
X133120814Y-138709390D01*
X133120827Y-138709397D01*
X133220060Y-138750500D01*
X133266503Y-138769737D01*
X133398897Y-138796072D01*
X133421153Y-138800499D01*
X133421156Y-138800500D01*
X133421158Y-138800500D01*
X133578844Y-138800500D01*
X133578845Y-138800499D01*
X133733497Y-138769737D01*
X133837476Y-138726668D01*
X133877864Y-138709939D01*
X133925316Y-138700500D01*
X145068996Y-138700500D01*
X145160040Y-138682389D01*
X145204328Y-138673580D01*
X145293973Y-138636448D01*
X145331807Y-138620777D01*
X145331808Y-138620776D01*
X145331811Y-138620775D01*
X145446543Y-138544114D01*
X145488318Y-138502337D01*
X145549639Y-138468852D01*
X145619331Y-138473835D01*
X145675266Y-138515705D01*
X145697525Y-138573024D01*
X145698311Y-138572868D01*
X145699199Y-138577332D01*
X145699402Y-138577855D01*
X145699499Y-138578841D01*
X145730261Y-138733489D01*
X145730264Y-138733501D01*
X145790061Y-138877864D01*
X145799500Y-138925316D01*
X145799500Y-145391006D01*
X145799500Y-145528994D01*
X145799500Y-145528996D01*
X145799499Y-145528996D01*
X145826418Y-145664322D01*
X145826421Y-145664332D01*
X145879222Y-145791807D01*
X145955887Y-145906545D01*
X145955888Y-145906546D01*
X155072358Y-155023015D01*
X155105843Y-155084338D01*
X155102611Y-155149004D01*
X155100832Y-155154480D01*
X155100831Y-155154483D01*
X155064500Y-155383870D01*
X155064500Y-155616129D01*
X155100831Y-155845514D01*
X155172601Y-156066400D01*
X155217484Y-156154486D01*
X155278039Y-156273331D01*
X155414551Y-156461224D01*
X155578776Y-156625449D01*
X155766669Y-156761961D01*
X155864436Y-156811776D01*
X155973599Y-156867398D01*
X155973601Y-156867398D01*
X155973604Y-156867400D01*
X156194486Y-156939169D01*
X156312668Y-156957886D01*
X156423871Y-156975500D01*
X156423876Y-156975500D01*
X156656129Y-156975500D01*
X156757502Y-156959443D01*
X156885514Y-156939169D01*
X157106396Y-156867400D01*
X157313331Y-156761961D01*
X157501224Y-156625449D01*
X157665449Y-156461224D01*
X157801961Y-156273331D01*
X157907400Y-156066396D01*
X157979169Y-155845514D01*
X157999443Y-155717502D01*
X158015500Y-155616129D01*
X158015500Y-155383870D01*
X162984500Y-155383870D01*
X162984500Y-155616129D01*
X163020831Y-155845514D01*
X163092601Y-156066400D01*
X163137484Y-156154486D01*
X163198039Y-156273331D01*
X163334551Y-156461224D01*
X163498776Y-156625449D01*
X163686669Y-156761961D01*
X163784436Y-156811776D01*
X163893599Y-156867398D01*
X163893601Y-156867398D01*
X163893604Y-156867400D01*
X164114486Y-156939169D01*
X164232668Y-156957886D01*
X164343871Y-156975500D01*
X164343876Y-156975500D01*
X164576129Y-156975500D01*
X164677502Y-156959443D01*
X164805514Y-156939169D01*
X165026396Y-156867400D01*
X165233331Y-156761961D01*
X165421224Y-156625449D01*
X165585449Y-156461224D01*
X165721961Y-156273331D01*
X165827400Y-156066396D01*
X165899169Y-155845514D01*
X165919443Y-155717502D01*
X165935500Y-155616129D01*
X165935500Y-155383870D01*
X165912402Y-155238039D01*
X165899169Y-155154486D01*
X165827400Y-154933604D01*
X165827398Y-154933601D01*
X165827398Y-154933599D01*
X165721960Y-154726668D01*
X165721958Y-154726665D01*
X165585449Y-154538776D01*
X165421224Y-154374551D01*
X165233331Y-154238039D01*
X165026400Y-154132601D01*
X164805514Y-154060831D01*
X164576129Y-154024500D01*
X164576124Y-154024500D01*
X164343876Y-154024500D01*
X164343871Y-154024500D01*
X164114485Y-154060831D01*
X163893599Y-154132601D01*
X163686668Y-154238039D01*
X163498773Y-154374553D01*
X163334553Y-154538773D01*
X163198039Y-154726668D01*
X163092601Y-154933599D01*
X163020831Y-155154485D01*
X162984500Y-155383870D01*
X158015500Y-155383870D01*
X157992402Y-155238039D01*
X157979169Y-155154486D01*
X157907400Y-154933604D01*
X157907398Y-154933601D01*
X157907398Y-154933599D01*
X157801960Y-154726668D01*
X157801958Y-154726665D01*
X157665449Y-154538776D01*
X157501224Y-154374551D01*
X157313331Y-154238039D01*
X157106400Y-154132601D01*
X156885514Y-154060831D01*
X156656129Y-154024500D01*
X156656124Y-154024500D01*
X156423876Y-154024500D01*
X156423871Y-154024500D01*
X156194483Y-154060831D01*
X156194480Y-154060832D01*
X156189004Y-154062611D01*
X156119163Y-154064600D01*
X156063015Y-154032358D01*
X147236819Y-145206162D01*
X147203334Y-145144839D01*
X147200500Y-145118481D01*
X147200500Y-144401577D01*
X149749500Y-144401577D01*
X149749500Y-144598422D01*
X149780290Y-144792826D01*
X149841117Y-144980030D01*
X149886717Y-145069524D01*
X149930476Y-145155405D01*
X150046172Y-145314646D01*
X156046171Y-151314645D01*
X156046172Y-151314646D01*
X156185354Y-151453828D01*
X156344595Y-151569524D01*
X156519975Y-151658884D01*
X156629546Y-151694486D01*
X156707173Y-151719709D01*
X156762718Y-151728506D01*
X156901578Y-151750500D01*
X156901583Y-151750500D01*
X163970664Y-151750500D01*
X164037703Y-151770185D01*
X164058345Y-151786819D01*
X168028181Y-155756655D01*
X168061666Y-155817978D01*
X168064500Y-155844336D01*
X168064500Y-156522870D01*
X168064501Y-156522876D01*
X168070908Y-156582483D01*
X168121202Y-156717328D01*
X168121206Y-156717335D01*
X168207452Y-156832544D01*
X168207455Y-156832547D01*
X168322664Y-156918793D01*
X168322671Y-156918797D01*
X168457517Y-156969091D01*
X168457516Y-156969091D01*
X168464444Y-156969835D01*
X168517127Y-156975500D01*
X170562872Y-156975499D01*
X170622483Y-156969091D01*
X170757331Y-156918796D01*
X170872546Y-156832546D01*
X170958796Y-156717331D01*
X171009091Y-156582483D01*
X171015500Y-156522873D01*
X171015499Y-154477128D01*
X171009091Y-154417517D01*
X170993066Y-154374553D01*
X170958797Y-154282671D01*
X170958793Y-154282664D01*
X170872547Y-154167455D01*
X170872544Y-154167452D01*
X170757335Y-154081206D01*
X170757328Y-154081202D01*
X170622482Y-154030908D01*
X170622483Y-154030908D01*
X170562883Y-154024501D01*
X170562881Y-154024500D01*
X170562873Y-154024500D01*
X170562865Y-154024500D01*
X169884336Y-154024500D01*
X169817297Y-154004815D01*
X169796655Y-153988181D01*
X165354648Y-149546174D01*
X165354646Y-149546172D01*
X165195405Y-149430476D01*
X165020030Y-149341117D01*
X164832826Y-149280290D01*
X164638422Y-149249500D01*
X164638417Y-149249500D01*
X157569336Y-149249500D01*
X157502297Y-149229815D01*
X157481655Y-149213181D01*
X151814648Y-143546174D01*
X151814646Y-143546172D01*
X151655405Y-143430476D01*
X151645639Y-143425500D01*
X151480030Y-143341117D01*
X151292826Y-143280290D01*
X151098422Y-143249500D01*
X151098417Y-143249500D01*
X150901583Y-143249500D01*
X150901578Y-143249500D01*
X150707173Y-143280290D01*
X150519969Y-143341117D01*
X150344594Y-143430476D01*
X150253741Y-143496485D01*
X150185354Y-143546172D01*
X150185352Y-143546174D01*
X150185351Y-143546174D01*
X150046174Y-143685351D01*
X150046174Y-143685352D01*
X150046172Y-143685354D01*
X150010188Y-143734882D01*
X149930476Y-143844594D01*
X149841117Y-144019969D01*
X149780290Y-144207173D01*
X149749500Y-144401577D01*
X147200500Y-144401577D01*
X147200500Y-140776577D01*
X150124500Y-140776577D01*
X150124500Y-140973422D01*
X150155290Y-141167826D01*
X150216117Y-141355029D01*
X150300158Y-141519967D01*
X150305476Y-141530405D01*
X150421172Y-141689646D01*
X150560354Y-141828828D01*
X150719595Y-141944524D01*
X150802455Y-141986743D01*
X150894970Y-142033882D01*
X150894972Y-142033882D01*
X150894975Y-142033884D01*
X150995317Y-142066487D01*
X151082173Y-142094709D01*
X151276578Y-142125500D01*
X151276583Y-142125500D01*
X151660852Y-142125500D01*
X151727891Y-142145185D01*
X151773646Y-142197989D01*
X151783590Y-142267147D01*
X151781426Y-142278446D01*
X151780290Y-142283175D01*
X151749500Y-142477577D01*
X151749500Y-142674422D01*
X151780290Y-142868826D01*
X151841117Y-143056029D01*
X151893525Y-143158884D01*
X151930476Y-143231405D01*
X152046172Y-143390646D01*
X152185354Y-143529828D01*
X152344595Y-143645524D01*
X152422760Y-143685351D01*
X152519970Y-143734882D01*
X152519972Y-143734882D01*
X152519975Y-143734884D01*
X152620317Y-143767487D01*
X152707173Y-143795709D01*
X152901578Y-143826500D01*
X152901583Y-143826500D01*
X153006664Y-143826500D01*
X153073703Y-143846185D01*
X153094345Y-143862819D01*
X154185354Y-144953828D01*
X154344595Y-145069524D01*
X154440679Y-145118481D01*
X154519976Y-145158885D01*
X154675428Y-145209394D01*
X154675427Y-145209394D01*
X154690706Y-145214358D01*
X154707174Y-145219709D01*
X154780077Y-145231255D01*
X154901578Y-145250500D01*
X154901583Y-145250500D01*
X165390664Y-145250500D01*
X165457703Y-145270185D01*
X165478345Y-145286819D01*
X175991979Y-155800453D01*
X176022228Y-155849815D01*
X176092600Y-156066396D01*
X176198039Y-156273331D01*
X176334551Y-156461224D01*
X176498776Y-156625449D01*
X176686669Y-156761961D01*
X176784436Y-156811776D01*
X176893599Y-156867398D01*
X176893601Y-156867398D01*
X176893604Y-156867400D01*
X177114486Y-156939169D01*
X177232668Y-156957886D01*
X177343871Y-156975500D01*
X177343876Y-156975500D01*
X177576129Y-156975500D01*
X177677502Y-156959443D01*
X177805514Y-156939169D01*
X178026396Y-156867400D01*
X178233331Y-156761961D01*
X178421224Y-156625449D01*
X178585449Y-156461224D01*
X178721961Y-156273331D01*
X178827400Y-156066396D01*
X178899169Y-155845514D01*
X178919443Y-155717502D01*
X178935500Y-155616129D01*
X178935500Y-155383870D01*
X178912402Y-155238039D01*
X178899169Y-155154486D01*
X178827400Y-154933604D01*
X178827398Y-154933601D01*
X178827398Y-154933599D01*
X178721960Y-154726668D01*
X178721958Y-154726665D01*
X178585449Y-154538776D01*
X178421224Y-154374551D01*
X178233331Y-154238039D01*
X178026396Y-154132600D01*
X177809815Y-154062228D01*
X177760453Y-154031979D01*
X166774648Y-143046174D01*
X166774646Y-143046172D01*
X166615405Y-142930476D01*
X166440030Y-142841117D01*
X166252826Y-142780290D01*
X166058422Y-142749500D01*
X166058417Y-142749500D01*
X155569336Y-142749500D01*
X155502297Y-142729815D01*
X155481655Y-142713181D01*
X155105655Y-142337181D01*
X155072170Y-142275858D01*
X155077154Y-142206166D01*
X155119026Y-142150233D01*
X155184490Y-142125816D01*
X155193336Y-142125500D01*
X167345664Y-142125500D01*
X167412703Y-142145185D01*
X167433345Y-142161819D01*
X181028181Y-155756655D01*
X181061666Y-155817978D01*
X181064500Y-155844336D01*
X181064500Y-156522870D01*
X181064501Y-156522876D01*
X181070908Y-156582483D01*
X181121202Y-156717328D01*
X181121206Y-156717335D01*
X181207452Y-156832544D01*
X181207455Y-156832547D01*
X181322664Y-156918793D01*
X181322671Y-156918797D01*
X181457517Y-156969091D01*
X181457516Y-156969091D01*
X181464444Y-156969835D01*
X181517127Y-156975500D01*
X183562872Y-156975499D01*
X183622483Y-156969091D01*
X183757331Y-156918796D01*
X183872546Y-156832546D01*
X183958796Y-156717331D01*
X184009091Y-156582483D01*
X184015500Y-156522873D01*
X184015499Y-154477128D01*
X184009091Y-154417517D01*
X183993066Y-154374553D01*
X183958797Y-154282671D01*
X183958793Y-154282664D01*
X183872547Y-154167455D01*
X183872544Y-154167452D01*
X183757335Y-154081206D01*
X183757328Y-154081202D01*
X183622482Y-154030908D01*
X183622483Y-154030908D01*
X183562883Y-154024501D01*
X183562881Y-154024500D01*
X183562873Y-154024500D01*
X183562865Y-154024500D01*
X182884336Y-154024500D01*
X182817297Y-154004815D01*
X182796655Y-153988181D01*
X180732344Y-151923870D01*
X192024500Y-151923870D01*
X192024500Y-152156129D01*
X192060831Y-152385514D01*
X192132601Y-152606400D01*
X192238039Y-152813331D01*
X192374551Y-153001224D01*
X192538776Y-153165449D01*
X192726669Y-153301961D01*
X192824436Y-153351776D01*
X192933599Y-153407398D01*
X192933601Y-153407398D01*
X192933604Y-153407400D01*
X193154486Y-153479169D01*
X193272668Y-153497886D01*
X193383871Y-153515500D01*
X193383876Y-153515500D01*
X193616129Y-153515500D01*
X193717502Y-153499443D01*
X193845514Y-153479169D01*
X194066396Y-153407400D01*
X194273331Y-153301961D01*
X194461224Y-153165449D01*
X194625449Y-153001224D01*
X194761961Y-152813331D01*
X194867400Y-152606396D01*
X194939169Y-152385514D01*
X194959443Y-152257502D01*
X194975500Y-152156129D01*
X194975500Y-151923870D01*
X194951158Y-151770185D01*
X194939169Y-151694486D01*
X194867400Y-151473604D01*
X194867398Y-151473601D01*
X194867398Y-151473599D01*
X194811776Y-151364436D01*
X194761961Y-151266669D01*
X194625449Y-151078776D01*
X194461224Y-150914551D01*
X194273331Y-150778039D01*
X194066400Y-150672601D01*
X193845514Y-150600831D01*
X193616129Y-150564500D01*
X193616124Y-150564500D01*
X193383876Y-150564500D01*
X193383871Y-150564500D01*
X193154485Y-150600831D01*
X192933599Y-150672601D01*
X192726668Y-150778039D01*
X192538773Y-150914553D01*
X192374553Y-151078773D01*
X192238039Y-151266668D01*
X192132601Y-151473599D01*
X192060831Y-151694485D01*
X192024500Y-151923870D01*
X180732344Y-151923870D01*
X168729648Y-139921174D01*
X168729646Y-139921172D01*
X168570405Y-139805476D01*
X168395030Y-139716117D01*
X168207826Y-139655290D01*
X168013422Y-139624500D01*
X168013417Y-139624500D01*
X151276583Y-139624500D01*
X151276578Y-139624500D01*
X151082173Y-139655290D01*
X150894970Y-139716117D01*
X150719594Y-139805476D01*
X150628741Y-139871485D01*
X150560354Y-139921172D01*
X150560352Y-139921174D01*
X150560351Y-139921174D01*
X150421174Y-140060351D01*
X150421174Y-140060352D01*
X150421172Y-140060354D01*
X150371485Y-140128741D01*
X150305476Y-140219594D01*
X150216117Y-140394970D01*
X150155290Y-140582173D01*
X150124500Y-140776577D01*
X147200500Y-140776577D01*
X147200500Y-138925316D01*
X147209939Y-138877864D01*
X147254540Y-138770185D01*
X147269737Y-138733497D01*
X147300500Y-138578842D01*
X147300500Y-138421158D01*
X147300500Y-138421155D01*
X147300499Y-138421153D01*
X147269738Y-138266510D01*
X147269737Y-138266503D01*
X147256062Y-138233489D01*
X147209397Y-138120827D01*
X147209390Y-138120814D01*
X147121789Y-137989711D01*
X147121786Y-137989707D01*
X147010292Y-137878213D01*
X147010288Y-137878210D01*
X146879185Y-137790609D01*
X146879172Y-137790602D01*
X146733501Y-137730264D01*
X146733491Y-137730261D01*
X146684374Y-137720491D01*
X146622463Y-137688106D01*
X146587889Y-137627389D01*
X146591630Y-137557620D01*
X146618296Y-137515304D01*
X146617924Y-137514999D01*
X146620357Y-137512033D01*
X146620891Y-137511186D01*
X146621789Y-137510289D01*
X146709394Y-137379179D01*
X146769737Y-137233497D01*
X146800500Y-137078842D01*
X146800500Y-136921158D01*
X146800500Y-136921155D01*
X146800499Y-136921153D01*
X146792148Y-136879172D01*
X146769737Y-136766503D01*
X146756062Y-136733489D01*
X146709397Y-136620827D01*
X146709390Y-136620814D01*
X146621789Y-136489711D01*
X146621786Y-136489707D01*
X146510292Y-136378213D01*
X146510288Y-136378210D01*
X146379185Y-136290609D01*
X146379172Y-136290602D01*
X146233501Y-136230264D01*
X146233489Y-136230261D01*
X146078840Y-136199499D01*
X146077856Y-136199402D01*
X146077373Y-136199207D01*
X146072868Y-136198311D01*
X146073038Y-136197456D01*
X146013070Y-136173238D01*
X145972714Y-136116201D01*
X145969602Y-136046400D01*
X146002334Y-135988321D01*
X147544114Y-134446543D01*
X147620775Y-134331811D01*
X147633745Y-134300500D01*
X147671480Y-134209397D01*
X147673580Y-134204328D01*
X147684287Y-134150500D01*
X147690114Y-134121206D01*
X147700500Y-134068995D01*
X147700500Y-133526577D01*
X149749500Y-133526577D01*
X149749500Y-133723422D01*
X149780290Y-133917826D01*
X149841117Y-134105030D01*
X149908268Y-134236819D01*
X149930476Y-134280405D01*
X150046172Y-134439646D01*
X154060355Y-138453829D01*
X154060361Y-138453833D01*
X154138064Y-138510289D01*
X154177274Y-138538776D01*
X154219595Y-138569524D01*
X154324699Y-138623077D01*
X154394970Y-138658882D01*
X154394972Y-138658882D01*
X154394975Y-138658884D01*
X154495317Y-138691487D01*
X154582173Y-138719709D01*
X154776578Y-138750500D01*
X154776583Y-138750500D01*
X154776584Y-138750500D01*
X154973417Y-138750500D01*
X177430664Y-138750500D01*
X177497703Y-138770185D01*
X177518345Y-138786819D01*
X186506171Y-147774645D01*
X186506172Y-147774646D01*
X186645354Y-147913828D01*
X186804595Y-148029524D01*
X186830029Y-148042483D01*
X186979979Y-148118886D01*
X187064223Y-148146258D01*
X187106346Y-148159944D01*
X187106347Y-148159945D01*
X187106348Y-148159945D01*
X187167173Y-148179709D01*
X187240076Y-148191255D01*
X187361578Y-148210500D01*
X187361583Y-148210500D01*
X187558416Y-148210500D01*
X192043965Y-148210500D01*
X192111004Y-148230185D01*
X192143232Y-148260190D01*
X192167449Y-148292541D01*
X192167452Y-148292544D01*
X192167454Y-148292546D01*
X192167457Y-148292548D01*
X192282664Y-148378793D01*
X192282671Y-148378797D01*
X192417517Y-148429091D01*
X192417516Y-148429091D01*
X192424444Y-148429835D01*
X192477127Y-148435500D01*
X194522872Y-148435499D01*
X194582483Y-148429091D01*
X194717331Y-148378796D01*
X194832546Y-148292546D01*
X194918796Y-148177331D01*
X194969091Y-148042483D01*
X194975500Y-147982873D01*
X194975499Y-145937128D01*
X194969166Y-145878211D01*
X194969091Y-145877516D01*
X194918797Y-145742671D01*
X194918793Y-145742664D01*
X194832547Y-145627455D01*
X194832544Y-145627452D01*
X194717335Y-145541206D01*
X194717328Y-145541202D01*
X194582482Y-145490908D01*
X194582483Y-145490908D01*
X194522883Y-145484501D01*
X194522881Y-145484500D01*
X194522873Y-145484500D01*
X194522864Y-145484500D01*
X192477129Y-145484500D01*
X192477123Y-145484501D01*
X192417516Y-145490908D01*
X192282671Y-145541202D01*
X192282664Y-145541206D01*
X192167457Y-145627451D01*
X192167449Y-145627458D01*
X192143232Y-145659810D01*
X192087299Y-145701682D01*
X192043965Y-145709500D01*
X188029336Y-145709500D01*
X187962297Y-145689815D01*
X187941655Y-145673181D01*
X178814648Y-136546174D01*
X178814646Y-136546172D01*
X178655405Y-136430476D01*
X178480030Y-136341117D01*
X178292826Y-136280290D01*
X178098422Y-136249500D01*
X178098417Y-136249500D01*
X155444336Y-136249500D01*
X155377297Y-136229815D01*
X155356655Y-136213181D01*
X152276235Y-133132761D01*
X152242750Y-133071438D01*
X152247734Y-133001746D01*
X152289606Y-132945813D01*
X152355070Y-132921396D01*
X152383316Y-132922607D01*
X152401580Y-132925500D01*
X152401583Y-132925500D01*
X177105664Y-132925500D01*
X177172703Y-132945185D01*
X177193345Y-132961819D01*
X184685354Y-140453828D01*
X184844595Y-140569524D01*
X185019974Y-140658884D01*
X185019976Y-140658884D01*
X185019979Y-140658886D01*
X185019977Y-140658886D01*
X185101138Y-140685256D01*
X185101139Y-140685256D01*
X185154156Y-140702482D01*
X185207173Y-140719709D01*
X185401578Y-140750500D01*
X185401583Y-140750500D01*
X192674405Y-140750500D01*
X192730700Y-140764015D01*
X192933599Y-140867398D01*
X192933601Y-140867398D01*
X192933604Y-140867400D01*
X193154486Y-140939169D01*
X193272668Y-140957886D01*
X193383871Y-140975500D01*
X193383876Y-140975500D01*
X193616129Y-140975500D01*
X193717502Y-140959443D01*
X193845514Y-140939169D01*
X194066396Y-140867400D01*
X194273331Y-140761961D01*
X194461224Y-140625449D01*
X194625449Y-140461224D01*
X194761961Y-140273331D01*
X194867400Y-140066396D01*
X194939169Y-139845514D01*
X194969297Y-139655290D01*
X194975500Y-139616129D01*
X194975500Y-139383870D01*
X194956232Y-139262222D01*
X194939169Y-139154486D01*
X194867400Y-138933604D01*
X194867398Y-138933601D01*
X194867398Y-138933599D01*
X194785496Y-138772859D01*
X194761961Y-138726669D01*
X194625449Y-138538776D01*
X194461224Y-138374551D01*
X194273331Y-138238039D01*
X194224545Y-138213181D01*
X194066400Y-138132601D01*
X193845514Y-138060831D01*
X193616129Y-138024500D01*
X193616124Y-138024500D01*
X193383876Y-138024500D01*
X193383871Y-138024500D01*
X193154485Y-138060831D01*
X192933599Y-138132601D01*
X192730700Y-138235985D01*
X192674405Y-138249500D01*
X186069336Y-138249500D01*
X186002297Y-138229815D01*
X185981655Y-138213181D01*
X178489648Y-130721174D01*
X178489646Y-130721172D01*
X178330405Y-130605476D01*
X178155030Y-130516117D01*
X178121861Y-130505340D01*
X178082128Y-130492430D01*
X178024455Y-130452993D01*
X177997257Y-130388635D01*
X178009172Y-130319788D01*
X178056416Y-130268312D01*
X178120449Y-130250500D01*
X184930664Y-130250500D01*
X184997703Y-130270185D01*
X185018345Y-130286819D01*
X190105355Y-135373829D01*
X190239107Y-135471006D01*
X190264595Y-135489524D01*
X190377140Y-135546868D01*
X190439970Y-135578882D01*
X190439972Y-135578882D01*
X190439975Y-135578884D01*
X190540317Y-135611487D01*
X190627173Y-135639709D01*
X190821578Y-135670500D01*
X190821583Y-135670500D01*
X190821584Y-135670500D01*
X191018417Y-135670500D01*
X192043965Y-135670500D01*
X192111004Y-135690185D01*
X192143232Y-135720190D01*
X192167449Y-135752541D01*
X192167452Y-135752544D01*
X192167454Y-135752546D01*
X192167457Y-135752548D01*
X192282664Y-135838793D01*
X192282671Y-135838797D01*
X192417517Y-135889091D01*
X192417516Y-135889091D01*
X192424444Y-135889835D01*
X192477127Y-135895500D01*
X194522872Y-135895499D01*
X194582483Y-135889091D01*
X194717331Y-135838796D01*
X194832546Y-135752546D01*
X194918796Y-135637331D01*
X194969091Y-135502483D01*
X194975500Y-135442873D01*
X194975499Y-133397128D01*
X194969091Y-133337517D01*
X194967098Y-133332174D01*
X194918797Y-133202671D01*
X194918793Y-133202664D01*
X194832547Y-133087455D01*
X194832544Y-133087452D01*
X194717335Y-133001206D01*
X194717328Y-133001202D01*
X194582482Y-132950908D01*
X194582483Y-132950908D01*
X194522883Y-132944501D01*
X194522881Y-132944500D01*
X194522873Y-132944500D01*
X194522864Y-132944500D01*
X192477129Y-132944500D01*
X192477123Y-132944501D01*
X192417516Y-132950908D01*
X192282671Y-133001202D01*
X192282664Y-133001206D01*
X192167457Y-133087451D01*
X192167449Y-133087458D01*
X192143232Y-133119810D01*
X192087299Y-133161682D01*
X192043965Y-133169500D01*
X191489336Y-133169500D01*
X191422297Y-133149815D01*
X191401655Y-133133181D01*
X186314648Y-128046174D01*
X186314647Y-128046173D01*
X186314646Y-128046172D01*
X186155405Y-127930476D01*
X186110112Y-127907398D01*
X185980030Y-127841117D01*
X185792826Y-127780290D01*
X185598422Y-127749500D01*
X185598417Y-127749500D01*
X152651583Y-127749500D01*
X152651578Y-127749500D01*
X152457173Y-127780290D01*
X152269969Y-127841117D01*
X152094594Y-127930476D01*
X152027576Y-127979168D01*
X151935355Y-128046171D01*
X151935353Y-128046173D01*
X151935352Y-128046173D01*
X150421174Y-129560351D01*
X150421174Y-129560352D01*
X150421172Y-129560354D01*
X150371485Y-129628741D01*
X150305476Y-129719594D01*
X150216117Y-129894969D01*
X150155290Y-130082173D01*
X150124500Y-130276577D01*
X150124500Y-130473422D01*
X150155290Y-130667826D01*
X150216117Y-130855030D01*
X150299968Y-131019595D01*
X150305476Y-131030405D01*
X150421172Y-131189646D01*
X150560354Y-131328828D01*
X150719595Y-131444524D01*
X150894974Y-131533884D01*
X151026388Y-131576583D01*
X151082170Y-131594708D01*
X151082174Y-131594709D01*
X151144897Y-131604643D01*
X151208032Y-131634572D01*
X151244964Y-131693883D01*
X151249500Y-131727116D01*
X151249500Y-131773422D01*
X151280290Y-131967826D01*
X151341117Y-132155029D01*
X151373581Y-132218741D01*
X151386477Y-132287410D01*
X151360201Y-132352151D01*
X151303095Y-132392408D01*
X151243698Y-132397509D01*
X151098422Y-132374500D01*
X151098417Y-132374500D01*
X150901583Y-132374500D01*
X150901578Y-132374500D01*
X150707173Y-132405290D01*
X150519969Y-132466117D01*
X150344594Y-132555476D01*
X150253741Y-132621485D01*
X150185354Y-132671172D01*
X150185352Y-132671174D01*
X150185351Y-132671174D01*
X150046174Y-132810351D01*
X150046174Y-132810352D01*
X150046172Y-132810354D01*
X149996871Y-132878210D01*
X149930476Y-132969594D01*
X149841117Y-133144969D01*
X149780290Y-133332173D01*
X149749500Y-133526577D01*
X147700500Y-133526577D01*
X147700500Y-128925316D01*
X147709939Y-128877864D01*
X147769735Y-128733501D01*
X147769737Y-128733497D01*
X147800500Y-128578842D01*
X147800500Y-128421158D01*
X147800500Y-128421155D01*
X147800499Y-128421153D01*
X147769738Y-128266510D01*
X147769737Y-128266503D01*
X147769735Y-128266498D01*
X147709397Y-128120827D01*
X147709390Y-128120814D01*
X147621789Y-127989711D01*
X147621786Y-127989707D01*
X147510292Y-127878213D01*
X147510288Y-127878210D01*
X147379185Y-127790609D01*
X147379172Y-127790602D01*
X147233501Y-127730264D01*
X147233489Y-127730261D01*
X147078845Y-127699500D01*
X147078842Y-127699500D01*
X146921158Y-127699500D01*
X146921155Y-127699500D01*
X146766510Y-127730261D01*
X146766498Y-127730264D01*
X146620827Y-127790602D01*
X146620814Y-127790609D01*
X146489711Y-127878210D01*
X146489707Y-127878213D01*
X146378213Y-127989707D01*
X146378210Y-127989711D01*
X146290609Y-128120814D01*
X146290602Y-128120827D01*
X146230264Y-128266498D01*
X146230261Y-128266510D01*
X146199500Y-128421153D01*
X146199500Y-128578846D01*
X146230261Y-128733489D01*
X146230264Y-128733501D01*
X146290061Y-128877864D01*
X146299500Y-128925316D01*
X146299500Y-133658481D01*
X146279815Y-133725520D01*
X146263181Y-133746162D01*
X144246162Y-135763181D01*
X144184839Y-135796666D01*
X144158481Y-135799500D01*
X135425316Y-135799500D01*
X135377864Y-135790061D01*
X135233501Y-135730264D01*
X135233489Y-135730261D01*
X135078845Y-135699500D01*
X135078842Y-135699500D01*
X134921158Y-135699500D01*
X134921155Y-135699500D01*
X134766510Y-135730261D01*
X134766498Y-135730264D01*
X134620827Y-135790602D01*
X134620814Y-135790609D01*
X134489711Y-135878210D01*
X134489707Y-135878213D01*
X134378213Y-135989707D01*
X134378210Y-135989711D01*
X134290609Y-136120814D01*
X134290602Y-136120827D01*
X134230264Y-136266498D01*
X134230261Y-136266510D01*
X134199500Y-136421153D01*
X134199500Y-136578846D01*
X134230261Y-136733489D01*
X134230264Y-136733501D01*
X134290602Y-136879172D01*
X134290609Y-136879185D01*
X134378210Y-137010288D01*
X134378213Y-137010292D01*
X134455740Y-137087819D01*
X134489225Y-137149142D01*
X134484241Y-137218834D01*
X134442369Y-137274767D01*
X134376905Y-137299184D01*
X134368059Y-137299500D01*
X133925316Y-137299500D01*
X133877864Y-137290061D01*
X133733501Y-137230264D01*
X133733489Y-137230261D01*
X133578845Y-137199500D01*
X133578842Y-137199500D01*
X133421158Y-137199500D01*
X133421155Y-137199500D01*
X133266510Y-137230261D01*
X133266498Y-137230264D01*
X133120827Y-137290602D01*
X133120814Y-137290609D01*
X132989711Y-137378210D01*
X132989707Y-137378213D01*
X132878213Y-137489707D01*
X132878210Y-137489711D01*
X132790609Y-137620814D01*
X132790602Y-137620827D01*
X132730264Y-137766498D01*
X132730261Y-137766510D01*
X132699500Y-137921153D01*
X132029503Y-137921153D01*
X135713838Y-134236819D01*
X135775161Y-134203334D01*
X135801519Y-134200500D01*
X138574684Y-134200500D01*
X138622136Y-134209939D01*
X138687031Y-134236819D01*
X138766503Y-134269737D01*
X138921153Y-134300499D01*
X138921156Y-134300500D01*
X138921158Y-134300500D01*
X139078844Y-134300500D01*
X139078845Y-134300499D01*
X139233497Y-134269737D01*
X139379179Y-134209394D01*
X139510289Y-134121789D01*
X139621789Y-134010289D01*
X139709394Y-133879179D01*
X139769737Y-133733497D01*
X139800500Y-133578842D01*
X139800500Y-133421158D01*
X139800500Y-133421155D01*
X139800499Y-133421153D01*
X139795719Y-133397123D01*
X139769737Y-133266503D01*
X139743297Y-133202671D01*
X139709397Y-133120827D01*
X139709390Y-133120814D01*
X139621789Y-132989711D01*
X139621786Y-132989707D01*
X139510292Y-132878213D01*
X139510288Y-132878210D01*
X139379185Y-132790609D01*
X139379172Y-132790602D01*
X139233501Y-132730264D01*
X139233489Y-132730261D01*
X139078845Y-132699500D01*
X139078842Y-132699500D01*
X138921158Y-132699500D01*
X138921155Y-132699500D01*
X138766510Y-132730261D01*
X138766498Y-132730264D01*
X138622136Y-132790061D01*
X138574684Y-132799500D01*
X135391004Y-132799500D01*
X135255677Y-132826418D01*
X135255667Y-132826421D01*
X135128192Y-132879222D01*
X135013454Y-132955887D01*
X129332893Y-138636448D01*
X129271570Y-138669933D01*
X129201878Y-138664949D01*
X129145945Y-138623077D01*
X129121528Y-138557613D01*
X129136380Y-138489340D01*
X129142110Y-138479876D01*
X129209394Y-138379179D01*
X129269737Y-138233497D01*
X129300500Y-138078842D01*
X129300500Y-137921158D01*
X129300500Y-137921155D01*
X129300499Y-137921153D01*
X129281847Y-137827385D01*
X129269737Y-137766503D01*
X129269191Y-137765184D01*
X129209397Y-137620827D01*
X129209390Y-137620814D01*
X129121789Y-137489711D01*
X129121786Y-137489707D01*
X129120885Y-137488806D01*
X129120563Y-137488217D01*
X129117924Y-137485001D01*
X129118533Y-137484500D01*
X129087400Y-137427483D01*
X129092384Y-137357791D01*
X129134256Y-137301858D01*
X129184372Y-137279508D01*
X129233497Y-137269737D01*
X129379179Y-137209394D01*
X129510289Y-137121789D01*
X129621789Y-137010289D01*
X129709394Y-136879179D01*
X129712142Y-136872546D01*
X129749563Y-136782202D01*
X129769737Y-136733497D01*
X129800500Y-136578842D01*
X129800500Y-136421158D01*
X129800500Y-136421155D01*
X129800499Y-136421153D01*
X129784579Y-136341117D01*
X129769737Y-136266503D01*
X129756515Y-136234582D01*
X129709397Y-136120827D01*
X129709390Y-136120814D01*
X129621789Y-135989711D01*
X129621786Y-135989707D01*
X129510292Y-135878213D01*
X129510288Y-135878210D01*
X129379185Y-135790609D01*
X129379172Y-135790602D01*
X129233501Y-135730264D01*
X129233489Y-135730261D01*
X129078845Y-135699500D01*
X129078842Y-135699500D01*
X128921158Y-135699500D01*
X128921155Y-135699500D01*
X128766510Y-135730261D01*
X128766498Y-135730264D01*
X128622136Y-135790061D01*
X128613959Y-135791687D01*
X128609619Y-135794477D01*
X128574684Y-135799500D01*
X128490519Y-135799500D01*
X128423480Y-135779815D01*
X128377725Y-135727011D01*
X128367781Y-135657853D01*
X128396806Y-135594297D01*
X128402838Y-135587819D01*
X128616831Y-135373826D01*
X131194586Y-132796069D01*
X131234810Y-132769192D01*
X131294367Y-132744524D01*
X131379173Y-132709397D01*
X131379176Y-132709395D01*
X131379179Y-132709394D01*
X131510289Y-132621789D01*
X131621789Y-132510289D01*
X131709394Y-132379179D01*
X131769737Y-132233497D01*
X131800500Y-132078842D01*
X131800500Y-131921158D01*
X131800500Y-131921155D01*
X131800499Y-131921153D01*
X131781850Y-131827398D01*
X131769737Y-131766503D01*
X131769191Y-131765184D01*
X131709397Y-131620827D01*
X131709390Y-131620814D01*
X131621789Y-131489711D01*
X131621786Y-131489707D01*
X131510292Y-131378213D01*
X131510288Y-131378210D01*
X131379185Y-131290609D01*
X131379172Y-131290602D01*
X131233501Y-131230264D01*
X131233489Y-131230261D01*
X131078845Y-131199500D01*
X131078842Y-131199500D01*
X130921158Y-131199500D01*
X130921155Y-131199500D01*
X130766510Y-131230261D01*
X130766498Y-131230264D01*
X130620827Y-131290602D01*
X130620814Y-131290609D01*
X130489711Y-131378210D01*
X130489707Y-131378213D01*
X130378213Y-131489707D01*
X130378210Y-131489711D01*
X130290609Y-131620814D01*
X130290604Y-131620823D01*
X130230809Y-131765184D01*
X130203929Y-131805412D01*
X127206162Y-134803181D01*
X127144839Y-134836666D01*
X127118481Y-134839500D01*
X107599499Y-134839500D01*
X107532460Y-134819815D01*
X107486705Y-134767011D01*
X107475499Y-134715500D01*
X107475499Y-134517129D01*
X107475498Y-134517123D01*
X107475497Y-134517116D01*
X107469091Y-134457517D01*
X107462426Y-134439648D01*
X107418797Y-134322671D01*
X107418793Y-134322664D01*
X107332547Y-134207455D01*
X107332544Y-134207452D01*
X107217335Y-134121206D01*
X107217328Y-134121202D01*
X107082482Y-134070908D01*
X107082483Y-134070908D01*
X107022883Y-134064501D01*
X107022881Y-134064500D01*
X107022873Y-134064500D01*
X107022864Y-134064500D01*
X104977129Y-134064500D01*
X104977123Y-134064501D01*
X104917516Y-134070908D01*
X104782671Y-134121202D01*
X104782664Y-134121206D01*
X104667455Y-134207452D01*
X104667452Y-134207455D01*
X104581206Y-134322664D01*
X104581202Y-134322671D01*
X104530908Y-134457517D01*
X104524501Y-134517116D01*
X104524501Y-134517123D01*
X104524500Y-134517135D01*
X100500500Y-134517135D01*
X100500500Y-130343870D01*
X104524500Y-130343870D01*
X104524500Y-130576129D01*
X104560831Y-130805514D01*
X104632601Y-131026400D01*
X104720801Y-131199500D01*
X104738039Y-131233331D01*
X104874551Y-131421224D01*
X105038776Y-131585449D01*
X105226669Y-131721961D01*
X105314087Y-131766503D01*
X105433599Y-131827398D01*
X105433601Y-131827398D01*
X105433604Y-131827400D01*
X105654486Y-131899169D01*
X105772668Y-131917886D01*
X105883871Y-131935500D01*
X105883876Y-131935500D01*
X106116129Y-131935500D01*
X106217502Y-131919443D01*
X106345514Y-131899169D01*
X106566396Y-131827400D01*
X106773331Y-131721961D01*
X106961224Y-131585449D01*
X107125449Y-131421224D01*
X107261961Y-131233331D01*
X107263525Y-131230261D01*
X107264575Y-131228202D01*
X107312550Y-131177407D01*
X107375058Y-131160500D01*
X129608996Y-131160500D01*
X129700040Y-131142389D01*
X129744328Y-131133580D01*
X129808069Y-131107177D01*
X129871807Y-131080777D01*
X129871808Y-131080776D01*
X129871811Y-131080775D01*
X129986543Y-131004114D01*
X130444588Y-130546067D01*
X130484810Y-130519192D01*
X130549420Y-130492431D01*
X130629173Y-130459397D01*
X130629176Y-130459395D01*
X130629179Y-130459394D01*
X130760289Y-130371789D01*
X130871789Y-130260289D01*
X130959394Y-130129179D01*
X131019737Y-129983497D01*
X131050500Y-129828842D01*
X131050500Y-129671158D01*
X131050500Y-129671155D01*
X131050499Y-129671153D01*
X131019737Y-129516503D01*
X131012393Y-129498773D01*
X130959397Y-129370827D01*
X130959390Y-129370814D01*
X130871789Y-129239711D01*
X130871786Y-129239707D01*
X130760292Y-129128213D01*
X130760288Y-129128210D01*
X130629185Y-129040609D01*
X130629172Y-129040602D01*
X130483501Y-128980264D01*
X130483489Y-128980261D01*
X130328845Y-128949500D01*
X130328842Y-128949500D01*
X130171158Y-128949500D01*
X130171155Y-128949500D01*
X130016510Y-128980261D01*
X130016498Y-128980264D01*
X129870827Y-129040602D01*
X129870814Y-129040609D01*
X129739711Y-129128210D01*
X129739707Y-129128213D01*
X129628213Y-129239707D01*
X129628210Y-129239711D01*
X129540609Y-129370814D01*
X129540602Y-129370827D01*
X129480809Y-129515184D01*
X129476176Y-129522116D01*
X129475080Y-129527159D01*
X129453932Y-129555409D01*
X129286160Y-129723182D01*
X129224839Y-129756666D01*
X129198481Y-129759500D01*
X107375058Y-129759500D01*
X107308019Y-129739815D01*
X107264575Y-129691798D01*
X107261962Y-129686671D01*
X107261960Y-129686668D01*
X107125449Y-129498776D01*
X106961224Y-129334551D01*
X106773331Y-129198039D01*
X106566400Y-129092601D01*
X106345514Y-129020831D01*
X106116129Y-128984500D01*
X106116124Y-128984500D01*
X105883876Y-128984500D01*
X105883871Y-128984500D01*
X105654485Y-129020831D01*
X105433599Y-129092601D01*
X105226668Y-129198039D01*
X105038773Y-129334553D01*
X104874553Y-129498773D01*
X104738039Y-129686668D01*
X104632601Y-129893599D01*
X104560831Y-130114485D01*
X104524500Y-130343870D01*
X100500500Y-130343870D01*
X100500500Y-125401577D01*
X133249500Y-125401577D01*
X133249500Y-125598422D01*
X133280290Y-125792826D01*
X133341117Y-125980030D01*
X133430476Y-126155405D01*
X133546172Y-126314646D01*
X133546174Y-126314648D01*
X139860355Y-132628830D01*
X139860360Y-132628834D01*
X139971247Y-132709397D01*
X140019595Y-132744524D01*
X140194974Y-132833884D01*
X140334519Y-132879225D01*
X140382174Y-132894709D01*
X140414575Y-132899840D01*
X140576578Y-132925500D01*
X140576583Y-132925500D01*
X142098422Y-132925500D01*
X142292826Y-132894709D01*
X142480025Y-132833884D01*
X142655405Y-132744524D01*
X142814646Y-132628828D01*
X142953828Y-132489646D01*
X143069524Y-132330405D01*
X143158884Y-132155025D01*
X143219709Y-131967826D01*
X143224829Y-131935500D01*
X143250500Y-131773422D01*
X143250500Y-131576577D01*
X143219709Y-131382173D01*
X143189955Y-131290602D01*
X143158884Y-131194975D01*
X143158882Y-131194972D01*
X143158882Y-131194970D01*
X143111743Y-131102455D01*
X143069524Y-131019595D01*
X142953828Y-130860354D01*
X142814646Y-130721172D01*
X142655405Y-130605476D01*
X142480029Y-130516117D01*
X142292826Y-130455290D01*
X142098422Y-130424500D01*
X142098417Y-130424500D01*
X141244337Y-130424500D01*
X141177298Y-130404815D01*
X141156656Y-130388181D01*
X139347317Y-128578842D01*
X137192344Y-126423870D01*
X192024500Y-126423870D01*
X192024500Y-126656129D01*
X192060831Y-126885514D01*
X192132601Y-127106400D01*
X192238039Y-127313331D01*
X192374551Y-127501224D01*
X192538776Y-127665449D01*
X192726669Y-127801961D01*
X192803515Y-127841116D01*
X192933599Y-127907398D01*
X192933601Y-127907398D01*
X192933604Y-127907400D01*
X193154486Y-127979169D01*
X193272668Y-127997886D01*
X193383871Y-128015500D01*
X193383876Y-128015500D01*
X193616129Y-128015500D01*
X193717502Y-127999443D01*
X193845514Y-127979169D01*
X194066396Y-127907400D01*
X194273331Y-127801961D01*
X194461224Y-127665449D01*
X194625449Y-127501224D01*
X194761961Y-127313331D01*
X194867400Y-127106396D01*
X194939169Y-126885514D01*
X194959443Y-126757502D01*
X194975500Y-126656129D01*
X194975500Y-126423870D01*
X194956232Y-126302222D01*
X194939169Y-126194486D01*
X194867400Y-125973604D01*
X194867398Y-125973601D01*
X194867398Y-125973599D01*
X194811776Y-125864436D01*
X194761961Y-125766669D01*
X194625449Y-125578776D01*
X194461224Y-125414551D01*
X194273331Y-125278039D01*
X194185921Y-125233501D01*
X194066400Y-125172601D01*
X193845514Y-125100831D01*
X193616129Y-125064500D01*
X193616124Y-125064500D01*
X193383876Y-125064500D01*
X193383871Y-125064500D01*
X193154485Y-125100831D01*
X192933599Y-125172601D01*
X192726668Y-125278039D01*
X192538773Y-125414553D01*
X192374553Y-125578773D01*
X192238039Y-125766668D01*
X192132601Y-125973599D01*
X192060831Y-126194485D01*
X192024500Y-126423870D01*
X137192344Y-126423870D01*
X135314646Y-124546172D01*
X135155405Y-124430476D01*
X134980030Y-124341117D01*
X134792826Y-124280290D01*
X134598422Y-124249500D01*
X134598417Y-124249500D01*
X134401583Y-124249500D01*
X134401578Y-124249500D01*
X134207173Y-124280290D01*
X134019969Y-124341117D01*
X133844594Y-124430476D01*
X133778247Y-124478681D01*
X133685354Y-124546172D01*
X133685352Y-124546174D01*
X133685351Y-124546174D01*
X133546174Y-124685351D01*
X133546174Y-124685352D01*
X133546172Y-124685354D01*
X133496485Y-124753741D01*
X133430476Y-124844594D01*
X133341117Y-125019969D01*
X133280290Y-125207173D01*
X133249500Y-125401577D01*
X100500500Y-125401577D01*
X100500500Y-122923909D01*
X105025000Y-122923909D01*
X105025000Y-123156090D01*
X105061318Y-123385393D01*
X105133065Y-123606205D01*
X105238465Y-123813064D01*
X105295238Y-123891207D01*
X105898958Y-123287487D01*
X105923978Y-123347890D01*
X105995112Y-123454351D01*
X106085649Y-123544888D01*
X106192110Y-123616022D01*
X106252510Y-123641041D01*
X105648791Y-124244759D01*
X105648791Y-124244760D01*
X105726935Y-124301534D01*
X105933794Y-124406934D01*
X106154606Y-124478681D01*
X106383910Y-124515000D01*
X106616090Y-124515000D01*
X106845393Y-124478681D01*
X107066205Y-124406934D01*
X107273071Y-124301530D01*
X107351207Y-124244762D01*
X107351208Y-124244760D01*
X106747488Y-123641041D01*
X106807890Y-123616022D01*
X106914351Y-123544888D01*
X107004888Y-123454351D01*
X107076022Y-123347890D01*
X107101041Y-123287489D01*
X107704760Y-123891208D01*
X107704762Y-123891207D01*
X107761530Y-123813071D01*
X107866934Y-123606205D01*
X107938681Y-123385393D01*
X107975000Y-123156090D01*
X107975000Y-122923909D01*
X107967429Y-122876109D01*
X107965127Y-122861577D01*
X123709500Y-122861577D01*
X123709500Y-123058422D01*
X123740290Y-123252826D01*
X123801117Y-123440030D01*
X123885788Y-123606205D01*
X123890476Y-123615405D01*
X124006172Y-123774646D01*
X124145354Y-123913828D01*
X124304595Y-124029524D01*
X124387454Y-124071742D01*
X124479969Y-124118882D01*
X124479971Y-124118882D01*
X124479974Y-124118884D01*
X124580318Y-124151487D01*
X124667173Y-124179709D01*
X124861578Y-124210500D01*
X124861583Y-124210500D01*
X125058422Y-124210500D01*
X125252826Y-124179709D01*
X125440026Y-124118884D01*
X125615405Y-124029524D01*
X125774646Y-123913828D01*
X128226656Y-121461819D01*
X128287979Y-121428334D01*
X128314337Y-121425500D01*
X142098422Y-121425500D01*
X142292826Y-121394709D01*
X142480025Y-121333884D01*
X142655405Y-121244524D01*
X142814646Y-121128828D01*
X142953828Y-120989646D01*
X143069524Y-120830405D01*
X143158884Y-120655025D01*
X143219709Y-120467826D01*
X143231960Y-120390476D01*
X143250500Y-120273422D01*
X143250500Y-120076577D01*
X143219709Y-119882173D01*
X143175865Y-119747237D01*
X143158884Y-119694975D01*
X143158882Y-119694972D01*
X143158882Y-119694970D01*
X143081716Y-119543524D01*
X143069524Y-119519595D01*
X142953828Y-119360354D01*
X142814646Y-119221172D01*
X142655405Y-119105476D01*
X142641549Y-119098416D01*
X142480029Y-119016117D01*
X142292826Y-118955290D01*
X142098422Y-118924500D01*
X142098417Y-118924500D01*
X127646583Y-118924500D01*
X127646578Y-118924500D01*
X127461323Y-118953842D01*
X127461322Y-118953842D01*
X127452175Y-118955290D01*
X127452170Y-118955291D01*
X127264971Y-119016117D01*
X127089591Y-119105478D01*
X126930360Y-119221165D01*
X126930355Y-119221169D01*
X124006174Y-122145351D01*
X124006172Y-122145354D01*
X123974613Y-122188791D01*
X123890476Y-122304594D01*
X123801117Y-122479969D01*
X123740290Y-122667173D01*
X123709500Y-122861577D01*
X107965127Y-122861577D01*
X107938681Y-122694606D01*
X107866934Y-122473794D01*
X107761534Y-122266935D01*
X107704760Y-122188791D01*
X107704759Y-122188791D01*
X107101041Y-122792510D01*
X107076022Y-122732110D01*
X107004888Y-122625649D01*
X106914351Y-122535112D01*
X106807890Y-122463978D01*
X106747487Y-122438957D01*
X107351207Y-121835238D01*
X107273064Y-121778465D01*
X107066205Y-121673065D01*
X106845393Y-121601318D01*
X106616090Y-121565000D01*
X106383910Y-121565000D01*
X106154606Y-121601318D01*
X105933794Y-121673065D01*
X105726925Y-121778470D01*
X105648791Y-121835237D01*
X105648791Y-121835238D01*
X106252511Y-122438958D01*
X106192110Y-122463978D01*
X106085649Y-122535112D01*
X105995112Y-122625649D01*
X105923978Y-122732110D01*
X105898958Y-122792511D01*
X105295238Y-122188791D01*
X105295237Y-122188791D01*
X105238470Y-122266925D01*
X105133065Y-122473794D01*
X105061318Y-122694606D01*
X105025000Y-122923909D01*
X100500500Y-122923909D01*
X100500500Y-116937135D01*
X105024500Y-116937135D01*
X105024500Y-118982870D01*
X105024501Y-118982876D01*
X105030908Y-119042483D01*
X105081202Y-119177328D01*
X105081206Y-119177335D01*
X105167452Y-119292544D01*
X105167455Y-119292547D01*
X105282664Y-119378793D01*
X105282671Y-119378797D01*
X105417517Y-119429091D01*
X105417516Y-119429091D01*
X105424444Y-119429835D01*
X105477127Y-119435500D01*
X107522872Y-119435499D01*
X107582483Y-119429091D01*
X107717331Y-119378796D01*
X107832546Y-119292546D01*
X107918796Y-119177331D01*
X107969091Y-119042483D01*
X107975500Y-118982873D01*
X107975499Y-116937128D01*
X107969091Y-116877517D01*
X107951032Y-116829099D01*
X107918797Y-116742671D01*
X107918793Y-116742664D01*
X107832547Y-116627455D01*
X107832544Y-116627452D01*
X107717335Y-116541206D01*
X107717328Y-116541202D01*
X107582482Y-116490908D01*
X107582483Y-116490908D01*
X107522883Y-116484501D01*
X107522881Y-116484500D01*
X107522873Y-116484500D01*
X107522864Y-116484500D01*
X105477129Y-116484500D01*
X105477123Y-116484501D01*
X105417516Y-116490908D01*
X105282671Y-116541202D01*
X105282664Y-116541206D01*
X105167455Y-116627452D01*
X105167452Y-116627455D01*
X105081206Y-116742664D01*
X105081202Y-116742671D01*
X105030908Y-116877517D01*
X105026217Y-116921158D01*
X105024501Y-116937123D01*
X105024500Y-116937135D01*
X100500500Y-116937135D01*
X100500500Y-109883909D01*
X105025000Y-109883909D01*
X105025000Y-110116090D01*
X105061318Y-110345393D01*
X105133065Y-110566205D01*
X105238465Y-110773064D01*
X105295238Y-110851207D01*
X105898958Y-110247487D01*
X105923978Y-110307890D01*
X105995112Y-110414351D01*
X106085649Y-110504888D01*
X106192110Y-110576022D01*
X106252510Y-110601041D01*
X105648791Y-111204759D01*
X105648791Y-111204760D01*
X105726935Y-111261534D01*
X105933794Y-111366934D01*
X106154606Y-111438681D01*
X106383910Y-111475000D01*
X106616090Y-111475000D01*
X106845393Y-111438681D01*
X107066205Y-111366934D01*
X107273071Y-111261530D01*
X107351207Y-111204762D01*
X107351208Y-111204760D01*
X106747488Y-110601041D01*
X106807890Y-110576022D01*
X106914351Y-110504888D01*
X107004888Y-110414351D01*
X107076022Y-110307890D01*
X107101041Y-110247489D01*
X107704760Y-110851208D01*
X107704762Y-110851207D01*
X107761530Y-110773071D01*
X107866934Y-110566205D01*
X107938681Y-110345393D01*
X107975000Y-110116090D01*
X107975000Y-109883909D01*
X107938681Y-109654606D01*
X107866934Y-109433794D01*
X107761534Y-109226935D01*
X107704760Y-109148791D01*
X107704759Y-109148791D01*
X107101041Y-109752510D01*
X107076022Y-109692110D01*
X107004888Y-109585649D01*
X106914351Y-109495112D01*
X106807890Y-109423978D01*
X106747487Y-109398957D01*
X107351207Y-108795238D01*
X107273064Y-108738465D01*
X107066205Y-108633065D01*
X106845393Y-108561318D01*
X106616090Y-108525000D01*
X106383910Y-108525000D01*
X106154606Y-108561318D01*
X105933794Y-108633065D01*
X105726925Y-108738470D01*
X105648791Y-108795237D01*
X105648791Y-108795238D01*
X106252511Y-109398958D01*
X106192110Y-109423978D01*
X106085649Y-109495112D01*
X105995112Y-109585649D01*
X105923978Y-109692110D01*
X105898958Y-109752511D01*
X105295238Y-109148791D01*
X105295237Y-109148791D01*
X105238470Y-109226925D01*
X105133065Y-109433794D01*
X105061318Y-109654606D01*
X105025000Y-109883909D01*
X100500500Y-109883909D01*
X100500500Y-103897135D01*
X105024500Y-103897135D01*
X105024500Y-105942870D01*
X105024501Y-105942876D01*
X105030908Y-106002483D01*
X105081202Y-106137328D01*
X105081206Y-106137335D01*
X105167452Y-106252544D01*
X105167455Y-106252547D01*
X105282664Y-106338793D01*
X105282671Y-106338797D01*
X105417517Y-106389091D01*
X105417516Y-106389091D01*
X105424444Y-106389835D01*
X105477127Y-106395500D01*
X107522872Y-106395499D01*
X107582483Y-106389091D01*
X107717331Y-106338796D01*
X107832546Y-106252546D01*
X107918796Y-106137331D01*
X107969091Y-106002483D01*
X107975500Y-105942873D01*
X107975499Y-103897128D01*
X107969091Y-103837517D01*
X107927747Y-103726669D01*
X107918797Y-103702671D01*
X107918793Y-103702664D01*
X107832547Y-103587455D01*
X107832544Y-103587453D01*
X107717331Y-103501204D01*
X107717330Y-103501203D01*
X107717328Y-103501202D01*
X107652801Y-103477135D01*
X114984500Y-103477135D01*
X114984500Y-105522870D01*
X114984501Y-105522876D01*
X114990908Y-105582483D01*
X115041202Y-105717328D01*
X115041206Y-105717335D01*
X115127452Y-105832544D01*
X115127455Y-105832547D01*
X115242664Y-105918793D01*
X115242671Y-105918797D01*
X115287618Y-105935561D01*
X115377517Y-105969091D01*
X115437127Y-105975500D01*
X115635500Y-105975499D01*
X115702539Y-105995183D01*
X115748294Y-106047987D01*
X115759500Y-106099499D01*
X115759500Y-111391006D01*
X115759500Y-111528994D01*
X115759500Y-111528996D01*
X115759499Y-111528996D01*
X115786418Y-111664322D01*
X115786421Y-111664332D01*
X115839222Y-111791807D01*
X115915887Y-111906545D01*
X115915888Y-111906546D01*
X116203927Y-112194584D01*
X116230807Y-112234812D01*
X116290604Y-112379176D01*
X116290609Y-112379185D01*
X116378210Y-112510288D01*
X116378213Y-112510292D01*
X116489707Y-112621786D01*
X116489711Y-112621789D01*
X116620814Y-112709390D01*
X116620827Y-112709397D01*
X116759096Y-112766669D01*
X116766503Y-112769737D01*
X116921153Y-112800499D01*
X116921156Y-112800500D01*
X116921158Y-112800500D01*
X117078844Y-112800500D01*
X117078845Y-112800499D01*
X117233497Y-112769737D01*
X117379179Y-112709394D01*
X117510289Y-112621789D01*
X117621789Y-112510289D01*
X117709394Y-112379179D01*
X117769737Y-112233497D01*
X117800500Y-112078842D01*
X117800500Y-111921158D01*
X117800500Y-111921155D01*
X117800499Y-111921153D01*
X117797593Y-111906543D01*
X117769737Y-111766503D01*
X117764186Y-111753102D01*
X117709397Y-111620827D01*
X117709390Y-111620814D01*
X117621789Y-111489711D01*
X117621786Y-111489707D01*
X117510292Y-111378213D01*
X117510288Y-111378210D01*
X117379185Y-111290609D01*
X117379176Y-111290604D01*
X117237047Y-111231733D01*
X117182644Y-111187892D01*
X117160579Y-111121598D01*
X117160500Y-111117172D01*
X117160500Y-106099499D01*
X117180185Y-106032460D01*
X117232989Y-105986705D01*
X117284500Y-105975499D01*
X117482871Y-105975499D01*
X117482872Y-105975499D01*
X117542483Y-105969091D01*
X117677331Y-105918796D01*
X117792546Y-105832546D01*
X117878796Y-105717331D01*
X117929091Y-105582483D01*
X117935500Y-105522873D01*
X117935499Y-104383870D01*
X120064500Y-104383870D01*
X120064500Y-104616129D01*
X120100831Y-104845514D01*
X120172601Y-105066400D01*
X120278039Y-105273331D01*
X120414551Y-105461224D01*
X120578776Y-105625449D01*
X120766669Y-105761961D01*
X120771790Y-105764570D01*
X120822587Y-105812540D01*
X120839500Y-105875057D01*
X120839500Y-115471006D01*
X120839500Y-115608994D01*
X120839500Y-115608996D01*
X120839499Y-115608996D01*
X120866418Y-115744322D01*
X120866421Y-115744332D01*
X120919222Y-115871807D01*
X120995887Y-115986545D01*
X120995888Y-115986546D01*
X124203928Y-119194585D01*
X124230808Y-119234814D01*
X124290602Y-119379172D01*
X124290609Y-119379185D01*
X124378210Y-119510288D01*
X124378213Y-119510292D01*
X124489707Y-119621786D01*
X124489711Y-119621789D01*
X124620814Y-119709390D01*
X124620827Y-119709397D01*
X124717646Y-119749500D01*
X124766503Y-119769737D01*
X124917101Y-119799693D01*
X124921153Y-119800499D01*
X124921156Y-119800500D01*
X124921158Y-119800500D01*
X125078844Y-119800500D01*
X125078845Y-119800499D01*
X125233497Y-119769737D01*
X125379179Y-119709394D01*
X125510289Y-119621789D01*
X125621789Y-119510289D01*
X125709394Y-119379179D01*
X125769737Y-119233497D01*
X125800500Y-119078842D01*
X125800500Y-118921158D01*
X125800500Y-118921155D01*
X125800499Y-118921153D01*
X125796605Y-118901577D01*
X125769737Y-118766503D01*
X125745162Y-118707173D01*
X125709397Y-118620827D01*
X125709390Y-118620814D01*
X125621789Y-118489711D01*
X125621786Y-118489707D01*
X125510292Y-118378213D01*
X125510288Y-118378210D01*
X125379185Y-118290609D01*
X125379172Y-118290602D01*
X125234814Y-118230808D01*
X125194585Y-118203928D01*
X122276819Y-115286162D01*
X122243334Y-115224839D01*
X122240500Y-115198481D01*
X122240500Y-105875057D01*
X122260185Y-105808018D01*
X122308209Y-105764570D01*
X122313331Y-105761961D01*
X122501224Y-105625449D01*
X122665449Y-105461224D01*
X122801961Y-105273331D01*
X122907400Y-105066396D01*
X122979169Y-104845514D01*
X123006096Y-104675500D01*
X123015500Y-104616129D01*
X123015500Y-104383870D01*
X122981223Y-104167457D01*
X122979169Y-104154486D01*
X122907400Y-103933604D01*
X122907398Y-103933601D01*
X122907398Y-103933599D01*
X122832609Y-103786819D01*
X122801961Y-103726669D01*
X122665449Y-103538776D01*
X122501224Y-103374551D01*
X122313331Y-103238039D01*
X122106396Y-103132600D01*
X121948216Y-103081204D01*
X121885514Y-103060830D01*
X121656129Y-103024500D01*
X121656124Y-103024500D01*
X121423876Y-103024500D01*
X121423871Y-103024500D01*
X121194485Y-103060831D01*
X120973599Y-103132601D01*
X120766668Y-103238039D01*
X120578773Y-103374553D01*
X120414553Y-103538773D01*
X120278039Y-103726668D01*
X120172601Y-103933599D01*
X120100831Y-104154485D01*
X120064500Y-104383870D01*
X117935499Y-104383870D01*
X117935499Y-103477128D01*
X117929091Y-103417517D01*
X117913066Y-103374553D01*
X117878797Y-103282671D01*
X117878793Y-103282664D01*
X117792547Y-103167455D01*
X117792544Y-103167452D01*
X117677335Y-103081206D01*
X117677328Y-103081202D01*
X117542482Y-103030908D01*
X117542483Y-103030908D01*
X117482883Y-103024501D01*
X117482881Y-103024500D01*
X117482873Y-103024500D01*
X117482864Y-103024500D01*
X115437129Y-103024500D01*
X115437123Y-103024501D01*
X115377516Y-103030908D01*
X115242671Y-103081202D01*
X115242664Y-103081206D01*
X115127455Y-103167452D01*
X115127452Y-103167455D01*
X115041206Y-103282664D01*
X115041202Y-103282671D01*
X114990908Y-103417517D01*
X114984501Y-103477116D01*
X114984501Y-103477123D01*
X114984500Y-103477135D01*
X107652801Y-103477135D01*
X107582482Y-103450908D01*
X107582483Y-103450908D01*
X107522883Y-103444501D01*
X107522881Y-103444500D01*
X107522873Y-103444500D01*
X107522864Y-103444500D01*
X105477129Y-103444500D01*
X105477123Y-103444501D01*
X105417516Y-103450908D01*
X105282671Y-103501202D01*
X105282664Y-103501206D01*
X105167455Y-103587452D01*
X105167452Y-103587455D01*
X105081206Y-103702664D01*
X105081202Y-103702671D01*
X105030908Y-103837517D01*
X105024501Y-103897116D01*
X105024501Y-103897123D01*
X105024500Y-103897135D01*
X100500500Y-103897135D01*
X100500500Y-102977135D01*
X127484500Y-102977135D01*
X127484500Y-105022870D01*
X127484501Y-105022876D01*
X127490908Y-105082483D01*
X127541202Y-105217328D01*
X127541206Y-105217335D01*
X127627452Y-105332544D01*
X127627455Y-105332547D01*
X127742664Y-105418793D01*
X127742671Y-105418797D01*
X127782358Y-105433599D01*
X127877517Y-105469091D01*
X127937127Y-105475500D01*
X128135500Y-105475499D01*
X128202539Y-105495183D01*
X128248294Y-105547987D01*
X128259500Y-105599499D01*
X128259500Y-108891006D01*
X128259500Y-109028994D01*
X128259500Y-109028996D01*
X128259499Y-109028996D01*
X128286418Y-109164322D01*
X128286421Y-109164332D01*
X128339222Y-109291807D01*
X128415887Y-109406545D01*
X128415888Y-109406546D01*
X131203928Y-112194585D01*
X131230808Y-112234814D01*
X131290602Y-112379172D01*
X131290609Y-112379185D01*
X131378210Y-112510288D01*
X131378213Y-112510292D01*
X131489707Y-112621786D01*
X131489711Y-112621789D01*
X131620814Y-112709390D01*
X131620827Y-112709397D01*
X131759096Y-112766669D01*
X131766503Y-112769737D01*
X131921153Y-112800499D01*
X131921156Y-112800500D01*
X131921158Y-112800500D01*
X132078844Y-112800500D01*
X132078845Y-112800499D01*
X132233497Y-112769737D01*
X132379179Y-112709394D01*
X132510289Y-112621789D01*
X132621789Y-112510289D01*
X132709394Y-112379179D01*
X132769737Y-112233497D01*
X132800500Y-112078842D01*
X132800500Y-111921158D01*
X132800500Y-111921155D01*
X132800499Y-111921153D01*
X132797593Y-111906543D01*
X132769737Y-111766503D01*
X132764186Y-111753102D01*
X132709397Y-111620827D01*
X132709390Y-111620814D01*
X132621789Y-111489711D01*
X132621786Y-111489707D01*
X132510292Y-111378213D01*
X132510288Y-111378210D01*
X132379185Y-111290609D01*
X132379172Y-111290602D01*
X132234814Y-111230808D01*
X132194585Y-111203928D01*
X129696819Y-108706162D01*
X129663334Y-108644839D01*
X129660500Y-108618481D01*
X129660500Y-105599499D01*
X129680185Y-105532460D01*
X129732989Y-105486705D01*
X129784500Y-105475499D01*
X129982871Y-105475499D01*
X129982872Y-105475499D01*
X130042483Y-105469091D01*
X130177331Y-105418796D01*
X130292546Y-105332546D01*
X130378796Y-105217331D01*
X130429091Y-105082483D01*
X130435500Y-105022873D01*
X130435499Y-103883870D01*
X132564500Y-103883870D01*
X132564500Y-104116129D01*
X132600831Y-104345514D01*
X132672601Y-104566400D01*
X132778039Y-104773331D01*
X132914551Y-104961224D01*
X133078776Y-105125449D01*
X133266669Y-105261961D01*
X133271790Y-105264570D01*
X133322587Y-105312540D01*
X133339500Y-105375057D01*
X133339500Y-109574684D01*
X133330061Y-109622136D01*
X133270264Y-109766498D01*
X133270261Y-109766510D01*
X133239500Y-109921153D01*
X133239500Y-110078846D01*
X133270261Y-110233489D01*
X133270264Y-110233501D01*
X133330602Y-110379172D01*
X133330609Y-110379185D01*
X133418210Y-110510288D01*
X133418213Y-110510292D01*
X133529707Y-110621786D01*
X133529711Y-110621789D01*
X133660814Y-110709390D01*
X133660827Y-110709397D01*
X133798683Y-110766498D01*
X133806503Y-110769737D01*
X133961153Y-110800499D01*
X133961156Y-110800500D01*
X133961158Y-110800500D01*
X134118844Y-110800500D01*
X134118845Y-110800499D01*
X134273497Y-110769737D01*
X134419179Y-110709394D01*
X134550289Y-110621789D01*
X134661789Y-110510289D01*
X134749394Y-110379179D01*
X134809737Y-110233497D01*
X134840500Y-110078842D01*
X134840500Y-109921158D01*
X134840500Y-109921155D01*
X134840499Y-109921153D01*
X134827562Y-109856116D01*
X134809737Y-109766503D01*
X134800552Y-109744328D01*
X134749939Y-109622136D01*
X134740500Y-109574684D01*
X134740500Y-107401577D01*
X137249500Y-107401577D01*
X137249500Y-109098422D01*
X137280290Y-109292826D01*
X137341117Y-109480030D01*
X137425911Y-109646446D01*
X137430476Y-109655405D01*
X137546172Y-109814646D01*
X139561171Y-111829645D01*
X139561172Y-111829646D01*
X139700354Y-111968828D01*
X139859595Y-112084524D01*
X140034975Y-112173884D01*
X140144263Y-112209394D01*
X140222173Y-112234709D01*
X140277718Y-112243506D01*
X140416578Y-112265500D01*
X141265733Y-112265500D01*
X141332772Y-112285185D01*
X141378527Y-112337989D01*
X141388471Y-112407147D01*
X141359446Y-112470703D01*
X141338619Y-112489817D01*
X141185354Y-112601172D01*
X141185352Y-112601174D01*
X141185351Y-112601174D01*
X141046174Y-112740351D01*
X141046174Y-112740352D01*
X141046172Y-112740354D01*
X141024824Y-112769737D01*
X140930476Y-112899594D01*
X140841117Y-113074969D01*
X140780290Y-113262173D01*
X140749500Y-113456577D01*
X140749500Y-113653422D01*
X140780290Y-113847826D01*
X140841117Y-114035030D01*
X140913183Y-114176465D01*
X140930476Y-114210405D01*
X141046172Y-114369646D01*
X142991171Y-116314645D01*
X142991172Y-116314646D01*
X143130354Y-116453828D01*
X143289595Y-116569524D01*
X143403286Y-116627452D01*
X143464979Y-116658886D01*
X143549223Y-116686258D01*
X143591346Y-116699944D01*
X143591347Y-116699945D01*
X143591348Y-116699945D01*
X143652173Y-116719709D01*
X143725076Y-116731255D01*
X143846578Y-116750500D01*
X143846583Y-116750500D01*
X144043416Y-116750500D01*
X146959480Y-116750500D01*
X147026519Y-116770185D01*
X147072274Y-116822989D01*
X147082218Y-116892147D01*
X147053193Y-116955703D01*
X147047161Y-116962181D01*
X145955888Y-118053453D01*
X145955887Y-118053454D01*
X145879222Y-118168192D01*
X145826421Y-118295667D01*
X145826420Y-118295671D01*
X145826420Y-118295672D01*
X145810525Y-118375583D01*
X145810002Y-118378211D01*
X145799500Y-118431005D01*
X145799500Y-124574684D01*
X145790061Y-124622136D01*
X145730264Y-124766498D01*
X145730261Y-124766510D01*
X145699500Y-124921153D01*
X145699500Y-125078846D01*
X145730261Y-125233489D01*
X145730264Y-125233501D01*
X145790602Y-125379172D01*
X145790609Y-125379185D01*
X145878210Y-125510288D01*
X145878213Y-125510292D01*
X145989707Y-125621786D01*
X145989711Y-125621789D01*
X146120814Y-125709390D01*
X146120827Y-125709397D01*
X146259096Y-125766669D01*
X146266503Y-125769737D01*
X146421153Y-125800499D01*
X146421156Y-125800500D01*
X146421158Y-125800500D01*
X146578844Y-125800500D01*
X146578845Y-125800499D01*
X146733497Y-125769737D01*
X146879179Y-125709394D01*
X147010289Y-125621789D01*
X147121789Y-125510289D01*
X147209394Y-125379179D01*
X147269737Y-125233497D01*
X147300500Y-125078842D01*
X147300500Y-124921158D01*
X147300500Y-124921155D01*
X147300499Y-124921153D01*
X147269737Y-124766503D01*
X147236124Y-124685354D01*
X147209939Y-124622136D01*
X147200500Y-124574684D01*
X147200500Y-118841518D01*
X147220185Y-118774479D01*
X147236819Y-118753837D01*
X147615079Y-118375577D01*
X149749500Y-118375577D01*
X149749500Y-118572422D01*
X149780290Y-118766826D01*
X149841117Y-118954029D01*
X149886187Y-119042483D01*
X149930476Y-119129405D01*
X150046172Y-119288646D01*
X150185354Y-119427828D01*
X150344595Y-119543524D01*
X150519973Y-119632883D01*
X150519974Y-119632883D01*
X150519975Y-119632884D01*
X150552477Y-119643444D01*
X150610151Y-119682879D01*
X150637350Y-119747237D01*
X150632090Y-119799693D01*
X150605291Y-119882169D01*
X150605291Y-119882172D01*
X150574500Y-120076577D01*
X150574500Y-120273422D01*
X150605290Y-120467826D01*
X150666117Y-120655030D01*
X150742325Y-120804595D01*
X150755476Y-120830405D01*
X150871172Y-120989646D01*
X150871174Y-120989648D01*
X150927570Y-121046044D01*
X150961055Y-121107367D01*
X150956071Y-121177059D01*
X150914199Y-121232992D01*
X150859287Y-121256198D01*
X150707173Y-121280290D01*
X150519969Y-121341117D01*
X150344594Y-121430476D01*
X150301455Y-121461819D01*
X150185354Y-121546172D01*
X150185352Y-121546174D01*
X150185351Y-121546174D01*
X150046174Y-121685351D01*
X150046174Y-121685352D01*
X150046172Y-121685354D01*
X150040952Y-121692539D01*
X149930476Y-121844594D01*
X149841117Y-122019969D01*
X149780290Y-122207173D01*
X149749500Y-122401577D01*
X149749500Y-122598422D01*
X149780290Y-122792826D01*
X149841117Y-122980030D01*
X149930476Y-123155405D01*
X150046172Y-123314646D01*
X150046174Y-123314648D01*
X150685355Y-123953830D01*
X150685360Y-123953834D01*
X150824250Y-124054742D01*
X150844595Y-124069524D01*
X150941466Y-124118882D01*
X151019978Y-124158886D01*
X151084066Y-124179709D01*
X151084067Y-124179709D01*
X151145620Y-124199709D01*
X151207173Y-124219709D01*
X151401578Y-124250500D01*
X151401583Y-124250500D01*
X194518422Y-124250500D01*
X194712826Y-124219709D01*
X194741168Y-124210500D01*
X194900026Y-124158884D01*
X195075405Y-124069524D01*
X195234646Y-123953828D01*
X196913828Y-122274646D01*
X197029524Y-122115405D01*
X197118884Y-121940026D01*
X197179709Y-121752826D01*
X197183354Y-121729815D01*
X197210500Y-121558421D01*
X197210500Y-121361577D01*
X197179709Y-121167173D01*
X197122027Y-120989647D01*
X197118884Y-120979974D01*
X197118882Y-120979971D01*
X197118882Y-120979969D01*
X197029523Y-120804594D01*
X196913828Y-120645354D01*
X196774646Y-120506172D01*
X196615405Y-120390476D01*
X196589970Y-120377516D01*
X196440030Y-120301117D01*
X196252826Y-120240290D01*
X196058422Y-120209500D01*
X196058417Y-120209500D01*
X195861584Y-120209500D01*
X195861579Y-120209500D01*
X195667173Y-120240290D01*
X195479969Y-120301117D01*
X195304591Y-120390478D01*
X195167970Y-120489739D01*
X195102164Y-120513219D01*
X195034110Y-120497393D01*
X194985415Y-120447288D01*
X194971795Y-120402673D01*
X194969091Y-120377516D01*
X194918797Y-120242671D01*
X194918793Y-120242664D01*
X194832547Y-120127455D01*
X194832544Y-120127452D01*
X194717335Y-120041206D01*
X194717328Y-120041202D01*
X194582482Y-119990908D01*
X194582483Y-119990908D01*
X194522883Y-119984501D01*
X194522881Y-119984500D01*
X194522873Y-119984500D01*
X194522864Y-119984500D01*
X192477129Y-119984500D01*
X192477123Y-119984501D01*
X192417516Y-119990908D01*
X192282671Y-120041202D01*
X192282664Y-120041206D01*
X192167455Y-120127452D01*
X192167452Y-120127455D01*
X192081206Y-120242664D01*
X192081202Y-120242671D01*
X192030908Y-120377517D01*
X192029515Y-120390478D01*
X192024500Y-120437127D01*
X192024500Y-121046044D01*
X192024501Y-121625500D01*
X192004816Y-121692539D01*
X191952013Y-121738294D01*
X191900501Y-121749500D01*
X187358336Y-121749500D01*
X187291297Y-121729815D01*
X187245542Y-121677011D01*
X187235598Y-121607853D01*
X187264623Y-121544297D01*
X187270655Y-121537819D01*
X188823974Y-119984500D01*
X193800452Y-115008020D01*
X193849812Y-114977772D01*
X194066396Y-114907400D01*
X194273331Y-114801961D01*
X194461224Y-114665449D01*
X194625449Y-114501224D01*
X194761961Y-114313331D01*
X194867400Y-114106396D01*
X194939169Y-113885514D01*
X194973844Y-113666582D01*
X194975500Y-113656129D01*
X194975500Y-113423870D01*
X194954681Y-113292427D01*
X194939169Y-113194486D01*
X194867400Y-112973604D01*
X194867398Y-112973601D01*
X194867398Y-112973599D01*
X194781631Y-112805274D01*
X194761961Y-112766669D01*
X194625449Y-112578776D01*
X194461224Y-112414551D01*
X194273331Y-112278039D01*
X194066400Y-112172601D01*
X193845514Y-112100831D01*
X193616129Y-112064500D01*
X193616124Y-112064500D01*
X193383876Y-112064500D01*
X193383871Y-112064500D01*
X193154485Y-112100831D01*
X192933599Y-112172601D01*
X192726668Y-112278039D01*
X192538773Y-112414553D01*
X192374553Y-112578773D01*
X192238039Y-112766668D01*
X192132601Y-112973599D01*
X192062229Y-113190183D01*
X192031979Y-113239545D01*
X185558345Y-119713181D01*
X185497022Y-119746666D01*
X185470664Y-119749500D01*
X184183930Y-119749500D01*
X184116891Y-119729815D01*
X184071136Y-119677011D01*
X184061192Y-119607853D01*
X184073445Y-119569206D01*
X184118880Y-119480033D01*
X184118880Y-119480029D01*
X184118883Y-119480026D01*
X184179709Y-119292826D01*
X184209382Y-119105478D01*
X184210500Y-119098421D01*
X184210500Y-118901577D01*
X184189105Y-118766498D01*
X184179709Y-118707173D01*
X184118883Y-118519974D01*
X184118881Y-118519971D01*
X184118881Y-118519969D01*
X184086868Y-118457141D01*
X184029524Y-118344595D01*
X184029521Y-118344591D01*
X184029521Y-118344590D01*
X183993978Y-118295671D01*
X183913828Y-118185354D01*
X183248646Y-117520172D01*
X183089405Y-117404476D01*
X183039757Y-117379179D01*
X182914030Y-117315117D01*
X182726826Y-117254290D01*
X182532422Y-117223500D01*
X182532417Y-117223500D01*
X150901583Y-117223500D01*
X150901578Y-117223500D01*
X150707173Y-117254290D01*
X150519970Y-117315117D01*
X150344594Y-117404476D01*
X150253741Y-117470485D01*
X150185354Y-117520172D01*
X150185352Y-117520174D01*
X150185351Y-117520174D01*
X150046174Y-117659351D01*
X150046174Y-117659352D01*
X150046172Y-117659354D01*
X150009819Y-117709390D01*
X149930476Y-117818594D01*
X149841117Y-117993970D01*
X149780290Y-118181173D01*
X149749500Y-118375577D01*
X147615079Y-118375577D01*
X147707626Y-118283030D01*
X147937203Y-118053453D01*
X148194587Y-117796068D01*
X148234808Y-117769193D01*
X148379179Y-117709394D01*
X148510289Y-117621789D01*
X148621789Y-117510289D01*
X148709394Y-117379179D01*
X148769737Y-117233497D01*
X148800500Y-117078842D01*
X148800500Y-116921158D01*
X148796031Y-116898690D01*
X148802260Y-116829099D01*
X148845123Y-116773922D01*
X148911013Y-116750678D01*
X148917649Y-116750500D01*
X177598422Y-116750500D01*
X177792826Y-116719709D01*
X177853656Y-116699944D01*
X177980026Y-116658884D01*
X178155405Y-116569524D01*
X178314646Y-116453828D01*
X185453828Y-109314646D01*
X185569524Y-109155405D01*
X185658884Y-108980026D01*
X185719709Y-108792826D01*
X185733435Y-108706162D01*
X185750500Y-108598421D01*
X185750500Y-108401577D01*
X185719709Y-108207173D01*
X185658882Y-108019969D01*
X185569523Y-107844594D01*
X185453828Y-107685354D01*
X185314646Y-107546172D01*
X185164570Y-107437135D01*
X192024500Y-107437135D01*
X192024500Y-109482870D01*
X192024501Y-109482876D01*
X192030908Y-109542483D01*
X192081202Y-109677328D01*
X192081206Y-109677335D01*
X192167452Y-109792544D01*
X192167455Y-109792547D01*
X192282664Y-109878793D01*
X192282671Y-109878797D01*
X192417517Y-109929091D01*
X192417516Y-109929091D01*
X192424444Y-109929835D01*
X192477127Y-109935500D01*
X194522872Y-109935499D01*
X194582483Y-109929091D01*
X194717331Y-109878796D01*
X194832546Y-109792546D01*
X194918796Y-109677331D01*
X194969091Y-109542483D01*
X194975500Y-109482873D01*
X194975499Y-107437128D01*
X194969091Y-107377517D01*
X194968173Y-107375057D01*
X194918797Y-107242671D01*
X194918793Y-107242664D01*
X194832547Y-107127455D01*
X194832544Y-107127452D01*
X194717335Y-107041206D01*
X194717328Y-107041202D01*
X194582482Y-106990908D01*
X194582483Y-106990908D01*
X194522883Y-106984501D01*
X194522881Y-106984500D01*
X194522873Y-106984500D01*
X194522864Y-106984500D01*
X192477129Y-106984500D01*
X192477123Y-106984501D01*
X192417516Y-106990908D01*
X192282671Y-107041202D01*
X192282664Y-107041206D01*
X192167455Y-107127452D01*
X192167452Y-107127455D01*
X192081206Y-107242664D01*
X192081202Y-107242671D01*
X192030908Y-107377517D01*
X192025215Y-107430476D01*
X192024501Y-107437123D01*
X192024500Y-107437135D01*
X185164570Y-107437135D01*
X185155405Y-107430476D01*
X185132476Y-107418793D01*
X184980030Y-107341117D01*
X184792826Y-107280290D01*
X184598422Y-107249500D01*
X184598417Y-107249500D01*
X184401584Y-107249500D01*
X184401579Y-107249500D01*
X184207173Y-107280290D01*
X184019969Y-107341117D01*
X183844594Y-107430476D01*
X183782625Y-107475500D01*
X183685354Y-107546172D01*
X183685352Y-107546174D01*
X183685351Y-107546174D01*
X177018345Y-114213181D01*
X176957022Y-114246666D01*
X176930664Y-114249500D01*
X148351960Y-114249500D01*
X148284921Y-114229815D01*
X148239166Y-114177011D01*
X148229222Y-114107853D01*
X148258247Y-114044297D01*
X148264279Y-114037819D01*
X148287425Y-114014672D01*
X148287428Y-114014669D01*
X148358617Y-113908127D01*
X148407653Y-113789744D01*
X148415834Y-113748615D01*
X148432652Y-113664071D01*
X148432652Y-113535928D01*
X148407654Y-113410261D01*
X148407653Y-113410260D01*
X148407653Y-113410256D01*
X148362453Y-113301134D01*
X148358618Y-113291875D01*
X148358613Y-113291866D01*
X148287428Y-113185331D01*
X148287425Y-113185327D01*
X148196823Y-113094725D01*
X148167263Y-113074974D01*
X148134529Y-113053101D01*
X148089724Y-112999491D01*
X148081017Y-112930166D01*
X148111171Y-112867138D01*
X148134529Y-112846898D01*
X148196821Y-112805276D01*
X148287428Y-112714669D01*
X148358617Y-112608127D01*
X148407653Y-112489744D01*
X148421297Y-112421153D01*
X155699500Y-112421153D01*
X155699500Y-112578846D01*
X155730261Y-112733489D01*
X155730264Y-112733501D01*
X155790602Y-112879172D01*
X155790609Y-112879185D01*
X155878210Y-113010288D01*
X155878213Y-113010292D01*
X155989707Y-113121786D01*
X155989711Y-113121789D01*
X156120814Y-113209390D01*
X156120827Y-113209397D01*
X156248244Y-113262174D01*
X156266503Y-113269737D01*
X156380573Y-113292427D01*
X156421153Y-113300499D01*
X156421156Y-113300500D01*
X156421158Y-113300500D01*
X156578844Y-113300500D01*
X156578845Y-113300499D01*
X156733497Y-113269737D01*
X156879179Y-113209394D01*
X157010289Y-113121789D01*
X157121789Y-113010289D01*
X157209394Y-112879179D01*
X157209395Y-112879176D01*
X157209397Y-112879173D01*
X157246566Y-112789435D01*
X157269192Y-112734810D01*
X157296069Y-112694586D01*
X158112018Y-111878637D01*
X158173339Y-111845154D01*
X158243031Y-111850138D01*
X158298964Y-111892010D01*
X158302799Y-111897429D01*
X158378210Y-112010288D01*
X158378213Y-112010292D01*
X158489707Y-112121786D01*
X158489711Y-112121789D01*
X158620814Y-112209390D01*
X158620827Y-112209397D01*
X158756274Y-112265500D01*
X158766503Y-112269737D01*
X158921153Y-112300499D01*
X158921156Y-112300500D01*
X158921158Y-112300500D01*
X159078844Y-112300500D01*
X159078845Y-112300499D01*
X159233497Y-112269737D01*
X159379179Y-112209394D01*
X159510289Y-112121789D01*
X159547331Y-112084747D01*
X159608653Y-112051261D01*
X159678345Y-112056245D01*
X159734279Y-112098115D01*
X159758697Y-112163579D01*
X159749575Y-112219878D01*
X159730263Y-112266502D01*
X159730261Y-112266510D01*
X159699500Y-112421153D01*
X159699500Y-112578846D01*
X159730261Y-112733489D01*
X159730264Y-112733501D01*
X159790602Y-112879172D01*
X159790609Y-112879185D01*
X159878210Y-113010288D01*
X159878213Y-113010292D01*
X159989707Y-113121786D01*
X159989711Y-113121789D01*
X160120814Y-113209390D01*
X160120827Y-113209397D01*
X160248244Y-113262174D01*
X160266503Y-113269737D01*
X160380573Y-113292427D01*
X160421153Y-113300499D01*
X160421156Y-113300500D01*
X160421158Y-113300500D01*
X160578844Y-113300500D01*
X160578845Y-113300499D01*
X160733497Y-113269737D01*
X160879179Y-113209394D01*
X161010289Y-113121789D01*
X161121789Y-113010289D01*
X161209394Y-112879179D01*
X161269193Y-112734809D01*
X161296072Y-112694583D01*
X164253837Y-109736819D01*
X164315160Y-109703334D01*
X164341518Y-109700500D01*
X168608996Y-109700500D01*
X168700040Y-109682389D01*
X168744328Y-109673580D01*
X168835221Y-109635931D01*
X168871807Y-109620777D01*
X168871808Y-109620776D01*
X168871811Y-109620775D01*
X168986543Y-109544114D01*
X171563016Y-106967638D01*
X171624337Y-106934155D01*
X171689013Y-106937390D01*
X171694486Y-106939169D01*
X171694489Y-106939169D01*
X171694491Y-106939170D01*
X171923871Y-106975500D01*
X171923876Y-106975500D01*
X172156129Y-106975500D01*
X172257502Y-106959443D01*
X172385514Y-106939169D01*
X172606396Y-106867400D01*
X172813331Y-106761961D01*
X173001224Y-106625449D01*
X173165449Y-106461224D01*
X173301961Y-106273331D01*
X173407400Y-106066396D01*
X173479169Y-105845514D01*
X173499471Y-105717328D01*
X173515500Y-105616129D01*
X173515500Y-105383870D01*
X173489122Y-105217328D01*
X173479169Y-105154486D01*
X173407400Y-104933604D01*
X173407398Y-104933601D01*
X173407398Y-104933599D01*
X173339070Y-104799500D01*
X173301961Y-104726669D01*
X173165449Y-104538776D01*
X173001224Y-104374551D01*
X172813331Y-104238039D01*
X172606400Y-104132601D01*
X172385514Y-104060831D01*
X172156129Y-104024500D01*
X172156124Y-104024500D01*
X171923876Y-104024500D01*
X171923871Y-104024500D01*
X171694485Y-104060831D01*
X171473599Y-104132601D01*
X171266668Y-104238039D01*
X171078773Y-104374553D01*
X170914553Y-104538773D01*
X170778039Y-104726668D01*
X170672601Y-104933599D01*
X170600831Y-105154485D01*
X170564500Y-105383870D01*
X170564500Y-105616129D01*
X170600831Y-105845515D01*
X170600831Y-105845518D01*
X170602608Y-105850985D01*
X170604603Y-105920826D01*
X170572358Y-105976984D01*
X168286162Y-108263181D01*
X168224839Y-108296666D01*
X168198481Y-108299500D01*
X163931003Y-108299500D01*
X163822590Y-108321065D01*
X163822589Y-108321065D01*
X163809131Y-108323742D01*
X163795673Y-108326419D01*
X163795671Y-108326420D01*
X163742866Y-108348292D01*
X163742864Y-108348293D01*
X163742863Y-108348292D01*
X163668191Y-108379223D01*
X163556539Y-108453828D01*
X163556533Y-108453832D01*
X163553456Y-108455887D01*
X160305414Y-111703928D01*
X160265186Y-111730808D01*
X160120823Y-111790604D01*
X160120814Y-111790609D01*
X159989711Y-111878210D01*
X159989706Y-111878214D01*
X159952666Y-111915254D01*
X159942776Y-111920654D01*
X159935706Y-111929428D01*
X159912662Y-111937097D01*
X159891343Y-111948739D01*
X159880102Y-111947934D01*
X159869412Y-111951493D01*
X159845877Y-111945486D01*
X159821651Y-111943753D01*
X159812631Y-111937000D01*
X159801713Y-111934214D01*
X159785161Y-111916436D01*
X159765718Y-111901881D01*
X159761780Y-111891324D01*
X159754102Y-111883077D01*
X159749788Y-111859172D01*
X159741302Y-111836417D01*
X159743375Y-111823623D01*
X159741696Y-111814317D01*
X159750423Y-111780123D01*
X159769194Y-111734806D01*
X159796070Y-111694584D01*
X162936333Y-108554322D01*
X162936338Y-108554318D01*
X162946541Y-108544114D01*
X162946543Y-108544114D01*
X165253838Y-106236819D01*
X165280765Y-106222115D01*
X165306584Y-106205523D01*
X165312784Y-106204631D01*
X165315161Y-106203334D01*
X165341519Y-106200500D01*
X165360501Y-106200500D01*
X165427540Y-106220185D01*
X165473295Y-106272989D01*
X165484501Y-106324500D01*
X165484501Y-106522876D01*
X165490908Y-106582483D01*
X165541202Y-106717328D01*
X165541206Y-106717335D01*
X165627452Y-106832544D01*
X165627455Y-106832547D01*
X165742664Y-106918793D01*
X165742671Y-106918797D01*
X165877517Y-106969091D01*
X165877516Y-106969091D01*
X165884444Y-106969835D01*
X165937127Y-106975500D01*
X167982872Y-106975499D01*
X168042483Y-106969091D01*
X168177331Y-106918796D01*
X168292546Y-106832546D01*
X168378796Y-106717331D01*
X168429091Y-106582483D01*
X168435500Y-106522873D01*
X168435499Y-104477128D01*
X168429091Y-104417517D01*
X168416541Y-104383870D01*
X168378797Y-104282671D01*
X168378793Y-104282664D01*
X168292547Y-104167455D01*
X168292544Y-104167452D01*
X168177335Y-104081206D01*
X168177328Y-104081202D01*
X168042482Y-104030908D01*
X168042483Y-104030908D01*
X167982883Y-104024501D01*
X167982881Y-104024500D01*
X167982873Y-104024500D01*
X167982864Y-104024500D01*
X165937129Y-104024500D01*
X165937123Y-104024501D01*
X165877516Y-104030908D01*
X165742671Y-104081202D01*
X165742664Y-104081206D01*
X165627455Y-104167452D01*
X165627452Y-104167455D01*
X165541206Y-104282664D01*
X165541202Y-104282671D01*
X165490908Y-104417517D01*
X165484501Y-104477116D01*
X165484501Y-104477123D01*
X165484500Y-104477135D01*
X165484500Y-104675500D01*
X165464815Y-104742539D01*
X165412011Y-104788294D01*
X165360500Y-104799500D01*
X164931004Y-104799500D01*
X164795677Y-104826418D01*
X164795667Y-104826421D01*
X164668192Y-104879222D01*
X164553454Y-104955887D01*
X164553453Y-104955888D01*
X161955886Y-107553457D01*
X160452181Y-109057162D01*
X160390858Y-109090647D01*
X160321166Y-109085663D01*
X160265233Y-109043791D01*
X160240816Y-108978327D01*
X160240500Y-108969481D01*
X160240500Y-107599499D01*
X160260185Y-107532460D01*
X160312989Y-107486705D01*
X160364500Y-107475499D01*
X160562871Y-107475499D01*
X160562872Y-107475499D01*
X160622483Y-107469091D01*
X160757331Y-107418796D01*
X160872546Y-107332546D01*
X160958796Y-107217331D01*
X161009091Y-107082483D01*
X161015500Y-107022873D01*
X161015499Y-104977128D01*
X161009091Y-104917517D01*
X160993066Y-104874553D01*
X160958797Y-104782671D01*
X160958793Y-104782664D01*
X160872547Y-104667455D01*
X160872544Y-104667452D01*
X160757335Y-104581206D01*
X160757328Y-104581202D01*
X160622482Y-104530908D01*
X160622483Y-104530908D01*
X160562883Y-104524501D01*
X160562881Y-104524500D01*
X160562873Y-104524500D01*
X160562864Y-104524500D01*
X158517129Y-104524500D01*
X158517123Y-104524501D01*
X158457516Y-104530908D01*
X158322671Y-104581202D01*
X158322664Y-104581206D01*
X158207455Y-104667452D01*
X158207452Y-104667455D01*
X158121206Y-104782664D01*
X158121202Y-104782671D01*
X158070908Y-104917517D01*
X158064501Y-104977116D01*
X158064501Y-104977123D01*
X158064500Y-104977135D01*
X158064500Y-107022870D01*
X158064501Y-107022872D01*
X158070908Y-107082483D01*
X158121202Y-107217328D01*
X158121206Y-107217335D01*
X158207452Y-107332544D01*
X158207455Y-107332547D01*
X158322664Y-107418793D01*
X158322671Y-107418797D01*
X158353985Y-107430476D01*
X158457517Y-107469091D01*
X158517127Y-107475500D01*
X158715500Y-107475499D01*
X158782539Y-107495183D01*
X158828294Y-107547987D01*
X158839500Y-107599499D01*
X158839500Y-109118480D01*
X158819815Y-109185519D01*
X158803181Y-109206161D01*
X156305412Y-111703929D01*
X156265184Y-111730809D01*
X156120823Y-111790604D01*
X156120814Y-111790609D01*
X155989711Y-111878210D01*
X155989707Y-111878213D01*
X155878213Y-111989707D01*
X155878210Y-111989711D01*
X155790609Y-112120814D01*
X155790602Y-112120827D01*
X155730264Y-112266498D01*
X155730261Y-112266510D01*
X155699500Y-112421153D01*
X148421297Y-112421153D01*
X148432652Y-112364069D01*
X148432652Y-112235931D01*
X148432652Y-112235928D01*
X148407654Y-112110261D01*
X148407653Y-112110260D01*
X148407653Y-112110256D01*
X148362453Y-112001134D01*
X148358618Y-111991875D01*
X148358613Y-111991866D01*
X148287428Y-111885331D01*
X148287425Y-111885327D01*
X148196823Y-111794725D01*
X148159422Y-111769735D01*
X148134529Y-111753101D01*
X148089724Y-111699491D01*
X148081017Y-111630166D01*
X148111171Y-111567138D01*
X148134529Y-111546898D01*
X148196821Y-111505276D01*
X148287428Y-111414669D01*
X148358617Y-111308127D01*
X148407653Y-111189744D01*
X148415834Y-111148615D01*
X148432652Y-111064071D01*
X148432652Y-110935929D01*
X148429713Y-110921153D01*
X152199500Y-110921153D01*
X152199500Y-111078846D01*
X152230261Y-111233489D01*
X152230264Y-111233501D01*
X152290602Y-111379172D01*
X152290609Y-111379185D01*
X152378210Y-111510288D01*
X152378213Y-111510292D01*
X152489707Y-111621786D01*
X152489711Y-111621789D01*
X152620814Y-111709390D01*
X152620827Y-111709397D01*
X152758683Y-111766498D01*
X152766503Y-111769737D01*
X152921153Y-111800499D01*
X152921156Y-111800500D01*
X152921158Y-111800500D01*
X153078844Y-111800500D01*
X153078845Y-111800499D01*
X153233497Y-111769737D01*
X153379179Y-111709394D01*
X153510289Y-111621789D01*
X153621789Y-111510289D01*
X153709394Y-111379179D01*
X153709395Y-111379176D01*
X153709397Y-111379173D01*
X153769192Y-111234812D01*
X153796069Y-111194586D01*
X155004114Y-109986543D01*
X155080775Y-109871811D01*
X155133580Y-109744328D01*
X155155142Y-109635931D01*
X155160500Y-109608996D01*
X155160500Y-107375057D01*
X155180185Y-107308018D01*
X155228209Y-107264570D01*
X155233331Y-107261961D01*
X155421224Y-107125449D01*
X155585449Y-106961224D01*
X155721961Y-106773331D01*
X155827400Y-106566396D01*
X155899169Y-106345514D01*
X155921688Y-106203334D01*
X155935500Y-106116129D01*
X155935500Y-105883870D01*
X155909122Y-105717328D01*
X155899169Y-105654486D01*
X155827400Y-105433604D01*
X155827398Y-105433601D01*
X155827398Y-105433599D01*
X155765715Y-105312540D01*
X155721961Y-105226669D01*
X155585449Y-105038776D01*
X155421224Y-104874551D01*
X155233331Y-104738039D01*
X155211014Y-104726668D01*
X155026400Y-104632601D01*
X154805514Y-104560831D01*
X154576129Y-104524500D01*
X154576124Y-104524500D01*
X154343876Y-104524500D01*
X154343871Y-104524500D01*
X154114485Y-104560831D01*
X153893599Y-104632601D01*
X153686668Y-104738039D01*
X153498773Y-104874553D01*
X153334553Y-105038773D01*
X153198039Y-105226668D01*
X153092601Y-105433599D01*
X153020831Y-105654485D01*
X152984500Y-105883870D01*
X152984500Y-106116129D01*
X153020831Y-106345514D01*
X153092601Y-106566400D01*
X153192245Y-106761960D01*
X153198039Y-106773331D01*
X153334551Y-106961224D01*
X153498776Y-107125449D01*
X153686669Y-107261961D01*
X153691790Y-107264570D01*
X153742587Y-107312540D01*
X153759500Y-107375057D01*
X153759500Y-109198480D01*
X153739815Y-109265519D01*
X153723181Y-109286161D01*
X152805412Y-110203929D01*
X152765184Y-110230809D01*
X152620823Y-110290604D01*
X152620814Y-110290609D01*
X152489711Y-110378210D01*
X152489707Y-110378213D01*
X152378213Y-110489707D01*
X152378210Y-110489711D01*
X152290609Y-110620814D01*
X152290602Y-110620827D01*
X152230264Y-110766498D01*
X152230261Y-110766510D01*
X152199500Y-110921153D01*
X148429713Y-110921153D01*
X148407654Y-110810261D01*
X148407653Y-110810260D01*
X148407653Y-110810256D01*
X148365876Y-110709397D01*
X148358618Y-110691875D01*
X148358613Y-110691866D01*
X148287428Y-110585331D01*
X148287425Y-110585327D01*
X148196823Y-110494725D01*
X148170638Y-110477229D01*
X148134529Y-110453101D01*
X148089724Y-110399491D01*
X148081017Y-110330166D01*
X148111171Y-110267138D01*
X148134529Y-110246898D01*
X148196821Y-110205276D01*
X148287428Y-110114669D01*
X148358617Y-110008127D01*
X148407653Y-109889744D01*
X148423436Y-109810402D01*
X148432652Y-109764071D01*
X148432652Y-109635928D01*
X148407654Y-109510261D01*
X148407653Y-109510260D01*
X148407653Y-109510256D01*
X148362453Y-109401134D01*
X148358618Y-109391875D01*
X148358613Y-109391866D01*
X148287428Y-109285331D01*
X148287425Y-109285327D01*
X148196824Y-109194726D01*
X148196820Y-109194723D01*
X148090285Y-109123538D01*
X148090276Y-109123533D01*
X147971896Y-109074499D01*
X147971890Y-109074497D01*
X147846223Y-109049500D01*
X147846221Y-109049500D01*
X147718083Y-109049500D01*
X147718081Y-109049500D01*
X147592413Y-109074497D01*
X147592407Y-109074499D01*
X147474027Y-109123533D01*
X147474018Y-109123538D01*
X147367483Y-109194723D01*
X147367479Y-109194726D01*
X147276878Y-109285327D01*
X147276875Y-109285331D01*
X147235254Y-109347622D01*
X147181642Y-109392427D01*
X147112317Y-109401134D01*
X147049289Y-109370979D01*
X147029050Y-109347622D01*
X146987428Y-109285331D01*
X146987425Y-109285327D01*
X146896824Y-109194726D01*
X146896820Y-109194723D01*
X146790285Y-109123538D01*
X146790276Y-109123533D01*
X146671896Y-109074499D01*
X146671890Y-109074497D01*
X146546223Y-109049500D01*
X146546221Y-109049500D01*
X146418083Y-109049500D01*
X146418081Y-109049500D01*
X146292413Y-109074497D01*
X146292407Y-109074499D01*
X146174027Y-109123533D01*
X146174018Y-109123538D01*
X146067483Y-109194723D01*
X146067479Y-109194726D01*
X145976878Y-109285327D01*
X145976875Y-109285331D01*
X145905690Y-109391866D01*
X145905685Y-109391875D01*
X145856651Y-109510255D01*
X145856649Y-109510261D01*
X145831652Y-109635928D01*
X145831652Y-109635931D01*
X145831652Y-109764069D01*
X145831652Y-109764071D01*
X145831651Y-109764071D01*
X145856649Y-109889738D01*
X145856651Y-109889744D01*
X145905685Y-110008124D01*
X145905690Y-110008133D01*
X145976875Y-110114668D01*
X145976878Y-110114672D01*
X146067479Y-110205273D01*
X146067483Y-110205276D01*
X146129774Y-110246898D01*
X146174579Y-110300510D01*
X146183286Y-110369835D01*
X146153131Y-110432863D01*
X146129774Y-110453102D01*
X146067483Y-110494723D01*
X146067479Y-110494726D01*
X145976878Y-110585327D01*
X145976875Y-110585331D01*
X145905690Y-110691866D01*
X145905685Y-110691875D01*
X145856651Y-110810255D01*
X145856649Y-110810261D01*
X145831652Y-110935928D01*
X145831652Y-110935929D01*
X145831652Y-110935931D01*
X145831652Y-111064069D01*
X145831652Y-111064071D01*
X145831651Y-111064071D01*
X145856649Y-111189738D01*
X145856651Y-111189744D01*
X145905685Y-111308124D01*
X145905690Y-111308133D01*
X145976875Y-111414668D01*
X145976878Y-111414672D01*
X146067479Y-111505273D01*
X146067483Y-111505276D01*
X146129774Y-111546898D01*
X146174579Y-111600510D01*
X146183286Y-111669835D01*
X146153131Y-111732863D01*
X146129774Y-111753102D01*
X146067483Y-111794723D01*
X146067479Y-111794726D01*
X145976878Y-111885327D01*
X145976875Y-111885331D01*
X145905690Y-111991866D01*
X145905685Y-111991875D01*
X145856651Y-112110255D01*
X145856649Y-112110261D01*
X145831652Y-112235928D01*
X145831652Y-112235931D01*
X145831652Y-112364069D01*
X145831652Y-112364071D01*
X145831651Y-112364071D01*
X145856649Y-112489738D01*
X145856651Y-112489744D01*
X145905685Y-112608124D01*
X145905690Y-112608133D01*
X145976875Y-112714668D01*
X145976878Y-112714672D01*
X146067479Y-112805273D01*
X146067483Y-112805276D01*
X146129774Y-112846898D01*
X146174579Y-112900510D01*
X146183286Y-112969835D01*
X146153131Y-113032863D01*
X146129774Y-113053102D01*
X146067483Y-113094723D01*
X146067479Y-113094726D01*
X145976878Y-113185327D01*
X145976875Y-113185331D01*
X145905690Y-113291866D01*
X145905685Y-113291875D01*
X145856651Y-113410255D01*
X145856649Y-113410261D01*
X145831652Y-113535928D01*
X145831652Y-113535931D01*
X145831652Y-113664069D01*
X145831652Y-113664071D01*
X145831651Y-113664071D01*
X145856649Y-113789738D01*
X145856651Y-113789744D01*
X145905685Y-113908124D01*
X145905690Y-113908133D01*
X145976875Y-114014668D01*
X145976878Y-114014672D01*
X146000025Y-114037819D01*
X146033510Y-114099142D01*
X146028526Y-114168834D01*
X145986654Y-114224767D01*
X145921190Y-114249184D01*
X145912344Y-114249500D01*
X144514336Y-114249500D01*
X144447297Y-114229815D01*
X144426655Y-114213181D01*
X142814648Y-112601174D01*
X142814646Y-112601172D01*
X142655405Y-112485476D01*
X142655404Y-112485475D01*
X142655402Y-112485474D01*
X142652576Y-112484034D01*
X142651694Y-112483201D01*
X142651253Y-112482931D01*
X142651309Y-112482838D01*
X142601782Y-112436059D01*
X142584988Y-112368237D01*
X142607527Y-112302103D01*
X142662243Y-112258653D01*
X142689476Y-112251078D01*
X142703717Y-112248822D01*
X142792826Y-112234709D01*
X142980025Y-112173884D01*
X143155405Y-112084524D01*
X143314646Y-111968828D01*
X143453828Y-111829646D01*
X143569524Y-111670405D01*
X143658884Y-111495025D01*
X143719709Y-111307826D01*
X143727041Y-111261534D01*
X143750500Y-111113422D01*
X143750500Y-110916577D01*
X143719709Y-110722173D01*
X143658882Y-110534970D01*
X143589852Y-110399491D01*
X143569524Y-110359595D01*
X143453828Y-110200354D01*
X143314646Y-110061172D01*
X143155405Y-109945476D01*
X143135822Y-109935498D01*
X142980029Y-109856117D01*
X142792826Y-109795290D01*
X142598422Y-109764500D01*
X142598417Y-109764500D01*
X141084336Y-109764500D01*
X141017297Y-109744815D01*
X140996655Y-109728181D01*
X139786819Y-108518345D01*
X139753334Y-108457022D01*
X139750500Y-108430664D01*
X139750500Y-108069336D01*
X139770185Y-108002297D01*
X139786819Y-107981655D01*
X143981655Y-103786819D01*
X144042978Y-103753334D01*
X144069336Y-103750500D01*
X177430664Y-103750500D01*
X177497703Y-103770185D01*
X177518345Y-103786819D01*
X177977517Y-104245991D01*
X178011002Y-104307314D01*
X178006019Y-104377003D01*
X177990910Y-104417514D01*
X177990908Y-104417520D01*
X177984501Y-104477116D01*
X177984501Y-104477123D01*
X177984500Y-104477135D01*
X177984500Y-106522870D01*
X177984501Y-106522876D01*
X177990908Y-106582483D01*
X178041202Y-106717328D01*
X178041206Y-106717335D01*
X178127452Y-106832544D01*
X178127455Y-106832547D01*
X178242664Y-106918793D01*
X178242671Y-106918797D01*
X178377517Y-106969091D01*
X178377516Y-106969091D01*
X178384444Y-106969835D01*
X178437127Y-106975500D01*
X180482872Y-106975499D01*
X180542483Y-106969091D01*
X180677331Y-106918796D01*
X180792546Y-106832546D01*
X180878796Y-106717331D01*
X180929091Y-106582483D01*
X180935500Y-106522873D01*
X180935499Y-105383870D01*
X183064500Y-105383870D01*
X183064500Y-105616129D01*
X183100831Y-105845514D01*
X183172601Y-106066400D01*
X183251943Y-106222115D01*
X183278039Y-106273331D01*
X183414551Y-106461224D01*
X183578776Y-106625449D01*
X183766669Y-106761961D01*
X183864436Y-106811776D01*
X183973599Y-106867398D01*
X183973601Y-106867398D01*
X183973604Y-106867400D01*
X184194486Y-106939169D01*
X184312668Y-106957886D01*
X184423871Y-106975500D01*
X184423876Y-106975500D01*
X184656129Y-106975500D01*
X184757502Y-106959443D01*
X184885514Y-106939169D01*
X185106396Y-106867400D01*
X185313331Y-106761961D01*
X185501224Y-106625449D01*
X185665449Y-106461224D01*
X185801961Y-106273331D01*
X185907400Y-106066396D01*
X185979169Y-105845514D01*
X185999471Y-105717328D01*
X186015500Y-105616129D01*
X186015500Y-105383870D01*
X185989122Y-105217328D01*
X185979169Y-105154486D01*
X185907400Y-104933604D01*
X185907398Y-104933601D01*
X185907398Y-104933599D01*
X185839070Y-104799500D01*
X185801961Y-104726669D01*
X185665449Y-104538776D01*
X185501224Y-104374551D01*
X185313331Y-104238039D01*
X185106400Y-104132601D01*
X184885514Y-104060831D01*
X184656129Y-104024500D01*
X184656124Y-104024500D01*
X184423876Y-104024500D01*
X184423871Y-104024500D01*
X184194485Y-104060831D01*
X183973599Y-104132601D01*
X183766668Y-104238039D01*
X183578773Y-104374553D01*
X183414553Y-104538773D01*
X183278039Y-104726668D01*
X183172601Y-104933599D01*
X183100831Y-105154485D01*
X183064500Y-105383870D01*
X180935499Y-105383870D01*
X180935499Y-104477128D01*
X180929091Y-104417517D01*
X180916541Y-104383870D01*
X180878797Y-104282671D01*
X180878793Y-104282664D01*
X180792548Y-104167457D01*
X180792546Y-104167454D01*
X180792544Y-104167452D01*
X180792542Y-104167450D01*
X180760188Y-104143230D01*
X180718318Y-104087296D01*
X180710500Y-104043964D01*
X180710500Y-103861577D01*
X180679709Y-103667177D01*
X180679709Y-103667176D01*
X180679709Y-103667174D01*
X180662440Y-103614027D01*
X180653806Y-103587453D01*
X180618885Y-103479976D01*
X180618884Y-103479973D01*
X180529523Y-103304594D01*
X180513595Y-103282671D01*
X180413828Y-103145354D01*
X178814646Y-101546172D01*
X178655405Y-101430476D01*
X178480030Y-101341117D01*
X178292826Y-101280290D01*
X178098422Y-101249500D01*
X178098417Y-101249500D01*
X143401583Y-101249500D01*
X143401578Y-101249500D01*
X143207173Y-101280290D01*
X143019969Y-101341117D01*
X142844594Y-101430476D01*
X142753742Y-101496484D01*
X142685355Y-101546171D01*
X142685353Y-101546173D01*
X142685352Y-101546173D01*
X137546174Y-106685351D01*
X137546174Y-106685352D01*
X137546172Y-106685354D01*
X137522939Y-106717331D01*
X137430474Y-106844596D01*
X137341115Y-107019975D01*
X137341112Y-107019983D01*
X137340173Y-107022871D01*
X137340174Y-107022872D01*
X137280291Y-107207169D01*
X137280291Y-107207172D01*
X137249500Y-107401577D01*
X134740500Y-107401577D01*
X134740500Y-105375057D01*
X134760185Y-105308018D01*
X134808209Y-105264570D01*
X134813331Y-105261961D01*
X135001224Y-105125449D01*
X135165449Y-104961224D01*
X135301961Y-104773331D01*
X135407400Y-104566396D01*
X135479169Y-104345514D01*
X135507370Y-104167457D01*
X135515500Y-104116129D01*
X135515500Y-103883870D01*
X135490601Y-103726668D01*
X135479169Y-103654486D01*
X135407400Y-103433604D01*
X135407398Y-103433601D01*
X135407398Y-103433599D01*
X135341666Y-103304594D01*
X135301961Y-103226669D01*
X135165449Y-103038776D01*
X135001224Y-102874551D01*
X134813331Y-102738039D01*
X134606400Y-102632601D01*
X134385514Y-102560831D01*
X134156129Y-102524500D01*
X134156124Y-102524500D01*
X133923876Y-102524500D01*
X133923871Y-102524500D01*
X133694485Y-102560831D01*
X133473599Y-102632601D01*
X133266668Y-102738039D01*
X133078773Y-102874553D01*
X132914553Y-103038773D01*
X132778039Y-103226668D01*
X132672601Y-103433599D01*
X132600831Y-103654485D01*
X132564500Y-103883870D01*
X130435499Y-103883870D01*
X130435499Y-102977128D01*
X130429091Y-102917517D01*
X130413066Y-102874553D01*
X130378797Y-102782671D01*
X130378793Y-102782664D01*
X130292547Y-102667455D01*
X130292544Y-102667452D01*
X130177335Y-102581206D01*
X130177328Y-102581202D01*
X130042482Y-102530908D01*
X130042483Y-102530908D01*
X129982883Y-102524501D01*
X129982881Y-102524500D01*
X129982873Y-102524500D01*
X129982864Y-102524500D01*
X127937129Y-102524500D01*
X127937123Y-102524501D01*
X127877516Y-102530908D01*
X127742671Y-102581202D01*
X127742664Y-102581206D01*
X127627455Y-102667452D01*
X127627452Y-102667455D01*
X127541206Y-102782664D01*
X127541202Y-102782671D01*
X127490908Y-102917517D01*
X127484501Y-102977116D01*
X127484501Y-102977123D01*
X127484500Y-102977135D01*
X100500500Y-102977135D01*
X100500500Y-100624500D01*
X100520185Y-100557461D01*
X100572989Y-100511706D01*
X100624500Y-100500500D01*
X199375500Y-100500500D01*
X199442539Y-100520185D01*
G37*
%TD.AperFunction*%
%TD*%
%TA.AperFunction,NonConductor*%
G36*
X147215014Y-110029019D02*
G01*
X147235252Y-110052375D01*
X147241132Y-110061174D01*
X147276877Y-110114671D01*
X147367479Y-110205273D01*
X147367483Y-110205276D01*
X147429774Y-110246898D01*
X147474579Y-110300510D01*
X147483286Y-110369835D01*
X147453131Y-110432863D01*
X147429774Y-110453102D01*
X147367483Y-110494723D01*
X147367479Y-110494726D01*
X147276878Y-110585327D01*
X147276875Y-110585331D01*
X147235254Y-110647622D01*
X147181642Y-110692427D01*
X147112317Y-110701134D01*
X147049289Y-110670979D01*
X147029050Y-110647622D01*
X146987428Y-110585331D01*
X146987425Y-110585327D01*
X146896823Y-110494725D01*
X146870638Y-110477229D01*
X146834529Y-110453101D01*
X146789724Y-110399491D01*
X146781017Y-110330166D01*
X146811171Y-110267138D01*
X146834529Y-110246898D01*
X146896821Y-110205276D01*
X146987428Y-110114669D01*
X147029050Y-110052377D01*
X147082661Y-110007572D01*
X147151986Y-109998865D01*
X147215014Y-110029019D01*
G37*
%TD.AperFunction*%
%TA.AperFunction,NonConductor*%
G36*
X147149710Y-111299150D02*
G01*
X147151986Y-111298865D01*
X147181577Y-111313022D01*
X147211670Y-111326121D01*
X147213714Y-111328397D01*
X147215014Y-111329019D01*
X147235255Y-111352378D01*
X147276877Y-111414671D01*
X147367479Y-111505273D01*
X147367483Y-111505276D01*
X147429774Y-111546898D01*
X147474579Y-111600510D01*
X147483286Y-111669835D01*
X147453131Y-111732863D01*
X147429774Y-111753102D01*
X147367483Y-111794723D01*
X147367479Y-111794726D01*
X147276878Y-111885327D01*
X147276875Y-111885331D01*
X147235254Y-111947622D01*
X147181642Y-111992427D01*
X147112317Y-112001134D01*
X147049289Y-111970979D01*
X147029050Y-111947622D01*
X146987428Y-111885331D01*
X146987425Y-111885327D01*
X146896823Y-111794725D01*
X146859422Y-111769735D01*
X146834529Y-111753101D01*
X146789724Y-111699491D01*
X146781017Y-111630166D01*
X146811171Y-111567138D01*
X146834529Y-111546898D01*
X146896821Y-111505276D01*
X146987428Y-111414669D01*
X147029050Y-111352377D01*
X147054238Y-111331325D01*
X147078636Y-111309411D01*
X147080899Y-111309044D01*
X147082661Y-111307572D01*
X147115224Y-111303482D01*
X147147606Y-111298235D01*
X147149710Y-111299150D01*
G37*
%TD.AperFunction*%
%TA.AperFunction,NonConductor*%
G36*
X147215014Y-112629019D02*
G01*
X147235255Y-112652378D01*
X147276877Y-112714671D01*
X147367479Y-112805273D01*
X147367483Y-112805276D01*
X147429774Y-112846898D01*
X147474579Y-112900510D01*
X147483286Y-112969835D01*
X147453131Y-113032863D01*
X147429774Y-113053102D01*
X147367483Y-113094723D01*
X147367479Y-113094726D01*
X147276878Y-113185327D01*
X147276875Y-113185331D01*
X147235254Y-113247622D01*
X147181642Y-113292427D01*
X147112317Y-113301134D01*
X147049289Y-113270979D01*
X147029050Y-113247622D01*
X146987428Y-113185331D01*
X146987425Y-113185327D01*
X146896823Y-113094725D01*
X146867263Y-113074974D01*
X146834529Y-113053101D01*
X146789724Y-112999491D01*
X146781017Y-112930166D01*
X146811171Y-112867138D01*
X146834529Y-112846898D01*
X146896821Y-112805276D01*
X146987428Y-112714669D01*
X147029050Y-112652377D01*
X147082661Y-112607572D01*
X147151986Y-112598865D01*
X147215014Y-112629019D01*
G37*
%TD.AperFunction*%
M02*
