%TF.GenerationSoftware,KiCad,Pcbnew,9.0.4*%
%TF.CreationDate,2025-09-17T18:04:12-03:00*%
%TF.ProjectId,DriversDiego,44726976-6572-4734-9469-65676f2e6b69,rev?*%
%TF.SameCoordinates,Original*%
%TF.FileFunction,Soldermask,Bot*%
%TF.FilePolarity,Negative*%
%FSLAX46Y46*%
G04 Gerber Fmt 4.6, Leading zero omitted, Abs format (unit mm)*
G04 Created by KiCad (PCBNEW 9.0.4) date 2025-09-17 18:04:12*
%MOMM*%
%LPD*%
G01*
G04 APERTURE LIST*
G04 Aperture macros list*
%AMRoundRect*
0 Rectangle with rounded corners*
0 $1 Rounding radius*
0 $2 $3 $4 $5 $6 $7 $8 $9 X,Y pos of 4 corners*
0 Add a 4 corners polygon primitive as box body*
4,1,4,$2,$3,$4,$5,$6,$7,$8,$9,$2,$3,0*
0 Add four circle primitives for the rounded corners*
1,1,$1+$1,$2,$3*
1,1,$1+$1,$4,$5*
1,1,$1+$1,$6,$7*
1,1,$1+$1,$8,$9*
0 Add four rect primitives between the rounded corners*
20,1,$1+$1,$2,$3,$4,$5,0*
20,1,$1+$1,$4,$5,$6,$7,0*
20,1,$1+$1,$6,$7,$8,$9,0*
20,1,$1+$1,$8,$9,$2,$3,0*%
G04 Aperture macros list end*
%ADD10C,2.154000*%
%ADD11RoundRect,0.102000X-0.975000X-0.975000X0.975000X-0.975000X0.975000X0.975000X-0.975000X0.975000X0*%
%ADD12RoundRect,0.102000X-0.975000X0.975000X-0.975000X-0.975000X0.975000X-0.975000X0.975000X0.975000X0*%
%ADD13C,0.504000*%
%ADD14RoundRect,0.102000X0.975000X-0.975000X0.975000X0.975000X-0.975000X0.975000X-0.975000X-0.975000X0*%
%ADD15RoundRect,0.102000X0.975000X0.975000X-0.975000X0.975000X-0.975000X-0.975000X0.975000X-0.975000X0*%
G04 APERTURE END LIST*
D10*
%TO.C,J14*%
X117540000Y-156500000D03*
D11*
X112460000Y-156500000D03*
%TD*%
D12*
%TO.C,J3*%
X106500000Y-104920000D03*
D10*
X106500000Y-110000000D03*
%TD*%
D11*
%TO.C,J17*%
X138460000Y-155500000D03*
D10*
X143540000Y-155500000D03*
%TD*%
D13*
%TO.C,U1*%
X147782152Y-113600000D03*
X146482152Y-113600000D03*
X147782152Y-112300000D03*
X146482152Y-112300000D03*
X147782152Y-111000000D03*
X146482152Y-111000000D03*
X147782152Y-109700000D03*
X146482152Y-109700000D03*
%TD*%
D12*
%TO.C,J4*%
X106500000Y-117960000D03*
D10*
X106500000Y-123040000D03*
%TD*%
D12*
%TO.C,J13*%
X193500000Y-108460000D03*
D10*
X193500000Y-113540000D03*
%TD*%
D11*
%TO.C,J8*%
X116460000Y-104500000D03*
D10*
X121540000Y-104500000D03*
%TD*%
D14*
%TO.C,J7*%
X106000000Y-148040000D03*
D10*
X106000000Y-142960000D03*
%TD*%
D12*
%TO.C,J16*%
X193500000Y-134420000D03*
D10*
X193500000Y-139500000D03*
%TD*%
D11*
%TO.C,J1*%
X179460000Y-105500000D03*
D10*
X184540000Y-105500000D03*
%TD*%
D11*
%TO.C,J10*%
X128960000Y-104000000D03*
D10*
X134040000Y-104000000D03*
%TD*%
D15*
%TO.C,J2*%
X159540000Y-106000000D03*
D10*
X154460000Y-106000000D03*
%TD*%
D12*
%TO.C,J15*%
X193500000Y-146960000D03*
D10*
X193500000Y-152040000D03*
%TD*%
D11*
%TO.C,J5*%
X151460000Y-155500000D03*
D10*
X156540000Y-155500000D03*
%TD*%
D15*
%TO.C,J18*%
X169540000Y-155500000D03*
D10*
X164460000Y-155500000D03*
%TD*%
D11*
%TO.C,J11*%
X166960000Y-105500000D03*
D10*
X172040000Y-105500000D03*
%TD*%
D12*
%TO.C,J12*%
X193500000Y-121460000D03*
D10*
X193500000Y-126540000D03*
%TD*%
D11*
%TO.C,J6*%
X125460000Y-155500000D03*
D10*
X130540000Y-155500000D03*
%TD*%
D14*
%TO.C,J9*%
X106000000Y-135540000D03*
D10*
X106000000Y-130460000D03*
%TD*%
D15*
%TO.C,J19*%
X182540000Y-155500000D03*
D10*
X177460000Y-155500000D03*
%TD*%
M02*
